<svg data-name="Layer 1" xmlns="http://www.w3.org/2000/svg" viewBox="0 0 40.23 63.81"><title>Icon_RH_Signage_Elevator_RGB_Black</title><path d="M23.78 3.53a.5.5 0 0 0 .69 0l2.8-2.66a.5.5 0 0 0-.34-.86h-5.61a.5.5 0 0 0-.34.86zM25.68 1l-1.56 1.47L22.57 1zM13.31 3.66h5.63a.5.5 0 0 0 .25-.93L16.46.14a.5.5 0 0 0-.69 0l-2.8 2.66a.5.5 0 0 0 .34.86zm2.81-2.47l1.55 1.47h-3.1zm23.12 4.37H1a1 1 0 0 0-1 1v56.26a1 1 0 0 0 1 1h38.24a1 1 0 0 0 1-1V6.57a1 1 0 0 0-1-1zM19.62 61.82H2V7.57h17.62zm18.62 0H20.62V7.57h17.62z"/></svg>