<?xml version="1.0" encoding="utf-8"?>
<!-- Generator: Adobe Illustrator 17.1.0, SVG Export Plug-In . SVG Version: 6.00 Build 0)  -->
<!DOCTYPE svg PUBLIC "-//W3C//DTD SVG 1.1//EN" "http://www.w3.org/Graphics/SVG/1.1/DTD/svg11.dtd">
<svg version="1.1" id="Layer_1" xmlns="http://www.w3.org/2000/svg" xmlns:xlink="http://www.w3.org/1999/xlink" x="0px" y="0px"
	 viewBox="0 0 144 144" enable-background="new 0 0 144 144" xml:space="preserve">
<g>
	<g>
		<path fill="#FFFFFF" d="M102.946,45.983c0.156-0.269,0.13-0.606-0.065-0.848c-0.195-0.242-0.522-0.338-0.815-0.241
			c-0.151,0.049-3.347,1.135-4.435,4.838c-1.155-1.393-2.749-4.515-0.352-9.71c0.134-0.29,0.07-0.631-0.158-0.853
			c-0.229-0.222-0.573-0.273-0.857-0.132c-0.218,0.108-5.317,2.729-5.022,8.823c0.007,0.063,0.178,1.58,1.146,4.146
			c0.029,0.085,0.561,1.664-0.044,2.841c-0.44-1.832-1.644-4.848-4.887-6.159c-0.303-0.122-0.646-0.033-0.854,0.215
			c-0.209,0.249-0.233,0.605-0.062,0.881c0.064,0.104,1.574,2.612,0.194,7.216c-0.021,0.092-2.079,9.227,8.963,12.559
			c0.071,0.021,0.144,0.032,0.217,0.032c0.097,0,0.192-0.018,0.283-0.056c0.227-0.092,5.563-2.318,7.425-7.227
			c1.05-2.767,0.775-5.806-0.856-9.103C102.682,53.071,100.699,49.854,102.946,45.983z M102.225,61.767
			c-1.419,3.752-5.353,5.802-6.358,6.273c-9.361-2.971-7.746-10.375-7.683-10.65c0.812-2.71,0.711-4.824,0.409-6.256
			c2.248,2.003,2.497,5.259,2.5,5.298c0.017,0.256,0.164,0.486,0.389,0.609c0.227,0.123,0.499,0.123,0.722-0.001
			c2.352-1.297,2.074-4.186,1.594-5.547c-0.889-2.356-1.059-3.75-1.061-3.75c-0.135-2.788,1.102-4.713,2.268-5.895
			c-1.88,6.733,2.61,9.944,2.661,9.979c0.216,0.15,0.495,0.175,0.733,0.068c0.239-0.107,0.405-0.333,0.438-0.593
			c0.226-1.832,1.042-3.038,1.85-3.804c-0.999,3.624,0.723,6.367,0.776,6.443C102.859,56.774,103.116,59.407,102.225,61.767z"/>
		<path fill="#FFFFFF" d="M87.329,67.345h-2.027H74.091h-0.027c-0.535,0-0.971,0.434-0.971,0.971v13.268H59.872h-0.026
			c-0.536,0-0.972,0.435-0.972,0.971v13.673H45.289l0.556-3.176c0.106-0.294,0-0.479-0.238-0.64
			c-0.107-0.079-0.319-0.079-0.558,0.081l-5.293,4.696l4.482,4.17l0.783,0.554c0.24,0.132,0.479,0.132,0.586,0.053
			c0.238-0.16,0.345-0.346,0.238-0.665l-0.558-3.153h0.924l1.942,0.021h11.692h0.026c0.537,0,0.971-0.436,0.971-0.971V83.524h13.221
			h0.027c0.537,0,0.971-0.435,0.971-0.971V69.285h12.268c0.537,0,0.971-0.434,0.971-0.97c0-0.02-0.01-0.036-0.011-0.057
			C88.259,67.75,87.846,67.345,87.329,67.345z"/>
	</g>
</g>
</svg>
