<?xml version="1.0" encoding="utf-8"?>
<!-- Generator: Adobe Illustrator 17.1.0, SVG Export Plug-In . SVG Version: 6.00 Build 0)  -->
<!DOCTYPE svg PUBLIC "-//W3C//DTD SVG 1.1//EN" "http://www.w3.org/Graphics/SVG/1.1/DTD/svg11.dtd">
<svg version="1.1" id="Layer_1" xmlns="http://www.w3.org/2000/svg" xmlns:xlink="http://www.w3.org/1999/xlink" x="0px" y="0px"
	 viewBox="0 0 144 144" enable-background="new 0 0 144 144" xml:space="preserve">
<g>
	<g>
		<g>
			<path fill="#FFFFFF" d="M66.183,93.042c0.214-0.048,0.393-0.194,0.479-0.396l7.78-17.729c0.093-0.213,0.073-0.458-0.054-0.652
				c-0.127-0.194-0.343-0.312-0.575-0.313l-8.07-0.04l12.817-16.67l-4.691,13.377c-0.074,0.21-0.042,0.443,0.087,0.625
				c0.128,0.183,0.337,0.291,0.56,0.292l8.564,0.043l-14.805,22.79c-0.201,0.29-0.15,0.687,0.119,0.916l0.288,0.247
				c1.164,0.995,1.646,1.407,3.095,2.607c0.128,0.105,0.284,0.158,0.439,0.158c0.156,0,0.312-0.053,0.439-0.158
				c20.463-16.952,24.058-23.707,24.409-24.442c4.555-6.982,3.521-12.769,1.849-16.397c-1.807-3.92-4.666-6.156-4.802-6.261
				c-3.017-2.202-6.11-3.319-9.195-3.319c-6.678,0-11.397,5.139-12.976,7.131c-1.578-1.992-6.299-7.131-12.977-7.131
				c-3.085,0-6.179,1.117-9.204,3.325c-0.118,0.089-2.915,2.228-4.689,6.101c-1.64,3.58-2.666,9.358,1.751,16.56
				c0.244,0.451,3.33,5.798,18.76,19.187C65.747,93.034,65.97,93.09,66.183,93.042z M48.029,73.043
				c-0.007-0.015-0.015-0.028-0.023-0.043c-3.288-5.352-3.862-10.476-1.706-15.229c1.621-3.575,4.264-5.607,4.28-5.62
				c2.776-2.026,5.597-3.054,8.384-3.054c7.377,0,12.356,7.218,12.406,7.291c0.128,0.188,0.342,0.302,0.57,0.302
				c0.229,0,0.442-0.113,0.57-0.302c0.05-0.073,5.028-7.291,12.406-7.291c2.787,0,5.607,1.027,8.368,3.042
				c0.027,0.021,2.742,2.155,4.399,5.785c2.199,4.814,1.594,9.881-1.799,15.06c-0.02,0.03-0.038,0.065-0.054,0.099
				c-0.028,0.064-3.127,6.603-23.615,23.631c-1.045-0.868-1.544-1.293-2.454-2.071l15.196-23.354
				c0.146-0.21,0.163-0.484,0.045-0.711c-0.118-0.227-0.353-0.369-0.608-0.371l-8.906-0.044l5.644-16.09
				c0.11-0.315-0.021-0.664-0.311-0.828c-0.291-0.164-0.656-0.097-0.87,0.16L63.752,74.153c-0.17,0.205-0.206,0.49-0.094,0.732
				c0.113,0.241,0.355,0.396,0.621,0.397l8.479,0.042l-6.981,15.911C50.88,78.227,48.055,73.091,48.029,73.043z"/>
		</g>
	</g>
</g>
</svg>
