<?xml version="1.0" encoding="utf-8"?>
<!-- Generator: Adobe Illustrator 17.1.0, SVG Export Plug-In . SVG Version: 6.00 Build 0)  -->
<!DOCTYPE svg PUBLIC "-//W3C//DTD SVG 1.1//EN" "http://www.w3.org/Graphics/SVG/1.1/DTD/svg11.dtd">
<svg version="1.1" id="Layer_1" xmlns="http://www.w3.org/2000/svg" xmlns:xlink="http://www.w3.org/1999/xlink" x="0px" y="0px"
	 viewBox="0 0 144 144" enable-background="new 0 0 144 144" xml:space="preserve">
<g>
	<g>
		<path fill="#FFFFFF" d="M71.999,98.326c14.517,0,26.326-11.811,26.326-26.327c0-14.516-11.81-26.325-26.326-26.325
			c-14.516,0-26.325,11.81-26.325,26.325C45.674,86.516,57.483,98.326,71.999,98.326z M71.999,47.314
			c13.612,0,24.687,11.073,24.687,24.685c0,13.612-11.074,24.687-24.687,24.687c-13.611,0-24.685-11.074-24.685-24.687
			C47.314,58.388,58.388,47.314,71.999,47.314z"/>
		<path fill="#FFFFFF" d="M61.907,89.55h6.603c0.34,0,0.615-0.275,0.615-0.614V77.852h5.689c7.975,0,12.549-4.179,12.549-11.464
			c0-6.735-4.704-11.087-11.983-11.087H61.907c-0.34,0-0.615,0.275-0.615,0.614v33.021C61.292,89.274,61.567,89.55,61.907,89.55z
			 M62.522,56.53h12.858c5.198,0,10.753,2.59,10.753,9.857c0,8.904-7.092,10.234-11.318,10.234h-6.305
			c-0.34,0-0.615,0.275-0.615,0.615V88.32h-5.373V56.53z"/>
		<path fill="#FFFFFF" d="M68.511,71.437h6.729c3.439,0,5.333-1.743,5.333-4.907c0-3.059-1.979-4.813-5.427-4.813h-6.635
			c-0.34,0-0.615,0.275-0.615,0.615v8.49C67.896,71.161,68.171,71.437,68.511,71.437z M69.126,62.946h6.02
			c2.785,0,4.196,1.205,4.196,3.583c0,2.474-1.342,3.677-4.102,3.677h-6.113V62.946z"/>
	</g>
</g>
</svg>
