<?xml version="1.0" encoding="utf-8"?>
<!-- Generator: Adobe Illustrator 17.1.0, SVG Export Plug-In . SVG Version: 6.00 Build 0)  -->
<!DOCTYPE svg PUBLIC "-//W3C//DTD SVG 1.1//EN" "http://www.w3.org/Graphics/SVG/1.1/DTD/svg11.dtd">
<svg version="1.1" id="Layer_1" xmlns="http://www.w3.org/2000/svg" xmlns:xlink="http://www.w3.org/1999/xlink" x="0px" y="0px"
	 viewBox="0 0 144 144" enable-background="new 0 0 144 144" xml:space="preserve">
<g>
	<g>
		<path fill="#FFFFFF" d="M83.003,67.183H72.78v-26.56c0-0.493-0.36-0.913-0.848-0.988c-0.489-0.073-0.957,0.217-1.105,0.688
			L60.044,74.461c-0.097,0.304-0.042,0.635,0.146,0.892c0.188,0.257,0.488,0.409,0.807,0.409h9.365v26.103
			c0,0.488,0.353,0.905,0.834,0.986c0.056,0.009,0.111,0.014,0.167,0.014c0.42,0,0.803-0.266,0.944-0.674l11.641-33.681
			c0.106-0.305,0.057-0.643-0.131-0.906C83.63,67.339,83.326,67.183,83.003,67.183z M72.362,95.909V74.762c0-0.553-0.447-1-1-1
			h-9.001L70.78,47.11v21.073c0,0.553,0.447,1,1,1H81.6L72.362,95.909z"/>
	</g>
</g>
</svg>
