<?xml version="1.0" encoding="utf-8"?>
<!-- Generator: Adobe Illustrator 17.1.0, SVG Export Plug-In . SVG Version: 6.00 Build 0)  -->
<!DOCTYPE svg PUBLIC "-//W3C//DTD SVG 1.1//EN" "http://www.w3.org/Graphics/SVG/1.1/DTD/svg11.dtd">
<svg version="1.1" id="Layer_1" xmlns="http://www.w3.org/2000/svg" xmlns:xlink="http://www.w3.org/1999/xlink" x="0px" y="0px"
	 viewBox="0 0 144 144" enable-background="new 0 0 144 144" xml:space="preserve">
<g>
	<g>
		<g>
			<path d="M74.52,66.938c-0.16,0.08-3.921,2.012-3.705,6.494c0.004,0.062,0.057,0.641,0.383,1.99
				c0.018,0.062,0.035,0.135,0.051,0.215c-0.568-0.598-1.456-1.258-2.841-1.816c-0.299-0.121-0.643-0.033-0.852,0.213
				c-0.209,0.248-0.234,0.605-0.064,0.881c0.034,0.057,0.657,1.139,0.475,3.129l-1.631-0.908c-0.482-0.27-1.091-0.096-1.359,0.387
				c-0.27,0.482-0.096,1.09,0.387,1.359l2.205,1.229c-0.182,1.117-0.724,6.811,6.581,9.014c0.071,0.021,0.144,0.031,0.217,0.031
				c0.097,0,0.192-0.018,0.283-0.055c0.122-0.051,2.267-0.949,3.933-2.852l1.781,0.992c0.154,0.086,0.32,0.127,0.485,0.127
				c0.35,0,0.691-0.186,0.874-0.514c0.27-0.482,0.096-1.092-0.387-1.359l-1.617-0.902c0.128-0.248,0.249-0.504,0.352-0.775
				c0.771-2.033,0.572-4.258-0.633-6.689c-0.014-0.023-1.416-2.258,0.135-4.93c0.156-0.27,0.131-0.608-0.065-0.849
				c-0.195-0.242-0.519-0.338-0.815-0.241c-0.107,0.035-2.266,0.768-3.174,3.202c-0.736-1.074-1.479-3.142,0.02-6.385
				c0.133-0.289,0.069-0.631-0.159-0.853C75.147,66.847,74.804,66.797,74.52,66.938z M74.315,87.604
				c-5.152-1.672-5.442-5.279-5.342-6.711l8.253,4.6C76.126,86.648,74.837,87.352,74.315,87.604z M75.493,76.436
				c0.215,0.15,0.494,0.176,0.733,0.068c0.239-0.107,0.405-0.332,0.438-0.592c0.104-0.838,0.389-1.482,0.73-1.975
				c-0.312,2.262,0.712,3.891,0.739,3.928c0.969,1.965,1.15,3.785,0.536,5.41c-0.077,0.205-0.18,0.389-0.276,0.578l-9.014-5.021
				c0.178-1.117,0.147-2.061,0.025-2.795c1.173,0.818,1.359,1.576,1.359,1.576c0.041,0.25,0.207,0.463,0.439,0.564
				c0.23,0.104,0.499,0.082,0.712-0.059c1.334-0.873,0.788-2.893,0.732-3.084c-0.283-1.174-0.335-1.701-0.336-1.701
				c-0.07-1.461,0.41-2.578,0.998-3.385C72.516,74.309,75.458,76.412,75.493,76.436z"/>
			<path d="M88.419,53.625c-2.17-2.576-4.471-4.518-6.856-5.785c0.808-0.923,1.269-2.113,1.269-3.354
				c0-2.815-2.291-5.105-5.105-5.105c-1.768,0-3.378,0.908-4.31,2.401c-0.622-0.018-1.633,0.023-2.271,0.357
				c-0.803,0.42-0.779,1.566-0.762,2.471v2.342h-4.916c-0.176-0.495-0.625-0.86-1.172-0.89l-13.893-2.246
				c-0.766-0.126-1.45,0.547-1.451,1.321V53.2c0,0.734,0.598,1.331,1.332,1.331c0.039,0,0.08-0.003,0.119-0.01l13.893-2.246
				c0.611-0.033,1.092-0.49,1.209-1.077h4.878v3.193c-4.339,1.331-8.695,5.621-8.695,10.772v32.68c0,1.123,0,3.752,2.678,3.752
				h18.698c2.573,0,2.573-2.441,2.573-3.752v-32.68c0-5.531-4.891-9.768-9.66-10.784v-3.024l0.877-0.001
				c0.12-0.01,3.383-0.066,7.928,5.36l0.129,0.156c0.479,0.583,1.127,1.375,1.99,1.375c0.029,0,0.059-0.001,0.09-0.003
				c0.478-0.031,0.803-0.233,1.238-0.598c0.59-0.498,1.201-1.113,1.27-1.899c0.065-0.787-0.531-1.481-0.967-1.987L88.419,53.625z
				 M64.054,50.794l-13.602,2.199v-7.649l13.602,2.199V50.794z M83.638,65.164v32.68c0,1.752-0.156,1.752-0.573,1.752H64.366
				c-0.424,0-0.678,0-0.678-1.752v-32.68c0-4.235,3.854-7.902,7.47-8.926h3.917C79.224,56.887,83.638,60.609,83.638,65.164z
				 M87.265,56.497c-0.293,0.244-0.346,0.248-0.346,0.251c-0.207-0.045-0.656-0.594-0.848-0.828l-0.14-0.168
				c-4.922-5.876-8.707-5.912-9.108-5.896h-1.596c-0.414,0-0.75,0.336-0.75,0.75v3.633h-2.594v-3.79c0-0.414-0.336-0.75-0.75-0.75
				h-5.58v-1.245h5.58c0.414,0,0.75-0.336,0.75-0.75v-3.106c-0.012-0.598,0.008-0.99,0.059-1.171c0.422-0.15,1.317-0.165,1.84-0.123
				c0.309,0.019,0.594-0.14,0.73-0.413c0.619-1.238,1.851-2.008,3.213-2.008c1.988,0,3.605,1.617,3.605,3.605
				c0,1.156-0.569,2.252-1.523,2.932c-0.219,0.155-0.338,0.417-0.311,0.685c0.026,0.268,0.194,0.501,0.439,0.61
				c2.539,1.136,5.007,3.113,7.336,5.88l0.122,0.143c0.18,0.209,0.601,0.697,0.609,0.882C87.995,55.72,87.887,55.97,87.265,56.497z"
				/>
			<circle cx="77.724" cy="44.489" r="1.652"/>
		</g>
	</g>
</g>
</svg>
