<?xml version="1.0" encoding="utf-8"?>
<!-- Generator: Adobe Illustrator 17.1.0, SVG Export Plug-In . SVG Version: 6.00 Build 0)  -->
<!DOCTYPE svg PUBLIC "-//W3C//DTD SVG 1.1//EN" "http://www.w3.org/Graphics/SVG/1.1/DTD/svg11.dtd">
<svg version="1.1" id="Layer_1" xmlns="http://www.w3.org/2000/svg" xmlns:xlink="http://www.w3.org/1999/xlink" x="0px" y="0px"
	 viewBox="0 0 104.4 104.398" enable-background="new 0 0 104.4 104.398" xml:space="preserve">
<g>
	<path fill="#FFFFFF" d="M89.444,24.071H57.429c-0.591,0-1.071,0.48-1.071,1.071v20.214H35.995c-0.59,0-1.071,0.48-1.071,1.071
		v20.664H14.703l-1.07,0.07l-0.008,11.411c0,0.591,0.481,1.071,1.07,1.071l32.077,0.014c0.59,0,1.071-0.481,1.071-1.072V58.47H67.81
		c0.591,0,1.071-0.482,1.071-1.073V37.036h20.562c0.591,0,1.071-0.481,1.071-1.072V25.142
		C90.515,24.551,90.035,24.071,89.444,24.071z M88.515,35.036H67.952l-1.07,0.071V56.47H46.914c-0.59,0-1.071,0.48-1.071,1.071
		v20.116l-30.218-0.014l0.006-8.553h20.221c0.591,0,1.072-0.481,1.072-1.073V47.356h20.362c0.591,0,1.071-0.481,1.071-1.072V26.071
		h30.157V35.036z"/>
</g>
</svg>
