<?xml version="1.0" encoding="utf-8"?>
<!-- Generator: Adobe Illustrator 17.1.0, SVG Export Plug-In . SVG Version: 6.00 Build 0)  -->
<!DOCTYPE svg PUBLIC "-//W3C//DTD SVG 1.1//EN" "http://www.w3.org/Graphics/SVG/1.1/DTD/svg11.dtd">
<svg version="1.1" id="Layer_1" xmlns="http://www.w3.org/2000/svg" xmlns:xlink="http://www.w3.org/1999/xlink" x="0px" y="0px"
	 viewBox="0 0 144 144" enable-background="new 0 0 144 144" xml:space="preserve">
<g>
	<g>
		<g>
			<path fill="#FFFFFF" d="M100.874,80.862c-2.109-29.736-25.742-28.869-25.918-28.856c-14.343-0.269-20.471,5.324-21.358,6.215
				c-0.889,0.539-1.058,1.571-1.01,2.187L52.057,67.4c-0.004,0.048,0.013,0.09,0.017,0.136c-3.205,5.348-3.705,10.856-3.771,12.954
				c-0.054,0.012-0.107,0.025-0.159,0.047l-8.723,3.893c-0.394,0.176-0.602,0.611-0.488,1.029c0.309,1.133,1.527,3.018,4.066,3.018
				c0.357,0,0.742-0.037,1.155-0.119c0.057-0.016,5.751-1.453,12.539-1.584l17.29-0.133c0.75,0.014,18.443,0.35,25.672-1.307
				c1.222-0.219,3.291-0.793,3.42-2.166C103.179,82.069,102.046,81.362,100.874,80.862z M99.306,83.618
				c-7.062,1.617-25.108,1.273-25.312,1.271L56.67,85.022c-7,0.137-12.71,1.576-12.903,1.627c-1.621,0.326-2.438-0.381-2.831-0.98
				l7.497-3.346c2.177,1.197,5.638,0.967,5.795,0.957c0.481-0.033,0.845-0.451,0.811-0.934c-0.033-0.482-0.442-0.832-0.934-0.812
				c-0.764,0.053-2.646,0.037-4.065-0.428c-0.051-2.182,0.158-20.999,22.43-23.782c0.479-0.06,0.82-0.497,0.76-0.977
				c-0.061-0.479-0.502-0.823-0.977-0.76c-9.098,1.137-14.736,4.888-18.241,9.188l0.328-4.312c0.005-0.059,0.003-0.117-0.005-0.176
				c0-0.004-0.03-0.472,0.194-0.583c0.094-0.047,0.181-0.113,0.253-0.191c0.055-0.059,5.771-6.047,20.204-5.76
				c0.904-0.054,22.044-0.81,24.125,27.015c-1.274,0.262-3.914,0.762-5.515,0.762c-0.483,0-0.875,0.393-0.875,0.875
				c0,0.484,0.392,0.875,0.875,0.875c2.039,0,5.398-0.691,6.37-0.902c0.686,0.277,1.041,0.494,1.221,0.631
				C100.817,83.226,100.036,83.485,99.306,83.618z"/>
			<path fill="#FFFFFF" d="M87.783,67.971c-0.395,0.126-0.612,0.548-0.486,0.943c0.024,0.077,2.476,7.827,1.941,12.538
				c-0.226,0.092-0.837,0.258-2.337,0.258c-2.641,0-6.383-0.035-7.955-0.053v-1.27c0-0.414-0.336-0.75-0.75-0.75h-7.852
				c-0.414,0-0.75,0.336-0.75,0.75v1.285c-3.327,0.094-6.619-0.021-6.67-0.023c-2.597-0.029-3.437-0.359-3.674-0.496
				c0.008-5.855,1.553-10.325,1.568-10.369c0.137-0.391-0.068-0.819-0.459-0.956c-0.389-0.138-0.818,0.067-0.957,0.458
				c-0.066,0.191-1.645,4.742-1.652,10.863c-0.037,0.225-0.006,0.502,0.169,0.775c0.351,0.547,1.233,1.182,4.97,1.225
				c0.038,0.002,3.874,0.135,7.482,0c0.403-0.016,0.723-0.346,0.723-0.75v-1.262h6.352v1.262c0,0.412,0.33,0.746,0.741,0.75
				c0,0,5.284,0.061,8.714,0.061c2.141,0,3.28-0.305,3.691-0.986c0.148-0.244,0.178-0.492,0.147-0.703
				c0.526-5.027-1.908-12.734-2.014-13.063C88.601,68.064,88.179,67.847,87.783,67.971z"/>
		</g>
	</g>
</g>
</svg>
