<?xml version="1.0" encoding="utf-8"?>
<!-- Generator: Adobe Illustrator 17.1.0, SVG Export Plug-In . SVG Version: 6.00 Build 0)  -->
<!DOCTYPE svg PUBLIC "-//W3C//DTD SVG 1.1//EN" "http://www.w3.org/Graphics/SVG/1.1/DTD/svg11.dtd">
<svg version="1.1" id="Layer_1" xmlns="http://www.w3.org/2000/svg" xmlns:xlink="http://www.w3.org/1999/xlink" x="0px" y="0px"
	 viewBox="0 0 144 144" enable-background="new 0 0 144 144" xml:space="preserve">
<g>
	<g>
		<g>
			<path d="M89.795,98.978l4.619-20.706c0.018-0.073,0.004-0.146,0.004-0.218h0.02c0-0.036-0.016-0.068-0.018-0.104
				c-0.002-0.048-0.016-0.092-0.021-0.139c-0.4-2.939-7.906-4.303-15.107-4.816c-0.172-1.866,0.236-4.025,2.037-6.143
				c0.064-0.067,6.342-6.783,0-13.412c-4.547-4.752-0.121-11.153,0.07-11.423c0.238-0.338,0.158-0.806-0.18-1.045
				c-0.336-0.238-0.805-0.16-1.045,0.178c-0.053,0.076-5.336,7.676,0.07,13.328c5.342,5.583,0.221,11.106-0.029,11.371
				c-2.055,2.415-2.568,4.893-2.41,7.048c-1.771-0.068-4.65-0.161-5.805-0.161c-0.151,0-0.32,0.004-0.476,0.005
				c-0.111-1.806,0.345-3.867,2.062-5.887c0.064-0.067,6.342-6.783,0-13.412c-4.546-4.752-0.121-11.153,0.07-11.423
				c0.238-0.338,0.158-0.806-0.18-1.045c-0.336-0.238-0.804-0.16-1.045,0.178c-0.053,0.076-5.336,7.676,0.07,13.328
				c5.341,5.583,0.22,11.106-0.029,11.371c-2.014,2.366-2.546,4.793-2.418,6.918c-1.746,0.059-4.964,0.189-6.684,0.337
				c-0.199-1.89,0.188-4.092,2.023-6.25c0.065-0.067,6.342-6.783,0-13.412c-4.546-4.752-0.12-11.153,0.07-11.423
				c0.239-0.338,0.159-0.806-0.179-1.045c-0.337-0.238-0.806-0.16-1.045,0.178c-0.054,0.076-5.336,7.676,0.069,13.328
				c5.342,5.583,0.221,11.106-0.029,11.371c-2.15,2.528-2.611,5.126-2.381,7.348c-5.581,0.741-12.049,2.341-12.312,4.652
				c-0.003,0.023-0.008,0.048-0.01,0.072c-0.003,0.045-0.017,0.088-0.017,0.133h0.02c0,0.072-0.013,0.144,0.005,0.218l4.619,20.706
				c0.404,2.698,10.661,4.188,17.794,4.188C79.133,103.165,89.389,101.676,89.795,98.978z M51.583,78.034
				c0.326-0.743,5.205-2.117,10.711-2.86c0.692,2.366,1.949,3.972,1.975,4.005c0.148,0.184,0.365,0.279,0.585,0.279
				c0.165,0,0.33-0.054,0.469-0.164c0.323-0.259,0.376-0.73,0.117-1.054c-0.087-0.109-1.044-1.349-1.644-3.169
				c1.525-0.13,4.68-0.259,6.574-0.315c0.658,2.595,2.062,4.388,2.09,4.423c0.148,0.184,0.365,0.279,0.583,0.279
				c0.166,0,0.33-0.054,0.469-0.164c0.324-0.259,0.377-0.73,0.117-1.054c-0.092-0.116-1.162-1.502-1.746-3.505
				c0.039,0,0.076-0.001,0.116-0.001c1.434,0,4.405,0.1,6.149,0.171c0.672,2.514,2.025,4.238,2.053,4.273
				c0.148,0.184,0.365,0.279,0.584,0.279c0.166,0,0.33-0.054,0.469-0.164c0.324-0.259,0.377-0.73,0.117-1.054
				c-0.086-0.11-1.059-1.368-1.656-3.211c7.867,0.624,12.342,2.103,12.705,2.994l-4.58,20.532c-0.914,0.827-7.051,2.609-15.84,2.609
				c-8.79,0-14.927-1.782-15.839-2.609L51.583,78.034z"/>
		</g>
	</g>
</g>
</svg>
