<?xml version="1.0" encoding="utf-8"?>
<!-- Generator: Adobe Illustrator 17.1.0, SVG Export Plug-In . SVG Version: 6.00 Build 0)  -->
<!DOCTYPE svg PUBLIC "-//W3C//DTD SVG 1.1//EN" "http://www.w3.org/Graphics/SVG/1.1/DTD/svg11.dtd">
<svg version="1.1" id="Layer_1" xmlns="http://www.w3.org/2000/svg" xmlns:xlink="http://www.w3.org/1999/xlink" x="0px" y="0px"
	 viewBox="0 0 144 144" enable-background="new 0 0 144 144" xml:space="preserve">
<g>
	<g>
		<path d="M91.981,67.98c-0.414,0-0.75,0.336-0.75,0.75v12.213c0,0.414,0.336,0.75,0.75,0.75c0.414,0,0.75-0.336,0.75-0.75V68.73
			C92.731,68.316,92.396,67.98,91.981,67.98z"/>
		<path d="M95.307,67.98c-0.414,0-0.75,0.336-0.75,0.75v12.213c0,0.414,0.336,0.75,0.75,0.75c0.414,0,0.75-0.336,0.75-0.75V68.73
			C96.057,68.316,95.721,67.98,95.307,67.98z"/>
		<path d="M72,39.334c-18.013,0-32.667,14.654-32.667,32.667c0,18.011,14.654,32.665,32.667,32.665s32.667-14.654,32.667-32.665
			C104.667,53.988,90.013,39.334,72,39.334z M41.833,72.001c0-7.955,3.101-15.196,8.15-20.592L66.577,67.98H46.904
			c-0.414,0-0.75,0.336-0.75,0.75c0,0.414,0.336,0.75,0.75,0.75h21.175l10.728,10.713H48.015c-0.414,0-0.75,0.336-0.75,0.75
			c0,0.414,0.336,0.75,0.75,0.75h32.294l12.312,12.295c-5.398,5.066-12.651,8.178-20.621,8.178
			C55.366,102.166,41.833,88.635,41.833,72.001z M87.762,80.193h-5.419L71.615,69.48h16.147V80.193z M94.376,92.209l-10.53-10.516
			h4.666c0.414,0,0.75-0.336,0.75-0.75V68.73c0-0.414-0.336-0.75-0.75-0.75H70.113L51.76,49.651
			c5.356-4.856,12.459-7.817,20.24-7.817c16.634,0,30.167,13.532,30.167,30.167C102.167,79.768,99.215,86.857,94.376,92.209z"/>
		<path d="M95.103,65.99c0.414,0,0.75-0.336,0.75-0.75c0-0.885-0.271-1.602-0.807-2.135c-0.823-0.819-1.945-0.849-2.096-0.849
			c-0.002,0-0.004,0-0.006,0h-3.716h-0.381h-11.16c-0.008,0-0.641-0.015-1.04-0.412c-0.245-0.244-0.364-0.594-0.364-1.072
			c0-1.353,1.083-1.477,1.408-1.482h1.337h4.91h1.337c1.169,0,2.908-0.795,2.908-2.984c0-2.189-1.739-2.983-2.908-2.983h-10.25
			h-2.661h-1.441c-0.008,0-0.641-0.015-1.04-0.413c-0.245-0.242-0.364-0.594-0.364-1.07c0-0.414-0.336-0.75-0.75-0.75
			c-0.414,0-0.75,0.336-0.75,0.75c0,0.885,0.271,1.602,0.807,2.135c0.824,0.82,1.946,0.849,2.096,0.849c0.002,0,0.004,0,0.006,0
			h1.437h2.661h10.243c0.332,0.006,1.415,0.13,1.415,1.483c0,1.354-1.083,1.479-1.408,1.484h-1.337h-4.91h-1.337
			c-1.169,0-2.908,0.794-2.908,2.982c0,0.885,0.271,1.604,0.807,2.136c0.824,0.819,1.946,0.849,2.096,0.849c0.002,0,0.004,0,0.006,0
			h11.156h0.381h3.714c0.331,0.004,1.41,0.123,1.41,1.483C94.353,65.654,94.688,65.99,95.103,65.99z"/>
	</g>
</g>
</svg>
