<?xml version="1.0" encoding="utf-8"?>
<!-- Generator: Adobe Illustrator 17.1.0, SVG Export Plug-In . SVG Version: 6.00 Build 0)  -->
<!DOCTYPE svg PUBLIC "-//W3C//DTD SVG 1.1//EN" "http://www.w3.org/Graphics/SVG/1.1/DTD/svg11.dtd">
<svg version="1.1" id="Layer_1" xmlns="http://www.w3.org/2000/svg" xmlns:xlink="http://www.w3.org/1999/xlink" x="0px" y="0px"
	 viewBox="0 0 216 216" enable-background="new 0 0 216 216" xml:space="preserve">
<g>
	<g>
		<path fill="#FFFFFF" d="M89.837,143.567V105.77c0.013-0.064,0.039-0.125,0.039-0.193v-1.769l0.146-0.107
			c2.57-1.89,5.227-3.843,5.227-7.76v-6.487c0-7.814-4.303-12.116-12.115-12.116h-8.081c-7.812,0-12.114,4.303-12.114,12.116v6.487
			c0,3.916,2.656,5.869,5.225,7.758l0.148,0.109v1.769c0,0.077,0.027,0.146,0.044,0.218v37.853c0,1.538,0.821,4.117,6.322,4.117
			h0.356c2.156,0,3.248-1.212,3.248-3.604v-27.672c0.058-0.23,0.345-0.357,0.814-0.357c0.605,0,0.77,0.217,0.812,0.367v27.662
			c0,1.736,1.235,3.19,2.872,3.529c0.117,0.048,0.245,0.074,0.379,0.074h0.352c0.034,0,0.068-0.002,0.102-0.005
			C87.744,147.664,89.837,146.255,89.837,143.567z M83.435,145.762c-0.849-0.04-1.527-0.743-1.527-1.602l-0.003-27.83
			c-0.062-0.761-0.729-2.199-2.808-2.199c-1.958,0-2.754,1.325-2.814,2.281v27.748c0,1.372-0.311,1.604-1.248,1.604h-0.356
			c-2.868,0-4.322-0.712-4.322-2.117v-37.136c-0.876-0.416-1.357-0.834-1.604-1.115c-0.121-0.137-0.188-0.313-0.188-0.496v-2.273
			c0-0.345,0.237-0.622,0.554-0.71c-0.078-0.058-0.152-0.113-0.229-0.17c-2.239-1.657-3.95-3.088-3.95-5.806v-6.487
			c0-6.713,3.403-10.116,10.114-10.116h8.081c6.712,0,10.115,3.403,10.115,10.116v6.487c0,2.723-1.718,4.154-3.962,5.814
			c-0.072,0.054-0.143,0.106-0.215,0.16c0.318,0.087,0.556,0.365,0.556,0.711v2.273c0,0.183-0.067,0.359-0.188,0.497
			c-0.21,0.236-0.583,0.571-1.222,0.92c0.023,0.021,0.053,0.034,0.078,0.053c-0.035-0.012-0.066-0.025-0.099-0.042
			c-0.112,0.061-0.232,0.121-0.361,0.183v37.057C87.837,145.022,86.436,145.722,83.435,145.762z"/>
		<path fill="#FFFFFF" d="M79.094,59.819c-4.321,0-7.836,3.515-7.836,7.835c0,4.321,3.515,7.837,7.836,7.837
			s7.836-3.516,7.836-7.837C86.93,63.334,83.415,59.819,79.094,59.819z M79.094,73.491c-3.218,0-5.836-2.618-5.836-5.837
			c0-3.218,2.618-5.835,5.836-5.835c3.218,0,5.836,2.617,5.836,5.835C84.93,70.873,82.312,73.491,79.094,73.491z"/>
		<path fill="#FFFFFF" d="M70.063,104.579c0.064,0.052,0.149,0.114,0.248,0.182v-1.458c0-0.233-0.103-0.44-0.248-0.617V104.579z"/>
		<path fill="#FFFFFF" d="M88.128,104.579v-1.898c-0.147,0.178-0.252,0.387-0.252,0.622v1.46
			C87.977,104.695,88.063,104.632,88.128,104.579z"/>
		<path fill="#FFFFFF" d="M87.837,106.51c0.128-0.062,0.249-0.122,0.361-0.183c0.032,0.017,0.064,0.03,0.099,0.042
			c-0.025-0.019-0.055-0.031-0.078-0.053c0.639-0.349,1.012-0.684,1.222-0.92c0.121-0.138,0.188-0.314,0.188-0.497v-2.273
			c0-0.346-0.238-0.624-0.556-0.711c0.073-0.054,0.144-0.106,0.215-0.16V88.944c0-0.414-0.336-0.75-0.75-0.75
			c-0.414,0-0.75,0.336-0.75,0.75v15.877c-0.942,0.597-3.317,1.594-8.691,1.594c-5.404,0-7.776-1.008-8.707-1.603V88.944
			c0-0.414-0.336-0.75-0.75-0.75c-0.414,0-0.75,0.336-0.75,0.75v12.802c0.076,0.057,0.151,0.112,0.229,0.17
			c-0.316,0.088-0.554,0.365-0.554,0.71v2.273c0,0.183,0.067,0.359,0.188,0.496c0.248,0.281,0.728,0.699,1.604,1.115
			c1.489,0.706,4.127,1.404,8.74,1.404C83.71,107.915,86.348,107.216,87.837,106.51z M87.876,103.303
			c0-0.235,0.105-0.444,0.252-0.622v1.898c-0.065,0.053-0.151,0.116-0.252,0.184V103.303z M70.312,103.303v1.458
			c-0.1-0.067-0.185-0.13-0.248-0.182v-1.894C70.209,102.862,70.312,103.069,70.312,103.303z"/>
	</g>
	<g>
		<path fill="#FFFFFF" d="M136.854,75.491c4.321,0,7.836-3.516,7.836-7.837c0-4.32-3.515-7.835-7.836-7.835
			c-4.32,0-7.835,3.515-7.835,7.835C129.019,71.976,132.533,75.491,136.854,75.491z M136.854,61.819
			c3.218,0,5.836,2.617,5.836,5.835c0,3.219-2.618,5.837-5.836,5.837c-3.217,0-5.835-2.618-5.835-5.837
			C131.019,64.437,133.636,61.819,136.854,61.819z"/>
		<path fill="#FFFFFF" d="M146.318,87.247c-0.412,0.008-0.759,0.315-0.77,0.729l-0.295,10.55c-0.385,0.338-1.099,0.688-2.371,0.96
			c-1.316,0.279-3.23,0.474-6.024,0.474c-3.482,0-5.498-0.416-6.699-0.884c-0.877-0.341-1.319-0.706-1.566-0.961l-0.443-10.15
			c-0.018-0.414-0.352-0.75-0.782-0.717c-0.414,0.018-0.735,0.368-0.717,0.781l0.47,10.766l0.005,0.116
			c0.018,0.403,0.35,0.718,0.749,0.718c0.011,0,0.022,0,0.033-0.001c0.035-0.002,0.065-0.018,0.098-0.024
			c0.235,0.183,0.538,0.377,0.923,0.569c1.317,0.659,3.64,1.287,7.93,1.287c4.251,0,6.605-0.439,7.983-0.986
			c0.259-0.103,0.483-0.208,0.679-0.316c0.122,0.096,0.267,0.165,0.434,0.17c0.007,0,0.014,0,0.021,0
			c0.404,0,0.738-0.322,0.749-0.729l0.001-0.055l0.323-11.525C147.058,87.605,146.732,87.259,146.318,87.247z"/>
		<path fill="#FFFFFF" d="M138.998,77.337h-4.289c-9.631,0-13.063,6.259-13.063,12.116v5.54c0,4.043,2.337,6.282,4.833,8.172
			l-2.754,19.307c-0.059,0.411,0.142,0.816,0.506,1.017c0.085,0.048,1.175,0.633,3.321,1.199l0.782,18.761
			c0,2.59,0.71,4.315,4.177,4.315h0.283c3.321,0,3.321-3.426,3.321-4.552v-17.456c0.247,0.004,0.485,0.012,0.74,0.012
			c0.312,0,0.607-0.009,0.908-0.015v17.459c0,3.205,1.479,4.204,2.755,4.468c0.123,0.054,0.259,0.084,0.401,0.084h0.446
			c0.043,0,0.085-0.003,0.126-0.008c1.485-0.056,3.868-0.497,3.89-4.029l0.784-19.025c2.203-0.567,3.34-1.159,3.429-1.206
			c0.372-0.199,0.579-0.61,0.518-1.028l-2.698-18.259l0.156-1.293c2.362-1.833,4.493-4.045,4.493-7.922v-5.54
			C152.062,83.596,148.63,77.337,138.998,77.337z M134.115,143.212c0,2.552-0.732,2.552-1.321,2.552h-0.283
			c-1.893,0-2.177-0.303-2.178-2.357l-0.762-18.27c1.279,0.239,2.788,0.44,4.543,0.547V143.212z M143.382,143.68
			c-0.012,1.863-0.749,2.064-2.163,2.082c-0.553-0.017-1.457-0.218-1.457-2.55v-17.536c1.683-0.108,3.137-0.304,4.384-0.534
			L143.382,143.68z M150.062,94.993c0,2.55-1.103,4.166-3.143,5.869l-0.195-1.319l-0.001,0.055
			c-0.011,0.407-0.345,0.729-0.749,0.729c-0.007,0-0.014,0-0.021,0c-0.167-0.005-0.311-0.074-0.434-0.17
			c-0.195,0.108-0.42,0.214-0.679,0.316l3.183,21.537c-1.386,0.558-5.076,1.757-11.167,1.757c-6.042,0-9.683-1.199-11.044-1.754
			l3.116-21.841c-0.384-0.192-0.688-0.387-0.923-0.569c-0.033,0.007-0.062,0.022-0.098,0.024c-0.011,0.001-0.022,0.001-0.033,0.001
			c-0.399,0-0.731-0.314-0.749-0.718l-0.005-0.116c-0.006,0.025-0.022,0.046-0.026,0.073l-0.285,2
			c-2.09-1.733-3.161-3.309-3.161-5.875v-5.54c0-6.334,4.136-10.116,11.063-10.116h4.289c6.928,0,11.064,3.782,11.064,10.116V94.993
			z"/>
	</g>
	<g>
		<path fill="#FFFFFF" d="M108.48,141.764c0.552,0,1-0.447,1-1V66.361c0-0.553-0.448-1-1-1c-0.552,0-1,0.447-1,1v74.402
			C107.48,141.317,107.928,141.764,108.48,141.764z"/>
	</g>
</g>
</svg>
