<?xml version="1.0" encoding="utf-8"?>
<!-- Generator: Adobe Illustrator 17.1.0, SVG Export Plug-In . SVG Version: 6.00 Build 0)  -->
<!DOCTYPE svg PUBLIC "-//W3C//DTD SVG 1.1//EN" "http://www.w3.org/Graphics/SVG/1.1/DTD/svg11.dtd">
<svg version="1.1" id="Layer_1" xmlns="http://www.w3.org/2000/svg" xmlns:xlink="http://www.w3.org/1999/xlink" x="0px" y="0px"
	 viewBox="0 0 216 216" enable-background="new 0 0 216 216" xml:space="preserve">
<g>
	<path fill="#FFFFFF" d="M117.732,114.122h4.934v-0.868h1.156v-4.747h-7.246v4.747h1.156V114.122z M118.076,110.007h4.246v1.747
		h-1.156v0.868h-1.934v-0.868h-1.156V110.007z"/>
	<path fill="#FFFFFF" d="M146.12,96.547c0.154-0.586-0.093-1.214-0.657-1.491l-11.897-5.822c-0.177-0.086-0.371-0.13-0.567-0.13
		H84.152c-0.174,0-0.345,0.033-0.507,0.101l-13.693,5.824c-0.6,0.255-0.883,0.91-0.72,1.521c-0.029,0.11-0.067,0.216-0.067,0.334
		v0.321v21.426c0,0.713,0.579,1.293,1.294,1.293h74.436c0.716,0,1.294-0.58,1.294-1.293V97.204v-0.321
		C146.188,96.765,146.15,96.656,146.12,96.547z M84.415,91.689h48.285l7.97,3.902H75.243L84.415,91.689z M143.601,117.336H71.752
		V98.498h71.848V117.336z"/>
	<path fill="#FFFFFF" d="M89.983,102.475h-1.157v-0.868h-4.933v0.868h-1.157v4.747h7.247V102.475z M88.483,105.722h-4.247v-1.747
		h1.157v-0.868h1.933v0.868h1.157V105.722z"/>
	<path fill="#FFFFFF" d="M98.483,102.475h-1.157v-0.868h-4.933v0.868h-1.157v4.747h7.247V102.475z M96.983,105.722h-4.247v-1.747
		h1.157v-0.868h1.933v0.868h1.157V105.722z"/>
	<path fill="#FFFFFF" d="M106.941,102.475h-1.157v-0.868h-4.933v0.868h-1.157v4.747h7.247V102.475z M105.441,105.722h-4.247v-1.747
		h1.157v-0.868h1.933v0.868h1.157V105.722z"/>
	<path fill="#FFFFFF" d="M115.441,102.475h-1.157v-0.868h-4.933v0.868h-1.157v4.747h7.247V102.475z M113.941,105.722h-4.247v-1.747
		h1.157v-0.868h1.933v0.868h1.157V105.722z"/>
	<path fill="#FFFFFF" d="M123.822,102.475h-1.157v-0.868h-4.933v0.868h-1.156v4.747h7.246V102.475z M122.322,105.722h-4.246v-1.747
		h1.156v-0.868h1.933v0.868h1.157V105.722z"/>
	<path fill="#FFFFFF" d="M140.53,109.35h-1.157v-0.868h-4.933v0.868h-1.156v4.747h7.246V109.35z M139.03,112.597h-4.246v-1.747
		h1.156v-0.868h1.933v0.868h1.157V112.597z"/>
	<path fill="#FFFFFF" d="M109.232,114.122h4.934v-0.868h1.156v-4.747h-7.247v4.747h1.157V114.122z M109.575,110.007h4.247v1.747
		h-1.156v0.868h-1.934v-0.868h-1.157V110.007z"/>
	<path fill="#FFFFFF" d="M100.774,114.122h4.933v-0.868h1.157v-4.747h-7.247v4.747h1.157V114.122z M101.117,110.007h4.247v1.747
		h-1.157v0.868h-1.933v-0.868h-1.157V110.007z"/>
	<path fill="#FFFFFF" d="M92.274,114.122h4.933v-0.868h1.157v-4.747h-7.247v4.747h1.157V114.122z M92.617,110.007h4.247v1.747
		h-1.157v0.868h-1.933v-0.868h-1.157V110.007z"/>
	<path fill="#FFFFFF" d="M83.894,114.122h4.933v-0.868h1.156v-4.747h-7.246v4.747h1.157V114.122z M84.236,110.007h4.246v1.747
		h-1.156v0.868h-1.933v-0.868h-1.157V110.007z"/>
</g>
</svg>
