<?xml version="1.0" encoding="utf-8"?>
<!-- Generator: Adobe Illustrator 17.1.0, SVG Export Plug-In . SVG Version: 6.00 Build 0)  -->
<!DOCTYPE svg PUBLIC "-//W3C//DTD SVG 1.1//EN" "http://www.w3.org/Graphics/SVG/1.1/DTD/svg11.dtd">
<svg version="1.1" id="Layer_1" xmlns="http://www.w3.org/2000/svg" xmlns:xlink="http://www.w3.org/1999/xlink" x="0px" y="0px"
	 viewBox="0 0 216 216" enable-background="new 0 0 216 216" xml:space="preserve">
<g>
	<g>
		<path d="M149.924,120.314H68.266c-0.553,0-1-0.447-1-1V95.934c0-0.552,0.447-1,1-1h81.658c0.553,0,1,0.448,1,1v23.381
			C150.924,119.867,150.477,120.314,149.924,120.314z M69.266,118.314h79.658V96.934H69.266V118.314z"/>
		<path d="M68.266,96.934c-0.365,0-0.719-0.201-0.893-0.55c-0.25-0.494-0.051-1.095,0.443-1.343l13.846-6.969
			c0.141-0.07,0.293-0.107,0.449-0.107h53.967c0.156,0,0.311,0.037,0.449,0.107l13.846,6.969c0.494,0.248,0.691,0.849,0.443,1.343
			c-0.246,0.493-0.848,0.693-1.342,0.443l-13.635-6.862H82.35l-13.635,6.862C68.57,96.899,68.418,96.934,68.266,96.934z"/>
		<path d="M149.924,111.092h-9.844c-1.912,0-3.467-1.555-3.467-3.467c0-1.912,1.555-3.468,3.467-3.468h9.844
			c0.275,0,0.5,0.224,0.5,0.5c0,0.276-0.225,0.5-0.5,0.5h-9.844c-1.359,0-2.467,1.106-2.467,2.468c0,1.36,1.107,2.467,2.467,2.467
			h9.844c0.275,0,0.5,0.224,0.5,0.5C150.424,110.868,150.199,111.092,149.924,111.092z"/>
		<g>
			<path d="M74.182,109c-0.371,0-0.721-0.15-0.98-0.41c-0.25-0.25-0.4-0.609-0.4-0.97c0-0.36,0.15-0.71,0.4-0.97
				c0.51-0.51,1.439-0.51,1.949,0c0.25,0.26,0.4,0.609,0.4,0.97c0,0.37-0.15,0.72-0.4,0.97C74.9,108.85,74.541,109,74.182,109z"/>
			<path d="M124.621,107.62c0-0.761,0.619-1.37,1.379-1.37l0,0c0.762,0,1.371,0.609,1.371,1.37l0,0c0,0.76-0.609,1.38-1.371,1.38
				l0,0C125.24,109,124.621,108.38,124.621,107.62z M118.861,107.62c0-0.761,0.619-1.37,1.379-1.37l0,0
				c0.76,0,1.371,0.609,1.371,1.37l0,0c0,0.76-0.611,1.38-1.371,1.38l0,0C119.48,109,118.861,108.38,118.861,107.62z
				 M113.111,107.62c0-0.761,0.609-1.37,1.369-1.37l0,0c0.76,0,1.381,0.609,1.381,1.37l0,0c0,0.76-0.621,1.38-1.381,1.38l0,0
				C113.721,109,113.111,108.38,113.111,107.62z M107.352,107.62c0-0.761,0.609-1.37,1.369-1.37l0,0c0.76,0,1.381,0.609,1.381,1.37
				l0,0c0,0.76-0.621,1.38-1.381,1.38l0,0C107.961,109,107.352,108.38,107.352,107.62z M101.592,107.62
				c0-0.761,0.619-1.37,1.379-1.37l0,0c0.76,0,1.371,0.609,1.371,1.37l0,0c0,0.76-0.611,1.38-1.371,1.38l0,0
				C102.211,109,101.592,108.38,101.592,107.62z M95.83,107.62c0-0.761,0.621-1.37,1.381-1.37l0,0c0.76,0,1.369,0.609,1.369,1.37
				l0,0c0,0.76-0.609,1.38-1.369,1.38l0,0C96.451,109,95.83,108.38,95.83,107.62z M90.08,107.62c0-0.761,0.611-1.37,1.371-1.37l0,0
				c0.76,0,1.379,0.609,1.379,1.37l0,0c0,0.76-0.619,1.38-1.379,1.38l0,0C90.691,109,90.08,108.38,90.08,107.62z M84.32,107.62
				c0-0.761,0.611-1.37,1.371-1.37l0,0c0.76,0,1.379,0.609,1.379,1.37l0,0c0,0.76-0.619,1.38-1.379,1.38l0,0
				C84.932,109,84.32,108.38,84.32,107.62z M78.561,107.62c0-0.761,0.621-1.37,1.381-1.37l0,0c0.75,0,1.369,0.609,1.369,1.37l0,0
				c0,0.76-0.619,1.38-1.369,1.38l0,0C79.182,109,78.561,108.38,78.561,107.62z"/>
			<path d="M131.75,109c-0.359,0-0.709-0.15-0.969-0.41c-0.25-0.25-0.4-0.6-0.4-0.97c0-0.36,0.15-0.71,0.4-0.97
				c0.52-0.51,1.439-0.51,1.949,0c0.25,0.26,0.4,0.609,0.4,0.97c0,0.37-0.15,0.72-0.4,0.979C132.471,108.85,132.121,109,131.75,109z
				"/>
		</g>
		<g>
			<path d="M74.182,103.42c-0.371,0-0.721-0.15-0.98-0.41c-0.25-0.25-0.4-0.609-0.4-0.97c0-0.36,0.15-0.72,0.4-0.97
				c0.52-0.51,1.439-0.51,1.949,0c0.25,0.251,0.4,0.61,0.4,0.97c0,0.36-0.15,0.72-0.4,0.97
				C74.891,103.27,74.541,103.42,74.182,103.42z"/>
			<path d="M124.621,102.04c0-0.76,0.619-1.37,1.379-1.37l0,0c0.762,0,1.371,0.61,1.371,1.37l0,0c0,0.761-0.609,1.38-1.371,1.38l0,0
				C125.24,103.42,124.621,102.801,124.621,102.04z M118.861,102.04c0-0.76,0.619-1.37,1.379-1.37l0,0c0.76,0,1.371,0.61,1.371,1.37
				l0,0c0,0.761-0.611,1.38-1.371,1.38l0,0C119.48,103.42,118.861,102.801,118.861,102.04z M113.111,102.04
				c0-0.76,0.609-1.37,1.369-1.37l0,0c0.76,0,1.381,0.61,1.381,1.37l0,0c0,0.761-0.621,1.38-1.381,1.38l0,0
				C113.721,103.42,113.111,102.801,113.111,102.04z M107.352,102.04c0-0.76,0.609-1.37,1.369-1.37l0,0
				c0.76,0,1.381,0.61,1.381,1.37l0,0c0,0.761-0.621,1.38-1.381,1.38l0,0C107.961,103.42,107.352,102.801,107.352,102.04z
				 M101.592,102.04c0-0.76,0.619-1.37,1.379-1.37l0,0c0.76,0,1.371,0.61,1.371,1.37l0,0c0,0.761-0.611,1.38-1.371,1.38l0,0
				C102.211,103.42,101.592,102.801,101.592,102.04z M95.83,102.04c0-0.76,0.621-1.37,1.381-1.37l0,0c0.76,0,1.369,0.61,1.369,1.37
				l0,0c0,0.761-0.609,1.38-1.369,1.38l0,0C96.451,103.42,95.83,102.801,95.83,102.04z M90.08,102.04c0-0.76,0.611-1.37,1.371-1.37
				l0,0c0.76,0,1.379,0.61,1.379,1.37l0,0c0,0.761-0.619,1.38-1.379,1.38l0,0C90.691,103.42,90.08,102.801,90.08,102.04z
				 M84.32,102.04c0-0.76,0.611-1.37,1.371-1.37l0,0c0.76,0,1.379,0.61,1.379,1.37l0,0c0,0.761-0.619,1.38-1.379,1.38l0,0
				C84.932,103.42,84.32,102.801,84.32,102.04z M78.561,102.04c0-0.76,0.621-1.37,1.381-1.37l0,0c0.75,0,1.369,0.61,1.369,1.37l0,0
				c0,0.761-0.619,1.38-1.369,1.38l0,0C79.182,103.42,78.561,102.801,78.561,102.04z"/>
			<path d="M131.75,103.42c-0.35,0-0.709-0.15-0.969-0.41c-0.25-0.25-0.4-0.609-0.4-0.97c0-0.36,0.15-0.71,0.4-0.97
				c0.52-0.52,1.439-0.51,1.949,0c0.25,0.251,0.4,0.61,0.4,0.97c0,0.36-0.15,0.72-0.4,0.97
				C132.471,103.27,132.121,103.42,131.75,103.42z"/>
		</g>
		<g>
			<path d="M74.182,114.58c-0.371,0-0.721-0.15-0.98-0.4c-0.25-0.26-0.4-0.609-0.4-0.97c0-0.37,0.15-0.72,0.4-0.979
				c0.52-0.51,1.439-0.51,1.949,0c0.25,0.26,0.4,0.609,0.4,0.979c0,0.36-0.15,0.71-0.4,0.97
				C74.891,114.43,74.541,114.58,74.182,114.58z"/>
			<path d="M124.621,113.21c0-0.76,0.619-1.38,1.379-1.38l0,0c0.762,0,1.371,0.62,1.371,1.38l0,0c0,0.761-0.609,1.37-1.371,1.37l0,0
				C125.24,114.58,124.621,113.971,124.621,113.21z M118.861,113.21c0-0.76,0.619-1.38,1.379-1.38l0,0c0.76,0,1.371,0.62,1.371,1.38
				l0,0c0,0.761-0.611,1.37-1.371,1.37l0,0C119.48,114.58,118.861,113.971,118.861,113.21z M113.111,113.21
				c0-0.76,0.609-1.38,1.369-1.38l0,0c0.76,0,1.381,0.62,1.381,1.38l0,0c0,0.761-0.621,1.37-1.381,1.37l0,0
				C113.721,114.58,113.111,113.971,113.111,113.21z M107.352,113.21c0-0.76,0.609-1.38,1.369-1.38l0,0
				c0.76,0,1.381,0.62,1.381,1.38l0,0c0,0.761-0.621,1.37-1.381,1.37l0,0C107.961,114.58,107.352,113.971,107.352,113.21z
				 M101.592,113.21c0-0.76,0.619-1.38,1.379-1.38l0,0c0.76,0,1.371,0.62,1.371,1.38l0,0c0,0.761-0.611,1.37-1.371,1.37l0,0
				C102.211,114.58,101.592,113.971,101.592,113.21z M95.83,113.21c0-0.76,0.621-1.38,1.381-1.38l0,0c0.76,0,1.369,0.62,1.369,1.38
				l0,0c0,0.761-0.609,1.37-1.369,1.37l0,0C96.451,114.58,95.83,113.971,95.83,113.21z M90.08,113.21c0-0.76,0.611-1.38,1.371-1.38
				l0,0c0.76,0,1.379,0.62,1.379,1.38l0,0c0,0.761-0.619,1.37-1.379,1.37l0,0C90.691,114.58,90.08,113.971,90.08,113.21z
				 M84.32,113.21c0-0.76,0.611-1.38,1.371-1.38l0,0c0.76,0,1.379,0.62,1.379,1.38l0,0c0,0.761-0.619,1.37-1.379,1.37l0,0
				C84.932,114.58,84.32,113.971,84.32,113.21z M78.561,113.21c0-0.76,0.621-1.38,1.381-1.38l0,0c0.75,0,1.369,0.62,1.369,1.38l0,0
				c0,0.761-0.619,1.37-1.369,1.37l0,0C79.182,114.58,78.561,113.971,78.561,113.21z"/>
			<path d="M131.75,114.58c-0.35,0-0.709-0.15-0.969-0.4c-0.25-0.26-0.4-0.609-0.4-0.97c0-0.37,0.15-0.72,0.4-0.979
				c0.52-0.51,1.439-0.51,1.949,0.01c0.25,0.25,0.4,0.6,0.4,0.97c0,0.36-0.15,0.71-0.4,0.97
				C132.471,114.43,132.121,114.58,131.75,114.58z"/>
		</g>
	</g>
</g>
</svg>
