<?xml version="1.0" encoding="utf-8"?>
<!-- Generator: Adobe Illustrator 17.1.0, SVG Export Plug-In . SVG Version: 6.00 Build 0)  -->
<!DOCTYPE svg PUBLIC "-//W3C//DTD SVG 1.1//EN" "http://www.w3.org/Graphics/SVG/1.1/DTD/svg11.dtd">
<svg version="1.1" id="Layer_1" xmlns="http://www.w3.org/2000/svg" xmlns:xlink="http://www.w3.org/1999/xlink" x="0px" y="0px"
	 viewBox="0 0 216 216" enable-background="new 0 0 216 216" xml:space="preserve">
<g>
	<path fill="#FFFFFF" d="M195.127,76.076c0.119-0.452-0.072-0.938-0.508-1.15l-26.195-4.5c-0.136-0.068-1.286-0.103-1.438-0.103
		h-39.668h-1.469H90.946h-1.379H49.099c-0.135,0-1.267,0.027-1.392,0.079l-26.699,4.5c-0.463,0.198-0.683,0.703-0.556,1.177
		c-0.022,0.085-0.052,0.167-0.052,0.259v16.56v16.559c0,0.023,0.012,0.043,0.014,0.065c-0.002,0.023-0.014,0.043-0.014,0.066v16.56
		v16.559c0,0.552,0.447,1,1,1h57.527c0.01,0,0.019-0.006,0.028-0.006c0.01,0,0.019,0.006,0.028,0.006h57.528
		c0.024,0,0.045-0.013,0.069-0.014c0.024,0.001,0.045,0.014,0.069,0.014h57.528c0.553,0,1-0.448,1-1v-16.559v-16.56
		c0-0.023-0.012-0.043-0.014-0.066c0.002-0.022,0.014-0.042,0.014-0.065V92.898v-16.56C195.18,76.245,195.15,76.161,195.127,76.076z
		 M127.594,72.323l5.653,3.015H82.682l6.507-3.015H127.594z M77.928,131.936v4.981v4.789H22.4v-14.559h55.527V131.936z
		 M77.928,115.744v4.98v4.423H22.4v-14.56h55.527V115.744z M77.928,98.687v4.98v4.789H22.4V93.898h55.527V98.687z M77.928,82.494
		v4.98v4.423H22.4v-14.56h55.527V82.494z M78.252,75.338H30.386l17.917-3.015h36.752L78.252,75.338z M135.513,131.936v4.981v4.789
		H79.984v-14.559h55.528V131.936z M135.513,115.744v4.98v4.423H79.984v-14.56h55.528V115.744z M135.513,98.687v4.98v4.789H79.984
		V93.898h55.528V98.687z M135.513,82.494v4.98v4.423H79.984v-14.56h55.528V82.494z M131.545,72.323h36.209l17.966,3.015h-48.157
		L131.545,72.323z M193.18,131.936v4.981v4.789h-55.528v-14.559h55.528V131.936z M193.18,115.744v4.98v4.423h-55.528v-14.56h55.528
		V115.744z M193.18,98.687v4.98v4.789h-55.528V93.898h55.528V98.687z M193.18,82.494v4.98v4.423h-55.528v-14.56h55.528V82.494z"/>
	<circle fill="#FFFFFF" cx="27.424" cy="84.991" r="1.375"/>
	<circle fill="#FFFFFF" cx="32.303" cy="84.991" r="1.375"/>
	<path fill="#FFFFFF" d="M71.501,89h2.998C74.775,89,75,88.776,75,88.5v-8c0-0.276-0.225-0.5-0.501-0.5h-2.998
		C71.225,80,71,80.224,71,80.5v8C71,88.776,71.225,89,71.501,89z M72,81h2v7h-2V81z"/>
	<path fill="#FFFFFF" d="M65.5,89h3c0.276,0,0.5-0.224,0.5-0.5v-8c0-0.276-0.224-0.5-0.5-0.5h-3c-0.276,0-0.5,0.224-0.5,0.5v8
		C65,88.776,65.224,89,65.5,89z M66,81h2v7h-2V81z"/>
	<circle fill="#FFFFFF" cx="27.424" cy="101.991" r="1.375"/>
	<circle fill="#FFFFFF" cx="32.303" cy="101.991" r="1.375"/>
	<path fill="#FFFFFF" d="M71.501,106h2.998c0.276,0,0.501-0.224,0.501-0.5v-8c0-0.276-0.225-0.5-0.501-0.5h-2.998
		C71.225,97,71,97.224,71,97.5v8C71,105.776,71.225,106,71.501,106z M72,98h2v7h-2V98z"/>
	<path fill="#FFFFFF" d="M65.5,106h3c0.276,0,0.5-0.224,0.5-0.5v-8c0-0.276-0.224-0.5-0.5-0.5h-3c-0.276,0-0.5,0.224-0.5,0.5v8
		C65,105.776,65.224,106,65.5,106z M66,98h2v7h-2V98z"/>
	<circle fill="#FFFFFF" cx="27.424" cy="117.991" r="1.375"/>
	<circle fill="#FFFFFF" cx="32.303" cy="117.991" r="1.375"/>
	<path fill="#FFFFFF" d="M71.501,122h2.998c0.276,0,0.501-0.224,0.501-0.5v-8c0-0.276-0.225-0.5-0.501-0.5h-2.998
		c-0.276,0-0.501,0.224-0.501,0.5v8C71,121.776,71.225,122,71.501,122z M72,114h2v7h-2V114z"/>
	<path fill="#FFFFFF" d="M65.5,122h3c0.276,0,0.5-0.224,0.5-0.5v-8c0-0.276-0.224-0.5-0.5-0.5h-3c-0.276,0-0.5,0.224-0.5,0.5v8
		C65,121.776,65.224,122,65.5,122z M66,114h2v7h-2V114z"/>
	<circle fill="#FFFFFF" cx="27.424" cy="134.991" r="1.375"/>
	<circle fill="#FFFFFF" cx="32.303" cy="134.991" r="1.375"/>
	<path fill="#FFFFFF" d="M71.501,139h2.998c0.276,0,0.501-0.224,0.501-0.5v-8c0-0.276-0.225-0.5-0.501-0.5h-2.998
		c-0.276,0-0.501,0.224-0.501,0.5v8C71,138.776,71.225,139,71.501,139z M72,131h2v7h-2V131z"/>
	<path fill="#FFFFFF" d="M65.5,139h3c0.276,0,0.5-0.224,0.5-0.5v-8c0-0.276-0.224-0.5-0.5-0.5h-3c-0.276,0-0.5,0.224-0.5,0.5v8
		C65,138.776,65.224,139,65.5,139z M66,131h2v7h-2V131z"/>
	<circle fill="#FFFFFF" cx="85.424" cy="84.991" r="1.375"/>
	<circle fill="#FFFFFF" cx="90.303" cy="84.991" r="1.375"/>
	<path fill="#FFFFFF" d="M129.501,89h2.998c0.276,0,0.501-0.224,0.501-0.5v-8c0-0.276-0.225-0.5-0.501-0.5h-2.998
		c-0.276,0-0.501,0.224-0.501,0.5v8C129,88.776,129.225,89,129.501,89z M130,81h2v7h-2V81z"/>
	<path fill="#FFFFFF" d="M123.5,89h3c0.276,0,0.5-0.224,0.5-0.5v-8c0-0.276-0.224-0.5-0.5-0.5h-3c-0.276,0-0.5,0.224-0.5,0.5v8
		C123,88.776,123.224,89,123.5,89z M124,81h2v7h-2V81z"/>
	<circle fill="#FFFFFF" cx="85.424" cy="101.991" r="1.375"/>
	<circle fill="#FFFFFF" cx="90.303" cy="101.991" r="1.375"/>
	<path fill="#FFFFFF" d="M129.501,106h2.998c0.276,0,0.501-0.224,0.501-0.5v-8c0-0.276-0.225-0.5-0.501-0.5h-2.998
		c-0.276,0-0.501,0.224-0.501,0.5v8C129,105.776,129.225,106,129.501,106z M130,98h2v7h-2V98z"/>
	<path fill="#FFFFFF" d="M123.5,106h3c0.276,0,0.5-0.224,0.5-0.5v-8c0-0.276-0.224-0.5-0.5-0.5h-3c-0.276,0-0.5,0.224-0.5,0.5v8
		C123,105.776,123.224,106,123.5,106z M124,98h2v7h-2V98z"/>
	<circle fill="#FFFFFF" cx="85.424" cy="117.991" r="1.375"/>
	<circle fill="#FFFFFF" cx="90.303" cy="117.991" r="1.375"/>
	<path fill="#FFFFFF" d="M129.501,122h2.998c0.276,0,0.501-0.224,0.501-0.5v-8c0-0.276-0.225-0.5-0.501-0.5h-2.998
		c-0.276,0-0.501,0.224-0.501,0.5v8C129,121.776,129.225,122,129.501,122z M130,114h2v7h-2V114z"/>
	<path fill="#FFFFFF" d="M123.5,122h3c0.276,0,0.5-0.224,0.5-0.5v-8c0-0.276-0.224-0.5-0.5-0.5h-3c-0.276,0-0.5,0.224-0.5,0.5v8
		C123,121.776,123.224,122,123.5,122z M124,114h2v7h-2V114z"/>
	<circle fill="#FFFFFF" cx="85.424" cy="134.991" r="1.375"/>
	<circle fill="#FFFFFF" cx="90.303" cy="134.991" r="1.375"/>
	<path fill="#FFFFFF" d="M129.501,139h2.998c0.276,0,0.501-0.224,0.501-0.5v-8c0-0.276-0.225-0.5-0.501-0.5h-2.998
		c-0.276,0-0.501,0.224-0.501,0.5v8C129,138.776,129.225,139,129.501,139z M130,131h2v7h-2V131z"/>
	<path fill="#FFFFFF" d="M123.5,139h3c0.276,0,0.5-0.224,0.5-0.5v-8c0-0.276-0.224-0.5-0.5-0.5h-3c-0.276,0-0.5,0.224-0.5,0.5v8
		C123,138.776,123.224,139,123.5,139z M124,131h2v7h-2V131z"/>
	<circle fill="#FFFFFF" cx="142.424" cy="84.991" r="1.375"/>
	<circle fill="#FFFFFF" cx="147.303" cy="84.991" r="1.375"/>
	<path fill="#FFFFFF" d="M186.501,89h2.998c0.276,0,0.501-0.224,0.501-0.5v-8c0-0.276-0.225-0.5-0.501-0.5h-2.998
		c-0.276,0-0.501,0.224-0.501,0.5v8C186,88.776,186.225,89,186.501,89z M187,81h2v7h-2V81z"/>
	<path fill="#FFFFFF" d="M180.5,89h3c0.276,0,0.5-0.224,0.5-0.5v-8c0-0.276-0.224-0.5-0.5-0.5h-3c-0.276,0-0.5,0.224-0.5,0.5v8
		C180,88.776,180.224,89,180.5,89z M181,81h2v7h-2V81z"/>
	<circle fill="#FFFFFF" cx="142.424" cy="101.991" r="1.375"/>
	<circle fill="#FFFFFF" cx="147.303" cy="101.991" r="1.375"/>
	<path fill="#FFFFFF" d="M186.501,106h2.998c0.276,0,0.501-0.224,0.501-0.5v-8c0-0.276-0.225-0.5-0.501-0.5h-2.998
		c-0.276,0-0.501,0.224-0.501,0.5v8C186,105.776,186.225,106,186.501,106z M187,98h2v7h-2V98z"/>
	<path fill="#FFFFFF" d="M180.5,106h3c0.276,0,0.5-0.224,0.5-0.5v-8c0-0.276-0.224-0.5-0.5-0.5h-3c-0.276,0-0.5,0.224-0.5,0.5v8
		C180,105.776,180.224,106,180.5,106z M181,98h2v7h-2V98z"/>
	<circle fill="#FFFFFF" cx="142.424" cy="117.991" r="1.375"/>
	<circle fill="#FFFFFF" cx="147.303" cy="117.991" r="1.375"/>
	<path fill="#FFFFFF" d="M186.501,122h2.998c0.276,0,0.501-0.224,0.501-0.5v-8c0-0.276-0.225-0.5-0.501-0.5h-2.998
		c-0.276,0-0.501,0.224-0.501,0.5v8C186,121.776,186.225,122,186.501,122z M187,114h2v7h-2V114z"/>
	<path fill="#FFFFFF" d="M180.5,122h3c0.276,0,0.5-0.224,0.5-0.5v-8c0-0.276-0.224-0.5-0.5-0.5h-3c-0.276,0-0.5,0.224-0.5,0.5v8
		C180,121.776,180.224,122,180.5,122z M181,114h2v7h-2V114z"/>
	<circle fill="#FFFFFF" cx="142.424" cy="134.991" r="1.375"/>
	<circle fill="#FFFFFF" cx="147.303" cy="134.991" r="1.375"/>
	<path fill="#FFFFFF" d="M186.501,139h2.998c0.276,0,0.501-0.224,0.501-0.5v-8c0-0.276-0.225-0.5-0.501-0.5h-2.998
		c-0.276,0-0.501,0.224-0.501,0.5v8C186,138.776,186.225,139,186.501,139z M187,131h2v7h-2V131z"/>
	<path fill="#FFFFFF" d="M180.5,139h3c0.276,0,0.5-0.224,0.5-0.5v-8c0-0.276-0.224-0.5-0.5-0.5h-3c-0.276,0-0.5,0.224-0.5,0.5v8
		C180,138.776,180.224,139,180.5,139z M181,131h2v7h-2V131z"/>
</g>
</svg>
