<?xml version="1.0" encoding="utf-8"?>
<!-- Generator: Adobe Illustrator 17.1.0, SVG Export Plug-In . SVG Version: 6.00 Build 0)  -->
<!DOCTYPE svg PUBLIC "-//W3C//DTD SVG 1.1//EN" "http://www.w3.org/Graphics/SVG/1.1/DTD/svg11.dtd">
<svg version="1.1" id="Layer_1" xmlns="http://www.w3.org/2000/svg" xmlns:xlink="http://www.w3.org/1999/xlink" x="0px" y="0px"
	 viewBox="0 0 216 216" enable-background="new 0 0 216 216" xml:space="preserve">
<g>
	<path fill="#FFFFFF" d="M99.7,104.293c2.932,0.25,6.016,0.376,9.164,0.376c8.695,0,16.869-0.993,21.867-2.656
		c0.393-0.131,0.605-0.556,0.475-0.949c-0.131-0.393-0.553-0.604-0.949-0.475c-4.853,1.615-12.85,2.58-21.392,2.58
		c-3.107,0-6.146-0.125-9.037-0.37c-0.41-0.036-0.775,0.271-0.811,0.684C98.983,103.895,99.288,104.257,99.7,104.293z"/>
	<path fill="#FFFFFF" d="M86.042,101.402c1.934,0.753,4.473,1.39,7.545,1.893c0.027,0.005,0.055,0.007,0.082,0.007
		c0.24,0,0.453-0.174,0.492-0.419c0.045-0.272-0.139-0.53-0.412-0.574c-2.963-0.485-5.502-1.121-7.344-1.838
		c-0.258-0.101-0.547,0.027-0.648,0.284C85.657,101.012,85.784,101.302,86.042,101.402z"/>
	<path fill="#FFFFFF" d="M86.017,79.99c1.93,0.751,4.469,1.388,7.545,1.893c0.027,0.005,0.055,0.007,0.082,0.007
		c0.24,0,0.453-0.174,0.492-0.419c0.045-0.272-0.139-0.529-0.412-0.574c-2.967-0.487-5.506-1.123-7.344-1.838
		c-0.258-0.101-0.547,0.027-0.646,0.284C85.632,79.6,85.759,79.89,86.017,79.99z"/>
	<path fill="#FFFFFF" d="M99.675,82.88c2.943,0.25,6.027,0.376,9.164,0.376c8.693,0,16.867-0.993,21.867-2.657
		c0.393-0.131,0.605-0.556,0.475-0.949c-0.131-0.394-0.555-0.603-0.949-0.475c-4.855,1.616-12.852,2.581-21.393,2.581
		c-3.096,0-6.135-0.125-9.037-0.37c-0.402-0.031-0.775,0.271-0.811,0.684C98.956,82.483,99.263,82.845,99.675,82.88z"/>
	<path fill="#FFFFFF" d="M93.749,123.643c-2.967-0.488-5.506-1.123-7.344-1.838c-0.258-0.102-0.547,0.027-0.648,0.283
		c-0.1,0.258,0.027,0.549,0.285,0.648c1.93,0.75,4.469,1.387,7.545,1.893c0.027,0.004,0.055,0.006,0.082,0.006
		c0.24,0,0.453-0.174,0.492-0.418C94.206,123.943,94.022,123.688,93.749,123.643z"/>
	<path fill="#FFFFFF" d="M135.692,135.65v-15.244c0-1.18-0.848-2.188-2.275-3.045c1.428-0.855,2.275-1.863,2.275-3.045V99.074
		c0-1.202-0.881-2.226-2.357-3.092c1.461-0.863,2.33-1.883,2.33-3.078V77.661c0-5.206-16.346-7.096-27.332-7.096
		c-10.988,0-27.334,1.89-27.334,7.096v15.243c0,1.202,0.881,2.226,2.357,3.092c-1.463,0.863-2.332,1.883-2.332,3.078v15.243
		c0,1.182,0.848,2.189,2.275,3.045c-1.428,0.857-2.275,1.865-2.275,3.045v15.244c0,5.207,16.346,7.096,27.334,7.096
		C119.345,142.746,135.692,140.857,135.692,135.65z M82.999,92.904V77.661c0-1.778,8.701-5.096,25.334-5.096
		s25.332,3.317,25.332,5.096v15.243c0,0.567-0.893,1.29-2.637,2.013c-0.877,0.364-1.986,0.726-3.295,1.069
		c-4.252,1.113-10.74,2.015-19.4,2.015c-8.643,0-15.123-0.898-19.375-2.009c-1.311-0.342-2.416-0.702-3.295-1.065
		C83.903,94.201,82.999,93.473,82.999,92.904z M83.024,114.316V99.074c0-0.567,0.895-1.29,2.639-2.013
		c5.658,2.099,15.35,2.94,22.67,2.94c7.33,0,17.041-0.843,22.695-2.949c1.76,0.726,2.664,1.453,2.664,2.022v15.243
		c0,0.559-0.859,1.268-2.547,1.978c-0.861,0.363-1.963,0.723-3.254,1.066c-4.248,1.131-10.779,2.051-19.533,2.051
		s-15.287-0.92-19.535-2.051c-1.291-0.344-2.391-0.703-3.252-1.066C83.884,115.584,83.024,114.875,83.024,114.316z M133.692,135.65
		c0,1.777-8.701,5.096-25.334,5.096s-25.334-3.318-25.334-5.096v-15.244c0-0.557,0.859-1.266,2.547-1.976
		c5.641,2.131,15.416,2.982,22.787,2.982c7.369,0,17.145-0.852,22.787-2.982c1.688,0.711,2.547,1.42,2.547,1.976V135.65z"/>
	<path fill="#FFFFFF" d="M130.257,121.922c-4.855,1.615-12.851,2.58-21.392,2.58c-3.096,0-6.135-0.125-9.037-0.369
		c-0.41-0.037-0.775,0.271-0.811,0.684c-0.033,0.412,0.271,0.775,0.684,0.811c2.943,0.25,6.027,0.375,9.164,0.375
		c8.693,0,16.867-0.992,21.867-2.656c0.393-0.131,0.605-0.557,0.475-0.949C131.075,122.004,130.653,121.791,130.257,121.922z"/>
	<path fill="#FFFFFF" d="M78.656,116.194c-0.146-0.389-0.58-0.584-0.967-0.436c-0.388,0.146-0.583,0.579-0.437,0.966
		c0.082,0.217,0.175,0.431,0.279,0.64c-0.104,0.21-0.198,0.424-0.279,0.64c-0.146,0.387,0.049,0.819,0.437,0.966
		c0.087,0.033,0.177,0.049,0.265,0.049c0.303,0,0.588-0.185,0.702-0.485c0.102-0.271,0.229-0.538,0.376-0.797
		c0.132-0.23,0.132-0.514,0-0.744C78.885,116.734,78.759,116.466,78.656,116.194z"/>
	<path fill="#FFFFFF" d="M78.315,113.229v-2.182c0-0.414-0.336-0.75-0.75-0.75c-0.414,0-0.75,0.336-0.75,0.75v2.182
		c0,0.414,0.336,0.75,0.75,0.75C77.979,113.979,78.315,113.644,78.315,113.229z"/>
	<path fill="#FFFFFF" d="M78.315,100.137c0-0.414-0.336-0.75-0.75-0.75c-0.414,0-0.75,0.336-0.75,0.75v2.182
		c0,0.414,0.336,0.75,0.75,0.75c0.414,0,0.75-0.336,0.75-0.75V100.137z"/>
	<path fill="#FFFFFF" d="M78.315,105.592c0-0.414-0.336-0.75-0.75-0.75c-0.414,0-0.75,0.336-0.75,0.75v2.182
		c0,0.414,0.336,0.75,0.75,0.75c0.414,0,0.75-0.336,0.75-0.75V105.592z"/>
	<path fill="#FFFFFF" d="M78.653,94.838c-0.151-0.386-0.585-0.577-0.971-0.426c-0.386,0.15-0.577,0.585-0.426,0.971
		c0.083,0.213,0.178,0.424,0.283,0.631c-0.104,0.207-0.197,0.419-0.278,0.633c-0.147,0.387,0.047,0.82,0.435,0.968
		c0.088,0.033,0.178,0.049,0.267,0.049c0.302,0,0.587-0.184,0.701-0.483c0.103-0.271,0.23-0.539,0.378-0.795
		c0.135-0.234,0.134-0.521-0.002-0.754C78.888,95.374,78.758,95.107,78.653,94.838z"/>
	<path fill="#FFFFFF" d="M139.405,89.245c-0.414,0-0.75,0.336-0.75,0.75v2.045c0,0.414,0.336,0.75,0.75,0.75
		c0.414,0,0.75-0.336,0.75-0.75v-2.045C140.155,89.581,139.819,89.245,139.405,89.245z"/>
	<path fill="#FFFFFF" d="M140.155,79.769c0-0.414-0.336-0.75-0.75-0.75c-0.414,0-0.75,0.336-0.75,0.75v2.045
		c0,0.414,0.336,0.75,0.75,0.75c0.414,0,0.75-0.336,0.75-0.75V79.769z"/>
	<path fill="#FFFFFF" d="M138.59,76.822c0.058,0.37,0.377,0.635,0.74,0.635c0.038,0,0.077-0.003,0.116-0.009
		c0.409-0.064,0.689-0.447,0.626-0.856c-0.117-0.752-0.366-1.479-0.741-2.16c-0.2-0.363-0.657-0.496-1.019-0.295
		c-0.363,0.2-0.495,0.656-0.296,1.019C138.307,75.682,138.5,76.243,138.59,76.822z"/>
	<path fill="#FFFFFF" d="M140.155,84.882c0-0.414-0.336-0.75-0.75-0.75c-0.414,0-0.75,0.336-0.75,0.75v2.045
		c0,0.414,0.336,0.75,0.75,0.75c0.414,0,0.75-0.336,0.75-0.75V84.882z"/>
	<path fill="#FFFFFF" d="M94.651,68.547c0.033,0,0.066-0.002,0.1-0.006c0.672-0.09,1.345-0.17,2.015-0.242
		c0.412-0.044,0.71-0.414,0.665-0.826c-0.044-0.412-0.42-0.709-0.826-0.666c-0.683,0.073-1.368,0.155-2.053,0.246
		c-0.411,0.055-0.699,0.432-0.645,0.843C93.959,68.273,94.281,68.547,94.651,68.547z"/>
	<path fill="#FFFFFF" d="M77.495,77.502c0.037,0.006,0.074,0.008,0.111,0.008c0.366,0,0.686-0.268,0.741-0.64
		c0.086-0.582,0.274-1.146,0.559-1.673c0.196-0.365,0.06-0.82-0.305-1.016c-0.364-0.194-0.819-0.06-1.016,0.305
		c-0.367,0.682-0.609,1.41-0.721,2.165C76.802,77.06,77.085,77.441,77.495,77.502z"/>
	<path fill="#FFFFFF" d="M99.745,68.027c0.019,0,0.038,0,0.056-0.002c0.689-0.051,1.368-0.094,2.031-0.13
		c0.414-0.023,0.73-0.376,0.708-0.79c-0.023-0.414-0.389-0.728-0.79-0.708c-0.673,0.037-1.36,0.081-2.059,0.132
		c-0.413,0.031-0.723,0.39-0.693,0.803C99.027,67.727,99.356,68.027,99.745,68.027z"/>
	<path fill="#FFFFFF" d="M89.607,69.423c0.054,0,0.108-0.006,0.163-0.017c0.65-0.144,1.312-0.276,1.98-0.398
		c0.408-0.074,0.678-0.464,0.604-0.872c-0.074-0.408-0.469-0.681-0.872-0.604c-0.688,0.124-1.368,0.26-2.037,0.408
		c-0.404,0.09-0.66,0.49-0.57,0.895C88.953,69.186,89.263,69.423,89.607,69.423z"/>
	<path fill="#FFFFFF" d="M77.54,82.614c0.414,0,0.75-0.336,0.75-0.75v-2.046c0-0.414-0.336-0.75-0.75-0.75
		c-0.414,0-0.75,0.336-0.75,0.75v2.046C76.79,82.278,77.126,82.614,77.54,82.614z"/>
	<path fill="#FFFFFF" d="M134.613,72.018c0.596,0.336,1.132,0.696,1.596,1.068c0.139,0.111,0.305,0.165,0.47,0.165
		c0.219,0,0.437-0.096,0.585-0.28c0.259-0.323,0.208-0.795-0.115-1.055c-0.526-0.423-1.131-0.828-1.797-1.204
		c-0.359-0.204-0.817-0.076-1.022,0.284C134.126,71.357,134.253,71.815,134.613,72.018z"/>
	<path fill="#FFFFFF" d="M80.224,73.286c0.166,0,0.333-0.055,0.472-0.167c0.462-0.374,0.998-0.736,1.591-1.075
		c0.36-0.205,0.485-0.663,0.28-1.023c-0.205-0.359-0.663-0.484-1.023-0.28c-0.664,0.379-1.267,0.787-1.793,1.212
		c-0.322,0.261-0.372,0.733-0.111,1.055C79.789,73.191,80.005,73.286,80.224,73.286z"/>
	<path fill="#FFFFFF" d="M77.54,92.841c0.414,0,0.75-0.336,0.75-0.75v-2.045c0-0.414-0.336-0.75-0.75-0.75
		c-0.414,0-0.75,0.336-0.75,0.75v2.045C76.79,92.505,77.126,92.841,77.54,92.841z"/>
	<path fill="#FFFFFF" d="M77.54,87.728c0.414,0,0.75-0.336,0.75-0.75v-2.045c0-0.414-0.336-0.75-0.75-0.75
		c-0.414,0-0.75,0.336-0.75,0.75v2.045C76.79,87.392,77.126,87.728,77.54,87.728z"/>
	<path fill="#FFFFFF" d="M84.697,70.852c0.089,0,0.179-0.016,0.267-0.049c0.589-0.225,1.225-0.44,1.89-0.641
		c0.396-0.12,0.621-0.539,0.501-0.935c-0.12-0.396-0.539-0.621-0.935-0.5c-0.697,0.211-1.367,0.438-1.988,0.674
		c-0.387,0.147-0.582,0.581-0.435,0.968C84.11,70.668,84.395,70.852,84.697,70.852z"/>
	<path fill="#FFFFFF" d="M115.063,67.891c0.663,0.036,1.342,0.079,2.029,0.129c0.019,0.002,0.037,0.002,0.056,0.002
		c0.389,0,0.718-0.301,0.747-0.695c0.03-0.413-0.28-0.772-0.693-0.803c-0.697-0.051-1.386-0.095-2.058-0.131
		c-0.409-0.015-0.767,0.294-0.789,0.708C114.332,67.515,114.649,67.869,115.063,67.891z"/>
	<path fill="#FFFFFF" d="M125.143,69c0.668,0.12,1.33,0.251,1.98,0.394c0.055,0.012,0.108,0.018,0.162,0.018
		c0.345,0,0.654-0.239,0.731-0.589c0.089-0.405-0.167-0.805-0.571-0.894c-0.67-0.147-1.35-0.282-2.037-0.406
		c-0.405-0.071-0.798,0.198-0.871,0.605C124.464,68.536,124.734,68.926,125.143,69z"/>
	<path fill="#FFFFFF" d="M120.128,68.293c0.67,0.072,1.343,0.151,2.015,0.241c0.033,0.004,0.066,0.006,0.1,0.006
		c0.37,0,0.692-0.274,0.742-0.651c0.055-0.411-0.234-0.788-0.645-0.842c-0.686-0.09-1.37-0.172-2.052-0.245
		c-0.424-0.05-0.782,0.254-0.826,0.666C119.418,67.879,119.717,68.249,120.128,68.293z"/>
	<path fill="#FFFFFF" d="M130.042,70.147c0.665,0.2,1.302,0.415,1.89,0.638c0.087,0.033,0.177,0.049,0.266,0.049
		c0.303,0,0.588-0.185,0.701-0.484c0.146-0.387-0.048-0.82-0.436-0.967c-0.62-0.235-1.29-0.461-1.989-0.672
		c-0.394-0.119-0.814,0.106-0.934,0.502C129.42,69.609,129.645,70.027,130.042,70.147z"/>
	<path fill="#FFFFFF" d="M104.86,67.767c0.007,0,0.015,0,0.022-0.001c0.713-0.02,1.395-0.034,2.038-0.042
		c0.414-0.005,0.746-0.345,0.74-0.76c-0.005-0.411-0.34-0.74-0.75-0.74c-0.003,0-0.006,0-0.01,0
		c-0.649,0.008-1.339,0.022-2.061,0.043c-0.414,0.012-0.74,0.357-0.728,0.771C104.122,67.445,104.456,67.767,104.86,67.767z"/>
	<path fill="#FFFFFF" d="M109.975,67.725c0.642,0.008,1.322,0.021,2.036,0.041c0.008,0.001,0.015,0.001,0.021,0.001
		c0.404,0,0.738-0.322,0.75-0.729c0.012-0.414-0.314-0.759-0.729-0.771c-0.722-0.021-1.412-0.034-2.062-0.042
		c-0.439-0.046-0.754,0.327-0.759,0.741C109.229,67.38,109.56,67.72,109.975,67.725z"/>
	<path fill="#FFFFFF" d="M138.319,97.139c0.115,0.296,0.399,0.477,0.698,0.477c0.091,0,0.184-0.017,0.273-0.051
		c0.386-0.151,0.576-0.586,0.425-0.972c-0.082-0.212-0.178-0.422-0.283-0.63c0.103-0.206,0.195-0.417,0.277-0.632
		c0.148-0.387-0.046-0.82-0.433-0.968c-0.387-0.149-0.82,0.046-0.968,0.433c-0.105,0.274-0.232,0.542-0.379,0.796
		c-0.135,0.234-0.134,0.521,0.002,0.754C138.084,96.604,138.214,96.871,138.319,97.139z"/>
	<path fill="#FFFFFF" d="M139.433,99.35c-0.414,0-0.75,0.336-0.75,0.75v2.188c0,0.414,0.336,0.75,0.75,0.75
		c0.414,0,0.75-0.336,0.75-0.75V100.1C140.183,99.686,139.847,99.35,139.433,99.35z"/>
	<path fill="#FFFFFF" d="M139.433,104.819c-0.414,0-0.75,0.336-0.75,0.75v2.188c0,0.415,0.336,0.75,0.75,0.75
		c0.414,0,0.75-0.335,0.75-0.75v-2.188C140.183,105.155,139.847,104.819,139.433,104.819z"/>
	<path fill="#FFFFFF" d="M139.433,110.288c-0.414,0-0.75,0.336-0.75,0.75v2.188c0,0.414,0.336,0.75,0.75,0.75
		c0.414,0,0.75-0.336,0.75-0.75v-2.188C140.183,110.624,139.847,110.288,139.433,110.288z"/>
	<path fill="#FFFFFF" d="M138.342,118.531c0.113,0.301,0.398,0.486,0.702,0.486c0.088,0,0.177-0.016,0.264-0.048
		c0.388-0.147,0.584-0.578,0.438-0.966c-0.081-0.216-0.175-0.43-0.279-0.641c0.104-0.211,0.198-0.425,0.279-0.641
		c0.146-0.388-0.051-0.819-0.438-0.966c-0.385-0.144-0.819,0.051-0.966,0.438c-0.102,0.269-0.227,0.537-0.376,0.796
		c-0.132,0.23-0.132,0.514,0,0.744C138.114,117.994,138.24,118.263,138.342,118.531z"/>
	<path fill="#FFFFFF" d="M122.185,144.776c-0.672,0.089-1.344,0.169-2.014,0.24c-0.411,0.044-0.71,0.414-0.666,0.826
		c0.041,0.385,0.367,0.67,0.745,0.67c0.026,0,0.054-0.001,0.081-0.004c0.682-0.073,1.366-0.155,2.051-0.246
		c0.41-0.054,0.699-0.431,0.645-0.842S122.59,144.719,122.185,144.776z"/>
	<path fill="#FFFFFF" d="M139.433,130.757c-0.414,0-0.75,0.336-0.75,0.75v2.044c0,0.414,0.336,0.75,0.75,0.75
		c0.414,0,0.75-0.336,0.75-0.75v-2.044C140.183,131.093,139.847,130.757,139.433,130.757z"/>
	<path fill="#FFFFFF" d="M136.241,140.223c-0.464,0.371-1,0.73-1.596,1.068c-0.36,0.204-0.486,0.662-0.282,1.023
		c0.138,0.243,0.392,0.38,0.653,0.38c0.125,0,0.252-0.031,0.369-0.098c0.665-0.377,1.269-0.782,1.793-1.203
		c0.323-0.259,0.376-0.731,0.116-1.054C137.035,140.015,136.563,139.964,136.241,140.223z"/>
	<path fill="#FFFFFF" d="M139.433,120.539c-0.414,0-0.75,0.336-0.75,0.75v2.044c0,0.414,0.336,0.75,0.75,0.75
		c0.414,0,0.75-0.336,0.75-0.75v-2.044C140.183,120.875,139.847,120.539,139.433,120.539z"/>
	<path fill="#FFFFFF" d="M139.475,135.864c-0.403-0.059-0.793,0.215-0.857,0.625c-0.091,0.58-0.284,1.141-0.573,1.665
		c-0.199,0.363-0.067,0.819,0.295,1.02c0.115,0.062,0.239,0.093,0.361,0.093c0.265,0,0.521-0.14,0.658-0.388
		c0.373-0.678,0.622-1.403,0.741-2.157C140.164,136.312,139.884,135.929,139.475,135.864z"/>
	<path fill="#FFFFFF" d="M139.433,125.648c-0.414,0-0.75,0.336-0.75,0.75v2.043c0,0.414,0.336,0.75,0.75,0.75
		c0.414,0,0.75-0.336,0.75-0.75v-2.043C140.183,125.984,139.847,125.648,139.433,125.648z"/>
	<path fill="#FFFFFF" d="M131.968,142.525c-0.593,0.225-1.229,0.438-1.889,0.637c-0.396,0.119-0.622,0.538-0.503,0.935
		c0.098,0.324,0.395,0.534,0.719,0.534c0.071,0,0.144-0.01,0.216-0.031c0.693-0.209,1.363-0.435,1.988-0.672
		c0.388-0.146,0.582-0.579,0.436-0.967C132.788,142.572,132.35,142.379,131.968,142.525z"/>
	<path fill="#FFFFFF" d="M127.162,143.915c-0.649,0.144-1.31,0.275-1.979,0.395c-0.407,0.073-0.679,0.463-0.605,0.871
		c0.066,0.362,0.381,0.617,0.737,0.617c0.044,0,0.089-0.004,0.134-0.012c0.688-0.124,1.368-0.259,2.037-0.406
		c0.404-0.089,0.659-0.489,0.57-0.895C127.968,144.081,127.564,143.827,127.162,143.915z"/>
	<path fill="#FFFFFF" d="M101.89,145.42c-0.662-0.036-1.34-0.078-2.028-0.13c-0.406-0.024-0.772,0.278-0.804,0.692
		c-0.031,0.413,0.279,0.772,0.692,0.804c0.698,0.052,1.386,0.096,2.058,0.132c0.014,0.001,0.027,0.001,0.041,0.001
		c0.396,0,0.727-0.309,0.749-0.709C102.621,145.796,102.303,145.442,101.89,145.42z"/>
	<path fill="#FFFFFF" d="M82.357,141.295c-0.594-0.337-1.131-0.696-1.596-1.068c-0.324-0.258-0.795-0.205-1.054,0.117
		c-0.259,0.323-0.206,0.796,0.117,1.055c0.527,0.422,1.131,0.826,1.795,1.201c0.117,0.066,0.244,0.098,0.369,0.098
		c0.261,0,0.515-0.137,0.653-0.381C82.845,141.956,82.718,141.499,82.357,141.295z"/>
	<path fill="#FFFFFF" d="M117.139,145.29c-0.689,0.051-1.367,0.093-2.03,0.13c-0.413,0.023-0.729,0.377-0.707,0.791
		c0.022,0.399,0.354,0.708,0.748,0.708c0.015,0,0.028,0,0.043-0.001c0.671-0.037,1.358-0.081,2.056-0.132
		c0.413-0.03,0.724-0.39,0.693-0.803C117.911,145.57,117.554,145.277,117.139,145.29z"/>
	<path fill="#FFFFFF" d="M77.565,134.303c0.414,0,0.75-0.336,0.75-0.75v-2.044c0-0.414-0.336-0.75-0.75-0.75
		c-0.414,0-0.75,0.336-0.75,0.75v2.044C76.815,133.967,77.151,134.303,77.565,134.303z"/>
	<path fill="#FFFFFF" d="M77.565,125.65c-0.414,0-0.75,0.336-0.75,0.75v2.043c0,0.414,0.336,0.75,0.75,0.75
		c0.414,0,0.75-0.336,0.75-0.75V126.4C78.315,125.986,77.979,125.65,77.565,125.65z"/>
	<path fill="#FFFFFF" d="M78.315,121.291c0-0.414-0.336-0.75-0.75-0.75c-0.414,0-0.75,0.336-0.75,0.75v2.044
		c0,0.414,0.336,0.75,0.75,0.75c0.414,0,0.75-0.336,0.75-0.75V121.291z"/>
	<path fill="#FFFFFF" d="M78.38,136.495c-0.065-0.409-0.448-0.686-0.858-0.624c-0.409,0.065-0.688,0.449-0.623,0.858
		c0.119,0.753,0.369,1.477,0.743,2.156c0.137,0.248,0.393,0.388,0.657,0.388c0.123,0,0.247-0.03,0.361-0.093
		c0.363-0.2,0.495-0.656,0.295-1.02C78.666,137.636,78.472,137.075,78.38,136.495z"/>
	<path fill="#FFFFFF" d="M112.062,145.546c-0.713,0.021-1.393,0.034-2.034,0.042c-0.414,0.005-0.746,0.345-0.741,0.759
		c0.005,0.411,0.34,0.741,0.75,0.741c0.003,0,0.006,0,0.009,0c0.649-0.008,1.339-0.021,2.06-0.042
		c0.414-0.012,0.74-0.357,0.729-0.771C112.821,145.861,112.52,145.558,112.062,145.546z"/>
	<path fill="#FFFFFF" d="M106.974,145.587c-0.641-0.008-1.322-0.021-2.035-0.042c-0.422-0.003-0.759,0.314-0.771,0.729
		c-0.012,0.414,0.314,0.76,0.728,0.771c0.722,0.02,1.411,0.034,2.06,0.042c0.003,0,0.006,0,0.009,0c0.41,0,0.745-0.33,0.75-0.741
		C107.719,145.932,107.388,145.592,106.974,145.587z"/>
	<path fill="#FFFFFF" d="M86.924,143.163c-0.659-0.197-1.294-0.412-1.89-0.637c-0.385-0.143-0.82,0.05-0.966,0.438
		c-0.146,0.388,0.049,0.82,0.437,0.967c0.627,0.236,1.296,0.462,1.987,0.67c0.072,0.021,0.145,0.031,0.216,0.031
		c0.322,0,0.62-0.209,0.718-0.534C87.546,143.701,87.321,143.283,86.924,143.163z"/>
	<path fill="#FFFFFF" d="M96.829,145.018c-0.669-0.071-1.341-0.151-2.012-0.24c-0.419-0.061-0.788,0.234-0.842,0.645
		c-0.054,0.411,0.234,0.788,0.645,0.842c0.684,0.091,1.369,0.173,2.05,0.246c0.027,0.003,0.054,0.004,0.081,0.004
		c0.378,0,0.704-0.285,0.745-0.67C97.54,145.432,97.241,145.061,96.829,145.018z"/>
	<path fill="#FFFFFF" d="M91.819,144.311c-0.667-0.12-1.328-0.251-1.978-0.394c-0.403-0.085-0.805,0.167-0.894,0.57
		c-0.089,0.405,0.166,0.805,0.571,0.895c0.668,0.147,1.348,0.282,2.035,0.406c0.045,0.008,0.089,0.012,0.134,0.012
		c0.356,0,0.672-0.254,0.737-0.617C92.498,144.775,92.227,144.385,91.819,144.311z"/>
</g>
</svg>
