<?xml version="1.0" encoding="utf-8"?>
<!-- Generator: Adobe Illustrator 17.1.0, SVG Export Plug-In . SVG Version: 6.00 Build 0)  -->
<!DOCTYPE svg PUBLIC "-//W3C//DTD SVG 1.1//EN" "http://www.w3.org/Graphics/SVG/1.1/DTD/svg11.dtd">
<svg version="1.1" id="Layer_1" xmlns="http://www.w3.org/2000/svg" xmlns:xlink="http://www.w3.org/1999/xlink" x="0px" y="0px"
	 viewBox="0 0 216 216" enable-background="new 0 0 216 216" xml:space="preserve">
<g>
	<path fill="#FFFFFF" d="M77.905,145.915c0,0.414-0.336,0.748-0.749,0.748h-1c-0.413,0-0.749-0.334-0.749-0.748v-1
		c0-0.414,0.336-0.75,0.749-0.75c0.413,0,0.75,0.336,0.75,0.75v0.25h0.25C77.569,145.165,77.905,145.501,77.905,145.915z"/>
	<path fill="#FFFFFF" d="M76.156,125.339c0.413,0,0.75-0.336,0.75-0.75v-2.033c0-0.414-0.337-0.75-0.75-0.75
		c-0.413,0-0.749,0.336-0.749,0.75v2.033C75.407,125.003,75.743,125.339,76.156,125.339z"/>
	<path fill="#FFFFFF" d="M76.156,119.749c0.413,0,0.75-0.336,0.75-0.75v-2.033c0-0.414-0.337-0.75-0.75-0.75
		c-0.413,0-0.749,0.336-0.749,0.75v2.033C75.407,119.413,75.743,119.749,76.156,119.749z"/>
	<path fill="#FFFFFF" d="M76.156,130.927c0.413,0,0.75-0.334,0.75-0.748v-2.033c0-0.414-0.337-0.75-0.75-0.75
		c-0.413,0-0.749,0.336-0.749,0.75v2.033C75.407,130.593,75.743,130.927,76.156,130.927z"/>
	<path fill="#FFFFFF" d="M76.156,136.519c0.413,0,0.75-0.336,0.75-0.75v-2.033c0-0.414-0.337-0.75-0.75-0.75
		c-0.413,0-0.749,0.336-0.749,0.75v2.033C75.407,136.183,75.743,136.519,76.156,136.519z"/>
	<path fill="#FFFFFF" d="M76.156,114.159c0.413,0,0.75-0.336,0.75-0.75v-2.033c0-0.414-0.337-0.75-0.75-0.75
		c-0.413,0-0.749,0.336-0.749,0.75v2.033C75.407,113.823,75.743,114.159,76.156,114.159z"/>
	<path fill="#FFFFFF" d="M76.156,142.108c0.413,0,0.75-0.336,0.75-0.75v-2.033c0-0.414-0.337-0.75-0.75-0.75
		c-0.413,0-0.749,0.336-0.749,0.75v2.033C75.407,141.773,75.743,142.108,76.156,142.108z"/>
	<path fill="#FFFFFF" d="M76.156,86.21c0.413,0,0.75-0.336,0.75-0.75v-2.033c0-0.414-0.337-0.75-0.75-0.75
		c-0.413,0-0.749,0.336-0.749,0.75v2.033C75.407,85.874,75.743,86.21,76.156,86.21z"/>
	<path fill="#FFFFFF" d="M76.156,80.62c0.413,0,0.75-0.336,0.75-0.75v-2.033c0-0.414-0.337-0.75-0.75-0.75
		c-0.413,0-0.749,0.336-0.749,0.75v2.033C75.407,80.284,75.743,80.62,76.156,80.62z"/>
	<path fill="#FFFFFF" d="M76.156,102.979c0.413,0,0.75-0.336,0.75-0.75v-2.033c0-0.414-0.337-0.75-0.75-0.75
		c-0.413,0-0.749,0.336-0.749,0.75v2.033C75.407,102.644,75.743,102.979,76.156,102.979z"/>
	<path fill="#FFFFFF" d="M76.156,108.569c0.413,0,0.75-0.336,0.75-0.75v-2.033c0-0.414-0.337-0.75-0.75-0.75
		c-0.413,0-0.749,0.336-0.749,0.75v2.033C75.407,108.233,75.743,108.569,76.156,108.569z"/>
	<path fill="#FFFFFF" d="M76.156,91.8c0.413,0,0.75-0.336,0.75-0.75v-2.033c0-0.414-0.337-0.75-0.75-0.75
		c-0.413,0-0.749,0.336-0.749,0.75v2.033C75.407,91.464,75.743,91.8,76.156,91.8z"/>
	<path fill="#FFFFFF" d="M76.156,97.39c0.413,0,0.75-0.336,0.75-0.75v-2.033c0-0.414-0.337-0.75-0.75-0.75
		c-0.413,0-0.749,0.336-0.749,0.75v2.033C75.407,97.054,75.743,97.39,76.156,97.39z"/>
	<path fill="#FFFFFF" d="M76.156,75.03c0.413,0,0.75-0.336,0.75-0.75v-0.514l0.469-0.211c0.377-0.17,0.546-0.613,0.377-0.99
		c-0.17-0.379-0.616-0.545-0.99-0.377l-0.912,0.408c-0.269,0.121-0.442,0.389-0.442,0.684v1
		C75.407,74.694,75.743,75.03,76.156,75.03z"/>
	<path fill="#FFFFFF" d="M124.246,68.292h2.033c0.414,0,0.75-0.334,0.75-0.748c0-0.414-0.336-0.75-0.75-0.75h-2.033
		c-0.414,0-0.75,0.336-0.75,0.75C123.496,67.958,123.832,68.292,124.246,68.292z"/>
	<path fill="#FFFFFF" d="M129.404,68.679l1.826,0.895c0.105,0.051,0.219,0.076,0.33,0.076c0.275,0,0.543-0.154,0.672-0.42
		c0.184-0.371,0.029-0.822-0.342-1.004l-1.826-0.895c-0.373-0.18-0.82-0.027-1.004,0.344
		C128.879,68.048,129.031,68.497,129.404,68.679z"/>
	<path fill="#FFFFFF" d="M134.43,71.138l1.826,0.895c0.105,0.053,0.219,0.076,0.328,0.076c0.277,0,0.545-0.154,0.676-0.42
		c0.182-0.371,0.025-0.82-0.344-1.002l-1.828-0.895c-0.373-0.182-0.82-0.029-1.002,0.344
		C133.904,70.507,134.057,70.956,134.43,71.138z"/>
	<path fill="#FFFFFF" d="M113.057,68.292h2.033c0.414,0,0.75-0.334,0.75-0.748c0-0.414-0.336-0.75-0.75-0.75h-2.033
		c-0.414,0-0.75,0.336-0.75,0.75C112.307,67.958,112.643,68.292,113.057,68.292z"/>
	<path fill="#FFFFFF" d="M118.648,68.292h2.035c0.416,0,0.752-0.334,0.752-0.748c0-0.414-0.336-0.75-0.752-0.75h-2.035
		c-0.412,0-0.748,0.336-0.748,0.75C117.9,67.958,118.236,68.292,118.648,68.292z"/>
	<path fill="#FFFFFF" d="M85.421,69.876c0.103,0,0.207-0.021,0.307-0.066l1.856-0.832c0.378-0.17,0.547-0.613,0.378-0.99
		c-0.17-0.377-0.614-0.547-0.99-0.377l-1.856,0.832c-0.378,0.17-0.547,0.613-0.378,0.99C84.862,69.71,85.135,69.876,85.421,69.876z"
		/>
	<path fill="#FFFFFF" d="M80.316,72.165c0.104,0,0.207-0.021,0.307-0.066l1.856-0.832c0.378-0.17,0.546-0.613,0.378-0.99
		c-0.17-0.377-0.614-0.545-0.991-0.377l-1.855,0.832c-0.378,0.17-0.547,0.613-0.378,0.99C79.757,71.999,80.031,72.165,80.316,72.165
		z"/>
	<path fill="#FFFFFF" d="M107.462,68.292h2.034c0.414,0,0.75-0.334,0.75-0.748c0-0.414-0.336-0.75-0.75-0.75h-2.034
		c-0.414,0-0.75,0.336-0.75,0.75C106.712,67.958,107.048,68.292,107.462,68.292z"/>
	<path fill="#FFFFFF" d="M90.677,68.292h2.035c0.414,0,0.749-0.334,0.749-0.748c0-0.414-0.335-0.75-0.749-0.75h-2.035
		c-0.414,0-0.749,0.336-0.749,0.75C89.928,67.958,90.263,68.292,90.677,68.292z"/>
	<path fill="#FFFFFF" d="M96.272,68.292h2.035c0.412,0,0.749-0.334,0.749-0.748c0-0.414-0.337-0.75-0.749-0.75h-2.035
		c-0.413,0-0.749,0.336-0.749,0.75C95.523,67.958,95.859,68.292,96.272,68.292z"/>
	<path fill="#FFFFFF" d="M101.866,68.292h2.035c0.414,0,0.748-0.334,0.748-0.748c0-0.414-0.334-0.75-0.748-0.75h-2.035
		c-0.412,0-0.748,0.336-0.748,0.75C101.118,67.958,101.454,68.292,101.866,68.292z"/>
	<path fill="#FFFFFF" d="M141.01,72.69l-0.896-0.439c-0.371-0.182-0.822-0.027-1.004,0.344c-0.18,0.373-0.027,0.82,0.344,1.004
		l0.479,0.232v0.531c0,0.414,0.336,0.75,0.75,0.75c0.414,0,0.75-0.336,0.75-0.75v-0.998C141.432,73.077,141.268,72.815,141.01,72.69
		z"/>
	<path fill="#FFFFFF" d="M140.682,138.583c-0.414,0-0.75,0.336-0.75,0.75v2.029c0,0.414,0.336,0.75,0.75,0.75
		c0.414,0,0.75-0.336,0.75-0.75v-2.029C141.432,138.919,141.096,138.583,140.682,138.583z"/>
	<path fill="#FFFFFF" d="M140.682,132.999c-0.414,0-0.75,0.336-0.75,0.75v2.031c0,0.412,0.336,0.748,0.75,0.748
		c0.414,0,0.75-0.336,0.75-0.748v-2.031C141.432,133.335,141.096,132.999,140.682,132.999z"/>
	<path fill="#FFFFFF" d="M140.682,127.415c-0.414,0-0.75,0.336-0.75,0.75v2.031c0,0.414,0.336,0.748,0.75,0.748
		c0.414,0,0.75-0.334,0.75-0.748v-2.031C141.432,127.751,141.096,127.415,140.682,127.415z"/>
	<path fill="#FFFFFF" d="M140.682,116.249c-0.414,0-0.75,0.336-0.75,0.75v2.029c0,0.414,0.336,0.75,0.75,0.75
		c0.414,0,0.75-0.336,0.75-0.75v-2.029C141.432,116.585,141.096,116.249,140.682,116.249z"/>
	<path fill="#FFFFFF" d="M140.682,110.667c-0.414,0-0.75,0.334-0.75,0.748v2.031c0,0.414,0.336,0.75,0.75,0.75
		c0.414,0,0.75-0.336,0.75-0.75v-2.031C141.432,111.001,141.096,110.667,140.682,110.667z"/>
	<path fill="#FFFFFF" d="M140.682,77.167c-0.414,0-0.75,0.336-0.75,0.75v2.029c0,0.414,0.336,0.75,0.75,0.75
		c0.414,0,0.75-0.336,0.75-0.75v-2.029C141.432,77.503,141.096,77.167,140.682,77.167z"/>
	<path fill="#FFFFFF" d="M140.682,99.499c-0.414,0-0.75,0.336-0.75,0.75v2.031c0,0.412,0.336,0.748,0.75,0.748
		c0.414,0,0.75-0.336,0.75-0.748v-2.031C141.432,99.835,141.096,99.499,140.682,99.499z"/>
	<path fill="#FFFFFF" d="M140.682,105.083c-0.414,0-0.75,0.336-0.75,0.75v2.029c0,0.414,0.336,0.75,0.75,0.75
		c0.414,0,0.75-0.336,0.75-0.75v-2.029C141.432,105.419,141.096,105.083,140.682,105.083z"/>
	<path fill="#FFFFFF" d="M140.682,93.917c-0.414,0-0.75,0.336-0.75,0.748v2.031c0,0.414,0.336,0.75,0.75,0.75
		c0.414,0,0.75-0.336,0.75-0.75v-2.031C141.432,94.253,141.096,93.917,140.682,93.917z"/>
	<path fill="#FFFFFF" d="M140.682,82.749c-0.414,0-0.75,0.336-0.75,0.75v2.031c0,0.414,0.336,0.748,0.75,0.748
		c0.414,0,0.75-0.334,0.75-0.748v-2.031C141.432,83.085,141.096,82.749,140.682,82.749z"/>
	<path fill="#FFFFFF" d="M140.682,88.333c-0.414,0-0.75,0.336-0.75,0.75v2.029c0,0.414,0.336,0.75,0.75,0.75
		c0.414,0,0.75-0.336,0.75-0.75v-2.029C141.432,88.669,141.096,88.333,140.682,88.333z"/>
	<path fill="#FFFFFF" d="M140.682,121.833c-0.414,0-0.75,0.336-0.75,0.75v2.029c0,0.414,0.336,0.75,0.75,0.75
		c0.414,0,0.75-0.336,0.75-0.75v-2.029C141.432,122.169,141.096,121.833,140.682,121.833z"/>
	<path fill="#FFFFFF" d="M140.682,144.165c-0.414,0-0.75,0.336-0.75,0.75v0.25h-0.25c-0.414,0-0.75,0.336-0.75,0.75
		c0,0.414,0.336,0.748,0.75,0.748h1c0.414,0,0.75-0.334,0.75-0.748v-1C141.432,144.501,141.096,144.165,140.682,144.165z"/>
	<path fill="#FFFFFF" d="M125.516,145.165h-1.953c-0.414,0-0.75,0.336-0.75,0.75c0,0.414,0.336,0.748,0.75,0.748h1.953
		c0.414,0,0.75-0.334,0.75-0.748C126.266,145.501,125.93,145.165,125.516,145.165z"/>
	<path fill="#FFFFFF" d="M82.529,145.165h-1.954c-0.413,0-0.749,0.336-0.749,0.75c0,0.414,0.336,0.748,0.749,0.748h1.954
		c0.414,0,0.75-0.334,0.75-0.748C83.279,145.501,82.943,145.165,82.529,145.165z"/>
	<path fill="#FFFFFF" d="M87.901,145.165h-1.952c-0.415,0-0.75,0.336-0.75,0.75c0,0.414,0.335,0.748,0.75,0.748h1.952
		c0.415,0,0.751-0.334,0.751-0.748C88.652,145.501,88.316,145.165,87.901,145.165z"/>
	<path fill="#FFFFFF" d="M136.262,145.165h-1.953c-0.414,0-0.75,0.336-0.75,0.75c0,0.414,0.336,0.748,0.75,0.748h1.953
		c0.414,0,0.75-0.334,0.75-0.748C137.012,145.501,136.676,145.165,136.262,145.165z"/>
	<path fill="#FFFFFF" d="M130.889,145.165h-1.953c-0.414,0-0.752,0.336-0.752,0.75c0,0.414,0.338,0.748,0.752,0.748h1.953
		c0.414,0,0.75-0.334,0.75-0.748C131.639,145.501,131.303,145.165,130.889,145.165z"/>
	<path fill="#FFFFFF" d="M109.395,145.165h-1.954c-0.413,0-0.748,0.336-0.748,0.75c0,0.414,0.335,0.748,0.748,0.748h1.954
		c0.414,0,0.75-0.334,0.75-0.748C110.145,145.501,109.809,145.165,109.395,145.165z"/>
	<path fill="#FFFFFF" d="M93.275,145.165h-1.953c-0.414,0-0.75,0.336-0.75,0.75c0,0.414,0.336,0.748,0.75,0.748h1.953
		c0.414,0,0.75-0.334,0.75-0.748C94.025,145.501,93.689,145.165,93.275,145.165z"/>
	<path fill="#FFFFFF" d="M114.768,145.165h-1.953c-0.414,0-0.75,0.336-0.75,0.75c0,0.414,0.336,0.748,0.75,0.748h1.953
		c0.416,0,0.752-0.334,0.752-0.748C115.52,145.501,115.184,145.165,114.768,145.165z"/>
	<path fill="#FFFFFF" d="M120.143,145.165h-1.955c-0.414,0-0.748,0.336-0.748,0.75c0,0.414,0.334,0.748,0.748,0.748h1.955
		c0.414,0,0.75-0.334,0.75-0.748C120.893,145.501,120.557,145.165,120.143,145.165z"/>
	<path fill="#FFFFFF" d="M104.022,145.165h-1.954c-0.415,0-0.751,0.336-0.751,0.75c0,0.414,0.336,0.748,0.751,0.748h1.954
		c0.413,0,0.748-0.334,0.748-0.748C104.77,145.501,104.435,145.165,104.022,145.165z"/>
	<path fill="#FFFFFF" d="M98.649,145.165h-1.954c-0.414,0-0.75,0.336-0.75,0.75c0,0.414,0.336,0.748,0.75,0.748h1.954
		c0.413,0,0.749-0.334,0.749-0.748C99.398,145.501,99.062,145.165,98.649,145.165z"/>
	<g>
		<circle fill="#FFFFFF" cx="95.627" cy="86.64" r="1.375"/>
		<circle fill="#FFFFFF" cx="100.502" cy="103.331" r="1.375"/>
		<circle fill="#FFFFFF" cx="95.627" cy="103.331" r="1.375"/>
		<circle fill="#FFFFFF" cx="95.627" cy="98.351" r="1.375"/>
		<circle fill="#FFFFFF" cx="100.502" cy="98.351" r="1.375"/>
		<circle fill="#FFFFFF" cx="125.15" cy="81.659" r="1.375"/>
		<circle fill="#FFFFFF" cx="85.707" cy="98.351" r="1.375"/>
		<circle fill="#FFFFFF" cx="90.585" cy="98.351" r="1.375"/>
		<circle fill="#FFFFFF" cx="85.707" cy="103.331" r="1.375"/>
		<circle fill="#FFFFFF" cx="90.585" cy="103.331" r="1.375"/>
		<circle fill="#FFFFFF" cx="105.498" cy="103.331" r="1.375"/>
		<path fill="#FFFFFF" d="M115.418,99.726c0.758,0,1.373-0.615,1.373-1.375c0-0.76-0.615-1.375-1.373-1.375
			c-0.762,0-1.375,0.615-1.375,1.375C114.043,99.11,114.656,99.726,115.418,99.726z"/>
		<circle fill="#FFFFFF" cx="120.295" cy="103.331" r="1.375"/>
		<circle fill="#FFFFFF" cx="120.295" cy="98.351" r="1.375"/>
		<circle fill="#FFFFFF" cx="105.498" cy="98.351" r="1.375"/>
		<circle fill="#FFFFFF" cx="125.15" cy="103.331" r="1.375"/>
		<path fill="#FFFFFF" d="M115.418,104.706c0.758,0,1.373-0.615,1.373-1.375c0-0.76-0.615-1.375-1.373-1.375
			c-0.762,0-1.375,0.615-1.375,1.375C114.043,104.091,114.656,104.706,115.418,104.706z"/>
		<circle fill="#FFFFFF" cx="110.375" cy="103.331" r="1.375"/>
		<circle fill="#FFFFFF" cx="110.375" cy="98.351" r="1.375"/>
		<circle fill="#FFFFFF" cx="105.498" cy="81.659" r="1.375"/>
		<circle fill="#FFFFFF" cx="125.15" cy="131.677" r="1.375"/>
		<circle fill="#FFFFFF" cx="95.627" cy="81.659" r="1.375"/>
		<circle fill="#FFFFFF" cx="90.585" cy="86.64" r="1.375"/>
		<circle fill="#FFFFFF" cx="100.502" cy="86.64" r="1.375"/>
		<path fill="#FFFFFF" d="M138.127,75.741c0.119-0.453-0.074-0.938-0.51-1.151l-9.193-4.5c-0.137-0.067-0.287-0.103-0.439-0.103
			H90.233c-0.134,0-0.267,0.027-0.393,0.08l-10.581,4.5c-0.464,0.197-0.685,0.703-0.558,1.176c-0.021,0.085-0.051,0.168-0.051,0.26
			v16.559v16.559c0,0.023,0.012,0.043,0.014,0.066c-0.002,0.023-0.014,0.043-0.014,0.066v16.559v16.559c0,0.553,0.447,1,1,1h57.529
			c0.553,0,1-0.447,1-1v-16.559v-16.559c0-0.023-0.012-0.043-0.014-0.066c0.002-0.023,0.014-0.043,0.014-0.066V92.562V76.003
			C138.18,75.909,138.148,75.825,138.127,75.741z M90.438,71.987h37.316l6.16,3.016H83.348L90.438,71.987z M136.18,135.581h-5.01
			c-0.822,0-1.49-0.668-1.49-1.49c0-0.821,0.668-1.49,1.49-1.49h5.01V135.581z M136.18,131.601h-5.01c-1.373,0-2.49,1.117-2.49,2.49
			c0,1.373,1.117,2.49,2.49,2.49h5.01v4.789H80.651v-14.559h55.529V131.601z M136.18,119.39h-5.01c-0.822,0-1.49-0.669-1.49-1.49
			c0-0.822,0.668-1.49,1.49-1.49h5.01V119.39z M136.18,115.409h-5.01c-1.373,0-2.49,1.117-2.49,2.49c0,1.373,1.117,2.49,2.49,2.49
			h5.01v4.422H80.651v-14.559h55.529V115.409z M136.18,102.331h-5.01c-0.822,0-1.49-0.668-1.49-1.49c0-0.821,0.668-1.49,1.49-1.49
			h5.01V102.331z M136.18,98.351h-5.01c-1.373,0-2.49,1.117-2.49,2.49c0,1.373,1.117,2.49,2.49,2.49h5.01v4.789H80.651V93.562
			h55.529V98.351z M136.18,86.14h-5.01c-0.822,0-1.49-0.669-1.49-1.49c0-0.822,0.668-1.49,1.49-1.49h5.01V86.14z M136.18,82.159
			h-5.01c-1.373,0-2.49,1.117-2.49,2.49c0,1.373,1.117,2.49,2.49,2.49h5.01v4.422H80.651V77.003h55.529V82.159z"/>
		<circle fill="#FFFFFF" cx="85.707" cy="81.659" r="1.375"/>
		<circle fill="#FFFFFF" cx="100.502" cy="81.659" r="1.375"/>
		<circle fill="#FFFFFF" cx="85.707" cy="86.64" r="1.375"/>
		<circle fill="#FFFFFF" cx="110.375" cy="81.659" r="1.375"/>
		<path fill="#FFFFFF" d="M115.418,83.034c0.758,0,1.373-0.615,1.373-1.375c0-0.76-0.615-1.375-1.373-1.375
			c-0.762,0-1.375,0.615-1.375,1.375C114.043,82.419,114.656,83.034,115.418,83.034z"/>
		<path fill="#FFFFFF" d="M115.418,88.015c0.758,0,1.373-0.615,1.373-1.375c0-0.76-0.615-1.375-1.373-1.375
			c-0.762,0-1.375,0.615-1.375,1.375C114.043,87.399,114.656,88.015,115.418,88.015z"/>
		<circle fill="#FFFFFF" cx="120.295" cy="86.64" r="1.375"/>
		<circle fill="#FFFFFF" cx="120.295" cy="81.659" r="1.375"/>
		<circle fill="#FFFFFF" cx="105.498" cy="86.64" r="1.375"/>
		<circle fill="#FFFFFF" cx="125.15" cy="98.351" r="1.375"/>
		<circle fill="#FFFFFF" cx="110.375" cy="86.64" r="1.375"/>
		<circle fill="#FFFFFF" cx="125.15" cy="86.64" r="1.375"/>
		<circle fill="#FFFFFF" cx="90.585" cy="81.659" r="1.375"/>
		<circle fill="#FFFFFF" cx="105.498" cy="136.657" r="1.375"/>
		<circle fill="#FFFFFF" cx="95.627" cy="136.657" r="1.375"/>
		<circle fill="#FFFFFF" cx="85.707" cy="136.657" r="1.375"/>
		<circle fill="#FFFFFF" cx="100.502" cy="131.677" r="1.375"/>
		<circle fill="#FFFFFF" cx="95.627" cy="131.677" r="1.375"/>
		<circle fill="#FFFFFF" cx="85.707" cy="131.677" r="1.375"/>
		<circle fill="#FFFFFF" cx="90.585" cy="131.677" r="1.375"/>
		<circle fill="#FFFFFF" cx="90.585" cy="136.657" r="1.375"/>
		<circle fill="#FFFFFF" cx="100.502" cy="136.657" r="1.375"/>
		<circle fill="#FFFFFF" cx="120.295" cy="136.657" r="1.375"/>
		<circle fill="#FFFFFF" cx="120.295" cy="131.677" r="1.375"/>
		<circle fill="#FFFFFF" cx="125.15" cy="136.657" r="1.375"/>
		<path fill="#FFFFFF" d="M115.418,133.052c0.758,0,1.373-0.615,1.373-1.375c0-0.76-0.615-1.375-1.373-1.375
			c-0.762,0-1.375,0.615-1.375,1.375C114.043,132.436,114.656,133.052,115.418,133.052z"/>
		<path fill="#FFFFFF" d="M115.418,138.032c0.758,0,1.373-0.615,1.373-1.375c0-0.76-0.615-1.375-1.373-1.375
			c-0.762,0-1.375,0.615-1.375,1.375C114.043,137.417,114.656,138.032,115.418,138.032z"/>
		<circle fill="#FFFFFF" cx="110.375" cy="136.657" r="1.375"/>
		<circle fill="#FFFFFF" cx="105.498" cy="131.677" r="1.375"/>
		<circle fill="#FFFFFF" cx="110.375" cy="131.677" r="1.375"/>
		<circle fill="#FFFFFF" cx="100.502" cy="115.042" r="1.375"/>
		<circle fill="#FFFFFF" cx="105.498" cy="120.022" r="1.375"/>
		<circle fill="#FFFFFF" cx="100.502" cy="120.022" r="1.375"/>
		<circle fill="#FFFFFF" cx="85.707" cy="120.022" r="1.375"/>
		<circle fill="#FFFFFF" cx="95.627" cy="120.022" r="1.375"/>
		<circle fill="#FFFFFF" cx="95.627" cy="115.042" r="1.375"/>
		<circle fill="#FFFFFF" cx="85.707" cy="115.042" r="1.375"/>
		<circle fill="#FFFFFF" cx="90.585" cy="120.022" r="1.375"/>
		<circle fill="#FFFFFF" cx="90.585" cy="115.042" r="1.375"/>
		<path fill="#FFFFFF" d="M115.418,121.397c0.758,0,1.373-0.615,1.373-1.375c0-0.76-0.615-1.375-1.373-1.375
			c-0.762,0-1.375,0.615-1.375,1.375C114.043,120.782,114.656,121.397,115.418,121.397z"/>
		<circle fill="#FFFFFF" cx="120.295" cy="120.022" r="1.375"/>
		<circle fill="#FFFFFF" cx="120.295" cy="115.042" r="1.375"/>
		<path fill="#FFFFFF" d="M115.418,116.417c0.758,0,1.373-0.615,1.373-1.375c0-0.76-0.615-1.375-1.373-1.375
			c-0.762,0-1.375,0.615-1.375,1.375C114.043,115.802,114.656,116.417,115.418,116.417z"/>
		<circle fill="#FFFFFF" cx="105.498" cy="115.042" r="1.375"/>
		<circle fill="#FFFFFF" cx="125.15" cy="120.022" r="1.375"/>
		<circle fill="#FFFFFF" cx="125.15" cy="115.042" r="1.375"/>
		<circle fill="#FFFFFF" cx="110.375" cy="120.022" r="1.375"/>
		<circle fill="#FFFFFF" cx="110.375" cy="115.042" r="1.375"/>
	</g>
</g>
</svg>
