<?xml version="1.0" encoding="utf-8"?>
<!-- Generator: Adobe Illustrator 17.1.0, SVG Export Plug-In . SVG Version: 6.00 Build 0)  -->
<!DOCTYPE svg PUBLIC "-//W3C//DTD SVG 1.1//EN" "http://www.w3.org/Graphics/SVG/1.1/DTD/svg11.dtd">
<svg version="1.1" id="Layer_1" xmlns="http://www.w3.org/2000/svg" xmlns:xlink="http://www.w3.org/1999/xlink" x="0px" y="0px"
	 viewBox="0 0 216 216" enable-background="new 0 0 216 216" xml:space="preserve">
<path d="M147.203,131.479l-7.787-9.717c-0.099-1.07-0.621-2.014-1.391-2.682c0.854-0.742,1.405-1.824,1.405-3.041V81.99
	c0-2.232-1.814-4.049-4.047-4.049H80.735c-2.231,0-4.047,1.816-4.047,4.049v34.049c0,1.217,0.551,2.299,1.405,3.041
	c-0.764,0.662-1.283,1.598-1.386,2.66l-8.406,9.709c-0.157,0.182-0.243,0.414-0.243,0.654c0,2.686,1.025,4.049,3.048,4.049h73.269
	c2.021,0,3.048-1.363,3.048-4.049C147.423,131.877,147.346,131.656,147.203,131.479z M78.688,116.039V81.99
	c0-1.129,0.918-2.049,2.047-2.049h54.648c1.13,0,2.047,0.92,2.047,2.049v34.049c0,1.129-0.917,2.047-2.047,2.047H80.735
	C79.606,118.086,78.688,117.168,78.688,116.039z M144.375,134.152H71.106c-0.438,0-0.976,0-1.043-1.684l8.381-9.68
	c0.157-0.182,0.244-0.414,0.244-0.654c0-1.131,0.918-2.049,2.047-2.049h54.648c1.13,0,2.047,0.918,2.047,2.049
	c0,0.226,0.079,0.447,0.221,0.625l7.766,9.687C145.354,134.152,144.814,134.152,144.375,134.152z M132.706,82.254H109.62
	c0.009-0.068,0.02-0.135,0.02-0.205c0-0.869-0.703-1.574-1.572-1.574c-0.87,0-1.573,0.705-1.573,1.574
	c0,0.07,0.011,0.137,0.02,0.205H83.428c-1.376,0-2.497,1.199-2.497,2.67v28.57c0,1.473,1.121,2.67,2.497,2.67h49.278
	c1.377,0,2.496-1.197,2.496-2.67v-28.57C135.202,83.453,134.083,82.254,132.706,82.254z M133.702,113.494
	c0,0.645-0.446,1.17-0.996,1.17H83.428c-0.549,0-0.997-0.525-0.997-1.17v-28.57c0-0.645,0.448-1.17,0.997-1.17h49.278
	c0.55,0,0.996,0.525,0.996,1.17V113.494z M80.274,122.588c0-0.277,0.224-0.5,0.5-0.5h54.678c0.276,0,0.5,0.223,0.5,0.5
	c0,0.275-0.224,0.5-0.5,0.5H80.774C80.498,123.088,80.274,122.863,80.274,122.588z M78.487,125.963c0-0.277,0.224-0.5,0.5-0.5
	h57.995c0.274,0,0.5,0.223,0.5,0.5c0,0.275-0.226,0.5-0.5,0.5H78.987C78.711,126.463,78.487,126.238,78.487,125.963z
	 M76.055,128.838h62.859c0.276,0,0.5,0.223,0.5,0.5c0,0.275-0.224,0.5-0.5,0.5H76.055c-0.277,0-0.5-0.225-0.5-0.5
	C75.555,129.061,75.777,128.838,76.055,128.838z M127.2,91.012c0.154,0.229,0.095,0.539-0.134,0.693l-14.396,9.668
	c-0.086,0.057-0.184,0.086-0.281,0.086c-0.159,0-0.316-0.078-0.413-0.221c-0.155-0.229-0.096-0.539,0.133-0.693l14.396-9.668
	C126.734,90.723,127.045,90.783,127.2,91.012z M119.93,99.633c0.155,0.229,0.095,0.541-0.135,0.695l-11.401,7.703
	c-0.086,0.057-0.184,0.086-0.28,0.086c-0.16,0-0.318-0.078-0.414-0.221c-0.156-0.229-0.095-0.539,0.134-0.695l11.402-7.701
	C119.463,99.346,119.775,99.404,119.93,99.633z"/>
</svg>
