<?xml version="1.0" encoding="utf-8"?>
<!-- Generator: Adobe Illustrator 17.1.0, SVG Export Plug-In . SVG Version: 6.00 Build 0)  -->
<!DOCTYPE svg PUBLIC "-//W3C//DTD SVG 1.1//EN" "http://www.w3.org/Graphics/SVG/1.1/DTD/svg11.dtd">
<svg version="1.1" id="Layer_1" xmlns="http://www.w3.org/2000/svg" xmlns:xlink="http://www.w3.org/1999/xlink" x="0px" y="0px"
	 viewBox="0 0 144 144" enable-background="new 0 0 144 144" xml:space="preserve">
<g>
	<g>
		<path d="M101.712,39.802c0.119-0.453-0.072-0.938-0.508-1.152l-9.195-4.5c-0.137-0.066-0.287-0.101-0.438-0.101H53.819
			c-0.136,0-0.268,0.026-0.393,0.078l-10.583,4.501c-0.464,0.198-0.683,0.703-0.558,1.177c-0.021,0.084-0.051,0.167-0.051,0.258
			v16.56v16.56c0,0.023,0.012,0.042,0.014,0.065c-0.002,0.023-0.014,0.042-0.014,0.065v16.561v16.56c0,0.552,0.447,0.999,1,0.999
			h57.529c0.553,0,1-0.447,1-0.999v-16.56V73.312c0-0.023-0.012-0.042-0.014-0.065c0.002-0.023,0.014-0.042,0.014-0.065v-16.56
			v-16.56C101.765,39.97,101.735,39.887,101.712,39.802 M54.021,36.049h37.317l6.16,3.013H46.933L54.021,36.049z M99.765,105.433
			H44.235V90.872h55.529V105.433z M99.765,88.874H44.235V74.312h55.529V88.874z M99.765,72.182H44.235V57.621h55.529V72.182z
			 M99.765,47.22v2.979 M99.765,55.623H44.235V41.062h55.529V55.623z"/>
		<path d="M47.856,45.993c0,0.762,0.615,1.375,1.375,1.375c0.76,0,1.376-0.613,1.376-1.375c0-0.76-0.616-1.374-1.376-1.374
			C48.472,44.619,47.856,45.233,47.856,45.993"/>
		<path d="M47.856,50.872c0,0.759,0.615,1.375,1.375,1.375c0.76,0,1.376-0.616,1.376-1.375c0-0.76-0.616-1.376-1.376-1.376
			C48.472,49.496,47.856,50.112,47.856,50.872"/>
		<path d="M95.908,45.75H53.907c-0.275,0-0.499-0.225-0.499-0.5c0-0.274,0.224-0.5,0.499-0.5h42.001c0.276,0,0.501,0.226,0.501,0.5
			C96.409,45.525,96.185,45.75,95.908,45.75"/>
		<path d="M95.908,48.75H53.907c-0.275,0-0.499-0.224-0.499-0.5c0-0.274,0.224-0.5,0.499-0.5h42.001c0.276,0,0.501,0.226,0.501,0.5
			C96.409,48.526,96.185,48.75,95.908,48.75"/>
		<path d="M95.908,51.75H53.907c-0.275,0-0.499-0.224-0.499-0.5c0-0.274,0.224-0.5,0.499-0.5h42.001c0.276,0,0.501,0.226,0.501,0.5
			C96.409,51.526,96.185,51.75,95.908,51.75"/>
		<path d="M95.908,62.75H53.907c-0.275,0-0.499-0.225-0.499-0.5c0-0.274,0.224-0.5,0.499-0.5h42.001c0.276,0,0.501,0.226,0.501,0.5
			C96.409,62.525,96.185,62.75,95.908,62.75"/>
		<path d="M95.908,65.75H53.907c-0.275,0-0.499-0.225-0.499-0.5s0.224-0.5,0.499-0.5h42.001c0.276,0,0.501,0.225,0.501,0.5
			S96.185,65.75,95.908,65.75"/>
		<path d="M95.908,68.75H53.907c-0.275,0-0.499-0.225-0.499-0.5s0.224-0.5,0.499-0.5h42.001c0.276,0,0.501,0.225,0.501,0.5
			S96.185,68.75,95.908,68.75"/>
		<path d="M95.908,78.75H53.907c-0.275,0-0.499-0.225-0.499-0.5s0.224-0.5,0.499-0.5h42.001c0.276,0,0.501,0.225,0.501,0.5
			S96.185,78.75,95.908,78.75"/>
		<path d="M95.908,81.75H53.907c-0.275,0-0.499-0.224-0.499-0.5c0-0.275,0.224-0.5,0.499-0.5h42.001c0.276,0,0.501,0.225,0.501,0.5
			C96.409,81.526,96.185,81.75,95.908,81.75"/>
		<path d="M95.908,84.75H53.907c-0.275,0-0.499-0.224-0.499-0.5c0-0.275,0.224-0.5,0.499-0.5h42.001c0.276,0,0.501,0.225,0.501,0.5
			C96.409,84.526,96.185,84.75,95.908,84.75"/>
		<path d="M95.908,95.75H53.907c-0.275,0-0.499-0.225-0.499-0.5s0.224-0.5,0.499-0.5h42.001c0.276,0,0.501,0.225,0.501,0.5
			S96.185,95.75,95.908,95.75"/>
		<path d="M95.908,98.75H53.907c-0.275,0-0.499-0.224-0.499-0.5c0-0.275,0.224-0.5,0.499-0.5h42.001c0.276,0,0.501,0.225,0.501,0.5
			C96.409,98.526,96.185,98.75,95.908,98.75"/>
		<path d="M95.908,101.75H53.907c-0.275,0-0.499-0.224-0.499-0.5c0-0.275,0.224-0.5,0.499-0.5h42.001c0.276,0,0.501,0.225,0.501,0.5
			C96.409,101.526,96.185,101.75,95.908,101.75"/>
		<path d="M47.856,62.993c0,0.762,0.615,1.376,1.375,1.376c0.76,0,1.376-0.614,1.376-1.376c0-0.759-0.616-1.374-1.376-1.374
			C48.472,61.619,47.856,62.234,47.856,62.993"/>
		<path d="M47.856,67.871c0,0.761,0.615,1.376,1.375,1.376c0.76,0,1.376-0.615,1.376-1.376c0-0.759-0.616-1.375-1.376-1.375
			C48.472,66.496,47.856,67.112,47.856,67.871"/>
		<path d="M47.856,78.993c0,0.761,0.615,1.376,1.375,1.376c0.76,0,1.376-0.615,1.376-1.376c0-0.758-0.616-1.374-1.376-1.374
			C48.472,77.619,47.856,78.235,47.856,78.993"/>
		<path d="M47.856,83.873c0,0.759,0.615,1.374,1.375,1.374c0.76,0,1.376-0.615,1.376-1.374c0-0.761-0.616-1.376-1.376-1.376
			C48.472,82.497,47.856,83.112,47.856,83.873"/>
		<path d="M47.856,95.993c0,0.761,0.615,1.377,1.375,1.377c0.76,0,1.376-0.616,1.376-1.377c0-0.758-0.616-1.374-1.376-1.374
			C48.472,94.619,47.856,95.235,47.856,95.993"/>
		<path d="M47.856,100.873c0,0.759,0.615,1.375,1.375,1.375c0.76,0,1.376-0.616,1.376-1.375c0-0.761-0.616-1.375-1.376-1.375
			C48.472,99.498,47.856,100.112,47.856,100.873"/>
	</g>
</g>
</svg>
