<?xml version="1.0" encoding="utf-8"?>
<!-- Generator: Adobe Illustrator 17.1.0, SVG Export Plug-In . SVG Version: 6.00 Build 0)  -->
<!DOCTYPE svg PUBLIC "-//W3C//DTD SVG 1.1//EN" "http://www.w3.org/Graphics/SVG/1.1/DTD/svg11.dtd">
<svg version="1.1" id="Layer_1" xmlns="http://www.w3.org/2000/svg" xmlns:xlink="http://www.w3.org/1999/xlink" x="0px" y="0px"
	 viewBox="0 0 216 216" enable-background="new 0 0 216 216" xml:space="preserve">
<g>
	<g>
		<path fill="#010101" d="M137.711,101.843c0.12-0.453-0.071-0.938-0.508-1.152l-9.195-4.5c-0.137-0.066-0.287-0.101-0.438-0.101
			H89.818c-0.135,0-0.268,0.025-0.392,0.078l-10.583,4.501c-0.464,0.197-0.684,0.703-0.557,1.176
			c-0.023,0.085-0.052,0.167-0.052,0.258v0.248v16.559c0,0.551,0.446,1,1,1h57.528c0.554,0,1.001-0.449,1.001-1v-16.559v-0.248
			C137.765,102.011,137.734,101.927,137.711,101.843z M90.021,98.088h37.317l6.16,3.016H82.932L90.021,98.088z M135.765,117.91
			h-55.53v-14.559h55.53V117.91z"/>
		<circle fill="#010101" cx="85.291" cy="110.578" r="1.375"/>
		<circle fill="#010101" cx="90.17" cy="110.578" r="1.375"/>
		<path fill="#010101" d="M133,114.5c0,0.276-0.225,0.5-0.501,0.5h-2.998c-0.276,0-0.501-0.224-0.501-0.5v-8
			c0-0.276,0.225-0.5,0.501-0.5h2.998c0.276,0,0.501,0.224,0.501,0.5V114.5z M130,114h2v-7h-2V114z"/>
		<path fill="#010101" d="M127,114.5c0,0.276-0.224,0.5-0.5,0.5h-3c-0.276,0-0.5-0.224-0.5-0.5v-8c0-0.276,0.224-0.5,0.5-0.5h3
			c0.276,0,0.5,0.224,0.5,0.5V114.5z M124,114h2v-7h-2V114z"/>
	</g>
</g>
</svg>
