<?xml version="1.0" encoding="utf-8"?>
<!-- Generator: Adobe Illustrator 17.1.0, SVG Export Plug-In . SVG Version: 6.00 Build 0)  -->
<!DOCTYPE svg PUBLIC "-//W3C//DTD SVG 1.1//EN" "http://www.w3.org/Graphics/SVG/1.1/DTD/svg11.dtd">
<svg version="1.1" id="Layer_1" xmlns="http://www.w3.org/2000/svg" xmlns:xlink="http://www.w3.org/1999/xlink" x="0px" y="0px"
	 viewBox="0 0 144 144" enable-background="new 0 0 144 144" xml:space="preserve">
<g>
	<g>
		<g>
			<path fill="#FFFFFF" d="M101.712,39.548c0.119-0.451-0.072-0.936-0.51-1.151l-9.193-4.5c-0.139-0.066-0.289-0.101-0.439-0.101
				H53.817c-0.135,0-0.268,0.027-0.392,0.08l-10.583,4.5c-0.463,0.197-0.684,0.701-0.557,1.174
				c-0.022,0.086-0.051,0.168-0.051,0.259V56.37v16.559c0,0.023,0.012,0.045,0.013,0.064c-0.001,0.027-0.013,0.045-0.013,0.068
				V89.62v16.559c0,0.553,0.445,1.002,1,1.002h57.529c0.553,0,1-0.449,1-1.002V89.62V73.062c0-0.023-0.012-0.041-0.014-0.068
				c0.002-0.02,0.014-0.041,0.014-0.064V56.37V39.809C101.765,39.716,101.734,39.634,101.712,39.548z M54.022,35.796h37.316
				l6.158,3.013H46.932L54.022,35.796z M99.765,45.966v1v2.982v50.442v4.788H44.235V90.62v-1.998V74.063v-2.133V57.37v-2V40.807
				h55.529V45.966z"/>
			<path fill="#FFFFFF" d="M74.165,99.372h22.828c0.277,0,0.504-0.227,0.504-0.504V44.24c0-0.278-0.227-0.504-0.504-0.504H74.165
				c-0.277,0-0.504,0.226-0.504,0.504v54.629C73.661,99.146,73.888,99.372,74.165,99.372z M96.489,68.923h-21.82V57.181h21.82
				V68.923z M74.669,98.364V69.931h21.82v28.434H74.669z M96.489,44.744v11.427h-21.82V44.744H96.489z"/>
			<path fill="#FFFFFF" d="M77.313,49.341h16.688c0.557,0,1.008-0.451,1.008-1.008c0-0.556-0.451-1.008-1.008-1.008H77.313
				c-0.557,0-1.008,0.452-1.008,1.008C76.306,48.89,76.757,49.341,77.313,49.341z"/>
			<path fill="#FFFFFF" d="M77.313,53.747h16.688c0.557,0,1.008-0.451,1.008-1.008c0-0.556-0.451-1.008-1.008-1.008H77.313
				c-0.557,0-1.008,0.452-1.008,1.008C76.306,53.296,76.757,53.747,77.313,53.747z"/>
			<path fill="#FFFFFF" d="M49.103,48.995h18.797c0.277,0,0.504-0.227,0.504-0.504c0-0.279-0.226-0.504-0.504-0.504H49.103
				c-0.277,0-0.504,0.225-0.504,0.504C48.599,48.768,48.825,48.995,49.103,48.995z"/>
			<path fill="#FFFFFF" d="M49.103,51.46h18.797c0.277,0,0.504-0.227,0.504-0.504c0-0.279-0.226-0.504-0.504-0.504H49.103
				c-0.277,0-0.504,0.225-0.504,0.504C48.599,51.233,48.825,51.46,49.103,51.46z"/>
			<path fill="#FFFFFF" d="M49.103,53.927h18.797c0.277,0,0.504-0.227,0.504-0.504c0-0.279-0.226-0.504-0.504-0.504H49.103
				c-0.277,0-0.504,0.225-0.504,0.504C48.599,53.7,48.825,53.927,49.103,53.927z"/>
			<path fill="#FFFFFF" d="M49.103,58.634h18.797c0.277,0,0.504-0.225,0.504-0.504c0-0.279-0.226-0.504-0.504-0.504H49.103
				c-0.277,0-0.504,0.225-0.504,0.504C48.599,58.409,48.825,58.634,49.103,58.634z"/>
			<path fill="#FFFFFF" d="M49.103,61.099h18.797c0.277,0,0.504-0.225,0.504-0.504c0-0.279-0.226-0.504-0.504-0.504H49.103
				c-0.277,0-0.504,0.225-0.504,0.504C48.599,60.874,48.825,61.099,49.103,61.099z"/>
			<path fill="#FFFFFF" d="M49.103,63.565h18.797c0.277,0,0.504-0.225,0.504-0.504c0-0.279-0.226-0.504-0.504-0.504H49.103
				c-0.277,0-0.504,0.225-0.504,0.504C48.599,63.34,48.825,63.565,49.103,63.565z"/>
			<path fill="#FFFFFF" d="M49.103,68.272h18.797c0.277,0,0.504-0.226,0.504-0.504c0-0.276-0.226-0.504-0.504-0.504H49.103
				c-0.277,0-0.504,0.228-0.504,0.504C48.599,68.047,48.825,68.272,49.103,68.272z"/>
			<path fill="#FFFFFF" d="M49.103,70.739h18.797c0.277,0,0.504-0.228,0.504-0.504c0-0.279-0.226-0.504-0.504-0.504H49.103
				c-0.277,0-0.504,0.225-0.504,0.504C48.599,70.512,48.825,70.739,49.103,70.739z"/>
			<path fill="#FFFFFF" d="M49.103,73.206h18.797c0.277,0,0.504-0.227,0.504-0.504c0-0.279-0.226-0.504-0.504-0.504H49.103
				c-0.277,0-0.504,0.225-0.504,0.504C48.599,72.979,48.825,73.206,49.103,73.206z"/>
			<path fill="#FFFFFF" d="M77.313,62.093h16.688c0.557,0,1.008-0.451,1.008-1.008c0-0.556-0.451-1.008-1.008-1.008H77.313
				c-0.557,0-1.008,0.452-1.008,1.008C76.306,61.642,76.757,62.093,77.313,62.093z"/>
			<path fill="#FFFFFF" d="M94.001,64.485H77.313c-0.557,0-1.008,0.452-1.008,1.008c0,0.557,0.451,1.008,1.008,1.008h16.688
				c0.557,0,1.008-0.451,1.008-1.008C95.009,64.937,94.558,64.485,94.001,64.485z"/>
			<circle fill="#FFFFFF" cx="77.899" cy="73.614" r="1.375"/>
			<circle fill="#FFFFFF" cx="81.806" cy="73.614" r="1.375"/>
			<circle fill="#FFFFFF" cx="85.71" cy="73.614" r="1.375"/>
		</g>
	</g>
</g>
</svg>
