<?xml version="1.0" encoding="utf-8"?>
<!-- Generator: Adobe Illustrator 17.1.0, SVG Export Plug-In . SVG Version: 6.00 Build 0)  -->
<!DOCTYPE svg PUBLIC "-//W3C//DTD SVG 1.1//EN" "http://www.w3.org/Graphics/SVG/1.1/DTD/svg11.dtd">
<svg version="1.1" id="Layer_1" xmlns="http://www.w3.org/2000/svg" xmlns:xlink="http://www.w3.org/1999/xlink" x="0px" y="0px"
	 viewBox="0 0 144 144" enable-background="new 0 0 144 144" xml:space="preserve">
<g>
	<g>
		<path d="M47.687,77.086h49.278c1.377,0,2.496-1.197,2.496-2.67v-28.57c0-1.472-1.119-2.67-2.496-2.67H73.879
			c0.008-0.067,0.021-0.135,0.021-0.206c0-0.87-0.704-1.572-1.573-1.572c-0.869,0-1.572,0.702-1.572,1.572
			c0,0.071,0.011,0.139,0.02,0.206H47.687c-1.376,0-2.495,1.198-2.495,2.67v28.57C45.191,75.889,46.311,77.086,47.687,77.086
			 M96.965,75.586H76.196c0.578-0.376,1.115-0.81,1.606-1.312L96.404,58.29c0.029-0.023,0.062-0.043,0.092-0.065
			c0.58-0.445,1.062-0.935,1.465-1.452v17.644C97.961,75.061,97.515,75.586,96.965,75.586 M82.565,61.342
			c2.34,0.355,5.793,0.157,8.955-0.752l-10.922,9.383C81.838,67.145,82.416,63.954,82.565,61.342 M46.691,45.846
			c0-0.645,0.445-1.17,0.995-1.17h49.278c0.55,0,0.996,0.525,0.996,1.17v7.215c-0.002,0.03-0.012,0.059-0.012,0.09
			c0,1.339-0.697,2.477-1.836,3.52c-0.029,0.018-0.064,0.028-0.092,0.051l-0.523,0.45c-3.645,2.723-10.369,3.373-13.445,2.614
			c-0.217-0.053-0.44-0.007-0.615,0.124c-0.176,0.132-0.281,0.336-0.287,0.552c-0.002,0.073-0.012,0.348-0.039,0.749h-6.637
			c-0.331,0-0.6,0.269-0.6,0.6c0,0.332,0.269,0.601,0.6,0.601H81c-0.092,0.812-0.238,1.811-0.474,2.906h-6.052
			c-0.331,0-0.6,0.269-0.6,0.6c0,0.332,0.269,0.6,0.6,0.6h5.764c-0.254,0.957-0.58,1.945-0.996,2.906h-4.768
			c-0.331,0-0.6,0.27-0.6,0.6c0,0.332,0.269,0.601,0.6,0.601h4.191c-0.512,0.954-1.123,1.849-1.865,2.615l-0.477,0.409
			c-0.053,0.046-0.087,0.103-0.122,0.158c-1.171,1.006-2.618,1.625-4.409,1.781H47.687c-0.55,0-0.995-0.525-0.995-1.17V45.846z"/>
		<path d="M45.033,84.01h54.678c0.276,0,0.5-0.225,0.5-0.5c0-0.276-0.224-0.5-0.5-0.5H45.033c-0.275,0-0.5,0.224-0.5,0.5
			C44.533,83.785,44.758,84.01,45.033,84.01"/>
		<path d="M39.813,90.26c0,0.275,0.224,0.5,0.5,0.5h62.86c0.277,0,0.5-0.225,0.5-0.5c0-0.276-0.223-0.5-0.5-0.5h-62.86
			C40.037,89.76,39.813,89.983,39.813,90.26"/>
		<path d="M111.462,92.4l-7.787-9.717c-0.099-1.07-0.621-2.014-1.392-2.681c0.855-0.742,1.408-1.825,1.408-3.042v-34.05
			c0-2.232-1.816-4.048-4.049-4.048H44.994c-2.231,0-4.047,1.815-4.047,4.048v34.05c0,1.217,0.552,2.3,1.406,3.042
			c-0.765,0.661-1.283,1.597-1.387,2.659l-8.404,9.709c-0.158,0.182-0.244,0.414-0.244,0.654c0,2.687,1.024,4.049,3.047,4.049
			h73.269c2.022,0,3.048-1.362,3.048-4.049C111.682,92.799,111.605,92.578,111.462,92.4 M42.947,42.911
			c0-1.13,0.918-2.048,2.047-2.048h54.649c1.131,0,2.049,0.918,2.049,2.048v34.05c0,1.13-0.918,2.048-2.049,2.048H44.994
			c-1.129,0-2.047-0.918-2.047-2.048V42.911z M108.634,95.074H35.365c-0.438,0-0.975,0-1.041-1.684l8.379-9.68
			c0.158-0.182,0.244-0.414,0.244-0.655c0-1.129,0.918-2.047,2.047-2.047h54.649c1.131,0,2.049,0.918,2.049,2.047
			c0,0.228,0.077,0.449,0.219,0.626l7.766,9.688C109.613,95.074,109.072,95.074,108.634,95.074"/>
		<path d="M43.247,87.385h57.993c0.277,0,0.5-0.225,0.5-0.5c0-0.276-0.223-0.5-0.5-0.5H43.247c-0.276,0-0.5,0.224-0.5,0.5
			C42.747,87.16,42.971,87.385,43.247,87.385"/>
		<path d="M53.666,50.093h16.296c0.331,0,0.601-0.27,0.601-0.601c0-0.332-0.27-0.6-0.601-0.6H53.666c-0.331,0-0.6,0.268-0.6,0.6
			C53.066,49.823,53.335,50.093,53.666,50.093"/>
		<path d="M53.666,54.198h16.296c0.331,0,0.601-0.269,0.601-0.6c0-0.332-0.27-0.6-0.601-0.6H53.666c-0.331,0-0.6,0.268-0.6,0.6
			C53.066,53.93,53.335,54.198,53.666,54.198"/>
		<path d="M53.666,58.305h16.296c0.331,0,0.601-0.27,0.601-0.601c0-0.332-0.27-0.6-0.601-0.6H53.666c-0.331,0-0.6,0.268-0.6,0.6
			C53.066,58.035,53.335,58.305,53.666,58.305"/>
		<path d="M53.666,62.41h16.296c0.331,0,0.601-0.269,0.601-0.6c0-0.332-0.27-0.601-0.601-0.601H53.666c-0.331,0-0.6,0.269-0.6,0.601
			C53.066,62.142,53.335,62.41,53.666,62.41"/>
		<path d="M53.666,66.517h16.296c0.331,0,0.601-0.269,0.601-0.601s-0.27-0.6-0.601-0.6H53.666c-0.331,0-0.6,0.268-0.6,0.6
			S53.335,66.517,53.666,66.517"/>
		<path d="M53.666,70.623h16.296c0.331,0,0.601-0.27,0.601-0.601c0-0.332-0.27-0.601-0.601-0.601H53.666
			c-0.331,0-0.6,0.269-0.6,0.601C53.066,70.354,53.335,70.623,53.666,70.623"/>
		<path d="M74.475,50.093h16.296c0.331,0,0.601-0.27,0.601-0.601c0-0.332-0.27-0.6-0.601-0.6H74.475c-0.331,0-0.6,0.268-0.6,0.6
			C73.875,49.823,74.144,50.093,74.475,50.093"/>
		<path d="M74.475,54.198h16.296c0.331,0,0.601-0.269,0.601-0.6c0-0.332-0.27-0.6-0.601-0.6H74.475c-0.331,0-0.6,0.268-0.6,0.6
			C73.875,53.93,74.144,54.198,74.475,54.198"/>
		<path d="M74.475,58.305h16.296c0.331,0,0.601-0.27,0.601-0.601c0-0.332-0.27-0.6-0.601-0.6H74.475c-0.331,0-0.6,0.268-0.6,0.6
			C73.875,58.035,74.144,58.305,74.475,58.305"/>
	</g>
</g>
</svg>
