<?xml version="1.0" encoding="utf-8"?>
<!-- Generator: Adobe Illustrator 17.1.0, SVG Export Plug-In . SVG Version: 6.00 Build 0)  -->
<!DOCTYPE svg PUBLIC "-//W3C//DTD SVG 1.1//EN" "http://www.w3.org/Graphics/SVG/1.1/DTD/svg11.dtd">
<svg version="1.1" id="Layer_1" xmlns="http://www.w3.org/2000/svg" xmlns:xlink="http://www.w3.org/1999/xlink" x="0px" y="0px"
	 viewBox="0 0 216 216" enable-background="new 0 0 216 216" xml:space="preserve">
<g>
	<circle fill="#FFFFFF" cx="94.959" cy="98.687" r="1.375"/>
	<circle fill="#FFFFFF" cx="85.041" cy="103.667" r="1.375"/>
	<circle fill="#FFFFFF" cx="99.836" cy="98.687" r="1.375"/>
	<circle fill="#FFFFFF" cx="104.832" cy="103.667" r="1.375"/>
	<circle fill="#FFFFFF" cx="85.041" cy="98.687" r="1.375"/>
	<circle fill="#FFFFFF" cx="89.919" cy="103.667" r="1.375"/>
	<circle fill="#FFFFFF" cx="94.959" cy="103.667" r="1.375"/>
	<circle fill="#FFFFFF" cx="104.832" cy="98.687" r="1.375"/>
	<circle fill="#FFFFFF" cx="89.919" cy="98.687" r="1.375"/>
	<circle fill="#FFFFFF" cx="109.711" cy="132.012" r="1.375"/>
	<circle fill="#FFFFFF" cx="119.627" cy="132.012" r="1.375"/>
	<circle fill="#FFFFFF" cx="119.627" cy="136.992" r="1.375"/>
	<circle fill="#FFFFFF" cx="114.75" cy="132.012" r="1.375"/>
	<circle fill="#FFFFFF" cx="114.75" cy="136.992" r="1.375"/>
	<circle fill="#FFFFFF" cx="109.711" cy="98.687" r="1.375"/>
	<circle fill="#FFFFFF" cx="109.711" cy="103.667" r="1.375"/>
	<circle fill="#FFFFFF" cx="124.484" cy="136.992" r="1.375"/>
	<circle fill="#FFFFFF" cx="124.484" cy="132.012" r="1.375"/>
	<circle fill="#FFFFFF" cx="99.836" cy="103.667" r="1.375"/>
	<circle fill="#FFFFFF" cx="94.959" cy="81.994" r="1.375"/>
	<circle fill="#FFFFFF" cx="99.836" cy="86.975" r="1.375"/>
	<circle fill="#FFFFFF" cx="99.836" cy="81.994" r="1.375"/>
	<circle fill="#FFFFFF" cx="104.832" cy="86.975" r="1.375"/>
	<circle fill="#FFFFFF" cx="94.959" cy="86.975" r="1.375"/>
	<circle fill="#FFFFFF" cx="85.041" cy="81.994" r="1.375"/>
	<circle fill="#FFFFFF" cx="85.041" cy="86.975" r="1.375"/>
	<circle fill="#FFFFFF" cx="89.919" cy="86.975" r="1.375"/>
	<circle fill="#FFFFFF" cx="89.919" cy="81.994" r="1.375"/>
	<circle fill="#FFFFFF" cx="119.627" cy="81.994" r="1.375"/>
	<circle fill="#FFFFFF" cx="114.75" cy="81.994" r="1.375"/>
	<circle fill="#FFFFFF" cx="124.484" cy="81.994" r="1.375"/>
	<circle fill="#FFFFFF" cx="119.627" cy="86.975" r="1.375"/>
	<circle fill="#FFFFFF" cx="124.484" cy="86.975" r="1.375"/>
	<circle fill="#FFFFFF" cx="104.832" cy="81.994" r="1.375"/>
	<circle fill="#FFFFFF" cx="114.75" cy="86.975" r="1.375"/>
	<circle fill="#FFFFFF" cx="109.711" cy="86.975" r="1.375"/>
	<circle fill="#FFFFFF" cx="109.711" cy="81.994" r="1.375"/>
	<circle fill="#FFFFFF" cx="94.959" cy="115.377" r="1.375"/>
	<circle fill="#FFFFFF" cx="114.75" cy="115.377" r="1.375"/>
	<circle fill="#FFFFFF" cx="114.75" cy="120.357" r="1.375"/>
	<circle fill="#FFFFFF" cx="119.627" cy="120.357" r="1.375"/>
	<circle fill="#FFFFFF" cx="109.711" cy="115.377" r="1.375"/>
	<circle fill="#FFFFFF" cx="119.627" cy="115.377" r="1.375"/>
	<circle fill="#FFFFFF" cx="104.832" cy="120.357" r="1.375"/>
	<circle fill="#FFFFFF" cx="109.711" cy="120.357" r="1.375"/>
	<circle fill="#FFFFFF" cx="85.041" cy="120.357" r="1.375"/>
	<circle fill="#FFFFFF" cx="104.832" cy="115.377" r="1.375"/>
	<circle fill="#FFFFFF" cx="85.041" cy="115.377" r="1.375"/>
	<circle fill="#FFFFFF" cx="89.919" cy="132.012" r="1.375"/>
	<circle fill="#FFFFFF" cx="89.919" cy="136.992" r="1.375"/>
	<circle fill="#FFFFFF" cx="124.484" cy="120.357" r="1.375"/>
	<circle fill="#FFFFFF" cx="109.711" cy="136.992" r="1.375"/>
	<circle fill="#FFFFFF" cx="124.484" cy="115.377" r="1.375"/>
	<circle fill="#FFFFFF" cx="85.041" cy="132.012" r="1.375"/>
	<circle fill="#FFFFFF" cx="85.041" cy="136.992" r="1.375"/>
	<circle fill="#FFFFFF" cx="99.836" cy="120.357" r="1.375"/>
	<circle fill="#FFFFFF" cx="124.484" cy="98.687" r="1.375"/>
	<circle fill="#FFFFFF" cx="94.959" cy="132.012" r="1.375"/>
	<circle fill="#FFFFFF" cx="94.959" cy="136.992" r="1.375"/>
	<circle fill="#FFFFFF" cx="89.919" cy="115.377" r="1.375"/>
	<circle fill="#FFFFFF" cx="89.919" cy="120.357" r="1.375"/>
	<circle fill="#FFFFFF" cx="104.832" cy="132.012" r="1.375"/>
	<circle fill="#FFFFFF" cx="104.832" cy="136.992" r="1.375"/>
	<circle fill="#FFFFFF" cx="99.836" cy="136.992" r="1.375"/>
	<circle fill="#FFFFFF" cx="99.836" cy="132.012" r="1.375"/>
	<circle fill="#FFFFFF" cx="114.75" cy="98.687" r="1.375"/>
	<circle fill="#FFFFFF" cx="99.836" cy="115.377" r="1.375"/>
	<circle fill="#FFFFFF" cx="124.484" cy="103.667" r="1.375"/>
	<circle fill="#FFFFFF" cx="119.627" cy="103.667" r="1.375"/>
	<circle fill="#FFFFFF" cx="114.75" cy="103.667" r="1.375"/>
	<circle fill="#FFFFFF" cx="94.959" cy="120.357" r="1.375"/>
	<circle fill="#FFFFFF" cx="119.627" cy="98.687" r="1.375"/>
	<circle fill="#FFFFFF" cx="42.252" cy="81.994" r="1.375"/>
	<circle fill="#FFFFFF" cx="42.252" cy="98.687" r="1.375"/>
	<circle fill="#FFFFFF" cx="42.252" cy="103.667" r="1.375"/>
	<circle fill="#FFFFFF" cx="37.375" cy="98.687" r="1.375"/>
	<circle fill="#FFFFFF" cx="47.248" cy="103.667" r="1.375"/>
	<circle fill="#FFFFFF" cx="37.375" cy="103.667" r="1.375"/>
	<circle fill="#FFFFFF" cx="27.457" cy="98.687" r="1.375"/>
	<circle fill="#FFFFFF" cx="32.335" cy="103.667" r="1.375"/>
	<circle fill="#FFFFFF" cx="32.335" cy="98.687" r="1.375"/>
	<circle fill="#FFFFFF" cx="47.248" cy="98.687" r="1.375"/>
	<circle fill="#FFFFFF" cx="57.166" cy="98.687" r="1.375"/>
	<circle fill="#FFFFFF" cx="66.9" cy="103.667" r="1.375"/>
	<circle fill="#FFFFFF" cx="62.043" cy="103.667" r="1.375"/>
	<circle fill="#FFFFFF" cx="62.043" cy="98.687" r="1.375"/>
	<circle fill="#FFFFFF" cx="66.9" cy="98.687" r="1.375"/>
	<circle fill="#FFFFFF" cx="52.127" cy="98.687" r="1.375"/>
	<circle fill="#FFFFFF" cx="52.127" cy="103.667" r="1.375"/>
	<circle fill="#FFFFFF" cx="57.166" cy="103.667" r="1.375"/>
	<circle fill="#FFFFFF" cx="27.457" cy="103.667" r="1.375"/>
	<circle fill="#FFFFFF" cx="52.127" cy="81.994" r="1.375"/>
	<circle fill="#FFFFFF" cx="37.375" cy="86.975" r="1.375"/>
	<circle fill="#FFFFFF" cx="37.375" cy="81.994" r="1.375"/>
	<circle fill="#FFFFFF" cx="32.335" cy="81.994" r="1.375"/>
	<circle fill="#FFFFFF" cx="47.248" cy="86.975" r="1.375"/>
	<circle fill="#FFFFFF" cx="42.252" cy="86.975" r="1.375"/>
	<circle fill="#FFFFFF" cx="27.457" cy="86.975" r="1.375"/>
	<circle fill="#FFFFFF" cx="27.457" cy="81.994" r="1.375"/>
	<circle fill="#FFFFFF" cx="32.335" cy="86.975" r="1.375"/>
	<circle fill="#FFFFFF" cx="62.043" cy="81.994" r="1.375"/>
	<circle fill="#FFFFFF" cx="57.166" cy="81.994" r="1.375"/>
	<circle fill="#FFFFFF" cx="62.043" cy="86.975" r="1.375"/>
	<circle fill="#FFFFFF" cx="47.248" cy="81.994" r="1.375"/>
	<circle fill="#FFFFFF" cx="66.9" cy="86.975" r="1.375"/>
	<circle fill="#FFFFFF" cx="66.9" cy="81.994" r="1.375"/>
	<circle fill="#FFFFFF" cx="66.9" cy="132.012" r="1.375"/>
	<circle fill="#FFFFFF" cx="27.457" cy="120.357" r="1.375"/>
	<circle fill="#FFFFFF" cx="57.166" cy="86.975" r="1.375"/>
	<circle fill="#FFFFFF" cx="52.127" cy="86.975" r="1.375"/>
	<circle fill="#FFFFFF" cx="37.375" cy="136.992" r="1.375"/>
	<circle fill="#FFFFFF" cx="42.252" cy="136.992" r="1.375"/>
	<circle fill="#FFFFFF" cx="37.375" cy="132.012" r="1.375"/>
	<circle fill="#FFFFFF" cx="42.252" cy="132.012" r="1.375"/>
	<circle fill="#FFFFFF" cx="47.248" cy="136.992" r="1.375"/>
	<circle fill="#FFFFFF" cx="27.457" cy="132.012" r="1.375"/>
	<circle fill="#FFFFFF" cx="32.335" cy="136.992" r="1.375"/>
	<circle fill="#FFFFFF" cx="32.335" cy="132.012" r="1.375"/>
	<circle fill="#FFFFFF" cx="57.166" cy="132.012" r="1.375"/>
	<circle fill="#FFFFFF" cx="62.043" cy="132.012" r="1.375"/>
	<circle fill="#FFFFFF" cx="62.043" cy="136.992" r="1.375"/>
	<circle fill="#FFFFFF" cx="66.9" cy="136.992" r="1.375"/>
	<circle fill="#FFFFFF" cx="27.457" cy="136.992" r="1.375"/>
	<circle fill="#FFFFFF" cx="57.166" cy="136.992" r="1.375"/>
	<circle fill="#FFFFFF" cx="52.127" cy="136.992" r="1.375"/>
	<circle fill="#FFFFFF" cx="52.127" cy="132.012" r="1.375"/>
	<circle fill="#FFFFFF" cx="47.248" cy="132.012" r="1.375"/>
	<circle fill="#FFFFFF" cx="62.043" cy="120.357" r="1.375"/>
	<circle fill="#FFFFFF" cx="42.252" cy="120.357" r="1.375"/>
	<circle fill="#FFFFFF" cx="42.252" cy="115.377" r="1.375"/>
	<circle fill="#FFFFFF" cx="66.9" cy="115.377" r="1.375"/>
	<circle fill="#FFFFFF" cx="37.375" cy="115.377" r="1.375"/>
	<circle fill="#FFFFFF" cx="47.248" cy="115.377" r="1.375"/>
	<circle fill="#FFFFFF" cx="32.335" cy="120.357" r="1.375"/>
	<circle fill="#FFFFFF" cx="32.335" cy="115.377" r="1.375"/>
	<circle fill="#FFFFFF" cx="37.375" cy="120.357" r="1.375"/>
	<circle fill="#FFFFFF" cx="47.248" cy="120.357" r="1.375"/>
	<circle fill="#FFFFFF" cx="57.166" cy="115.377" r="1.375"/>
	<circle fill="#FFFFFF" cx="27.457" cy="115.377" r="1.375"/>
	<circle fill="#FFFFFF" cx="62.043" cy="115.377" r="1.375"/>
	<circle fill="#FFFFFF" cx="66.9" cy="120.357" r="1.375"/>
	<circle fill="#FFFFFF" cx="52.127" cy="120.357" r="1.375"/>
	<circle fill="#FFFFFF" cx="57.166" cy="120.357" r="1.375"/>
	<circle fill="#FFFFFF" cx="52.127" cy="115.377" r="1.375"/>
	<circle fill="#FFFFFF" cx="172.417" cy="86.975" r="1.375"/>
	<circle fill="#FFFFFF" cx="162.499" cy="81.994" r="1.375"/>
	<circle fill="#FFFFFF" cx="162.499" cy="86.975" r="1.375"/>
	<circle fill="#FFFFFF" cx="157.503" cy="81.994" r="1.375"/>
	<circle fill="#FFFFFF" cx="167.377" cy="81.994" r="1.375"/>
	<circle fill="#FFFFFF" cx="167.377" cy="86.975" r="1.375"/>
	<path fill="#FFFFFF" d="M195.127,76.076c0.119-0.452-0.072-0.938-0.508-1.15l-26.195-4.5c-0.136-0.068-1.286-0.103-1.438-0.103
		h-39.668h-1.469H90.946h-1.379H49.099c-0.135,0-1.267,0.027-1.392,0.079l-26.699,4.5c-0.463,0.198-0.683,0.703-0.556,1.177
		c-0.022,0.085-0.052,0.167-0.052,0.259v16.56v16.559c0,0.023,0.012,0.043,0.014,0.065c-0.002,0.023-0.014,0.043-0.014,0.066v16.56
		v16.559c0,0.552,0.447,1,1,1h57.527c0.01,0,0.019-0.006,0.028-0.006c0.01,0,0.019,0.006,0.028,0.006h57.528
		c0.024,0,0.045-0.013,0.069-0.014c0.024,0.001,0.045,0.014,0.069,0.014h57.528c0.553,0,1-0.448,1-1v-16.559v-16.56
		c0-0.023-0.012-0.043-0.014-0.066c0.002-0.022,0.014-0.042,0.014-0.065V92.898v-16.56C195.18,76.245,195.15,76.161,195.127,76.076z
		 M167.754,72.323l17.966,3.015h-48.157l-6.018-3.015H167.754z M89.188,72.323h38.405l5.653,3.015H82.682L89.188,72.323z
		 M48.303,72.323h36.752l-6.803,3.015H30.386L48.303,72.323z M77.928,135.917h-5.009c-0.821,0-1.491-0.669-1.491-1.49
		c0-0.821,0.67-1.49,1.491-1.49h5.009V135.917z M77.928,131.936h-5.009c-1.374,0-2.491,1.117-2.491,2.49
		c0,1.373,1.117,2.49,2.491,2.49h5.009v4.789H22.4v-14.559h55.527V131.936z M77.928,119.725h-5.009c-0.821,0-1.491-0.668-1.491-1.49
		c0-0.822,0.67-1.49,1.491-1.49h5.009V119.725z M77.928,115.744h-5.009c-1.374,0-2.491,1.117-2.491,2.49
		c0,1.373,1.117,2.49,2.491,2.49h5.009v4.423H22.4v-14.56h55.527V115.744z M77.928,102.667h-5.009c-0.821,0-1.491-0.669-1.491-1.49
		c0-0.821,0.67-1.49,1.491-1.49h5.009V102.667z M77.928,98.687h-5.009c-1.374,0-2.491,1.117-2.491,2.49
		c0,1.373,1.117,2.49,2.491,2.49h5.009v4.789H22.4V93.898h55.527V98.687z M77.928,86.475h-5.009c-0.821,0-1.491-0.668-1.491-1.49
		c0-0.822,0.67-1.49,1.491-1.49h5.009V86.475z M77.928,82.494h-5.009c-1.374,0-2.491,1.117-2.491,2.49
		c0,1.373,1.117,2.49,2.491,2.49h5.009v4.423H22.4v-14.56h55.527V82.494z M135.513,135.917h-5.01c-0.821,0-1.49-0.669-1.49-1.49
		c0-0.821,0.669-1.49,1.49-1.49h5.01V135.917z M135.513,131.936h-5.01c-1.374,0-2.49,1.117-2.49,2.49c0,1.373,1.116,2.49,2.49,2.49
		h5.01v4.789H79.984v-14.559h55.528V131.936z M135.513,119.725h-5.01c-0.821,0-1.49-0.668-1.49-1.49c0-0.822,0.669-1.49,1.49-1.49
		h5.01V119.725z M135.513,115.744h-5.01c-1.374,0-2.49,1.117-2.49,2.49c0,1.373,1.116,2.49,2.49,2.49h5.01v4.423H79.984v-14.56
		h55.528V115.744z M135.513,102.667h-5.01c-0.821,0-1.49-0.669-1.49-1.49c0-0.821,0.669-1.49,1.49-1.49h5.01V102.667z
		 M135.513,98.687h-5.01c-1.374,0-2.49,1.117-2.49,2.49c0,1.373,1.116,2.49,2.49,2.49h5.01v4.789H79.984V93.898h55.528V98.687z
		 M135.513,86.475h-5.01c-0.821,0-1.49-0.668-1.49-1.49c0-0.822,0.669-1.49,1.49-1.49h5.01V86.475z M135.513,82.494h-5.01
		c-1.374,0-2.49,1.117-2.49,2.49c0,1.373,1.116,2.49,2.49,2.49h5.01v4.423H79.984v-14.56h55.528V82.494z M193.18,135.917h-5.01
		c-0.821,0-1.49-0.669-1.49-1.49c0-0.821,0.669-1.49,1.49-1.49h5.01V135.917z M193.18,131.936h-5.01c-1.373,0-2.49,1.117-2.49,2.49
		c0,1.373,1.117,2.49,2.49,2.49h5.01v4.789h-55.528v-14.559h55.528V131.936z M193.18,119.725h-5.01c-0.821,0-1.49-0.668-1.49-1.49
		c0-0.822,0.669-1.49,1.49-1.49h5.01V119.725z M193.18,115.744h-5.01c-1.373,0-2.49,1.117-2.49,2.49c0,1.373,1.117,2.49,2.49,2.49
		h5.01v4.423h-55.528v-14.56h55.528V115.744z M193.18,102.667h-5.01c-0.821,0-1.49-0.669-1.49-1.49c0-0.821,0.669-1.49,1.49-1.49
		h5.01V102.667z M193.18,98.687h-5.01c-1.373,0-2.49,1.117-2.49,2.49c0,1.373,1.117,2.49,2.49,2.49h5.01v4.789h-55.528V93.898
		h55.528V98.687z M193.18,86.475h-5.01c-0.821,0-1.49-0.668-1.49-1.49c0-0.822,0.669-1.49,1.49-1.49h5.01V86.475z M193.18,82.494
		h-5.01c-1.373,0-2.49,1.117-2.49,2.49c0,1.373,1.117,2.49,2.49,2.49h5.01v4.423h-55.528v-14.56h55.528V82.494z"/>
	<circle fill="#FFFFFF" cx="157.503" cy="86.975" r="1.375"/>
	<circle fill="#FFFFFF" cx="177.295" cy="86.975" r="1.375"/>
	<circle fill="#FFFFFF" cx="177.295" cy="81.994" r="1.375"/>
	<circle fill="#FFFFFF" cx="142.707" cy="86.975" r="1.375"/>
	<circle fill="#FFFFFF" cx="152.626" cy="86.975" r="1.375"/>
	<circle fill="#FFFFFF" cx="147.586" cy="81.994" r="1.375"/>
	<circle fill="#FFFFFF" cx="142.707" cy="81.994" r="1.375"/>
	<circle fill="#FFFFFF" cx="147.586" cy="86.975" r="1.375"/>
	<circle fill="#FFFFFF" cx="152.626" cy="81.994" r="1.375"/>
	<circle fill="#FFFFFF" cx="147.586" cy="132.012" r="1.375"/>
	<circle fill="#FFFFFF" cx="147.586" cy="136.992" r="1.375"/>
	<circle fill="#FFFFFF" cx="142.707" cy="132.012" r="1.375"/>
	<circle fill="#FFFFFF" cx="157.503" cy="136.992" r="1.375"/>
	<circle fill="#FFFFFF" cx="142.707" cy="136.992" r="1.375"/>
	<circle fill="#FFFFFF" cx="152.626" cy="132.012" r="1.375"/>
	<circle fill="#FFFFFF" cx="152.626" cy="136.992" r="1.375"/>
	<circle fill="#FFFFFF" cx="147.586" cy="98.687" r="1.375"/>
	<circle fill="#FFFFFF" cx="177.295" cy="120.357" r="1.375"/>
	<circle fill="#FFFFFF" cx="177.295" cy="115.377" r="1.375"/>
	<circle fill="#FFFFFF" cx="172.417" cy="115.377" r="1.375"/>
	<circle fill="#FFFFFF" cx="182.151" cy="115.377" r="1.375"/>
	<circle fill="#FFFFFF" cx="142.707" cy="103.667" r="1.375"/>
	<circle fill="#FFFFFF" cx="182.151" cy="120.357" r="1.375"/>
	<circle fill="#FFFFFF" cx="177.295" cy="132.012" r="1.375"/>
	<circle fill="#FFFFFF" cx="182.151" cy="132.012" r="1.375"/>
	<circle fill="#FFFFFF" cx="182.151" cy="136.992" r="1.375"/>
	<circle fill="#FFFFFF" cx="177.295" cy="136.992" r="1.375"/>
	<circle fill="#FFFFFF" cx="172.417" cy="120.357" r="1.375"/>
	<circle fill="#FFFFFF" cx="172.417" cy="81.994" r="1.375"/>
	<circle fill="#FFFFFF" cx="182.151" cy="81.994" r="1.375"/>
	<circle fill="#FFFFFF" cx="182.151" cy="86.975" r="1.375"/>
	<circle fill="#FFFFFF" cx="167.377" cy="136.992" r="1.375"/>
	<circle fill="#FFFFFF" cx="157.503" cy="132.012" r="1.375"/>
	<circle fill="#FFFFFF" cx="162.499" cy="132.012" r="1.375"/>
	<circle fill="#FFFFFF" cx="162.499" cy="136.992" r="1.375"/>
	<circle fill="#FFFFFF" cx="167.377" cy="132.012" r="1.375"/>
	<circle fill="#FFFFFF" cx="172.417" cy="136.992" r="1.375"/>
	<circle fill="#FFFFFF" cx="172.417" cy="132.012" r="1.375"/>
	<circle fill="#FFFFFF" cx="152.626" cy="103.667" r="1.375"/>
	<circle fill="#FFFFFF" cx="172.417" cy="98.687" r="1.375"/>
	<circle fill="#FFFFFF" cx="172.417" cy="103.667" r="1.375"/>
	<circle fill="#FFFFFF" cx="177.295" cy="103.667" r="1.375"/>
	<circle fill="#FFFFFF" cx="182.151" cy="103.667" r="1.375"/>
	<circle fill="#FFFFFF" cx="182.151" cy="98.687" r="1.375"/>
	<circle fill="#FFFFFF" cx="177.295" cy="98.687" r="1.375"/>
	<circle fill="#FFFFFF" cx="167.377" cy="98.687" r="1.375"/>
	<circle fill="#FFFFFF" cx="157.503" cy="103.667" r="1.375"/>
	<circle fill="#FFFFFF" cx="157.503" cy="98.687" r="1.375"/>
	<circle fill="#FFFFFF" cx="167.377" cy="115.377" r="1.375"/>
	<circle fill="#FFFFFF" cx="167.377" cy="103.667" r="1.375"/>
	<circle fill="#FFFFFF" cx="152.626" cy="98.687" r="1.375"/>
	<circle fill="#FFFFFF" cx="162.499" cy="103.667" r="1.375"/>
	<circle fill="#FFFFFF" cx="162.499" cy="98.687" r="1.375"/>
	<circle fill="#FFFFFF" cx="147.586" cy="103.667" r="1.375"/>
	<circle fill="#FFFFFF" cx="152.626" cy="115.377" r="1.375"/>
	<circle fill="#FFFFFF" cx="162.499" cy="120.357" r="1.375"/>
	<circle fill="#FFFFFF" cx="157.503" cy="120.357" r="1.375"/>
	<circle fill="#FFFFFF" cx="157.503" cy="115.377" r="1.375"/>
	<circle fill="#FFFFFF" cx="162.499" cy="115.377" r="1.375"/>
	<circle fill="#FFFFFF" cx="167.377" cy="120.357" r="1.375"/>
	<circle fill="#FFFFFF" cx="142.707" cy="98.687" r="1.375"/>
	<circle fill="#FFFFFF" cx="142.707" cy="115.377" r="1.375"/>
	<circle fill="#FFFFFF" cx="147.586" cy="120.357" r="1.375"/>
	<circle fill="#FFFFFF" cx="142.707" cy="120.357" r="1.375"/>
	<circle fill="#FFFFFF" cx="147.586" cy="115.377" r="1.375"/>
	<circle fill="#FFFFFF" cx="152.626" cy="120.357" r="1.375"/>
</g>
</svg>
