<svg data-name="Layer 1" xmlns="http://www.w3.org/2000/svg" viewBox="0 0 50.59 50.59"><title>Icon_RH_Hardware_NetworkRouter_RGB_Black</title><path d="M28.08 23.3a.75.75 0 0 0 .53-.22l8.38-8.38 1.43 1.43 1.43-5.35-5.35 1.41 1.43 1.43L27.55 22a.75.75 0 0 0 .53 1.3zm3.21 7l1.43-1.43-5.35-1.43 1.43 5.35 1.43-1.49 8.38 8.38a.75.75 0 0 0 1.06-1.06zM19.3 20.37l-1.42 1.43 5.35 1.43-1.43-5.35-1.43 1.42-8.38-8.38a.75.75 0 0 0-1.06 1.06zM49.6 0H1a1 1 0 0 0-1 1v48.6a1 1 0 0 0 1 1h48.6a1 1 0 0 0 1-1V1a1 1 0 0 0-1-1zm-1 48.59H2V2h46.6zm-26.6-21l-8.38 8.38-1.43-1.47-1.43 5.35 5.35-1.43-1.43-1.43 8.38-8.38A.75.75 0 0 0 22 27.55z"/></svg>