<?xml version="1.0" encoding="utf-8"?>
<!-- Generator: Adobe Illustrator 17.1.0, SVG Export Plug-In . SVG Version: 6.00 Build 0)  -->
<!DOCTYPE svg PUBLIC "-//W3C//DTD SVG 1.1//EN" "http://www.w3.org/Graphics/SVG/1.1/DTD/svg11.dtd">
<svg version="1.1" id="Layer_1" xmlns="http://www.w3.org/2000/svg" xmlns:xlink="http://www.w3.org/1999/xlink" x="0px" y="0px"
	 viewBox="0 0 216 216" enable-background="new 0 0 216 216" xml:space="preserve">
<g>
	<path d="M78.844,75.888c-0.464,0.198-0.684,0.703-0.557,1.176c-0.023,0.085-0.052,0.167-0.052,0.259v16.559v16.559
		c0,0.023,0.011,0.043,0.014,0.066c-0.003,0.023-0.014,0.041-0.014,0.064v16.56v16.561c0,0.551,0.446,0.998,1,0.998h57.528
		c0.554,0,1.001-0.447,1.001-0.998v-16.561v-16.56c0-0.023-0.013-0.041-0.015-0.064c0.002-0.023,0.015-0.043,0.015-0.066V93.882
		V77.323c0-0.094-0.03-0.177-0.054-0.262c0.12-0.452-0.071-0.937-0.508-1.151l-9.195-4.5c-0.137-0.066-0.287-0.102-0.438-0.102
		H89.818c-0.135,0-0.268,0.027-0.392,0.079L78.844,75.888z M135.765,142.693h-55.53v-14.561h55.53V142.693z M135.765,126.135h-55.53
		v-14.562h55.53V126.135z M135.765,109.441h-55.53V94.882h55.53V109.441z M135.765,84.479v2.981v5.424h-55.53V78.323h55.53V84.479z
		 M90.021,73.308h37.317l6.16,3.014H82.932L90.021,73.308z"/>
	<circle cx="85.291" cy="85.36" r="1.375"/>
	<circle cx="90.17" cy="85.36" r="1.375"/>
	<circle cx="85.291" cy="102.36" r="1.375"/>
	<circle cx="90.17" cy="102.36" r="1.375"/>
	<circle cx="85.291" cy="118.36" r="1.374"/>
	<circle cx="90.17" cy="118.36" r="1.374"/>
	<circle cx="85.291" cy="135.361" r="1.375"/>
	<circle cx="90.17" cy="135.361" r="1.375"/>
	<path d="M129.501,90h2.998c0.276,0,0.501-0.224,0.501-0.5v-8c0-0.276-0.225-0.5-0.501-0.5h-2.998c-0.276,0-0.501,0.224-0.501,0.5v8
		C129,89.776,129.225,90,129.501,90z M130,82h2v7h-2V82z"/>
	<path d="M123.5,90h3c0.276,0,0.5-0.224,0.5-0.5v-8c0-0.276-0.224-0.5-0.5-0.5h-3c-0.276,0-0.5,0.224-0.5,0.5v8
		C123,89.776,123.224,90,123.5,90z M124,82h2v7h-2V82z"/>
	<path d="M129.501,107h2.998c0.276,0,0.501-0.224,0.501-0.5v-8c0-0.276-0.225-0.5-0.501-0.5h-2.998c-0.276,0-0.501,0.224-0.501,0.5
		v8C129,106.776,129.225,107,129.501,107z M130,99h2v7h-2V99z"/>
	<path d="M123.5,107h3c0.276,0,0.5-0.224,0.5-0.5v-8c0-0.276-0.224-0.5-0.5-0.5h-3c-0.276,0-0.5,0.224-0.5,0.5v8
		C123,106.776,123.224,107,123.5,107z M124,99h2v7h-2V99z"/>
	<path d="M129.501,123h2.998c0.276,0,0.501-0.412,0.501-0.689v-8c0-0.275-0.225-0.311-0.501-0.311h-2.998
		c-0.276,0-0.501,0.035-0.501,0.311v8C129,122.588,129.225,123,129.501,123z M130,115h2v7h-2V115z"/>
	<path d="M123.5,123h3c0.276,0,0.5-0.412,0.5-0.689v-8c0-0.275-0.224-0.311-0.5-0.311h-3c-0.276,0-0.5,0.035-0.5,0.311v8
		C123,122.588,123.224,123,123.5,123z M124,115h2v7h-2V115z"/>
	<path d="M129.501,140h2.998c0.276,0,0.501-0.412,0.501-0.689v-8c0-0.275-0.225-0.311-0.501-0.311h-2.998
		c-0.276,0-0.501,0.035-0.501,0.311v8C129,139.588,129.225,140,129.501,140z M130,132h2v7h-2V132z"/>
	<path d="M123.5,140h3c0.276,0,0.5-0.412,0.5-0.689v-8c0-0.275-0.224-0.311-0.5-0.311h-3c-0.276,0-0.5,0.035-0.5,0.311v8
		C123,139.588,123.224,140,123.5,140z M124,132h2v7h-2V132z"/>
	<path d="M74.851,73.764c-0.436,0.635-0.735,1.372-0.867,2.131c-0.071,0.408,0.202,0.796,0.61,0.867
		c0.043,0.008,0.086,0.011,0.129,0.011c0.358,0,0.674-0.257,0.738-0.622c0.096-0.548,0.312-1.081,0.627-1.54
		c0.234-0.342,0.147-0.809-0.194-1.043C75.552,73.337,75.085,73.422,74.851,73.764z"/>
	<path d="M129.213,147.541h-1.997c-0.414,0-0.75,0.336-0.75,0.75c0,0.414,0.336,0.75,0.75,0.75h1.997c0.414,0,0.75-0.336,0.75-0.75
		C129.963,147.877,129.627,147.541,129.213,147.541z"/>
	<path d="M124.22,147.541h-1.997c-0.414,0-0.75,0.336-0.75,0.75c0,0.414,0.336,0.75,0.75,0.75h1.997c0.414,0,0.75-0.336,0.75-0.75
		C124.97,147.877,124.634,147.541,124.22,147.541z"/>
	<path d="M114.233,147.541h-1.997c-0.414,0-0.75,0.336-0.75,0.75c0,0.414,0.336,0.75,0.75,0.75h1.997c0.414,0,0.75-0.336,0.75-0.75
		C114.983,147.877,114.647,147.541,114.233,147.541z"/>
	<path d="M119.227,147.541h-1.997c-0.414,0-0.75,0.336-0.75,0.75c0,0.414,0.336,0.75,0.75,0.75h1.997c0.414,0,0.75-0.336,0.75-0.75
		C119.977,147.877,119.641,147.541,119.227,147.541z"/>
	<path d="M138.708,147.013c-0.486,0.285-1.017,0.456-1.577,0.511c-0.413,0.039-0.715,0.405-0.675,0.817
		c0.037,0.389,0.363,0.679,0.745,0.679c0.024,0,0.048-0.001,0.072-0.004c0.78-0.074,1.518-0.312,2.192-0.708
		c0.357-0.21,0.478-0.669,0.269-1.026C139.524,146.923,139.064,146.805,138.708,147.013z"/>
	<path d="M134.206,147.541h-1.997c-0.414,0-0.75,0.336-0.75,0.75c0,0.414,0.336,0.75,0.75,0.75h1.997c0.414,0,0.75-0.336,0.75-0.75
		C134.956,147.877,134.62,147.541,134.206,147.541z"/>
	<path d="M109.24,147.541h-1.997c-0.414,0-0.75,0.336-0.75,0.75c0,0.414,0.336,0.75,0.75,0.75h1.997c0.414,0,0.75-0.336,0.75-0.75
		C109.99,147.877,109.654,147.541,109.24,147.541z"/>
	<path d="M94.26,147.541h-1.997c-0.414,0-0.75,0.336-0.75,0.75c0,0.414,0.336,0.75,0.75,0.75h1.997c0.414,0,0.75-0.336,0.75-0.75
		C95.01,147.877,94.674,147.541,94.26,147.541z"/>
	<path d="M89.267,147.541H87.27c-0.414,0-0.75,0.336-0.75,0.75c0,0.414,0.336,0.75,0.75,0.75h1.997c0.414,0,0.75-0.336,0.75-0.75
		C90.017,147.877,89.681,147.541,89.267,147.541z"/>
	<path d="M84.274,147.541h-1.998c-0.414,0-0.75,0.336-0.75,0.75c0,0.414,0.336,0.75,0.75,0.75h1.998c0.414,0,0.75-0.336,0.75-0.75
		C85.024,147.877,84.688,147.541,84.274,147.541z"/>
	<path d="M99.253,147.541h-1.997c-0.414,0-0.75,0.336-0.75,0.75c0,0.414,0.336,0.75,0.75,0.75h1.997c0.414,0,0.75-0.336,0.75-0.75
		C100.003,147.877,99.668,147.541,99.253,147.541z"/>
	<path d="M104.247,147.541h-1.997c-0.414,0-0.75,0.336-0.75,0.75c0,0.414,0.336,0.75,0.75,0.75h1.997c0.414,0,0.75-0.336,0.75-0.75
		C104.997,147.877,104.661,147.541,104.247,147.541z"/>
	<path d="M141.364,142.74c-0.414,0-0.75,0.336-0.75,0.75v0.203c0,0.505-0.097,0.997-0.288,1.463
		c-0.158,0.383,0.025,0.821,0.408,0.979c0.093,0.039,0.189,0.057,0.285,0.057c0.295,0,0.574-0.175,0.693-0.465
		c0.267-0.647,0.401-1.331,0.401-2.033v-0.203C142.114,143.076,141.778,142.74,141.364,142.74z"/>
	<path d="M141.364,137.747c-0.414,0-0.75,0.336-0.75,0.75v1.997c0,0.414,0.336,0.75,0.75,0.75c0.414,0,0.75-0.336,0.75-0.75v-1.997
		C142.114,138.083,141.778,137.747,141.364,137.747z"/>
	<path d="M141.364,87.815c-0.414,0-0.75,0.336-0.75,0.75v1.997c0,0.414,0.336,0.75,0.75,0.75c0.414,0,0.75-0.336,0.75-0.75v-1.997
		C142.114,88.15,141.778,87.815,141.364,87.815z"/>
	<path d="M141.364,92.808c-0.414,0-0.75,0.336-0.75,0.75v1.997c0,0.414,0.336,0.75,0.75,0.75c0.414,0,0.75-0.336,0.75-0.75v-1.997
		C142.114,93.144,141.778,92.808,141.364,92.808z"/>
	<path d="M141.364,97.801c-0.414,0-0.75,0.336-0.75,0.75v1.997c0,0.414,0.336,0.75,0.75,0.75c0.414,0,0.75-0.336,0.75-0.75v-1.997
		C142.114,98.137,141.778,97.801,141.364,97.801z"/>
	<path d="M79.235,147.541c-0.565,0-1.109-0.12-1.618-0.356c-0.376-0.176-0.821-0.013-0.997,0.363
		c-0.174,0.376-0.012,0.821,0.364,0.996c0.709,0.33,1.466,0.497,2.251,0.497h0.045c0.414,0,0.728-0.336,0.728-0.75
		C80.008,147.877,79.649,147.541,79.235,147.541z"/>
	<path d="M141.364,102.794c-0.414,0-0.75,0.336-0.75,0.75v1.998c0,0.414,0.336,0.75,0.75,0.75c0.414,0,0.75-0.336,0.75-0.75v-1.998
		C142.114,103.13,141.778,102.794,141.364,102.794z"/>
	<path d="M141.364,82.821c-0.414,0-0.75,0.336-0.75,0.75v1.998c0,0.414,0.336,0.75,0.75,0.75c0.414,0,0.75-0.336,0.75-0.75v-1.998
		C142.114,83.157,141.778,82.821,141.364,82.821z"/>
	<path d="M141.364,77.828c-0.414,0-0.75,0.336-0.75,0.75v1.998c0,0.414,0.336,0.75,0.75,0.75c0.414,0,0.75-0.336,0.75-0.75v-1.998
		C142.114,78.164,141.778,77.828,141.364,77.828z"/>
	<path d="M141.364,122.767c-0.414,0-0.75,0.336-0.75,0.75v1.998c0,0.414,0.336,0.75,0.75,0.75c0.414,0,0.75-0.336,0.75-0.75v-1.998
		C142.114,123.103,141.778,122.767,141.364,122.767z"/>
	<path d="M141.364,127.76c-0.414,0-0.75,0.336-0.75,0.75v1.998c0,0.414,0.336,0.75,0.75,0.75c0.414,0,0.75-0.336,0.75-0.75v-1.998
		C142.114,128.096,141.778,127.76,141.364,127.76z"/>
	<path d="M141.364,107.787c-0.414,0-0.75,0.336-0.75,0.75v1.997c0,0.414,0.336,0.75,0.75,0.75c0.414,0,0.75-0.336,0.75-0.75v-1.997
		C142.114,108.123,141.778,107.787,141.364,107.787z"/>
	<path d="M141.364,132.753c-0.414,0-0.75,0.336-0.75,0.75v1.998c0,0.414,0.336,0.75,0.75,0.75c0.414,0,0.75-0.336,0.75-0.75v-1.998
		C142.114,133.089,141.778,132.753,141.364,132.753z"/>
	<path d="M141.364,117.773c-0.414,0-0.75,0.336-0.75,0.75v1.997c0,0.414,0.336,0.75,0.75,0.75c0.414,0,0.75-0.336,0.75-0.75v-1.997
		C142.114,118.109,141.778,117.773,141.364,117.773z"/>
	<path d="M141.364,112.78c-0.414,0-0.75,0.336-0.75,0.75v1.997c0,0.414,0.336,0.75,0.75,0.75c0.414,0,0.75-0.336,0.75-0.75v-1.997
		C142.114,113.116,141.778,112.78,141.364,112.78z"/>
	<path d="M101.853,68.458h1.997c0.414,0,0.75-0.336,0.75-0.75c0-0.414-0.336-0.75-0.75-0.75h-1.997c-0.414,0-0.75,0.336-0.75,0.75
		C101.103,68.122,101.439,68.458,101.853,68.458z"/>
	<path d="M91.866,68.458h1.998c0.414,0,0.75-0.336,0.75-0.75c0-0.414-0.336-0.75-0.75-0.75h-1.998c-0.414,0-0.75,0.336-0.75,0.75
		C91.116,68.122,91.452,68.458,91.866,68.458z"/>
	<path d="M106.846,68.458h1.998c0.414,0,0.75-0.336,0.75-0.75c0-0.414-0.336-0.75-0.75-0.75h-1.998c-0.414,0-0.75,0.336-0.75,0.75
		C106.096,68.122,106.432,68.458,106.846,68.458z"/>
	<path d="M140.463,75.794c0.091,0.334,0.393,0.554,0.724,0.554c0.065,0,0.131-0.008,0.196-0.026c0.4-0.108,0.636-0.521,0.527-0.92
		c-0.202-0.746-0.57-1.452-1.064-2.042c-0.268-0.32-0.739-0.361-1.057-0.094c-0.317,0.266-0.359,0.739-0.094,1.056
		C140.052,74.747,140.316,75.256,140.463,75.794z"/>
	<path d="M96.859,68.458h1.998c0.414,0,0.75-0.336,0.75-0.75c0-0.414-0.336-0.75-0.75-0.75h-1.998c-0.414,0-0.75,0.336-0.75,0.75
		C96.109,68.122,96.445,68.458,96.859,68.458z"/>
	<path d="M87.01,69.253c0.098,0,0.197-0.019,0.293-0.06l1.003-0.427c0.239-0.1,0.482-0.176,0.724-0.227
		c0.405-0.085,0.665-0.482,0.58-0.888c-0.084-0.406-0.485-0.668-0.888-0.58c-0.334,0.07-0.668,0.174-0.999,0.312l-1.008,0.429
		c-0.381,0.162-0.559,0.603-0.396,0.983C86.441,69.082,86.718,69.253,87.01,69.253z"/>
	<path d="M82.415,71.207c0.098,0,0.197-0.019,0.293-0.059l1.838-0.782c0.381-0.162,0.559-0.603,0.397-0.984
		c-0.162-0.381-0.603-0.559-0.984-0.397l-1.838,0.782c-0.381,0.162-0.559,0.603-0.397,0.984
		C81.846,71.036,82.123,71.207,82.415,71.207z"/>
	<path d="M77.82,73.162c0.098,0,0.197-0.019,0.293-0.06l1.838-0.782c0.381-0.162,0.559-0.603,0.396-0.983
		c-0.161-0.381-0.601-0.56-0.983-0.396l-1.838,0.782c-0.381,0.162-0.559,0.603-0.396,0.983
		C77.251,72.991,77.528,73.162,77.82,73.162z"/>
	<path d="M111.839,68.458h1.998c0.414,0,0.75-0.336,0.75-0.75c0-0.414-0.336-0.75-0.75-0.75h-1.998c-0.414,0-0.75,0.336-0.75,0.75
		C111.089,68.122,111.425,68.458,111.839,68.458z"/>
	<path d="M131.191,69.795l1.794,0.878c0.106,0.052,0.219,0.076,0.329,0.076c0.277,0,0.545-0.154,0.675-0.42
		c0.182-0.372,0.028-0.821-0.344-1.003l-1.794-0.878c-0.374-0.181-0.822-0.027-1.004,0.344
		C130.666,69.164,130.819,69.613,131.191,69.795z"/>
	<path d="M135.677,71.99l1.794,0.878c0.106,0.052,0.219,0.076,0.329,0.076c0.277,0,0.545-0.154,0.675-0.42
		c0.182-0.372,0.028-0.821-0.344-1.003l-1.794-0.878c-0.375-0.182-0.822-0.028-1.004,0.344
		C135.151,71.359,135.305,71.808,135.677,71.99z"/>
	<path d="M75.39,143.89c-0.021-0.414-0.363-0.732-0.788-0.711c-0.414,0.021-0.731,0.374-0.71,0.787
		c0.04,0.783,0.246,1.531,0.612,2.222c0.134,0.255,0.395,0.399,0.663,0.399c0.119,0,0.239-0.028,0.351-0.087
		c0.366-0.194,0.505-0.648,0.312-1.014C75.566,144.989,75.419,144.452,75.39,143.89z"/>
	<path d="M116.832,68.458h1.998c0.414,0,0.75-0.336,0.75-0.75c0-0.414-0.336-0.75-0.75-0.75h-1.998c-0.414,0-0.75,0.336-0.75,0.75
		C116.082,68.122,116.418,68.458,116.832,68.458z"/>
	<path d="M121.826,68.458h1.997c0.414,0,0.75-0.336,0.75-0.75c0-0.414-0.336-0.75-0.75-0.75h-1.997c-0.414,0-0.75,0.336-0.75,0.75
		C121.076,68.122,121.412,68.458,121.826,68.458z"/>
	<path d="M126.819,68.458h0.751c0.345,0,0.691,0.047,1.031,0.142c0.066,0.018,0.134,0.027,0.199,0.027
		c0.329,0,0.631-0.218,0.723-0.55c0.11-0.399-0.124-0.812-0.523-0.923c-0.47-0.129-0.95-0.195-1.43-0.195h-0.751
		c-0.414,0-0.75,0.336-0.75,0.75C126.069,68.122,126.405,68.458,126.819,68.458z"/>
	<path d="M74.635,131.695c0.414,0,0.75-0.336,0.75-0.75v-1.997c0-0.414-0.336-0.75-0.75-0.75c-0.414,0-0.75,0.336-0.75,0.75v1.997
		C73.885,131.359,74.221,131.695,74.635,131.695z"/>
	<path d="M74.635,126.702c0.414,0,0.75-0.336,0.75-0.75v-1.997c0-0.414-0.336-0.75-0.75-0.75c-0.414,0-0.75,0.336-0.75,0.75v1.997
		C73.885,126.366,74.221,126.702,74.635,126.702z"/>
	<path d="M74.635,121.709c0.414,0,0.75-0.336,0.75-0.75v-1.997c0-0.414-0.336-0.75-0.75-0.75c-0.414,0-0.75,0.336-0.75,0.75v1.997
		C73.885,121.373,74.221,121.709,74.635,121.709z"/>
	<path d="M74.635,136.689c0.414,0,0.75-0.336,0.75-0.75v-1.997c0-0.414-0.336-0.75-0.75-0.75c-0.414,0-0.75,0.336-0.75,0.75v1.997
		C73.885,136.352,74.221,136.689,74.635,136.689z"/>
	<path d="M74.635,141.682c0.414,0,0.75-0.336,0.75-0.75v-1.997c0-0.414-0.336-0.75-0.75-0.75c-0.414,0-0.75,0.336-0.75,0.75v1.997
		C73.885,141.346,74.221,141.682,74.635,141.682z"/>
	<path d="M74.635,116.716c0.414,0,0.75-0.336,0.75-0.75v-1.998c0-0.414-0.336-0.75-0.75-0.75c-0.414,0-0.75,0.336-0.75,0.75v1.998
		C73.885,116.38,74.221,116.716,74.635,116.716z"/>
	<path d="M74.635,106.729c0.414,0,0.75-0.336,0.75-0.75v-1.997c0-0.414-0.336-0.75-0.75-0.75c-0.414,0-0.75,0.336-0.75,0.75v1.997
		C73.885,106.393,74.221,106.729,74.635,106.729z"/>
	<path d="M74.635,96.743c0.414,0,0.75-0.336,0.75-0.75v-1.998c0-0.414-0.336-0.75-0.75-0.75c-0.414,0-0.75,0.336-0.75,0.75v1.998
		C73.885,96.407,74.221,96.743,74.635,96.743z"/>
	<path d="M74.635,91.75c0.414,0,0.75-0.336,0.75-0.75v-1.998c0-0.414-0.336-0.75-0.75-0.75c-0.414,0-0.75,0.336-0.75,0.75V91
		C73.885,91.414,74.221,91.75,74.635,91.75z"/>
	<path d="M74.635,86.756c0.414,0,0.75-0.336,0.75-0.75v-1.997c0-0.414-0.336-0.75-0.75-0.75c-0.414,0-0.75,0.336-0.75,0.75v1.997
		C73.885,86.42,74.221,86.756,74.635,86.756z"/>
	<path d="M74.635,101.736c0.414,0,0.75-0.336,0.75-0.75v-1.997c0-0.414-0.336-0.75-0.75-0.75c-0.414,0-0.75,0.336-0.75,0.75v1.997
		C73.885,101.4,74.221,101.736,74.635,101.736z"/>
	<path d="M74.635,81.763c0.414,0,0.75-0.336,0.75-0.75v-1.997c0-0.414-0.336-0.75-0.75-0.75c-0.414,0-0.75,0.336-0.75,0.75v1.997
		C73.885,81.427,74.221,81.763,74.635,81.763z"/>
	<path d="M74.635,111.723c0.414,0,0.75-0.336,0.75-0.75v-1.998c0-0.414-0.336-0.75-0.75-0.75c-0.414,0-0.75,0.336-0.75,0.75v1.998
		C73.885,111.387,74.221,111.723,74.635,111.723z"/>
</g>
</svg>
