<?xml version="1.0" encoding="utf-8"?>
<!-- Generator: Adobe Illustrator 17.1.0, SVG Export Plug-In . SVG Version: 6.00 Build 0)  -->
<!DOCTYPE svg PUBLIC "-//W3C//DTD SVG 1.1//EN" "http://www.w3.org/Graphics/SVG/1.1/DTD/svg11.dtd">
<svg version="1.1" id="Layer_1" xmlns="http://www.w3.org/2000/svg" xmlns:xlink="http://www.w3.org/1999/xlink" x="0px" y="0px"
	 viewBox="0 0 216 216" enable-background="new 0 0 216 216" xml:space="preserve">
<g>
	<path d="M78.287,101.845c-0.023,0.085-0.052,0.167-0.052,0.258v0.248v16.559c0,0.551,0.446,1,1,1h57.528
		c0.554,0,1.001-0.449,1.001-1v-16.559v-0.248c0-0.092-0.03-0.176-0.054-0.26c0.12-0.453-0.071-0.938-0.508-1.152l-9.195-4.5
		c-0.137-0.066-0.287-0.101-0.438-0.101H89.818c-0.135,0-0.268,0.025-0.392,0.078l-10.583,4.501
		C78.38,100.867,78.16,101.373,78.287,101.845z M90.021,98.088h37.317l6.16,3.016H82.932L90.021,98.088z M80.234,103.351h55.53
		v14.559h-55.53V103.351z"/>
	<circle cx="85.291" cy="110.578" r="1.375"/>
	<circle cx="90.17" cy="110.578" r="1.375"/>
	<path d="M132.499,106h-2.998c-0.276,0-0.501,0.224-0.501,0.5v8c0,0.276,0.225,0.5,0.501,0.5h2.998c0.276,0,0.501-0.224,0.501-0.5
		v-8C133,106.224,132.775,106,132.499,106z M132,114h-2v-7h2V114z"/>
	<path d="M126.5,106h-3c-0.276,0-0.5,0.224-0.5,0.5v8c0,0.276,0.224,0.5,0.5,0.5h3c0.276,0,0.5-0.224,0.5-0.5v-8
		C127,106.224,126.776,106,126.5,106z M126,114h-2v-7h2V114z"/>
	<path d="M109.362,122.76h-2.005c-0.414,0-0.75,0.336-0.75,0.75c0,0.414,0.336,0.75,0.75,0.75h2.005c0.414,0,0.75-0.336,0.75-0.75
		C110.112,123.096,109.776,122.76,109.362,122.76z"/>
	<path d="M114.376,122.76h-2.005c-0.414,0-0.75,0.336-0.75,0.75c0,0.414,0.336,0.75,0.75,0.75h2.005c0.414,0,0.75-0.336,0.75-0.75
		C115.126,123.096,114.79,122.76,114.376,122.76z"/>
	<path d="M75.717,98.546c-0.354-0.215-0.815-0.103-1.03,0.252c-0.402,0.663-0.661,1.419-0.749,2.186
		c-0.047,0.412,0.248,0.784,0.66,0.831c0.029,0.003,0.058,0.005,0.086,0.005c0.376,0,0.7-0.282,0.744-0.665
		c0.063-0.554,0.251-1.1,0.541-1.579C76.184,99.222,76.071,98.761,75.717,98.546z"/>
	<path d="M94.321,122.76h-2.005c-0.414,0-0.75,0.336-0.75,0.75c0,0.414,0.336,0.75,0.75,0.75h2.005c0.414,0,0.75-0.336,0.75-0.75
		C95.071,123.096,94.735,122.76,94.321,122.76z"/>
	<path d="M84.294,122.76h-2.005c-0.414,0-0.75,0.336-0.75,0.75c0,0.414,0.336,0.75,0.75,0.75h2.005c0.414,0,0.75-0.336,0.75-0.75
		C85.044,123.096,84.707,122.76,84.294,122.76z"/>
	<path d="M79.235,122.76c-0.567,0-1.114-0.121-1.624-0.36c-0.375-0.176-0.821-0.013-0.997,0.361
		c-0.176,0.376-0.014,0.822,0.361,0.998c0.71,0.332,1.471,0.501,2.26,0.501h0.044c0.414,0,0.728-0.336,0.728-0.75
		C80.008,123.096,79.649,122.76,79.235,122.76z"/>
	<path d="M119.39,122.76h-2.005c-0.414,0-0.75,0.336-0.75,0.75c0,0.414,0.336,0.75,0.75,0.75h2.005c0.414,0,0.75-0.336,0.75-0.75
		C120.14,123.096,119.804,122.76,119.39,122.76z"/>
	<path d="M89.308,122.76h-2.006c-0.414,0-0.75,0.336-0.75,0.75c0,0.414,0.336,0.75,0.75,0.75h2.006c0.414,0,0.75-0.336,0.75-0.75
		C90.058,123.096,89.722,122.76,89.308,122.76z"/>
	<path d="M99.335,122.76H97.33c-0.414,0-0.75,0.336-0.75,0.75c0,0.414,0.336,0.75,0.75,0.75h2.005c0.414,0,0.75-0.336,0.75-0.75
		C100.085,123.096,99.749,122.76,99.335,122.76z"/>
	<path d="M141.364,117.691c-0.414,0-0.75,0.336-0.75,0.75v0.469c0,0.432-0.071,0.856-0.212,1.262
		c-0.137,0.391,0.07,0.818,0.462,0.954c0.081,0.028,0.164,0.042,0.246,0.042c0.311,0,0.6-0.194,0.708-0.504
		c0.196-0.563,0.296-1.153,0.296-1.754v-0.469C142.114,118.027,141.778,117.691,141.364,117.691z"/>
	<path d="M124.403,122.76h-2.005c-0.414,0-0.75,0.336-0.75,0.75c0,0.414,0.336,0.75,0.75,0.75h2.005c0.414,0,0.75-0.336,0.75-0.75
		C125.153,123.096,124.817,122.76,124.403,122.76z"/>
	<path d="M141.364,107.664c-0.414,0-0.75,0.336-0.75,0.75v2.006c0,0.414,0.336,0.75,0.75,0.75c0.414,0,0.75-0.336,0.75-0.75v-2.006
		C142.114,108,141.778,107.664,141.364,107.664z"/>
	<path d="M141.364,102.65c-0.414,0-0.75,0.336-0.75,0.75v2.005c0,0.414,0.336,0.75,0.75,0.75c0.414,0,0.75-0.336,0.75-0.75V103.4
		C142.114,102.986,141.778,102.65,141.364,102.65z"/>
	<path d="M141.364,112.678c-0.414,0-0.75,0.336-0.75,0.75v2.006c0,0.414,0.336,0.75,0.75,0.75c0.414,0,0.75-0.336,0.75-0.75v-2.006
		C142.114,113.014,141.778,112.678,141.364,112.678z"/>
	<path d="M129.417,122.76h-2.005c-0.414,0-0.75,0.336-0.75,0.75c0,0.414,0.336,0.75,0.75,0.75h2.005c0.414,0,0.75-0.336,0.75-0.75
		C130.167,123.096,129.831,122.76,129.417,122.76z"/>
	<path d="M134.432,122.76h-2.006c-0.414,0-0.75,0.336-0.75,0.75c0,0.414,0.336,0.75,0.75,0.75h2.006c0.414,0,0.75-0.336,0.75-0.75
		C135.182,123.096,134.846,122.76,134.432,122.76z"/>
	<path d="M138.881,122.123c-0.473,0.312-0.996,0.512-1.556,0.595c-0.409,0.061-0.692,0.442-0.632,0.853
		c0.056,0.372,0.376,0.64,0.741,0.64c0.037,0,0.073-0.003,0.111-0.008c0.777-0.115,1.505-0.394,2.161-0.827
		c0.346-0.229,0.441-0.693,0.213-1.039C139.691,121.991,139.227,121.895,138.881,122.123z"/>
	<path d="M104.349,122.76h-2.005c-0.414,0-0.75,0.336-0.75,0.75c0,0.414,0.336,0.75,0.75,0.75h2.005c0.414,0,0.75-0.336,0.75-0.75
		C105.099,123.096,104.763,122.76,104.349,122.76z"/>
	<path d="M111.736,93.24h2.005c0.414,0,0.75-0.336,0.75-0.75c0-0.414-0.336-0.75-0.75-0.75h-2.005c-0.414,0-0.75,0.336-0.75,0.75
		C110.986,92.904,111.322,93.24,111.736,93.24z"/>
	<path d="M121.764,93.24h2.005c0.414,0,0.75-0.336,0.75-0.75c0-0.414-0.336-0.75-0.75-0.75h-2.005c-0.414,0-0.75,0.336-0.75,0.75
		C121.014,92.904,121.35,93.24,121.764,93.24z"/>
	<path d="M101.708,93.24h2.005c0.414,0,0.75-0.336,0.75-0.75c0-0.414-0.336-0.75-0.75-0.75h-2.005c-0.414,0-0.75,0.336-0.75,0.75
		C100.958,92.904,101.294,93.24,101.708,93.24z"/>
	<path d="M106.722,93.24h2.005c0.414,0,0.75-0.336,0.75-0.75c0-0.414-0.336-0.75-0.75-0.75h-2.005c-0.414,0-0.75,0.336-0.75,0.75
		C105.972,92.904,106.308,93.24,106.722,93.24z"/>
	<path d="M116.75,93.24h2.005c0.414,0,0.75-0.336,0.75-0.75c0-0.414-0.336-0.75-0.75-0.75h-2.005c-0.414,0-0.75,0.336-0.75,0.75
		C116,92.904,116.336,93.24,116.75,93.24z"/>
	<path d="M135.677,96.771l1.801,0.881c0.107,0.052,0.219,0.076,0.329,0.076c0.277,0,0.545-0.154,0.675-0.42
		c0.182-0.372,0.028-0.821-0.344-1.003l-1.801-0.881c-0.375-0.182-0.822-0.027-1.004,0.344
		C135.151,96.14,135.305,96.589,135.677,96.771z"/>
	<path d="M126.777,93.24h0.793c0.337,0,0.674,0.045,1.003,0.134c0.066,0.018,0.131,0.026,0.195,0.026
		c0.331,0,0.634-0.22,0.724-0.555c0.108-0.4-0.128-0.811-0.528-0.919c-0.456-0.123-0.925-0.186-1.394-0.186h-0.793
		c-0.414,0-0.75,0.336-0.75,0.75C126.027,92.904,126.363,93.24,126.777,93.24z"/>
	<path d="M140.467,100.598c0.089,0.336,0.393,0.559,0.725,0.559c0.064,0,0.128-0.008,0.192-0.025c0.4-0.105,0.64-0.516,0.534-0.916
		c-0.198-0.75-0.564-1.461-1.059-2.057c-0.266-0.319-0.738-0.362-1.056-0.098c-0.319,0.265-0.363,0.737-0.099,1.056
		C140.061,99.544,140.324,100.057,140.467,100.598z"/>
	<path d="M131.174,94.567l1.802,0.881c0.105,0.052,0.218,0.076,0.328,0.076c0.278,0,0.545-0.154,0.675-0.42
		c0.182-0.372,0.027-0.821-0.345-1.003l-1.802-0.881c-0.37-0.181-0.821-0.027-1.003,0.344
		C130.647,93.936,130.802,94.385,131.174,94.567z"/>
	<path d="M74.635,111.845c0.414,0,0.75-0.336,0.75-0.75v-2.005c0-0.414-0.336-0.75-0.75-0.75c-0.414,0-0.75,0.336-0.75,0.75v2.005
		C73.885,111.509,74.221,111.845,74.635,111.845z"/>
	<path d="M77.593,98.04c0.098,0,0.197-0.019,0.293-0.06l1.845-0.785c0.381-0.162,0.559-0.603,0.396-0.983
		c-0.162-0.381-0.602-0.561-0.983-0.396L77.299,96.6c-0.381,0.162-0.559,0.603-0.396,0.983C77.024,97.869,77.301,98.04,77.593,98.04
		z"/>
	<path d="M74.635,106.832c0.414,0,0.75-0.336,0.75-0.75v-2.006c0-0.414-0.336-0.75-0.75-0.75c-0.414,0-0.75,0.336-0.75,0.75v2.006
		C73.885,106.496,74.221,106.832,74.635,106.832z"/>
	<path d="M75.389,119.083c-0.018-0.414-0.383-0.761-0.782-0.716c-0.414,0.018-0.734,0.368-0.716,0.782
		c0.035,0.787,0.237,1.539,0.602,2.235c0.134,0.256,0.395,0.402,0.665,0.402c0.117,0,0.236-0.027,0.348-0.086
		c0.367-0.191,0.508-0.645,0.316-1.012C75.56,120.188,75.415,119.648,75.389,119.083z"/>
	<path d="M74.635,116.859c0.414,0,0.75-0.336,0.75-0.75v-2.006c0-0.414-0.336-0.75-0.75-0.75c-0.414,0-0.75,0.336-0.75,0.75v2.006
		C73.885,116.523,74.221,116.859,74.635,116.859z"/>
	<path d="M86.821,94.115c0.098,0,0.197-0.019,0.293-0.06l1.197-0.509c0.182-0.077,0.369-0.14,0.559-0.188
		c0.401-0.102,0.644-0.51,0.542-0.912c-0.102-0.401-0.508-0.644-0.912-0.542c-0.264,0.067-0.523,0.154-0.776,0.262l-1.197,0.509
		c-0.381,0.162-0.559,0.603-0.396,0.983C86.252,93.944,86.529,94.115,86.821,94.115z"/>
	<path d="M91.681,93.24h2.006c0.414,0,0.75-0.336,0.75-0.75c0-0.414-0.336-0.75-0.75-0.75h-2.006c-0.414,0-0.75,0.336-0.75,0.75
		C90.931,92.904,91.267,93.24,91.681,93.24z"/>
	<path d="M96.695,93.24H98.7c0.414,0,0.75-0.336,0.75-0.75c0-0.414-0.336-0.75-0.75-0.75h-2.005c-0.414,0-0.75,0.336-0.75,0.75
		C95.945,92.904,96.281,93.24,96.695,93.24z"/>
	<path d="M82.207,96.077c0.098,0,0.197-0.019,0.293-0.06l1.845-0.785c0.381-0.162,0.559-0.603,0.396-0.983
		c-0.162-0.381-0.602-0.561-0.983-0.396l-1.845,0.785c-0.381,0.162-0.559,0.603-0.396,0.983
		C81.638,95.906,81.915,96.077,82.207,96.077z"/>
</g>
</svg>
