<?xml version="1.0" encoding="utf-8"?>
<!-- Generator: Adobe Illustrator 18.0.0, SVG Export Plug-In . SVG Version: 6.00 Build 0)  -->
<!DOCTYPE svg PUBLIC "-//W3C//DTD SVG 1.0//EN" "http://www.w3.org/TR/2001/REC-SVG-20010904/DTD/svg10.dtd">
<svg version="1.0" xmlns="http://www.w3.org/2000/svg" xmlns:xlink="http://www.w3.org/1999/xlink" x="0px" y="0px"
	 viewBox="0 0 144 144" enable-background="new 0 0 144 144" xml:space="preserve">
<g id="template" display="none">
	<circle display="inline" fill="none" stroke="#FFFFFF" stroke-width="0.25" stroke-miterlimit="10" cx="72" cy="72" r="36"/>
	<g display="inline">
		
			<circle fill="none" stroke="#FFFFFF" stroke-width="0.25" stroke-linecap="round" stroke-miterlimit="10" stroke-dasharray="1.9875,1.9875" cx="72" cy="72" r="40.5"/>
	</g>
	
		<line display="inline" fill="none" stroke="#FFFFFF" stroke-width="0.25" stroke-miterlimit="10" x1="72" y1="18" x2="72" y2="126"/>
	
		<line display="inline" fill="none" stroke="#FFFFFF" stroke-width="0.25" stroke-miterlimit="10" x1="126" y1="72" x2="18" y2="72"/>
	
		<line display="inline" fill="none" stroke="#FFFFFF" stroke-width="0.25" stroke-miterlimit="10" x1="110.2" y1="33.8" x2="33.8" y2="110.2"/>
	
		<line display="inline" fill="none" stroke="#FFFFFF" stroke-width="0.25" stroke-miterlimit="10" x1="110.2" y1="110.2" x2="33.8" y2="33.8"/>
</g>
<g id="icon">
	<g>
		<path d="M108.2,91.8l-7.2-9c-0.1-1-0.6-1.9-1.3-2.5c0.8-0.7,1.3-1.7,1.3-2.8V46c0-2.1-1.7-3.8-3.8-3.8H46.6
			c-2.1,0-3.8,1.7-3.8,3.8v31.6c0,1.1,0.5,2.1,1.3,2.8c-0.7,0.6-1.2,1.5-1.3,2.5l-7.8,9c-0.1,0.2-0.2,0.4-0.2,0.6
			c0,2.5,1,3.8,2.8,3.8h67.9c1.9,0,2.8-1.3,2.8-3.8C108.4,92.2,108.3,92,108.2,91.8 M44.7,46c0-1,0.9-1.9,1.9-1.9h50.6
			c1,0,1.9,0.9,1.9,1.9v31.6c0,1-0.9,1.9-1.9,1.9H46.6c-1,0-1.9-0.9-1.9-1.9V46z M105.6,94.3H37.7c-0.4,0-0.9,0-1-1.6l7.8-9
			c0.1-0.2,0.2-0.4,0.2-0.6c0-1,0.9-1.9,1.9-1.9h50.6c1,0,1.9,0.9,1.9,1.9c0,0.2,0.1,0.4,0.2,0.6l7.2,9
			C106.5,94.3,106,94.3,105.6,94.3"/>
		<path d="M45,87.2h53.7c0.3,0,0.5-0.2,0.5-0.5c0-0.3-0.2-0.5-0.5-0.5H45c-0.3,0-0.5,0.2-0.5,0.5C44.5,87,44.7,87.2,45,87.2"/>
		<path d="M49.1,77.6h45.7c1.3,0,2.3-1.1,2.3-2.5V48.7c0-1.4-1-2.5-2.3-2.5H73.4c0-0.1,0-0.1,0-0.2c0-0.8-0.7-1.5-1.5-1.5
			c-0.8,0-1.5,0.7-1.5,1.5c0,0.1,0,0.1,0,0.2H49.1c-1.3,0-2.3,1.1-2.3,2.5v26.5C46.8,76.5,47.8,77.6,49.1,77.6 M48.2,48.7
			c0-0.6,0.4-1.1,0.9-1.1h45.7c0.5,0,0.9,0.5,0.9,1.1v26.5c0,0.6-0.4,1.1-0.9,1.1H49.1c-0.5,0-0.9-0.5-0.9-1.1V48.7z"/>
		<path d="M46.6,84h50.7c0.3,0,0.5-0.2,0.5-0.5c0-0.3-0.2-0.5-0.5-0.5H46.6c-0.3,0-0.5,0.2-0.5,0.5C46.2,83.8,46.4,84,46.6,84"/>
		<path d="M41.8,89.8c0,0.3,0.2,0.5,0.5,0.5h58.2c0.3,0,0.5-0.2,0.5-0.5c0-0.3-0.2-0.5-0.5-0.5H42.3C42,89.4,41.8,89.6,41.8,89.8"/>
		<path d="M72,74.2c1.8,0,3.3-1.5,3.3-3.3c0-1.8-1.5-3.3-3.3-3.3c-1.8,0-3.3,1.5-3.3,3.3C68.7,72.7,70.2,74.2,72,74.2 M72,68.8
			c1.1,0,2.1,1,2.1,2.1c0,1.1-0.9,2.1-2.1,2.1c-1.1,0-2.1-0.9-2.1-2.1C69.9,69.8,70.9,68.8,72,68.8"/>
		<path d="M69.9,66.3c0,0.3,0.3,0.5,0.6,0.5h3c0.3,0,0.6-0.2,0.6-0.5l0.7-6.1v-9.1c0-0.3-0.3-0.6-0.6-0.6h-4.4
			c-0.3,0-0.6,0.3-0.6,0.6l0,9.2L69.9,66.3z M70.4,51.7h3.2l0,8.4L73,65.7h-1.9l-0.7-5.5V51.7z"/>
	</g>
</g>
</svg>
