<?xml version="1.0" encoding="utf-8"?>
<!-- Generator: Adobe Illustrator 17.1.0, SVG Export Plug-In . SVG Version: 6.00 Build 0)  -->
<!DOCTYPE svg PUBLIC "-//W3C//DTD SVG 1.1//EN" "http://www.w3.org/Graphics/SVG/1.1/DTD/svg11.dtd">
<svg version="1.1" id="Layer_1" xmlns="http://www.w3.org/2000/svg" xmlns:xlink="http://www.w3.org/1999/xlink" x="0px" y="0px"
	 viewBox="0 0 144 144" enable-background="new 0 0 144 144" xml:space="preserve">
<g>
	<g>
		<path fill="#FFFFFF" d="M101.712,63.575c0.119-0.453-0.072-0.938-0.508-1.151l-9.195-4.5c-0.137-0.065-0.287-0.101-0.438-0.101
			H53.818c-0.136,0-0.267,0.025-0.392,0.078l-10.582,4.502c-0.465,0.196-0.684,0.703-0.558,1.174
			c-0.023,0.086-0.052,0.168-0.052,0.259v0.247v16.56c0,0.551,0.447,1,1,1h57.529c0.553,0,1-0.449,1-1v-16.56v-0.247
			C101.765,63.743,101.735,63.659,101.712,63.575 M54.021,59.821h37.317l6.16,3.016H46.933L54.021,59.821z M99.765,79.643H44.235
			v-14.56h55.529V79.643z"/>
		<path fill="#FFFFFF" d="M47.856,70.204c0,0.761,0.615,1.377,1.375,1.377c0.76,0,1.376-0.615,1.376-1.377
			c0-0.759-0.616-1.374-1.376-1.374C48.472,68.83,47.856,69.445,47.856,70.204"/>
		<path fill="#FFFFFF" d="M47.856,75.084c0,0.758,0.615,1.373,1.375,1.373c0.76,0,1.376-0.615,1.376-1.373
			c0-0.762-0.616-1.375-1.376-1.375C48.472,73.709,47.856,74.322,47.856,75.084"/>
		<path fill="#FFFFFF" d="M95.908,69.518H53.907c-0.275,0-0.499-0.225-0.499-0.5c0-0.275,0.224-0.5,0.499-0.5h42.001
			c0.276,0,0.501,0.225,0.501,0.5C96.409,69.294,96.185,69.518,95.908,69.518"/>
		<path fill="#FFFFFF" d="M95.908,75.518H53.907c-0.275,0-0.499-0.223-0.499-0.5c0-0.275,0.224-0.5,0.499-0.5h42.001
			c0.276,0,0.501,0.225,0.501,0.5C96.409,75.295,96.185,75.518,95.908,75.518"/>
		<path fill="#FFFFFF" d="M95.908,72.518H53.907c-0.275,0-0.499-0.223-0.499-0.5c0-0.275,0.224-0.5,0.499-0.5h42.001
			c0.276,0,0.501,0.225,0.501,0.5C96.409,72.295,96.185,72.518,95.908,72.518"/>
	</g>
</g>
</svg>
