<?xml version="1.0" encoding="utf-8"?>
<!-- Generator: Adobe Illustrator 17.1.0, SVG Export Plug-In . SVG Version: 6.00 Build 0)  -->
<!DOCTYPE svg PUBLIC "-//W3C//DTD SVG 1.1//EN" "http://www.w3.org/Graphics/SVG/1.1/DTD/svg11.dtd">
<svg version="1.1" id="Layer_1" xmlns="http://www.w3.org/2000/svg" xmlns:xlink="http://www.w3.org/1999/xlink" x="0px" y="0px"
	 viewBox="0 0 216 216" enable-background="new 0 0 216 216" xml:space="preserve">
<g>
	<path fill="#FFFFFF" d="M85.888,103.46c-4.066-0.574-7.506-1.299-10.227-2.153c-0.268-0.085-0.545,0.063-0.627,0.326
		c-0.084,0.264,0.062,0.545,0.326,0.627c2.773,0.871,6.268,1.608,10.387,2.19c0.023,0.003,0.047,0.005,0.07,0.005
		c0.246,0,0.459-0.18,0.494-0.43C86.351,103.752,86.161,103.498,85.888,103.46z"/>
	<path fill="#FFFFFF" d="M138.532,102.361c0.395-0.129,0.607-0.553,0.479-0.946c-0.129-0.393-0.555-0.608-0.947-0.478
		c-6.861,2.256-18.586,3.604-31.365,3.604c-4.15,0-8.226-0.143-12.113-0.423c-0.412-0.025-0.773,0.28-0.803,0.694
		c-0.029,0.413,0.281,0.772,0.693,0.802c3.924,0.283,8.037,0.427,12.223,0.427C119.628,106.041,131.528,104.666,138.532,102.361z"/>
	<path fill="#FFFFFF" d="M145.202,120.318V97.394c0-5.841-19.369-8.897-38.504-8.897c-19.133,0-38.502,3.056-38.502,8.897v22.924
		c0,5.842,19.369,8.898,38.502,8.898C125.833,129.217,145.202,126.16,145.202,120.318z M70.196,120.318V97.394
		c0-2.88,13.887-6.897,36.502-6.897c22.617,0,36.504,4.017,36.504,6.897v22.924c0,2.881-13.887,6.898-36.504,6.898
		C84.083,127.217,70.196,123.199,70.196,120.318z"/>
	<path fill="#FFFFFF" d="M123.962,86.455c0.653,0.067,1.307,0.139,1.96,0.216c0.03,0.004,0.061,0.005,0.09,0.005
		c0.375,0,0.698-0.28,0.744-0.662c0.049-0.411-0.245-0.784-0.656-0.833c-0.661-0.079-1.324-0.151-1.985-0.219
		c-0.399-0.037-0.779,0.258-0.822,0.669C123.25,86.044,123.55,86.413,123.962,86.455z"/>
	<path fill="#FFFFFF" d="M101.754,132.005c-0.641-0.016-1.3-0.035-1.975-0.059c-0.422-0.045-0.762,0.308-0.776,0.722
		c-0.015,0.414,0.309,0.762,0.723,0.776c0.681,0.025,1.346,0.045,1.993,0.061c0.006,0,0.012,0,0.019,0
		c0.406,0,0.739-0.324,0.749-0.731C102.496,132.359,102.168,132.016,101.754,132.005z"/>
	<path fill="#FFFFFF" d="M111.648,132.005c-0.006,0-0.012,0-0.019,0c-0.681,0.017-1.342,0.029-1.978,0.039
		c-0.414,0.007-0.744,0.348-0.738,0.762c0.007,0.41,0.341,0.738,0.75,0.738c0.004,0,0.008,0,0.012,0
		c0.64-0.01,1.305-0.022,1.991-0.039c0.414-0.011,0.741-0.354,0.731-0.769C112.389,132.329,112.055,132.005,111.648,132.005z"/>
	<path fill="#FFFFFF" d="M106.698,132.066c-0.621,0-1.282-0.003-1.979-0.01c-0.427,0.028-0.753,0.328-0.757,0.742
		c-0.004,0.415,0.329,0.754,0.743,0.758c0.702,0.007,1.368,0.01,1.993,0.01c0.414,0,0.75-0.336,0.75-0.75
		C107.448,132.402,107.112,132.066,106.698,132.066z"/>
	<path fill="#FFFFFF" d="M116.567,131.817c-0.669,0.035-1.327,0.065-1.972,0.091c-0.414,0.016-0.736,0.364-0.72,0.778
		c0.016,0.404,0.348,0.721,0.748,0.721c0.011,0,0.021,0,0.03-0.001c0.65-0.025,1.316-0.056,1.991-0.091
		c0.414-0.021,0.731-0.375,0.71-0.788C117.333,132.113,116.969,131.787,116.567,131.817z"/>
	<path fill="#FFFFFF" d="M121.493,131.487c-0.66,0.055-1.316,0.105-1.968,0.15c-0.413,0.028-0.725,0.386-0.696,0.8
		c0.027,0.395,0.356,0.698,0.747,0.698c0.018,0,0.035-0.001,0.053-0.002c0.657-0.045,1.321-0.096,1.989-0.152
		c0.413-0.034,0.72-0.396,0.685-0.809C122.269,131.759,121.901,131.453,121.493,131.487z"/>
	<path fill="#FFFFFF" d="M91.891,131.485c-0.652-0.055-1.308-0.114-1.966-0.178c-0.415-0.052-0.779,0.262-0.819,0.673
		c-0.04,0.413,0.262,0.779,0.674,0.819c0.664,0.065,1.327,0.125,1.986,0.18c0.021,0.002,0.043,0.003,0.063,0.003
		c0.386,0,0.714-0.296,0.747-0.688C92.61,131.882,92.304,131.52,91.891,131.485z"/>
	<path fill="#FFFFFF" d="M77.326,129.236c-0.643-0.164-1.27-0.338-1.88-0.522c-0.392-0.121-0.814,0.105-0.935,0.501
		c-0.12,0.396,0.104,0.816,0.501,0.935c0.63,0.19,1.279,0.37,1.942,0.54c0.062,0.016,0.125,0.023,0.187,0.023
		c0.334,0,0.64-0.226,0.726-0.564C77.969,129.747,77.728,129.339,77.326,129.236z"/>
	<path fill="#FFFFFF" d="M82.12,130.26c-0.65-0.115-1.294-0.237-1.929-0.366c-0.402-0.085-0.802,0.179-0.885,0.584
		c-0.083,0.406,0.179,0.803,0.585,0.885c0.647,0.133,1.304,0.257,1.968,0.374c0.044,0.008,0.088,0.012,0.131,0.012
		c0.357,0,0.673-0.256,0.738-0.619C82.8,130.721,82.528,130.332,82.12,130.26z"/>
	<path fill="#FFFFFF" d="M126.399,130.983c-0.652,0.08-1.306,0.155-1.959,0.224c-0.412,0.044-0.711,0.413-0.668,0.824
		c0.041,0.386,0.366,0.672,0.745,0.672c0.026,0,0.053-0.001,0.079-0.004c0.663-0.07,1.326-0.146,1.986-0.228
		c0.411-0.051,0.703-0.425,0.652-0.836C127.185,131.226,126.814,130.933,126.399,130.983z"/>
	<path fill="#FFFFFF" d="M96.817,131.816c-0.649-0.034-1.308-0.072-1.973-0.113c-0.406-0.049-0.77,0.288-0.795,0.701
		c-0.026,0.413,0.288,0.77,0.702,0.795c0.67,0.043,1.334,0.081,1.989,0.115c0.013,0.001,0.026,0.001,0.039,0.001
		c0.396,0,0.728-0.311,0.748-0.711C97.549,132.191,97.231,131.838,96.817,131.816z"/>
	<path fill="#FFFFFF" d="M86.987,130.982c-0.653-0.081-1.305-0.167-1.953-0.259c-0.411-0.071-0.79,0.227-0.848,0.637
		c-0.058,0.41,0.227,0.79,0.637,0.848c0.657,0.094,1.318,0.182,1.981,0.263c0.031,0.004,0.062,0.006,0.093,0.006
		c0.373,0,0.697-0.278,0.743-0.658C87.69,131.407,87.398,131.033,86.987,130.982z"/>
	<path fill="#FFFFFF" d="M140.695,127.769c-0.586,0.23-1.195,0.449-1.827,0.656c-0.394,0.13-0.607,0.554-0.479,0.947
		c0.104,0.315,0.397,0.516,0.713,0.516c0.077,0,0.156-0.012,0.234-0.037c0.659-0.217,1.296-0.445,1.907-0.686
		c0.386-0.151,0.575-0.587,0.424-0.973C141.516,127.807,141.079,127.619,140.695,127.769z"/>
	<path fill="#FFFFFF" d="M148.802,111.828c-0.414,0-0.75,0.336-0.75,0.75v1.98c0,0.414,0.336,0.75,0.75,0.75
		c0.414,0,0.75-0.336,0.75-0.75v-1.98C149.552,112.164,149.216,111.828,148.802,111.828z"/>
	<path fill="#FFFFFF" d="M148.802,106.876c-0.414,0-0.75,0.336-0.75,0.75v1.981c0,0.414,0.336,0.75,0.75,0.75
		c0.414,0,0.75-0.336,0.75-0.75v-1.981C149.552,107.211,149.216,106.876,148.802,106.876z"/>
	<path fill="#FFFFFF" d="M148.802,116.78c-0.414,0-0.75,0.336-0.75,0.75v1.98c0,0.414,0.336,0.75,0.75,0.75
		c0.414,0,0.75-0.336,0.75-0.75v-1.98C149.552,117.116,149.216,116.78,148.802,116.78z"/>
	<path fill="#FFFFFF" d="M142.894,90.933c0.595,0.307,1.145,0.628,1.634,0.957c0.128,0.086,0.273,0.127,0.417,0.127
		c0.242,0,0.48-0.116,0.624-0.332c0.23-0.344,0.139-0.81-0.205-1.041c-0.537-0.361-1.137-0.712-1.782-1.044
		c-0.371-0.191-0.82-0.045-1.011,0.323C142.381,90.291,142.525,90.743,142.894,90.933z"/>
	<path fill="#FFFFFF" d="M148.802,96.971c-0.414,0-0.75,0.336-0.75,0.75v1.981c0,0.414,0.336,0.75,0.75,0.75
		c0.414,0,0.75-0.336,0.75-0.75v-1.981C149.552,97.307,149.216,96.971,148.802,96.971z"/>
	<path fill="#FFFFFF" d="M144.904,125.562c-0.476,0.344-1.014,0.681-1.599,1c-0.363,0.199-0.496,0.654-0.298,1.019
		c0.137,0.249,0.394,0.39,0.659,0.39c0.121,0,0.245-0.029,0.359-0.092c0.639-0.35,1.229-0.72,1.757-1.1
		c0.335-0.243,0.411-0.712,0.169-1.048C145.711,125.396,145.242,125.318,144.904,125.562z"/>
	<path fill="#FFFFFF" d="M148.69,121.716c-0.387-0.143-0.82,0.056-0.963,0.445c-0.192,0.522-0.475,1.035-0.844,1.521
		c-0.25,0.331-0.184,0.801,0.146,1.051c0.136,0.103,0.294,0.151,0.451,0.151c0.228,0,0.452-0.103,0.6-0.298
		c0.456-0.605,0.811-1.247,1.055-1.908C149.278,122.29,149.079,121.859,148.69,121.716z"/>
	<path fill="#FFFFFF" d="M72.694,127.766c-0.624-0.247-1.217-0.507-1.764-0.772c-0.373-0.179-0.821-0.025-1.003,0.347
		c-0.181,0.373-0.025,0.821,0.347,1.003c0.58,0.282,1.209,0.557,1.868,0.817c0.091,0.036,0.184,0.053,0.276,0.053
		c0.298,0,0.581-0.18,0.697-0.475C73.268,128.354,73.079,127.918,72.694,127.766z"/>
	<path fill="#FFFFFF" d="M136.061,129.239c-0.623,0.159-1.26,0.309-1.906,0.452c-0.404,0.09-0.659,0.489-0.57,0.895
		c0.077,0.35,0.388,0.588,0.731,0.588c0.054,0,0.108-0.006,0.163-0.018c0.662-0.146,1.314-0.301,1.953-0.464
		c0.401-0.103,0.644-0.511,0.541-0.912C136.87,129.379,136.461,129.138,136.061,129.239z"/>
	<path fill="#FFFFFF" d="M131.266,130.262c-0.641,0.113-1.288,0.22-1.94,0.319c-0.409,0.062-0.69,0.445-0.628,0.854
		c0.057,0.371,0.376,0.637,0.74,0.637c0.038,0,0.076-0.003,0.114-0.009c0.664-0.102,1.323-0.21,1.975-0.325
		c0.407-0.072,0.68-0.461,0.607-0.869C132.062,130.462,131.684,130.19,131.266,130.262z"/>
	<path fill="#FFFFFF" d="M148.247,95.599c0.105,0,0.212-0.022,0.313-0.069c0.376-0.173,0.541-0.618,0.368-0.995
		c-0.291-0.632-0.688-1.244-1.18-1.82c-0.27-0.315-0.743-0.351-1.058-0.083c-0.314,0.269-0.352,0.743-0.083,1.058
		c0.402,0.471,0.725,0.966,0.957,1.472C147.692,95.437,147.964,95.599,148.247,95.599z"/>
	<path fill="#FFFFFF" d="M148.802,101.923c-0.414,0-0.75,0.336-0.75,0.75v1.981c0,0.414,0.336,0.75,0.75,0.75
		c0.414,0,0.75-0.336,0.75-0.75v-1.981C149.552,102.259,149.216,101.923,148.802,101.923z"/>
	<path fill="#FFFFFF" d="M84.441,87.067c0.037,0,0.074-0.003,0.111-0.008c0.646-0.095,1.296-0.185,1.948-0.269
		c0.411-0.053,0.701-0.429,0.648-0.839c-0.052-0.411-0.425-0.705-0.839-0.648c-0.662,0.085-1.321,0.175-1.976,0.273
		c-0.41,0.06-0.693,0.442-0.632,0.851C83.755,86.8,84.076,87.067,84.441,87.067z"/>
	<path fill="#FFFFFF" d="M109.171,85.662c0.633,0.008,1.293,0.019,1.976,0.035c0.006,0,0.012,0,0.018,0
		c0.406,0,0.74-0.324,0.75-0.732c0.01-0.414-0.318-0.758-0.733-0.768c-0.688-0.016-1.354-0.027-1.993-0.035
		c-0.462-0.014-0.754,0.327-0.759,0.741C108.425,85.317,108.756,85.657,109.171,85.662z"/>
	<path fill="#FFFFFF" d="M104.218,85.662c0.003,0,0.006,0,0.009,0c0.693-0.009,1.354-0.013,1.978-0.015
		c0.414-0.001,0.749-0.337,0.748-0.752c-0.001-0.414-0.336-0.748-0.75-0.748c-0.001,0-0.001,0-0.002,0
		c-0.629,0.001-1.295,0.006-1.993,0.015c-0.415,0.005-0.746,0.345-0.741,0.759C103.474,85.332,103.808,85.662,104.218,85.662z"/>
	<path fill="#FFFFFF" d="M89.36,86.459c0.025,0,0.051-0.002,0.077-0.004c0.656-0.067,1.312-0.128,1.964-0.186
		c0.413-0.036,0.718-0.399,0.682-0.812c-0.036-0.413-0.41-0.724-0.812-0.682c-0.66,0.057-1.323,0.12-1.987,0.188
		c-0.412,0.042-0.712,0.41-0.67,0.822C88.655,86.171,88.98,86.459,89.36,86.459z"/>
	<path fill="#FFFFFF" d="M94.304,86.044c0.017,0,0.034-0.001,0.051-0.001c0.664-0.045,1.322-0.085,1.971-0.12
		c0.413-0.023,0.73-0.377,0.708-0.79c-0.023-0.413-0.363-0.723-0.79-0.708c-0.655,0.036-1.319,0.076-1.99,0.121
		c-0.414,0.028-0.726,0.386-0.698,0.799C93.583,85.741,93.913,86.044,94.304,86.044z"/>
	<path fill="#FFFFFF" d="M99.257,85.786c0.01,0,0.02,0,0.029,0c0.674-0.026,1.333-0.047,1.975-0.065
		c0.414-0.011,0.741-0.356,0.729-0.77c-0.011-0.414-0.376-0.771-0.77-0.729c-0.647,0.018-1.312,0.039-1.992,0.065
		c-0.414,0.016-0.736,0.364-0.721,0.778C98.524,85.469,98.856,85.786,99.257,85.786z"/>
	<path fill="#FFFFFF" d="M133.688,87.921c0.648,0.137,1.285,0.283,1.91,0.437c0.061,0.015,0.121,0.022,0.181,0.022
		c0.337,0,0.644-0.229,0.728-0.571c0.099-0.402-0.147-0.809-0.549-0.907c-0.641-0.158-1.294-0.307-1.959-0.448
		c-0.401-0.082-0.804,0.173-0.889,0.578C133.023,87.437,133.282,87.835,133.688,87.921z"/>
	<path fill="#FFFFFF" d="M138.418,89.143c0.633,0.199,1.246,0.41,1.838,0.631c0.086,0.033,0.175,0.048,0.263,0.048
		c0.304,0,0.59-0.186,0.702-0.487c0.145-0.388-0.051-0.82-0.439-0.965c-0.615-0.231-1.254-0.45-1.914-0.657
		c-0.394-0.129-0.816,0.096-0.94,0.491C137.803,88.598,138.022,89.019,138.418,89.143z"/>
	<path fill="#FFFFFF" d="M114.112,85.786c0.646,0.024,1.306,0.053,1.975,0.085c0.012,0.001,0.024,0.001,0.037,0.001
		c0.397,0,0.728-0.312,0.748-0.713c0.02-0.414-0.299-0.766-0.713-0.786c-0.675-0.033-1.339-0.062-1.99-0.086
		c-0.415-0.023-0.763,0.307-0.777,0.721C113.376,85.422,113.698,85.77,114.112,85.786z"/>
	<path fill="#FFFFFF" d="M128.851,87.061c0.652,0.096,1.3,0.199,1.941,0.309c0.043,0.007,0.086,0.011,0.128,0.011
		c0.358,0,0.676-0.258,0.738-0.624c0.07-0.408-0.204-0.796-0.612-0.866c-0.653-0.112-1.312-0.216-1.977-0.314
		c-0.412-0.061-0.791,0.223-0.851,0.633C128.157,86.619,128.44,87,128.851,87.061z"/>
	<path fill="#FFFFFF" d="M119.045,86.043c0.65,0.043,1.308,0.092,1.969,0.145c0.021,0.002,0.04,0.002,0.061,0.002
		c0.387,0,0.715-0.297,0.747-0.69c0.032-0.413-0.275-0.774-0.688-0.808c-0.667-0.054-1.33-0.102-1.988-0.146
		c-0.383-0.017-0.771,0.285-0.798,0.698C118.318,85.657,118.631,86.015,119.045,86.043z"/>
	<path fill="#FFFFFF" d="M64.596,108.366c0.414,0,0.75-0.336,0.75-0.75v-1.981c0-0.414-0.336-0.75-0.75-0.75s-0.75,0.336-0.75,0.75
		v1.981C63.846,108.03,64.182,108.366,64.596,108.366z"/>
	<path fill="#FFFFFF" d="M64.596,113.318c0.414,0,0.75-0.336,0.75-0.75v-1.981c0-0.414-0.336-0.75-0.75-0.75s-0.75,0.336-0.75,0.75
		v1.981C63.846,112.982,64.182,113.318,64.596,113.318z"/>
	<path fill="#FFFFFF" d="M67.091,124.356c-0.287-0.299-0.761-0.308-1.061-0.021c-0.299,0.286-0.309,0.762-0.022,1.061
		c0.458,0.478,0.996,0.94,1.598,1.375c0.133,0.097,0.287,0.143,0.439,0.143c0.232,0,0.461-0.107,0.608-0.311
		c0.243-0.336,0.167-0.805-0.168-1.047C67.956,125.173,67.487,124.77,67.091,124.356z"/>
	<path fill="#FFFFFF" d="M64.596,118.271c0.414,0,0.75-0.336,0.75-0.75v-1.981c0-0.414-0.336-0.75-0.75-0.75s-0.75,0.336-0.75,0.75
		v1.981C63.846,117.935,64.182,118.271,64.596,118.271z"/>
	<path fill="#FFFFFF" d="M65.348,120.473c-0.011-0.414-0.368-0.747-0.77-0.729c-0.414,0.012-0.741,0.356-0.729,0.771
		c0.02,0.741,0.157,1.467,0.41,2.155c0.111,0.304,0.398,0.492,0.704,0.492c0.085,0,0.173-0.015,0.258-0.046
		c0.389-0.142,0.589-0.573,0.446-0.962C65.471,121.617,65.364,121.052,65.348,120.473z"/>
	<path fill="#FFFFFF" d="M66.791,93.688c0.369-0.431,0.814-0.852,1.326-1.252c0.326-0.255,0.383-0.727,0.128-1.053
		c-0.256-0.326-0.726-0.383-1.053-0.128c-0.589,0.461-1.107,0.952-1.541,1.458c-0.269,0.314-0.232,0.788,0.082,1.058
		c0.142,0.121,0.315,0.18,0.487,0.18C66.432,93.95,66.643,93.861,66.791,93.688z"/>
	<path fill="#FFFFFF" d="M70.164,91.014c0.116,0,0.233-0.027,0.343-0.083c0.536-0.276,1.123-0.547,1.744-0.805
		c0.383-0.159,0.564-0.598,0.405-0.98c-0.16-0.382-0.599-0.565-0.98-0.405c-0.659,0.274-1.283,0.562-1.855,0.856
		c-0.368,0.19-0.513,0.642-0.324,1.01C69.63,90.866,69.892,91.014,70.164,91.014z"/>
	<path fill="#FFFFFF" d="M79.559,87.936c0.052,0,0.104-0.005,0.157-0.016c0.633-0.135,1.275-0.261,1.925-0.38
		c0.408-0.075,0.678-0.465,0.603-0.873c-0.075-0.408-0.468-0.68-0.873-0.603c-0.664,0.121-1.32,0.251-1.967,0.388
		c-0.405,0.086-0.664,0.484-0.578,0.89C78.901,87.694,79.212,87.936,79.559,87.936z"/>
	<path fill="#FFFFFF" d="M74.76,89.176c0.074,0,0.15-0.011,0.225-0.034c0.607-0.191,1.233-0.372,1.874-0.542
		c0.4-0.107,0.638-0.518,0.531-0.918c-0.107-0.4-0.518-0.638-0.918-0.531c-0.662,0.177-1.309,0.363-1.937,0.56
		c-0.395,0.124-0.615,0.545-0.491,0.94C74.145,88.971,74.441,89.176,74.76,89.176z"/>
	<path fill="#FFFFFF" d="M64.596,103.414c0.414,0,0.75-0.336,0.75-0.75v-1.98c0-0.414-0.336-0.75-0.75-0.75s-0.75,0.336-0.75,0.75
		v1.98C63.846,103.078,64.182,103.414,64.596,103.414z"/>
	<path fill="#FFFFFF" d="M64.596,98.461c0.414,0,0.75-0.336,0.75-0.75v-0.317c0-0.491,0.064-0.971,0.19-1.426
		c0.111-0.399-0.124-0.812-0.522-0.923c-0.4-0.11-0.812,0.123-0.923,0.522c-0.163,0.586-0.245,1.201-0.245,1.827v0.317
		C63.846,98.126,64.182,98.461,64.596,98.461z"/>
</g>
</svg>
