<?xml version="1.0" encoding="utf-8"?>
<!-- Generator: Adobe Illustrator 17.1.0, SVG Export Plug-In . SVG Version: 6.00 Build 0)  -->
<!DOCTYPE svg PUBLIC "-//W3C//DTD SVG 1.1//EN" "http://www.w3.org/Graphics/SVG/1.1/DTD/svg11.dtd">
<svg version="1.1" id="Layer_1" xmlns="http://www.w3.org/2000/svg" xmlns:xlink="http://www.w3.org/1999/xlink" x="0px" y="0px"
	 viewBox="0 0 216 216" enable-background="new 0 0 216 216" xml:space="preserve">
<g>
	<circle cx="94.956" cy="86.308" r="1.375"/>
	<circle cx="99.833" cy="103" r="1.375"/>
	<circle cx="94.956" cy="103" r="1.375"/>
	<circle cx="94.956" cy="98.02" r="1.375"/>
	<circle cx="99.833" cy="98.02" r="1.375"/>
	<circle cx="124.481" cy="81.327" r="1.375"/>
	<circle cx="85.037" cy="98.02" r="1.375"/>
	<circle cx="89.916" cy="98.02" r="1.375"/>
	<circle cx="85.037" cy="103" r="1.375"/>
	<circle cx="89.916" cy="103" r="1.375"/>
	<circle cx="104.829" cy="103" r="1.375"/>
	<circle cx="114.747" cy="98.02" r="1.375"/>
	<circle cx="119.625" cy="103" r="1.375"/>
	<circle cx="119.625" cy="98.02" r="1.375"/>
	<circle cx="104.829" cy="98.02" r="1.375"/>
	<circle cx="124.481" cy="103" r="1.375"/>
	<circle cx="114.747" cy="103" r="1.375"/>
	<circle cx="109.708" cy="103" r="1.375"/>
	<circle cx="109.708" cy="98.02" r="1.375"/>
	<circle cx="104.829" cy="81.327" r="1.375"/>
	<circle cx="124.481" cy="131.345" r="1.375"/>
	<circle cx="94.956" cy="81.327" r="1.375"/>
	<circle cx="89.916" cy="86.308" r="1.375"/>
	<circle cx="99.833" cy="86.308" r="1.375"/>
	<path d="M137.457,75.409c0.119-0.452-0.072-0.938-0.508-1.15l-9.195-4.5c-0.137-0.068-0.287-0.103-0.438-0.103H89.564
		c-0.135,0-0.268,0.027-0.392,0.079l-10.583,4.5c-0.464,0.198-0.683,0.703-0.557,1.177c-0.023,0.085-0.052,0.167-0.052,0.259v16.56
		v16.559c0,0.023,0.012,0.043,0.014,0.065c-0.002,0.023-0.014,0.043-0.014,0.066v16.56v16.559c0,0.552,0.447,1,1,1h57.528
		c0.553,0,1-0.448,1-1V125.48v-16.56c0-0.023-0.012-0.043-0.014-0.066c0.002-0.022,0.014-0.042,0.014-0.065V92.231v-16.56
		C137.51,75.578,137.48,75.494,137.457,75.409z M89.768,71.656h37.316l6.16,3.015H82.679L89.768,71.656z M135.51,135.25h-5.01
		c-0.821,0-1.49-0.669-1.49-1.49c0-0.821,0.669-1.49,1.49-1.49h5.01V135.25z M135.51,131.27h-5.01c-1.373,0-2.49,1.117-2.49,2.49
		c0,1.373,1.117,2.49,2.49,2.49h5.01v4.789H79.981V126.48h55.528V131.27z M135.51,119.058h-5.01c-0.821,0-1.49-0.668-1.49-1.49
		c0-0.822,0.669-1.49,1.49-1.49h5.01V119.058z M135.51,115.077h-5.01c-1.373,0-2.49,1.117-2.49,2.49c0,1.373,1.117,2.49,2.49,2.49
		h5.01v4.423H79.981v-14.56h55.528V115.077z M135.51,102h-5.01c-0.821,0-1.49-0.669-1.49-1.49c0-0.821,0.669-1.49,1.49-1.49h5.01
		V102z M135.51,98.02h-5.01c-1.373,0-2.49,1.117-2.49,2.49c0,1.373,1.117,2.49,2.49,2.49h5.01v4.789H79.981V93.231h55.528V98.02z
		 M135.51,85.808h-5.01c-0.821,0-1.49-0.668-1.49-1.49c0-0.822,0.669-1.49,1.49-1.49h5.01V85.808z M135.51,81.827h-5.01
		c-1.373,0-2.49,1.117-2.49,2.49c0,1.373,1.117,2.49,2.49,2.49h5.01v4.423H79.981v-14.56h55.528V81.827z"/>
	<circle cx="85.037" cy="81.327" r="1.375"/>
	<circle cx="99.833" cy="81.327" r="1.375"/>
	<circle cx="85.037" cy="86.308" r="1.375"/>
	<circle cx="109.708" cy="81.327" r="1.375"/>
	<circle cx="114.747" cy="81.327" r="1.375"/>
	<circle cx="114.747" cy="86.308" r="1.375"/>
	<circle cx="119.625" cy="86.308" r="1.375"/>
	<circle cx="119.625" cy="81.327" r="1.375"/>
	<circle cx="104.829" cy="86.308" r="1.375"/>
	<circle cx="124.481" cy="98.02" r="1.375"/>
	<circle cx="109.708" cy="86.308" r="1.375"/>
	<circle cx="124.481" cy="86.308" r="1.375"/>
	<circle cx="89.916" cy="81.327" r="1.375"/>
	<circle cx="104.829" cy="136.325" r="1.375"/>
	<circle cx="94.956" cy="136.325" r="1.375"/>
	<circle cx="85.037" cy="136.325" r="1.375"/>
	<circle cx="99.833" cy="131.345" r="1.375"/>
	<circle cx="94.956" cy="131.345" r="1.375"/>
	<circle cx="85.037" cy="131.345" r="1.375"/>
	<circle cx="89.916" cy="131.345" r="1.375"/>
	<circle cx="89.916" cy="136.325" r="1.375"/>
	<circle cx="99.833" cy="136.325" r="1.375"/>
	<circle cx="119.625" cy="136.325" r="1.375"/>
	<circle cx="119.625" cy="131.345" r="1.375"/>
	<circle cx="124.481" cy="136.325" r="1.375"/>
	<circle cx="114.747" cy="131.345" r="1.375"/>
	<circle cx="114.747" cy="136.325" r="1.375"/>
	<circle cx="109.708" cy="136.325" r="1.375"/>
	<circle cx="104.829" cy="131.345" r="1.375"/>
	<circle cx="109.708" cy="131.345" r="1.375"/>
	<circle cx="99.833" cy="114.71" r="1.375"/>
	<circle cx="104.829" cy="119.69" r="1.375"/>
	<circle cx="99.833" cy="119.69" r="1.375"/>
	<circle cx="85.037" cy="119.69" r="1.375"/>
	<circle cx="94.956" cy="119.69" r="1.375"/>
	<circle cx="94.956" cy="114.71" r="1.375"/>
	<circle cx="85.037" cy="114.71" r="1.375"/>
	<circle cx="89.916" cy="119.69" r="1.375"/>
	<circle cx="89.916" cy="114.71" r="1.375"/>
	<circle cx="114.747" cy="119.69" r="1.375"/>
	<circle cx="119.625" cy="119.69" r="1.375"/>
	<circle cx="119.625" cy="114.71" r="1.375"/>
	<circle cx="114.747" cy="114.71" r="1.375"/>
	<circle cx="104.829" cy="114.71" r="1.375"/>
	<circle cx="124.481" cy="119.69" r="1.375"/>
	<circle cx="124.481" cy="114.71" r="1.375"/>
	<circle cx="109.708" cy="119.69" r="1.375"/>
	<circle cx="109.708" cy="114.71" r="1.375"/>
</g>
</svg>
