<?xml version="1.0" encoding="utf-8"?>
<!-- Generator: Adobe Illustrator 17.1.0, SVG Export Plug-In . SVG Version: 6.00 Build 0)  -->
<!DOCTYPE svg PUBLIC "-//W3C//DTD SVG 1.1//EN" "http://www.w3.org/Graphics/SVG/1.1/DTD/svg11.dtd">
<svg version="1.1" id="Layer_1" xmlns="http://www.w3.org/2000/svg" xmlns:xlink="http://www.w3.org/1999/xlink" x="0px" y="0px"
	 viewBox="0 0 216 216" enable-background="new 0 0 216 216" xml:space="preserve">
<g>
	<g>
		<path fill="#FFFFFF" d="M85.817,104.455c-0.023,0-0.047-0.002-0.07-0.005c-4.119-0.582-7.613-1.319-10.387-2.19
			c-0.264-0.082-0.41-0.363-0.326-0.627c0.082-0.263,0.359-0.411,0.627-0.326c2.721,0.854,6.16,1.579,10.227,2.153
			c0.273,0.038,0.463,0.292,0.424,0.565C86.276,104.275,86.063,104.455,85.817,104.455z"/>
		<path fill="#FFFFFF" d="M106.698,106.041c-4.186,0-8.299-0.144-12.223-0.427c-0.412-0.03-0.723-0.389-0.693-0.802
			c0.029-0.414,0.391-0.72,0.803-0.694c3.887,0.28,7.963,0.423,12.113,0.423c12.779,0,24.504-1.348,31.365-3.604
			c0.393-0.13,0.818,0.085,0.947,0.478c0.129,0.394-0.084,0.817-0.479,0.946C131.528,104.666,119.628,106.041,106.698,106.041z"/>
		<path fill="#FFFFFF" d="M106.698,129.217c-19.133,0-38.502-3.057-38.502-8.898V97.394c0-5.841,19.369-8.897,38.502-8.897
			c19.135,0,38.504,3.056,38.504,8.897v22.924C145.202,126.16,125.833,129.217,106.698,129.217z M106.698,90.497
			c-22.615,0-36.502,4.017-36.502,6.897v22.924c0,2.881,13.887,6.898,36.502,6.898c22.617,0,36.504-4.018,36.504-6.898V97.394
			C143.202,94.514,129.315,90.497,106.698,90.497z"/>
	</g>
</g>
</svg>
