<?xml version="1.0" encoding="utf-8"?>
<!-- Generator: Adobe Illustrator 17.1.0, SVG Export Plug-In . SVG Version: 6.00 Build 0)  -->
<!DOCTYPE svg PUBLIC "-//W3C//DTD SVG 1.1//EN" "http://www.w3.org/Graphics/SVG/1.1/DTD/svg11.dtd">
<svg version="1.1" id="Layer_1" xmlns="http://www.w3.org/2000/svg" xmlns:xlink="http://www.w3.org/1999/xlink" x="0px" y="0px"
	 viewBox="0 0 144 144" enable-background="new 0 0 144 144" xml:space="preserve">
<g>
	<g>
		<g>
			<path d="M101.712,36.512c0.119-0.452-0.072-0.938-0.508-1.152l-9.195-4.501c-0.137-0.064-0.288-0.099-0.438-0.099H53.818
				c-0.135,0-0.268,0.027-0.393,0.08l-10.582,4.501c-0.463,0.195-0.685,0.701-0.557,1.173c-0.023,0.084-0.052,0.169-0.052,0.259
				v22.634v16.558c0,0.025,0.013,0.045,0.013,0.067c0,0.025-0.013,0.043-0.013,0.066v16.559v16.56c0,0.551,0.446,1,1,1h57.529
				c0.554,0,1-0.449,1-1v-16.56V76.098c0-0.023-0.012-0.041-0.013-0.066c0.001-0.021,0.013-0.041,0.013-0.067V59.407V36.773
				C101.765,36.68,101.735,36.596,101.712,36.512z M54.022,32.758H91.34l6.158,3.016H46.933L54.022,32.758z M44.235,58.407V37.773
				h55.529v11.231v20.172H44.235v-8.769V58.407z M99.765,108.217H44.235v-14.56v-1.998V77.1v-2.133v-4.783h55.529v33.244V108.217z"
				/>
			<path d="M69.225,96.193H49.067c-0.278,0-0.504,0.225-0.504,0.504c0,0.277,0.226,0.504,0.504,0.504h20.157
				c0.277,0,0.504-0.227,0.504-0.504C69.729,96.418,69.502,96.193,69.225,96.193z"/>
			<path d="M69.225,90.92H49.067c-0.278,0-0.504,0.227-0.504,0.504c0,0.279,0.226,0.504,0.504,0.504h20.157
				c0.277,0,0.504-0.225,0.504-0.504C69.729,91.146,69.502,90.92,69.225,90.92z"/>
			<path d="M69.225,85.648H49.067c-0.278,0-0.504,0.225-0.504,0.504c0,0.277,0.226,0.504,0.504,0.504h20.157
				c0.277,0,0.504-0.227,0.504-0.504C69.729,85.873,69.502,85.648,69.225,85.648z"/>
			<path d="M69.225,80.379H49.067c-0.278,0-0.504,0.225-0.504,0.504c0,0.277,0.226,0.504,0.504,0.504h20.157
				c0.277,0,0.504-0.227,0.504-0.504C69.729,80.604,69.502,80.379,69.225,80.379z"/>
			<path d="M49.067,58.371h20.381c0.558,0,1.008-0.451,1.008-1.008c0-0.556-0.45-1.008-1.008-1.008H49.067
				c-0.556,0-1.009,0.452-1.009,1.008C48.059,57.919,48.512,58.371,49.067,58.371z"/>
			<path d="M49.067,46.509h20.381c0.558,0,1.008-0.451,1.008-1.008c0-0.556-0.45-1.009-1.008-1.009H49.067
				c-0.556,0-1.009,0.453-1.009,1.009C48.059,46.058,48.512,46.509,49.067,46.509z"/>
			<path d="M69.225,77.742H49.067c-0.278,0-0.504,0.225-0.504,0.504c0,0.277,0.226,0.504,0.504,0.504h20.157
				c0.277,0,0.504-0.227,0.504-0.504C69.729,77.967,69.502,77.742,69.225,77.742z"/>
			<path d="M94.209,96.193H74.052c-0.278,0-0.504,0.225-0.504,0.504c0,0.277,0.226,0.504,0.504,0.504h20.157
				c0.278,0,0.504-0.227,0.504-0.504C94.713,96.418,94.487,96.193,94.209,96.193z"/>
			<path d="M94.209,90.92H74.052c-0.278,0-0.504,0.227-0.504,0.504c0,0.279,0.226,0.504,0.504,0.504h20.157
				c0.278,0,0.504-0.225,0.504-0.504C94.713,91.146,94.487,90.92,94.209,90.92z"/>
			<path d="M94.209,85.648H74.052c-0.278,0-0.504,0.225-0.504,0.504c0,0.277,0.226,0.504,0.504,0.504h20.157
				c0.278,0,0.504-0.227,0.504-0.504C94.713,85.873,94.487,85.648,94.209,85.648z"/>
			<path d="M94.209,80.379H74.052c-0.278,0-0.504,0.225-0.504,0.504c0,0.277,0.226,0.504,0.504,0.504h20.157
				c0.278,0,0.504-0.227,0.504-0.504C94.713,80.604,94.487,80.379,94.209,80.379z"/>
			<path d="M94.209,77.742H74.052c-0.278,0-0.504,0.225-0.504,0.504c0,0.277,0.226,0.504,0.504,0.504h20.157
				c0.278,0,0.504-0.227,0.504-0.504C94.713,77.967,94.487,77.742,94.209,77.742z"/>
			<path d="M69.225,98.828H49.067c-0.278,0-0.504,0.227-0.504,0.506c0,0.277,0.226,0.504,0.504,0.504h20.157
				c0.277,0,0.504-0.227,0.504-0.504C69.729,99.055,69.502,98.828,69.225,98.828z"/>
			<path d="M69.225,93.557H49.067c-0.278,0-0.504,0.227-0.504,0.504c0,0.279,0.226,0.504,0.504,0.504h20.157
				c0.277,0,0.504-0.225,0.504-0.504C69.729,93.783,69.502,93.557,69.225,93.557z"/>
			<path d="M69.225,88.285H49.067c-0.278,0-0.504,0.225-0.504,0.504c0,0.277,0.226,0.504,0.504,0.504h20.157
				c0.277,0,0.504-0.227,0.504-0.504C69.729,88.51,69.502,88.285,69.225,88.285z"/>
			<path d="M69.225,83.014H49.067c-0.278,0-0.504,0.225-0.504,0.504c0,0.277,0.226,0.504,0.504,0.504h20.157
				c0.277,0,0.504-0.227,0.504-0.504C69.729,83.238,69.502,83.014,69.225,83.014z"/>
			<path d="M69.225,75.105H49.067c-0.278,0-0.504,0.225-0.504,0.504c0,0.279,0.226,0.504,0.504,0.504h20.157
				c0.277,0,0.504-0.225,0.504-0.504C69.729,75.33,69.502,75.105,69.225,75.105z"/>
			<path d="M94.209,98.828H74.052c-0.278,0-0.504,0.227-0.504,0.506c0,0.277,0.226,0.504,0.504,0.504h20.157
				c0.278,0,0.504-0.227,0.504-0.504C94.713,99.055,94.487,98.828,94.209,98.828z"/>
			<path d="M94.209,93.557H74.052c-0.278,0-0.504,0.227-0.504,0.504c0,0.279,0.226,0.504,0.504,0.504h20.157
				c0.278,0,0.504-0.225,0.504-0.504C94.713,93.783,94.487,93.557,94.209,93.557z"/>
			<path d="M94.209,88.285H74.052c-0.278,0-0.504,0.225-0.504,0.504c0,0.277,0.226,0.504,0.504,0.504h20.157
				c0.278,0,0.504-0.227,0.504-0.504C94.713,88.51,94.487,88.285,94.209,88.285z"/>
			<path d="M94.209,83.014H74.052c-0.278,0-0.504,0.225-0.504,0.504c0,0.277,0.226,0.504,0.504,0.504h20.157
				c0.278,0,0.504-0.227,0.504-0.504C94.713,83.238,94.487,83.014,94.209,83.014z"/>
			<path d="M94.209,75.105H74.052c-0.278,0-0.504,0.225-0.504,0.504c0,0.279,0.226,0.504,0.504,0.504h20.157
				c0.278,0,0.504-0.225,0.504-0.504C94.713,75.33,94.487,75.105,94.209,75.105z"/>
			<path d="M49.067,64.301h20.381c0.558,0,1.008-0.451,1.008-1.008c0-0.556-0.45-1.008-1.008-1.008H49.067
				c-0.556,0-1.009,0.452-1.009,1.008C48.059,63.85,48.512,64.301,49.067,64.301z"/>
			<path d="M49.067,52.441h20.381c0.558,0,1.008-0.451,1.008-1.008c0-0.556-0.45-1.008-1.008-1.008H49.067
				c-0.556,0-1.009,0.452-1.009,1.008C48.059,51.99,48.512,52.441,49.067,52.441z"/>
			<circle cx="75.223" cy="45.56" r="1.376"/>
			<circle cx="79.129" cy="45.56" r="1.376"/>
			<circle cx="83.035" cy="45.56" r="1.376"/>
			<path d="M73.855,49.472v14.946c0,0.278,0.226,0.504,0.504,0.504H93.99c0.278,0,0.504-0.226,0.504-0.504V49.472
				c0-0.278-0.226-0.504-0.504-0.504H74.359C74.081,48.968,73.855,49.194,73.855,49.472z M93.486,57.625H74.863v-1.626h18.623
				V57.625z M74.863,58.633h18.623v1.628H74.863V58.633z M93.486,54.991H74.863v-1.629h18.623V54.991z M74.863,63.915v-2.646h18.623
				v2.646H74.863z M93.486,49.977v2.376H74.863v-2.376H93.486z"/>
		</g>
	</g>
</g>
</svg>
