<?xml version="1.0" encoding="utf-8"?>
<!-- Generator: Adobe Illustrator 17.1.0, SVG Export Plug-In . SVG Version: 6.00 Build 0)  -->
<!DOCTYPE svg PUBLIC "-//W3C//DTD SVG 1.1//EN" "http://www.w3.org/Graphics/SVG/1.1/DTD/svg11.dtd">
<svg version="1.1" id="Layer_1" xmlns="http://www.w3.org/2000/svg" xmlns:xlink="http://www.w3.org/1999/xlink" x="0px" y="0px"
	 viewBox="0 0 216 216" enable-background="new 0 0 216 216" xml:space="preserve">
<g>
	<path fill="#FFFFFF" d="M20.452,76.079c-0.022,0.085-0.052,0.167-0.052,0.259v16.56v16.559c0,0.023,0.012,0.043,0.014,0.065
		c-0.002,0.023-0.014,0.043-0.014,0.066v16.56v16.559c0,0.552,0.447,1,1,1h57.527c0.01,0,0.019-0.006,0.028-0.006
		c0.01,0,0.019,0.006,0.028,0.006h57.528c0.024,0,0.045-0.013,0.069-0.014c0.024,0.001,0.045,0.014,0.069,0.014h57.528
		c0.553,0,1-0.448,1-1v-16.559v-16.56c0-0.023-0.012-0.043-0.014-0.066c0.002-0.022,0.014-0.042,0.014-0.065V92.898v-16.56
		c0-0.093-0.029-0.177-0.053-0.262c0.119-0.452-0.072-0.938-0.508-1.15l-26.195-4.5c-0.136-0.068-1.286-0.103-1.438-0.103h-39.668
		h-1.469H90.946h-1.379H49.099c-0.135,0-1.267,0.027-1.392,0.079l-26.699,4.5C20.545,75.101,20.325,75.606,20.452,76.079z
		 M135.513,131.936v4.981v4.789H79.984v-14.559h55.528V131.936z M135.513,115.744v4.98v4.423H79.984v-14.56h55.528V115.744z
		 M135.513,98.687v4.98v4.789H79.984V93.898h55.528V98.687z M135.513,82.494v4.98v4.423H79.984v-14.56h55.528V82.494z
		 M193.18,131.936v4.981v4.789h-55.528v-14.559h55.528V131.936z M193.18,115.744v4.98v4.423h-55.528v-14.56h55.528V115.744z
		 M193.18,98.687v4.98v4.789h-55.528V93.898h55.528V98.687z M193.18,82.494v4.98v4.423h-55.528v-14.56h55.528V82.494z
		 M167.754,72.323l17.966,3.015h-48.157l-6.018-3.015H167.754z M127.594,72.323l5.653,3.015H82.682l6.507-3.015H127.594z
		 M48.303,72.323h36.752l-6.803,3.015H30.386L48.303,72.323z M22.4,77.338h55.527v5.156v4.98v4.423H22.4V77.338z M22.4,93.898
		h55.527v4.789v4.98v4.789H22.4V93.898z M22.4,110.588h55.527v5.156v4.98v4.423H22.4V110.588z M22.4,127.147h55.527v4.789v4.981
		v4.789H22.4V127.147z"/>
	<circle fill="#FFFFFF" cx="27.424" cy="84.991" r="1.375"/>
	<circle fill="#FFFFFF" cx="32.303" cy="84.991" r="1.375"/>
	<path fill="#FFFFFF" d="M74.499,80h-2.998C71.225,80,71,80.224,71,80.5v8c0,0.276,0.225,0.5,0.501,0.5h2.998
		C74.775,89,75,88.776,75,88.5v-8C75,80.224,74.775,80,74.499,80z M74,88h-2v-7h2V88z"/>
	<path fill="#FFFFFF" d="M68.5,80h-3c-0.276,0-0.5,0.224-0.5,0.5v8c0,0.276,0.224,0.5,0.5,0.5h3c0.276,0,0.5-0.224,0.5-0.5v-8
		C69,80.224,68.776,80,68.5,80z M68,88h-2v-7h2V88z"/>
	<circle fill="#FFFFFF" cx="27.424" cy="101.991" r="1.375"/>
	<circle fill="#FFFFFF" cx="32.303" cy="101.991" r="1.375"/>
	<path fill="#FFFFFF" d="M74.499,97h-2.998C71.225,97,71,97.224,71,97.5v8c0,0.276,0.225,0.5,0.501,0.5h2.998
		c0.276,0,0.501-0.224,0.501-0.5v-8C75,97.224,74.775,97,74.499,97z M74,105h-2v-7h2V105z"/>
	<path fill="#FFFFFF" d="M68.5,97h-3c-0.276,0-0.5,0.224-0.5,0.5v8c0,0.276,0.224,0.5,0.5,0.5h3c0.276,0,0.5-0.224,0.5-0.5v-8
		C69,97.224,68.776,97,68.5,97z M68,105h-2v-7h2V105z"/>
	<circle fill="#FFFFFF" cx="27.424" cy="117.991" r="1.375"/>
	<circle fill="#FFFFFF" cx="32.303" cy="117.991" r="1.375"/>
	<path fill="#FFFFFF" d="M74.499,113h-2.998c-0.276,0-0.501,0.224-0.501,0.5v8c0,0.276,0.225,0.5,0.501,0.5h2.998
		c0.276,0,0.501-0.224,0.501-0.5v-8C75,113.224,74.775,113,74.499,113z M74,121h-2v-7h2V121z"/>
	<path fill="#FFFFFF" d="M68.5,113h-3c-0.276,0-0.5,0.224-0.5,0.5v8c0,0.276,0.224,0.5,0.5,0.5h3c0.276,0,0.5-0.224,0.5-0.5v-8
		C69,113.224,68.776,113,68.5,113z M68,121h-2v-7h2V121z"/>
	<circle fill="#FFFFFF" cx="27.424" cy="134.991" r="1.375"/>
	<circle fill="#FFFFFF" cx="32.303" cy="134.991" r="1.375"/>
	<path fill="#FFFFFF" d="M74.499,130h-2.998c-0.276,0-0.501,0.224-0.501,0.5v8c0,0.276,0.225,0.5,0.501,0.5h2.998
		c0.276,0,0.501-0.224,0.501-0.5v-8C75,130.224,74.775,130,74.499,130z M74,138h-2v-7h2V138z"/>
	<path fill="#FFFFFF" d="M68.5,130h-3c-0.276,0-0.5,0.224-0.5,0.5v8c0,0.276,0.224,0.5,0.5,0.5h3c0.276,0,0.5-0.224,0.5-0.5v-8
		C69,130.224,68.776,130,68.5,130z M68,138h-2v-7h2V138z"/>
	<circle fill="#FFFFFF" cx="85.424" cy="84.991" r="1.375"/>
	<circle fill="#FFFFFF" cx="90.303" cy="84.991" r="1.375"/>
	<path fill="#FFFFFF" d="M129.501,89h2.998c0.276,0,0.501-0.224,0.501-0.5v-8c0-0.276-0.225-0.5-0.501-0.5h-2.998
		c-0.276,0-0.501,0.224-0.501,0.5v8C129,88.776,129.225,89,129.501,89z M130,81h2v7h-2V81z"/>
	<path fill="#FFFFFF" d="M123.5,89h3c0.276,0,0.5-0.224,0.5-0.5v-8c0-0.276-0.224-0.5-0.5-0.5h-3c-0.276,0-0.5,0.224-0.5,0.5v8
		C123,88.776,123.224,89,123.5,89z M124,81h2v7h-2V81z"/>
	<circle fill="#FFFFFF" cx="85.424" cy="101.991" r="1.375"/>
	<circle fill="#FFFFFF" cx="90.303" cy="101.991" r="1.375"/>
	<path fill="#FFFFFF" d="M129.501,106h2.998c0.276,0,0.501-0.224,0.501-0.5v-8c0-0.276-0.225-0.5-0.501-0.5h-2.998
		c-0.276,0-0.501,0.224-0.501,0.5v8C129,105.776,129.225,106,129.501,106z M130,98h2v7h-2V98z"/>
	<path fill="#FFFFFF" d="M123.5,106h3c0.276,0,0.5-0.224,0.5-0.5v-8c0-0.276-0.224-0.5-0.5-0.5h-3c-0.276,0-0.5,0.224-0.5,0.5v8
		C123,105.776,123.224,106,123.5,106z M124,98h2v7h-2V98z"/>
	<circle fill="#FFFFFF" cx="85.424" cy="117.991" r="1.375"/>
	<circle fill="#FFFFFF" cx="90.303" cy="117.991" r="1.375"/>
	<path fill="#FFFFFF" d="M129.501,122h2.998c0.276,0,0.501-0.224,0.501-0.5v-8c0-0.276-0.225-0.5-0.501-0.5h-2.998
		c-0.276,0-0.501,0.224-0.501,0.5v8C129,121.776,129.225,122,129.501,122z M130,114h2v7h-2V114z"/>
	<path fill="#FFFFFF" d="M123.5,122h3c0.276,0,0.5-0.224,0.5-0.5v-8c0-0.276-0.224-0.5-0.5-0.5h-3c-0.276,0-0.5,0.224-0.5,0.5v8
		C123,121.776,123.224,122,123.5,122z M124,114h2v7h-2V114z"/>
	<circle fill="#FFFFFF" cx="85.424" cy="134.991" r="1.375"/>
	<circle fill="#FFFFFF" cx="90.303" cy="134.991" r="1.375"/>
	<path fill="#FFFFFF" d="M129.501,139h2.998c0.276,0,0.501-0.224,0.501-0.5v-8c0-0.276-0.225-0.5-0.501-0.5h-2.998
		c-0.276,0-0.501,0.224-0.501,0.5v8C129,138.776,129.225,139,129.501,139z M130,131h2v7h-2V131z"/>
	<path fill="#FFFFFF" d="M123.5,139h3c0.276,0,0.5-0.224,0.5-0.5v-8c0-0.276-0.224-0.5-0.5-0.5h-3c-0.276,0-0.5,0.224-0.5,0.5v8
		C123,138.776,123.224,139,123.5,139z M124,131h2v7h-2V131z"/>
	<circle fill="#FFFFFF" cx="142.424" cy="84.991" r="1.375"/>
	<circle fill="#FFFFFF" cx="147.303" cy="84.991" r="1.375"/>
	<path fill="#FFFFFF" d="M186.501,89h2.998c0.276,0,0.501-0.224,0.501-0.5v-8c0-0.276-0.225-0.5-0.501-0.5h-2.998
		c-0.276,0-0.501,0.224-0.501,0.5v8C186,88.776,186.225,89,186.501,89z M187,81h2v7h-2V81z"/>
	<path fill="#FFFFFF" d="M180.5,89h3c0.276,0,0.5-0.224,0.5-0.5v-8c0-0.276-0.224-0.5-0.5-0.5h-3c-0.276,0-0.5,0.224-0.5,0.5v8
		C180,88.776,180.224,89,180.5,89z M181,81h2v7h-2V81z"/>
	<circle fill="#FFFFFF" cx="142.424" cy="101.991" r="1.375"/>
	<circle fill="#FFFFFF" cx="147.303" cy="101.991" r="1.375"/>
	<path fill="#FFFFFF" d="M186.501,106h2.998c0.276,0,0.501-0.224,0.501-0.5v-8c0-0.276-0.225-0.5-0.501-0.5h-2.998
		c-0.276,0-0.501,0.224-0.501,0.5v8C186,105.776,186.225,106,186.501,106z M187,98h2v7h-2V98z"/>
	<path fill="#FFFFFF" d="M180.5,106h3c0.276,0,0.5-0.224,0.5-0.5v-8c0-0.276-0.224-0.5-0.5-0.5h-3c-0.276,0-0.5,0.224-0.5,0.5v8
		C180,105.776,180.224,106,180.5,106z M181,98h2v7h-2V98z"/>
	<circle fill="#FFFFFF" cx="142.424" cy="117.991" r="1.375"/>
	<circle fill="#FFFFFF" cx="147.303" cy="117.991" r="1.375"/>
	<path fill="#FFFFFF" d="M186.501,122h2.998c0.276,0,0.501-0.224,0.501-0.5v-8c0-0.276-0.225-0.5-0.501-0.5h-2.998
		c-0.276,0-0.501,0.224-0.501,0.5v8C186,121.776,186.225,122,186.501,122z M187,114h2v7h-2V114z"/>
	<path fill="#FFFFFF" d="M180.5,122h3c0.276,0,0.5-0.224,0.5-0.5v-8c0-0.276-0.224-0.5-0.5-0.5h-3c-0.276,0-0.5,0.224-0.5,0.5v8
		C180,121.776,180.224,122,180.5,122z M181,114h2v7h-2V114z"/>
	<circle fill="#FFFFFF" cx="142.424" cy="134.991" r="1.375"/>
	<circle fill="#FFFFFF" cx="147.303" cy="134.991" r="1.375"/>
	<path fill="#FFFFFF" d="M186.501,139h2.998c0.276,0,0.501-0.224,0.501-0.5v-8c0-0.276-0.225-0.5-0.501-0.5h-2.998
		c-0.276,0-0.501,0.224-0.501,0.5v8C186,138.776,186.225,139,186.501,139z M189,138h-2v-7h2V138z"/>
	<path fill="#FFFFFF" d="M180.5,139h3c0.276,0,0.5-0.224,0.5-0.5v-8c0-0.276-0.224-0.5-0.5-0.5h-3c-0.276,0-0.5,0.224-0.5,0.5v8
		C180,138.776,180.224,139,180.5,139z M181,131h2v7h-2V131z"/>
	<path fill="#FFFFFF" d="M86.303,146.556h-1.996c-0.414,0-0.75,0.336-0.75,0.75c0,0.414,0.336,0.75,0.75,0.75h1.996
		c0.414,0,0.75-0.336,0.75-0.75C87.053,146.892,86.717,146.556,86.303,146.556z"/>
	<path fill="#FFFFFF" d="M111.251,146.556h-1.996c-0.414,0-0.75,0.336-0.75,0.75c0,0.414,0.336,0.75,0.75,0.75h1.996
		c0.414,0,0.75-0.336,0.75-0.75C112.001,146.892,111.665,146.556,111.251,146.556z"/>
	<path fill="#FFFFFF" d="M101.271,146.556h-1.996c-0.414,0-0.75,0.336-0.75,0.75c0,0.414,0.336,0.75,0.75,0.75h1.996
		c0.414,0,0.75-0.336,0.75-0.75C102.021,146.892,101.686,146.556,101.271,146.556z"/>
	<path fill="#FFFFFF" d="M96.282,146.556h-1.996c-0.414,0-0.75,0.336-0.75,0.75c0,0.414,0.336,0.75,0.75,0.75h1.996
		c0.414,0,0.75-0.336,0.75-0.75C97.032,146.892,96.696,146.556,96.282,146.556z"/>
	<path fill="#FFFFFF" d="M116.24,146.556h-1.996c-0.414,0-0.75,0.336-0.75,0.75c0,0.414,0.336,0.75,0.75,0.75h1.996
		c0.414,0,0.75-0.336,0.75-0.75C116.99,146.892,116.654,146.556,116.24,146.556z"/>
	<path fill="#FFFFFF" d="M91.293,146.556h-1.996c-0.414,0-0.75,0.336-0.75,0.75c0,0.414,0.336,0.75,0.75,0.75h1.996
		c0.414,0,0.75-0.336,0.75-0.75C92.043,146.892,91.707,146.556,91.293,146.556z"/>
	<path fill="#FFFFFF" d="M106.261,146.556h-1.996c-0.414,0-0.75,0.336-0.75,0.75c0,0.414,0.336,0.75,0.75,0.75h1.996
		c0.414,0,0.75-0.336,0.75-0.75C107.011,146.892,106.675,146.556,106.261,146.556z"/>
	<path fill="#FFFFFF" d="M141.188,146.556h-1.996c-0.414,0-0.75,0.336-0.75,0.75c0,0.414,0.336,0.75,0.75,0.75h1.996
		c0.414,0,0.75-0.336,0.75-0.75C141.938,146.892,141.602,146.556,141.188,146.556z"/>
	<path fill="#FFFFFF" d="M136.197,146.556h-1.995c-0.414,0-0.75,0.336-0.75,0.75c0,0.414,0.336,0.75,0.75,0.75h1.995
		c0.414,0,0.75-0.336,0.75-0.75C136.947,146.892,136.611,146.556,136.197,146.556z"/>
	<path fill="#FFFFFF" d="M126.219,146.556h-1.996c-0.414,0-0.75,0.336-0.75,0.75c0,0.414,0.336,0.75,0.75,0.75h1.996
		c0.414,0,0.75-0.336,0.75-0.75C126.969,146.892,126.633,146.556,126.219,146.556z"/>
	<path fill="#FFFFFF" d="M121.229,146.556h-1.996c-0.414,0-0.75,0.336-0.75,0.75c0,0.414,0.336,0.75,0.75,0.75h1.996
		c0.414,0,0.75-0.336,0.75-0.75C121.979,146.892,121.644,146.556,121.229,146.556z"/>
	<path fill="#FFFFFF" d="M131.208,146.556h-1.995c-0.414,0-0.75,0.336-0.75,0.75c0,0.414,0.336,0.75,0.75,0.75h1.995
		c0.414,0,0.75-0.336,0.75-0.75C131.958,146.892,131.622,146.556,131.208,146.556z"/>
	<path fill="#FFFFFF" d="M146.177,146.556h-1.996c-0.414,0-0.75,0.336-0.75,0.75c0,0.414,0.336,0.75,0.75,0.75h1.996
		c0.414,0,0.75-0.336,0.75-0.75C146.927,146.892,146.591,146.556,146.177,146.556z"/>
	<path fill="#FFFFFF" d="M51.377,146.556h-1.996c-0.414,0-0.75,0.336-0.75,0.75c0,0.414,0.336,0.75,0.75,0.75h1.996
		c0.414,0,0.75-0.336,0.75-0.75C52.127,146.892,51.792,146.556,51.377,146.556z"/>
	<path fill="#FFFFFF" d="M41.398,146.556h-1.996c-0.414,0-0.75,0.336-0.75,0.75c0,0.414,0.336,0.75,0.75,0.75h1.996
		c0.414,0,0.75-0.336,0.75-0.75C42.148,146.892,41.812,146.556,41.398,146.556z"/>
	<path fill="#FFFFFF" d="M46.388,146.556h-1.996c-0.414,0-0.75,0.336-0.75,0.75c0,0.414,0.336,0.75,0.75,0.75h1.996
		c0.414,0,0.75-0.336,0.75-0.75C47.138,146.892,46.802,146.556,46.388,146.556z"/>
	<path fill="#FFFFFF" d="M36.409,146.556h-1.996c-0.414,0-0.75,0.336-0.75,0.75c0,0.414,0.336,0.75,0.75,0.75h1.996
		c0.414,0,0.75-0.336,0.75-0.75C37.159,146.892,36.823,146.556,36.409,146.556z"/>
	<path fill="#FFFFFF" d="M31.419,146.556h-1.996c-0.414,0-0.75,0.336-0.75,0.75c0,0.414,0.336,0.75,0.75,0.75h1.996
		c0.414,0,0.75-0.336,0.75-0.75C32.169,146.892,31.833,146.556,31.419,146.556z"/>
	<path fill="#FFFFFF" d="M56.367,146.556h-1.996c-0.414,0-0.75,0.336-0.75,0.75c0,0.414,0.336,0.75,0.75,0.75h1.996
		c0.414,0,0.75-0.336,0.75-0.75C57.117,146.892,56.781,146.556,56.367,146.556z"/>
	<path fill="#FFFFFF" d="M76.325,146.556h-1.996c-0.414,0-0.75,0.336-0.75,0.75c0,0.414,0.336,0.75,0.75,0.75h1.996
		c0.414,0,0.75-0.336,0.75-0.75C77.075,146.892,76.739,146.556,76.325,146.556z"/>
	<path fill="#FFFFFF" d="M71.335,146.556h-1.996c-0.414,0-0.75,0.336-0.75,0.75c0,0.414,0.336,0.75,0.75,0.75h1.996
		c0.414,0,0.75-0.336,0.75-0.75C72.085,146.892,71.749,146.556,71.335,146.556z"/>
	<path fill="#FFFFFF" d="M61.356,146.556H59.36c-0.414,0-0.75,0.336-0.75,0.75c0,0.414,0.336,0.75,0.75,0.75h1.996
		c0.414,0,0.75-0.336,0.75-0.75C62.106,146.892,61.771,146.556,61.356,146.556z"/>
	<path fill="#FFFFFF" d="M66.346,146.556H64.35c-0.414,0-0.75,0.336-0.75,0.75c0,0.414,0.336,0.75,0.75,0.75h1.996
		c0.414,0,0.75-0.336,0.75-0.75C67.096,146.892,66.76,146.556,66.346,146.556z"/>
	<path fill="#FFFFFF" d="M81.314,146.556h-1.996c-0.414,0-0.75,0.336-0.75,0.75c0,0.414,0.336,0.75,0.75,0.75h1.996
		c0.414,0,0.75-0.336,0.75-0.75C82.064,146.892,81.728,146.556,81.314,146.556z"/>
	<path fill="#FFFFFF" d="M198.779,102.386c-0.414,0-0.75,0.336-0.75,0.75v1.996c0,0.414,0.336,0.75,0.75,0.75
		c0.414,0,0.75-0.336,0.75-0.75v-1.996C199.529,102.722,199.193,102.386,198.779,102.386z"/>
	<path fill="#FFFFFF" d="M198.779,112.365c-0.414,0-0.75,0.336-0.75,0.75v1.995c0,0.414,0.336,0.75,0.75,0.75
		c0.414,0,0.75-0.336,0.75-0.75v-1.995C199.529,112.701,199.193,112.365,198.779,112.365z"/>
	<path fill="#FFFFFF" d="M198.779,117.354c-0.414,0-0.75,0.336-0.75,0.75v1.995c0,0.414,0.336,0.75,0.75,0.75
		c0.414,0,0.75-0.336,0.75-0.75v-1.995C199.529,117.69,199.193,117.354,198.779,117.354z"/>
	<path fill="#FFFFFF" d="M198.779,107.375c-0.414,0-0.75,0.336-0.75,0.75v1.996c0,0.414,0.336,0.75,0.75,0.75
		c0.414,0,0.75-0.336,0.75-0.75v-1.996C199.529,107.711,199.193,107.375,198.779,107.375z"/>
	<path fill="#FFFFFF" d="M198.779,122.344c-0.414,0-0.75,0.336-0.75,0.75v1.996c0,0.414,0.336,0.75,0.75,0.75
		c0.414,0,0.75-0.336,0.75-0.75v-1.996C199.529,122.68,199.193,122.344,198.779,122.344z"/>
	<path fill="#FFFFFF" d="M198.779,127.333c-0.414,0-0.75,0.336-0.75,0.75v1.996c0,0.414,0.336,0.75,0.75,0.75
		c0.414,0,0.75-0.336,0.75-0.75v-1.996C199.529,127.669,199.193,127.333,198.779,127.333z"/>
	<path fill="#FFFFFF" d="M21.4,146.556c-0.565,0-1.109-0.12-1.617-0.355c-0.376-0.175-0.821-0.013-0.997,0.363
		c-0.174,0.376-0.012,0.821,0.364,0.996c0.708,0.329,1.464,0.496,2.25,0.496h0.041c0.414,0,0.73-0.336,0.73-0.75
		C22.171,146.892,21.815,146.556,21.4,146.556z"/>
	<path fill="#FFFFFF" d="M198.779,82.428c-0.414,0-0.75,0.336-0.75,0.75v1.996c0,0.414,0.336,0.75,0.75,0.75
		c0.414,0,0.75-0.336,0.75-0.75v-1.996C199.529,82.764,199.193,82.428,198.779,82.428z"/>
	<path fill="#FFFFFF" d="M198.779,77.439c-0.414,0-0.75,0.336-0.75,0.75v1.996c0,0.414,0.336,0.75,0.75,0.75
		c0.414,0,0.75-0.336,0.75-0.75v-1.996C199.529,77.775,199.193,77.439,198.779,77.439z"/>
	<path fill="#FFFFFF" d="M198.779,132.322c-0.414,0-0.75,0.336-0.75,0.75v1.996c0,0.414,0.336,0.75,0.75,0.75
		c0.414,0,0.75-0.336,0.75-0.75v-1.996C199.529,132.658,199.193,132.322,198.779,132.322z"/>
	<path fill="#FFFFFF" d="M198.779,87.418c-0.414,0-0.75,0.336-0.75,0.75v1.996c0,0.414,0.336,0.75,0.75,0.75
		c0.414,0,0.75-0.336,0.75-0.75v-1.996C199.529,87.753,199.193,87.418,198.779,87.418z"/>
	<path fill="#FFFFFF" d="M198.779,92.407c-0.414,0-0.75,0.336-0.75,0.75v1.996c0,0.414,0.336,0.75,0.75,0.75
		c0.414,0,0.75-0.336,0.75-0.75v-1.996C199.529,92.743,199.193,92.407,198.779,92.407z"/>
	<path fill="#FFFFFF" d="M198.779,97.396c-0.414,0-0.75,0.336-0.75,0.75v1.996c0,0.414,0.336,0.75,0.75,0.75
		c0.414,0,0.75-0.336,0.75-0.75v-1.996C199.529,97.732,199.193,97.396,198.779,97.396z"/>
	<path fill="#FFFFFF" d="M166.135,146.556h-1.996c-0.414,0-0.75,0.336-0.75,0.75c0,0.414,0.336,0.75,0.75,0.75h1.996
		c0.414,0,0.75-0.336,0.75-0.75C166.885,146.892,166.549,146.556,166.135,146.556z"/>
	<path fill="#FFFFFF" d="M171.124,146.556h-1.996c-0.414,0-0.75,0.336-0.75,0.75c0,0.414,0.336,0.75,0.75,0.75h1.996
		c0.414,0,0.75-0.336,0.75-0.75C171.874,146.892,171.538,146.556,171.124,146.556z"/>
	<path fill="#FFFFFF" d="M176.113,146.556h-1.996c-0.414,0-0.75,0.336-0.75,0.75c0,0.414,0.336,0.75,0.75,0.75h1.996
		c0.414,0,0.75-0.336,0.75-0.75C176.863,146.892,176.527,146.556,176.113,146.556z"/>
	<path fill="#FFFFFF" d="M181.102,146.556h-1.996c-0.414,0-0.75,0.336-0.75,0.75c0,0.414,0.336,0.75,0.75,0.75h1.996
		c0.414,0,0.75-0.336,0.75-0.75C181.852,146.892,181.517,146.556,181.102,146.556z"/>
	<path fill="#FFFFFF" d="M151.166,146.556h-1.996c-0.414,0-0.75,0.336-0.75,0.75c0,0.414,0.336,0.75,0.75,0.75h1.996
		c0.414,0,0.75-0.336,0.75-0.75C151.916,146.892,151.58,146.556,151.166,146.556z"/>
	<path fill="#FFFFFF" d="M156.155,146.556h-1.995c-0.414,0-0.75,0.336-0.75,0.75c0,0.414,0.336,0.75,0.75,0.75h1.995
		c0.414,0,0.75-0.336,0.75-0.75C156.905,146.892,156.569,146.556,156.155,146.556z"/>
	<path fill="#FFFFFF" d="M161.145,146.556h-1.995c-0.414,0-0.75,0.336-0.75,0.75c0,0.414,0.336,0.75,0.75,0.75h1.995
		c0.414,0,0.75-0.336,0.75-0.75C161.895,146.892,161.559,146.556,161.145,146.556z"/>
	<path fill="#FFFFFF" d="M198.779,137.312c-0.414,0-0.75,0.336-0.75,0.75v1.995c0,0.414,0.336,0.75,0.75,0.75
		c0.414,0,0.75-0.336,0.75-0.75v-1.995C199.529,137.648,199.193,137.312,198.779,137.312z"/>
	<path fill="#FFFFFF" d="M186.092,146.556h-1.995c-0.414,0-0.75,0.336-0.75,0.75c0,0.414,0.336,0.75,0.75,0.75h1.995
		c0.414,0,0.75-0.336,0.75-0.75C186.842,146.892,186.506,146.556,186.092,146.556z"/>
	<path fill="#FFFFFF" d="M198.717,75.947c0.034,0,0.068-0.003,0.102-0.007c0.41-0.056,0.697-0.435,0.642-0.845
		c-0.104-0.764-0.378-1.511-0.791-2.16c-0.222-0.35-0.686-0.454-1.035-0.23c-0.35,0.222-0.453,0.686-0.23,1.035
		c0.298,0.468,0.495,1.007,0.57,1.559C198.026,75.675,198.348,75.947,198.717,75.947z"/>
	<path fill="#FFFFFF" d="M198.822,142.303c-0.402-0.016-0.773,0.279-0.804,0.692c-0.042,0.561-0.202,1.094-0.478,1.584
		c-0.202,0.361-0.074,0.818,0.287,1.021c0.116,0.064,0.242,0.096,0.366,0.096c0.263,0,0.518-0.138,0.655-0.383
		c0.383-0.684,0.607-1.426,0.665-2.207C199.545,142.693,199.235,142.334,198.822,142.303z"/>
	<path fill="#FFFFFF" d="M191.081,146.556h-1.995c-0.414,0-0.75,0.336-0.75,0.75c0,0.414,0.336,0.75,0.75,0.75h1.995
		c0.414,0,0.75-0.336,0.75-0.75C191.831,146.892,191.495,146.556,191.081,146.556z"/>
	<path fill="#FFFFFF" d="M195.718,146.234c-0.486,0.213-1.004,0.32-1.538,0.321h-0.104c-0.414,0-0.75,0.336-0.75,0.75
		c0,0.414,0.336,0.75,0.75,0.75h0.105c0.742-0.001,1.461-0.151,2.137-0.446c0.38-0.166,0.554-0.608,0.388-0.987
		C196.539,146.241,196.098,146.073,195.718,146.234z"/>
	<path fill="#FFFFFF" d="M26.43,146.556h-1.996c-0.414,0-0.75,0.336-0.75,0.75c0,0.414,0.336,0.75,0.75,0.75h1.996
		c0.414,0,0.75-0.336,0.75-0.75C27.18,146.892,26.844,146.556,26.43,146.556z"/>
	<path fill="#FFFFFF" d="M114.333,67.473h1.995c0.414,0,0.75-0.336,0.75-0.75c0-0.414-0.336-0.75-0.75-0.75h-1.995
		c-0.414,0-0.75,0.336-0.75,0.75C113.583,67.137,113.919,67.473,114.333,67.473z"/>
	<path fill="#FFFFFF" d="M119.322,67.473h1.995c0.414,0,0.75-0.336,0.75-0.75c0-0.414-0.336-0.75-0.75-0.75h-1.995
		c-0.414,0-0.75,0.336-0.75,0.75C118.572,67.137,118.908,67.473,119.322,67.473z"/>
	<path fill="#FFFFFF" d="M109.343,67.473h1.996c0.414,0,0.75-0.336,0.75-0.75c0-0.414-0.336-0.75-0.75-0.75h-1.996
		c-0.414,0-0.75,0.336-0.75,0.75C108.593,67.137,108.929,67.473,109.343,67.473z"/>
	<path fill="#FFFFFF" d="M16.978,72.835c-0.427,0.641-0.718,1.381-0.84,2.141c-0.066,0.409,0.212,0.794,0.621,0.859
		c0.04,0.007,0.081,0.01,0.12,0.01c0.362,0,0.68-0.262,0.739-0.631c0.088-0.549,0.298-1.083,0.607-1.547
		c0.23-0.344,0.137-0.81-0.208-1.04C17.673,72.398,17.208,72.491,16.978,72.835z"/>
	<path fill="#FFFFFF" d="M104.354,67.473h1.996c0.414,0,0.75-0.336,0.75-0.75c0-0.414-0.336-0.75-0.75-0.75h-1.996
		c-0.414,0-0.75,0.336-0.75,0.75C103.604,67.137,103.939,67.473,104.354,67.473z"/>
	<path fill="#FFFFFF" d="M129.301,67.473h1.996c0.414,0,0.75-0.336,0.75-0.75c0-0.414-0.336-0.75-0.75-0.75h-1.996
		c-0.414,0-0.75,0.336-0.75,0.75C128.551,67.137,128.887,67.473,129.301,67.473z"/>
	<path fill="#FFFFFF" d="M124.312,67.473h1.996c0.414,0,0.75-0.336,0.75-0.75c0-0.414-0.336-0.75-0.75-0.75h-1.996
		c-0.414,0-0.75,0.336-0.75,0.75C123.562,67.137,123.897,67.473,124.312,67.473z"/>
	<path fill="#FFFFFF" d="M99.364,67.473h1.996c0.414,0,0.75-0.336,0.75-0.75c0-0.414-0.336-0.75-0.75-0.75h-1.996
		c-0.414,0-0.75,0.336-0.75,0.75C98.614,67.137,98.95,67.473,99.364,67.473z"/>
	<path fill="#FFFFFF" d="M79.407,67.473h1.996c0.414,0,0.75-0.336,0.75-0.75c0-0.414-0.336-0.75-0.75-0.75h-1.996
		c-0.414,0-0.75,0.336-0.75,0.75C78.657,67.137,78.993,67.473,79.407,67.473z"/>
	<path fill="#FFFFFF" d="M84.396,67.473h1.996c0.414,0,0.75-0.336,0.75-0.75c0-0.414-0.336-0.75-0.75-0.75h-1.996
		c-0.414,0-0.75,0.336-0.75,0.75C83.646,67.137,83.982,67.473,84.396,67.473z"/>
	<path fill="#FFFFFF" d="M94.375,67.473h1.996c0.414,0,0.75-0.336,0.75-0.75c0-0.414-0.336-0.75-0.75-0.75h-1.996
		c-0.414,0-0.75,0.336-0.75,0.75C93.625,67.137,93.961,67.473,94.375,67.473z"/>
	<path fill="#FFFFFF" d="M89.385,67.473h1.996c0.414,0,0.75-0.336,0.75-0.75c0-0.414-0.336-0.75-0.75-0.75h-1.996
		c-0.414,0-0.75,0.336-0.75,0.75C88.635,67.137,88.971,67.473,89.385,67.473z"/>
	<path fill="#FFFFFF" d="M171.172,67.995c0.358,0,0.676-0.258,0.738-0.623c0.07-0.408-0.204-0.796-0.612-0.866l-1.896-0.325
		l-0.032-0.007l-0.166,0.731l-0.095,0.747l1.935,0.333C171.087,67.992,171.13,67.995,171.172,67.995z"/>
	<path fill="#FFFFFF" d="M178.912,69.335l1.967,0.338c0.043,0.007,0.086,0.011,0.128,0.011c0.358,0,0.676-0.258,0.738-0.623
		c0.07-0.408-0.204-0.796-0.612-0.866l-1.967-0.338c-0.407-0.067-0.797,0.205-0.866,0.612
		C178.229,68.877,178.504,69.265,178.912,69.335z"/>
	<path fill="#FFFFFF" d="M183.829,70.18l1.967,0.338c0.043,0.007,0.086,0.011,0.128,0.011c0.358,0,0.676-0.258,0.738-0.623
		c0.07-0.408-0.204-0.796-0.612-0.866l-1.967-0.338c-0.408-0.069-0.797,0.204-0.866,0.612
		C183.146,69.722,183.421,70.11,183.829,70.18z"/>
	<path fill="#FFFFFF" d="M74.417,67.473h1.996c0.414,0,0.75-0.336,0.75-0.75c0-0.414-0.336-0.75-0.75-0.75h-1.996
		c-0.414,0-0.75,0.336-0.75,0.75C73.667,67.137,74.003,67.473,74.417,67.473z"/>
	<path fill="#FFFFFF" d="M173.994,68.491l1.967,0.338c0.043,0.007,0.086,0.011,0.128,0.011c0.358,0,0.676-0.258,0.738-0.623
		c0.07-0.408-0.204-0.796-0.612-0.866l-1.967-0.338c-0.41-0.07-0.796,0.204-0.866,0.612
		C173.311,68.033,173.586,68.421,173.994,68.491z"/>
	<path fill="#FFFFFF" d="M188.747,71.025l1.967,0.338c0.043,0.007,0.086,0.011,0.128,0.011c0.358,0,0.676-0.258,0.738-0.623
		c0.07-0.408-0.204-0.796-0.612-0.866l-1.967-0.338c-0.409-0.066-0.796,0.204-0.866,0.612
		C188.064,70.567,188.339,70.955,188.747,71.025z"/>
	<path fill="#FFFFFF" d="M193.664,71.87l1.872,0.322c0.07,0.021,0.143,0.032,0.214,0.032c0.273,0,0.535-0.154,0.667-0.418
		c0.185-0.37,0.026-0.825-0.345-1.011l-2.154-0.403c-0.41-0.068-0.796,0.205-0.866,0.612
		C192.981,71.412,193.256,71.799,193.664,71.87z"/>
	<path fill="#FFFFFF" d="M159.237,67.473h1.996c0.414,0,0.75-0.336,0.75-0.75c0-0.414-0.336-0.75-0.75-0.75h-1.996
		c-0.414,0-0.75,0.336-0.75,0.75C158.487,67.137,158.823,67.473,159.237,67.473z"/>
	<path fill="#FFFFFF" d="M144.27,67.473h1.995c0.414,0,0.75-0.336,0.75-0.75c0-0.414-0.336-0.75-0.75-0.75h-1.995
		c-0.414,0-0.75,0.336-0.75,0.75C143.52,67.137,143.855,67.473,144.27,67.473z"/>
	<path fill="#FFFFFF" d="M149.259,67.473h1.995c0.414,0,0.75-0.336,0.75-0.75c0-0.414-0.336-0.75-0.75-0.75h-1.995
		c-0.414,0-0.75,0.336-0.75,0.75C148.509,67.137,148.845,67.473,149.259,67.473z"/>
	<path fill="#FFFFFF" d="M139.279,67.473h1.996c0.414,0,0.75-0.336,0.75-0.75c0-0.414-0.336-0.75-0.75-0.75h-1.996
		c-0.414,0-0.75,0.336-0.75,0.75C138.529,67.137,138.865,67.473,139.279,67.473z"/>
	<path fill="#FFFFFF" d="M164.227,67.473h1.996c0.414,0,0.75-0.336,0.75-0.75c0-0.414-0.336-0.75-0.75-0.75h-1.996
		c-0.414,0-0.75,0.336-0.75,0.75C163.477,67.137,163.812,67.473,164.227,67.473z"/>
	<path fill="#FFFFFF" d="M154.248,67.473h1.996c0.414,0,0.75-0.336,0.75-0.75c0-0.414-0.336-0.75-0.75-0.75h-1.996
		c-0.414,0-0.75,0.336-0.75,0.75C153.498,67.137,153.834,67.473,154.248,67.473z"/>
	<path fill="#FFFFFF" d="M134.29,67.473h1.996c0.414,0,0.75-0.336,0.75-0.75c0-0.414-0.336-0.75-0.75-0.75h-1.996
		c-0.414,0-0.75,0.336-0.75,0.75C133.54,67.137,133.876,67.473,134.29,67.473z"/>
	<path fill="#FFFFFF" d="M16.8,110.767c0.414,0,0.75-0.336,0.75-0.75v-1.995c0-0.414-0.336-0.75-0.75-0.75
		c-0.414,0-0.75,0.336-0.75,0.75v1.995C16.05,110.431,16.386,110.767,16.8,110.767z"/>
	<path fill="#FFFFFF" d="M16.8,115.756c0.414,0,0.75-0.336,0.75-0.75v-1.995c0-0.414-0.336-0.75-0.75-0.75
		c-0.414,0-0.75,0.336-0.75,0.75v1.995C16.05,115.42,16.386,115.756,16.8,115.756z"/>
	<path fill="#FFFFFF" d="M16.8,90.809c0.414,0,0.75-0.336,0.75-0.75v-1.996c0-0.414-0.336-0.75-0.75-0.75
		c-0.414,0-0.75,0.336-0.75,0.75v1.996C16.05,90.473,16.386,90.809,16.8,90.809z"/>
	<path fill="#FFFFFF" d="M16.8,95.798c0.414,0,0.75-0.336,0.75-0.75v-1.996c0-0.414-0.336-0.75-0.75-0.75
		c-0.414,0-0.75,0.336-0.75,0.75v1.996C16.05,95.462,16.386,95.798,16.8,95.798z"/>
	<path fill="#FFFFFF" d="M16.8,120.746c0.414,0,0.75-0.336,0.75-0.75V118c0-0.414-0.336-0.75-0.75-0.75
		c-0.414,0-0.75,0.336-0.75,0.75v1.996C16.05,120.41,16.386,120.746,16.8,120.746z"/>
	<path fill="#FFFFFF" d="M16.8,100.788c0.414,0,0.75-0.336,0.75-0.75v-1.996c0-0.414-0.336-0.75-0.75-0.75
		c-0.414,0-0.75,0.336-0.75,0.75v1.996C16.05,100.452,16.386,100.788,16.8,100.788z"/>
	<path fill="#FFFFFF" d="M16.8,105.777c0.414,0,0.75-0.336,0.75-0.75v-1.996c0-0.414-0.336-0.75-0.75-0.75
		c-0.414,0-0.75,0.336-0.75,0.75v1.996C16.05,105.441,16.386,105.777,16.8,105.777z"/>
	<path fill="#FFFFFF" d="M16.8,140.703c0.414,0,0.75-0.336,0.75-0.75v-1.995c0-0.414-0.336-0.75-0.75-0.75
		c-0.414,0-0.75,0.336-0.75,0.75v1.995C16.05,140.367,16.386,140.703,16.8,140.703z"/>
	<path fill="#FFFFFF" d="M17.556,142.907c-0.021-0.414-0.386-0.743-0.788-0.71c-0.414,0.021-0.731,0.374-0.71,0.788
		c0.041,0.782,0.247,1.529,0.614,2.221c0.135,0.254,0.395,0.398,0.663,0.398c0.119,0,0.239-0.028,0.351-0.088
		c0.366-0.193,0.505-0.648,0.311-1.014C17.733,144.007,17.585,143.47,17.556,142.907z"/>
	<path fill="#FFFFFF" d="M16.8,125.735c0.414,0,0.75-0.336,0.75-0.75v-1.996c0-0.414-0.336-0.75-0.75-0.75
		c-0.414,0-0.75,0.336-0.75,0.75v1.996C16.05,125.399,16.386,125.735,16.8,125.735z"/>
	<path fill="#FFFFFF" d="M16.8,130.725c0.414,0,0.75-0.336,0.75-0.75v-1.996c0-0.414-0.336-0.75-0.75-0.75
		c-0.414,0-0.75,0.336-0.75,0.75v1.996C16.05,130.389,16.386,130.725,16.8,130.725z"/>
	<path fill="#FFFFFF" d="M16.8,135.714c0.414,0,0.75-0.336,0.75-0.75v-1.995c0-0.414-0.336-0.75-0.75-0.75
		c-0.414,0-0.75,0.336-0.75,0.75v1.995C16.05,135.378,16.386,135.714,16.8,135.714z"/>
	<path fill="#FFFFFF" d="M34.684,69.696c0.042,0,0.083-0.003,0.125-0.01l1.968-0.331c0.409-0.069,0.684-0.456,0.615-0.864
		c-0.069-0.409-0.462-0.684-0.864-0.615l-1.968,0.332c-0.409,0.069-0.684,0.456-0.615,0.864
		C34.007,69.437,34.324,69.696,34.684,69.696z"/>
	<path fill="#FFFFFF" d="M54.459,67.473h1.996c0.414,0,0.75-0.336,0.75-0.75c0-0.414-0.336-0.75-0.75-0.75h-1.996
		c-0.414,0-0.75,0.336-0.75,0.75C53.709,67.137,54.045,67.473,54.459,67.473z"/>
	<path fill="#FFFFFF" d="M39.604,68.867c0.042,0,0.083-0.003,0.126-0.01l1.968-0.332c0.408-0.069,0.684-0.456,0.615-0.865
		c-0.069-0.409-0.454-0.684-0.865-0.615l-1.968,0.332c-0.408,0.069-0.684,0.456-0.615,0.865
		C38.927,68.608,39.244,68.867,39.604,68.867z"/>
	<path fill="#FFFFFF" d="M16.8,85.82c0.414,0,0.75-0.336,0.75-0.75v-1.996c0-0.414-0.336-0.75-0.75-0.75
		c-0.414,0-0.75,0.336-0.75,0.75v1.996C16.05,85.484,16.386,85.82,16.8,85.82z"/>
	<path fill="#FFFFFF" d="M49.47,67.473h1.996c0.414,0,0.75-0.336,0.75-0.75c0-0.414-0.336-0.75-0.75-0.75H49.47
		c-0.414,0-0.75,0.336-0.75,0.75C48.72,67.137,49.056,67.473,49.47,67.473z"/>
	<path fill="#FFFFFF" d="M64.438,67.473h1.996c0.414,0,0.75-0.336,0.75-0.75c0-0.414-0.336-0.75-0.75-0.75h-1.996
		c-0.414,0-0.75,0.336-0.75,0.75C63.688,67.137,64.024,67.473,64.438,67.473z"/>
	<path fill="#FFFFFF" d="M59.449,67.473h1.996c0.414,0,0.75-0.336,0.75-0.75c0-0.414-0.336-0.75-0.75-0.75h-1.996
		c-0.414,0-0.75,0.336-0.75,0.75C58.699,67.137,59.035,67.473,59.449,67.473z"/>
	<path fill="#FFFFFF" d="M44.523,68.038c0.042,0,0.083-0.003,0.125-0.01l1.968-0.332c0.409-0.069,0.684-0.456,0.615-0.864
		c-0.069-0.409-0.459-0.685-0.864-0.615L44.4,66.548c-0.409,0.069-0.684,0.456-0.615,0.864
		C43.847,67.778,44.164,68.038,44.523,68.038z"/>
	<path fill="#FFFFFF" d="M16.8,80.83c0.414,0,0.75-0.336,0.75-0.75v-1.996c0-0.414-0.336-0.75-0.75-0.75
		c-0.414,0-0.75,0.336-0.75,0.75v1.996C16.05,80.494,16.386,80.83,16.8,80.83z"/>
	<path fill="#FFFFFF" d="M69.428,67.473h1.996c0.414,0,0.75-0.336,0.75-0.75c0-0.414-0.336-0.75-0.75-0.75h-1.996
		c-0.414,0-0.75,0.336-0.75,0.75C68.678,67.137,69.014,67.473,69.428,67.473z"/>
	<path fill="#FFFFFF" d="M19.973,72.176c0.054,0,0.108-0.005,0.162-0.017l1.882-0.317c0.409-0.069,0.684-0.456,0.615-0.864
		c-0.069-0.409-0.459-0.681-0.864-0.615l-1.906,0.321l-0.226,0.074c-0.381,0.162-0.531,0.589-0.369,0.971
		C19.386,72.012,19.675,72.176,19.973,72.176z"/>
	<path fill="#FFFFFF" d="M29.763,70.525c0.042,0,0.083-0.003,0.125-0.01l1.968-0.332c0.409-0.069,0.684-0.456,0.615-0.864
		c-0.069-0.409-0.462-0.683-0.864-0.615l-1.968,0.332c-0.409,0.069-0.684,0.456-0.615,0.864
		C29.086,70.266,29.404,70.525,29.763,70.525z"/>
	<path fill="#FFFFFF" d="M24.843,71.355c0.042,0,0.083-0.003,0.125-0.01l1.968-0.331c0.409-0.069,0.684-0.456,0.615-0.864
		c-0.069-0.409-0.461-0.682-0.864-0.615l-1.968,0.331c-0.409,0.069-0.684,0.456-0.615,0.864
		C24.167,71.096,24.484,71.355,24.843,71.355z"/>
</g>
</svg>
