<?xml version="1.0" encoding="utf-8"?>
<!-- Generator: Adobe Illustrator 17.1.0, SVG Export Plug-In . SVG Version: 6.00 Build 0)  -->
<!DOCTYPE svg PUBLIC "-//W3C//DTD SVG 1.1//EN" "http://www.w3.org/Graphics/SVG/1.1/DTD/svg11.dtd">
<svg version="1.1" id="Layer_1" xmlns="http://www.w3.org/2000/svg" xmlns:xlink="http://www.w3.org/1999/xlink" x="0px" y="0px"
	 viewBox="0 0 216 216" enable-background="new 0 0 216 216" xml:space="preserve">
<g>
	<g>
		<path fill="#FFFFFF" d="M112.33,107.808c0.098,0,0.195-0.029,0.281-0.086l14.396-9.668c0.229-0.154,0.288-0.465,0.134-0.693
			c-0.155-0.229-0.466-0.289-0.695-0.135l-14.396,9.668c-0.229,0.154-0.288,0.465-0.133,0.693
			C112.014,107.729,112.171,107.808,112.33,107.808z"/>
		<path fill="#FFFFFF" d="M108.054,114.466c0.097,0,0.194-0.029,0.28-0.086l11.401-7.703c0.229-0.154,0.29-0.467,0.135-0.695
			c-0.154-0.229-0.467-0.287-0.694-0.133l-11.402,7.701c-0.229,0.156-0.29,0.467-0.134,0.695
			C107.735,114.388,107.894,114.466,108.054,114.466z"/>
		<path fill="#FFFFFF" d="M83.368,122.513h49.278c1.377,0,2.496-1.197,2.496-2.67v-28.57c0-1.471-1.119-2.67-2.496-2.67H83.368
			c-1.376,0-2.497,1.199-2.497,2.67v28.57C80.871,121.315,81.992,122.513,83.368,122.513z M82.371,91.273
			c0-0.645,0.448-1.17,0.997-1.17h49.278c0.55,0,0.996,0.525,0.996,1.17v28.57c0,0.645-0.446,1.17-0.996,1.17H83.368
			c-0.549,0-0.997-0.525-0.997-1.17V91.273z"/>
		<g>
			<path fill="#FFFFFF" d="M135.324,84.29H80.676c-2.231,0-4.047,1.816-4.047,4.049v33.949c0,2.232,1.814,4.049,4.047,4.049h17.759
				v3.373h-5.458c-0.553,0-1,0.447-1,1c0,0.553,0.447,1,1,1h5.458h19.132h5.458c0.553,0,1-0.447,1-1c0-0.553-0.447-1-1-1h-5.458
				v-3.373h17.758c2.231,0,4.047-1.816,4.047-4.049V88.339C139.371,86.106,137.557,84.29,135.324,84.29z M100.435,129.71v-3.008
				h15.132v3.008H100.435z M137.371,122.388c0,1.129-0.917,2.047-2.047,2.047H80.676c-1.129,0-2.047-0.918-2.047-2.047V88.339
				c0-1.129,0.918-2.049,2.047-2.049h54.648c1.13,0,2.047,0.92,2.047,2.049V122.388z"/>
		</g>
	</g>
</g>
</svg>
