<?xml version="1.0" encoding="utf-8"?>
<!-- Generator: Adobe Illustrator 17.1.0, SVG Export Plug-In . SVG Version: 6.00 Build 0)  -->
<!DOCTYPE svg PUBLIC "-//W3C//DTD SVG 1.1//EN" "http://www.w3.org/Graphics/SVG/1.1/DTD/svg11.dtd">
<svg version="1.1" id="Layer_1" xmlns="http://www.w3.org/2000/svg" xmlns:xlink="http://www.w3.org/1999/xlink" x="0px" y="0px"
	 viewBox="0 0 144 144" enable-background="new 0 0 144 144" xml:space="preserve">
<g>
	<path fill="#FFFFFF" d="M93.579,40.38c0.086-0.329-0.052-0.681-0.368-0.837l-6.68-3.268c-0.101-0.049-0.209-0.074-0.317-0.074
		H58.795c-0.098,0-0.195,0.019-0.285,0.059l-7.686,3.267c-0.337,0.144-0.498,0.51-0.405,0.854c-0.016,0.062-0.037,0.121-0.037,0.188
		v30.33v12.026c0,0.019,0.008,0.033,0.008,0.048c0,0.017-0.008,0.03-0.008,0.048v12.026v12.027c0,0.399,0.324,0.725,0.727,0.725
		h41.782c0.401,0,0.726-0.325,0.726-0.725V95.047V83.021c0-0.018-0.01-0.03-0.01-0.048c0-0.015,0.01-0.029,0.01-0.048V70.898v-30.33
		C93.617,40.501,93.596,40.442,93.579,40.38z M58.942,37.653h27.102l4.476,2.19H53.793L58.942,37.653z M51.835,94.322V83.749
		 M51.835,82.2V71.625 M51.835,70.171V41.294h40.329v3.747v57.828v3.479H51.835V95.773V70.171z"/>
	<rect x="54.856" y="40.719" fill="#FFFFFF" width="1.463" height="66.375"/>
	<rect x="88.409" y="40.719" fill="#FFFFFF" width="1.464" height="66.375"/>
	<path fill="#FFFFFF" d="M89.142,83.057h-3.293c-0.203,0-0.366-0.164-0.366-0.366V71.953c0-0.203,0.163-0.366,0.366-0.366h3.293
		v0.732h-2.928v10.006h2.928V83.057z"/>
	<path fill="#FFFFFF" d="M77.243,60.717H66.506c-0.202,0-0.365-0.164-0.365-0.366v-5.613c0-0.202,0.164-0.365,0.365-0.365h10.737
		c0.204,0,0.366,0.164,0.366,0.365v5.613C77.609,60.553,77.447,60.717,77.243,60.717z M66.873,59.984h10.006v-4.88H66.873V59.984z"
		/>
	<rect x="55.71" y="47.062" fill="#FFFFFF" width="33.31" height="0.733"/>
	<circle fill="#FFFFFF" cx="69.063" cy="57.556" r="0.999"/>
	<circle fill="#FFFFFF" cx="71.899" cy="57.556" r="0.999"/>
	<circle fill="#FFFFFF" cx="74.737" cy="57.556" r="0.999"/>
</g>
</svg>
