<svg data-name="Layer 1" xmlns="http://www.w3.org/2000/svg" viewBox="0 0 59.37 65.16"><title>Icon_RH_Objects_CoffeeMug_RGB_Black</title><path d="M15.48 13.56a7.67 7.67 0 0 0 2.65 5.43 1 1 0 0 0 1.4-.14 1 1 0 0 0-.13-1.41 5.72 5.72 0 0 1-1.92-3.92c0-1.13 1.19-2.59 2.25-3.87 1.19-1.46 2.32-2.83 2.32-4.25 0-2.63-2.55-4.94-2.84-5.19a1 1 0 0 0-1.32 1.5c.6.53 2.16 2.22 2.16 3.69 0 .71-1 1.92-1.86 3-1.34 1.64-2.71 3.32-2.71 5.16zm17.64 0a7.67 7.67 0 0 0 2.64 5.43 1 1 0 0 0 .63.23 1 1 0 0 0 .64-1.77 5.72 5.72 0 0 1-1.92-3.92c0-1.13 1.19-2.59 2.25-3.87 1.19-1.46 2.32-2.83 2.32-4.25 0-2.63-2.55-4.94-2.84-5.19a1 1 0 0 0-1.32 1.5c.6.53 2.16 2.22 2.16 3.69 0 .71-1 1.92-1.87 3-1.32 1.63-2.69 3.31-2.69 5.15zm-8.81 0a7.67 7.67 0 0 0 2.64 5.43 1 1 0 1 0 1.27-1.54 5.64 5.64 0 0 1-1.92-3.92c0-1.13 1.19-2.59 2.25-3.87 1.19-1.46 2.32-2.83 2.32-4.25 0-2.63-2.55-4.94-2.84-5.19a1 1 0 1 0-1.32 1.5c.6.53 2.16 2.21 2.16 3.69 0 .71-1 1.92-1.86 3-1.33 1.63-2.7 3.31-2.7 5.15zm21.57 7.3H7.3a1 1 0 0 0-1 1.1c.3 3 3 29.69 7.16 33.17a1 1 0 0 0 .64.23h27a1 1 0 0 0 .64-.23c.71-.6 1.8-2 3.13-7.3h1a13.5 13.5 0 0 0 0-27zm0 25a11.66 11.66 0 0 1-1.62-.11 1 1 0 0 0-1.11.76c-1.09 4.6-2 6.26-2.46 6.85H14.52c-2.48-3-5-19.63-6.12-30.5h37.47a11.5 11.5 0 0 1 0 23zm8.28 10.5H1a1 1 0 0 0-.85 1.53c2.26 3.59 4.94 5.4 10.62 7.21a1 1 0 0 0 .3 0h33a1 1 0 0 0 .3 0c5.68-1.81 8.36-3.63 10.62-7.21a1 1 0 0 0-.85-1.53zm-10.24 6.8H11.24c-4.21-1.35-6.51-2.64-8.29-4.79h49.26c-1.78 2.15-4.08 3.44-8.29 4.79zm3.38-37a1 1 0 0 0-.78.18 1 1 0 0 0-.4.69c-.45 3.77-1.19 9.34-2.14 14.46a1 1 0 0 0 .88 1.18 8.66 8.66 0 0 0 .88 0 8.35 8.35 0 0 0 1.57-16.55zM46.15 40.7c.77-4.34 1.39-8.86 1.81-12.28a6.35 6.35 0 0 1-1.81 12.28z"/></svg>