<svg data-name="Layer 1" xmlns="http://www.w3.org/2000/svg" viewBox="0 0 50.1 60.67"><title>Icon_RH_Objects_PaperCup_RGB_Black</title><path d="M42.13.52C37.56.18 31.5 0 25.05 0S12.54.19 7.97.52c-7.59.56-8 1.22-8 2.25 0 .64.15 1.13 2.06 1.55L7.6 56.73c.17 3.74 14.55 3.93 17.45 3.93s17.29-.19 17.45-3.94l5.55-52.4c1.91-.42 2.06-.91 2.06-1.55-.06-1.03-.4-1.69-7.98-2.25zM25.05 2c9 0 15.89.36 19.8.77-3.9.41-10.76.77-19.8.77S9.16 3.18 5.26 2.77C9.15 2.36 16.05 2 25.05 2zm15.46 54.52c-.71.75-5.94 2.15-15.46 2.15S10.3 57.28 9.59 56.52L4.11 4.65c1 .13 2.28.25 3.87.37 4.57.34 10.63.52 17.08.52s12.51-.19 17.08-.52c1.59-.12 2.85-.24 3.87-.37z"/></svg>