<?xml version="1.0" encoding="utf-8"?>
<!-- Generator: Adobe Illustrator 17.1.0, SVG Export Plug-In . SVG Version: 6.00 Build 0)  -->
<!DOCTYPE svg PUBLIC "-//W3C//DTD SVG 1.1//EN" "http://www.w3.org/Graphics/SVG/1.1/DTD/svg11.dtd">
<svg version="1.1" id="Layer_1" xmlns="http://www.w3.org/2000/svg" xmlns:xlink="http://www.w3.org/1999/xlink" x="0px" y="0px"
	 viewBox="0 0 108 108" enable-background="new 0 0 108 108" xml:space="preserve">
<g>
	<path fill="#FFFFFF" d="M43.136,19.15c-0.004,0-0.007,0.002-0.011,0.003v-0.008h-19.5v0.01c-0.484-0.006-0.974,0.396-1,0.927
		l-1.127,21.743c0,4.862,2.954,9.201,7.412,11.015v38.545c0,0.258,0.104,0.486,0.265,0.662l-0.009,0.008
		c0.822,0.873,2.409,1.888,4.333,1.888c1.37,0,2.91-0.515,4.464-1.96l-0.016-0.017c0.218-0.18,0.365-0.441,0.365-0.747V52.656
		c4.203-1.913,6.984-6.181,6.983-10.882l-1.126-21.692C44.142,19.54,43.637,19.125,43.136,19.15z M36.971,51.092
		c-0.917,0.353-1.885,0.569-2.874,0.638c-0.543,0.039-0.952,0.509-0.913,1.052c0.036,0.519,0.469,0.917,0.981,0.917
		c0.023,0,0.047-0.002,0.07-0.002c0.716-0.051,1.417-0.186,2.106-0.363v37.401c-2.58,2.181-4.718,0.817-5.462,0.186V52.155
		c0-0.439-0.291-0.797-0.686-0.926c-0.003-0.001-0.006-0.004-0.009-0.005c-4.018-1.373-6.717-5.152-6.718-9.348l1.102-21.23h4.669
		v20.464c0,0.542,0.441,0.984,0.984,0.984c0.543,0,0.984-0.442,0.984-0.984V20.646h4.433v20.604c0,0.545,0.44,0.987,0.984,0.987
		c0.543,0,0.985-0.442,0.985-0.987V20.646h4.618l1.101,21.18C43.326,45.901,40.773,49.625,36.971,51.092z"/>
	<path fill="#FFFFFF" d="M76.812,19.148c-6.749,0-12.241,7.757-12.241,17.287c0,7.009,3.012,13.316,7.54,15.966v38.983
		c0,0.269,0.108,0.512,0.283,0.689l-0.021,0.02c0.068,0.073,1.707,1.798,4.147,1.88c0.061,0.002,0.121,0.003,0.183,0.003
		c1.546,0,3.03-0.657,4.415-1.955L81.098,92c0.245-0.179,0.415-0.454,0.415-0.781V52.412c4.468-2.604,7.539-8.801,7.539-15.976
		C89.052,26.905,83.561,19.148,76.812,19.148z M77.818,51.68c-0.538,0.079-0.908,0.582-0.83,1.119
		c0.071,0.489,0.492,0.84,0.973,0.84c0.047,0,0.097-0.002,0.144-0.009c0.491-0.072,0.969-0.198,1.438-0.348v37.456
		c-2.585,2.242-4.729,0.849-5.463,0.219V52.155c0-0.061-0.023-0.114-0.035-0.172c0.068-0.412-0.12-0.835-0.511-1.035
		c-4.183-2.125-6.994-7.956-6.994-14.512c0-8.445,4.609-15.316,10.271-15.316c5.663,0,10.271,6.871,10.271,15.316
		C87.082,44.221,83.013,50.917,77.818,51.68z"/>
	<path fill="#FFFFFF" d="M57.026,19.94c-0.08-0.398-0.396-0.708-0.796-0.778c-1.693-0.288-3.047,0.01-4.026,0.898
		c-1.612,1.464-1.448,3.947-1.441,3.981v67.344c0,0.256,0.104,0.484,0.263,0.659l-0.019,0.019c0.836,0.869,2.45,1.878,4.406,1.878
		c1.393,0,2.959-0.512,4.541-1.95l-0.01-0.011c0.229-0.18,0.385-0.446,0.385-0.761V52.737c0.686-0.293,1.246-0.708,1.657-1.254
		c1.155-1.529,0.675-3.416,0.669-3.438L57.026,19.94z M60.415,50.297c-0.584,0.773-1.825,0.958-2.766,0.976
		c-0.544,0.01-0.976,0.459-0.965,1.003c0.011,0.545,0.438,0.978,1.005,0.965c0.24-0.005,0.445-0.043,0.67-0.064v37.535
		c-2.646,2.203-4.842,0.86-5.628,0.216l-0.002-66.963c-0.032-0.418,0.048-1.765,0.8-2.447c0.394-0.36,0.958-0.516,1.708-0.489
		l5.5,27.458C60.739,48.501,60.981,49.548,60.415,50.297z"/>
	<path fill="#FFFFFF" d="M69.054,29.524c-0.103,0.204-2.501,5.067-0.537,12.417l0.967-0.258c-1.86-6.96,0.439-11.662,0.463-11.709
		L69.054,29.524z"/>
</g>
</svg>
