<svg id="Layer_1" data-name="Layer 1" xmlns="http://www.w3.org/2000/svg" viewBox="0 0 36.63 67.72"><defs><style>.cls-1{fill:#fff;}</style></defs><title>Icon_RH_Objects_Tervis_RGB_White</title><path class="cls-1" d="M25.1 1.23A18.33 18.33 0 0 0 17.52 0a17.77 17.77 0 0 0-7.69 1.29C0 1.71-.01 2.48-.01 3.45v4.41a.93.93 0 0 0 .6.94c.21 30 2.79 53.7 3.88 56.24.41 1 2.78 2.71 13.83 2.71s13.42-1.68 13.83-2.71c1.1-2.54 3.67-26.28 3.88-56.24a.93.93 0 0 0 .6-.95v-4.4c.01-.95.01-1.85-11.51-2.22zm5.21 62.93a1 1 0 0 0-.07.16c-.78.52-4.83 1.4-12 1.4s-11.13-.86-11.93-1.41v-.14C5.5 62.39 2.88 39.68 2.62 9.63l.62 1.65c0 24.88 2.08 44.6 3 46.91.86 2.77 5.81 4.67 12.07 4.67s11.2-1.92 12.06-4.69c.94-2.31 3-22 3-46.91l.62-1.65c-.24 30.08-2.86 52.79-3.68 54.55zm-12-6.3c-5.6 0-10.43-2-11.44-4.51-.08-.64-.17-1.35-.25-2.11 3.15 1.24 10.64 1.28 11.69 1.28s8.54 0 11.69-1.28c-.09.77-.17 1.47-.25 2.11-1.02 2.51-5.84 4.51-11.44 4.51zm11.14-2.38a12 12 0 0 1-.47 2.19v.1c-.56 1.76-4.67 3.62-10.67 3.62S8.2 59.53 7.67 57.74v-.1a12 12 0 0 1-.47-2.19c2.11 2.02 6.23 3.41 11.11 3.41s9-1.39 11.14-3.42zm-11.14-4.01c-6.87 0-10.76-.83-11.81-1.37-.12-1.16-.25-2.45-.37-3.84 3.14 1 10.36 1.11 12.12 1.11s9.17-.07 12.24-1.15c-.12 1.4-.25 2.68-.37 3.85-1.05.57-4.95 1.4-11.81 1.4zm-.06-5.1c-6.42 0-10.84-.62-12.21-1.16-.1-1.16-.19-2.39-.29-3.68 3.1 1.12 10.72 1.19 12.55 1.19s9.45-.07 12.55-1.19c-.09 1.27-.19 2.49-.28 3.63-1.19.55-5.68 1.21-12.32 1.21zm.06-4.65c-6.82 0-11.42-.68-12.63-1.24-.1-1.43-.19-2.94-.28-4.51 3 1 10.28 1.06 12.91 1.06s9.91-.09 12.91-1.05c-.09 1.57-.18 3.08-.28 4.51-1.21.55-5.82 1.23-12.63 1.23zm0-5.7c-7 0-11.7-.57-13-1.06-.08-1.5-.16-3.06-.22-4.67 2.5.7 8.2.87 13.19.87s10.69-.17 13.19-.87c-.07 1.61-.14 3.17-.22 4.67-1.25.5-5.94 1.07-12.94 1.07zm0-5.85c-7.12 0-11.88-.46-13.23-.85q-.09-2.34-.17-4.82c1.6.36 5.21.69 13.4.69s11.79-.33 13.39-.69q-.07 2.48-.17 4.82c-1.34.4-6.1.85-13.22.85zm0-6a92 92 0 0 1-13.42-.66q-.07-2.71-.12-5.57c1.52.26 5.1.46 13.54.46s12-.19 13.54-.46q0 2.86-.12 5.57a92.12 92.12 0 0 1-13.42.69zm0-6.77c-7 0-12.13-.21-13.55-.42v-5.23c1.49.21 5.06.33 13.59.33s12.09-.12 13.59-.32v5.23c-1.5.23-6.63.44-13.63.44zm0-6.33c-7.26 0-12.49-.15-13.72-.31l-.42-1.19a128 128 0 0 0 14.14.58 128.57 128.57 0 0 0 14.11-.54l-.44 1.19c-1.32.15-6.5.3-13.67.3zm16.31-3.86c-1.6.41-7.56.9-16.31.9S3.61 7.62 2 7.21V4.92c.71.14 1.64.26 2.86.37h.4a30.54 30.54 0 0 0 5.23-2.07 15.63 15.63 0 0 1 7-1.18 16.23 16.23 0 0 1 6.87 1.11h.08a40.35 40.35 0 0 0 5.21 2.2 1 1 0 0 0 .32.05h.07a38.89 38.89 0 0 0 4.5-.5z"/></svg>