<svg data-name="Layer 1" xmlns="http://www.w3.org/2000/svg" viewBox="0 0 72.95 65.55"><title>Icon_RH_Food_Sushi_RGB_Black</title><path d="M18.54 44.3c2.21 0 7.34-.15 7.34-1.58s-5.14-1.58-7.34-1.58-7.35.15-7.35 1.58 5.14 1.58 7.35 1.58zm0-2.16a23 23 0 0 1 6 .58 23 23 0 0 1-6 .58 23 23 0 0 1-6-.58 23 23 0 0 1 6-.58zM72.6 21.78a2.65 2.65 0 0 0-1.69-1.2 4 4 0 0 0-3 .6l-36.59 22.6v-1.1c0-2.34-3.52-3.75-7.82-4.34L61.27 5.51a3.92 3.92 0 0 0 1.46-2.64A2.57 2.57 0 0 0 60.24.01a3.93 3.93 0 0 0-2.83 1.1l-.09.08-41.11 36.93c-5.39.32-10.46 1.79-10.46 4.6v4.8l-4.41 4a3.51 3.51 0 0 0-1.3 1.93 2.28 2.28 0 0 0 .55 2 2.15 2.15 0 0 0 1.59.69h.3a3.49 3.49 0 0 0 1.9-1.05l1.37-1.19v2.9a2.74 2.74 0 0 0 1.24 2.15l-3.13 1.83a3.49 3.49 0 0 0-1.61 1.66 2.28 2.28 0 0 0 .18 2.07 2.17 2.17 0 0 0 1.75 1h.12a3.62 3.62 0 0 0 1.94-.71l6.54-3.91a35.16 35.16 0 0 0 5.77.46c6.16 0 12.78-1.46 12.78-4.67v-6.83l39.5-23.61-.51-.86.64.78a3.92 3.92 0 0 0 1.9-2.38 2.65 2.65 0 0 0-.26-2zM5.75 51.18l-2.71 2.36a2 2 0 0 1-.82.55.18.18 0 0 1-.17 0 .28.28 0 0 1-.05-.25c.05-.27.29-.49.72-.87l3-2.72zm53-48.61a2 2 0 0 1 1.35-.56.58.58 0 0 1 .61.7 2.07 2.07 0 0 1-.81 1.33L20.76 38.12c-.5 0-1 0-1.49-.05zM18.54 40.05c7.11 0 10.78 1.87 10.78 2.67s-3.67 2.67-10.78 2.67-10.78-1.87-10.78-2.67 3.66-2.67 10.78-2.67zM7.75 45.38c2.43 1.37 6.7 2 10.78 2a29.61 29.61 0 0 0 9-1.25L8.87 57.72c-.81-.43-1.12-.82-1.12-1zm21.57 11.35c0 .8-3.67 2.67-10.78 2.67-1 0-2 0-3-.12l13.77-8.23zM70.93 23.3a2 2 0 0 1-1 1.11l-.18.11L5.17 63.15a1.87 1.87 0 0 1-.91.4.18.18 0 0 1-.16-.08.28.28 0 0 1 0-.25c.1-.25.37-.43.86-.73l64.06-39.71a2.16 2.16 0 0 1 1.12-.35 1.36 1.36 0 0 1 .31 0 .58.58 0 0 1 .48.8z"/></svg>