<svg data-name="Layer 1" xmlns="http://www.w3.org/2000/svg" viewBox="0 0 56.39 52.93"><title>Icon_RH_Food_ChineseTakeout_RGB_Black</title><path d="M27.68 14.06a.5.5 0 0 0-.63-.32 1.19 1.19 0 1 1-.06-2.27.517.517 0 1 0 .26-1 2.19 2.19 0 1 0 .11 4.19.5.5 0 0 0 .32-.6zm28.52 1l-4.86-3.72.86-5.61a1 1 0 0 0 0-.12 1 1 0 0 0 0-.24 1.34 1.34 0 0 0-.17-.36v-.07l-.08-.06a.94.94 0 0 0-.08-.09L45.61.21a1 1 0 0 0-.59-.19h-35a1 1 0 0 0-.46.11L.65 4.71a5.28 5.28 0 0 1-.29.23 1 1 0 0 0-.2.35v.09a1 1 0 0 0 0 .31l5.99 46.38a1.79 1.79 0 0 0 .14.35l.09.12a1 1 0 0 0 .17.16H6.76a1 1 0 0 0 .32.06H44.2a1 1 0 0 0 .31-.06h.18l.07-.06a1 1 0 0 0 .17-.15l.1-.12a1.35 1.35 0 0 0 .15-.34v-.06l5.55-36.5 5.12.51a.5.5 0 0 0 .3-.9zM10.15 2h34.47l3.52 2.58h-43zm21.7 4.58L28.3 8.35l-3-1.77zm-29.71 0h19.18l9.59 5.6-.21.29-3.91-.39a.51.51 0 0 0-.55.45.5.5 0 0 0 .45.55l3.41.34L7.76 49.06zm6.81 44.36L26.7 22.65l15.82 28.29zm34.72-2L27.91 20.72l4.42-7 16.4 1.62zm5.21-34.59l-16-1.57.32-.41a1 1 0 0 0-.34-1.4l-2.44-1.42 6-3h13.63zm2 .2l.3-2 3 2.32z"/></svg>