<?xml version="1.0" encoding="utf-8"?>
<!-- Generator: Adobe Illustrator 17.1.0, SVG Export Plug-In . SVG Version: 6.00 Build 0)  -->
<!DOCTYPE svg PUBLIC "-//W3C//DTD SVG 1.1//EN" "http://www.w3.org/Graphics/SVG/1.1/DTD/svg11.dtd">
<svg version="1.1" id="Layer_1" xmlns="http://www.w3.org/2000/svg" xmlns:xlink="http://www.w3.org/1999/xlink" x="0px" y="0px"
	 viewBox="0 0 144 144" enable-background="new 0 0 144 144" xml:space="preserve">
<g>
	<g>
		<polygon fill="#FFFFFF" points="60.381,61.249 60.383,61.247 60.381,61.246 		"/>
		<path fill="#FFFFFF" d="M93.606,52.06l-0.074-0.115c-0.668-1.04-1.582-2.464-13.68-8.3c-0.068-0.033-0.14-0.057-0.214-0.072
			c-1.495-0.299-4.692-0.414-4.859-0.419l-0.565-0.001c-1.602,0-3.685,0.028-5.803,0.134c2.687-3.054,4.695-4.591,8.388-6.6
			c0.862-0.431,3.606-1.395,3.812-1.463c0.178-0.06,1.361-0.643,1.361-1.466c0-0.709-1.524-2.254-1.698-2.427
			c-0.157-0.158-0.382-0.225-0.602-0.186c-0.099,0.019-2.451,0.462-4.377,1.003c-2.929,1.041-9.968,7.625-13.75,11.163
			c-0.44,0.411-0.815,0.761-1.127,1.05c-0.223,0.073-0.43,0.15-0.615,0.232c-0.18,0.08-0.33,0.217-0.425,0.389
			c-0.572,1.038-0.78,2.252-0.798,7.082c-0.735,0.179-1.767,0.541-2.098,1.205c-0.296,0.592-0.479,2.014-0.479,2.994
			c0,0.156,0.041,0.31,0.118,0.446c0.07,0.123,0.142,0.254,0.205,0.375c-0.362,0.58-0.388,1.205-0.319,1.595
			c0.208,4.295,0.586,4.724,1.457,4.725h0c0.018,0,0.036-0.001,0.055-0.002c0.2-0.001,0.545-0.009,0.891-0.017
			c-1.488,1.475-5.596,5.533-6.77,6.61c-0.139,0.128-0.219,0.308-0.219,0.497c0,0.95,1.661,2.574,2.225,2.994
			c0.002,0.002,0.005,0.004,0.007,0.006c0.01,0.007,0.025,0.02,0.033,0.027c0.059,0.042,0.125,0.074,0.194,0.095
			c0.002,0.001,0.003,0.002,0.005,0.002c0.086,0.026,0.207,0.038,0.355,0.038c0.932,0,2.935-0.489,4.231-1.109
			c-0.196,10.326-0.619,24.472-0.813,30.994c-0.061,2.03-0.098,3.285-0.098,3.403c0,0.101,0.017,0.202,0.051,0.297
			c0.383,1.095,2.91,6.554,15.068,6.554c9.552,0,12.767-5.034,12.765-7.387c-0.033-0.519-0.239-6.05-0.499-13.054
			c-0.591-15.866-1.099-29.33-1.282-32.511c0.7-0.301,1.909-0.771,2.204-0.866c0.358-0.11,0.66-0.206,0.908-0.287
			c0.254,0.535,0.593,0.914,0.652,0.978c0.17,0.185,0.41,0.29,0.661,0.29c0.846,0,3.096-0.428,3.849-0.784
			c0.314-0.149,0.515-0.465,0.515-0.813v-0.889l0.873-0.534c0.267-0.163,0.43-0.454,0.43-0.768v-4.607
			C93.758,52.381,93.705,52.208,93.606,52.06z M75.705,33.433c1.402-0.392,3.125-0.747,3.859-0.892
			c0.345,0.376,0.759,0.875,0.965,1.172c-0.115,0.095-0.268,0.199-0.344,0.229c-0.221,0.073-3.045,1.065-4.01,1.548
			c-4.268,2.322-6.374,4.028-9.644,7.912c-1.239,0.092-2.438,0.218-3.518,0.385C66.619,40.418,73.215,34.32,75.705,33.433z
			 M81.884,61.182c0.207,3.851,0.835,20.705,1.265,32.236c0.272,7.29,0.468,12.556,0.5,13.043c0,0.05-0.011,0.111-0.017,0.167
			c-1.278,1.154-5.137,3.304-10.95,3.304c-7.507,0-11.629-2.413-13.299-3.707c0.017-0.577,0.044-1.473,0.078-2.633
			c0.222-7.43,0.739-24.747,0.881-35.075c2.427-2.188,4.635-4.257,4.674-4.301c0.077-0.085,1.065-1.184,2.014-2.392
			c1.434,0.061,2.918,0.096,4.397,0.096C75.424,61.918,79.342,61.687,81.884,61.182z M59.894,63.816
			c0.132-0.132,0.671-0.739,1.692-1.891c1.289-1.454,3.237-3.651,3.528-3.926c0.023-0.011,0.126-0.041,0.32-0.041
			c0.759,0,1.778,0.404,2.003,0.885c-0.245,0.573-1.555,2.399-3.423,4.468c-1.546,1.714-8.255,7.468-9.909,8.802
			c-0.474-0.438-1.008-1.071-1.23-1.422C54.647,69.019,59.5,64.209,59.894,63.816z M60.381,61.249v-0.003c0.001,0,0.001,0,0.002,0
			C60.382,61.247,60.381,61.248,60.381,61.249z M58.062,54.16c0.104-0.062,0.297-0.141,0.519-0.216v2.973
			c-0.047-0.005-0.095-0.011-0.142-0.016c-0.072-0.008-0.15-0.017-0.224-0.025c-0.093-0.252-0.274-0.601-0.406-0.841
			C57.833,55.269,57.968,54.466,58.062,54.16z M57.804,58.522c-0.003-0.059-0.011-0.118-0.026-0.175
			c-0.001-0.002-0.039-0.244,0.192-0.442c0.047-0.04,0.082-0.09,0.119-0.138c0.084,0.009,0.172,0.02,0.253,0.029
			c0.079,0.008,0.159,0.018,0.238,0.027v3.756c-0.166,0.004-0.338,0.009-0.5,0.013C57.968,60.905,57.856,59.614,57.804,58.522z
			 M58.465,70.995c-0.344,0.298-1.11,0.601-1.904,0.841c0.6-0.505,1.267-1.084,1.956-1.692c-0.004,0.273-0.009,0.549-0.014,0.829
			C58.491,70.983,58.477,70.985,58.465,70.995z M72.681,111.991c-8.476,0-11.671-2.76-12.806-4.333
			c2.194,1.385,6.283,3.173,12.806,3.173c4.73,0,8.212-1.362,10.216-2.583C81.632,109.959,78.609,111.991,72.681,111.991z
			 M87.075,57.685c-0.018,0.007-0.544,0.202-1.747,0.572c-0.317,0.102-2.546,0.945-3.074,1.268c-0.103,0.063-0.183,0.15-0.251,0.244
			c-2.964,0.673-8.69,0.931-14.014,0.756c0.439-0.643,0.767-1.224,0.819-1.588c0.01-0.071,0.009-0.143-0.004-0.214
			c-0.258-1.444-2.164-2.116-3.371-2.116c-0.527,0-0.93,0.125-1.197,0.37c-0.293,0.27-1.357,1.456-2.78,3.058
			c-0.375-0.049-0.732-0.101-1.076-0.157v-7.073c0-4.478,0.139-5.913,0.448-6.685c2.041-0.734,6.978-1.168,13.385-1.168l0.533,0
			c0.031,0.001,3.024,0.108,4.429,0.363c11.061,5.341,12.297,6.774,12.781,7.508v3.787c-1.699,0.379-4.644,1.004-4.644,1.004
			l0.003,0.018C87.235,57.641,87.154,57.656,87.075,57.685z M90.655,58.711c-0.598,0.16-1.517,0.343-2.137,0.414
			c-0.123-0.2-0.227-0.428-0.227-0.597c0-0.066-0.01-0.131-0.024-0.194c0.619-0.132,1.527-0.327,2.407-0.518
			c-0.008,0.049-0.019,0.097-0.019,0.148V58.711z"/>
	</g>
	<g>
		<path fill="#FFFFFF" d="M91.117,68.179c-0.696,0-1.208-0.213-1.521-0.633c-0.679-0.911-0.205-2.507,0.298-4.196
			c0.094-0.317,0.189-0.635,0.276-0.949l0.244-0.885l0.549,0.736c0.253,0.339,2.449,3.354,1.745,4.972
			c-0.165,0.378-0.557,0.85-1.492,0.952L91.117,68.179z M91.16,67.278c0.57-0.064,0.685-0.327,0.722-0.414
			c0.301-0.691-0.396-2.169-1.113-3.304c-0.004,0.015-0.009,0.03-0.014,0.046c-0.397,1.337-0.848,2.852-0.439,3.402
			c0.05,0.067,0.202,0.271,0.8,0.271L91.16,67.278z"/>
	</g>
</g>
</svg>
