<svg data-name="Layer 1" xmlns="http://www.w3.org/2000/svg" viewBox="0 0 66.43 53.78"><title>Icon_RH_Objects_BeerGlasses_RGB_Black</title><path d="M5.41 12.34a.75.75 0 0 0-1.48-.24c-.06.36-1.4 8.76 1.23 12.71a.75.75 0 1 0 1.25-.83c-2.31-3.47-1.01-11.56-1-11.64zm26.78 6.55a.75.75 0 0 0-.75.75v14.43a.75.75 0 0 0 1.5 0V19.65a.75.75 0 0 0-.75-.76zm34.24 10.36A12.74 12.74 0 0 0 53.7 16.53c-.29 0-.57 0-.85.06v-.82a26.4 26.4 0 0 0-.48-5 2.39 2.39 0 0 0-2.35-2H30.44a2.39 2.39 0 0 0-2.35 2 26.28 26.28 0 0 0-.48 5v4.92c0 3.36.09 7.5.09 9.67 0 2.32-.06 5.74-.1 8.24v3a14.28 14.28 0 0 1-1 2.69 10 10 0 0 0-1.06 3.17c0 2.1 1.74 4.26 14.67 4.26s14.67-2.15 14.67-4.26a10 10 0 0 0-1.06-3.17c-.29-.67-.72-1.68-.9-2.29h.76a12.74 12.74 0 0 0 12.75-12.75zm-13.65-6.36a6.46 6.46 0 1 1 0 12.77c0-1.86-.05-3.8-.05-5.29-.01-1.74.02-4.68.05-7.48zM30.06 11.1a.39.39 0 0 1 .38-.33h19.58a.39.39 0 0 1 .39.33 25.91 25.91 0 0 1 .43 3.79H29.63a25.78 25.78 0 0 1 .43-3.79zm10.17 38.56c-12.32 0-12.67-2-12.67-2.25a14.38 14.38 0 0 1 .9-2.39 10.84 10.84 0 0 0 1.15-3.48v-2.92c0-2.51.1-5.94.1-8.27 0-2.17 0-6.33-.09-9.69V16.4h21.23v4.26c0 3.37-.09 7.52-.09 9.69 0 2.33.06 5.77.1 8.27v2.07a1 1 0 0 0 0 .44v.44a10.85 10.85 0 0 0 1.15 3.48 14.61 14.61 0 0 1 .9 2.38c0 .21-.36 2.23-12.68 2.23zm12.6-9.72v-2.3a8.46 8.46 0 1 0 0-16.8v-.18-2.09c.29 0 .58-.06.87-.06a10.73 10.73 0 1 1 0 21.45c-.29.02-.58.01-.86-.02zm-31.61.6c0-2.34.84-4.9 1.81-7.85a48.92 48.92 0 0 0 3.07-16.11 43.25 43.25 0 0 0-2.22-14.79 2.66 2.66 0 0 0-2.5-1.78H4.72a2.66 2.66 0 0 0-2.5 1.78A43.26 43.26 0 0 0 0 16.58a48.92 48.92 0 0 0 3.07 16.11c1 3 1.81 5.51 1.81 7.85 0 3.9-.94 5.18-1.76 6.31A4.87 4.87 0 0 0 1.9 50c0 1.11.54 3 4.12 3.45a65.86 65.86 0 0 0 7.06.33 64.57 64.57 0 0 0 7-.33c3.58-.42 4.12-2.34 4.12-3.45a4.87 4.87 0 0 0-1.21-3.11c-.83-1.17-1.76-2.45-1.76-6.35zM4.11 2.44A.66.66 0 0 1 4.72 2h16.66a.66.66 0 0 1 .61.44 35.26 35.26 0 0 1 1.12 3.9H2.99a35.27 35.27 0 0 1 1.12-3.9zm15.75 49a72.68 72.68 0 0 1-13.61 0c-1.56-.18-2.35-.67-2.35-1.46a3 3 0 0 1 .83-2c.91-1.24 2.15-2.94 2.15-7.49 0-2.66-.88-5.36-1.91-8.47-1.39-4.24-3-9.05-3-15.49a48.09 48.09 0 0 1 .72-8.64h20.72a48.08 48.08 0 0 1 .69 8.73c0 6.44-1.58 11.25-3 15.49-1 3.12-1.91 5.81-1.91 8.47 0 4.55 1.24 6.25 2.15 7.49a3 3 0 0 1 .83 2c.04.72-.75 1.21-2.31 1.39z"/></svg>