<svg id="Layer_1" data-name="Layer 1" xmlns="http://www.w3.org/2000/svg" viewBox="0 0 108 108"><defs><style>.cls-1{fill:#fff;}</style></defs><title>Icon_RH_Arrows_Scalable_RGB_White</title><path class="cls-1" d="M85.84 84l-1.91-20.19A2 2 0 0 0 82.44 62a1.71 1.71 0 0 0-2 1l-3.05 5.77L60.77 54.1a6.34 6.34 0 0 0 0-.94l16.56-14.64 3.05 5.77a1.73 1.73 0 0 0 2.05 1 2 2 0 0 0 1.5-1.9l1.91-20.18a1 1 0 0 0-1.09-1.09l-20.23 1.95a2 2 0 0 0-1.85 1.5 1.73 1.73 0 0 0 1 2l5.77 3.05L54.8 47.19a6.28 6.28 0 0 0-.9 0L39.23 30.67 45 27.61a1.71 1.71 0 0 0 1-2.05 2 2 0 0 0-1.9-1.5L24 22.16a1 1 0 0 0-1.09 1.09l1.91 20.23a2.39 2.39 0 0 0 .63 1.39 1.69 1.69 0 0 0 .87.47 1.71 1.71 0 0 0 2-1l3.05-5.77 17 15.09v.07L30.66 69.48l-3.05-5.76a1.73 1.73 0 0 0-2-1 2 2 0 0 0-1.5 1.9l-1.96 20.13a1 1 0 0 0 1.09 1.09l20.23-1.91a2 2 0 0 0 1.85-1.5 1.73 1.73 0 0 0-1-2l-5.77-3.05 15.73-17.75h.11l15.09 17-5.77 3.05a1.71 1.71 0 0 0-1 2 1.69 1.69 0 0 0 .47.87 2.43 2.43 0 0 0 1.43.63l20.18 1.91A1 1 0 0 0 85.84 84zM57.93 56.76a4.7 4.7 0 0 1-2.3 1.24h-.05a4.75 4.75 0 0 1-2.43-.14h-.06a4.55 4.55 0 0 1-3-3v-.09A4.75 4.75 0 0 1 50 52.4a4.68 4.68 0 0 1 1.26-2.31 4.73 4.73 0 0 1 1.58-1c.16-.06.32-.1.49-.14a4.73 4.73 0 0 1 1.94-.14 4.79 4.79 0 0 1 .71.16 4.75 4.75 0 0 1 3.3 3.85 4.76 4.76 0 0 1-.12 1.88 4.63 4.63 0 0 1-.16.54 4.74 4.74 0 0 1-1.07 1.52zM71.82 31a1 1 0 0 0-.28-1.55L65 26l18.74-1.77L82 43l-3.5-6.54a1 1 0 0 0-1.5-.28L60.3 50.93a6.17 6.17 0 0 0-3.3-3.24zm-40.07 5.18a1 1 0 0 0-1.55.28L26.74 43 25 24.26 43.71 26l-6.54 3.5a1 1 0 0 0-.28 1.5l14.89 16.85a6.15 6.15 0 0 0-3 3.42zM36.18 77a1 1 0 0 0 .28 1.55L43 82l-18.74 1.74L26 65l3.47 6.54a1 1 0 0 0 1.55.28L48.88 55.9a6.15 6.15 0 0 0 3.19 3.2zM65 81.26l6.54-3.47a1 1 0 0 0 .28-1.55l-15.09-17a6.16 6.16 0 0 0 3.42-3L77 71.11a1 1 0 0 0 1.55-.28L82 64.29 83.74 83z"/></svg>