<svg data-name="Layer 1" xmlns="http://www.w3.org/2000/svg" viewBox="0 0 118.21 120.27"><title>Icon_RH_Arrows_Scalable_RBG_Black</title><path d="M90.5 90.65l-1.91-20.23a2 2 0 0 0-1.5-1.85 1.71 1.71 0 0 0-2 1L82 75.37 65.43 60.71a6.34 6.34 0 0 0 0-.94L82 45.12l3 5.77a1.73 1.73 0 0 0 2.05 1 2 2 0 0 0 1.5-1.9l1.95-20.14a1 1 0 0 0-1.09-1.09l-20.23 1.91a2 2 0 0 0-1.85 1.5 1.73 1.73 0 0 0 1 2l5.77 3.05-14.65 16.57a6.28 6.28 0 0 0-.9 0L43.88 37.27l5.77-3.05a1.71 1.71 0 0 0 1-2.05 2 2 0 0 0-1.9-1.5l-20.14-1.91a1 1 0 0 0-1.09 1.09l1.91 20.23a2.39 2.39 0 0 0 .63 1.39 1.69 1.69 0 0 0 .87.47 1.71 1.71 0 0 0 2-1L36 45.12l17 15.09v.07l-17.68 15.8-3.05-5.76a1.73 1.73 0 0 0-2-1 2 2 0 0 0-1.5 1.9l-1.96 20.13a1 1 0 0 0 1.09 1.09l20.23-1.91A2 2 0 0 0 50 89a1.73 1.73 0 0 0-1-2l-5.77-3.05 15.7-17.72H59l15.09 17-5.77 3.05a1.71 1.71 0 0 0-1 2 1.69 1.69 0 0 0 .47.87 2.43 2.43 0 0 0 1.43.63l20.18 1.91a1 1 0 0 0 1.09-1.09zM62.58 63.36a4.7 4.7 0 0 1-2.31 1.26h-.05a4.75 4.75 0 0 1-2.43-.14h-.06a4.55 4.55 0 0 1-3-3v-.09a4.75 4.75 0 0 1-.1-2.39 4.68 4.68 0 0 1 1.26-2.31 4.73 4.73 0 0 1 1.58-1c.16-.06.32-.1.49-.14a4.73 4.73 0 0 1 1.94-.14 4.79 4.79 0 0 1 .71.16 4.75 4.75 0 0 1 3.3 3.85 4.76 4.76 0 0 1-.12 1.88 4.63 4.63 0 0 1-.16.54 4.74 4.74 0 0 1-1.05 1.52zm13.89-25.72a1 1 0 0 0-.28-1.55l-6.54-3.46 18.74-1.77-1.77 18.75-3.47-6.55a1 1 0 0 0-1.55-.28L65 57.54a6.17 6.17 0 0 0-3.26-3.25zM36.4 42.78a1 1 0 0 0-1.55.28l-3.46 6.54-1.77-18.74 18.75 1.77-6.55 3.47a1 1 0 0 0-.28 1.55l14.89 16.8a6.15 6.15 0 0 0-3 3.42zm4.43 40.77a1 1 0 0 0 .28 1.55l6.54 3.47-18.74 1.77 1.77-18.75 3.47 6.54a1 1 0 0 0 1.55.28l17.83-15.9a6.15 6.15 0 0 0 3.19 3.2zm28.82 4.31l6.54-3.47a1 1 0 0 0 .28-1.55l-15.09-17a6.16 6.16 0 0 0 3.42-3l16.81 14.87a1 1 0 0 0 1.55-.28l3.46-6.54 1.77 18.74z"/></svg>