<?xml version="1.0" encoding="utf-8"?>
<!-- Generator: Adobe Illustrator 17.1.0, SVG Export Plug-In . SVG Version: 6.00 Build 0)  -->
<!DOCTYPE svg PUBLIC "-//W3C//DTD SVG 1.1//EN" "http://www.w3.org/Graphics/SVG/1.1/DTD/svg11.dtd">
<svg version="1.1" id="Layer_2" xmlns="http://www.w3.org/2000/svg" xmlns:xlink="http://www.w3.org/1999/xlink" x="0px" y="0px"
	 viewBox="0 0 144 144" enable-background="new 0 0 144 144" xml:space="preserve">
<path fill="#FFFFFF" d="M98.627,97.6v-8.703H80.5V70.512h10.258v-7.783H80.5V43.457c2.79,0.403,4.996,1.581,6.669,2.645l1.111,0.707
	l2.451-8.093l-0.703-0.392c-2.261-1.261-5.565-2.855-9.528-3.338V27c0-0.553-0.447-1-1-1h-6.75c-0.553,0-1,0.447-1,1v8.753
	c-8.647,2.368-13.848,8.965-13.848,18.058c0,3.044,0.381,6.063,0.834,8.918H47.373v7.783h12.592
	c0.269,2.021,0.328,3.656,0.328,5.426c0,6.258-3.802,12.076-9.921,15.182l-0.548,0.277V97.6H71.75v5.658l-6.947-2.211
	c-0.409-0.127-0.863,0.02-1.116,0.373c-0.253,0.352-0.248,0.828,0.011,1.176l11.125,15c0.184,0.25,0.476,0.4,0.787,0.404h0.016
	c0.305,0,0.594-0.139,0.783-0.379l11.875-14.979c0.274-0.344,0.29-0.828,0.039-1.189c-0.251-0.363-0.712-0.516-1.128-0.383
	l-6.694,2.152V97.6H98.627z M80.5,36.997c2.495,0.335,5.05,1.206,7.848,2.689l-1.226,4.048c-1.751-1.006-3.94-1.965-6.622-2.3
	V36.997z M96.627,90.896V95.6H80.5v-4.703H96.627z M73.75,28h4.75v34.729h-4.75V28z M84.67,103.982l-9.019,11.375l-8.503-11.465
	l5.299,1.686c0.303,0.098,0.636,0.043,0.892-0.145c0.258-0.189,0.41-0.488,0.41-0.809V70.512h4.75v34.082
	c0,0.32,0.152,0.621,0.411,0.808c0.257,0.188,0.592,0.242,0.895,0.145L84.67,103.982z M69.346,70.512h2.404v18.385h-7.859
	c2.459-2.561,4.131-5.531,4.98-8.859C69.647,76.932,69.569,73.656,69.346,70.512z M67.185,68.512l0.086,1.079
	c0.273,3.438,0.453,6.788-0.339,9.958c-0.925,3.623-2.949,6.787-6.017,9.406l-0.351,0.299v1.643H71.75V95.6H51.824v-2.984
	c6.474-3.516,10.469-9.851,10.469-16.678c0-2.104-0.08-4.026-0.473-6.578l-0.13-0.848H49.373v-3.783h11.72l-0.194-1.164
	c-0.517-3.106-0.996-6.438-0.996-9.754c0-8.043,4.349-13.76,11.848-15.989v4.838c-4.194,1.882-6.318,5.644-6.318,11.241
	c0,4.053,0.569,7.083,1.121,10.013l0.153,0.815h22.052v3.783H67.185z M71.75,44.887v17.842h-3.385
	c-0.481-2.593-0.934-5.33-0.934-8.828C67.432,49.496,68.825,46.546,71.75,44.887z"/>
</svg>
