<?xml version="1.0" encoding="utf-8"?>
<!-- Generator: Adobe Illustrator 17.1.0, SVG Export Plug-In . SVG Version: 6.00 Build 0)  -->
<!DOCTYPE svg PUBLIC "-//W3C//DTD SVG 1.1//EN" "http://www.w3.org/Graphics/SVG/1.1/DTD/svg11.dtd">
<svg version="1.1" id="Layer_1" xmlns="http://www.w3.org/2000/svg" xmlns:xlink="http://www.w3.org/1999/xlink" x="0px" y="0px"
	 viewBox="0 0 207.021 207.021" enable-background="new 0 0 207.021 207.021" xml:space="preserve">
<g>
	<path fill="#231F20" d="M103.512,124.295c-0.298,0-0.579-0.132-0.77-0.36L78.533,94.808c-1.043-1.037-1.456-2.383-1.017-3.446
		c0.197-0.476,0.921-1.643,3.125-1.403l10.332,1.538V57.086c0-0.552,0.448-1,1-1h23.074c0.553,0,1,0.448,1,1v34.411l10.295-1.533
		c0.242-0.027,0.435-0.038,0.615-0.038c1.762,0,2.368,1.004,2.547,1.436c0.439,1.063,0.026,2.41-1.079,3.514l-24.146,29.059
		C104.091,124.164,103.809,124.295,103.512,124.295z M80.063,91.926c-0.423,0-0.658,0.104-0.698,0.201
		c-0.082,0.197,0.066,0.757,0.645,1.334l23.502,28.27l23.438-28.201c0.641-0.646,0.789-1.206,0.707-1.402
		c-0.051-0.123-0.447-0.248-1.056-0.18l-11.405,1.698c-0.286,0.044-0.581-0.042-0.801-0.232c-0.22-0.19-0.347-0.466-0.347-0.757
		V58.086H92.974v34.571c0,0.291-0.126,0.567-0.347,0.757c-0.221,0.19-0.511,0.277-0.801,0.232l-11.442-1.703
		C80.294,91.934,80.176,91.926,80.063,91.926z"/>
	<path fill="#231F20" d="M126.89,137.442H80.131c-0.505,0-0.915-0.447-0.915-1v-7.5c0-0.553,0.41-1,0.915-1h46.759
		c0.505,0,0.915,0.447,0.915,1v7.5C127.805,136.995,127.394,137.442,126.89,137.442z M81.046,135.442h44.929v-5.5H81.046V135.442z"
		/>
</g>
</svg>
