<?xml version="1.0" encoding="utf-8"?>
<!-- Generator: Adobe Illustrator 17.1.0, SVG Export Plug-In . SVG Version: 6.00 Build 0)  -->
<!DOCTYPE svg PUBLIC "-//W3C//DTD SVG 1.1//EN" "http://www.w3.org/Graphics/SVG/1.1/DTD/svg11.dtd">
<svg version="1.1" id="Layer_1" xmlns="http://www.w3.org/2000/svg" xmlns:xlink="http://www.w3.org/1999/xlink" x="0px" y="0px"
	 viewBox="0 0 207.021 207.021" enable-background="new 0 0 207.021 207.021" xml:space="preserve">
<g>
	<path fill="#FFFFFF" d="M103.509,56.086c0.298,0,0.579,0.132,0.77,0.36l24.209,29.127c1.043,1.037,1.456,2.383,1.017,3.446
		c-0.197,0.476-0.921,1.644-3.125,1.403l-10.332-1.538v34.411c0,0.552-0.448,1-1,1H91.973c-0.553,0-1-0.448-1-1V88.884
		l-10.295,1.533c-0.242,0.027-0.435,0.038-0.615,0.038c-1.762,0-2.368-1.004-2.547-1.436c-0.439-1.063-0.026-2.41,1.079-3.514
		l24.146-29.059C102.93,56.218,103.212,56.086,103.509,56.086z M126.957,88.455c0.423,0,0.658-0.104,0.698-0.201
		c0.082-0.197-0.066-0.757-0.645-1.334l-23.502-28.27L80.071,86.852c-0.641,0.646-0.789,1.205-0.707,1.402
		c0.051,0.123,0.447,0.248,1.056,0.18l11.405-1.698c0.286-0.044,0.581,0.042,0.801,0.232c0.22,0.19,0.347,0.466,0.347,0.757v34.571
		h21.074V87.725c0-0.291,0.126-0.567,0.347-0.757c0.221-0.19,0.511-0.277,0.801-0.232l11.442,1.703
		C126.726,88.448,126.845,88.455,126.957,88.455z"/>
	<path fill="#FFFFFF" d="M126.89,137.442H80.131c-0.505,0-0.915-0.447-0.915-1v-7.5c0-0.553,0.41-1,0.915-1h46.759
		c0.505,0,0.915,0.447,0.915,1v7.5C127.805,136.995,127.394,137.442,126.89,137.442z M81.046,135.442h44.929v-5.5H81.046V135.442z"
		/>
</g>
</svg>
