<?xml version="1.0" encoding="utf-8"?>
<!-- Generator: Adobe Illustrator 17.1.0, SVG Export Plug-In . SVG Version: 6.00 Build 0)  -->
<!DOCTYPE svg PUBLIC "-//W3C//DTD SVG 1.1//EN" "http://www.w3.org/Graphics/SVG/1.1/DTD/svg11.dtd">
<svg version="1.1" xmlns="http://www.w3.org/2000/svg" xmlns:xlink="http://www.w3.org/1999/xlink" x="0px" y="0px"
	 viewBox="0 0 144 144" enable-background="new 0 0 144 144" xml:space="preserve">
<g id="Layer_1">
</g>
<g id="Layer_3">
</g>
<g id="Layer_2">
	<path fill="#FFFFFF" d="M90.349,90.77l-1.625-6.875c-0.069-0.289-0.263-0.533-0.529-0.665c-0.267-0.133-0.58-0.137-0.85-0.019
		c-0.049,0.021-4.149,1.812-9.344,2.408V74.375h6.5c0.553,0,1-0.447,1-1V68c0-0.552-0.447-1-1-1H78v-4.75h6.459c0.553,0,1-0.448,1-1
		v-5.5c0-0.552-0.447-1-1-1H78V42.622c2.652,0.387,5.5,1.154,8.517,2.312c0.257,0.099,0.547,0.086,0.795-0.034
		c0.249-0.121,0.438-0.34,0.519-0.604l2.125-6.875c0.147-0.475-0.077-0.985-0.525-1.199c-0.239-0.113-4.968-2.323-11.43-3.104V27
		c0-0.552-0.447-1-1-1h-8.375c-0.266,0-0.52,0.105-0.707,0.294c-0.188,0.188-0.293,0.443-0.293,0.708l0.01,6.418
		c-8.022,1.596-16.803,6.959-21.849,21.351h-6.577c-0.552,0-1,0.448-1,1v5.5c0,0.552,0.448,1,1,1h5.362
		c-0.055,1.157-0.126,3.061-0.101,4.729h-5.22c-0.552,0-1,0.448-1,1v5.312c0,0.553,0.448,1,1,1h6.348
		c0.999,3.588,6.016,18.102,22.136,20.61l0.013,8.183l-6.603-2.837c-0.419-0.179-0.903-0.055-1.182,0.302
		c-0.28,0.357-0.284,0.857-0.011,1.22l11.75,15.562c0.187,0.248,0.479,0.396,0.79,0.397H72.5c0.308,0,0.6-0.143,0.789-0.386
		l12.125-15.562c0.277-0.357,0.281-0.854,0.01-1.216c-0.272-0.362-0.755-0.496-1.172-0.326L78,102.771v-7.857
		c3.682-0.5,7.599-1.486,11.715-2.973C90.192,91.768,90.465,91.265,90.349,90.77z M78,35.137c4.564,0.59,8.234,1.922,9.779,2.551
		l-1.547,5.005c-2.895-1.045-5.646-1.739-8.232-2.092V35.137z M76,28v26.75h-6.331L69.627,28H76z M67.67,54.75H57.309
		c0.838-2.631,3.499-8.785,10.343-11.306L67.67,54.75z M81.558,103.497l-9.045,11.609l-8.691-11.511l4.534,1.948
		c0.311,0.135,0.665,0.103,0.946-0.084c0.281-0.186,0.45-0.5,0.449-0.837l-0.049-30.248H76v29.875c0,0.332,0.165,0.643,0.44,0.828
		c0.273,0.187,0.623,0.225,0.933,0.1L81.558,103.497z M56.5,72.375c-0.321,0-0.623,0.154-0.811,0.415
		c-0.188,0.26-0.24,0.595-0.139,0.9c2.58,7.786,7.325,11.456,12.17,13.046l0.01,6.163c-16.65-2.745-20.221-19.032-20.377-19.787
		c-0.096-0.464-0.505-0.799-0.979-0.799H40.25V69h5.25c0.273,0,0.535-0.112,0.724-0.31c0.189-0.198,0.288-0.464,0.275-0.737
		c-0.121-2.54,0.122-6.581,0.124-6.621c0.017-0.275-0.081-0.545-0.27-0.746c-0.189-0.201-0.452-0.315-0.728-0.315h-5.416v-3.5H46.5
		c0.43,0,0.811-0.274,0.948-0.682c3.947-11.753,10.731-18.656,20.191-20.634l0.009,5.862C57.39,44.675,55.047,55.42,55.021,55.548
		c-0.061,0.294,0.015,0.601,0.205,0.833c0.189,0.233,0.474,0.368,0.775,0.368h27.459v3.5H55.25c-0.472,0-0.879,0.33-0.978,0.791
		c-0.787,3.675-0.029,7.043,0.003,7.185C54.38,68.679,54.784,69,55.25,69H83.5v3.375H56.5z M67.718,84.645
		c-4.496-1.661-7.777-5.093-9.795-10.27h9.779L67.718,84.645z M76,62.25V67h-6.311l-0.008-4.75H76z M67.689,67H56.089
		c-0.141-0.981-0.303-2.784-0.005-4.75h11.598L67.689,67z M78,92.902v-5.267c4.008-0.425,7.377-1.524,9.044-2.149l1.151,4.87
		C84.619,91.597,81.211,92.445,78,92.902z"/>
</g>
</svg>
