<svg id="ICON" xmlns="http://www.w3.org/2000/svg" viewBox="0 0 108 108"><defs><style>.cls-1{fill:#fff;}</style></defs><title>Icon_RH_arrows_switch-cross_RGB_White</title><path class="cls-1" d="M82.83 32.71L72.35 20.1a.75.75 0 0 0-1.15 0L60.76 32.66a1.73 1.73 0 0 0-.51 1.93 1.48 1.48 0 0 0 1.68.73l4.07-.6v2.77a6.44 6.44 0 0 1-2.49 5.06l-9.31 7.21-9.59-7.4a6.18 6.18 0 0 1-2.39-4.86V35l3.84.57A1.74 1.74 0 0 0 48 34.7a1.92 1.92 0 0 0-.49-2.15L37 19.94a1 1 0 0 0-1.54 0L25 32.49a2 2 0 0 0-.56 2.21 1.76 1.76 0 0 0 1.94.87l3.97-.57v7a8.2 8.2 0 0 0 3.17 6.45l11.2 8.65L34 65.37a8 8 0 0 0-3.07 6.25v16.51a.75.75 0 0 0 .75.75h9.88a.75.75 0 0 0 .74-.87V76.12a6.44 6.44 0 0 1 2.49-5.06l9-7 9.27 7.16a6.19 6.19 0 0 1 2.39 4.87v12a1 1 0 0 0 1 1h9.88a1 1 0 0 0 1-1 1.09 1.09 0 0 0 0-.13V71.62a8.2 8.2 0 0 0-3.17-6.45l-10.88-8.4 11-8.53A8 8 0 0 0 77.4 42v-7.3l4.24.63a1.47 1.47 0 0 0 1.65-.74 1.69 1.69 0 0 0-.46-1.88zm-39 37.15a8 8 0 0 0-3.07 6.25v11.27h-8.34V71.62a6.44 6.44 0 0 1 2.49-5.06l11-8.52 6.62 5.11zm29.08-3.11a6.19 6.19 0 0 1 2.39 4.87v15.51h-7.84v-11a8.2 8.2 0 0 0-3.17-6.45L34.74 46.85A6.18 6.18 0 0 1 32.35 42v-8.15a1 1 0 0 0-1.06-1h-.21l-4.29.64 9.43-11.35 9.45 11.36-4.3-.64a1 1 0 0 0-1.15 1v3.64a8.2 8.2 0 0 0 3.17 6.45zm3.93-33.64a.71.71 0 0 0-.15 0h-.08a.75.75 0 0 0-.75.75V42a6.44 6.44 0 0 1-2.49 5.06l-11.31 8.76-6.63-5.12 9-7a8 8 0 0 0 3.07-6.25v-3.6a.75.75 0 0 0-.86-.74l-4.93.73.15-.17 9.91-11.92 10 12 .1.12z"/></svg>