<svg xmlns="http://www.w3.org/2000/svg" viewBox="0 0 108 108"><title>Icon_RH_arrows_scalable-box_RGB_Black</title><path d="M87.83 19.25H20.17a.75.75 0 0 0-.75.75v67.67a.75.75 0 0 0 .75.75h67.66a.75.75 0 0 0 .75-.75V20a.75.75 0 0 0-.75-.75zm-.75 67.67H20.92V20.75h66.16zM28.46 46.21a1.55 1.55 0 0 0 1.84-.94L33 40.1l14.89 13.18a5.6 5.6 0 0 0 0 .81L33 67.27l-2.74-5.18a1.54 1.54 0 0 0-1.84-.94 1.81 1.81 0 0 0-1.35 1.71L25.4 81a.9.9 0 0 0 1 1l18.17-1.72a2.14 2.14 0 0 0 1.25-.57 1.52 1.52 0 0 0 .42-.78 1.54 1.54 0 0 0-.94-1.84l-5.2-2.77 13.55-15.26h.06L67.9 75l-5.18 2.7a1.55 1.55 0 0 0-.94 1.84 1.78 1.78 0 0 0 1.71 1.35l18.13 1.71a.9.9 0 0 0 1-1l-1.74-18.15a1.75 1.75 0 0 0-1.34-1.66 1.55 1.55 0 0 0-1.84.94L75 67.9 59.05 53.75v-.1L74.32 40.1l2.74 5.18a1.54 1.54 0 0 0 1.84.94 1.52 1.52 0 0 0 .78-.42 2.18 2.18 0 0 0 .57-1.29L82 26.38a.9.9 0 0 0-1-1l-18.19 1.74a1.81 1.81 0 0 0-1.66 1.34 1.54 1.54 0 0 0 .94 1.84l5.18 2.7-13.18 14.92a5.7 5.7 0 0 0-.85 0L40.1 33l5.18-2.74a1.55 1.55 0 0 0 .94-1.84 1.78 1.78 0 0 0-1.71-1.35L26.38 25.4a.9.9 0 0 0-1 1l1.72 18.17a1.75 1.75 0 0 0 1.36 1.64zM38 74a.9.9 0 0 0 .25 1.39l5.88 3.11-16.84 1.57 1.59-16.83L32 69.12a.9.9 0 0 0 1.39.25L48.48 56a5.53 5.53 0 0 0 3.07 2.73zm36.62-4a.9.9 0 0 0 1.38-.25l3.11-5.88L80.7 80.7l-16.83-1.58L69.75 76a.9.9 0 0 0 .25-1.38l-14.29-16a5.53 5.53 0 0 0 2.87-2.86zm-5.25-36.62a.9.9 0 0 0-.25-1.38l-5.88-3.11 16.83-1.59-1.59 16.83-3.11-5.88A.9.9 0 0 0 74 38L58.72 51.55A5.53 5.53 0 0 0 56 48.48zm-16.48 15.9a4.27 4.27 0 0 1 1.69.11 4.15 4.15 0 0 1 .49.14 4.2 4.2 0 0 1 2.54 3 4.27 4.27 0 0 1-.12 2.18v.05a4.09 4.09 0 0 1-2.66 2.66h-.08a4.27 4.27 0 0 1-2.18.11 4.2 4.2 0 0 1-2.07-1.13 4.25 4.25 0 0 1-.94-1.42c-.06-.14-.09-.29-.13-.44a4.25 4.25 0 0 1-.12-1.74 4.3 4.3 0 0 1 .14-.64 4.08 4.08 0 0 1 2.79-2.81 4.14 4.14 0 0 1 .65-.07zm-8.76-20.4L38.25 32a.9.9 0 0 0-.25 1.38l13.25 15a5.54 5.54 0 0 0-2.92 2.93L33.38 38a.9.9 0 0 0-1.39.25l-3.11 5.88-1.59-16.84z"/></svg>