<?xml version="1.0" encoding="utf-8"?>
<!-- Generator: Adobe Illustrator 17.1.0, SVG Export Plug-In . SVG Version: 6.00 Build 0)  -->
<!DOCTYPE svg PUBLIC "-//W3C//DTD SVG 1.1//EN" "http://www.w3.org/Graphics/SVG/1.1/DTD/svg11.dtd">
<svg version="1.1" id="Layer_1" xmlns="http://www.w3.org/2000/svg" xmlns:xlink="http://www.w3.org/1999/xlink" x="0px" y="0px"
	 viewBox="0 0 216 216" enable-background="new 0 0 216 216" xml:space="preserve">
<path d="M129.757,112.423c0-10.416-7.029-14.369-16.079-17.385V80.829c2.326,0.833,4.372,2.189,6.351,4.213
	c0.197,0.199,0.456,0.301,0.716,0.301c0.14,0,0.276-0.036,0.406-0.094c0.138-0.049,0.268-0.122,0.377-0.233l5.984-6.085
	c0.023-0.024,0.031-0.054,0.052-0.08c0.004-0.003,0.009-0.004,0.012-0.008c0.384-0.396,0.374-1.029-0.023-1.414
	c-4.202-4.066-8.754-6.533-13.874-7.559v-6.619c0-0.304-0.144-0.567-0.358-0.751c-0.181-0.183-0.432-0.297-0.71-0.297h-8.193
	c-0.417,0-0.773,0.257-0.923,0.62c-0.062,0.131-0.104,0.273-0.104,0.428v6.445c-9.455,1.611-15.523,8.084-15.523,16.711
	c0,10.365,6.041,13.893,15.523,16.955v16.406c-3.621-0.996-7.09-3.09-9.661-5.877c-0.034-0.037-0.079-0.054-0.117-0.085
	c-0.02-0.025-0.029-0.056-0.052-0.079c-0.386-0.393-1.021-0.398-1.414-0.01l-6.139,6.052c-0.393,0.388-0.398,1.021-0.01,1.414
	c0.004,0.004,0.01,0.006,0.015,0.01c0.013,0.018,0.016,0.038,0.03,0.055c4.417,5.169,10.55,8.483,17.348,9.409v7.812l-5.284-2.327
	c-0.797-0.398-1.649-0.145-2.167,0.637c-0.205,0.308-0.593,1.141,0.258,2.279l11.565,13.979c0.19,0.23,0.472,0.363,0.771,0.363
	c0.298,0,0.58-0.133,0.771-0.363l11.594-14.014c0.573-0.76,0.661-1.597,0.233-2.243c-0.522-0.785-1.376-1.034-2.127-0.657
	l-5.324,2.346v-8.04C124.046,128.689,129.757,122.333,129.757,112.423z M113.678,71.911c4.285,0.934,8.148,3.003,11.75,6.286
	l-4.679,4.758c-2.156-2.024-4.484-3.415-7.071-4.229V71.911z M105.389,64.203h6.289v30.189c-0.379-0.118-0.755-0.237-1.139-0.354
	c-2.044-0.607-3.734-1.166-5.15-1.697V64.203z M88.094,120.52l4.751-4.684c2.881,2.888,6.643,5.025,10.543,5.991v6.814
	C97.448,127.77,92.087,124.91,88.094,120.52z M118.834,138.38l-10.303,12.451L98.228,138.38l5.758,2.537
	c0.309,0.137,0.665,0.107,0.948-0.078c0.283-0.184,0.455-0.499,0.455-0.837v-36.011c0.423,0.129,0.841,0.258,1.277,0.387
	c1.942,0.582,3.593,1.127,5.012,1.662v33.962c0,0.338,0.17,0.653,0.453,0.838c0.285,0.185,0.642,0.215,0.95,0.077L118.834,138.38z
	 M111.678,103.906c-1.339-0.483-2.815-0.958-4.44-1.444c-0.642-0.191-1.248-0.379-1.849-0.566c-0.694-0.217-1.36-0.434-2-0.648
	c-9.882-3.317-13.523-6.594-13.523-14.84c0-7.488,5.273-13.146,13.523-14.684v6.502c-4.256,1.012-6.769,3.867-6.769,7.768
	c0,3.684,2.143,5.799,6.769,7.718c0.623,0.259,1.284,0.517,2,0.772c1.356,0.483,2.878,0.966,4.573,1.472
	c0.591,0.179,1.155,0.358,1.716,0.539c0.688,0.221,1.354,0.443,2,0.667c9.334,3.243,14.079,6.957,14.079,15.263
	c0,8.834-4.869,14.331-14.079,15.978v-6.566c4.858-1.181,7.322-4.147,7.322-8.835c0-3.95-2.467-6.284-7.322-8.315
	C113.05,104.421,112.386,104.162,111.678,103.906z M103.389,80.298v11.229c-3.957-1.771-4.769-3.324-4.769-5.533
	C98.62,83.151,100.308,81.165,103.389,80.298z M113.678,119.755v-12.9c3.95,1.772,5.322,3.539,5.322,6.146
	C119,116.577,117.288,118.739,113.678,119.755z"/>
</svg>
