<?xml version="1.0" encoding="utf-8"?>
<!-- Generator: Adobe Illustrator 17.1.0, SVG Export Plug-In . SVG Version: 6.00 Build 0)  -->
<!DOCTYPE svg PUBLIC "-//W3C//DTD SVG 1.1//EN" "http://www.w3.org/Graphics/SVG/1.1/DTD/svg11.dtd">
<svg version="1.1" id="Layer_1" xmlns="http://www.w3.org/2000/svg" xmlns:xlink="http://www.w3.org/1999/xlink" x="0px" y="0px"
	 viewBox="0 0 216 216" enable-background="new 0 0 216 216" xml:space="preserve">
<path d="M133.55,73.741c0.227-0.304,0.264-0.709,0.095-1.048c-0.17-0.339-0.516-0.553-0.894-0.553h-10.724
	c-0.313,0-0.609,0.147-0.798,0.397L107.61,90.562L94.789,72.56c-0.188-0.264-0.491-0.42-0.814-0.42H83.25
	c-0.376,0-0.721,0.211-0.892,0.547c-0.17,0.335-0.139,0.737,0.083,1.042l20.023,27.511v1.7H91.5c-0.553,0-1,0.447-1,1v5.225
	c0,0.553,0.447,1,1,1h10.964v4.189H91.5c-0.553,0-1,0.447-1,1v5.225c0,0.553,0.447,1,1,1h10.964h0.005v7.351l-5.284-2.327
	c-0.797-0.398-1.65-0.145-2.167,0.637c-0.205,0.308-0.593,1.141,0.258,2.279l11.565,13.979c0.19,0.231,0.472,0.363,0.771,0.363
	c0.298,0,0.581-0.133,0.771-0.363l11.594-14.014c0.573-0.76,0.661-1.597,0.233-2.243c-0.523-0.785-1.376-1.034-2.127-0.657
	l-5.429,2.346v-7.35h0.057H124.5c0.553,0,1-0.447,1-1v-5.225c0-0.553-0.447-1-1-1h-11.789v-4.189H124.5c0.553,0,1-0.447,1-1v-5.225
	c0-0.553-0.447-1-1-1h-11.789v-1.417L133.55,73.741z M112.711,104.94H123.5v3.225h-10.789h-2v2v4.189v2h2H123.5v3.225h-10.789h-2
	v0.904l-0.004-0.001l-0.053,9.981c0,0.338,0.17,0.653,0.453,0.838c0.285,0.185,0.642,0.215,0.95,0.077l5.857-2.537l-10.303,12.451
	L97.308,128.84l5.758,2.537c0.309,0.137,0.665,0.107,0.948-0.078c0.283-0.184,0.455-0.499,0.455-0.837v-9.668l-0.005,0.001v-1.217
	h-2H92.5v-3.225h9.964h2v-2v-4.189v-2h-2H92.5v-3.225h9.964h2v-2v-2.025c0-0.212-0.067-0.417-0.192-0.589L85.215,74.141h8.243
	l13.313,18.692c0.185,0.259,0.482,0.415,0.801,0.42c0.004,0,0.009,0,0.014,0c0.313,0,0.609-0.147,0.798-0.397l14.14-18.715h8.226
	l-19.839,26.45c-0.13,0.173-0.2,0.383-0.2,0.6v1.75v2H112.711z"/>
</svg>
