<svg id="ICON" xmlns="http://www.w3.org/2000/svg" viewBox="0 0 108 108"><defs><style>.cls-1{fill:#fff;}</style></defs><title>Icon_RH_arrows_syndicate-share_RGB_White</title><path class="cls-1" d="M92.64 41.1L66.26 19.17a3.07 3.07 0 0 0-3.39-1c-.44.21-1.45.92-1.22 2.92L63 30.43c-9.88.47-17.78 3.12-23.73 8H21.19a.75.75 0 0 0-.75.75v40.4a.75.75 0 0 0 .75.75h51.48a.75.75 0 0 0 .75-.75v-21l19.22-16a1 1 0 0 0 0-1.54zM71.92 78.81h-50V39.92H37.6c-7.72 7.36-11.72 19-12.1 35.06a1 1 0 0 0 .7 1 1 1 0 0 0 .3 0 1 1 0 0 0 .83-.44C37 61.11 48.36 54 63 53.38l-1.37 9.24c-.22 2 .79 2.67 1.23 2.89a3 3 0 0 0 3.33-.89l5.73-4.76zm-7.08-15.67c-.53.53-1 .61-1.11.56s-.17-.23-.11-.83l1.55-10.39a1 1 0 0 0-.24-.81 1 1 0 0 0-.77-.34c-14.93.32-26.61 6.78-36.51 20.29 1.52-25.68 13.51-38.52 36.56-39.23a1 1 0 0 0 1-1.15l-1.59-10.35c-.07-.63.08-.85.1-.86h.08a1.87 1.87 0 0 1 1.1.64l25.54 21.19z"/></svg>