<svg data-name="Layer 1" xmlns="http://www.w3.org/2000/svg" viewBox="0 0 108 108"><title>Icon_RH_Software_App-Bconnected_RGB_Black</title><path d="M25.4 24.12a.78.78 0 0 0-1.1 0 .67.67 0 0 0 0 1l.7.7a.78.78 0 0 0 1.1-1.1zm1 48.1a.78.78 0 0 0-1.1 0 .67.67 0 0 0 0 1l1.4 1.4a.78.78 0 0 0 1.1-1.1zm7 7.1a.78.78 0 0 0-1.1 1.1l1.4 1.4a.78.78 0 0 0 1.1 0 .67.67 0 0 0 0-1zm47.3-44.7a.78.78 0 0 0 1.1 0 .67.67 0 0 0 0-1l-1.4-1.4a.78.78 0 0 0-1.1 1.1zM77.2 31a.78.78 0 0 0 1.1 0 .67.67 0 0 0 0-1l-1.4-1.4a.78.78 0 0 0-1.1 0 .67.67 0 0 0 0 1zm-3.5-3.5a.78.78 0 0 0 1.1 0 .67.67 0 0 0 0-1L73.3 25a.78.78 0 0 0-1.1 1.1zM29.9 75.82a.78.78 0 0 0-1.1 0 .67.67 0 0 0 0 1l1.4 1.4a.78.78 0 0 0 1.1 0 .67.67 0 0 0 0-1zM59.4 53l-6.1 17H56l1.4-4h6.8l1.4 4h2.7l-6.2-17zm-1.3 10.7l1.4-3.9c.1-.3.2-.6.3-1l.3-1.1.3-1a4.08 4.08 0 0 0 .2-.7 2.54 2.54 0 0 0 .2.7l.3 1a4.87 4.87 0 0 0 .4 1.1 5.39 5.39 0 0 1 .3 1l1.4 3.9zM28.3 27a.78.78 0 0 0-1.1 0 .9.9 0 0 0 0 1l1.5 1.5a.78.78 0 0 0 1.1 0 .67.67 0 0 0 0-1zm54.5 8.6H71.6V24.82A2.8 2.8 0 0 0 68.8 22H25a2.86 2.86 0 0 0-2.8 2.8v43.8a2.8 2.8 0 0 0 2.8 2.8h10.7v11.2a3.12 3.12 0 0 0 3.1 3.1h43.9a3.12 3.12 0 0 0 3.1-3.1V38.72a2.91 2.91 0 0 0-3-3.1zm-47 3.1v31.8H25a1.79 1.79 0 0 1-1.8-1.8V24.82A1.79 1.79 0 0 1 25 23h43.8a1.79 1.79 0 0 1 1.8 1.8v10.7H38.8a3.05 3.05 0 0 0-3 3.2zm48.5 43.9a1.47 1.47 0 0 1-1.5 1.5h-44a1.63 1.63 0 0 1-1.6-1.5V38.72a1.64 1.64 0 0 1 1.6-1.6h43.9a1.5 1.5 0 0 1 1.5 1.6v43.9zM32 30.82a.78.78 0 0 0-1.1 0 .67.67 0 0 0 0 1l1.5 1.5a.78.78 0 0 0 1.1-1.1zm3.7 3.6a.78.78 0 0 0-1.1 0 .67.67 0 0 0 0 1l.7.7A.78.78 0 1 0 36.4 35zm46.5 10.3A1.3 1.3 0 1 0 80.9 46a1.32 1.32 0 0 0 1.3-1.28zm0-4.1a1.3 1.3 0 1 0-1.3 1.3 1.32 1.32 0 0 0 1.3-1.3zm0 8.2a1.3 1.3 0 1 0-1.3 1.3 1.32 1.32 0 0 0 1.3-1.3z"/></svg>