<?xml version="1.0" encoding="utf-8"?>
<!-- Generator: Adobe Illustrator 17.1.0, SVG Export Plug-In . SVG Version: 6.00 Build 0)  -->
<!DOCTYPE svg PUBLIC "-//W3C//DTD SVG 1.1//EN" "http://www.w3.org/Graphics/SVG/1.1/DTD/svg11.dtd">
<svg version="1.1" id="Layer_1" xmlns="http://www.w3.org/2000/svg" xmlns:xlink="http://www.w3.org/1999/xlink" x="0px" y="0px"
	 viewBox="0 0 216 216" enable-background="new 0 0 216 216" xml:space="preserve">
<g>
	<path fill="#FFFFFF" d="M140.672,127.293c-0.011,0.002-0.022,0.002-0.033,0.006C140.649,127.295,140.661,127.295,140.672,127.293z"
		/>
	<path fill="#FFFFFF" d="M111.279,126.456c0-0.163-0.017-0.321-0.048-0.475C111.263,126.135,111.279,126.293,111.279,126.456z"/>
	<path fill="#FFFFFF" d="M77.775,127.371c0.127,0,0.254-0.029,0.381-0.05c-0.131,0.021-0.262,0.048-0.393,0.048
		C77.768,127.369,77.771,127.371,77.775,127.371z"/>
	<path fill="#FFFFFF" d="M78.951,127.055c-0.188,0.107-0.383,0.187-0.583,0.238C78.568,127.241,78.764,127.162,78.951,127.055z"/>
	<path fill="#FFFFFF" d="M110.878,125.139c0.059,0.087,0.104,0.182,0.15,0.277C110.981,125.32,110.937,125.226,110.878,125.139z"/>
	<path fill="#FFFFFF" d="M140.065,127.373c0.022,0,0.044-0.008,0.065-0.01c-0.055,0.002-0.109-0.002-0.164-0.004
		C140,127.361,140.032,127.373,140.065,127.373z"/>
	<path fill="#FFFFFF" d="M109.746,145.195c-0.114,0.043-0.229,0.084-0.352,0.109C109.517,145.279,109.632,145.238,109.746,145.195z"
		/>
	<path fill="#FFFFFF" d="M77.36,127.316c-0.067-0.013-0.138-0.012-0.204-0.029C77.223,127.305,77.293,127.304,77.36,127.316z"/>
	<path fill="#FFFFFF" d="M93.667,115c0.041,0.037,0.083,0.072,0.121,0.113C93.749,115.072,93.708,115.037,93.667,115z"/>
	<path fill="#FFFFFF" d="M93.204,114.67c0.047,0.025,0.091,0.056,0.136,0.084C93.294,114.726,93.251,114.695,93.204,114.67z"/>
	<path fill="#FFFFFF" d="M141.309,127.006c-0.044,0.027-0.087,0.058-0.133,0.082C141.222,127.063,141.265,127.034,141.309,127.006z"
		/>
	<path fill="#FFFFFF" d="M91.438,114.486c0.054-0.016,0.108-0.024,0.163-0.036C91.547,114.462,91.493,114.471,91.438,114.486z"/>
	<path fill="#FFFFFF" d="M110.591,124.79c0.087,0.087,0.162,0.185,0.234,0.284C110.753,124.975,110.678,124.877,110.591,124.79z"/>
	<path fill="#FFFFFF" d="M92.093,114.387c-0.033,0-0.066,0.012-0.1,0.014c0.056-0.003,0.111-0.006,0.167-0.005
		C92.137,114.395,92.115,114.387,92.093,114.387z"/>
	<path fill="#FFFFFF" d="M92.661,114.461c0.013,0.002,0.027,0.002,0.04,0.006C92.688,114.463,92.674,114.463,92.661,114.461z"/>
	<path fill="#FFFFFF" d="M111.095,125.539c0.042,0.1,0.068,0.205,0.097,0.311C111.163,125.744,111.137,125.639,111.095,125.539z"/>
	<path fill="#FFFFFF" d="M106.884,125.295c0.029-0.052,0.052-0.107,0.084-0.156C106.936,125.188,106.913,125.243,106.884,125.295z"
		/>
	<path fill="#FFFFFF" d="M107.136,124.936c0.041-0.048,0.076-0.102,0.12-0.145C107.212,124.835,107.177,124.888,107.136,124.936z"/>
	<path fill="#FFFFFF" d="M106.673,125.789c0.024-0.084,0.044-0.17,0.077-0.25C106.717,125.619,106.697,125.705,106.673,125.789z"/>
	<path fill="#FFFFFF" d="M107.427,124.649c0.06-0.05,0.114-0.104,0.179-0.147C107.541,124.546,107.486,124.6,107.427,124.649z"/>
	<path fill="#FFFFFF" d="M141.759,126.646c-0.038,0.04-0.079,0.075-0.12,0.111C141.68,126.721,141.721,126.688,141.759,126.646z"/>
	<path fill="#FFFFFF" d="M110.243,124.502c0.097,0.066,0.183,0.145,0.269,0.223C110.426,124.646,110.34,124.568,110.243,124.502z"/>
	<path fill="#FFFFFF" d="M106.564,126.456c0-0.163,0.017-0.321,0.049-0.476C106.581,126.135,106.564,126.293,106.564,126.456z"/>
	<path fill="#FFFFFF" d="M108.921,145.352c0.093,0,0.182-0.017,0.271-0.027c-0.091,0.011-0.18,0.027-0.273,0.027
		C108.92,145.352,108.92,145.352,108.921,145.352z"/>
	<path fill="#FFFFFF" d="M109.401,124.148c0.097,0.02,0.187,0.055,0.279,0.086C109.588,124.203,109.498,124.168,109.401,124.148z"/>
	<path fill="#FFFFFF" d="M110.165,144.989c-0.105,0.065-0.213,0.13-0.328,0.179C109.952,145.119,110.06,145.055,110.165,144.989z"/>
	<path fill="#FFFFFF" d="M108.929,124.101c-0.002,0-0.003,0-0.004,0c0.094,0,0.183,0.017,0.274,0.027
		C109.109,124.117,109.021,124.101,108.929,124.101z"/>
	<path fill="#FFFFFF" d="M108.921,124.101c-0.093,0-0.182,0.017-0.272,0.027c0.092-0.011,0.182-0.027,0.276-0.027
		C108.924,124.101,108.923,124.101,108.921,124.101z"/>
	<path fill="#FFFFFF" d="M108.19,124.229c0.085-0.029,0.169-0.062,0.258-0.08C108.359,124.166,108.275,124.199,108.19,124.229z"/>
	<path fill="#FFFFFF" d="M107.783,124.406c0.073-0.041,0.145-0.088,0.223-0.121C107.928,124.318,107.856,124.365,107.783,124.406z"
		/>
	<path fill="#FFFFFF" d="M109.843,124.285c0.09,0.038,0.172,0.09,0.256,0.139C110.015,124.375,109.933,124.324,109.843,124.285z"/>
	<path fill="#FFFFFF" d="M126.317,105.849c0.026-0.046,0.046-0.097,0.075-0.14C126.363,105.752,126.344,105.803,126.317,105.849z"/>
	<path fill="#FFFFFF" d="M126.56,105.507c0.041-0.048,0.076-0.103,0.121-0.147C126.636,105.404,126.601,105.459,126.56,105.507z"/>
	<path fill="#FFFFFF" d="M147.061,106.113c0.039,0.094,0.063,0.194,0.091,0.293C147.124,106.308,147.1,106.207,147.061,106.113z"/>
	<path fill="#FFFFFF" d="M147.198,106.556c0.031,0.153,0.048,0.312,0.048,0.475C147.246,106.867,147.229,106.709,147.198,106.556z"
		/>
	<path fill="#FFFFFF" d="M125.99,107.027c0-0.162,0.017-0.322,0.048-0.475C126.007,106.705,125.99,106.865,125.99,107.027z"/>
	<path fill="#FFFFFF" d="M126.153,106.18c0.009-0.022,0.013-0.047,0.022-0.07C126.166,106.133,126.162,106.157,126.153,106.18z"/>
	<path fill="#FFFFFF" d="M92.629,139.808c-0.039,0.04-0.081,0.075-0.122,0.112C92.549,139.883,92.59,139.848,92.629,139.808z"/>
	<path fill="#FFFFFF" d="M99.703,121.561c0.054,0.012,0.107,0.021,0.161,0.037C99.811,121.582,99.757,121.572,99.703,121.561z"/>
	<path fill="#FFFFFF" d="M91.54,140.455c-0.011,0.002-0.022,0.002-0.032,0.005C91.518,140.457,91.529,140.457,91.54,140.455z"/>
	<path fill="#FFFFFF" d="M92.179,140.167c-0.045,0.028-0.089,0.058-0.135,0.083C92.091,140.225,92.134,140.195,92.179,140.167z"/>
	<path fill="#FFFFFF" d="M97.967,121.863c0.044-0.027,0.088-0.057,0.134-0.082C98.054,121.807,98.012,121.836,97.967,121.863z"/>
	<path fill="#FFFFFF" d="M99.21,121.497c-0.022,0-0.044,0.008-0.066,0.009c0.056-0.002,0.11,0.002,0.166,0.004
		C99.276,121.509,99.243,121.497,99.21,121.497z"/>
	<path fill="#FFFFFF" d="M98.604,121.576c0.011-0.002,0.022-0.002,0.033-0.005C98.626,121.574,98.614,121.574,98.604,121.576z"/>
	<path fill="#FFFFFF" d="M127.195,104.982c0.077-0.045,0.152-0.093,0.234-0.127C127.348,104.89,127.272,104.938,127.195,104.982z"/>
	<path fill="#FFFFFF" d="M97.518,122.223c0.038-0.039,0.08-0.074,0.12-0.111C97.597,122.148,97.556,122.184,97.518,122.223z"/>
	<path fill="#FFFFFF" d="M126.851,105.22c0.06-0.05,0.114-0.104,0.179-0.147C126.965,105.115,126.91,105.17,126.851,105.22z"/>
	<path fill="#FFFFFF" d="M141.64,87.302c0.04,0.037,0.082,0.072,0.12,0.112C141.722,87.374,141.681,87.339,141.64,87.302z"/>
	<path fill="#FFFFFF" d="M127.63,104.793c0.081-0.026,0.158-0.059,0.241-0.075C127.788,104.734,127.711,104.767,127.63,104.793z"/>
	<path fill="#FFFFFF" d="M90.441,140.471c-0.054-0.012-0.107-0.021-0.161-0.037C90.334,140.449,90.387,140.459,90.441,140.471z"/>
	<path fill="#FFFFFF" d="M128.344,104.67c-0.085,0-0.165,0.016-0.248,0.025c0.084-0.01,0.166-0.025,0.252-0.025
		C128.347,104.67,128.346,104.67,128.344,104.67z"/>
	<path fill="#FFFFFF" d="M92.046,73.805c0.046,0.024,0.089,0.054,0.133,0.081C92.134,73.859,92.092,73.83,92.046,73.805z"/>
	<path fill="#FFFFFF" d="M119.205,121.569c0.012,0.003,0.024,0.003,0.036,0.006C119.229,121.572,119.217,121.572,119.205,121.569z"
		/>
	<path fill="#FFFFFF" d="M119.744,121.779c0.046,0.025,0.09,0.055,0.135,0.083C119.833,121.834,119.791,121.805,119.744,121.779z"/>
	<path fill="#FFFFFF" d="M120.207,122.109c0.041,0.037,0.082,0.072,0.121,0.112C120.289,122.182,120.248,122.146,120.207,122.109z"
		/>
	<path fill="#FFFFFF" d="M118.634,121.495c-0.033,0-0.065,0.011-0.099,0.013c0.055-0.002,0.11-0.006,0.165-0.004
		C118.678,121.503,118.656,121.495,118.634,121.495z"/>
	<path fill="#FFFFFF" d="M117.981,121.596c0.053-0.016,0.106-0.025,0.161-0.037C118.088,121.57,118.035,121.58,117.981,121.596z"/>
	<path fill="#FFFFFF" d="M140.067,86.688c-0.032,0-0.064,0.011-0.097,0.013c0.054-0.003,0.107-0.006,0.161-0.004
		C140.11,86.696,140.089,86.688,140.067,86.688z"/>
	<path fill="#FFFFFF" d="M118.139,92.496c-0.054-0.012-0.107-0.021-0.16-0.036C118.032,92.475,118.085,92.484,118.139,92.496z"/>
	<path fill="#FFFFFF" d="M139.415,86.788c0.053-0.015,0.105-0.025,0.159-0.036C139.52,86.764,139.468,86.773,139.415,86.788z"/>
	<path fill="#FFFFFF" d="M108.925,68.703c-0.001,0-0.001,0-0.002,0c0.094,0,0.183,0.017,0.273,0.027
		C109.106,68.72,109.018,68.703,108.925,68.703z"/>
	<path fill="#FFFFFF" d="M125.751,114.383c-0.022,0-0.044,0.008-0.066,0.008c0.056-0.001,0.11,0.002,0.165,0.005
		C125.816,114.395,125.784,114.383,125.751,114.383z"/>
	<path fill="#FFFFFF" d="M109.398,68.751c0.097,0.02,0.188,0.055,0.28,0.087C109.586,68.806,109.495,68.771,109.398,68.751z"/>
	<path fill="#FFFFFF" d="M126.903,140.535c0.127,0,0.253-0.028,0.38-0.049c-0.13,0.021-0.26,0.048-0.39,0.047
		C126.896,140.533,126.9,140.535,126.903,140.535z"/>
	<path fill="#FFFFFF" d="M126.242,114.447c0.055,0.012,0.109,0.021,0.162,0.036C126.351,114.467,126.297,114.459,126.242,114.447z"
		/>
	<path fill="#FFFFFF" d="M128.08,140.218c-0.188,0.108-0.384,0.188-0.583,0.24C127.696,140.406,127.893,140.326,128.08,140.218z"/>
	<path fill="#FFFFFF" d="M126.481,140.48c-0.063-0.012-0.131-0.01-0.193-0.026C126.351,140.47,126.418,140.468,126.481,140.48z"/>
	<path fill="#FFFFFF" d="M141.178,86.973c0.046,0.024,0.089,0.054,0.133,0.082C141.266,87.026,141.224,86.997,141.178,86.973z"/>
	<path fill="#FFFFFF" d="M140.645,86.763c0.01,0.002,0.02,0.002,0.029,0.005C140.664,86.765,140.654,86.765,140.645,86.763z"/>
	<path fill="#FFFFFF" d="M125.665,73.888c0.044-0.027,0.087-0.057,0.133-0.081C125.752,73.831,125.71,73.86,125.665,73.888z"/>
	<path fill="#FFFFFF" d="M118.632,92.561c0.021,0,0.043-0.008,0.064-0.009c-0.054,0.001-0.108-0.002-0.162-0.005
		C118.566,92.549,118.6,92.561,118.632,92.561z"/>
	<path fill="#FFFFFF" d="M109.841,68.888c0.095,0.04,0.182,0.094,0.27,0.146C110.022,68.982,109.935,68.928,109.841,68.888z"/>
	<path fill="#FFFFFF" d="M126.923,99.354c-0.188,0.108-0.383,0.187-0.583,0.239C126.54,99.541,126.736,99.463,126.923,99.354z"/>
	<path fill="#FFFFFF" d="M125.328,99.615c-0.065-0.012-0.134-0.01-0.198-0.027C125.194,99.605,125.263,99.604,125.328,99.615z"/>
	<path fill="#FFFFFF" d="M125.747,99.67c0.128,0,0.256-0.027,0.384-0.049c-0.132,0.021-0.263,0.049-0.395,0.048
		C125.74,99.669,125.743,99.67,125.747,99.67z"/>
	<path fill="#FFFFFF" d="M125.215,74.248c0.038-0.04,0.08-0.075,0.121-0.112C125.295,74.172,125.254,74.208,125.215,74.248z"/>
	<path fill="#FFFFFF" d="M120.323,91.834c-0.038,0.039-0.079,0.074-0.119,0.111C120.244,91.908,120.285,91.874,120.323,91.834z"/>
	<path fill="#FFFFFF" d="M119.873,92.194c-0.043,0.027-0.086,0.057-0.131,0.081C119.787,92.251,119.829,92.223,119.873,92.194z"/>
	<path fill="#FFFFFF" d="M119.236,92.481c-0.008,0.002-0.017,0.002-0.024,0.004C119.22,92.482,119.229,92.482,119.236,92.481z"/>
	<path fill="#FFFFFF" d="M127.399,73.585c0.054,0.012,0.108,0.021,0.162,0.037C127.508,73.606,127.454,73.597,127.399,73.585z"/>
	<path fill="#FFFFFF" d="M126.303,73.602c0.01-0.002,0.02-0.002,0.029-0.005C126.322,73.599,126.312,73.599,126.303,73.602z"/>
	<path fill="#FFFFFF" d="M126.908,73.522c-0.022,0-0.044,0.008-0.065,0.008c0.055-0.002,0.109,0.002,0.164,0.004
		C126.975,73.533,126.941,73.522,126.908,73.522z"/>
	<path fill="#FFFFFF" d="M125.144,114.463c0.011-0.003,0.022-0.003,0.032-0.006C125.166,114.46,125.155,114.46,125.144,114.463z"/>
	<path fill="#FFFFFF" d="M92.093,99.675c0.022,0,0.044-0.008,0.067-0.009c-0.056,0.002-0.112-0.002-0.168-0.004
		C92.025,99.663,92.06,99.675,92.093,99.675z"/>
	<path fill="#FFFFFF" d="M92.699,99.595c-0.013,0.003-0.025,0.003-0.038,0.007C92.674,99.598,92.687,99.598,92.699,99.595z"/>
	<path fill="#FFFFFF" d="M93.784,98.949c-0.038,0.039-0.079,0.074-0.119,0.111C93.705,99.023,93.746,98.989,93.784,98.949z"/>
	<path fill="#FFFFFF" d="M76.531,87.053c0.045-0.028,0.088-0.058,0.135-0.083C76.619,86.995,76.576,87.024,76.531,87.053z"/>
	<path fill="#FFFFFF" d="M78.268,86.75c0.054,0.012,0.107,0.021,0.161,0.037C78.375,86.771,78.322,86.762,78.268,86.75z"/>
	<path fill="#FFFFFF" d="M77.169,86.766c0.011-0.003,0.022-0.003,0.033-0.006C77.191,86.763,77.18,86.763,77.169,86.766z"/>
	<path fill="#FFFFFF" d="M77.775,86.686c-0.023,0-0.044,0.008-0.066,0.009c0.055-0.002,0.11,0.002,0.166,0.004
		C77.841,86.698,77.809,86.686,77.775,86.686z"/>
	<path fill="#FFFFFF" d="M93.336,99.309c-0.045,0.027-0.088,0.058-0.134,0.082C93.248,99.366,93.291,99.336,93.336,99.309z"/>
	<path fill="#FFFFFF" d="M91.603,99.611c-0.055-0.012-0.109-0.021-0.164-0.037C91.493,99.59,91.547,99.6,91.603,99.611z"/>
	<path fill="#FFFFFF" d="M110.819,144.379c-0.072,0.1-0.147,0.197-0.233,0.283C110.672,144.576,110.747,144.479,110.819,144.379z"/>
	<path fill="#FFFFFF" d="M110.241,69.106c0.097,0.066,0.185,0.144,0.271,0.223C110.426,69.25,110.338,69.171,110.241,69.106z"/>
	<path fill="#FFFFFF" d="M111.025,144.034c-0.047,0.095-0.093,0.192-0.152,0.28C110.933,144.227,110.979,144.129,111.025,144.034z"
		/>
	<path fill="#FFFFFF" d="M124.058,115.108c0.039-0.04,0.08-0.075,0.121-0.111C124.138,115.033,124.097,115.068,124.058,115.108z"/>
	<path fill="#FFFFFF" d="M139.573,127.309c-0.054-0.012-0.107-0.021-0.161-0.036C139.466,127.288,139.52,127.297,139.573,127.309z"
		/>
	<path fill="#FFFFFF" d="M111.135,143.77c-0.016,0.047-0.024,0.097-0.044,0.144C111.11,143.867,111.119,143.817,111.135,143.77z"/>
	<path fill="#FFFFFF" d="M90.283,73.621c0.053-0.016,0.106-0.025,0.16-0.037C90.39,73.596,90.337,73.606,90.283,73.621z"/>
	<path fill="#FFFFFF" d="M110.522,144.715c-0.09,0.084-0.183,0.166-0.286,0.235C110.34,144.881,110.433,144.799,110.522,144.715z"/>
	<path fill="#FFFFFF" d="M90.937,73.521c-0.033,0-0.066,0.011-0.1,0.013c0.056-0.002,0.11-0.006,0.166-0.004
		C90.98,73.528,90.959,73.521,90.937,73.521z"/>
	<path fill="#FFFFFF" d="M110.878,69.743c0.073,0.108,0.134,0.226,0.188,0.347C111.012,69.969,110.951,69.851,110.878,69.743z"/>
	<path fill="#FFFFFF" d="M110.59,69.394c0.087,0.086,0.161,0.184,0.233,0.283C110.751,69.578,110.677,69.48,110.59,69.394z"/>
	<path fill="#FFFFFF" d="M111.095,70.143c0.119,0.282,0.186,0.592,0.186,0.917C111.28,70.735,111.214,70.425,111.095,70.143z"/>
	<path fill="#FFFFFF" d="M91.512,73.595c0.01,0.002,0.021,0.002,0.03,0.005C91.532,73.598,91.521,73.598,91.512,73.595z"/>
	<path fill="#FFFFFF" d="M100.384,92.246c-0.188,0.107-0.384,0.186-0.583,0.238C100,92.432,100.196,92.354,100.384,92.246z"/>
	<path fill="#FFFFFF" d="M98.789,92.506c-0.065-0.012-0.134-0.01-0.198-0.027C98.655,92.496,98.724,92.494,98.789,92.506z"/>
	<path fill="#FFFFFF" d="M124.508,114.749c0.044-0.027,0.087-0.058,0.133-0.081C124.595,114.691,124.552,114.721,124.508,114.749z"
		/>
	<path fill="#FFFFFF" d="M99.209,92.561c0.127,0,0.254-0.027,0.381-0.049c-0.131,0.021-0.262,0.049-0.392,0.048
		C99.201,92.56,99.205,92.561,99.209,92.561z"/>
	<path fill="#FFFFFF" d="M92.509,74.135c0.04,0.036,0.081,0.071,0.119,0.111C92.59,74.207,92.549,74.172,92.509,74.135z"/>
	<path fill="#FFFFFF" d="M76.082,87.412c0.039-0.04,0.08-0.075,0.121-0.111C76.162,87.337,76.121,87.372,76.082,87.412z"/>
	<path fill="#FFFFFF" d="M90.934,140.534c0.022,0,0.044-0.008,0.066-0.009c-0.056,0.002-0.11-0.002-0.166-0.004
		C90.867,140.523,90.9,140.534,90.934,140.534z"/>
	<path fill="#FFFFFF" d="M146.207,105.076c0.073,0.049,0.136,0.11,0.202,0.167C146.343,105.187,146.28,105.125,146.207,105.076z"/>
	<path fill="#FFFFFF" d="M145.808,104.859c0.084,0.035,0.16,0.084,0.238,0.129C145.968,104.943,145.892,104.895,145.808,104.859z"/>
	<path fill="#FFFFFF" d="M144.895,104.674c-0.002,0-0.004,0-0.006,0c0.094,0,0.184,0.017,0.274,0.027
		C145.074,104.691,144.986,104.674,144.895,104.674z"/>
	<path fill="#FFFFFF" d="M145.365,104.722c0.093,0.019,0.18,0.054,0.268,0.083C145.545,104.775,145.458,104.74,145.365,104.722z"/>
	<path fill="#FFFFFF" d="M146.556,105.364c0.059,0.06,0.106,0.128,0.159,0.193C146.662,105.492,146.614,105.424,146.556,105.364z"/>
	<path fill="#FFFFFF" d="M146.843,105.713c0.055,0.081,0.096,0.17,0.141,0.258C146.938,105.883,146.897,105.794,146.843,105.713z"/>
	<path fill="#FFFFFF" d="M116.956,93.109c0.51,0.295,1.09,0.451,1.676,0.451c1.198,0,2.312-0.646,2.909-1.684l8.272-14.318
		c0.448-0.777,0.567-1.682,0.335-2.548c-0.232-0.866-0.788-1.59-1.565-2.039c-0.51-0.295-1.089-0.45-1.675-0.45
		c-1.197,0-2.312,0.644-2.91,1.679l-8.273,14.32C114.802,90.127,115.354,92.185,116.956,93.109z M116.591,89.021l8.273-14.32
		c0.099-0.17,0.22-0.318,0.351-0.454c0.039-0.04,0.08-0.075,0.121-0.112c0.104-0.093,0.213-0.176,0.329-0.248
		c0.045-0.028,0.087-0.057,0.133-0.081c0.161-0.086,0.329-0.158,0.505-0.205c0.01-0.002,0.02-0.002,0.029-0.005
		c0.166-0.042,0.338-0.062,0.511-0.066c0.021-0.001,0.043-0.008,0.065-0.008c0.033,0,0.066,0.011,0.099,0.013
		c0.132,0.006,0.263,0.023,0.393,0.051c0.055,0.012,0.108,0.021,0.162,0.037c0.178,0.052,0.354,0.118,0.521,0.215
		c1.129,0.652,1.516,2.094,0.864,3.221l-8.273,14.32c-0.099,0.171-0.22,0.319-0.351,0.455c-0.038,0.04-0.079,0.074-0.119,0.111
		c-0.104,0.094-0.214,0.177-0.331,0.249c-0.044,0.028-0.086,0.057-0.131,0.081c-0.162,0.086-0.33,0.158-0.506,0.205
		c-0.008,0.002-0.017,0.002-0.024,0.004c-0.168,0.043-0.341,0.062-0.516,0.067c-0.021,0.001-0.043,0.009-0.064,0.009
		c-0.032,0-0.065-0.012-0.098-0.014c-0.132-0.005-0.264-0.022-0.396-0.051c-0.054-0.012-0.106-0.021-0.16-0.036
		c-0.179-0.052-0.354-0.118-0.522-0.216C116.327,91.592,115.941,90.15,116.591,89.021z"/>
	<path fill="#FFFFFF" d="M75.293,93.337l14.324,8.274c0.754,0.434,1.609,0.663,2.476,0.663c1.77,0,3.415-0.952,4.296-2.483
		c0.66-1.141,0.837-2.476,0.495-3.758c-0.193-0.721-0.552-1.362-1.021-1.914c0.238,0.203,0.489,0.393,0.763,0.551
		c0.787,0.453,1.679,0.691,2.583,0.691c0.899,0,1.789-0.238,2.571-0.688c1.601-0.924,2.504-2.581,2.562-4.304
		c0.46,0.76,1.102,1.411,1.893,1.869c0.828,0.473,1.746,0.718,2.676,0.72c2.96-0.003,5.363-2.405,5.365-5.356l0.004-16.541
		c0-2.955-2.402-5.358-5.355-5.358h-0.002c-2.954,0-5.357,2.403-5.357,5.357l-0.004,16.374L95.403,73.3
		c-0.915-1.59-2.628-2.58-4.467-2.58c-0.901,0-1.793,0.239-2.576,0.691c-2.463,1.422-3.312,4.582-1.892,7.044l8.271,14.327
		c0.15,0.262,0.332,0.504,0.527,0.736c-0.217-0.181-0.443-0.352-0.692-0.496l-14.322-8.272c-0.752-0.435-1.609-0.666-2.477-0.666
		l0,0c-1.766,0-3.412,0.95-4.295,2.478c-0.662,1.143-0.84,2.478-0.498,3.758C73.324,91.603,74.145,92.674,75.293,93.337z
		 M106.565,71.061c0-1.302,1.055-2.357,2.357-2.357c0.001,0,0.001,0,0.002,0c0.093,0,0.182,0.017,0.271,0.027
		c0.067,0.008,0.137,0.007,0.202,0.02c0.097,0.02,0.188,0.055,0.28,0.087c0.053,0.018,0.11,0.028,0.162,0.05
		c0.095,0.04,0.182,0.094,0.27,0.146c0.043,0.025,0.09,0.043,0.131,0.071c0.097,0.066,0.185,0.144,0.271,0.223
		c0.024,0.023,0.054,0.041,0.078,0.065c0.087,0.086,0.161,0.184,0.233,0.283c0.018,0.023,0.038,0.042,0.055,0.066
		c0.073,0.108,0.134,0.226,0.188,0.347c0.008,0.019,0.021,0.035,0.028,0.053c0.119,0.282,0.186,0.592,0.186,0.917L111.276,87.6
		c-0.001,1.304-1.057,2.357-2.358,2.358c-0.426-0.001-0.83-0.116-1.178-0.314c-0.704-0.408-1.178-1.171-1.179-2.044L106.565,71.061z
		 M88.895,77.058c-0.65-1.128-0.263-2.569,0.865-3.221c0.168-0.097,0.345-0.164,0.523-0.216c0.054-0.016,0.106-0.025,0.16-0.037
		c0.131-0.028,0.263-0.045,0.394-0.051c0.033-0.002,0.066-0.013,0.1-0.013c0.022,0,0.044,0.008,0.066,0.008
		c0.172,0.005,0.343,0.024,0.509,0.066c0.01,0.002,0.021,0.002,0.03,0.005c0.176,0.047,0.344,0.119,0.504,0.205
		c0.046,0.024,0.088,0.054,0.133,0.081c0.116,0.072,0.227,0.156,0.33,0.249c0.04,0.037,0.081,0.071,0.119,0.111
		c0.131,0.136,0.252,0.284,0.351,0.454l8.269,14.325c0.65,1.128,0.264,2.57-0.863,3.221c-0.188,0.107-0.384,0.186-0.583,0.238
		c-0.069,0.018-0.141,0.016-0.211,0.027c-0.127,0.021-0.254,0.049-0.381,0.049c-0.004,0-0.008-0.001-0.012-0.001
		c-0.139-0.001-0.273-0.029-0.408-0.054c-0.065-0.012-0.134-0.01-0.198-0.027c-0.197-0.053-0.388-0.131-0.565-0.233
		c-0.349-0.201-0.648-0.491-0.861-0.862L88.895,77.058z M75.731,87.865c0.099-0.17,0.22-0.318,0.351-0.454
		c0.039-0.04,0.08-0.075,0.121-0.111c0.103-0.093,0.213-0.176,0.328-0.248c0.045-0.028,0.088-0.058,0.135-0.083
		c0.16-0.085,0.328-0.158,0.503-0.204c0.011-0.003,0.022-0.003,0.033-0.006c0.165-0.042,0.335-0.061,0.507-0.065
		c0.022-0.001,0.043-0.009,0.066-0.009c0.033,0,0.065,0.012,0.1,0.013c0.131,0.006,0.262,0.024,0.393,0.051
		c0.055,0.012,0.107,0.021,0.161,0.037c0.179,0.052,0.354,0.119,0.522,0.216l14.324,8.273c1.126,0.649,1.512,2.092,0.859,3.219
		c-0.099,0.171-0.22,0.319-0.351,0.454c-0.038,0.04-0.079,0.074-0.119,0.111c-0.104,0.093-0.213,0.176-0.329,0.248
		c-0.045,0.027-0.088,0.058-0.134,0.082c-0.161,0.086-0.328,0.158-0.503,0.204c-0.013,0.003-0.025,0.003-0.038,0.007
		c-0.164,0.041-0.332,0.06-0.501,0.064c-0.023,0.001-0.045,0.009-0.067,0.009c-0.033,0-0.067-0.012-0.101-0.013
		c-0.13-0.006-0.261-0.023-0.39-0.051c-0.056-0.012-0.109-0.021-0.164-0.037c-0.178-0.052-0.354-0.118-0.521-0.215l-14.324-8.274
		C75.467,90.435,75.079,88.991,75.731,87.865z"/>
	<path fill="#FFFFFF" d="M70.576,111.148c0.718,0.416,1.541,0.637,2.377,0.637l16.541,0.002c2.627-0.004,4.759-2.141,4.755-4.762
		c0-2.619-2.133-4.752-4.755-4.752l-16.541-0.002l0,0c-2.619,0-4.754,2.131-4.758,4.752
		C68.195,108.723,69.107,110.301,70.576,111.148z M72.953,104.671l16.541,0.002c1.297,0,2.354,1.054,2.354,2.355
		c0.002,1.306-1.056,2.357-2.354,2.359l-16.541-0.002c-0.428,0-0.829-0.114-1.178-0.316c-0.704-0.406-1.18-1.168-1.18-2.042
		C70.598,105.725,71.652,104.671,72.953,104.671z"/>
	<path fill="#FFFFFF" d="M96.044,114.468c-0.81-1.407-2.323-2.28-3.951-2.28c-0.797,0-1.583,0.21-2.274,0.609l-14.324,8.268
		c-1.055,0.607-1.81,1.591-2.125,2.768c-0.314,1.175-0.152,2.403,0.455,3.458c0.404,0.697,0.982,1.274,1.674,1.67
		c0.684,0.396,1.475,0.609,2.277,0.609c0.797,0,1.584-0.211,2.275-0.61l14.323-8.269C96.549,119.436,97.297,116.645,96.044,114.468z
		 M93.274,118.786l-14.323,8.269c-0.188,0.107-0.383,0.187-0.583,0.238c-0.069,0.02-0.142,0.017-0.212,0.028
		c-0.127,0.021-0.254,0.05-0.381,0.05c-0.004,0-0.008-0.002-0.012-0.002c-0.137-0.001-0.27-0.029-0.403-0.053
		c-0.067-0.013-0.138-0.012-0.204-0.029c-0.196-0.053-0.387-0.131-0.565-0.234c-0.348-0.199-0.646-0.49-0.861-0.861
		c-0.65-1.128-0.266-2.57,0.863-3.221l14.323-8.269c0.168-0.097,0.344-0.163,0.521-0.216c0.055-0.016,0.108-0.024,0.163-0.036
		c0.13-0.028,0.26-0.045,0.392-0.05c0.033-0.002,0.066-0.014,0.1-0.014c0.022,0,0.044,0.008,0.067,0.009
		c0.169,0.005,0.337,0.024,0.501,0.065c0.013,0.002,0.027,0.002,0.04,0.006c0.175,0.047,0.342,0.119,0.503,0.203
		c0.047,0.025,0.09,0.056,0.136,0.084c0.115,0.072,0.225,0.154,0.327,0.246c0.041,0.037,0.082,0.072,0.121,0.113
		c0.131,0.135,0.252,0.282,0.35,0.452C94.787,116.693,94.402,118.135,93.274,118.786z"/>
	<path fill="#FFFFFF" d="M88.759,141.95c0.66,0.382,1.413,0.584,2.175,0.584c1.552,0,2.999-0.835,3.777-2.178l8.271-14.321
		c0.582-1.008,0.737-2.182,0.437-3.307c-0.302-1.125-1.022-2.065-2.031-2.647c-0.662-0.382-1.414-0.584-2.177-0.584
		c-1.555,0-3.002,0.837-3.776,2.184l-8.27,14.315C85.963,138.081,86.679,140.751,88.759,141.95z M88.896,136.997l8.271-14.319
		c0.099-0.171,0.22-0.318,0.351-0.455c0.038-0.039,0.079-0.074,0.12-0.111c0.104-0.093,0.213-0.176,0.329-0.248
		c0.045-0.027,0.087-0.057,0.134-0.082c0.16-0.086,0.328-0.158,0.503-0.205c0.011-0.002,0.022-0.002,0.033-0.005
		c0.165-0.042,0.336-0.061,0.507-0.065c0.022-0.001,0.044-0.009,0.066-0.009c0.033,0,0.066,0.012,0.1,0.013
		c0.132,0.006,0.263,0.023,0.394,0.051c0.054,0.012,0.107,0.021,0.161,0.037c0.179,0.052,0.354,0.119,0.522,0.216
		c1.129,0.651,1.514,2.095,0.863,3.222l-8.27,14.318c-0.099,0.17-0.221,0.318-0.352,0.454c-0.039,0.04-0.08,0.075-0.122,0.112
		c-0.103,0.093-0.212,0.176-0.328,0.247c-0.045,0.028-0.088,0.058-0.135,0.083c-0.161,0.086-0.329,0.158-0.504,0.205
		c-0.011,0.002-0.022,0.002-0.032,0.005c-0.166,0.042-0.337,0.06-0.508,0.065c-0.022,0.001-0.044,0.009-0.066,0.009
		c-0.033,0-0.066-0.012-0.1-0.013c-0.131-0.006-0.263-0.023-0.393-0.051c-0.055-0.012-0.107-0.021-0.161-0.037
		c-0.178-0.052-0.354-0.119-0.522-0.216C88.63,139.567,88.245,138.126,88.896,136.997z"/>
	<path fill="#FFFFFF" d="M108.929,122.301h-0.004c-2.294,0-4.158,1.863-4.16,4.154l-0.002,16.54
		c-0.004,1.479,0.794,2.86,2.081,3.602c0.625,0.362,1.344,0.556,2.075,0.556c2.292,0,4.155-1.863,4.157-4.154l0.003-16.541
		c0.001-1.109-0.43-2.152-1.213-2.938C111.082,122.733,110.039,122.301,108.929,122.301z M111.276,142.997
		c0,0.272-0.056,0.53-0.142,0.773c-0.016,0.047-0.024,0.097-0.044,0.144c-0.018,0.042-0.045,0.078-0.065,0.12
		c-0.047,0.095-0.093,0.192-0.152,0.28c-0.016,0.023-0.037,0.042-0.054,0.064c-0.072,0.1-0.147,0.197-0.233,0.283
		c-0.02,0.02-0.043,0.033-0.063,0.053c-0.09,0.084-0.183,0.166-0.286,0.235c-0.022,0.015-0.049,0.024-0.071,0.039
		c-0.105,0.065-0.213,0.13-0.328,0.179c-0.029,0.012-0.062,0.017-0.091,0.027c-0.114,0.043-0.229,0.084-0.352,0.109
		c-0.065,0.014-0.135,0.013-0.202,0.02c-0.09,0.011-0.179,0.027-0.271,0.027c-0.001,0-0.001,0-0.002,0
		c-0.429,0-0.83-0.114-1.177-0.315c-0.705-0.406-1.182-1.169-1.18-2.042l0.002-16.539c0-0.163,0.017-0.321,0.049-0.476
		c0.014-0.066,0.04-0.127,0.06-0.191c0.024-0.084,0.044-0.17,0.077-0.25c0.037-0.086,0.087-0.164,0.134-0.244
		c0.029-0.052,0.052-0.107,0.084-0.156c0.05-0.072,0.111-0.137,0.168-0.203c0.041-0.048,0.076-0.101,0.12-0.145
		c0.053-0.053,0.114-0.094,0.171-0.142c0.06-0.05,0.114-0.104,0.179-0.147c0.056-0.037,0.118-0.062,0.178-0.096
		c0.073-0.041,0.145-0.088,0.223-0.121c0.059-0.025,0.123-0.037,0.185-0.057c0.085-0.029,0.169-0.062,0.258-0.08
		c0.064-0.014,0.134-0.013,0.2-0.021c0.091-0.011,0.18-0.027,0.272-0.027c0.002,0,0.003,0,0.004,0s0.002,0,0.004,0
		c0.093,0,0.181,0.017,0.271,0.027c0.066,0.008,0.137,0.007,0.202,0.021c0.097,0.02,0.187,0.055,0.279,0.086
		c0.054,0.019,0.11,0.029,0.162,0.051c0.09,0.039,0.172,0.09,0.256,0.139c0.048,0.027,0.099,0.049,0.145,0.078
		c0.097,0.066,0.183,0.145,0.269,0.223c0.025,0.023,0.055,0.041,0.079,0.065c0.087,0.087,0.162,0.185,0.234,0.284
		c0.017,0.023,0.037,0.041,0.053,0.064c0.059,0.087,0.104,0.182,0.15,0.277c0.021,0.041,0.048,0.08,0.066,0.123
		c0.042,0.1,0.068,0.205,0.097,0.311c0.012,0.045,0.031,0.086,0.04,0.132c0.031,0.153,0.048,0.312,0.048,0.475L111.276,142.997z"/>
	<path fill="#FFFFFF" d="M123.476,140.157c0.345,0.597,0.844,1.096,1.442,1.444c0.608,0.351,1.293,0.533,1.985,0.533
		c0.693,0,1.378-0.184,1.979-0.533c0.911-0.523,1.568-1.375,1.843-2.397c0.274-1.023,0.134-2.089-0.396-3.006l-8.265-14.322
		c-0.706-1.222-2.021-1.981-3.431-1.981c-0.69,0-1.374,0.184-1.974,0.529c-1.891,1.093-2.54,3.519-1.45,5.408L123.476,140.157z
		 M117.459,121.811c0.168-0.097,0.344-0.164,0.522-0.215c0.054-0.016,0.106-0.025,0.161-0.037c0.13-0.027,0.261-0.045,0.393-0.051
		c0.033-0.002,0.065-0.013,0.099-0.013c0.022,0,0.044,0.008,0.066,0.009c0.171,0.005,0.341,0.023,0.505,0.065
		c0.012,0.003,0.024,0.003,0.036,0.006c0.175,0.046,0.342,0.118,0.503,0.204c0.047,0.025,0.089,0.055,0.135,0.083
		c0.115,0.071,0.225,0.155,0.328,0.247c0.041,0.037,0.082,0.072,0.121,0.112c0.131,0.136,0.252,0.284,0.351,0.454L128.944,137
		c0.652,1.127,0.266,2.569-0.864,3.218c-0.188,0.108-0.384,0.188-0.583,0.24c-0.07,0.019-0.143,0.017-0.214,0.028
		c-0.127,0.021-0.253,0.049-0.38,0.049c-0.003,0-0.007-0.002-0.01-0.002c-0.14,0-0.275-0.029-0.412-0.054
		c-0.063-0.012-0.131-0.01-0.193-0.026c-0.197-0.053-0.387-0.131-0.564-0.233c-0.349-0.203-0.648-0.492-0.862-0.862l-8.266-14.324
		C115.944,123.903,116.33,122.463,117.459,121.811z"/>
	<path fill="#FFFFFF" d="M127.628,113.486c-0.572-0.33-1.221-0.504-1.877-0.504c-1.339,0-2.587,0.721-3.256,1.879
		c-0.502,0.865-0.638,1.878-0.379,2.848c0.259,0.971,0.88,1.781,1.75,2.284l14.286,8.254l0.037,0.021
		c0.57,0.329,1.219,0.504,1.876,0.504c1.34,0,2.588-0.72,3.257-1.88c1.035-1.79,0.42-4.093-1.372-5.131L127.628,113.486z
		 M142.109,126.193c-0.098,0.17-0.22,0.318-0.351,0.453c-0.038,0.041-0.079,0.074-0.12,0.111c-0.104,0.094-0.213,0.176-0.33,0.248
		c-0.044,0.028-0.087,0.058-0.133,0.082c-0.161,0.086-0.328,0.158-0.504,0.205c-0.011,0.002-0.022,0.002-0.033,0.006
		c-0.166,0.041-0.336,0.061-0.508,0.064c-0.021,0.002-0.043,0.01-0.065,0.01c-0.033,0-0.065-0.012-0.099-0.014
		c-0.132-0.006-0.263-0.022-0.394-0.051c-0.054-0.012-0.107-0.021-0.161-0.036c-0.178-0.052-0.354-0.118-0.521-0.216
		c0,0,0,0-0.003-0.002l-14.321-8.274c-1.127-0.651-1.513-2.093-0.858-3.22c0.099-0.17,0.22-0.317,0.35-0.453
		c0.039-0.04,0.08-0.075,0.121-0.111c0.103-0.093,0.213-0.176,0.329-0.248c0.044-0.028,0.087-0.058,0.133-0.081
		c0.161-0.086,0.328-0.158,0.504-0.205c0.011-0.003,0.022-0.003,0.032-0.006c0.166-0.041,0.337-0.061,0.508-0.066
		c0.022,0,0.044-0.008,0.066-0.008c0.033,0,0.065,0.012,0.099,0.013c0.132,0.005,0.263,0.022,0.393,0.052
		c0.055,0.012,0.108,0.02,0.162,0.036c0.179,0.052,0.355,0.118,0.523,0.216l14.32,8.273
		C142.374,123.625,142.761,125.067,142.109,126.193z"/>
	<path fill="#FFFFFF" d="M128.344,103.47c-1.959,0.001-3.554,1.597-3.554,3.558c0.003,1.27,0.686,2.449,1.782,3.082
		c0.537,0.31,1.151,0.476,1.775,0.476l16.541,0.004c1.961-0.001,3.556-1.598,3.558-3.558c-0.002-1.963-1.595-3.558-3.552-3.558
		l-16.547-0.004H128.344z M144.895,104.674c0.092,0,0.18,0.018,0.269,0.027c0.067,0.008,0.137,0.007,0.202,0.021
		c0.093,0.019,0.18,0.054,0.268,0.083c0.058,0.02,0.119,0.03,0.175,0.055c0.084,0.035,0.16,0.084,0.238,0.129
		c0.054,0.03,0.11,0.054,0.161,0.088c0.073,0.049,0.136,0.11,0.202,0.167c0.049,0.041,0.102,0.076,0.146,0.121
		c0.059,0.06,0.106,0.128,0.159,0.193c0.043,0.052,0.091,0.1,0.128,0.155c0.055,0.081,0.096,0.17,0.141,0.258
		c0.024,0.049,0.056,0.092,0.077,0.143c0.039,0.094,0.063,0.194,0.091,0.293c0.014,0.051,0.036,0.098,0.047,0.149
		c0.031,0.153,0.048,0.312,0.048,0.475c-0.001,1.303-1.059,2.357-2.357,2.358l-16.541-0.004c-0.428,0-0.83-0.115-1.176-0.315
		c-0.706-0.407-1.18-1.171-1.182-2.042c0-0.162,0.017-0.322,0.048-0.475c0.026-0.129,0.069-0.252,0.115-0.373
		c0.009-0.022,0.013-0.047,0.022-0.07c0.039-0.092,0.092-0.176,0.142-0.261c0.026-0.046,0.046-0.097,0.075-0.14
		c0.05-0.072,0.11-0.136,0.167-0.202c0.041-0.048,0.076-0.103,0.121-0.147c0.052-0.051,0.113-0.093,0.17-0.14
		c0.06-0.05,0.114-0.104,0.179-0.147c0.053-0.035,0.111-0.06,0.166-0.09c0.077-0.045,0.152-0.093,0.234-0.127
		c0.064-0.027,0.134-0.041,0.2-0.062c0.081-0.026,0.158-0.059,0.241-0.075c0.073-0.015,0.15-0.015,0.225-0.022
		c0.083-0.01,0.163-0.025,0.248-0.025c0.002,0,0.003,0,0.004,0l16.541,0.004C144.891,104.674,144.893,104.674,144.895,104.674z"/>
	<path fill="#FFFFFF" d="M122.404,96.419c-0.239,0.892-0.116,1.823,0.347,2.624c0.303,0.524,0.74,0.963,1.267,1.265
		c0.522,0.302,1.121,0.463,1.729,0.463c0.604,0,1.202-0.16,1.727-0.464l14.324-8.266c0.802-0.463,1.374-1.209,1.612-2.103
		c0.238-0.892,0.114-1.823-0.35-2.622c-0.61-1.064-1.759-1.729-2.993-1.729c-0.604,0-1.201,0.16-1.726,0.463l-14.326,8.267
		C123.215,94.781,122.643,95.527,122.404,96.419z M124.565,95.271l14.326-8.268c0.168-0.097,0.345-0.164,0.523-0.216
		c0.053-0.016,0.105-0.024,0.159-0.036c0.131-0.028,0.264-0.046,0.396-0.051c0.032-0.002,0.064-0.013,0.097-0.013
		c0.021,0,0.043,0.008,0.064,0.008c0.174,0.005,0.346,0.024,0.513,0.066c0.01,0.002,0.02,0.002,0.029,0.005
		c0.175,0.046,0.343,0.119,0.504,0.205c0.046,0.024,0.088,0.054,0.133,0.082c0.116,0.072,0.226,0.155,0.329,0.248
		c0.041,0.037,0.082,0.072,0.12,0.112c0.131,0.136,0.252,0.284,0.35,0.454c0.654,1.128,0.266,2.569-0.861,3.22l-14.325,8.267
		c-0.187,0.108-0.383,0.187-0.583,0.239c-0.068,0.018-0.14,0.016-0.209,0.027c-0.128,0.021-0.256,0.049-0.384,0.049
		c-0.004,0-0.007-0.001-0.011-0.001c-0.139-0.001-0.272-0.029-0.408-0.054c-0.065-0.012-0.134-0.01-0.198-0.027
		c-0.197-0.054-0.387-0.131-0.564-0.234c-0.349-0.2-0.648-0.49-0.862-0.861C123.051,97.364,123.438,95.924,124.565,95.271z"/>
</g>
</svg>
