<?xml version="1.0" encoding="utf-8"?>
<!-- Generator: Adobe Illustrator 19.1.0, SVG Export Plug-In . SVG Version: 6.00 Build 0)  -->
<svg version="1.1" xmlns="http://www.w3.org/2000/svg" xmlns:xlink="http://www.w3.org/1999/xlink" x="0px" y="0px"
	 viewBox="0 0 144 144" enable-background="new 0 0 144 144" xml:space="preserve">
<g id="button" display="none">
	<circle display="inline" fill="#DCDCDC" cx="72" cy="72" r="54"/>
</g>
<g id="template" display="none">
	<circle display="inline" fill="none" stroke="#FFFFFF" stroke-width="0.25" stroke-miterlimit="10" cx="72" cy="72" r="36"/>
	<g display="inline">
		
			<circle fill="none" stroke="#FFFFFF" stroke-width="0.25" stroke-linecap="round" stroke-miterlimit="10" stroke-dasharray="1.9875,1.9875" cx="72" cy="72" r="40.5"/>
	</g>
	
		<line display="inline" fill="none" stroke="#FFFFFF" stroke-width="0.25" stroke-miterlimit="10" x1="72" y1="18" x2="72" y2="126"/>
	
		<line display="inline" fill="none" stroke="#FFFFFF" stroke-width="0.25" stroke-miterlimit="10" x1="126" y1="72" x2="18" y2="72"/>
	
		<line display="inline" fill="none" stroke="#FFFFFF" stroke-width="0.25" stroke-miterlimit="10" x1="110.184" y1="33.816" x2="33.816" y2="110.184"/>
	
		<line display="inline" fill="none" stroke="#FFFFFF" stroke-width="0.25" stroke-miterlimit="10" x1="110.184" y1="110.184" x2="33.816" y2="33.816"/>
</g>
<g id="icon">
	<g>
		<g>
			<path fill="#FFFFFF" d="M76.639,62.107H67.47c-1.653,0-2.998-1.345-2.998-2.998V49.94c0-1.653,1.345-2.998,2.998-2.998h9.169
				c1.653,0,2.998,1.345,2.998,2.998v9.169C79.636,60.762,78.292,62.107,76.639,62.107z M67.47,48.193
				c-0.963,0-1.748,0.784-1.748,1.748v9.169c0,0.963,0.784,1.748,1.748,1.748h9.169c0.963,0,1.748-0.784,1.748-1.748V49.94
				c0-0.963-0.784-1.748-1.748-1.748H67.47z"/>
		</g>
	</g>
	<g>
		<g>
			<path fill="#FFFFFF" d="M98.407,78.102c0.084-0.318-0.091-0.659-0.398-0.809l-6.474-3.19c-0.096-0.047-0.222-0.102-0.328-0.102
				H53.769c-0.095,0-0.188,0.05-0.275,0.087l-7.427,3.175c-0.326,0.138-0.562,0.501-0.473,0.833
				c-0.016,0.06-0.119,0.125-0.119,0.189v0.174v11.621c0,0.386,0.478,0.765,0.867,0.765h51.318c0.389,0,0.868-0.378,0.868-0.765
				V78.458v-0.174C98.527,78.22,98.423,78.161,98.407,78.102z M53.911,75.405h37.134l4.323,2.105H48.936L53.911,75.405z
				 M97.123,89.441H46.878V78.914h50.245V89.441z"/>
			<circle fill="#FFFFFF" cx="50.591" cy="84.232" r="0.965"/>
			<circle fill="#FFFFFF" cx="54.016" cy="84.232" r="0.965"/>
			<path fill="#FFFFFF" d="M95.018,86.984c0,0.194-0.158,0.351-0.352,0.351h-2.104c-0.194,0-0.352-0.157-0.352-0.351V81.37
				c0-0.194,0.158-0.351,0.352-0.351h2.104c0.194,0,0.352,0.157,0.352,0.351V86.984z M92.913,86.633h1.404v-4.913h-1.404V86.633z"/>
			<path fill="#FFFFFF" d="M90.807,86.984c0,0.194-0.157,0.351-0.351,0.351h-2.105c-0.194,0-0.351-0.157-0.351-0.351V81.37
				c0-0.194,0.157-0.351,0.351-0.351h2.105c0.194,0,0.351,0.157,0.351,0.351V86.984z M88.702,86.633h1.404v-4.913h-1.404V86.633z"/>
		</g>
	</g>
	<path fill="#FFFFFF" d="M97.209,69.381c-0.056-0.096-0.129-0.184-0.235-0.241l-6.94-3.721c-0.542-0.292-1.451-0.52-2.067-0.52
		H57.299c-0.605,0-1.51,0.2-2.06,0.455l-8.113,3.769c-0.127,0.059-0.216,0.161-0.278,0.276c-0.31,0.286-0.507,0.693-0.507,1.147
		v3.208c0,0.864,0.703,1.567,1.567,1.567h48.264c0.864,0,1.567-0.703,1.567-1.567v-3.208C97.739,70.082,97.532,69.668,97.209,69.381
		z M55.766,66.489c0.389-0.181,1.105-0.339,1.533-0.339h30.668c0.418,0,1.108,0.173,1.477,0.371l4.586,2.458H50.404L55.766,66.489z
		 M96.489,73.754c0,0.172-0.145,0.317-0.317,0.317H47.909c-0.172,0-0.317-0.145-0.317-0.317v-3.208c0-0.172,0.145-0.317,0.317-0.317
		h48.264c0.172,0,0.317,0.145,0.317,0.317V73.754z"/>
	<g>
		<path fill="#FFFFFF" d="M70.936,55.671l-0.642,1.944h-0.825l2.1-6.181h0.963l2.109,6.181h-0.853l-0.661-1.944H70.936z
			 M72.962,55.047l-0.605-1.779c-0.138-0.404-0.229-0.771-0.321-1.128h-0.018c-0.092,0.367-0.193,0.743-0.312,1.119l-0.605,1.788
			H72.962z"/>
	</g>
</g>
</svg>
