<svg data-name="Layer 1" xmlns="http://www.w3.org/2000/svg" viewBox="0 0 108 108"><title>Icon_RH_Software_App-A_RGB_Black</title><path d="M39.09 57.52h8.1a2.56 2.56 0 0 0 2.7-2.4 2 2 0 0 0-.2-1.1l-2-6.1c-.4-1.3-1.2-3.5-1.6-4.8l-1.5-4.6c-.4-1.3-1-1.6-1.5-1.6s-1.1.3-1.5 1.6L40.19 43l-1.6 4.8-2.1 6.2a2.54 2.54 0 0 0 1.4 3.3 1.72 1.72 0 0 0 1.2.2zm-1-3l2.1-6.2 1.6-4.8 1.3-4.2 1.3 4.4c.4 1.3 1.2 3.5 1.6 4.8l2 6.1a1 1 0 0 1-.3 1.2 1.27 1.27 0 0 1-.6.1H39a.82.82 0 0 1-1-.7 1.48 1.48 0 0 1 .1-.7zM33 64.42l-2.8 8.4a13.71 13.71 0 0 0-.8 3.5c0 1.2 1.7 1.6 3.4 1.6h21.4a2.56 2.56 0 0 0 2.7-2.4 2 2 0 0 0-.2-1.1l-3.4-10a4.68 4.68 0 0 0-4.1-3h-12a4.51 4.51 0 0 0-4.2 3zm4.2-1.3h11.9a3 3 0 0 1 2.5 1.8l3.4 10a.87.87 0 0 1-.4 1.2 1.27 1.27 0 0 1-.6.1H32.69a7.77 7.77 0 0 1-1.6-.2 26.81 26.81 0 0 1 .7-2.7l2.8-8.4a2.71 2.71 0 0 1 2.6-1.8zM79.79 24h-47.1a3.35 3.35 0 0 0-3.3 3.4v.8h-1a3.37 3.37 0 0 0-3.4 3.4V79a3.37 3.37 0 0 0 3.4 3.4h47.4a3.37 3.37 0 0 0 3.4-3.4v-1h-1.7v1a1.69 1.69 0 0 1-1.7 1.7h-47.5a1.75 1.75 0 0 1-1.7-1.7V31.62a1.75 1.75 0 0 1 1.7-1.7h1V57c0 .5 0 1.8.9 1.9s1.3-1 1.5-1.5l8.3-24a3 3 0 0 1 2.5-1.8h.8a3 3 0 0 1 2.5 1.8l14.4 41.5a4.82 4.82 0 0 0 4.2 3h15.2a3.37 3.37 0 0 0 3.4-3.4V27.42a3.1 3.1 0 0 0-3.2-3.42zm1.7 50.5a1.75 1.75 0 0 1-1.7 1.7h-15.2a3 3 0 0 1-2.5-1.8l-14.5-41.5a4.53 4.53 0 0 0-4.1-2.9h-.8a4.69 4.69 0 0 0-4.1 2.9l-7.5 21.6V27.42a1.69 1.69 0 0 1 1.7-1.7h47.1a1.75 1.75 0 0 1 1.7 1.7v47.1zm-6-35.2a1.4 1.4 0 1 0 1.4-1.4 1.31 1.31 0 0 0-1.4 1.42zm0-9.5a1.4 1.4 0 1 0 1.4-1.4 1.37 1.37 0 0 0-1.4 1.42zm0 4.7a1.4 1.4 0 1 0 1.4-1.4 1.37 1.37 0 0 0-1.4 1.4z"/></svg>