<svg id="Icon" xmlns="http://www.w3.org/2000/svg" viewBox="0 0 59.61 42.76"><defs><style>.cls-1{fill:#fff;}</style></defs><title>Icon_RH_Software_ApplicationServer_RGB_White</title><path class="cls-1" d="M37.38 1.31h1.75a.655.655 0 1 0 0-1.31h-1.75a.655.655 0 1 0 0 1.31zm13.1 0h1.75a.655.655 0 1 0 0-1.31h-1.75a.655.655 0 1 0 0 1.31zm-21.84 0h1.75a.655.655 0 1 0 0-1.31h-1.74a.655.655 0 1 0 0 1.31zm5 13.64a.655.655 0 1 0 0 1.31h1.75a.655.655 0 1 0 0-1.31zm24.42-2.25a.65.65 0 0 0 .4.83.64.64 0 0 0 .21 0 .65.65 0 0 0 .62-.44 4.63 4.63 0 0 0 .26-1.53v-.41a.655.655 0 0 0-1.31 0v.41a3.36 3.36 0 0 1-.18 1.13zm-29-3.78h1.27l.39 1.09h.5l-1.23-3.59h-.56l-1.22 3.59h.48zm.45-1.4c.07-.22.13-.44.18-.65.05.21.11.42.19.66l.35 1h-1.07zm-4.2-1.93v5.32a1.74 1.74 0 0 0 1.74 1.74h5.33a1.74 1.74 0 0 0 1.74-1.74V5.58a1.74 1.74 0 0 0-1.74-1.74h-5.33a1.74 1.74 0 0 0-1.74 1.74zm.73 0a1 1 0 0 1 1-1h5.33a1 1 0 0 1 1 1v5.32a1 1 0 0 1-1 1h-5.32a1 1 0 0 1-1-1zm32.2-1.07a.64.64 0 0 0 .68.62.65.65 0 0 0 .62-.68 4.59 4.59 0 0 0-.52-1.95.655.655 0 1 0-1.16.61 3.3 3.3 0 0 1 .38 1.39zM33.01 1.31h1.75a.655.655 0 1 0 0-1.31h-1.75a.655.655 0 1 0 0 1.31zm8.74 0h1.75a.655.655 0 1 0 0-1.31h-1.75a.655.655 0 1 0 0 1.31zm9.36 13.64a.655.655 0 1 0 0 1.31h1.72a.655.655 0 1 0 0-1.31zm-5-13.64h1.72a.65.65 0 0 0 0-1.3h-1.75a.655.655 0 1 0 0 1.31zM38 14.95a.655.655 0 1 0 0 1.31h1.75a.655.655 0 0 0 0-1.31zm-8.74 0a.655.655 0 1 0 0 1.31h1.75a.655.655 0 1 0 0-1.31zm17.47 0a.655.655 0 1 0 0 1.31h1.75a.655.655 0 1 0 0-1.31zm-7.08-4a1.74 1.74 0 0 0 1.74 1.74h5.33a1.74 1.74 0 0 0 1.74-1.74V5.58a1.74 1.74 0 0 0-1.74-1.74h-5.33a1.74 1.74 0 0 0-1.74 1.74zm.73-5.33a1 1 0 0 1 1-1h5.33a1 1 0 0 1 1 1v5.29a1 1 0 0 1-1 1h-5.33a1 1 0 0 1-1-1zm2 9.37a.655.655 0 0 0 0 1.31h1.75a.655.655 0 0 0 0-1.31zm14.36-.56a3.32 3.32 0 0 1-1.35.52.652.652 0 0 0 .1 1.3h.1a4.62 4.62 0 0 0 1.88-.72.653.653 0 0 0-.72-1.09zM54.89 1.31a3.31 3.31 0 0 1 1.42.31.65.65 0 0 0 .55-1.18 4.62 4.62 0 0 0-2-.44.64.64 0 0 0-.63.65.67.67 0 0 0 .66.66zm-11.47 7.6h1.27l.38 1.13h.5l-1.23-3.59h-.51l-1.27 3.56h.48zm.45-1.4c.07-.22.13-.44.18-.65.05.21.11.42.19.66l.35 1h-1.08zM.65 9.95a.65.65 0 0 0 .65-.65V7.55a.655.655 0 0 0-1.31 0V9.3a.65.65 0 0 0 .66.65zm.12-4.22a.65.65 0 0 0 .65-.65v-.41a3.36 3.36 0 0 1 .18-1.1.65.65 0 0 0-.4-.83.64.64 0 0 0-.21 0 .65.65 0 0 0-.62.44 4.63 4.63 0 0 0-.26 1.53v.41a.65.65 0 0 0 .66.61zm0 5.4a.65.65 0 0 0-.62.68 4.6 4.6 0 0 0 .52 1.95.658.658 0 1 0 1.16-.62 3.31 3.31 0 0 1-.38-1.4.64.64 0 0 0-.71-.62zm50.56 26.88h3a.5.5 0 0 0 .5-.5v-8a.5.5 0 0 0-.5-.5h-3a.5.5 0 0 0-.5.5v8a.5.5 0 0 0 .5.5zm.5-8h2v7h-2zM2.93 1.87a3.32 3.32 0 0 1 1.35-.52.652.652 0 0 0-.1-1.3h-.1A4.62 4.62 0 0 0 2.2.77a.653.653 0 0 0 .72 1.09zm.42 12.77a.65.65 0 0 0-.52 1.18 4.62 4.62 0 0 0 2 .44.64.64 0 0 0 .63-.65.67.67 0 0 0-.67-.65 3.31 3.31 0 0 1-1.43-.33zm55.68 8.92l-9.2-4.55a1 1 0 0 0-.44-.1H11.65a1 1 0 0 0-.39.08L.68 23.49a1 1 0 0 0-.56 1.18 1 1 0 0 0-.05.26v16.81a1 1 0 0 0 1 1H58.6a1 1 0 0 0 1-1V25.01a1 1 0 0 0-.05-.26 1 1 0 0 0-.52-1.2zm-47.2-2.61h37.32l6.16 3H4.76zm45.74 19.82H2.06V26.21h55.53zm1.36-34.46a.65.65 0 0 0-.65.65v1.75a.655.655 0 1 0 1.31 0v-1.7a.65.65 0 0 0-.64-.7zm-47 28.5a1.38 1.38 0 1 0-1.37-1.37A1.38 1.38 0 0 0 12 34.81zm-4.88 0a1.38 1.38 0 1 0-1.37-1.37 1.37 1.37 0 0 0 1.44 1.37zm38.28 3.2h3a.5.5 0 0 0 .5-.5v-8a.5.5 0 0 0-.5-.5h-3a.5.5 0 0 0-.5.5v8a.5.5 0 0 0 .5.5zm.5-8h2v7h-2zM24.9 14.95a.655.655 0 1 0 0 1.31h1.75a.655.655 0 0 0 0-1.31zm-10.19-6h1.27l.39 1.06h.46L15.6 6.42h-.56l-1.21 3.59h.48zm.45-1.4c.07-.22.13-.44.18-.65.05.21.11.42.19.66l.35 1h-1.05zm-4.2-1.93v5.29a1.74 1.74 0 0 0 1.74 1.74h5.33a1.74 1.74 0 0 0 1.74-1.74V5.58a1.74 1.74 0 0 0-1.74-1.74H12.7a1.74 1.74 0 0 0-1.74 1.74zm8.08 0v5.29a1 1 0 0 1-1 1H12.7a1 1 0 0 1-1-1V5.58a1 1 0 0 1 1-1h5.33a1 1 0 0 1 1.01 1zm.87-4.27h1.75a.655.655 0 1 0 0-1.31h-1.75a.655.655 0 0 0 0 1.31zM6.83 1.31h1.75a.655.655 0 1 0 0-1.31H6.83a.655.655 0 1 0 0 1.31zm13.7 13.64a.655.655 0 1 0 0 1.31h1.75a.655.655 0 1 0 0-1.31zm3.75-13.64h1.75a.655.655 0 1 0 0-1.31h-1.75a.655.655 0 1 0 0 1.31zm-13.1 0h1.75a.655.655 0 0 0 0-1.31h-1.75a.655.655 0 0 0 0 1.31zM7.43 14.95a.655.655 0 1 0 0 1.31h1.75a.655.655 0 0 0 0-1.31zm4.37 0a.655.655 0 0 0 0 1.31h1.75a.655.655 0 1 0 0-1.31zm3.74-13.64h1.75a.655.655 0 0 0 0-1.31h-1.75a.655.655 0 1 0 0 1.31zm.62 13.64a.655.655 0 1 0 0 1.31h1.75a.655.655 0 1 0 0-1.31z"/></svg>