<svg id="Layer_1" data-name="Layer 1" xmlns="http://www.w3.org/2000/svg" viewBox="0 0 108 108"><defs><style>.cls-1{fill:#fff;}</style></defs><title>Icon_RH_Software_App-Bweb_RGB_White</title><path class="cls-1" d="M88.11 30.16c-3.4-5.5-14.6-2-21.2.6a3 3 0 0 0-1.5-.5h-32.8a2.26 2.26 0 0 0-2.3 2.3v22.9c-.5.5-11.3 11-11.3 18.8a5.74 5.74 0 0 0 4.5 6 15.83 15.83 0 0 0 3.8.5c3.2 0 7.7-.8 14-3.4a2.39 2.39 0 0 0 1.4.5h32.8a2.26 2.26 0 0 0 2.3-2.3v-22.9a19.37 19.37 0 0 1 1.6-1.6c.5-.6 13-13.8 8.7-20.9zm-56.7 26.6v-24.2a1.22 1.22 0 0 1 1.2-1.2h32.8a1.22 1.22 0 0 1 1.2 1.2v2.8h-28.9a2.26 2.26 0 0 0-2.3 2.3v28.9h-2.8a1.22 1.22 0 0 1-1.2-1.2zM24 78.66a4.2 4.2 0 0 1-3.3-4.3c0-5.7 6.8-13.4 9.5-16.3v7.4a2.26 2.26 0 0 0 2.3 2.3h2.8v2.8a2.26 2.26 0 0 0 2.3 2.3h2.6v3c-8.59 3.6-13.49 3.6-16.2 2.8zm16.3-36v29h-2.6a1.28 1.28 0 0 1-1.2-1.1v-32.9a1.22 1.22 0 0 1 1.2-1.2h32.8a1.22 1.22 0 0 1 1.2 1.2v2.6h-29a2.43 2.43 0 0 0-2.4 2.4zm36.3 32.8a1.28 1.28 0 0 1-1.1 1.2H42.91c1.2-.5 2.4-1.1 3.7-1.7a119.63 119.63 0 0 0 15.8-9.4l.2.6h2l-.6-1.8a106.27 106.27 0 0 0 12.6-10.5zm0-24a108.52 108.52 0 0 1-13.2 11.2l-3.4-9.4h-2L53.41 66h2l1-3h5l.3.8a112.34 112.34 0 0 1-16 9.5 33.61 33.61 0 0 1-4.4 2V42.66a1.22 1.22 0 0 1 1.2-1.2h32.9a1.22 1.22 0 0 1 1.2 1.2zm-15.7 9.9H57l1-2.9a6.89 6.89 0 0 0 .3-.8l.3-.9.2-.8c.1-.2.1-.4.2-.5a1.69 1.69 0 0 0 .2.5l.2.8.3.8a2.35 2.35 0 0 1 .2.8zm17.2-11.5l-.3.3v-7.6a2.26 2.26 0 0 0-2.3-2.3h-2.7v-2.6a2.26 2.26 0 0 0-2.3-2.3h-2.8v-3.1c4.3-1.7 16.1-5.8 18.9-1.2 3.11 5-5.09 15.2-8.49 18.8zm-3.2-5.8a.9.9 0 1 0-.9.9.9.9 0 0 0 .91-.9zm0 3.1a.9.9 0 1 0-.9.9.9.9 0 0 0 .91-.9zm0 3a.9.9 0 1 0-.9.9c.51.1.91-.4.91-.9z"/></svg>