<svg id="Layer_1" data-name="Layer 1" xmlns="http://www.w3.org/2000/svg" viewBox="0 0 57.49 70.32"><defs><style>.cls-1{fill:#fff;}</style></defs><title>Icon_RH_Software_Host-Physical-Expanded_RGB_White</title><path class="cls-1" d="M44.5 1.07h1.43a.54.54 0 1 0 0-1.08H44.5a.54.54 0 1 0 0 1.08zm-13.74 66.3h1.8a.3.3 0 0 0 .3-.3v-4.8a.3.3 0 0 0-.3-.3h-1.8a.3.3 0 0 0-.3.3v4.8a.3.3 0 0 0 .3.3zm.3-4.8h1.18v4.2h-1.2zM26 35.85h1.43a.54.54 0 0 0 0-1.08H26a.54.54 0 0 0 0 1.08zm-17.52-.94a.3.3 0 1 0-.6 0v.6a.3.3 0 0 0 .6 0zm21.1-.13a.54.54 0 0 0 0 1.08h1.43a.54.54 0 0 0 0-1.08zm10.76 0a.54.54 0 0 0 0 1.08h1.43a.54.54 0 0 0 0-1.08zm-3.59 0a.54.54 0 1 0 0 1.08h1.43a.54.54 0 0 0 0-1.08zm11.33-33.7h1.43a.54.54 0 1 0 0-1.08h-1.42a.54.54 0 1 0 0 1.08zm-14.91 33.7a.54.54 0 0 0 0 1.08h1.43a.54.54 0 0 0 0-1.08zm-26 30.77a.83.83 0 1 0-.83-.83.83.83 0 0 0 .82.83zm2.71-46.42h.6a.3.3 0 0 0 0-.6h-.6a.3.3 0 0 0 0 .6zm1.81 0h.55a.3.3 0 0 0 0-.6h-.6a.3.3 0 0 0 0 .6zm15.47 48.24h1.8a.3.3 0 0 0 .3-.3v-4.8a.3.3 0 0 0-.3-.3h-1.8a.3.3 0 0 0-.3.3v4.8a.3.3 0 0 0 .3.3zm.3-4.8h1.2v4.2h-1.2zm-14-43.45h.6a.3.3 0 0 0 0-.6h-.6a.3.3 0 0 0 0 .6zm-5.43 3.54a.3.3 0 0 0 .5.33.35.35 0 0 1 .27-.16.3.3 0 0 0 .28-.32.3.3 0 0 0-.32-.28 1 1 0 0 0-.73.43zm35.89 12.12a.54.54 0 0 0 0 1.08h1.43a.54.54 0 0 0 0-1.08zm7.75-33.7h1.43a.54.54 0 1 0 0-1.08h-1.43a.54.54 0 1 0 0 1.08zM4.24 65.55a.83.83 0 1 0-.83-.83.82.82 0 0 0 .83.83zm51-64.48a1.13 1.13 0 0 1 .86.39.54.54 0 0 0 .81-.7A2.21 2.21 0 0 0 55.24 0a.53.53 0 0 0-.53.54.55.55 0 0 0 .53.53zm-9.43 16.52v-.52h-1v.52zm0 5.67h-1v.52h1zm.51.52h-2.08v3.88h2.06zm-1 2.73a.39.39 0 1 1 .39-.39.39.39 0 0 1-.42.38zm-.51-3.76h1v-.52h-1zM26.57 1.07H28a.54.54 0 1 0 0-1.08h-1.43a.54.54 0 1 0 0 1.08zm18.21 18.59h1v-.52h-1zM30.16 1.07h1.43a.54.54 0 1 0 0-1.08h-1.43a.54.54 0 1 0 0 1.08zm14.62 20.64h1v-.52h-1zm0-1h1v-.52h-1zm0-2.06h1v-.52h-1zm2.73 16.16a.54.54 0 1 0 0 1.08h1.43a.54.54 0 0 0 0-1.08zM33.74 1.07h1.43a.54.54 0 1 0 0-1.08h-1.43a.54.54 0 1 0 0 1.08zm7.5 5.47a.49.49 0 1 0 .49-.49.49.49 0 0 0-.49.49zm1.62 0a.49.49 0 1 0 .49-.49.49.49 0 0 0-.5.49zm9.67 28.24h-1.44a.54.54 0 0 0 0 1.08h1.43a.54.54 0 0 0 0-1.08zM44.47 6.54a.49.49 0 1 0 .49-.49.49.49 0 0 0-.49.49zm-7.14-5.46h1.43a.54.54 0 1 0 0-1.08h-1.43a.54.54 0 1 0 0 1.08zM27 25.91h10.24v4.75a1.1 1.1 0 0 0 1.1 1.1h13.85a1.1 1.1 0 0 0 1.1-1.1V17.1a1.1 1.1 0 0 0-1.1-1.1H38.34a1.1 1.1 0 0 0-1.1 1.1l-3.21-9.25a1.69 1.69 0 0 0-1.51-1.07h-.28a1.69 1.69 0 0 0-1.51 1.07l-2.74 7.9V5.84a.61.61 0 0 1 .61-.61h17.2a.61.61 0 0 1 .61.61V16h.61V5.84a1.23 1.23 0 0 0-1.23-1.23H28.6a1.23 1.23 0 0 0-1.23 1.23v.31H27a1.23 1.23 0 0 0-1.23 1.23v17.28A1.23 1.23 0 0 0 27 25.91zm10.79-8.81a.55.55 0 0 1 .55-.55h13.85a.55.55 0 0 1 .55.55v13.56a.55.55 0 0 1-.55.55H38.34a.55.55 0 0 1-.55-.55zm-11.4-9.73a.61.61 0 0 1 .61-.61h.37v9.9c0 .19 0 .64.34.7s.49-.36.55-.54l3-8.75a1.09 1.09 0 0 1 .93-.66h.28a1.09 1.09 0 0 1 .93.66l3.84 10.9v3.79l-1.17-3.42a1.68 1.68 0 0 0-1.51-1.08h-4.32a1.67 1.67 0 0 0-1.5 1.08l-1 3.06a6 6 0 0 0-.37 1.26c0 .44.63.6 1.23.6h7.81a1 1 0 0 0 .81-.38v1.45H27a.61.61 0 0 1-.61-.61zm10.33 16.16a.37.37 0 0 1-.31.13H28.6a1.8 1.8 0 0 1-.6-.09 7.8 7.8 0 0 1 .27-1l1-3.06a1.07 1.07 0 0 1 .92-.66h4.35a1.08 1.08 0 0 1 .93.66l1.25 3.65a.37.37 0 0 1 0 .37zm-5.83-6.68h3a.92.92 0 0 0 .92-1.28l-.75-2.22-.59-1.69-.53-1.7c-.14-.48-.38-.58-.55-.58-.17 0-.41.1-.55.58l-.51 1.65-.58 1.74-.76 2.27a.93.93 0 0 0 .92 1.28zm-.34-1.08l.76-2.27.58-1.75.48-1.55.5 1.6.58 1.75.79 2.22a.32.32 0 0 1-.33.47h-3a.32.32 0 0 1-.34-.47zm10.36-14.7h1.43a.54.54 0 1 0 0-1.08h-1.42a.54.54 0 1 0 0 1.08zM4.54 19.42a.3.3 0 0 0 .25-.14.35.35 0 0 1 .27-.16.3.3 0 0 0 .28-.32.3.3 0 0 0-.32-.28 1 1 0 0 0-.73.43.3.3 0 0 0 .25.46zm17.09-8.24a.54.54 0 1 0 1.08 0V9.75a.54.54 0 1 0-1.08 0zm0 17.93a.54.54 0 0 0 1.08 0v-1.45a.54.54 0 1 0-1.08 0zm.54-21a.54.54 0 0 0 .54-.54v-1.4a.54.54 0 1 0-1.08 0V7.6a.54.54 0 0 0 .54.54zm-.54 10.22a.54.54 0 0 0 1.08 0v-1.41a.54.54 0 1 0-1.08 0zm0 7.17a.54.54 0 1 0 1.08 0v-1.41a.54.54 0 1 0-1.08 0zm0-3.59a.54.54 0 1 0 1.08 0v-1.4a.54.54 0 1 0-1.08 0zm0-7.17a.54.54 0 1 0 1.08 0v-1.4a.54.54 0 1 0-1.08 0zm-10.73 7.8a.3.3 0 0 0-.3-.3H10a.3.3 0 0 0 0 .6h.6a.3.3 0 0 0 .3-.27zm.22 15.76a.3.3 0 1 0 0-.6h-.6a.3.3 0 1 0 0 .6zm.12 3.18h-.6a.3.3 0 1 0 0 .6h.6a.3.3 0 1 0 0-.6zm44.58-6.82a1.13 1.13 0 0 1-.54.14h-.6a.54.54 0 0 0-.54.54l-22.73 9a6.61 6.61 0 0 1-2.44.46H13.84a1.13 1.13 0 0 1-1.13-1.14v-15a6.6 6.6 0 0 1 .53-2.5l8.78-21.64a.53.53 0 0 0 .19 0 .54.54 0 0 0 .54-.54v-1.3l.61-1.52a1.13 1.13 0 0 1 .52-.13h.59a.54.54 0 1 0 0-1.08h-.63a2.21 2.21 0 0 0-1.07.28 4.43 4.43 0 0 0-.4.43l-.66 1.62a.52.52 0 0 0 0 .12l-3.62 8.93h-11l-6 2.37A1.71 1.71 0 0 0 0 15.3v54.42a.6.6 0 0 0 .6.6h34.51a.6.6 0 0 0 .6-.6v-26l20.39-8.06a.52.52 0 0 0 .14 0h.12a.54.54 0 0 0-.52-.94zM7.24 12.57h10.31l-.88 2.17H1.81zm27.27 56.55H1.24v-8.73h33.27zm0-9.95H1.24V49.4h33.27zm0-11H1.24V15.94h15l-1.08 2.67a.3.3 0 0 0-.1.22l-1.39 3.43a.3.3 0 0 0-.21.51l-1.2 3a7.67 7.67 0 0 0-.57 2.9v14.99a2.21 2.21 0 0 0 2.21 2.21h15.07a7.67 7.67 0 0 0 2.83-.54l2.71-1.07zm-22.1-25.3a.3.3 0 0 0 0-.6h-.6a.3.3 0 0 0 0 .6zm11.43 13a.53.53 0 0 0 .53-.54.54.54 0 0 0-.54-.54 1.13 1.13 0 0 1-.85-.39.54.54 0 0 0-.81.71 2.21 2.21 0 0 0 1.67.74zM56.95 9.8a.54.54 0 0 0-.54.54v1.43a.54.54 0 0 0 1.08 0v-1.43a.54.54 0 0 0-.54-.54zm0 3.59a.54.54 0 0 0-.54.54v1.43a.54.54 0 0 0 1.08 0v-1.44a.54.54 0 0 0-.54-.53zm0-7.17a.54.54 0 0 0-.54.54v1.43a.54.54 0 1 0 1.08 0V6.75a.54.54 0 0 0-.54-.53zm0 10.75a.54.54 0 0 0-.54.54v1.43a.54.54 0 1 0 1.08 0v-1.43a.54.54 0 0 0-.54-.54zm0-14.34a.54.54 0 0 0-.54.54V4.6a.54.54 0 1 0 1.08 0V3.17a.54.54 0 0 0-.54-.51zm0 21.51a.54.54 0 0 0-.54.54v1.43a.54.54 0 1 0 1.08 0v-1.45a.54.54 0 0 0-.54-.52zM9.43 41.48h-.6a.3.3 0 1 0 0 .6h.6a.3.3 0 1 0 0-.6zm47.52-10.17a.54.54 0 0 0-.54.54v1.43a.54.54 0 1 0 1.08 0v-1.43a.54.54 0 0 0-.54-.54zm-35.32 1.35a.54.54 0 0 0 1.08 0v-1.4a.54.54 0 1 0-1.08 0zm35.32-5a.54.54 0 0 0-.54.54v1.46a.54.54 0 1 0 1.08 0v-1.4a.54.54 0 0 0-.54-.53zm0-7.17a.54.54 0 0 0-.54.54v1.43a.54.54 0 1 0 1.08 0v-1.37a.54.54 0 0 0-.54-.53zM8.66 19.13a.3.3 0 1 0 0-.6h-.6a.3.3 0 0 0 0 .6zM4.43 34.49a.3.3 0 0 0-.3.3v.6a.3.3 0 0 0 .6 0v-.6a.3.3 0 0 0-.3-.3zm4-10.43a.3.3 0 1 0-.6 0v.6a.3.3 0 0 0 .6 0zm-4 5a.3.3 0 0 0-.3.3v.6a.3.3 0 0 0 .6 0v-.6a.3.3 0 0 0-.3-.3zm0 3.62a.3.3 0 0 0-.3.3v.6a.3.3 0 1 0 .6 0v-.6a.3.3 0 0 0-.3-.32zm0-1.81a.3.3 0 0 0-.3.3v.6a.3.3 0 1 0 .6 0v-.6a.3.3 0 0 0-.3-.3zm0 5.43a.3.3 0 0 0-.3.3v.6a.3.3 0 1 0 .6 0v-.6a.3.3 0 0 0-.3-.3zm4-5a.3.3 0 0 0-.6 0v.6a.3.3 0 1 0 .6 0zm0-5.43a.3.3 0 1 0-.6 0v.6a.3.3 0 1 0 .6 0zm0 7.24a.3.3 0 0 0-.6 0v.55a.3.3 0 1 0 .6 0zm0-3.62a.3.3 0 1 0-.6 0v.6a.3.3 0 0 0 .6 0zm0-1.81a.3.3 0 0 0-.6 0v.6a.3.3 0 1 0 .6 0zm-4-4a.3.3 0 0 0-.3.3v.6a.3.3 0 0 0 .6 0v-.6a.3.3 0 0 0-.3-.32zm3.06 14.11h-.6a.3.3 0 1 0 0 .6h.6a.3.3 0 1 0 0-.6zm-.34-18.91a.3.3 0 0 0-.3-.3h-.61a.3.3 0 0 0 0 .6h.6a.3.3 0 0 0 .31-.35zm1 17.59a.3.3 0 0 0-.3.3v.6a.3.3 0 1 0 .6 0v-.6a.3.3 0 0 0-.27-.35zm0 3.62a.3.3 0 0 0-.3.3v.6a.3.3 0 1 0 .6 0v-.6a.3.3 0 0 0-.27-.35zm0-1.81a.3.3 0 0 0-.3.3v.6a.3.3 0 0 0 .6 0v-.6a.3.3 0 0 0-.27-.35zM4.43 25.44a.3.3 0 0 0-.3.3v.6a.3.3 0 1 0 .6 0v-.6a.3.3 0 0 0-.3-.3zm1.25 12.3h-.6a.3.3 0 1 0 0 .6h.6a.3.3 0 1 0 0-.6zm3.62.6a.3.3 0 1 0 0-.6h-.6a.3.3 0 1 0 0 .6zM4.43 27.25a.3.3 0 0 0-.3.3v.6a.3.3 0 1 0 .6 0v-.6a.3.3 0 0 0-.3-.3zm0-7.24a.3.3 0 0 0-.3.3v.6a.3.3 0 0 0 .6 0v-.6a.3.3 0 0 0-.3-.3zm0 1.81a.3.3 0 0 0-.3.3v.6a.3.3 0 1 0 .6 0v-.6a.3.3 0 0 0-.3-.3z"/></svg>