<?xml version="1.0" encoding="utf-8"?>
<!-- Generator: Adobe Illustrator 19.0.0, SVG Export Plug-In . SVG Version: 6.00 Build 0)  -->
<!DOCTYPE svg PUBLIC "-//W3C//DTD SVG 1.0//EN" "http://www.w3.org/TR/2001/REC-SVG-20010904/DTD/svg10.dtd">
<svg version="1.0" xmlns="http://www.w3.org/2000/svg" xmlns:xlink="http://www.w3.org/1999/xlink" x="0px" y="0px"
	 viewBox="0 0 144 144" enable-background="new 0 0 144 144" xml:space="preserve">
<g id="template" display="none">
	<circle display="inline" fill="none" stroke="#FFFFFF" stroke-width="0.25" stroke-miterlimit="10" cx="72" cy="72" r="36"/>
	<g display="inline">
		
			<circle fill="none" stroke="#FFFFFF" stroke-width="0.25" stroke-linecap="round" stroke-miterlimit="10" stroke-dasharray="1.9875,1.9875" cx="72" cy="72" r="40.5"/>
	</g>
	
		<line display="inline" fill="none" stroke="#FFFFFF" stroke-width="0.25" stroke-miterlimit="10" x1="72" y1="18" x2="72" y2="126"/>
	
		<line display="inline" fill="none" stroke="#FFFFFF" stroke-width="0.25" stroke-miterlimit="10" x1="126" y1="72" x2="18" y2="72"/>
	
		<line display="inline" fill="none" stroke="#FFFFFF" stroke-width="0.25" stroke-miterlimit="10" x1="110.2" y1="33.8" x2="33.8" y2="110.2"/>
	
		<line display="inline" fill="none" stroke="#FFFFFF" stroke-width="0.25" stroke-miterlimit="10" x1="110.2" y1="110.2" x2="33.8" y2="33.8"/>
</g>
<g id="icon">
	<g>
		<g>
			<circle cx="53.4" cy="104.6" r="1.1"/>
			<circle cx="57.4" cy="104.6" r="1.1"/>
			<path d="M89.6,108.2h2.5c0.2,0,0.4-0.2,0.4-0.4v-6.6c0-0.2-0.2-0.4-0.4-0.4h-2.5c-0.2,0-0.4,0.2-0.4,0.4v6.6
				C89.2,108,89.4,108.2,89.6,108.2z M90.1,101.7h1.6v5.7h-1.6V101.7z"/>
			<path d="M84.7,108.2h2.5c0.2,0,0.4-0.2,0.4-0.4v-6.6c0-0.2-0.2-0.4-0.4-0.4h-2.5c-0.2,0-0.4,0.2-0.4,0.4v6.6
				C84.3,108,84.5,108.2,84.7,108.2z M85.1,101.7h1.6v5.7h-1.6V101.7z"/>
			<path d="M71.5,68c0,0.2,0.2,0.4,0.4,0.4h0.8c0.2,0,0.4-0.2,0.4-0.4s-0.2-0.4-0.4-0.4h-0.8C71.7,67.6,71.5,67.8,71.5,68z"/>
			<path d="M80.2,49.1c0.2,0,0.4-0.2,0.4-0.4v-0.8c0-0.2-0.2-0.4-0.4-0.4c-0.2,0-0.4,0.2-0.4,0.4v0.8C79.8,48.9,79.9,49.1,80.2,49.1
				z"/>
			<path d="M73.5,42.2h0.8c0.2,0,0.4-0.2,0.4-0.4c0-0.2-0.2-0.4-0.4-0.4h-0.8c-0.2,0-0.4,0.2-0.4,0.4C73.1,42,73.3,42.2,73.5,42.2z"
				/>
			<path d="M66.5,68c0,0.2,0.2,0.4,0.4,0.4h0.8c0.2,0,0.4-0.2,0.4-0.4s-0.2-0.4-0.4-0.4H67C66.7,67.6,66.5,67.8,66.5,68z"/>
			<path d="M68.6,42.2h0.8c0.2,0,0.4-0.2,0.4-0.4c0-0.2-0.2-0.4-0.4-0.4h-0.8c-0.2,0-0.4,0.2-0.4,0.4C68.1,42,68.3,42.2,68.6,42.2z"
				/>
			<path d="M69,68c0,0.2,0.2,0.4,0.4,0.4h0.8c0.2,0,0.4-0.2,0.4-0.4s-0.2-0.4-0.4-0.4h-0.8C69.2,67.6,69,67.8,69,68z"/>
			<path d="M71,42.2h0.8c0.2,0,0.4-0.2,0.4-0.4c0-0.2-0.2-0.4-0.4-0.4H71c-0.2,0-0.4,0.2-0.4,0.4C70.6,42,70.8,42.2,71,42.2z"/>
			<path d="M79.8,51.1c0,0.2,0.2,0.4,0.4,0.4c0.2,0,0.4-0.2,0.4-0.4v-0.8c0-0.2-0.2-0.4-0.4-0.4c-0.2,0-0.4,0.2-0.4,0.4V51.1z"/>
			<path d="M80.2,46.6c0.2,0,0.4-0.2,0.4-0.4v-0.8c0-0.2-0.2-0.4-0.4-0.4c-0.2,0-0.4,0.2-0.4,0.4v0.8C79.8,46.4,79.9,46.6,80.2,46.6
				z"/>
			<path d="M80.2,44.1c0.2,0,0.4-0.2,0.4-0.4v-0.8c0-0.2-0.2-0.4-0.4-0.4c-0.2,0-0.4,0.2-0.4,0.4v0.8C79.8,43.9,79.9,44.1,80.2,44.1
				z"/>
			<path d="M80.2,52.4c-0.2,0-0.4,0.2-0.4,0.4v0.8c0,0.2,0.2,0.4,0.4,0.4c0.2,0,0.4-0.2,0.4-0.4v-0.8C80.6,52.6,80.4,52.4,80.2,52.4
				z"/>
			<path d="M76,42.2h0.8c0.2,0,0.4-0.2,0.4-0.4c0-0.2-0.2-0.4-0.4-0.4H76c-0.2,0-0.4,0.2-0.4,0.4C75.6,42,75.8,42.2,76,42.2z"/>
			<path d="M74,68c0,0.2,0.2,0.4,0.4,0.4h0.8c0.2,0,0.4-0.2,0.4-0.4s-0.2-0.4-0.4-0.4h-0.8C74.2,67.6,74,67.8,74,68z"/>
			<path d="M78.5,42.2h0.8c0.2,0,0.4-0.2,0.4-0.4c0-0.2-0.2-0.4-0.4-0.4h-0.8c-0.2,0-0.4,0.2-0.4,0.4C78,42,78.2,42.2,78.5,42.2z"/>
			<path d="M53.7,52.4c0.2,0,0.4-0.2,0.4-0.4v-0.8c0-0.2-0.2-0.4-0.4-0.4c-0.2,0-0.4,0.2-0.4,0.4V52C53.3,52.2,53.5,52.4,53.7,52.4z
				"/>
			<path d="M56.2,42.2H57c0.2,0,0.4-0.2,0.4-0.4c0-0.2-0.2-0.4-0.4-0.4h-0.8c-0.2,0-0.4,0.2-0.4,0.4C55.8,42,55.9,42.2,56.2,42.2z"
				/>
			<path d="M53.7,64.8c0.2,0,0.4-0.2,0.4-0.4v-0.8c0-0.2-0.2-0.4-0.4-0.4c-0.2,0-0.4,0.2-0.4,0.4v0.8C53.3,64.6,53.5,64.8,53.7,64.8
				z"/>
			<path d="M54.2,68c0,0.2,0.2,0.4,0.4,0.4h0.8c0.2,0,0.4-0.2,0.4-0.4s-0.2-0.4-0.4-0.4h-0.8C54.4,67.6,54.2,67.8,54.2,68z"/>
			<path d="M58.7,42.2h0.8c0.2,0,0.4-0.2,0.4-0.4c0-0.2-0.2-0.4-0.4-0.4h-0.8c-0.2,0-0.4,0.2-0.4,0.4C58.2,42,58.4,42.2,58.7,42.2z"
				/>
			<path d="M53.6,42.5c0.1,0,0.1,0.1,0.2,0.1c0.1,0,0.3-0.1,0.3-0.2c0.1-0.1,0.2-0.2,0.4-0.2c0.2,0,0.4-0.2,0.4-0.4
				c0-0.2-0.2-0.4-0.4-0.4c-0.4,0-0.8,0.2-1,0.6C53.4,42.1,53.4,42.4,53.6,42.5z"/>
			<path d="M56.6,68c0,0.2,0.2,0.4,0.4,0.4h0.8c0.2,0,0.4-0.2,0.4-0.4s-0.2-0.4-0.4-0.4h-0.8C56.8,67.6,56.6,67.8,56.6,68z"/>
			<path d="M53.7,67.3c0.2,0,0.4-0.2,0.4-0.4v-0.8c0-0.2-0.2-0.4-0.4-0.4c-0.2,0-0.4,0.2-0.4,0.4v0.8C53.3,67.1,53.5,67.3,53.7,67.3
				z"/>
			<path d="M53.7,47.5c0.2,0,0.4-0.2,0.4-0.4v-0.8c0-0.2-0.2-0.4-0.4-0.4c-0.2,0-0.4,0.2-0.4,0.4v0.8C53.3,47.3,53.5,47.5,53.7,47.5
				z"/>
			<path d="M53.7,59.9c0.2,0,0.4-0.2,0.4-0.4v-0.8c0-0.2-0.2-0.4-0.4-0.4c-0.2,0-0.4,0.2-0.4,0.4v0.8C53.3,59.7,53.5,59.9,53.7,59.9
				z"/>
			<path d="M53.7,62.3c0.2,0,0.4-0.2,0.4-0.4v-0.8c0-0.2-0.2-0.4-0.4-0.4c-0.2,0-0.4,0.2-0.4,0.4v0.8C53.3,62.2,53.5,62.3,53.7,62.3
				z"/>
			<path d="M53.7,57.4c0.2,0,0.4-0.2,0.4-0.4v-0.8c0-0.2-0.2-0.4-0.4-0.4c-0.2,0-0.4,0.2-0.4,0.4V57C53.3,57.2,53.5,57.4,53.7,57.4z
				"/>
			<path d="M53.7,54.9c0.2,0,0.4-0.2,0.4-0.4v-0.8c0-0.2-0.2-0.4-0.4-0.4c-0.2,0-0.4,0.2-0.4,0.4v0.8C53.3,54.7,53.5,54.9,53.7,54.9
				z"/>
			<path d="M53.7,50c0.2,0,0.4-0.2,0.4-0.4v-0.8c0-0.2-0.2-0.4-0.4-0.4c-0.2,0-0.4,0.2-0.4,0.4v0.8C53.3,49.8,53.5,50,53.7,50z"/>
			<path d="M53.7,45c0.2,0,0.4-0.2,0.4-0.4v-0.8c0-0.2-0.2-0.4-0.4-0.4c-0.2,0-0.4,0.2-0.4,0.4v0.8C53.3,44.8,53.5,45,53.7,45z"/>
			<path d="M64.1,68c0,0.2,0.2,0.4,0.4,0.4h0.8c0.2,0,0.4-0.2,0.4-0.4s-0.2-0.4-0.4-0.4h-0.8C64.3,67.6,64.1,67.8,64.1,68z"/>
			<path d="M61.6,68c0,0.2,0.2,0.4,0.4,0.4h0.8c0.2,0,0.4-0.2,0.4-0.4s-0.2-0.4-0.4-0.4H62C61.8,67.6,61.6,67.8,61.6,68z"/>
			<path d="M63.6,42.2h0.8c0.2,0,0.4-0.2,0.4-0.4c0-0.2-0.2-0.4-0.4-0.4h-0.8c-0.2,0-0.4,0.2-0.4,0.4C63.2,42,63.4,42.2,63.6,42.2z"
				/>
			<path d="M66.1,42.2h0.8c0.2,0,0.4-0.2,0.4-0.4c0-0.2-0.2-0.4-0.4-0.4h-0.8c-0.2,0-0.4,0.2-0.4,0.4C65.7,42,65.9,42.2,66.1,42.2z"
				/>
			<path d="M59.1,68c0,0.2,0.2,0.4,0.4,0.4h0.8c0.2,0,0.4-0.2,0.4-0.4s-0.2-0.4-0.4-0.4h-0.8C59.3,67.6,59.1,67.8,59.1,68z"/>
			<path d="M61.1,42.2H62c0.2,0,0.4-0.2,0.4-0.4c0-0.2-0.2-0.4-0.4-0.4h-0.8c-0.2,0-0.4,0.2-0.4,0.4C60.7,42,60.9,42.2,61.1,42.2z"
				/>
			<path d="M84.9,71.1c0,0.2,0.2,0.4,0.4,0.4s0.4-0.2,0.4-0.4v-0.8c0-0.2-0.2-0.4-0.4-0.4s-0.4,0.2-0.4,0.4V71.1z"/>
			<path d="M85.3,49.3c0.2,0,0.4-0.2,0.4-0.4V48c0-0.2-0.2-0.4-0.4-0.4s-0.4,0.2-0.4,0.4v0.8C84.9,49.1,85.1,49.3,85.3,49.3z"/>
			<path d="M84.5,73.6c0.4,0,0.8-0.2,1-0.6c0.1-0.2,0.1-0.4-0.1-0.6c-0.2-0.1-0.4-0.1-0.6,0.1c-0.1,0.1-0.2,0.2-0.4,0.2
				c-0.2,0-0.4,0.2-0.4,0.4C84.1,73.4,84.2,73.6,84.5,73.6C84.5,73.6,84.5,73.6,84.5,73.6z"/>
			<path d="M63,72.7h-0.8c-0.2,0-0.4,0.2-0.4,0.4s0.2,0.4,0.4,0.4H63c0.2,0,0.4-0.2,0.4-0.4S63.2,72.7,63,72.7z"/>
			<path d="M58.4,67c0,0.2,0.2,0.4,0.4,0.4c0.2,0,0.4-0.2,0.4-0.4v-0.8c0-0.2-0.2-0.4-0.4-0.4c-0.2,0-0.4,0.2-0.4,0.4V67z"/>
			<path d="M60.5,72.7h-0.8c-0.2,0-0.4,0.2-0.4,0.4c0,0.2,0.1,0.3,0.3,0.4l0.9,0c0.2,0,0.4-0.2,0.4-0.4S60.8,72.7,60.5,72.7z"/>
			<path d="M65.5,73.6c0.2,0,0.4-0.2,0.4-0.4s-0.2-0.4-0.4-0.4h-0.8c-0.2,0-0.4,0.2-0.4,0.4s0.2,0.4,0.4,0.4H65.5z"/>
			<path d="M84.9,68.7c0,0.2,0.2,0.4,0.4,0.4s0.4-0.2,0.4-0.4v-0.8c0-0.2-0.2-0.4-0.4-0.4s-0.4,0.2-0.4,0.4V68.7z"/>
			<path d="M85.3,51.7c0.2,0,0.4-0.2,0.4-0.4v-0.8c0-0.2-0.2-0.4-0.4-0.4s-0.4,0.2-0.4,0.4v0.8C84.9,51.5,85.1,51.7,85.3,51.7z"/>
			<path d="M84.9,58.7c0,0.2,0.2,0.4,0.4,0.4s0.4-0.2,0.4-0.4v-0.8c0-0.2-0.2-0.4-0.4-0.4s-0.4,0.2-0.4,0.4V58.7z"/>
			<path d="M84.9,66.2c0,0.2,0.2,0.4,0.4,0.4s0.4-0.2,0.4-0.4v-0.8c0-0.2-0.2-0.4-0.4-0.4s-0.4,0.2-0.4,0.4V66.2z"/>
			<path d="M85.3,54.2c0.2,0,0.4-0.2,0.4-0.4V53c0-0.2-0.2-0.4-0.4-0.4s-0.4,0.2-0.4,0.4v0.8C84.9,54,85.1,54.2,85.3,54.2z"/>
			<path d="M68,73.6c0.2,0,0.4-0.2,0.4-0.4s-0.2-0.4-0.4-0.4h-0.8c-0.2,0-0.4,0.2-0.4,0.4s0.2,0.4,0.4,0.4H68z"/>
			<path d="M84.9,56.3c0,0.2,0.2,0.4,0.4,0.4s0.4-0.2,0.4-0.4v-0.8c0-0.2-0.2-0.4-0.4-0.4s-0.4,0.2-0.4,0.4V56.3z"/>
			<path d="M70.4,73.6c0.2,0,0.4-0.2,0.4-0.4s-0.2-0.4-0.4-0.4h-0.8c-0.2,0-0.4,0.2-0.4,0.4s0.2,0.4,0.4,0.4H70.4z"/>
			<path d="M58.4,64.6c0,0.2,0.2,0.4,0.4,0.4c0.2,0,0.4-0.2,0.4-0.4v-0.8c0-0.2-0.2-0.4-0.4-0.4c-0.2,0-0.4,0.2-0.4,0.4V64.6z"/>
			<path d="M75.4,73.6c0.2,0,0.4-0.2,0.4-0.4s-0.2-0.4-0.4-0.4h-0.8c-0.2,0-0.4,0.2-0.4,0.4s0.2,0.4,0.4,0.4H75.4z"/>
			<path d="M84.9,63.7c0,0.2,0.2,0.4,0.4,0.4s0.4-0.2,0.4-0.4v-0.8c0-0.2-0.2-0.4-0.4-0.4s-0.4,0.2-0.4,0.4V63.7z"/>
			<path d="M84.9,61.2c0,0.2,0.2,0.4,0.4,0.4s0.4-0.2,0.4-0.4v-0.8c0-0.2-0.2-0.4-0.4-0.4s-0.4,0.2-0.4,0.4V61.2z"/>
			<path d="M72.9,73.6c0.2,0,0.4-0.2,0.4-0.4s-0.2-0.4-0.4-0.4h-0.8c-0.2,0-0.4,0.2-0.4,0.4s0.2,0.4,0.4,0.4H72.9z"/>
			<path d="M78.6,46.5c-0.2,0-0.4,0.2-0.4,0.4c0,0.2,0.2,0.4,0.4,0.4h0.8c0.2,0,0.4-0.2,0.4-0.4c0-0.2-0.2-0.4-0.4-0.4H78.6z"/>
			<path d="M76.2,46.5c-0.2,0-0.4,0.2-0.4,0.4c0,0.2,0.2,0.4,0.4,0.4H77c0.2,0,0.4-0.2,0.4-0.4c0-0.2-0.2-0.4-0.4-0.4H76.2z"/>
			<path d="M58.8,70.8c-0.2,0-0.4,0.2-0.4,0.4V72c0,0.2,0.2,0.4,0.4,0.4c0.2,0,0.4-0.2,0.4-0.4v-0.8C59.2,70.9,59,70.8,58.8,70.8z"
				/>
			<path d="M58.8,68.3c-0.2,0-0.4,0.2-0.4,0.4v0.8c0,0.2,0.2,0.4,0.4,0.4c0.2,0,0.4-0.2,0.4-0.4v-0.8C59.2,68.5,59,68.3,58.8,68.3z"
				/>
			<path d="M58.4,52.2c0,0.2,0.2,0.4,0.4,0.4c0.2,0,0.4-0.2,0.4-0.4v-0.8c0-0.2-0.2-0.4-0.4-0.4c-0.2,0-0.4,0.2-0.4,0.4V52.2z"/>
			<path d="M73.7,46.5c-0.2,0-0.4,0.2-0.4,0.4c0,0.2,0.2,0.4,0.4,0.4h0.8c0.2,0,0.4-0.2,0.4-0.4c0-0.2-0.2-0.4-0.4-0.4H73.7z"/>
			<path d="M66.2,46.5c-0.2,0-0.4,0.2-0.4,0.4c0,0.2,0.2,0.4,0.4,0.4h0.8c0.2,0,0.4-0.2,0.4-0.4c0-0.2-0.2-0.4-0.4-0.4H66.2z"/>
			<path d="M61.3,46.5c-0.2,0-0.4,0.2-0.4,0.4c0,0.2,0.2,0.4,0.4,0.4h0.8c0.2,0,0.4-0.2,0.4-0.4c0-0.2-0.2-0.4-0.4-0.4H61.3z"/>
			<path d="M63.8,46.5c-0.2,0-0.4,0.2-0.4,0.4c0,0.2,0.2,0.4,0.4,0.4h0.8c0.2,0,0.4-0.2,0.4-0.4c0-0.2-0.2-0.4-0.4-0.4H63.8z"/>
			<path d="M58.6,47c-0.1,0.2-0.1,0.4,0.1,0.6c0.1,0,0.1,0.1,0.2,0.1c0.1,0,0.3-0.1,0.3-0.2c0.1-0.1,0.2-0.2,0.4-0.2
				c0.2,0,0.4-0.2,0.4-0.4c0-0.2-0.2-0.4-0.4-0.4C59.2,46.5,58.8,46.7,58.6,47z"/>
			<path d="M81.1,47.3h0.8c0.2,0,0.4-0.2,0.4-0.4c0-0.2-0.2-0.4-0.4-0.4h-0.8c-0.2,0-0.4,0.2-0.4,0.4C80.7,47.1,80.9,47.3,81.1,47.3
				z"/>
			<path d="M71.2,46.5c-0.2,0-0.4,0.2-0.4,0.4c0,0.2,0.2,0.4,0.4,0.4H72c0.2,0,0.4-0.2,0.4-0.4c0-0.2-0.2-0.4-0.4-0.4H71.2z"/>
			<path d="M83.6,47.3h0.8c0.2,0,0.4-0.2,0.4-0.4c0-0.2-0.2-0.4-0.4-0.4h-0.8c-0.2,0-0.4,0.2-0.4,0.4C83.2,47.1,83.4,47.3,83.6,47.3
				z"/>
			<path d="M68.7,46.5c-0.2,0-0.4,0.2-0.4,0.4c0,0.2,0.2,0.4,0.4,0.4h0.8c0.2,0,0.4-0.2,0.4-0.4c0-0.2-0.2-0.4-0.4-0.4H68.7z"/>
			<path d="M58.4,57.1c0,0.2,0.2,0.4,0.4,0.4c0.2,0,0.4-0.2,0.4-0.4v-0.8c0-0.2-0.2-0.4-0.4-0.4c-0.2,0-0.4,0.2-0.4,0.4V57.1z"/>
			<path d="M58.8,50.1c0.2,0,0.4-0.2,0.4-0.4v-0.8c0-0.2-0.2-0.4-0.4-0.4c-0.2,0-0.4,0.2-0.4,0.4v0.8C58.4,49.9,58.6,50.1,58.8,50.1
				z"/>
			<path d="M58.4,59.6c0,0.2,0.2,0.4,0.4,0.4c0.2,0,0.4-0.2,0.4-0.4v-0.8c0-0.2-0.2-0.4-0.4-0.4c-0.2,0-0.4,0.2-0.4,0.4V59.6z"/>
			<path d="M58.4,54.7c0,0.2,0.2,0.4,0.4,0.4c0.2,0,0.4-0.2,0.4-0.4v-0.8c0-0.2-0.2-0.4-0.4-0.4c-0.2,0-0.4,0.2-0.4,0.4V54.7z"/>
			<path d="M58.4,62.1c0,0.2,0.2,0.4,0.4,0.4c0.2,0,0.4-0.2,0.4-0.4v-0.8c0-0.2-0.2-0.4-0.4-0.4c-0.2,0-0.4,0.2-0.4,0.4V62.1z"/>
			<path d="M63.9,75.9c-0.2,0-0.4,0.2-0.4,0.4v0.8c0,0.2,0.2,0.4,0.4,0.4s0.4-0.2,0.4-0.4v-0.8C64.4,76.1,64.2,75.9,63.9,75.9z"/>
			<path d="M68.1,77.9h-0.8c-0.2,0-0.4,0.2-0.4,0.4c0,0.2,0.2,0.4,0.4,0.4h0.8c0.2,0,0.4-0.2,0.4-0.4C68.5,78,68.4,77.9,68.1,77.9z"
				/>
			<path d="M63.9,73.4c-0.2,0-0.4,0.2-0.4,0.4v0.8c0,0.2,0.2,0.4,0.4,0.4s0.4-0.2,0.4-0.4v-0.8C64.4,73.6,64.2,73.4,63.9,73.4z"/>
			<path d="M63.5,69.7c0,0.2,0.2,0.4,0.4,0.4s0.4-0.2,0.4-0.4v-0.8c0-0.2-0.2-0.4-0.4-0.4s-0.4,0.2-0.4,0.4V69.7z"/>
			<path d="M70.6,77.9h-0.8c-0.2,0-0.4,0.2-0.4,0.4c0,0.2,0.2,0.4,0.4,0.4h0.8c0.2,0,0.4-0.2,0.4-0.4C71,78,70.8,77.9,70.6,77.9z"/>
			<path d="M63.5,67.2c0,0.2,0.2,0.4,0.4,0.4s0.4-0.2,0.4-0.4v-0.8c0-0.2-0.2-0.4-0.4-0.4s-0.4,0.2-0.4,0.4V67.2z"/>
			<path d="M65.7,77.9h-0.8c-0.2,0-0.4,0.2-0.4,0.4c0,0.2,0.2,0.4,0.4,0.4h0.8c0.2,0,0.4-0.2,0.4-0.4C66.1,78,65.9,77.9,65.7,77.9z"
				/>
			<path d="M63.5,72.2c0,0.2,0.2,0.4,0.4,0.4s0.4-0.2,0.4-0.4v-0.8c0-0.2-0.2-0.4-0.4-0.4s-0.4,0.2-0.4,0.4V72.2z"/>
			<path d="M63.5,64.7c0,0.2,0.2,0.4,0.4,0.4s0.4-0.2,0.4-0.4v-0.8c0-0.2-0.2-0.4-0.4-0.4s-0.4,0.2-0.4,0.4V64.7z"/>
			<path d="M63.5,57.3c0,0.2,0.2,0.4,0.4,0.4s0.4-0.2,0.4-0.4v-0.8c0-0.2-0.2-0.4-0.4-0.4s-0.4,0.2-0.4,0.4V57.3z"/>
			<path d="M63.9,55.3c0.2,0,0.4-0.2,0.4-0.4V54c0-0.2-0.2-0.4-0.4-0.4s-0.4,0.2-0.4,0.4v0.8C63.5,55.1,63.7,55.3,63.9,55.3z"/>
			<path d="M63.5,62.3c0,0.2,0.2,0.4,0.4,0.4s0.4-0.2,0.4-0.4v-0.8c0-0.2-0.2-0.4-0.4-0.4s-0.4,0.2-0.4,0.4V62.3z"/>
			<path d="M63.5,59.8c0,0.2,0.2,0.4,0.4,0.4s0.4-0.2,0.4-0.4V59c0-0.2-0.2-0.4-0.4-0.4s-0.4,0.2-0.4,0.4V59.8z"/>
			<path d="M68.9,51.6c-0.2,0-0.4,0.2-0.4,0.4c0,0.2,0.2,0.4,0.4,0.4h0.8c0.2,0,0.4-0.2,0.4-0.4c0-0.2-0.2-0.4-0.4-0.4H68.9z"/>
			<path d="M84.6,77.9c-0.2,0-0.4,0.2-0.4,0.4c0,0.2,0.2,0.4,0.4,0.4h0.8c0.2,0,0.4-0.2,0.4-0.4c0-0.2-0.2-0.4-0.4-0.4H84.6z"/>
			<path d="M83.8,51.6c-0.2,0-0.4,0.2-0.4,0.4c0,0.2,0.2,0.4,0.4,0.4h0.8c0.2,0,0.4-0.2,0.4-0.4c0-0.2-0.2-0.4-0.4-0.4H83.8z"/>
			<path d="M86.2,52.4h0.8c0.2,0,0.4-0.2,0.4-0.4c0-0.2-0.2-0.4-0.4-0.4h-0.8c-0.2,0-0.4,0.2-0.4,0.4C85.8,52.2,86,52.4,86.2,52.4z"
				/>
			<path d="M90.4,74.2c0.2,0,0.4-0.2,0.4-0.4v-0.8c0-0.2-0.2-0.4-0.4-0.4c-0.2,0-0.4,0.2-0.4,0.4v0.8C90,74,90.2,74.2,90.4,74.2z"/>
			<path d="M86.7,78.3c0,0.2,0.2,0.4,0.4,0.4h0.8c0.2,0,0.4-0.2,0.4-0.4c0-0.2-0.2-0.4-0.4-0.4h-0.8C86.9,77.9,86.7,78,86.7,78.3z"
				/>
			<path d="M90.4,76.7c0.2,0,0.4-0.2,0.4-0.4v-0.8c0-0.2-0.2-0.4-0.4-0.4c-0.2,0-0.4,0.2-0.4,0.4v0.8C90,76.5,90.2,76.7,90.4,76.7z"
				/>
			<path d="M88.7,52.4h0.8c0.2,0,0.4-0.2,0.4-0.4c0-0.2-0.2-0.4-0.4-0.4h-0.8c-0.2,0-0.4,0.2-0.4,0.4C88.3,52.2,88.5,52.4,88.7,52.4
				z"/>
			<path d="M81.3,51.6c-0.2,0-0.4,0.2-0.4,0.4c0,0.2,0.2,0.4,0.4,0.4h0.8c0.2,0,0.4-0.2,0.4-0.4c0-0.2-0.2-0.4-0.4-0.4H81.3z"/>
			<path d="M66.4,51.6c-0.2,0-0.4,0.2-0.4,0.4c0,0.2,0.2,0.4,0.4,0.4h0.8c0.2,0,0.4-0.2,0.4-0.4c0-0.2-0.2-0.4-0.4-0.4H66.4z"/>
			<path d="M78.8,51.6c-0.2,0-0.4,0.2-0.4,0.4c0,0.2,0.2,0.4,0.4,0.4h0.8c0.2,0,0.4-0.2,0.4-0.4c0-0.2-0.2-0.4-0.4-0.4H78.8z"/>
			<path d="M63.7,52.2c-0.1,0.2-0.1,0.4,0.1,0.6c0.1,0,0.1,0.1,0.2,0.1c0.1,0,0.3-0.1,0.3-0.2c0.1-0.1,0.2-0.2,0.4-0.2
				c0.2,0,0.4-0.2,0.4-0.4c0-0.2-0.2-0.4-0.4-0.4C64.3,51.6,64,51.8,63.7,52.2z"/>
			<path d="M71.4,51.6c-0.2,0-0.4,0.2-0.4,0.4c0,0.2,0.2,0.4,0.4,0.4h0.8c0.2,0,0.4-0.2,0.4-0.4c0-0.2-0.2-0.4-0.4-0.4H71.4z"/>
			<path d="M73.8,51.6c-0.2,0-0.4,0.2-0.4,0.4c0,0.2,0.2,0.4,0.4,0.4h0.8c0.2,0,0.4-0.2,0.4-0.4c0-0.2-0.2-0.4-0.4-0.4H73.8z"/>
			<path d="M76.3,51.6c-0.2,0-0.4,0.2-0.4,0.4c0,0.2,0.2,0.4,0.4,0.4h0.8c0.2,0,0.4-0.2,0.4-0.4c0-0.2-0.2-0.4-0.4-0.4H76.3z"/>
			<path d="M75.6,77.9h-0.8c-0.2,0-0.4,0.2-0.4,0.4c0,0.2,0.2,0.4,0.4,0.4h0.8c0.2,0,0.4-0.2,0.4-0.4C76,78,75.8,77.9,75.6,77.9z"/>
			<path d="M83,77.9h-0.8c-0.2,0-0.4,0.2-0.4,0.4c0,0.2,0.2,0.4,0.4,0.4H83c0.2,0,0.4-0.2,0.4-0.4C83.4,78,83.2,77.9,83,77.9z"/>
			<path d="M89.9,77.6c-0.1,0.1-0.2,0.2-0.4,0.2c-0.2,0-0.4,0.2-0.4,0.4c0,0.2,0.2,0.4,0.4,0.4c0,0,0,0,0,0c0.4,0,0.8-0.2,1-0.6
				c0.1-0.2,0.1-0.4-0.1-0.6C90.3,77.4,90.1,77.5,89.9,77.6z"/>
			<path d="M90.4,54.4c0.2,0,0.4-0.2,0.4-0.4v-0.8c0-0.2-0.2-0.4-0.4-0.4c-0.2,0-0.4,0.2-0.4,0.4V54C90,54.2,90.2,54.4,90.4,54.4z"
				/>
			<path d="M73.1,77.9h-0.8c-0.2,0-0.4,0.2-0.4,0.4c0,0.2,0.2,0.4,0.4,0.4h0.8c0.2,0,0.4-0.2,0.4-0.4C73.5,78,73.3,77.9,73.1,77.9z"
				/>
			<path d="M90.4,71.7c0.2,0,0.4-0.2,0.4-0.4v-0.8c0-0.2-0.2-0.4-0.4-0.4c-0.2,0-0.4,0.2-0.4,0.4v0.8C90,71.5,90.2,71.7,90.4,71.7z"
				/>
			<path d="M78,77.9h-0.8c-0.2,0-0.4,0.2-0.4,0.4c0,0.2,0.2,0.4,0.4,0.4H78c0.2,0,0.4-0.2,0.4-0.4C78.4,78,78.3,77.9,78,77.9z"/>
			<path d="M80.5,77.9h-0.8c-0.2,0-0.4,0.2-0.4,0.4c0,0.2,0.2,0.4,0.4,0.4h0.8c0.2,0,0.4-0.2,0.4-0.4C80.9,78,80.7,77.9,80.5,77.9z"
				/>
			<path d="M90.4,56.9c0.2,0,0.4-0.2,0.4-0.4v-0.8c0-0.2-0.2-0.4-0.4-0.4c-0.2,0-0.4,0.2-0.4,0.4v0.8C90,56.7,90.2,56.9,90.4,56.9z"
				/>
			<path d="M90.4,61.8c0.2,0,0.4-0.2,0.4-0.4v-0.8c0-0.2-0.2-0.4-0.4-0.4c-0.2,0-0.4,0.2-0.4,0.4v0.8C90,61.6,90.2,61.8,90.4,61.8z"
				/>
			<path d="M90.4,59.3c0.2,0,0.4-0.2,0.4-0.4v-0.8c0-0.2-0.2-0.4-0.4-0.4c-0.2,0-0.4,0.2-0.4,0.4v0.8C90,59.1,90.2,59.3,90.4,59.3z"
				/>
			<path d="M90.4,64.3c0.2,0,0.4-0.2,0.4-0.4V63c0-0.2-0.2-0.4-0.4-0.4c-0.2,0-0.4,0.2-0.4,0.4v0.8C90,64.1,90.2,64.3,90.4,64.3z"/>
			<path d="M90.4,69.2c0.2,0,0.4-0.2,0.4-0.4V68c0-0.2-0.2-0.4-0.4-0.4c-0.2,0-0.4,0.2-0.4,0.4v0.8C90,69.1,90.2,69.2,90.4,69.2z"/>
			<path d="M90.4,66.8c0.2,0,0.4-0.2,0.4-0.4v-0.8c0-0.2-0.2-0.4-0.4-0.4c-0.2,0-0.4,0.2-0.4,0.4v0.8C90,66.6,90.2,66.8,90.4,66.8z"
				/>
			<path d="M80.6,55.3L80.6,55.3c0-0.3-0.2-0.5-0.4-0.5c-0.1,0-0.1,0-0.2,0c0,0-0.1,0-0.1,0c-0.1,0-0.1,0-0.2,0
				c-0.4,0.1-0.7,0.4-0.7,0.8l0,11.3l-1.6,0l0.4,0.6c0,0-0.1,0-0.1,0h-0.8c-0.2,0-0.4,0.2-0.4,0.4s0.2,0.4,0.4,0.4h0.8
				c0.2,0,0.3-0.1,0.4-0.3l1.8,3.1l2.5-4.3l-1.6,0l0-11.3C80.7,55.6,80.6,55.5,80.6,55.3z"/>
			<path d="M77.3,72.3c-0.2,0-0.4,0.1-0.6,0.2c-0.1,0.1-0.1,0.2-0.2,0.3c-0.1,0.1-0.1,0.2-0.1,0.3s0.1,0.2,0.1,0.3
				c0.1,0.3,0.4,0.5,0.8,0.5l5.2,0c0.5,0,0.8-0.4,0.8-0.8c0-0.5-0.4-0.8-0.8-0.8L77.3,72.3z"/>
			<path d="M47.6,111.4c0,0.5,0.4,0.8,0.8,0.8h47.2c0.5,0,0.8-0.4,0.8-0.8l0-74.4c0-0.9-0.6-1.8-1.4-2.2l-7.1-3.2H57.2l-8.2,3.2
				c-0.9,0.4-1.5,1.2-1.5,2.2L47.6,111.4z M57.5,33.3h30l6.5,3H50.1L57.5,33.3z M49.2,37.9h45.6v44.3C94.5,82.1,94.3,82,94,82H50
				c-0.3,0-0.5,0.1-0.8,0.1V37.9z M49.2,84.5c0-0.5,0.3-0.8,0.8-0.8h44c0.4,0,0.8,0.4,0.8,0.8v11.4v0.3c0,0.5-0.3,0.8-0.8,0.8H50
				c-0.4,0-0.8-0.4-0.8-0.8V96V84.5z M94.8,110.6H49.2v-12h45.6V110.6z"/>
		</g>
	</g>
</g>
</svg>
