<svg id="Layer_1" data-name="Layer 1" xmlns="http://www.w3.org/2000/svg" viewBox="0 0 108 108"><defs><style>.cls-1{fill:#fff;}</style></defs><title>Icon_RH_Software_App-B_RGB_White</title><path class="cls-1" d="M79.1 25H28.6a3.59 3.59 0 0 0-3.6 3.6v50.5a3.59 3.59 0 0 0 3.6 3.6h50.5a3.59 3.59 0 0 0 3.6-3.6V28.6a3.59 3.59 0 0 0-3.6-3.6zm1.8 54.1a1.79 1.79 0 0 1-1.8 1.8H28.6a1.79 1.79 0 0 1-1.8-1.8V28.6a1.79 1.79 0 0 1 1.8-1.8h50.5a1.79 1.79 0 0 1 1.8 1.8zM52.2 45l-7 19.6h3l1.6-4.7h7.8l1.6 4.7h3.1L55.2 45zm-1.4 12.3l1.6-4.5c.1-.4.3-.8.4-1.2l.4-1.3.4-1.2a3.71 3.71 0 0 0 .2-.9 9.2 9.2 0 0 0 .3.9l.4 1.2c.1.4.3.9.4 1.3s.3.8.4 1.2l1.6 4.5zm24.7-17a1.4 1.4 0 1 0 1.4-1.4 1.31 1.31 0 0 0-1.4 1.4zm0-9.5a1.4 1.4 0 1 0 1.4-1.4 1.37 1.37 0 0 0-1.4 1.4zm0 4.7a1.4 1.4 0 1 0 1.4-1.4 1.37 1.37 0 0 0-1.4 1.4z"/></svg>