<svg id="Layer_1" data-name="Layer 1" xmlns="http://www.w3.org/2000/svg" viewBox="0 0 108 108"><defs><style>.cls-1{fill:#fff;}</style></defs><title>Icon_RH_Software_App-containerlibrary_RGB_White</title><path class="cls-1" d="M63.75 82.29H62a.9.9 0 0 0 0 1.8h1.8a.9.9 0 1 0 0-1.8zM24.59 68.51a.9.9 0 0 0 .9-.9v-1.8a.9.9 0 1 0-1.8 0v1.8a.9.9 0 0 0 .9.9zm3-44.6h-1a2.85 2.85 0 0 0-1.16.24.9.9 0 0 0 .36 1.72.91.91 0 0 0 .36-.08 1.06 1.06 0 0 1 .43-.09h1a.9.9 0 1 0 0-1.8zm-3 50a.9.9 0 0 0 .9-.9V71.2a.9.9 0 0 0-1.8 0V73a.9.9 0 0 0 .9.9zm0 5.39a.9.9 0 0 0 .9-.9v-1.8a.9.9 0 1 0-1.8 0v1.8a.9.9 0 0 0 .9.89zm23 3h-1.8a.9.9 0 0 0 0 1.8h1.8a.9.9 0 0 0 0-1.8zm5.39 0h-1.8a.9.9 0 0 0 0 1.8H53a.9.9 0 0 0 0-1.8zm-21.56 0h-1.8a.9.9 0 0 0 0 1.8h1.8a.9.9 0 0 0 0-1.8zm10.78 0h-1.8a.9.9 0 0 0 0 1.8h1.8a.9.9 0 0 0 0-1.8zm-5.39 0H35a.9.9 0 0 0 0 1.8h1.8a.9.9 0 0 0 0-1.8zm-10.53 0a1.09 1.09 0 0 1-.71-.63.9.9 0 0 0-1.66.68A2.9 2.9 0 0 0 25.79 84a.9.9 0 0 0 .49-1.73zm26.41-56.59h1.8a.9.9 0 1 0 0-1.8h-1.8a.9.9 0 1 0 0 1.8zm5.39 0h1.8a.9.9 0 1 0 0-1.8h-1.8a.9.9 0 1 0 0 1.8zm-10.78 0h1.8a.9.9 0 1 0 0-1.8h-1.8a.9.9 0 0 0 0 1.8zm-5.39 0h1.8a.9.9 0 1 0 0-1.8h-1.8a.9.9 0 1 0 0 1.8zM24.59 63.12a.9.9 0 0 0 .9-.9v-1.8a.9.9 0 0 0-1.8 0v1.8a.9.9 0 0 0 .9.9zm49.66-37.41H76a.9.9 0 1 0 0-1.8h-1.8a.9.9 0 1 0 0 1.8zm-10.78 0h1.8a.9.9 0 1 0 0-1.8h-1.8a.9.9 0 1 0 0 1.8zm-26.95 0h1.8a.9.9 0 0 0 0-1.8h-1.8a.9.9 0 1 0 0 1.8zm32.34 0h1.8a.9.9 0 1 0 0-1.8h-1.8a.9.9 0 1 0 0 1.8zM24.59 47a.9.9 0 0 0 .9-.9v-1.8a.9.9 0 1 0-1.8 0v1.8a.9.9 0 0 0 .9.9zm0 5.39a.9.9 0 0 0 .9-.9v-1.8a.9.9 0 1 0-1.8 0v1.8a.9.9 0 0 0 .9.85zm0 5.39a.9.9 0 0 0 .9-.9V55a.9.9 0 0 0-1.8 0v1.8a.9.9 0 0 0 .9.93zm0-21.56a.9.9 0 0 0 .9-.9v-1.8a.9.9 0 1 0-1.8 0v1.8a.9.9 0 0 0 .9.85zm0-5.39a.9.9 0 0 0 .9-.9v-1.8a.9.9 0 1 0-1.8 0v1.8a.9.9 0 0 0 .9.85zm0 10.78a.9.9 0 0 0 .9-.9v-1.8a.9.9 0 1 0-1.8 0v1.8a.9.9 0 0 0 .9.85zm6.55-15.86h1.8a.9.9 0 1 0 0-1.8h-1.8a.9.9 0 1 0 0 1.8zm27.22 56.54h-1.8a.9.9 0 1 0 0 1.8h1.8a.9.9 0 0 0 0-1.8zm25.05-13.51a.9.9 0 0 0-.9.9v1.8a.9.9 0 1 0 1.8 0v-1.8a.9.9 0 0 0-.9-.9zm0-5.39a.9.9 0 0 0-.9.9v1.8a.9.9 0 1 0 1.8 0v-1.8a.9.9 0 0 0-.9-.9zm-3.5 18.91h-1.8a.9.9 0 0 0 0 1.8h1.8a.9.9 0 1 0 0-1.8zm-10.78 0h-1.8a.9.9 0 0 0 0 1.8h1.8a.9.9 0 0 0 0-1.8zM83.41 58a.9.9 0 0 0-.9.9v1.8a.9.9 0 1 0 1.8 0v-1.8a.9.9 0 0 0-.9-.9zm-2-34.09h-1.8a.9.9 0 1 0 0 1.8h1.8a.9.9 0 1 0 0-1.8zm2 50.26a.9.9 0 0 0-.9.9v1.8a.9.9 0 1 0 1.8 0v-1.8a.9.9 0 0 0-.9-.9zm0-43.11a.9.9 0 0 0-.9.9v1.8a.9.9 0 1 0 1.8 0V32a.9.9 0 0 0-.9-.95zm0 21.56a.9.9 0 0 0-.9.9v1.8a.9.9 0 0 0 1.8 0v-1.8a.9.9 0 0 0-.9-.91zm.88-26.14a.9.9 0 1 0-1.79.19 1.19 1.19 0 0 1 0 .13v1.57a.9.9 0 1 0 1.8 0v-1.59a3 3 0 0 0-.01-.31zm-.88 10a.9.9 0 0 0-.9.9v1.8a.9.9 0 1 0 1.8 0v-1.8a.9.9 0 0 0-.9-.94zm0 5.39a.9.9 0 0 0-.9.9v1.8a.9.9 0 1 0 1.8 0v-1.8a.9.9 0 0 0-.9-.94zm0 5.39a.9.9 0 0 0-.9.9v1.8a.9.9 0 0 0 1.8 0v-1.8a.9.9 0 0 0-.9-.94zm0 32.34a.9.9 0 0 0-.9.9v.76a1.06 1.06 0 0 1-.14.54.9.9 0 0 0 1.56.9 2.87 2.87 0 0 0 .38-1.44v-.76a.9.9 0 0 0-.9-.95zM63.48 62.72h1.8v-.9h-1.8zm0-5.39h1.8v-.9h-1.8zm0 1.8h1.8v-.9h-1.8zm0 1.8h1.8V60h-1.8zm11 21.37h-1.8a.9.9 0 1 0 0 1.8h1.8a.9.9 0 0 0 0-1.8zM41.87 39.36c-.3 0-.72.18-1 1L40 43.25l-1 3-1.32 3.95a1.62 1.62 0 0 0 1.6 2.22h5.21a1.61 1.61 0 0 0 1.6-2.22l-1.31-3.87-1-3-.93-3c-.26-.79-.68-.97-.98-.97zm1.9 7.34l1.31 3.87a.56.56 0 0 1-.58.81h-5.22a.56.56 0 0 1-.59-.82L40 46.62l1-3 .84-2.71.88 2.79zm19.71 8.83h1.8v-.9h-1.8zm14.84 21V52.89A1.92 1.92 0 0 0 76.39 51H52.26a1.92 1.92 0 0 0-1.92 1.92l-5.6-16.12a2.94 2.94 0 0 0-2.63-1.87h-.5A2.94 2.94 0 0 0 39 36.76l-4.8 13.78V33.25a1.07 1.07 0 0 1 1.07-1.07h30a1.07 1.07 0 0 1 1.07 1.07V51h1.06V33.25a2.14 2.14 0 0 0-2.14-2.14h-30a2.14 2.14 0 0 0-2.14 2.14v.53h-.65a2.14 2.14 0 0 0-2.14 2.14V66.1a2.14 2.14 0 0 0 2.14 2.14h17.87v8.27a1.92 1.92 0 0 0 1.92 1.92h24.13a1.92 1.92 0 0 0 1.93-1.92zm-28-13.76l-2-6a2.93 2.93 0 0 0-2.63-1.88H38.1a2.91 2.91 0 0 0-2.62 1.88l-1.8 5.33a10.49 10.49 0 0 0-.54 2.2c0 .77 1.1 1 2.14 1h13.61a1.7 1.7 0 0 0 1.41-.67v-.07 2.53H32.49a1.07 1.07 0 0 1-1.07-1.07v-30.1a1.07 1.07 0 0 1 1.07-1.07h.65V52.1c0 .33 0 1.11.6 1.21s.86-.64 1-1L40 37.11A1.89 1.89 0 0 1 41.62 36h.5a1.89 1.89 0 0 1 1.62 1.15l6.6 19zm-.91 1.34a.64.64 0 0 1-.55.22H35.27a3.14 3.14 0 0 1-1-.15 13.58 13.58 0 0 1 .46-1.69l1.8-5.33A1.87 1.87 0 0 1 38.1 56h7.59a1.88 1.88 0 0 1 1.61 1.15l2.17 6.36a.64.64 0 0 1-.03.58zm27.95 12.4a1 1 0 0 1-1 1h-24.1a1 1 0 0 1-1-1V52.89a1 1 0 0 1 1-1H76.39a1 1 0 0 1 1 1zM65.28 63.62h-1.8v.9h1.8zm-2.71.9v6.73h3.59v-6.73h-3.59zm1.8 3.4a.67.67 0 1 1-.67.67.67.67 0 0 1 .68-.67zm.89-14.18v-.9h-1.8v.9zM63.9 33.49a.86.86 0 1 0 .86.86.86.86 0 0 0-.86-.86zm0 2.82a.86.86 0 1 0 .86.86.86.86 0 0 0-.86-.85zm0 2.82a.86.86 0 1 0 .86.86.86.86 0 0 0-.86-.85z"/></svg>