<svg data-name="Layer 1" xmlns="http://www.w3.org/2000/svg" viewBox="0 0 42.78 56.61"><title>Icon_RH_Software_OldSoftwareBox_RGB_Black</title><path d="M29.73 45.3h.2l9.7-4.85a.44.44 0 0 0 .24-.39v-6.55a.44.44 0 0 0-.88 0v6.27l-9.45 4.73a.44.44 0 0 0 .2.84zm-18.54 4.81a.44.44 0 0 0 .44-.44V36.92a.44.44 0 1 0-.88 0v12.75a.44.44 0 0 0 .44.44zM42.78 6.78v-.07a.84.84 0 0 0-.07-.25 1 1 0 0 0-.19-.24h-.05l-.13-.09L29.22.09a.89.89 0 0 0-.79 0l-27.95 14-.13.09H.3a.85.85 0 0 0-.19.24.85.85 0 0 0-.07.24.51.51 0 0 0 0 .07v35.06a.88.88 0 0 0 .49.79l13.07 5.93a.88.88 0 0 0 .36.09.86.86 0 0 0 .36-.09l27.95-14a.88.88 0 0 0 .49-.79V6.81s.02-.02.02-.03zM28.83 1.87l5.06 2.31-26 13-5.06-2.31zM13.07 54.3l-11.3-5v-33l11.3 5zm.88-34.49l-5-2.14 26-13 5 2.14zM41.01 41.2L14.83 54.3v-33L41.01 8.24z"/></svg>