<svg data-name="Layer 1" xmlns="http://www.w3.org/2000/svg" viewBox="0 0 108 108"><title>Icon_RH_Software_App-container_RGB_Black</title><path d="M27.54 23.91h-1a2.85 2.85 0 0 0-1.16.24.9.9 0 1 0 .73 1.64 1.06 1.06 0 0 1 .43-.09h1a.9.9 0 1 0 0-1.8zm-3 50a.9.9 0 0 0 .9-.9V71.2a.9.9 0 1 0-1.8 0V73a.9.9 0 0 0 .95.9zm0 5.39a.9.9 0 0 0 .9-.9v-1.8a.9.9 0 0 0-1.8 0v1.8a.9.9 0 0 0 .95.89zm1.68 3a1.08 1.08 0 0 1-.71-.63.9.9 0 0 0-1.66.68A2.9 2.9 0 0 0 25.79 84a.9.9 0 0 0 .49-1.73zm32.09 0h-1.8a.9.9 0 0 0 0 1.8h1.8a.9.9 0 1 0 0-1.8zm-10.78 0h-1.8a.9.9 0 0 0 0 1.8h1.8a.9.9 0 0 0 0-1.8zm5.39 0h-1.8a.9.9 0 0 0 0 1.8H53a.9.9 0 0 0 0-1.8zm-21.56 0h-1.8a.9.9 0 0 0 0 1.8h1.8a.9.9 0 0 0 0-1.8zm5.39 0H35a.9.9 0 0 0 0 1.8h1.8a.9.9 0 0 0 0-1.8zm5.39 0h-1.8a.9.9 0 0 0 0 1.8h1.8a.9.9 0 0 0 0-1.8zM24.59 68.51a.9.9 0 0 0 .9-.9v-1.8a.9.9 0 0 0-1.8 0v1.8a.9.9 0 0 0 .9.9zm28.1-42.8h1.8a.9.9 0 0 0 0-1.8h-1.8a.9.9 0 1 0 0 1.8zm-5.39 0h1.8a.9.9 0 1 0 0-1.8h-1.8a.9.9 0 0 0 0 1.8zm-5.39 0h1.8a.9.9 0 1 0 0-1.8h-1.8a.9.9 0 1 0 0 1.8zm-5.39 0h1.8a.9.9 0 0 0 0-1.8h-1.8a.9.9 0 1 0 0 1.8zm21.56 0h1.8a.9.9 0 0 0 0-1.8h-1.8a.9.9 0 1 0 0 1.8zm5.39 0h1.8a.9.9 0 1 0 0-1.8h-1.8a.9.9 0 1 0 0 1.8zM24.59 52.34a.9.9 0 0 0 .9-.9v-1.8a.9.9 0 1 0-1.8 0v1.8a.9.9 0 0 0 .9.9zm0 10.78a.9.9 0 0 0 .9-.9v-1.8a.9.9 0 0 0-1.8 0v1.8a.9.9 0 0 0 .9.9zm0-32.34a.9.9 0 0 0 .9-.9v-1.8a.9.9 0 0 0-1.8 0v1.8a.9.9 0 0 0 .9.9zm0 26.95a.9.9 0 0 0 .9-.9V55a.9.9 0 1 0-1.8 0v1.8a.9.9 0 0 0 .9.93zm0-10.78a.9.9 0 0 0 .9-.9v-1.8a.9.9 0 1 0-1.8 0v1.8a.9.9 0 0 0 .9.95zm0-5.39a.9.9 0 0 0 .9-.9v-1.8a.9.9 0 0 0-1.8 0v1.8a.9.9 0 0 0 .9.9zm0-5.39a.9.9 0 0 0 .9-.9v-1.8a.9.9 0 1 0-1.8 0v1.8a.9.9 0 0 0 .9.9zm8.34-12.26h-1.8a.9.9 0 0 0 0 1.8h1.8a.9.9 0 1 0 0-1.8zm50.48 28.7a.9.9 0 0 0-.9.9v1.8a.9.9 0 1 0 1.8 0v-1.8a.9.9 0 0 0-.9-.9zm0 16.17a.9.9 0 0 0-.9.9v1.8a.9.9 0 0 0 1.8 0v-1.8a.9.9 0 0 0-.9-.9zm0-10.78a.9.9 0 0 0-.9.9v1.8a.9.9 0 1 0 1.8 0v-1.8a.9.9 0 0 0-.9-.9zm0 5.39a.9.9 0 0 0-.9.9v1.8a.9.9 0 1 0 1.8 0v-1.8a.9.9 0 0 0-.9-.9zm0 10.78a.9.9 0 0 0-.9.9v1.8a.9.9 0 1 0 1.8 0v-1.8a.9.9 0 0 0-.9-.9zm0 5.39a.9.9 0 0 0-.9.9v.76a1.06 1.06 0 0 1-.14.54.9.9 0 0 0 1.56.9 2.87 2.87 0 0 0 .38-1.44v-.76a.9.9 0 0 0-.9-.91zm0-43.11a.9.9 0 0 0-.9.9v1.8a.9.9 0 1 0 1.8 0v-1.8a.9.9 0 0 0-.9-.91zm0-5.39a.9.9 0 0 0-.9.9v1.8a.9.9 0 1 0 1.8 0V32a.9.9 0 0 0-.9-.95zM63.75 82.29H62a.9.9 0 0 0 0 1.8h1.8a.9.9 0 0 0 0-1.8zm19.66-35.07a.9.9 0 0 0-.9.9v1.8a.9.9 0 0 0 1.8 0v-1.8a.9.9 0 0 0-.9-.9zm0-5.39a.9.9 0 0 0-.9.9v1.8a.9.9 0 1 0 1.8 0v-1.8a.9.9 0 0 0-.9-.9zm-2-17.92h-1.8a.9.9 0 1 0 0 1.8h1.8a.9.9 0 1 0 0-1.8zm2.86 2.55a.9.9 0 1 0-1.79.19 1.19 1.19 0 0 1 0 .13v1.57a.9.9 0 1 0 1.8 0v-1.57a2.94 2.94 0 0 0 .01-.31zm-15 10h-28a2 2 0 0 0-2 2V39h-.6a2 2 0 0 0-2 2v28.23a2 2 0 0 0 2 2H66.9a2 2 0 0 0 2-2v-.6h-1v.6a1 1 0 0 1-1 1H38.67a1 1 0 0 1-1-1V41a1 1 0 0 1 1-1h.6v16.14c0 .31 0 1 .56 1.14s.8-.59.9-.89l5-14.27A1.77 1.77 0 0 1 47.21 41h.46a1.77 1.77 0 0 1 1.52 1.08l8.57 24.69a2.75 2.75 0 0 0 2.46 1.75h9.1a2 2 0 0 0 2-2V38.5a2 2 0 0 0-1.99-1.99zm1 30.05a1 1 0 0 1-1 1h-9.1a1.77 1.77 0 0 1-1.52-1.08l-8.51-24.64A2.75 2.75 0 0 0 47.67 40h-.46a2.75 2.75 0 0 0-2.46 1.75l-4.47 12.93V38.5a1 1 0 0 1 1-1h28.05a1 1 0 0 1 1 1zm-1.13 15.78h-1.8a.9.9 0 1 0 0 1.8h1.8a.9.9 0 0 0 0-1.8zM45 56.47h4.87a1.51 1.51 0 0 0 1.49-2.08l-1.22-3.62-.95-2.84-.87-2.77c-.23-.78-.62-.94-.9-.94s-.67.17-.9 1l-.84 2.68-.94 2.83-1.24 3.69a1.51 1.51 0 0 0 1.5 2.05zm-.55-1.76L45.71 51l.95-2.85.79-2.53.82 2.61 1 2.85 1.22 3.62a.52.52 0 0 1-.55.76H45a.52.52 0 0 1-.55-.76zm30.08 27.58h-1.8a.9.9 0 1 0 0 1.8h1.8a.9.9 0 0 0 0-1.8zM76 23.91h-1.8a.9.9 0 1 0 0 1.8H76a.9.9 0 1 0 0-1.8zM41.46 60.53l-1.68 5a9.82 9.82 0 0 0-.51 2.06c0 .72 1 1 2 1H54a1.5 1.5 0 0 0 1.49-2.08l-2-5.95A2.74 2.74 0 0 0 51 58.77h-7.1a2.73 2.73 0 0 0-2.44 1.76zm2.45-.76H51a1.76 1.76 0 0 1 1.51 1.08l2 5.95a.52.52 0 0 1-.54.76h-12.7a2.94 2.94 0 0 1-1-.14 12.68 12.68 0 0 1 .43-1.58l1.68-5a1.75 1.75 0 0 1 1.53-1.07zm36 22.52h-1.8a.9.9 0 0 0 0 1.8h1.8a.9.9 0 1 0 0-1.8zm-9.25-58.38h-1.8a.9.9 0 0 0 0 1.8h1.8a.9.9 0 1 0 0-1.8zM67.15 42.4a.81.81 0 1 0 .85-.8.81.81 0 0 0-.85.8zm0-2.64A.81.81 0 1 0 68 39a.81.81 0 0 0-.85.76zm0 5.28a.81.81 0 1 0 .81-.81.81.81 0 0 0-.81.77z"/></svg>