<svg data-name="Layer 1" xmlns="http://www.w3.org/2000/svg" viewBox="0 0 57.7 57.7"><title>Icon_RH_Software_Command_RGB_Black</title><path d="M17.01 36.99a1 1 0 0 0 .84.49 1 1 0 0 0 .5-.13l10.2-5.9-10.2-5.9a1 1 0 1 0-1 1.68l7.3 4.22-7.3 4.22a1 1 0 0 0-.34 1.32zm12.44.49h11.79a1 1 0 0 0 0-1.94h-11.8a1 1 0 1 0 0 1.94zM42.46 4.35a1.44 1.44 0 1 0 1.44 1.44 1.44 1.44 0 0 0-1.44-1.44zm4.73 0a1.44 1.44 0 1 0 1.44 1.44 1.44 1.44 0 0 0-1.44-1.44zM54.13.02H3.58A3.58 3.58 0 0 0 0 3.6v50.52a3.58 3.58 0 0 0 3.58 3.58h50.54a3.58 3.58 0 0 0 3.58-3.58V3.58A3.58 3.58 0 0 0 54.12 0zm1.79 54.13a1.79 1.79 0 0 1-1.79 1.79H3.58a1.79 1.79 0 0 1-1.79-1.79V11h54.12zm0-44.62H1.79V3.58a1.79 1.79 0 0 1 1.79-1.79h50.54a1.79 1.79 0 0 1 1.79 1.79zm-4-5.17a1.44 1.44 0 1 0 1.43 1.41 1.44 1.44 0 0 0-1.44-1.42z"/></svg>