<svg id="Icon" xmlns="http://www.w3.org/2000/svg" viewBox="0 0 81.73 44.63"><defs><style>.cls-1{fill:#fff;}</style></defs><title>Icon_RH_Software_Message-Oriented-Middleware_RGB_White</title><path class="cls-1" d="M36.09 24.55h6.3a.5.5 0 0 0 0-1h-6.3a.5.5 0 0 0 0 1zm-32.7-4.63h17.49a1 1 0 0 0 1-.89 19.12 19.12 0 0 1 38 0 1 1 0 0 0 1 .89h11.36a1 1 0 0 0 0-2H61.77a21.12 21.12 0 0 0-41.76 0H3.43l1.27-1.27a1 1 0 0 0-1.41-1.38L.35 18.21a1 1 0 0 0-.35.74 1 1 0 0 0 .29.72l3 3a1 1 0 0 0 1.41-1.41zm32.7-.38h6.3a.5.5 0 0 0 0-1h-6.3a.5.5 0 0 0 0 1zm0 2.5h6.3a.5.5 0 0 0 0-1h-6.3a.5.5 0 0 0 0 1zm-.55-10.59a.75.75 0 0 0-.75.75v2.38h-2.54a.75.75 0 0 0-.75.75v17.13a.75.75 0 0 0 .75.75h14a.75.75 0 0 0 .75-.75v-2.37h2.54a.75.75 0 0 0 .75-.75V12.21a.75.75 0 0 0-.75-.75zm9.95 20.26H33V16.08h12.49zm3.28-3.12h-1.78V15.33a.75.75 0 0 0-.75-.75h-9.95v-1.62h12.48zm33-2.9a1 1 0 0 0-.29-.72l-3-3a1 1 0 0 0-1.41 1.41l1.27 1.27h-17.5a1 1 0 0 0-1 .89 19.12 19.12 0 0 1-38 0 1 1 0 0 0-1-.89H9.48a1 1 0 1 0 0 2h10.48a21.12 21.12 0 0 0 41.76 0H78.3l-1.27 1.27a1 1 0 1 0 1.41 1.41l2.94-2.94a1 1 0 0 0 .35-.74zm-45.68 1.37h6.3a.5.5 0 1 0 0-1h-6.3a.5.5 0 1 0 0 1zm0 2.5h6.3a.5.5 0 1 0 0-1h-6.3a.5.5 0 1 0 0 1z"/></svg>