<svg id="icon" xmlns="http://www.w3.org/2000/svg" viewBox="0 0 52.27 60.7"><title>Icon_RH_software_catalog_selfservice_RGB_Flat</title><path d="M92.27,44.57H48.32v8H92.27v-8ZM91,51.34H49.57V45.82H91v5.52Z" transform="translate(-48.32 -44.57)"/><path d="M99.41,83.29a2.54,2.54,0,0,0-1.94-.86,2.66,2.66,0,0,0-1.38.38c-0.57-1.87-1.65-2.88-3.06-2.89h0a2.92,2.92,0,0,0-1.74.56,4.32,4.32,0,0,0-1-1.76,2.88,2.88,0,0,0-2.12-.87h0a3,3,0,0,0-2,.73l-0.06-1.87h6.16v-8H85.86l-0.13-4h6.54v-8H48.32v8H80.15l-0.37,4H48.32v8H79.06l-0.37,4h-5l-0.28-.45C70.67,75.75,66.84,78,66.8,78a0.92,0.92,0,0,0-.37,1.14l0.68,1.63H48.32v8H70.46c1,2.53,2,4.91,2.51,6.18,1,2.55,4,10.32,13.47,10.32h0a10.35,10.35,0,0,0,7.39-3.39,21.46,21.46,0,0,0,3.48-4.75,36.7,36.7,0,0,0,3.19-7.89l0-.12C100.6,88.44,100.9,85,99.41,83.29ZM91,69.95v5.52h-5L85.9,69.95H91ZM49.57,63.4V57.88H91V63.4h-5.5a2.6,2.6,0,0,0-5.11,0H49.57Zm0,12.06V69.95h30.1l-0.5,5.52H49.57Zm29,6.54-0.16,1.7a12.31,12.31,0,0,1-.78,3.18c-0.78-1.2-2.05-3.14-3.15-4.88h4.09Zm-29,5.52V82H67.64c0.65,1.54,1.48,3.53,2.3,5.52H49.57Zm49.49,1.4c-0.22.83-4.09,14.88-12.63,14.88-2.1,0-8.5,0-12.1-9.38C73.13,91.28,69,81.4,68,79.06c0.84-.29,2.65-0.52,4.18,2s4,6.34,4.74,7.41a0.63,0.63,0,0,1-.27.06,0.56,0.56,0,1,0,0,1.12c2.61,0,3.22-5.75,3.23-5.81,0.25-2.68,1.75-19.25,1.75-19.26s0.17-1.82,1.31-1.82,1.31,1.65,1.31,1.69l0.56,18a0.56,0.56,0,0,0,1.12,0s0.33-3.15,2.26-3.15a1.43,1.43,0,0,1,1.07.44,5.05,5.05,0,0,1,.93,3.09,0.56,0.56,0,0,0,1.1.15c0-.07.46-1.61,1.75-1.61,1.66,0,1.95,3.35,2,3.39a0.56,0.56,0,0,0,1.07.19,1.82,1.82,0,0,1,1.41-1.07,1.06,1.06,0,0,1,.84.38C99.22,85.28,99.17,87.94,99.07,88.93Z" transform="translate(-48.32 -44.57)"/></svg>