<?xml version="1.0" encoding="utf-8"?>
<!-- Generator: Adobe Illustrator 17.1.0, SVG Export Plug-In . SVG Version: 6.00 Build 0)  -->
<!DOCTYPE svg PUBLIC "-//W3C//DTD SVG 1.1//EN" "http://www.w3.org/Graphics/SVG/1.1/DTD/svg11.dtd">
<svg version="1.1" id="Layer_1" xmlns="http://www.w3.org/2000/svg" xmlns:xlink="http://www.w3.org/1999/xlink" x="0px" y="0px"
	 viewBox="0 0 216 216" enable-background="new 0 0 216 216" xml:space="preserve">
<g>
	<polygon fill="#FFFFFF" points="78.914,95.624 78.914,95.141 78.635,95.624 	"/>
	<path fill="#FFFFFF" d="M126.975,74.041c-0.18-0.31-0.51-0.5-0.867-0.5H89.652c-0.357,0-0.688,0.19-0.867,0.5l-18.227,31.57
		c-0.178,0.31-0.178,0.69,0,1l18.227,31.57c0.18,0.31,0.51,0.5,0.867,0.5h36.455c0.357,0,0.688-0.19,0.867-0.5l18.227-31.57
		c0.178-0.31,0.178-0.69,0-1L126.975,74.041z M141.529,108.971v-2.077c0-0.535-0.32-0.854-0.855-0.854
		c-0.535,0-0.854,0.319-0.854,0.854v2.191h-0.672v-8.194h-3.236c-0.518,0-0.854,0.336-0.854,0.854c0,0.519,0.335,0.854,0.854,0.854
		h1.527v6.485h-1.527c-0.518,0-0.854,0.335-0.854,0.854c0,0.519,0.335,0.854,0.854,0.854h4.564l-5.227,9.053v-5.496h-3.234
		c-0.52,0-0.855,0.336-0.855,0.854s0.336,0.854,0.855,0.854h1.525v6.485h-1.525c-0.52,0-0.855,0.335-0.855,0.854
		c0,0.519,0.336,0.854,0.855,0.854h0.691l-5.092,8.819c-0.126-0.066-0.27-0.113-0.447-0.113c-0.535,0-0.854,0.319-0.854,0.855v1.513
		l-0.392,0.678h-0.28v-8.193h-3.236c-0.511,0-0.854,0.343-0.854,0.854c0,0.512,0.343,0.855,0.854,0.855h1.527v6.484h-1.527
		c-0.446,0-0.75,0.271-0.823,0.679h-2.633c0.04-0.136,0.069-0.277,0.069-0.429v-6.984c0-0.805-0.654-1.459-1.459-1.459h-3.553
		c-0.805,0-1.459,0.654-1.459,1.459v6.984c0,0.151,0.027,0.293,0.068,0.429h-2.671c0.04-0.136,0.069-0.277,0.069-0.429v-6.984
		c0-0.805-0.654-1.459-1.459-1.459h-3.553c-0.805,0-1.459,0.654-1.459,1.459v6.984c0,0.151,0.027,0.293,0.068,0.429h-2.671
		c0.04-0.136,0.069-0.277,0.069-0.429v-6.984c0-0.805-0.654-1.459-1.459-1.459H96c-0.805,0-1.459,0.654-1.459,1.459v6.984
		c0,0.151,0.027,0.293,0.068,0.429h-2.671c0.04-0.136,0.069-0.277,0.069-0.429v-6.984c0-0.805-0.654-1.459-1.459-1.459h-3.553
		c-0.616,0-1.141,0.385-1.355,0.925l-2.789-4.83c0.314-0.266,0.514-0.658,0.514-1.11v-6.985c0-0.805-0.654-1.459-1.459-1.459h-3.553
		c-0.32,0-0.613,0.106-0.854,0.282l-2.216-3.839h1.76c0.818,0,1.459-0.641,1.459-1.458v-6.985c0-0.805-0.654-1.459-1.459-1.459
		h-1.449l2.055-3.558h4.5c0.52,0,0.855-0.335,0.855-0.854v-3.045c0-0.535-0.32-0.854-0.855-0.854c-0.535,0-0.854,0.319-0.854,0.854
		v2.19h-0.672v-3.443l5.162-8.941c0.26,0.386,0.7,0.635,1.211,0.635h3.553c0.818,0,1.459-0.641,1.459-1.459v-6.874h2.917
		c0,0,0.285,0.001,0.47,0.001h1.527v6.623h-1.527c-0.511,0-0.854,0.343-0.854,0.854c0,0.519,0.335,0.854,0.854,0.854h4.762
		c0.52,0,0.855-0.335,0.855-0.854v-3.045c0-0.535-0.32-0.854-0.855-0.854c-0.535,0-0.854,0.319-0.854,0.854v2.19h-0.672v-6.624
		h5.298c0,0,0.589,0.001,0.47,0.001h1.527v6.623h-1.527c-0.511,0-0.854,0.343-0.854,0.854c0,0.519,0.335,0.854,0.854,0.854h4.762
		c0.52,0,0.855-0.335,0.855-0.854v-3.045c0-0.535-0.32-0.854-0.855-0.854c-0.535,0-0.854,0.319-0.854,0.854v2.19h-0.672v-6.624
		h4.914v6.874c0,0.818,0.641,1.459,1.459,1.459h3.553c0.818,0,1.459-0.641,1.459-1.459v-6.874h2.533v6.874
		c0,0.818,0.641,1.459,1.459,1.459h3.553c0.818,0,1.459-0.641,1.459-1.459v-2.557l4.371,7.573h-0.379
		c-0.805,0-1.459,0.654-1.459,1.459v6.984c0,0.818,0.641,1.459,1.459,1.459h3.553c0.818,0,1.459-0.641,1.459-1.459v-0.42
		l6.152,10.658L141.529,108.971z M87.246,129.519h3.053v6.484h-0.462l-2.591-4.489V129.519z M96.25,136.003v-6.484h3.053v6.484
		H96.25z M105.254,136.003v-6.484h3.053v6.484H105.254z M114.258,136.003v-6.484h3.053v6.484H114.258z M78.914,95.624h-0.279
		l0.279-0.483V95.624z M74.607,102.6h2.186v6.485h-2.496l-0.557-0.965v-4.018L74.607,102.6z M78.604,116.059h3.053v5.775
		l-3.053-5.289V116.059z M126.314,82.165h-3.053v-6.484h2.35l0.703,1.217V82.165z M114.258,75.681h3.053v6.484h-3.053V75.681z
		 M90.299,75.681v6.484h-3.053v-1.456l2.902-5.028H90.299z M135.318,92.494v3.13h-3.053V89.14h1.115L135.318,92.494z"/>
	<path fill="#FFFFFF" d="M86.996,97.333h3.553c0.818,0,1.459-0.641,1.459-1.459V88.89c0-0.805-0.654-1.459-1.459-1.459h-3.553
		c-0.805,0-1.459,0.654-1.459,1.459v6.984C85.537,96.692,86.178,97.333,86.996,97.333z M87.246,95.624V89.14h3.053v6.484H87.246z"/>
	<path fill="#FFFFFF" d="M96,97.333h3.553c0.818,0,1.459-0.641,1.459-1.459V88.89c0-0.805-0.654-1.459-1.459-1.459H96
		c-0.805,0-1.459,0.654-1.459,1.459v6.984C94.541,96.692,95.182,97.333,96,97.333z M96.25,95.624V89.14h3.053v6.484H96.25z"/>
	<path fill="#FFFFFF" d="M105.004,97.333h3.553c0.818,0,1.459-0.641,1.459-1.459V88.89c0-0.805-0.654-1.459-1.459-1.459h-3.553
		c-0.805,0-1.459,0.654-1.459,1.459v6.984C103.545,96.692,104.186,97.333,105.004,97.333z M105.254,95.624V89.14h3.053v6.484
		H105.254z"/>
	<path fill="#FFFFFF" d="M113.402,95.624c-0.511,0-0.854,0.343-0.854,0.854c0,0.519,0.335,0.854,0.854,0.854h4.762
		c0.519,0,0.855-0.335,0.855-0.854v-3.045c0-0.535-0.32-0.854-0.855-0.854c-0.535,0-0.854,0.319-0.854,0.854v2.19h-0.672v-8.193
		h-3.236c-0.511,0-0.854,0.343-0.854,0.854c0,0.511,0.343,0.854,0.854,0.854h1.527v6.484H113.402z"/>
	<path fill="#FFFFFF" d="M122.406,95.624c-0.511,0-0.854,0.343-0.854,0.854c0,0.519,0.335,0.854,0.854,0.854h4.762
		c0.52,0,0.855-0.335,0.855-0.854v-3.045c0-0.535-0.32-0.854-0.855-0.854c-0.535,0-0.854,0.319-0.854,0.854v2.19h-0.672v-8.193
		h-3.236c-0.511,0-0.854,0.343-0.854,0.854c0,0.511,0.343,0.854,0.854,0.854h1.527v6.484H122.406z"/>
	<path fill="#FFFFFF" d="M87.506,109.335v-6.985c0-0.805-0.654-1.459-1.459-1.459h-3.553c-0.805,0-1.459,0.654-1.459,1.459v6.985
		c0,0.817,0.641,1.458,1.459,1.458h3.553C86.865,110.793,87.506,110.152,87.506,109.335z M85.797,102.6v6.485h-3.053V102.6H85.797z"
		/>
	<path fill="#FFFFFF" d="M96.51,109.335v-6.985c0-0.805-0.654-1.459-1.459-1.459h-3.553c-0.805,0-1.459,0.654-1.459,1.459v6.985
		c0,0.817,0.641,1.458,1.459,1.458h3.553C95.869,110.793,96.51,110.152,96.51,109.335z M94.801,102.6v6.485h-3.053V102.6H94.801z"/>
	<path fill="#FFFFFF" d="M105.514,109.938v-3.045c0-0.535-0.32-0.854-0.855-0.854c-0.535,0-0.854,0.319-0.854,0.854v2.191h-0.672
		v-8.194h-3.236c-0.519,0-0.854,0.336-0.854,0.854c0,0.519,0.335,0.854,0.854,0.854h1.527v6.485h-1.527
		c-0.519,0-0.854,0.335-0.854,0.854c0,0.519,0.335,0.854,0.854,0.854h4.762C105.178,110.793,105.514,110.457,105.514,109.938z"/>
	<path fill="#FFFFFF" d="M114.518,109.335v-6.985c0-0.805-0.654-1.459-1.459-1.459h-3.553c-0.805,0-1.459,0.654-1.459,1.459v6.985
		c0,0.817,0.641,1.458,1.459,1.458h3.553C113.877,110.793,114.518,110.152,114.518,109.335z M112.809,102.6v6.485h-3.053V102.6
		H112.809z"/>
	<path fill="#FFFFFF" d="M123.521,109.938v-3.045c0-0.535-0.32-0.854-0.855-0.854c-0.535,0-0.854,0.319-0.854,0.854v2.191h-0.672
		v-8.194h-3.236c-0.519,0-0.854,0.336-0.854,0.854c0,0.519,0.335,0.854,0.854,0.854h1.527v6.485h-1.527
		c-0.519,0-0.854,0.335-0.854,0.854c0,0.519,0.335,0.854,0.854,0.854h4.762C123.185,110.793,123.521,110.457,123.521,109.938z"/>
	<path fill="#FFFFFF" d="M131.67,106.039c-0.535,0-0.854,0.319-0.854,0.854v2.191h-0.672v-8.194h-3.236
		c-0.519,0-0.854,0.336-0.854,0.854c0,0.519,0.335,0.854,0.854,0.854h1.527v6.485h-1.527c-0.519,0-0.854,0.335-0.854,0.854
		c0,0.519,0.335,0.854,0.854,0.854h4.762c0.52,0,0.855-0.336,0.855-0.854v-3.045C132.525,106.358,132.205,106.039,131.67,106.039z"
		/>
	<path fill="#FFFFFF" d="M91.516,119.498c-0.535,0-0.855,0.319-0.855,0.854v2.191h-0.672v-8.194h-3.234
		c-0.52,0-0.855,0.336-0.855,0.854s0.336,0.854,0.855,0.854h1.525v6.485h-1.525c-0.52,0-0.855,0.335-0.855,0.854
		c0,0.519,0.336,0.854,0.855,0.854h4.762c0.519,0,0.854-0.336,0.854-0.854v-3.045C92.369,119.817,92.051,119.498,91.516,119.498z"/>
	<path fill="#FFFFFF" d="M99.914,114.35h-3.553c-0.805,0-1.459,0.654-1.459,1.459v6.985c0,0.817,0.641,1.458,1.459,1.458h3.553
		c0.818,0,1.459-0.641,1.459-1.458v-6.985C101.373,115.004,100.719,114.35,99.914,114.35z M99.664,116.059v6.485h-3.053v-6.485
		H99.664z"/>
	<path fill="#FFFFFF" d="M108.918,114.35h-3.553c-0.805,0-1.459,0.654-1.459,1.459v6.985c0,0.817,0.641,1.458,1.459,1.458h3.553
		c0.818,0,1.459-0.641,1.459-1.458v-6.985C110.377,115.004,109.723,114.35,108.918,114.35z M108.668,116.059v6.485h-3.053v-6.485
		H108.668z"/>
	<path fill="#FFFFFF" d="M117.922,114.35h-3.553c-0.805,0-1.459,0.654-1.459,1.459v6.985c0,0.817,0.641,1.458,1.459,1.458h3.553
		c0.818,0,1.459-0.641,1.459-1.458v-6.985C119.381,115.004,118.727,114.35,117.922,114.35z M117.672,116.059v6.485h-3.053v-6.485
		H117.672z"/>
	<path fill="#FFFFFF" d="M127.773,119.498c-0.535,0-0.855,0.319-0.855,0.854v2.191h-0.672v-8.194h-3.234
		c-0.52,0-0.855,0.336-0.855,0.854s0.336,0.854,0.855,0.854h1.525v6.485h-1.525c-0.52,0-0.855,0.335-0.855,0.854
		c0,0.519,0.336,0.854,0.855,0.854h4.762c0.519,0,0.854-0.336,0.854-0.854v-3.045C128.627,119.817,128.309,119.498,127.773,119.498z
		"/>
</g>
</svg>
