<?xml version="1.0" encoding="utf-8"?>
<!-- Generator: Adobe Illustrator 19.0.0, SVG Export Plug-In . SVG Version: 6.00 Build 0)  -->
<!DOCTYPE svg PUBLIC "-//W3C//DTD SVG 1.0//EN" "http://www.w3.org/TR/2001/REC-SVG-20010904/DTD/svg10.dtd">
<svg version="1.0" xmlns="http://www.w3.org/2000/svg" xmlns:xlink="http://www.w3.org/1999/xlink" x="0px" y="0px"
	 viewBox="0 0 144 144" enable-background="new 0 0 144 144" xml:space="preserve">
<g id="template" display="none">
	<circle display="inline" fill="none" stroke="#FFFFFF" stroke-width="0.25" stroke-miterlimit="10" cx="72" cy="72" r="36"/>
	<g display="inline">
		
			<circle fill="none" stroke="#FFFFFF" stroke-width="0.25" stroke-linecap="round" stroke-miterlimit="10" stroke-dasharray="1.9875,1.9875" cx="72" cy="72" r="40.5"/>
	</g>
	
		<line display="inline" fill="none" stroke="#FFFFFF" stroke-width="0.25" stroke-miterlimit="10" x1="72" y1="18" x2="72" y2="126"/>
	
		<line display="inline" fill="none" stroke="#FFFFFF" stroke-width="0.25" stroke-miterlimit="10" x1="126" y1="72" x2="18" y2="72"/>
	
		<line display="inline" fill="none" stroke="#FFFFFF" stroke-width="0.25" stroke-miterlimit="10" x1="110.2" y1="33.8" x2="33.8" y2="110.2"/>
	
		<line display="inline" fill="none" stroke="#FFFFFF" stroke-width="0.25" stroke-miterlimit="10" x1="110.2" y1="110.2" x2="33.8" y2="33.8"/>
</g>
<g id="icon">
	<g>
		<g>
			<g>
				<ellipse fill="#FFFFFF" cx="54.8" cy="101.8" rx="1" ry="1.1"/>
				<ellipse fill="#FFFFFF" cx="58.5" cy="101.8" rx="1" ry="1.1"/>
				<path fill="#FFFFFF" d="M88.1,105.2h2.3c0.2,0,0.4-0.2,0.4-0.4v-6.2c0-0.2-0.2-0.4-0.4-0.4h-2.3c-0.2,0-0.4,0.2-0.4,0.4v6.2
					C87.7,105,87.9,105.2,88.1,105.2z M88.5,99H90v5.4h-1.5V99z"/>
				<path fill="#FFFFFF" d="M83.6,105.2h2.3c0.2,0,0.4-0.2,0.4-0.4v-6.2c0-0.2-0.2-0.4-0.4-0.4h-2.3c-0.2,0-0.4,0.2-0.4,0.4v6.2
					C83.2,105,83.4,105.2,83.6,105.2z M84,99h1.5v5.4H84V99z"/>
				<path fill="#FFFFFF" d="M71.5,67.4c0,0.2,0.2,0.4,0.4,0.4h0.8c0.2,0,0.4-0.2,0.4-0.4S72.8,67,72.6,67h-0.8
					C71.6,67,71.5,67.1,71.5,67.4z"/>
				<path fill="#FFFFFF" d="M79.4,49.5c0.2,0,0.4-0.2,0.4-0.4v-0.8c0-0.2-0.2-0.4-0.4-0.4c-0.2,0-0.4,0.2-0.4,0.4v0.8
					C79,49.4,79.2,49.5,79.4,49.5z"/>
				<path fill="#FFFFFF" d="M73.3,43h0.8c0.2,0,0.4-0.2,0.4-0.4s-0.2-0.4-0.4-0.4h-0.8c-0.2,0-0.4,0.2-0.4,0.4S73.1,43,73.3,43z"/>
				<path fill="#FFFFFF" d="M66.9,67.4c0,0.2,0.2,0.4,0.4,0.4H68c0.2,0,0.4-0.2,0.4-0.4S68.3,67,68,67h-0.8
					C67.1,67,66.9,67.1,66.9,67.4z"/>
				<path fill="#FFFFFF" d="M68.8,43h0.8c0.2,0,0.4-0.2,0.4-0.4s-0.2-0.4-0.4-0.4h-0.8c-0.2,0-0.4,0.2-0.4,0.4S68.5,43,68.8,43z"/>
				<path fill="#FFFFFF" d="M69.2,67.4c0,0.2,0.2,0.4,0.4,0.4h0.8c0.2,0,0.4-0.2,0.4-0.4S70.5,67,70.3,67h-0.8
					C69.4,67,69.2,67.1,69.2,67.4z"/>
				<path fill="#FFFFFF" d="M71,43h0.8c0.2,0,0.4-0.2,0.4-0.4s-0.2-0.4-0.4-0.4H71c-0.2,0-0.4,0.2-0.4,0.4S70.8,43,71,43z"/>
				<path fill="#FFFFFF" d="M79,51.5c0,0.2,0.2,0.4,0.4,0.4c0.2,0,0.4-0.2,0.4-0.4v-0.8c0-0.2-0.2-0.4-0.4-0.4
					c-0.2,0-0.4,0.2-0.4,0.4V51.5z"/>
				<path fill="#FFFFFF" d="M79.4,47.2c0.2,0,0.4-0.2,0.4-0.4v-0.8c0-0.2-0.2-0.4-0.4-0.4c-0.2,0-0.4,0.2-0.4,0.4v0.8
					C79,47,79.2,47.2,79.4,47.2z"/>
				<path fill="#FFFFFF" d="M79.4,44.9c0.2,0,0.4-0.2,0.4-0.4v-0.8c0-0.2-0.2-0.4-0.4-0.4c-0.2,0-0.4,0.2-0.4,0.4v0.8
					C79,44.7,79.2,44.9,79.4,44.9z"/>
				<path fill="#FFFFFF" d="M79.4,52.7c-0.2,0-0.4,0.2-0.4,0.4v0.8c0,0.2,0.2,0.4,0.4,0.4c0.2,0,0.4-0.2,0.4-0.4V53
					C79.8,52.8,79.6,52.7,79.4,52.7z"/>
				<path fill="#FFFFFF" d="M75.6,43h0.8c0.2,0,0.4-0.2,0.4-0.4s-0.2-0.4-0.4-0.4h-0.8c-0.2,0-0.4,0.2-0.4,0.4S75.4,43,75.6,43z"/>
				<path fill="#FFFFFF" d="M73.7,67.4c0,0.2,0.2,0.4,0.4,0.4h0.8c0.2,0,0.4-0.2,0.4-0.4S75.1,67,74.9,67h-0.8
					C73.9,67,73.7,67.1,73.7,67.4z"/>
				<path fill="#FFFFFF" d="M77.8,43h0.8c0.2,0,0.4-0.2,0.4-0.4s-0.2-0.4-0.4-0.4h-0.8c-0.2,0-0.4,0.2-0.4,0.4S77.6,43,77.8,43z"/>
				<path fill="#FFFFFF" d="M55.1,52.7c0.2,0,0.4-0.2,0.4-0.4v-0.8c0-0.2-0.2-0.4-0.4-0.4s-0.4,0.2-0.4,0.4v0.8
					C54.7,52.5,54.9,52.7,55.1,52.7z"/>
				<path fill="#FFFFFF" d="M57.4,43h0.8c0.2,0,0.4-0.2,0.4-0.4s-0.2-0.4-0.4-0.4h-0.8c-0.2,0-0.4,0.2-0.4,0.4S57.2,43,57.4,43z"/>
				<path fill="#FFFFFF" d="M55.1,64.3c0.2,0,0.4-0.2,0.4-0.4v-0.8c0-0.2-0.2-0.4-0.4-0.4s-0.4,0.2-0.4,0.4v0.8
					C54.7,64.2,54.9,64.3,55.1,64.3z"/>
				<path fill="#FFFFFF" d="M55.6,67.4c0,0.2,0.2,0.4,0.4,0.4h0.8c0.2,0,0.4-0.2,0.4-0.4S56.9,67,56.7,67h-0.8
					C55.7,67,55.6,67.1,55.6,67.4z"/>
				<path fill="#FFFFFF" d="M59.7,43h0.8c0.2,0,0.4-0.2,0.4-0.4s-0.2-0.4-0.4-0.4h-0.8c-0.2,0-0.4,0.2-0.4,0.4S59.5,43,59.7,43z"/>
				<path fill="#FFFFFF" d="M55,43.3c0.1,0,0.1,0.1,0.2,0.1c0.1,0,0.2-0.1,0.3-0.2c0.1-0.1,0.2-0.2,0.3-0.2c0.2,0,0.4-0.2,0.4-0.4
					c0-0.2-0.2-0.4-0.4-0.4c-0.4,0-0.7,0.2-0.9,0.6C54.8,43,54.9,43.2,55,43.3z"/>
				<path fill="#FFFFFF" d="M57.8,67.4c0,0.2,0.2,0.4,0.4,0.4H59c0.2,0,0.4-0.2,0.4-0.4S59.2,67,59,67h-0.8
					C58,67,57.8,67.1,57.8,67.4z"/>
				<path fill="#FFFFFF" d="M55.1,66.7c0.2,0,0.4-0.2,0.4-0.4v-0.8c0-0.2-0.2-0.4-0.4-0.4s-0.4,0.2-0.4,0.4v0.8
					C54.7,66.5,54.9,66.7,55.1,66.7z"/>
				<path fill="#FFFFFF" d="M55.1,48c0.2,0,0.4-0.2,0.4-0.4v-0.8c0-0.2-0.2-0.4-0.4-0.4s-0.4,0.2-0.4,0.4v0.8
					C54.7,47.9,54.9,48,55.1,48z"/>
				<path fill="#FFFFFF" d="M55.1,59.7c0.2,0,0.4-0.2,0.4-0.4v-0.8c0-0.2-0.2-0.4-0.4-0.4s-0.4,0.2-0.4,0.4v0.8
					C54.7,59.5,54.9,59.7,55.1,59.7z"/>
				<path fill="#FFFFFF" d="M55.1,62c0.2,0,0.4-0.2,0.4-0.4v-0.8c0-0.2-0.2-0.4-0.4-0.4s-0.4,0.2-0.4,0.4v0.8
					C54.7,61.8,54.9,62,55.1,62z"/>
				<path fill="#FFFFFF" d="M55.1,57.4c0.2,0,0.4-0.2,0.4-0.4v-0.8c0-0.2-0.2-0.4-0.4-0.4s-0.4,0.2-0.4,0.4V57
					C54.7,57.2,54.9,57.4,55.1,57.4z"/>
				<path fill="#FFFFFF" d="M55.1,55c0.2,0,0.4-0.2,0.4-0.4v-0.8c0-0.2-0.2-0.4-0.4-0.4s-0.4,0.2-0.4,0.4v0.8
					C54.7,54.8,54.9,55,55.1,55z"/>
				<path fill="#FFFFFF" d="M55.1,50.4c0.2,0,0.4-0.2,0.4-0.4v-0.8c0-0.2-0.2-0.4-0.4-0.4s-0.4,0.2-0.4,0.4V50
					C54.7,50.2,54.9,50.4,55.1,50.4z"/>
				<path fill="#FFFFFF" d="M55.1,45.7c0.2,0,0.4-0.2,0.4-0.4v-0.8c0-0.2-0.2-0.4-0.4-0.4s-0.4,0.2-0.4,0.4v0.8
					C54.7,45.5,54.9,45.7,55.1,45.7z"/>
				<path fill="#FFFFFF" d="M64.6,67.4c0,0.2,0.2,0.4,0.4,0.4h0.8c0.2,0,0.4-0.2,0.4-0.4S66,67,65.8,67H65
					C64.8,67,64.6,67.1,64.6,67.4z"/>
				<path fill="#FFFFFF" d="M62.4,67.4c0,0.2,0.2,0.4,0.4,0.4h0.8c0.2,0,0.4-0.2,0.4-0.4S63.7,67,63.5,67h-0.8
					C62.5,67,62.4,67.1,62.4,67.4z"/>
				<path fill="#FFFFFF" d="M64.2,43H65c0.2,0,0.4-0.2,0.4-0.4s-0.2-0.4-0.4-0.4h-0.8c-0.2,0-0.4,0.2-0.4,0.4S64,43,64.2,43z"/>
				<path fill="#FFFFFF" d="M66.5,43h0.8c0.2,0,0.4-0.2,0.4-0.4s-0.2-0.4-0.4-0.4h-0.8c-0.2,0-0.4,0.2-0.4,0.4S66.3,43,66.5,43z"/>
				<path fill="#FFFFFF" d="M60.1,67.4c0,0.2,0.2,0.4,0.4,0.4h0.8c0.2,0,0.4-0.2,0.4-0.4S61.4,67,61.2,67h-0.8
					C60.3,67,60.1,67.1,60.1,67.4z"/>
				<path fill="#FFFFFF" d="M61.9,43h0.8c0.2,0,0.4-0.2,0.4-0.4s-0.2-0.4-0.4-0.4h-0.8c-0.2,0-0.4,0.2-0.4,0.4S61.7,43,61.9,43z"/>
				<path fill="#FFFFFF" d="M83.7,70.3c0,0.2,0.2,0.4,0.4,0.4c0.2,0,0.4-0.2,0.4-0.4v-0.8c0-0.2-0.2-0.4-0.4-0.4
					c-0.2,0-0.4,0.2-0.4,0.4V70.3z"/>
				<path fill="#FFFFFF" d="M84.1,49.7c0.2,0,0.4-0.2,0.4-0.4v-0.8c0-0.2-0.2-0.4-0.4-0.4c-0.2,0-0.4,0.2-0.4,0.4v0.8
					C83.7,49.5,83.9,49.7,84.1,49.7z"/>
				<path fill="#FFFFFF" d="M83.4,72.6c0.4,0,0.7-0.2,0.9-0.5c0.1-0.2,0.1-0.4-0.1-0.5c-0.2-0.1-0.4-0.1-0.5,0.1
					c-0.1,0.1-0.2,0.2-0.3,0.2c-0.2,0-0.4,0.2-0.4,0.4C83,72.4,83.2,72.6,83.4,72.6C83.4,72.6,83.4,72.6,83.4,72.6z"/>
				<path fill="#FFFFFF" d="M63.7,71.8h-0.8c-0.2,0-0.4,0.2-0.4,0.4s0.2,0.4,0.4,0.4h0.8c0.2,0,0.4-0.2,0.4-0.4S63.9,71.8,63.7,71.8
					z"/>
				<path fill="#FFFFFF" d="M59.4,66.4c0,0.2,0.2,0.4,0.4,0.4s0.4-0.2,0.4-0.4v-0.8c0-0.2-0.2-0.4-0.4-0.4s-0.4,0.2-0.4,0.4V66.4z"
					/>
				<path fill="#FFFFFF" d="M61.4,71.8h-0.7c-0.2,0-0.4,0.2-0.4,0.4c0,0.2,0.1,0.3,0.3,0.4l0.9,0c0.2,0,0.4-0.2,0.4-0.4
					S61.6,71.8,61.4,71.8z"/>
				<path fill="#FFFFFF" d="M65.9,72.6c0.2,0,0.4-0.2,0.4-0.4s-0.2-0.4-0.4-0.4h-0.8c-0.2,0-0.4,0.2-0.4,0.4s0.2,0.4,0.4,0.4H65.9z"
					/>
				<path fill="#FFFFFF" d="M83.7,67.9c0,0.2,0.2,0.4,0.4,0.4c0.2,0,0.4-0.2,0.4-0.4v-0.8c0-0.2-0.2-0.4-0.4-0.4
					c-0.2,0-0.4,0.2-0.4,0.4V67.9z"/>
				<path fill="#FFFFFF" d="M84.1,52c0.2,0,0.4-0.2,0.4-0.4v-0.8c0-0.2-0.2-0.4-0.4-0.4c-0.2,0-0.4,0.2-0.4,0.4v0.8
					C83.7,51.9,83.9,52,84.1,52z"/>
				<path fill="#FFFFFF" d="M83.7,58.6c0,0.2,0.2,0.4,0.4,0.4c0.2,0,0.4-0.2,0.4-0.4v-0.8c0-0.2-0.2-0.4-0.4-0.4
					c-0.2,0-0.4,0.2-0.4,0.4V58.6z"/>
				<path fill="#FFFFFF" d="M83.7,65.6c0,0.2,0.2,0.4,0.4,0.4c0.2,0,0.4-0.2,0.4-0.4v-0.8c0-0.2-0.2-0.4-0.4-0.4
					c-0.2,0-0.4,0.2-0.4,0.4V65.6z"/>
				<path fill="#FFFFFF" d="M84.1,54.4c0.2,0,0.4-0.2,0.4-0.4v-0.8c0-0.2-0.2-0.4-0.4-0.4c-0.2,0-0.4,0.2-0.4,0.4V54
					C83.7,54.2,83.9,54.4,84.1,54.4z"/>
				<path fill="#FFFFFF" d="M68.2,72.6c0.2,0,0.4-0.2,0.4-0.4s-0.2-0.4-0.4-0.4h-0.8c-0.2,0-0.4,0.2-0.4,0.4s0.2,0.4,0.4,0.4H68.2z"
					/>
				<path fill="#FFFFFF" d="M83.7,56.3c0,0.2,0.2,0.4,0.4,0.4c0.2,0,0.4-0.2,0.4-0.4v-0.8c0-0.2-0.2-0.4-0.4-0.4
					c-0.2,0-0.4,0.2-0.4,0.4V56.3z"/>
				<path fill="#FFFFFF" d="M70.5,72.6c0.2,0,0.4-0.2,0.4-0.4s-0.2-0.4-0.4-0.4h-0.8c-0.2,0-0.4,0.2-0.4,0.4s0.2,0.4,0.4,0.4H70.5z"
					/>
				<path fill="#FFFFFF" d="M59.4,64.1c0,0.2,0.2,0.4,0.4,0.4s0.4-0.2,0.4-0.4v-0.8c0-0.2-0.2-0.4-0.4-0.4s-0.4,0.2-0.4,0.4V64.1z"
					/>
				<path fill="#FFFFFF" d="M75,72.6c0.2,0,0.4-0.2,0.4-0.4s-0.2-0.4-0.4-0.4h-0.8c-0.2,0-0.4,0.2-0.4,0.4s0.2,0.4,0.4,0.4H75z"/>
				<path fill="#FFFFFF" d="M83.7,63.3c0,0.2,0.2,0.4,0.4,0.4c0.2,0,0.4-0.2,0.4-0.4v-0.8c0-0.2-0.2-0.4-0.4-0.4
					c-0.2,0-0.4,0.2-0.4,0.4V63.3z"/>
				<path fill="#FFFFFF" d="M83.7,61c0,0.2,0.2,0.4,0.4,0.4c0.2,0,0.4-0.2,0.4-0.4v-0.8c0-0.2-0.2-0.4-0.4-0.4
					c-0.2,0-0.4,0.2-0.4,0.4V61z"/>
				<path fill="#FFFFFF" d="M72.7,72.6c0.2,0,0.4-0.2,0.4-0.4s-0.2-0.4-0.4-0.4H72c-0.2,0-0.4,0.2-0.4,0.4s0.2,0.4,0.4,0.4H72.7z"/>
				<path fill="#FFFFFF" d="M78,47.1c-0.2,0-0.4,0.2-0.4,0.4s0.2,0.4,0.4,0.4h0.8c0.2,0,0.4-0.2,0.4-0.4s-0.2-0.4-0.4-0.4H78z"/>
				<path fill="#FFFFFF" d="M75.7,47.1c-0.2,0-0.4,0.2-0.4,0.4s0.2,0.4,0.4,0.4h0.8c0.2,0,0.4-0.2,0.4-0.4s-0.2-0.4-0.4-0.4H75.7z"
					/>
				<path fill="#FFFFFF" d="M59.8,69.9c-0.2,0-0.4,0.2-0.4,0.4v0.8c0,0.2,0.2,0.4,0.4,0.4s0.4-0.2,0.4-0.4v-0.8
					C60.2,70.1,60,69.9,59.8,69.9z"/>
				<path fill="#FFFFFF" d="M59.8,67.6c-0.2,0-0.4,0.2-0.4,0.4v0.8c0,0.2,0.2,0.4,0.4,0.4s0.4-0.2,0.4-0.4V68
					C60.2,67.8,60,67.6,59.8,67.6z"/>
				<path fill="#FFFFFF" d="M59.4,52.5c0,0.2,0.2,0.4,0.4,0.4s0.4-0.2,0.4-0.4v-0.8c0-0.2-0.2-0.4-0.4-0.4s-0.4,0.2-0.4,0.4V52.5z"
					/>
				<path fill="#FFFFFF" d="M73.5,47.1c-0.2,0-0.4,0.2-0.4,0.4s0.2,0.4,0.4,0.4h0.8c0.2,0,0.4-0.2,0.4-0.4s-0.2-0.4-0.4-0.4H73.5z"
					/>
				<path fill="#FFFFFF" d="M66.6,47.1c-0.2,0-0.4,0.2-0.4,0.4s0.2,0.4,0.4,0.4h0.8c0.2,0,0.4-0.2,0.4-0.4s-0.2-0.4-0.4-0.4H66.6z"
					/>
				<path fill="#FFFFFF" d="M62.1,47.1c-0.2,0-0.4,0.2-0.4,0.4s0.2,0.4,0.4,0.4h0.8c0.2,0,0.4-0.2,0.4-0.4s-0.2-0.4-0.4-0.4H62.1z"
					/>
				<path fill="#FFFFFF" d="M64.4,47.1c-0.2,0-0.4,0.2-0.4,0.4s0.2,0.4,0.4,0.4h0.8c0.2,0,0.4-0.2,0.4-0.4s-0.2-0.4-0.4-0.4H64.4z"
					/>
				<path fill="#FFFFFF" d="M59.6,47.6c-0.1,0.2-0.1,0.4,0.1,0.5c0.1,0,0.1,0.1,0.2,0.1c0.1,0,0.2-0.1,0.3-0.2
					c0.1-0.1,0.2-0.2,0.3-0.2c0.2,0,0.4-0.2,0.4-0.4c0-0.2-0.2-0.4-0.4-0.4C60.2,47.1,59.8,47.3,59.6,47.6z"/>
				<path fill="#FFFFFF" d="M80.3,47.8H81c0.2,0,0.4-0.2,0.4-0.4s-0.2-0.4-0.4-0.4h-0.8c-0.2,0-0.4,0.2-0.4,0.4S80.1,47.8,80.3,47.8
					z"/>
				<path fill="#FFFFFF" d="M71.2,47.1c-0.2,0-0.4,0.2-0.4,0.4s0.2,0.4,0.4,0.4h0.8c0.2,0,0.4-0.2,0.4-0.4s-0.2-0.4-0.4-0.4H71.2z"
					/>
				<path fill="#FFFFFF" d="M82.5,47.8h0.8c0.2,0,0.4-0.2,0.4-0.4s-0.2-0.4-0.4-0.4h-0.8c-0.2,0-0.4,0.2-0.4,0.4
					S82.3,47.8,82.5,47.8z"/>
				<path fill="#FFFFFF" d="M68.9,47.1c-0.2,0-0.4,0.2-0.4,0.4s0.2,0.4,0.4,0.4h0.8c0.2,0,0.4-0.2,0.4-0.4s-0.2-0.4-0.4-0.4H68.9z"
					/>
				<path fill="#FFFFFF" d="M59.4,57.1c0,0.2,0.2,0.4,0.4,0.4s0.4-0.2,0.4-0.4v-0.8c0-0.2-0.2-0.4-0.4-0.4s-0.4,0.2-0.4,0.4V57.1z"
					/>
				<path fill="#FFFFFF" d="M59.8,50.5c0.2,0,0.4-0.2,0.4-0.4v-0.8c0-0.2-0.2-0.4-0.4-0.4s-0.4,0.2-0.4,0.4v0.8
					C59.4,50.4,59.6,50.5,59.8,50.5z"/>
				<path fill="#FFFFFF" d="M59.4,59.5c0,0.2,0.2,0.4,0.4,0.4s0.4-0.2,0.4-0.4v-0.8c0-0.2-0.2-0.4-0.4-0.4s-0.4,0.2-0.4,0.4V59.5z"
					/>
				<path fill="#FFFFFF" d="M59.4,54.8c0,0.2,0.2,0.4,0.4,0.4s0.4-0.2,0.4-0.4V54c0-0.2-0.2-0.4-0.4-0.4s-0.4,0.2-0.4,0.4V54.8z"/>
				<path fill="#FFFFFF" d="M59.4,61.8c0,0.2,0.2,0.4,0.4,0.4s0.4-0.2,0.4-0.4V61c0-0.2-0.2-0.4-0.4-0.4s-0.4,0.2-0.4,0.4V61.8z"/>
				<path fill="#FFFFFF" d="M64.5,74.8c-0.2,0-0.4,0.2-0.4,0.4v0.8c0,0.2,0.2,0.4,0.4,0.4s0.4-0.2,0.4-0.4v-0.8
					C64.9,74.9,64.7,74.8,64.5,74.8z"/>
				<path fill="#FFFFFF" d="M68.4,76.6h-0.8c-0.2,0-0.4,0.2-0.4,0.4s0.2,0.4,0.4,0.4h0.8c0.2,0,0.4-0.2,0.4-0.4S68.6,76.6,68.4,76.6
					z"/>
				<path fill="#FFFFFF" d="M64.5,72.4c-0.2,0-0.4,0.2-0.4,0.4v0.8c0,0.2,0.2,0.4,0.4,0.4s0.4-0.2,0.4-0.4v-0.8
					C64.9,72.6,64.7,72.4,64.5,72.4z"/>
				<path fill="#FFFFFF" d="M64.1,68.9c0,0.2,0.2,0.4,0.4,0.4s0.4-0.2,0.4-0.4v-0.8c0-0.2-0.2-0.4-0.4-0.4s-0.4,0.2-0.4,0.4V68.9z"
					/>
				<path fill="#FFFFFF" d="M70.6,76.6h-0.8c-0.2,0-0.4,0.2-0.4,0.4s0.2,0.4,0.4,0.4h0.8c0.2,0,0.4-0.2,0.4-0.4S70.8,76.6,70.6,76.6
					z"/>
				<path fill="#FFFFFF" d="M64.1,66.6c0,0.2,0.2,0.4,0.4,0.4s0.4-0.2,0.4-0.4v-0.8c0-0.2-0.2-0.4-0.4-0.4s-0.4,0.2-0.4,0.4V66.6z"
					/>
				<path fill="#FFFFFF" d="M66.1,76.6h-0.8c-0.2,0-0.4,0.2-0.4,0.4s0.2,0.4,0.4,0.4h0.8c0.2,0,0.4-0.2,0.4-0.4S66.3,76.6,66.1,76.6
					z"/>
				<path fill="#FFFFFF" d="M64.1,71.3c0,0.2,0.2,0.4,0.4,0.4s0.4-0.2,0.4-0.4v-0.8c0-0.2-0.2-0.4-0.4-0.4s-0.4,0.2-0.4,0.4V71.3z"
					/>
				<path fill="#FFFFFF" d="M64.1,64.3c0,0.2,0.2,0.4,0.4,0.4s0.4-0.2,0.4-0.4v-0.8c0-0.2-0.2-0.4-0.4-0.4s-0.4,0.2-0.4,0.4V64.3z"
					/>
				<path fill="#FFFFFF" d="M64.1,57.3c0,0.2,0.2,0.4,0.4,0.4s0.4-0.2,0.4-0.4v-0.8c0-0.2-0.2-0.4-0.4-0.4s-0.4,0.2-0.4,0.4V57.3z"
					/>
				<path fill="#FFFFFF" d="M64.5,55.3c0.2,0,0.4-0.2,0.4-0.4v-0.8c0-0.2-0.2-0.4-0.4-0.4s-0.4,0.2-0.4,0.4V55
					C64.1,55.2,64.3,55.3,64.5,55.3z"/>
				<path fill="#FFFFFF" d="M64.1,61.9c0,0.2,0.2,0.4,0.4,0.4s0.4-0.2,0.4-0.4v-0.8c0-0.2-0.2-0.4-0.4-0.4s-0.4,0.2-0.4,0.4V61.9z"
					/>
				<path fill="#FFFFFF" d="M64.1,59.6c0,0.2,0.2,0.4,0.4,0.4s0.4-0.2,0.4-0.4v-0.8c0-0.2-0.2-0.4-0.4-0.4s-0.4,0.2-0.4,0.4V59.6z"
					/>
				<path fill="#FFFFFF" d="M69.1,51.9c-0.2,0-0.4,0.2-0.4,0.4s0.2,0.4,0.4,0.4h0.8c0.2,0,0.4-0.2,0.4-0.4s-0.2-0.4-0.4-0.4H69.1z"
					/>
				<path fill="#FFFFFF" d="M83.5,76.6c-0.2,0-0.4,0.2-0.4,0.4s0.2,0.4,0.4,0.4h0.8c0.2,0,0.4-0.2,0.4-0.4s-0.2-0.4-0.4-0.4H83.5z"
					/>
				<path fill="#FFFFFF" d="M82.7,51.9c-0.2,0-0.4,0.2-0.4,0.4s0.2,0.4,0.4,0.4h0.8c0.2,0,0.4-0.2,0.4-0.4s-0.2-0.4-0.4-0.4H82.7z"
					/>
				<path fill="#FFFFFF" d="M85,52.7h0.8c0.2,0,0.4-0.2,0.4-0.4s-0.2-0.4-0.4-0.4H85c-0.2,0-0.4,0.2-0.4,0.4S84.8,52.7,85,52.7z"/>
				<path fill="#FFFFFF" d="M88.8,73.2c0.2,0,0.4-0.2,0.4-0.4V72c0-0.2-0.2-0.4-0.4-0.4s-0.4,0.2-0.4,0.4v0.8
					C88.4,73,88.6,73.2,88.8,73.2z"/>
				<path fill="#FFFFFF" d="M85.4,77c0,0.2,0.2,0.4,0.4,0.4h0.8c0.2,0,0.4-0.2,0.4-0.4s-0.2-0.4-0.4-0.4h-0.8
					C85.6,76.6,85.4,76.8,85.4,77z"/>
				<path fill="#FFFFFF" d="M88.8,75.5c0.2,0,0.4-0.2,0.4-0.4v-0.8c0-0.2-0.2-0.4-0.4-0.4s-0.4,0.2-0.4,0.4v0.8
					C88.4,75.3,88.6,75.5,88.8,75.5z"/>
				<path fill="#FFFFFF" d="M87.2,52.7H88c0.2,0,0.4-0.2,0.4-0.4s-0.2-0.4-0.4-0.4h-0.8c-0.2,0-0.4,0.2-0.4,0.4S87,52.7,87.2,52.7z"
					/>
				<path fill="#FFFFFF" d="M80.4,51.9c-0.2,0-0.4,0.2-0.4,0.4s0.2,0.4,0.4,0.4h0.8c0.2,0,0.4-0.2,0.4-0.4s-0.2-0.4-0.4-0.4H80.4z"
					/>
				<path fill="#FFFFFF" d="M66.8,51.9c-0.2,0-0.4,0.2-0.4,0.4s0.2,0.4,0.4,0.4h0.8c0.2,0,0.4-0.2,0.4-0.4s-0.2-0.4-0.4-0.4H66.8z"
					/>
				<path fill="#FFFFFF" d="M78.2,51.9c-0.2,0-0.4,0.2-0.4,0.4s0.2,0.4,0.4,0.4h0.8c0.2,0,0.4-0.2,0.4-0.4s-0.2-0.4-0.4-0.4H78.2z"
					/>
				<path fill="#FFFFFF" d="M64.3,52.4c-0.1,0.2-0.1,0.4,0.1,0.5c0.1,0,0.1,0.1,0.2,0.1c0.1,0,0.2-0.1,0.3-0.2
					c0.1-0.1,0.2-0.2,0.3-0.2c0.2,0,0.4-0.2,0.4-0.4c0-0.2-0.2-0.4-0.4-0.4C64.9,51.9,64.5,52.1,64.3,52.4z"/>
				<path fill="#FFFFFF" d="M71.3,51.9c-0.2,0-0.4,0.2-0.4,0.4s0.2,0.4,0.4,0.4h0.8c0.2,0,0.4-0.2,0.4-0.4s-0.2-0.4-0.4-0.4H71.3z"
					/>
				<path fill="#FFFFFF" d="M73.6,51.9c-0.2,0-0.4,0.2-0.4,0.4s0.2,0.4,0.4,0.4h0.8c0.2,0,0.4-0.2,0.4-0.4s-0.2-0.4-0.4-0.4H73.6z"
					/>
				<path fill="#FFFFFF" d="M75.9,51.9c-0.2,0-0.4,0.2-0.4,0.4s0.2,0.4,0.4,0.4h0.8c0.2,0,0.4-0.2,0.4-0.4s-0.2-0.4-0.4-0.4H75.9z"
					/>
				<path fill="#FFFFFF" d="M75.2,76.6h-0.8c-0.2,0-0.4,0.2-0.4,0.4s0.2,0.4,0.4,0.4h0.8c0.2,0,0.4-0.2,0.4-0.4S75.4,76.6,75.2,76.6
					z"/>
				<path fill="#FFFFFF" d="M82,76.6h-0.8c-0.2,0-0.4,0.2-0.4,0.4s0.2,0.4,0.4,0.4H82c0.2,0,0.4-0.2,0.4-0.4S82.2,76.6,82,76.6z"/>
				<path fill="#FFFFFF" d="M88.4,76.4c-0.1,0.1-0.2,0.2-0.3,0.2c-0.2,0-0.4,0.2-0.4,0.4c0,0.2,0.2,0.4,0.4,0.4c0,0,0,0,0,0
					c0.4,0,0.7-0.2,0.9-0.5c0.1-0.2,0.1-0.4-0.1-0.5C88.7,76.2,88.5,76.2,88.4,76.4z"/>
				<path fill="#FFFFFF" d="M88.8,54.5c0.2,0,0.4-0.2,0.4-0.4v-0.8c0-0.2-0.2-0.4-0.4-0.4s-0.4,0.2-0.4,0.4v0.8
					C88.4,54.4,88.6,54.5,88.8,54.5z"/>
				<path fill="#FFFFFF" d="M72.9,76.6h-0.8c-0.2,0-0.4,0.2-0.4,0.4s0.2,0.4,0.4,0.4h0.8c0.2,0,0.4-0.2,0.4-0.4S73.1,76.6,72.9,76.6
					z"/>
				<path fill="#FFFFFF" d="M88.8,70.8c0.2,0,0.4-0.2,0.4-0.4v-0.8c0-0.2-0.2-0.4-0.4-0.4s-0.4,0.2-0.4,0.4v0.8
					C88.4,70.7,88.6,70.8,88.8,70.8z"/>
				<path fill="#FFFFFF" d="M77.4,76.6h-0.8c-0.2,0-0.4,0.2-0.4,0.4s0.2,0.4,0.4,0.4h0.8c0.2,0,0.4-0.2,0.4-0.4S77.7,76.6,77.4,76.6
					z"/>
				<path fill="#FFFFFF" d="M79.7,76.6H79c-0.2,0-0.4,0.2-0.4,0.4s0.2,0.4,0.4,0.4h0.8c0.2,0,0.4-0.2,0.4-0.4S79.9,76.6,79.7,76.6z"
					/>
				<path fill="#FFFFFF" d="M88.8,56.9c0.2,0,0.4-0.2,0.4-0.4v-0.8c0-0.2-0.2-0.4-0.4-0.4s-0.4,0.2-0.4,0.4v0.8
					C88.4,56.7,88.6,56.9,88.8,56.9z"/>
				<path fill="#FFFFFF" d="M88.8,61.5c0.2,0,0.4-0.2,0.4-0.4v-0.8c0-0.2-0.2-0.4-0.4-0.4s-0.4,0.2-0.4,0.4v0.8
					C88.4,61.3,88.6,61.5,88.8,61.5z"/>
				<path fill="#FFFFFF" d="M88.8,59.2c0.2,0,0.4-0.2,0.4-0.4V58c0-0.2-0.2-0.4-0.4-0.4s-0.4,0.2-0.4,0.4v0.8
					C88.4,59,88.6,59.2,88.8,59.2z"/>
				<path fill="#FFFFFF" d="M88.8,63.8c0.2,0,0.4-0.2,0.4-0.4v-0.8c0-0.2-0.2-0.4-0.4-0.4s-0.4,0.2-0.4,0.4v0.8
					C88.4,63.7,88.6,63.8,88.8,63.8z"/>
				<path fill="#FFFFFF" d="M88.8,68.5c0.2,0,0.4-0.2,0.4-0.4v-0.8c0-0.2-0.2-0.4-0.4-0.4s-0.4,0.2-0.4,0.4v0.8
					C88.4,68.3,88.6,68.5,88.8,68.5z"/>
				<path fill="#FFFFFF" d="M88.8,66.2c0.2,0,0.4-0.2,0.4-0.4V65c0-0.2-0.2-0.4-0.4-0.4s-0.4,0.2-0.4,0.4v0.8
					C88.4,66,88.6,66.2,88.8,66.2z"/>
				<path fill="#FFFFFF" d="M79.8,55.4L79.8,55.4c0-0.3-0.2-0.4-0.4-0.4c-0.1,0-0.1,0-0.1,0c0,0,0,0-0.1,0c-0.1,0-0.1,0-0.2,0
					c-0.4,0.1-0.6,0.4-0.6,0.7l0,10.6l-1.5,0l0.3,0.6c0,0-0.1,0-0.1,0h-0.8c-0.2,0-0.4,0.2-0.4,0.4s0.2,0.4,0.4,0.4h0.8
					c0.2,0,0.3-0.1,0.4-0.3l1.7,2.9l2.3-4l-1.5,0l0-10.6C79.9,55.7,79.9,55.5,79.8,55.4z"/>
				<path fill="#FFFFFF" d="M76.8,71.4c-0.2,0-0.4,0.1-0.5,0.2c-0.1,0.1-0.1,0.2-0.2,0.3c-0.1,0.1-0.1,0.2-0.1,0.3s0.1,0.2,0.1,0.3
					c0.1,0.3,0.4,0.5,0.7,0.5l4.7,0c0.4,0,0.8-0.3,0.8-0.8c0-0.4-0.3-0.8-0.8-0.8L76.8,71.4z"/>
				<path fill="#FFFFFF" d="M49.5,95.2v0.2v12.8c0,0.4,0.3,0.8,0.8,0.8h43.3c0.4,0,0.8-0.3,0.8-0.8V95.4l0-1.6v-11
					c0-0.2,0-44.6,0-44.6c0-0.9-0.5-1.7-1.3-2.1l-6.5-3H58.4l-7.5,3c-0.8,0.3-1.4,1.1-1.4,2.1c0,0,0,44.4,0,44.6v11L49.5,95.2z
					 M58.6,34.7h27.6l6,2.8H51.8L58.6,34.7z M51,39h41.8v41.6c-0.2-0.1-0.5-0.1-0.7-0.1H51.7c-0.2,0-0.5,0.1-0.7,0.1V39z M51,82.8
					c0-0.4,0.3-0.8,0.7-0.8h40.4c0.4,0,0.7,0.4,0.7,0.8v10.8v0.2c0,0.4-0.3,0.8-0.7,0.8H51.7c-0.4,0-0.7-0.4-0.7-0.8v-0.2V82.8z
					 M92.8,107.4H51V96.2h41.8V107.4z"/>
			</g>
		</g>
		<g>
			<path fill="#FFFFFF" d="M72.9,110.3h-1.5c-0.3,0-0.6,0.3-0.6,0.6c0,0.3,0.3,0.6,0.6,0.6h1.5c0.3,0,0.6-0.3,0.6-0.6
				C73.5,110.5,73.3,110.3,72.9,110.3z"/>
			<path fill="#FFFFFF" d="M76.7,110.3h-1.5c-0.3,0-0.6,0.3-0.6,0.6c0,0.3,0.3,0.6,0.6,0.6h1.5c0.3,0,0.6-0.3,0.6-0.6
				C77.3,110.5,77,110.3,76.7,110.3z"/>
			<path fill="#FFFFFF" d="M47.6,35.9c-0.3-0.2-0.6-0.1-0.8,0.2c-0.3,0.5-0.5,1.1-0.6,1.7c0,0.3,0.2,0.6,0.5,0.6c0,0,0,0,0.1,0
				c0.3,0,0.5-0.2,0.6-0.5c0-0.4,0.2-0.8,0.4-1.2C48,36.4,47.9,36.1,47.6,35.9z"/>
			<path fill="#FFFFFF" d="M61.6,110.3h-1.5c-0.3,0-0.6,0.3-0.6,0.6c0,0.3,0.3,0.6,0.6,0.6h1.5c0.3,0,0.6-0.3,0.6-0.6
				C62.2,110.5,61.9,110.3,61.6,110.3z"/>
			<path fill="#FFFFFF" d="M54.1,110.3h-1.5c-0.3,0-0.6,0.3-0.6,0.6c0,0.3,0.3,0.6,0.6,0.6h1.5c0.3,0,0.6-0.3,0.6-0.6
				C54.6,110.5,54.4,110.3,54.1,110.3z"/>
			<path fill="#FFFFFF" d="M50.2,110.3c-0.4,0-0.8-0.1-1.2-0.3c-0.3-0.1-0.6,0-0.8,0.3c-0.1,0.3,0,0.6,0.3,0.8
				c0.5,0.3,1.1,0.4,1.7,0.4h0c0.3,0,0.5-0.3,0.5-0.6C50.8,110.5,50.6,110.3,50.2,110.3z"/>
			<path fill="#FFFFFF" d="M80.5,110.3H79c-0.3,0-0.6,0.3-0.6,0.6c0,0.3,0.3,0.6,0.6,0.6h1.5c0.3,0,0.6-0.3,0.6-0.6
				C81.1,110.5,80.8,110.3,80.5,110.3z"/>
			<path fill="#FFFFFF" d="M57.8,110.3h-1.5c-0.3,0-0.6,0.3-0.6,0.6c0,0.3,0.3,0.6,0.6,0.6h1.5c0.3,0,0.6-0.3,0.6-0.6
				C58.4,110.5,58.1,110.3,57.8,110.3z"/>
			<path fill="#FFFFFF" d="M65.4,110.3h-1.5c-0.3,0-0.6,0.3-0.6,0.6c0,0.3,0.3,0.6,0.6,0.6h1.5c0.3,0,0.6-0.3,0.6-0.6
				C66,110.5,65.7,110.3,65.4,110.3z"/>
			<path fill="#FFFFFF" d="M97,106.3c-0.3,0-0.6,0.3-0.6,0.6v0.4c0,0.3-0.1,0.7-0.2,1c-0.1,0.3,0.1,0.6,0.3,0.7c0.1,0,0.1,0,0.2,0
				c0.2,0,0.5-0.2,0.5-0.4c0.1-0.4,0.2-0.9,0.2-1.4v-0.4C97.6,106.6,97.4,106.3,97,106.3z"/>
			<path fill="#FFFFFF" d="M84.3,110.3h-1.5c-0.3,0-0.6,0.3-0.6,0.6c0,0.3,0.3,0.6,0.6,0.6h1.5c0.3,0,0.6-0.3,0.6-0.6
				C84.8,110.5,84.6,110.3,84.3,110.3z"/>
			<path fill="#FFFFFF" d="M97,98.6c-0.3,0-0.6,0.3-0.6,0.6v1.5c0,0.3,0.3,0.6,0.6,0.6c0.3,0,0.6-0.3,0.6-0.6v-1.5
				C97.6,98.9,97.4,98.6,97,98.6z"/>
			<path fill="#FFFFFF" d="M97,94.7c-0.3,0-0.6,0.3-0.6,0.6v1.5c0,0.3,0.3,0.6,0.6,0.6c0.3,0,0.6-0.3,0.6-0.6v-1.5
				C97.6,95,97.4,94.7,97,94.7z"/>
			<path fill="#FFFFFF" d="M97,102.5c-0.3,0-0.6,0.3-0.6,0.6v1.5c0,0.3,0.3,0.6,0.6,0.6c0.3,0,0.6-0.3,0.6-0.6v-1.5
				C97.6,102.7,97.4,102.5,97,102.5z"/>
			<path fill="#FFFFFF" d="M88,110.3h-1.5c-0.3,0-0.6,0.3-0.6,0.6c0,0.3,0.3,0.6,0.6,0.6H88c0.3,0,0.6-0.3,0.6-0.6
				C88.6,110.5,88.4,110.3,88,110.3z"/>
			<path fill="#FFFFFF" d="M91.8,110.3h-1.5c-0.3,0-0.6,0.3-0.6,0.6c0,0.3,0.3,0.6,0.6,0.6h1.5c0.3,0,0.6-0.3,0.6-0.6
				C92.4,110.5,92.1,110.3,91.8,110.3z"/>
			<path fill="#FFFFFF" d="M95.2,109.8c-0.4,0.2-0.8,0.4-1.2,0.5c-0.3,0-0.5,0.3-0.5,0.7c0,0.3,0.3,0.5,0.6,0.5c0,0,0.1,0,0.1,0
				c0.6-0.1,1.1-0.3,1.6-0.6c0.3-0.2,0.3-0.5,0.2-0.8C95.8,109.7,95.4,109.6,95.2,109.8z"/>
			<path fill="#FFFFFF" d="M69.2,110.3h-1.5c-0.3,0-0.6,0.3-0.6,0.6c0,0.3,0.3,0.6,0.6,0.6h1.5c0.3,0,0.6-0.3,0.6-0.6
				C69.7,110.5,69.5,110.3,69.2,110.3z"/>
			<path fill="#FFFFFF" d="M74.7,31.8h1.5c0.3,0,0.6-0.3,0.6-0.6c0-0.3-0.3-0.6-0.6-0.6h-1.5c-0.3,0-0.6,0.3-0.6,0.6
				C74.2,31.6,74.4,31.8,74.7,31.8z"/>
			<path fill="#FFFFFF" d="M82.3,31.8h1.5c0.3,0,0.6-0.3,0.6-0.6c0-0.3-0.3-0.6-0.6-0.6h-1.5c-0.3,0-0.6,0.3-0.6,0.6
				C81.7,31.6,82,31.8,82.3,31.8z"/>
			<path fill="#FFFFFF" d="M67.2,31.8h1.5c0.3,0,0.6-0.3,0.6-0.6c0-0.3-0.3-0.6-0.6-0.6h-1.5c-0.3,0-0.6,0.3-0.6,0.6
				C66.6,31.6,66.9,31.8,67.2,31.8z"/>
			<path fill="#FFFFFF" d="M71,31.8h1.5c0.3,0,0.6-0.3,0.6-0.6c0-0.3-0.3-0.6-0.6-0.6H71c-0.3,0-0.6,0.3-0.6,0.6
				C70.4,31.6,70.6,31.8,71,31.8z"/>
			<path fill="#FFFFFF" d="M78.5,31.8H80c0.3,0,0.6-0.3,0.6-0.6c0-0.3-0.3-0.6-0.6-0.6h-1.5c-0.3,0-0.6,0.3-0.6,0.6
				C77.9,31.6,78.2,31.8,78.5,31.8z"/>
			<path fill="#FFFFFF" d="M92.8,34.5l1.4,0.7c0.1,0,0.2,0.1,0.2,0.1c0.2,0,0.4-0.1,0.5-0.3c0.1-0.3,0-0.6-0.3-0.8l-1.4-0.7
				c-0.3-0.1-0.6,0-0.8,0.3C92.4,34.1,92.5,34.4,92.8,34.5z"/>
			<path fill="#FFFFFF" d="M86.1,31.8h0.6c0.3,0,0.5,0,0.8,0.1c0,0,0.1,0,0.1,0c0.2,0,0.5-0.2,0.5-0.4c0.1-0.3-0.1-0.6-0.4-0.7
				c-0.3-0.1-0.7-0.1-1-0.1h-0.6c-0.3,0-0.6,0.3-0.6,0.6C85.5,31.6,85.7,31.8,86.1,31.8z"/>
			<path fill="#FFFFFF" d="M96.4,37.5c0.1,0.3,0.3,0.4,0.5,0.4c0,0,0.1,0,0.1,0c0.3-0.1,0.5-0.4,0.4-0.7c-0.1-0.6-0.4-1.1-0.8-1.6
				c-0.2-0.2-0.6-0.3-0.8-0.1c-0.2,0.2-0.3,0.6-0.1,0.8C96.1,36.7,96.3,37.1,96.4,37.5z"/>
			<path fill="#FFFFFF" d="M89.4,32.8l1.4,0.7c0.1,0,0.2,0.1,0.2,0.1c0.2,0,0.4-0.1,0.5-0.3c0.1-0.3,0-0.6-0.3-0.8l-1.4-0.7
				c-0.3-0.1-0.6,0-0.8,0.3C89,32.4,89.1,32.7,89.4,32.8z"/>
			<path fill="#FFFFFF" d="M46.8,101.8c0.3,0,0.6-0.3,0.6-0.6v-1.5c0-0.3-0.3-0.6-0.6-0.6c-0.3,0-0.6,0.3-0.6,0.6v1.5
				C46.2,101.6,46.5,101.8,46.8,101.8z"/>
			<path fill="#FFFFFF" d="M49,35.5c0.1,0,0.1,0,0.2,0l1.4-0.6c0.3-0.1,0.4-0.5,0.3-0.8c-0.1-0.3-0.5-0.4-0.7-0.3l-1.4,0.6
				c-0.3,0.1-0.4,0.5-0.3,0.8C48.6,35.4,48.8,35.5,49,35.5z"/>
			<path fill="#FFFFFF" d="M46.8,98c0.3,0,0.6-0.3,0.6-0.6v-1.5c0-0.3-0.3-0.6-0.6-0.6c-0.3,0-0.6,0.3-0.6,0.6v1.5
				C46.2,97.7,46.5,98,46.8,98z"/>
			<path fill="#FFFFFF" d="M47.4,107.4c0-0.3-0.3-0.6-0.6-0.6c-0.3,0-0.6,0.3-0.5,0.6c0,0.6,0.2,1.2,0.5,1.7
				c0.1,0.2,0.3,0.3,0.5,0.3c0.1,0,0.2,0,0.3-0.1c0.3-0.1,0.4-0.5,0.2-0.8C47.5,108.3,47.4,107.9,47.4,107.4z"/>
			<path fill="#FFFFFF" d="M46.8,105.7c0.3,0,0.6-0.3,0.6-0.6v-1.5c0-0.3-0.3-0.6-0.6-0.6c-0.3,0-0.6,0.3-0.6,0.6v1.5
				C46.2,105.4,46.5,105.7,46.8,105.7z"/>
			<path fill="#FFFFFF" d="M97,87.1c-0.3,0-0.6,0.3-0.6,0.6v1.5c0,0.3,0.3,0.6,0.6,0.6c0.3,0,0.6-0.3,0.6-0.6v-1.5
				C97.6,87.3,97.4,87.1,97,87.1z"/>
			<path fill="#FFFFFF" d="M97,83.2c-0.3,0-0.6,0.3-0.6,0.6v1.5c0,0.3,0.3,0.6,0.6,0.6c0.3,0,0.6-0.3,0.6-0.6v-1.5
				C97.6,83.5,97.4,83.2,97,83.2z"/>
			<path fill="#FFFFFF" d="M97,90.9c-0.3,0-0.6,0.3-0.6,0.6v1.5c0,0.3,0.3,0.6,0.6,0.6c0.3,0,0.6-0.3,0.6-0.6v-1.5
				C97.6,91.2,97.4,90.9,97,90.9z"/>
			<path fill="#FFFFFF" d="M46.8,90.3c0.3,0,0.6-0.3,0.6-0.6v-1.5c0-0.3-0.3-0.6-0.6-0.6c-0.3,0-0.6,0.3-0.6,0.6v1.5
				C46.2,90,46.5,90.3,46.8,90.3z"/>
			<path fill="#FFFFFF" d="M46.8,86.4c0.3,0,0.6-0.3,0.6-0.6v-1.5c0-0.3-0.3-0.6-0.6-0.6c-0.3,0-0.6,0.3-0.6,0.6v1.5
				C46.2,86.2,46.5,86.4,46.8,86.4z"/>
			<path fill="#FFFFFF" d="M46.8,94.2c0.3,0,0.6-0.3,0.6-0.6V92c0-0.3-0.3-0.6-0.6-0.6c-0.3,0-0.6,0.3-0.6,0.6v1.5
				C46.2,93.9,46.5,94.2,46.8,94.2z"/>
			<path fill="#FFFFFF" d="M97,75.5c-0.3,0-0.6,0.3-0.6,0.6v1.5c0,0.3,0.3,0.6,0.6,0.6c0.3,0,0.6-0.3,0.6-0.6v-1.5
				C97.6,75.8,97.4,75.5,97,75.5z"/>
			<path fill="#FFFFFF" d="M97,71.7c-0.3,0-0.6,0.3-0.6,0.6v1.5c0,0.3,0.3,0.6,0.6,0.6c0.3,0,0.6-0.3,0.6-0.6v-1.5
				C97.6,71.9,97.4,71.7,97,71.7z"/>
			<path fill="#FFFFFF" d="M97,79.4c-0.3,0-0.6,0.3-0.6,0.6v1.5c0,0.3,0.3,0.6,0.6,0.6c0.3,0,0.6-0.3,0.6-0.6V80
				C97.6,79.7,97.4,79.4,97,79.4z"/>
			<path fill="#FFFFFF" d="M46.8,78.8c0.3,0,0.6-0.3,0.6-0.6v-1.5c0-0.3-0.3-0.6-0.6-0.6c-0.3,0-0.6,0.3-0.6,0.6v1.5
				C46.2,78.5,46.5,78.8,46.8,78.8z"/>
			<path fill="#FFFFFF" d="M46.8,74.9c0.3,0,0.6-0.3,0.6-0.6v-1.5c0-0.3-0.3-0.6-0.6-0.6c-0.3,0-0.6,0.3-0.6,0.6v1.5
				C46.2,74.6,46.5,74.9,46.8,74.9z"/>
			<path fill="#FFFFFF" d="M46.8,82.6c0.3,0,0.6-0.3,0.6-0.6v-1.5c0-0.3-0.3-0.6-0.6-0.6c-0.3,0-0.6,0.3-0.6,0.6v1.5
				C46.2,82.4,46.5,82.6,46.8,82.6z"/>
			<path fill="#FFFFFF" d="M97,64c-0.3,0-0.6,0.3-0.6,0.6v1.5c0,0.3,0.3,0.6,0.6,0.6c0.3,0,0.6-0.3,0.6-0.6v-1.5
				C97.6,64.3,97.4,64,97,64z"/>
			<path fill="#FFFFFF" d="M97,60.2c-0.3,0-0.6,0.3-0.6,0.6v1.5c0,0.3,0.3,0.6,0.6,0.6c0.3,0,0.6-0.3,0.6-0.6v-1.5
				C97.6,60.4,97.4,60.2,97,60.2z"/>
			<path fill="#FFFFFF" d="M97,67.9c-0.3,0-0.6,0.3-0.6,0.6V70c0,0.3,0.3,0.6,0.6,0.6c0.3,0,0.6-0.3,0.6-0.6v-1.5
				C97.6,68.2,97.4,67.9,97,67.9z"/>
			<path fill="#FFFFFF" d="M46.8,67.2c0.3,0,0.6-0.3,0.6-0.6v-1.5c0-0.3-0.3-0.6-0.6-0.6c-0.3,0-0.6,0.3-0.6,0.6v1.5
				C46.2,67,46.5,67.2,46.8,67.2z"/>
			<path fill="#FFFFFF" d="M46.8,63.4c0.3,0,0.6-0.3,0.6-0.6v-1.5c0-0.3-0.3-0.6-0.6-0.6c-0.3,0-0.6,0.3-0.6,0.6v1.5
				C46.2,63.1,46.5,63.4,46.8,63.4z"/>
			<path fill="#FFFFFF" d="M46.8,71.1c0.3,0,0.6-0.3,0.6-0.6V69c0-0.3-0.3-0.6-0.6-0.6c-0.3,0-0.6,0.3-0.6,0.6v1.5
				C46.2,70.9,46.5,71.1,46.8,71.1z"/>
			<path fill="#FFFFFF" d="M97,52.5c-0.3,0-0.6,0.3-0.6,0.6v1.5c0,0.3,0.3,0.6,0.6,0.6c0.3,0,0.6-0.3,0.6-0.6v-1.5
				C97.6,52.8,97.4,52.5,97,52.5z"/>
			<path fill="#FFFFFF" d="M97,48.6c-0.3,0-0.6,0.3-0.6,0.6v1.5c0,0.3,0.3,0.6,0.6,0.6c0.3,0,0.6-0.3,0.6-0.6v-1.5
				C97.6,48.9,97.4,48.6,97,48.6z"/>
			<path fill="#FFFFFF" d="M97,56.4c-0.3,0-0.6,0.3-0.6,0.6v1.5c0,0.3,0.3,0.6,0.6,0.6c0.3,0,0.6-0.3,0.6-0.6v-1.5
				C97.6,56.6,97.4,56.4,97,56.4z"/>
			<path fill="#FFFFFF" d="M46.8,55.7c0.3,0,0.6-0.3,0.6-0.6v-1.5c0-0.3-0.3-0.6-0.6-0.6c-0.3,0-0.6,0.3-0.6,0.6v1.5
				C46.2,55.5,46.5,55.7,46.8,55.7z"/>
			<path fill="#FFFFFF" d="M46.8,51.9c0.3,0,0.6-0.3,0.6-0.6v-1.5c0-0.3-0.3-0.6-0.6-0.6c-0.3,0-0.6,0.3-0.6,0.6v1.5
				C46.2,51.6,46.5,51.9,46.8,51.9z"/>
			<path fill="#FFFFFF" d="M46.8,59.6c0.3,0,0.6-0.3,0.6-0.6v-1.5c0-0.3-0.3-0.6-0.6-0.6c-0.3,0-0.6,0.3-0.6,0.6V59
				C46.2,59.3,46.5,59.6,46.8,59.6z"/>
			<path fill="#FFFFFF" d="M97,41c-0.3,0-0.6,0.3-0.6,0.6v1.5c0,0.3,0.3,0.6,0.6,0.6c0.3,0,0.6-0.3,0.6-0.6v-1.5
				C97.6,41.2,97.4,41,97,41z"/>
			<path fill="#FFFFFF" d="M97,37.1c-0.3,0-0.6,0.3-0.6,0.6v1.5c0,0.3,0.3,0.6,0.6,0.6c0.3,0,0.6-0.3,0.6-0.6v-1.5
				C97.6,37.4,97.4,37.1,97,37.1z"/>
			<path fill="#FFFFFF" d="M97,44.8c-0.3,0-0.6,0.3-0.6,0.6V47c0,0.3,0.3,0.6,0.6,0.6c0.3,0,0.6-0.3,0.6-0.6v-1.5
				C97.6,45.1,97.4,44.8,97,44.8z"/>
			<path fill="#FFFFFF" d="M46.8,44.2c0.3,0,0.6-0.3,0.6-0.6v-1.5c0-0.3-0.3-0.6-0.6-0.6c-0.3,0-0.6,0.3-0.6,0.6v1.5
				C46.2,43.9,46.5,44.2,46.8,44.2z"/>
			<path fill="#FFFFFF" d="M46.8,40.3c0.3,0,0.6-0.3,0.6-0.6v-1.5c0-0.3-0.3-0.6-0.6-0.6c-0.3,0-0.6,0.3-0.6,0.6v1.5
				C46.2,40.1,46.5,40.3,46.8,40.3z"/>
			<path fill="#FFFFFF" d="M46.8,48.1c0.3,0,0.6-0.3,0.6-0.6v-1.5c0-0.3-0.3-0.6-0.6-0.6c-0.3,0-0.6,0.3-0.6,0.6v1.5
				C46.2,47.8,46.5,48.1,46.8,48.1z"/>
			<path fill="#FFFFFF" d="M56,32.5c0.1,0,0.1,0,0.2,0l0.9-0.4c0.1-0.1,0.3-0.1,0.4-0.1c0.3-0.1,0.5-0.4,0.4-0.7
				c-0.1-0.3-0.4-0.5-0.7-0.4c-0.2,0.1-0.4,0.1-0.6,0.2l-0.9,0.4c-0.3,0.1-0.4,0.5-0.3,0.8C55.5,32.4,55.7,32.5,56,32.5z"/>
			<path fill="#FFFFFF" d="M59.6,31.8h1.5c0.3,0,0.6-0.3,0.6-0.6c0-0.3-0.3-0.6-0.6-0.6h-1.5c-0.3,0-0.6,0.3-0.6,0.6
				C59.1,31.6,59.3,31.8,59.6,31.8z"/>
			<path fill="#FFFFFF" d="M63.4,31.8h1.5c0.3,0,0.6-0.3,0.6-0.6c0-0.3-0.3-0.6-0.6-0.6h-1.5c-0.3,0-0.6,0.3-0.6,0.6
				C62.8,31.6,63.1,31.8,63.4,31.8z"/>
			<path fill="#FFFFFF" d="M52.5,34c0.1,0,0.1,0,0.2,0l1.4-0.6c0.3-0.1,0.4-0.5,0.3-0.8c-0.1-0.3-0.5-0.4-0.7-0.3l-1.4,0.6
				C52,33,51.8,33.4,52,33.7C52.1,33.9,52.3,34,52.5,34z"/>
		</g>
	</g>
</g>
</svg>
