<svg id="Layer_1" data-name="Layer 1" xmlns="http://www.w3.org/2000/svg" viewBox="0 0 108 108"><defs><style>.cls-1{fill:#fff;}</style></defs><title>Icon_RH_Software_App-Bmicroservice_RGB_White</title><path class="cls-1" d="M79.34 51c.5-.6 13.1-13.7 8.7-20.8-3.4-5.5-14.6-2-21.2.6a2.39 2.39 0 0 0-1.4-.5h-32.8a2.26 2.26 0 0 0-2.3 2.3v23c-.5.4-11.3 10.9-11.3 18.7a5.74 5.74 0 0 0 4.5 6 15.83 15.83 0 0 0 3.8.5c3.2 0 7.7-.8 14-3.4a2.39 2.39 0 0 0 1.4.5h32.8a2.26 2.26 0 0 0 2.3-2.3V52.66a9 9 0 0 0 1.5-1.66zm-19-10.7v-3.8h10.2a1.22 1.22 0 0 1 1.2 1.2v2.6zm5.1 13.2h9.1a112.11 112.11 0 0 1-9.1 7.7zm-10-22h10a1.22 1.22 0 0 1 1.2 1.2v2.8h-11.2zm0 34.6l.2-.7h4c-1.9 1.3-4 2.6-6.2 3.9v-3.9h.3l-.2.7zm.5-1.4l.6-1.6h5.1l.3.8-1.1.8zm1.1-3.3l1-2.9a6.89 6.89 0 0 0 .3-.8l.3-.9.2-.8c.1-.2.1-.4.2-.5a1.69 1.69 0 0 0 .2.5l.2.8.3.8a2.35 2.35 0 0 1 .2.8l1 2.9H57zm-3.1 3.3h-.5V53.46H58zm-5.4-24.4v-3.8h11.1v3.8zm-5-8.9h11.1v3.9h-11.1zm-12.1 1.2a1.22 1.22 0 0 1 1.2-1.2h10.2v3.9h-5.1a2.26 2.26 0 0 0-2.3 2.3v5.1h-3.9V32.56zm5.1 27.1V48.46h3.8v11.2zm3.8.7v11.2h-2.6a1.2 1.2 0 0 1-1.2-1.1V60.36zm-8.9-16.9h3.9v11.1h-3.9zm0 13.4v-1.5h3.9v11.2h-2.8a1.22 1.22 0 0 1-1.2-1.2zM24 78.66a4.2 4.2 0 0 1-3.3-4.3c0-5.7 6.8-13.4 9.6-16.3v7.4a2.26 2.26 0 0 0 2.3 2.3h2.8v2.8a2.26 2.26 0 0 0 2.3 2.3h2.6v3c-8.66 3.6-13.56 3.6-16.3 2.8zm16.3-36v5.1h-3.8v-10a1.2 1.2 0 0 1 1.1-1.2h10v3.7h-5a2.35 2.35 0 0 0-2.3 2.4zm12.4 34H43c1.2-.5 2.4-1.1 3.7-1.7 2.1-1 4.1-2.1 6-3.2zm0-7c-2.1 1.2-4.4 2.5-6.8 3.7a33.61 33.61 0 0 1-4.4 2v-10h11.2zm0-5H41.54v-11.2h11.2zm0-12H41.54v-10a1.11 1.11 0 0 1 1.1-1.1h10zm12 24H53.44v-5.4a93.4 93.4 0 0 0 9-5.8l.2.6h2l-.2-.7h.3zm0-12h-.5l-.2-.3.7-.5zm0-2.9l-1.2.9-3.5-9.2h4.6v8.3zm0-9H53.44v-11.3h11.3zm11.9 22.7a1.28 1.28 0 0 1-1.1 1.2h-10v-11.3h11.1zm0-10.9H65.44v-1.3a112.45 112.45 0 0 0 11.2-9.5zm0-13.1l-1.3 1.3h-9.9v-11.3h10.1a1.22 1.22 0 0 1 1.2 1.2zm-1.1-11.2h-2.7v-2.6a2.26 2.26 0 0 0-2.3-2.3h-2.8v-3.1c4.3-1.7 16.1-5.8 18.9-1.2 3.1 5-5.1 15.2-8.5 18.8l-.3.3v-7.6a2.33 2.33 0 0 0-2.26-2.3zm-.6 9.9a.9.9 0 1 0-.9.9c.54.1.94-.3.94-.9zm0-6.1a.9.9 0 1 0-.9.9.9.9 0 0 0 .94-.9zm0 3.1a.9.9 0 1 0-.9.9.9.9 0 0 0 .94-.9z"/></svg>