<svg id="Layer_1" data-name="Layer 1" xmlns="http://www.w3.org/2000/svg" viewBox="0 0 144 144"><defs><style>.cls-1{fill:none;}.cls-2{fill:#fff;}</style></defs><title>Icon_RH_software_host-physical-running_RGB_White</title><rect class="cls-1" x="94" y="108.22" width="2" height="7"/><path class="cls-1" d="M73.44,67.17a1.19,1.19,0,0,0,0-.16l0-.06a1.15,1.15,0,0,0-.08-0.14l0,0-0.12-.14,0,0L73,66.49l-0.07,0-0.13-.07-0.08,0-0.14,0H72.06l-0.13,0-0.09,0-0.11.06-0.09,0-0.09.07-0.09.07-0.06.07-0.08.1,0,0.08L71.21,67a1.19,1.19,0,0,0,0,.13s0,0.06,0,.1a1.16,1.16,0,0,0,0,.24v8.27a1.18,1.18,0,0,0,1.18,1.18h0.24l0.18-.05h0l0.16-.09,0,0,0.14-.12,0,0,0.12-.14,0,0a1.18,1.18,0,0,0,.08-0.14l0-.06,0-.07a1.16,1.16,0,0,0,.07-0.39V67.47a1.19,1.19,0,0,0,0-.24Z"/><path class="cls-1" d="M88.46,65.73L81.3,61.59A1.16,1.16,0,0,0,81,61.49l-0.08,0-0.2,0H80.68l-0.25,0h0a1.18,1.18,0,0,0-.25.1l-0.07,0-0.16.12-0.06.06a1.2,1.2,0,0,0-.17.23,1.18,1.18,0,0,0,.43,1.61l7.16,4.14h0a1.15,1.15,0,0,0,.26.11l0.08,0,0.2,0h0.08l0.25,0h0a1.19,1.19,0,0,0,.25-0.1l0.07,0,0.17-.12,0.06-.06a1.15,1.15,0,0,0,.18-0.23A1.18,1.18,0,0,0,88.46,65.73Z"/><path class="cls-1" d="M81.89,56.59H81.78l-0.12,0-0.1,0-0.12.06-0.08,0-0.09.07-0.08.07L81.12,57,81,57.1l0,0.07-0.07.13v0a1.21,1.21,0,0,0-.06.19,1.18,1.18,0,0,0,.57,1.26,1.17,1.17,0,0,0,.59.16h8.27a1.18,1.18,0,0,0,1.15-1.42l0-.07a1.24,1.24,0,0,0,0-.15l0-.07-0.07-.13L91.2,57l-0.08-.1L91,56.86l-0.1-.08-0.08,0-0.12-.06-0.09,0-0.13,0H81.89Z"/><path class="cls-1" d="M79.69,53.49a1.18,1.18,0,0,0,.71.55h0.1l0.2,0,0.2,0H81a1.18,1.18,0,0,0,.29-0.12l7.16-4.13a1.18,1.18,0,0,0,.43-1.61A1.16,1.16,0,0,0,88.72,48l-0.06-.06-0.16-.12-0.07,0a1.18,1.18,0,0,0-.25-0.1h0a1.19,1.19,0,0,0-.26,0H87.82l-0.2,0-0.08,0a1.16,1.16,0,0,0-.26.11l-7.16,4.13A1.18,1.18,0,0,0,79.69,53.49Z"/><polygon class="cls-1" points="90.97 24.87 54.37 24.87 45.26 28.49 98.94 28.49 90.97 24.87"/><rect class="cls-1" x="88" y="108.22" width="2" height="7"/><path class="cls-1" d="M44.23,119.13H99.76V104.57H44.23v14.56ZM93,107.72a0.5,0.5,0,0,1,.5-0.5h3a0.5,0.5,0,0,1,.5.5v8a0.5,0.5,0,0,1-.5.5h-3a0.5,0.5,0,0,1-.5-0.5v-8Zm-6,0a0.5,0.5,0,0,1,.5-0.5h3a0.5,0.5,0,0,1,.5.5v8a0.5,0.5,0,0,1-.5.5h-3a0.5,0.5,0,0,1-.5-0.5v-8Zm-32.83,2.7a1.38,1.38,0,1,1-1.37,1.38A1.38,1.38,0,0,1,54.17,110.42Zm-4.88,0a1.38,1.38,0,1,1-1.37,1.38A1.37,1.37,0,0,1,49.29,110.42Z"/><path class="cls-1" d="M98.83,86.26H45.17a1,1,0,0,0-.93,1v14.25a1,1,0,0,0,.93,1H98.83a1,1,0,0,0,.93-1V87.28A1,1,0,0,0,98.83,86.26Z"/><path class="cls-1" d="M68,65.15A1.17,1.17,0,0,0,67.77,65l-0.08,0-0.2,0H67.41a1.16,1.16,0,0,0-.25,0h0a1.18,1.18,0,0,0-.25.1l-0.07,0-0.16.12-0.06.06a1.19,1.19,0,0,0-.18.23l-4.14,7.16A1.17,1.17,0,0,0,63,74.46l0.08,0,0.2,0h0.08a1.17,1.17,0,0,0,.25,0h0a1.2,1.2,0,0,0,.25-0.1l0.07,0,0.16-.12,0.06-.06a1.19,1.19,0,0,0,.18-0.23l4.13-7.16A1.18,1.18,0,0,0,68,65.15Z"/><path class="cls-1" d="M64.91,62a1.14,1.14,0,0,0-.17-0.23l-0.06-.06-0.16-.12-0.07,0a1.24,1.24,0,0,0-.25-0.1h0l-0.25,0H63.84l-0.2,0-0.08,0a1.21,1.21,0,0,0-.26.11l-7.16,4.13a1.18,1.18,0,0,0,0,2,1.16,1.16,0,0,0,.28.12h0.1l0.2,0,0.2,0H57a1.18,1.18,0,0,0,.29-0.12l7.16-4.13A1.18,1.18,0,0,0,64.91,62Z"/><path class="cls-1" d="M56.14,49.79l7.16,4.14a1.16,1.16,0,0,0,.26.11l0.08,0,0.19,0h0.08l0.25,0h0a1.16,1.16,0,0,0,.25-0.1l0.07,0,0.16-.12,0.06-.06a1.16,1.16,0,0,0,.18-0.23,1.18,1.18,0,0,0-.43-1.61l-7.16-4.14a1.18,1.18,0,0,0-.26-0.11l-0.08,0-0.2,0H56.69a1.17,1.17,0,0,0-.25,0h0a1.19,1.19,0,0,0-.25.1l-0.07,0-0.16.12-0.06.06A1.17,1.17,0,0,0,56.14,49.79Z"/><path class="cls-1" d="M53.73,58.78a1.17,1.17,0,0,0,.59.16h8.27a1.18,1.18,0,0,0,0-2.36H54.32A1.18,1.18,0,0,0,53.73,58.78Z"/><path class="cls-1" d="M71.71,49.07a1.19,1.19,0,0,0,.59.16A1.18,1.18,0,0,0,73.48,48V39.77a1.18,1.18,0,0,0-.09-0.46v0a1.18,1.18,0,0,0-.09-0.17l0,0-0.12-.14,0,0L73,38.8l-0.07,0-0.13-.07-0.08,0-0.14,0H72.3a1.18,1.18,0,0,0-1.18,1.18V48A1.18,1.18,0,0,0,71.71,49.07Z"/><path class="cls-1" d="M76.57,50.37a1.15,1.15,0,0,0,.26.11l0.08,0,0.2,0h0.08a1.17,1.17,0,0,0,.26,0h0a1.21,1.21,0,0,0,.25-0.1l0.07,0,0.17-.12L78,50.16a1.18,1.18,0,0,0,.18-0.23l4.14-7.16a1.18,1.18,0,0,0-.43-1.61,1.16,1.16,0,0,0-.26-0.11l-0.08,0-0.2,0H81.26A1.18,1.18,0,0,0,81,41h0a1.17,1.17,0,0,0-.25.1l-0.07,0-0.16.12-0.06.06a1.17,1.17,0,0,0-.18.23l-4.14,7.16A1.18,1.18,0,0,0,76.57,50.37Z"/><path class="cls-1" d="M44.24,84.43a2.82,2.82,0,0,1,.93-0.17H98.83a2.82,2.82,0,0,1,.93.17V30.49H44.24V84.43ZM56.73,69a2.28,2.28,0,0,1-1.14-4.25l7.16-4.13A2.28,2.28,0,0,1,65,64.59l-7.16,4.13A2.28,2.28,0,0,1,56.73,69Zm12.6-1.77L65.2,74.42a2.18,2.18,0,0,1-3.77-2.18l4.13-7.16A2.18,2.18,0,1,1,69.33,67.26Zm5,8.48a2.08,2.08,0,0,1-4.16,0V67.47a2.08,2.08,0,0,1,2.08-2.08h0a2.08,2.08,0,0,1,2.08,2.08v8.27ZM89.5,67.69a1.88,1.88,0,0,1-2.57.69h0l-7.14-4.13a1.88,1.88,0,0,1-.69-2.57A1.88,1.88,0,0,1,81.65,61l7.16,4.14A1.88,1.88,0,0,1,89.5,67.69Zm2.56-9.93a1.78,1.78,0,0,1-1.78,1.78H82A1.78,1.78,0,0,1,82,56h8.28A1.78,1.78,0,0,1,92.06,57.76ZM87.87,47a1.73,1.73,0,0,1,.87,3.23L81.58,54.4a1.73,1.73,0,1,1-1.73-3L87,47.27A1.73,1.73,0,0,1,87.87,47ZM75.7,48.5l4.14-7.16a1.68,1.68,0,0,1,3.08.4A1.67,1.67,0,0,1,82.75,43l-4.14,7.16A1.68,1.68,0,1,1,75.7,48.5Zm0.47,16a2,2,0,0,1,2.7.73L83,72.34a2,2,0,0,1-1.71,3,2,2,0,0,1-1.71-1l-4.13-7.16A2,2,0,0,1,76.17,64.46ZM54.58,47.53A2.48,2.48,0,0,1,58,46.62l7.16,4.14a2.53,2.53,0,0,1,.35.25,2.56,2.56,0,0,1-.26-0.37l-4.14-7.16a2.58,2.58,0,0,1,4.47-2.58L69.62,48V39.77a2.68,2.68,0,0,1,2.68-2.68h0A2.68,2.68,0,0,1,75,39.77V48a2.67,2.67,0,0,1-5,1.38,2.56,2.56,0,0,1-4.24,1.88A2.47,2.47,0,0,1,62.65,55l-7.16-4.14A2.48,2.48,0,0,1,54.58,47.53Zm-0.26,7.85h8.27a2.38,2.38,0,0,1,0,4.76H54.32A2.38,2.38,0,1,1,54.32,55.38Z"/><path class="cls-1" d="M66.85,50.37a1.17,1.17,0,0,0,.28.12h0.1l0.2,0,0.2,0h0.11A1.21,1.21,0,0,0,68,50.37a1.18,1.18,0,0,0,.43-1.61l-4.13-7.16a1.18,1.18,0,0,0-.18-0.23l-0.06-.06-0.17-.12-0.07,0a1.17,1.17,0,0,0-.25-0.1h0a1.19,1.19,0,0,0-.25,0H63.26l-0.2,0-0.08,0a1.16,1.16,0,0,0-.26.11,1.18,1.18,0,0,0-.43,1.61l4.13,7.16A1.17,1.17,0,0,0,66.85,50.37Z"/><path class="cls-1" d="M80.27,73.92a1.18,1.18,0,0,0,.43.43,1.16,1.16,0,0,0,.28.12h0.1l0.21,0,0.19,0h0.11a1.18,1.18,0,0,0,.72-1.73l-4.13-7.16A1.18,1.18,0,0,0,78,65.35l-0.06-.06-0.16-.12-0.07,0a1.17,1.17,0,0,0-.25-0.1h0a1.15,1.15,0,0,0-.25,0H77.11l-0.2,0-0.08,0a1.15,1.15,0,0,0-.26.11,1.18,1.18,0,0,0-.43,1.61Z"/><circle class="cls-2" cx="49.29" cy="111.8" r="1.38"/><circle class="cls-2" cx="54.17" cy="111.8" r="1.38"/><path class="cls-2" d="M93.5,116.22h3a0.5,0.5,0,0,0,.5-0.5v-8a0.5,0.5,0,0,0-.5-0.5h-3a0.5,0.5,0,0,0-.5.5v8A0.5,0.5,0,0,0,93.5,116.22Zm0.5-8h2v7H94v-7Z"/><path class="cls-2" d="M87.5,116.22h3a0.5,0.5,0,0,0,.5-0.5v-8a0.5,0.5,0,0,0-.5-0.5h-3a0.5,0.5,0,0,0-.5.5v8A0.5,0.5,0,0,0,87.5,116.22Zm0.5-8h2v7H88v-7Z"/><path class="cls-2" d="M100,26.79L91.4,22.87H54L44,26.82a2.86,2.86,0,0,0-1.81,2.67v90.64a1,1,0,0,0,1,1h57.53a1,1,0,0,0,1-1V29.47A3,3,0,0,0,100,26.79ZM54.37,24.87H91l8,3.62H45.26Zm45.39,94.26H44.23V104.57H99.76v14.56Zm0-17.92v0.32a1,1,0,0,1-.93,1H45.17a1,1,0,0,1-.93-1V87.28a1,1,0,0,1,.93-1H98.83a1,1,0,0,1,.93,1v13.93Zm0-16.78a2.82,2.82,0,0,0-.93-0.17H45.17a2.82,2.82,0,0,0-.93.17V30.49H99.76V84.43Z"/><path class="cls-2" d="M76.32,50.8a1.68,1.68,0,0,0,2.29-.62L82.75,43a1.68,1.68,0,0,0-1.45-2.52,1.68,1.68,0,0,0-1.46.84L75.7,48.5A1.68,1.68,0,0,0,76.32,50.8Zm-0.18-2,4.14-7.16a1.17,1.17,0,0,1,.18-0.23l0.06-.06,0.16-.12,0.07,0A1.17,1.17,0,0,1,81,41h0a1.18,1.18,0,0,1,.26,0h0.08l0.2,0,0.08,0a1.16,1.16,0,0,1,.26.11,1.18,1.18,0,0,1,.43,1.61l-4.14,7.16a1.18,1.18,0,0,1-.18.23l-0.06.06-0.17.12-0.07,0a1.21,1.21,0,0,1-.25.1h0a1.17,1.17,0,0,1-.26,0H77.11l-0.2,0-0.08,0a1.15,1.15,0,0,1-.26-0.11A1.18,1.18,0,0,1,76.14,48.75Z"/><path class="cls-2" d="M55.49,50.91L62.65,55A2.48,2.48,0,0,0,66,54.14a2.45,2.45,0,0,0-.26-2.84A2.57,2.57,0,0,0,70,49.43a2.68,2.68,0,0,0,.95.93A2.68,2.68,0,0,0,75,48V39.77a2.68,2.68,0,0,0-2.68-2.68h0a2.68,2.68,0,0,0-2.68,2.68V48l-4.08-7.07a2.58,2.58,0,0,0-4.47,2.58l4.14,7.16a2.56,2.56,0,0,0,.26.37,2.53,2.53,0,0,0-.35-0.25L58,46.62A2.48,2.48,0,1,0,55.49,50.91ZM71.12,39.77a1.18,1.18,0,0,1,1.18-1.18h0.24l0.14,0,0.08,0,0.13,0.07,0.07,0,0.14,0.11,0,0,0.12,0.14,0,0a1.18,1.18,0,0,1,.09.17v0a1.18,1.18,0,0,1,.09.46V48a1.18,1.18,0,0,1-1.18,1.18,1.19,1.19,0,0,1-.59-0.16,1.18,1.18,0,0,1-.59-1V39.77Zm-8.84,3a1.18,1.18,0,0,1,.43-1.61A1.16,1.16,0,0,1,63,41.05l0.08,0,0.2,0h0.08a1.19,1.19,0,0,1,.25,0h0a1.17,1.17,0,0,1,.25.1l0.07,0,0.17,0.12,0.06,0.06a1.18,1.18,0,0,1,.18.23l4.13,7.16A1.18,1.18,0,0,1,68,50.37a1.21,1.21,0,0,1-.29.12H67.63l-0.2,0-0.2,0h-0.1a1.17,1.17,0,0,1-.71-0.55Zm-6.58,5.4a1.17,1.17,0,0,1,.18-0.23l0.06-.06,0.16-.12,0.07,0a1.19,1.19,0,0,1,.25-0.1h0a1.17,1.17,0,0,1,.25,0h0.08l0.2,0,0.08,0a1.18,1.18,0,0,1,.26.11l7.16,4.14a1.18,1.18,0,0,1,.43,1.61,1.16,1.16,0,0,1-.18.23l-0.06.06-0.16.12-0.07,0a1.16,1.16,0,0,1-.25.1h0l-0.25,0H63.84l-0.19,0-0.08,0a1.16,1.16,0,0,1-.26-0.11l-7.16-4.14A1.18,1.18,0,0,1,55.71,48.18Z"/><path class="cls-2" d="M53.13,59.82a2.37,2.37,0,0,0,1.19.32h8.27a2.38,2.38,0,0,0,0-4.76H54.32A2.38,2.38,0,0,0,53.13,59.82Zm1.19-3.24h8.27a1.18,1.18,0,0,1,0,2.36H54.32A1.18,1.18,0,1,1,54.32,56.58Z"/><path class="cls-2" d="M65.86,61.48a2.28,2.28,0,0,0-3.11-.84l-7.16,4.13a2.28,2.28,0,0,0,2.28,3.95L65,64.59A2.28,2.28,0,0,0,65.86,61.48Zm-1.38,2.16-7.16,4.13a1.18,1.18,0,0,1-.29.12H56.92l-0.2,0-0.2,0h-0.1a1.16,1.16,0,0,1-.28-0.12,1.18,1.18,0,0,1,0-2l7.16-4.13a1.21,1.21,0,0,1,.26-0.11l0.08,0,0.2,0h0.08l0.25,0h0a1.24,1.24,0,0,1,.25.1l0.07,0,0.16,0.12,0.06,0.06a1.14,1.14,0,0,1,.17.23A1.18,1.18,0,0,1,64.48,63.64Z"/><path class="cls-2" d="M68.53,64.28a2.18,2.18,0,0,0-3,.8l-4.13,7.16a2.18,2.18,0,1,0,3.77,2.18l4.14-7.16A2.18,2.18,0,0,0,68.53,64.28Zm-0.07,2.48-4.13,7.16a1.19,1.19,0,0,1-.18.23l-0.06.06-0.16.12-0.07,0a1.2,1.2,0,0,1-.25.1h0a1.17,1.17,0,0,1-.25,0H63.26l-0.2,0-0.08,0a1.17,1.17,0,0,1-.69-1.72l4.14-7.16a1.19,1.19,0,0,1,.18-0.23l0.06-.06,0.16-.12,0.07,0a1.18,1.18,0,0,1,.25-0.1h0a1.16,1.16,0,0,1,.25,0h0.08l0.2,0,0.08,0A1.17,1.17,0,0,1,68.46,66.76Z"/><path class="cls-2" d="M72.3,65.39h0a2.08,2.08,0,0,0-2.08,2.08v8.27a2.08,2.08,0,0,0,4.16,0V67.47A2.08,2.08,0,0,0,72.3,65.39Zm1.17,10.35a1.16,1.16,0,0,1-.07.39l0,0.07,0,0.06a1.18,1.18,0,0,1-.08.14l0,0-0.12.14,0,0L73,76.72l0,0-0.16.09h0l-0.18.05H72.3a1.18,1.18,0,0,1-1.18-1.18V67.47a1.16,1.16,0,0,1,0-.24s0-.06,0-0.1a1.19,1.19,0,0,1,0-.12l0.07-.12,0-.08,0.08-.1,0.06-.07,0.09-.07,0.09-.07,0.09,0,0.11-.06,0.09,0,0.13,0h0.48l0.14,0,0.08,0,0.13,0.07,0.07,0,0.13,0.11,0,0,0.12,0.14,0,0a1.15,1.15,0,0,1,.08.14l0,0.06a1.19,1.19,0,0,1,0,.16l0,0.07a1.19,1.19,0,0,1,0,.24v8.27Z"/><path class="cls-2" d="M79.58,74.32a2,2,0,0,0,2.7.72,2,2,0,0,0,.72-2.7l-4.13-7.16a2,2,0,1,0-3.43,2Zm-3-9.17A1.15,1.15,0,0,1,76.83,65l0.08,0,0.2,0h0.08a1.15,1.15,0,0,1,.25,0h0a1.17,1.17,0,0,1,.25.1l0.07,0,0.16,0.12L78,65.35a1.18,1.18,0,0,1,.18.23l4.13,7.16a1.18,1.18,0,0,1-.72,1.73H81.48l-0.19,0-0.21,0H81a1.16,1.16,0,0,1-.28-0.12,1.18,1.18,0,0,1-.43-0.43l-4.13-7.16A1.18,1.18,0,0,1,76.57,65.15Z"/><path class="cls-2" d="M88.81,65.12L81.65,61a1.88,1.88,0,0,0-1.88,3.25l7.14,4.13h0A1.88,1.88,0,0,0,88.81,65.12Zm0.08,2.22a1.15,1.15,0,0,1-.18.23l-0.06.06-0.17.12-0.07,0a1.19,1.19,0,0,1-.25.1h0l-0.25,0H87.82l-0.2,0-0.08,0a1.15,1.15,0,0,1-.26-0.11h0l-7.16-4.14A1.18,1.18,0,0,1,79.69,62a1.2,1.2,0,0,1,.17-0.23l0.06-.06,0.16-.12,0.07,0a1.18,1.18,0,0,1,.25-0.1h0l0.25,0h0.08l0.2,0,0.08,0a1.16,1.16,0,0,1,.26.11l7.16,4.14A1.18,1.18,0,0,1,88.89,67.34Z"/><path class="cls-2" d="M82,56a1.78,1.78,0,0,0,0,3.56h8.27a1.78,1.78,0,0,0,0-3.56H82Zm8.41,0.62h0.1l0.13,0,0.09,0,0.12,0.06,0.08,0L91,56.86l0.07,0.06L91.2,57l0.06,0.08,0.07,0.13,0,0.07a1.24,1.24,0,0,1,0,.15l0,0.07a1.18,1.18,0,0,1-1.15,1.42H82a1.18,1.18,0,0,1-1.18-1.18,1.19,1.19,0,0,1,0-.24,1.21,1.21,0,0,1,.06-0.19v0L81,57.17l0-.07,0.08-.1,0.06-.07,0.08-.07,0.09-.07,0.08,0,0.12-.06,0.1,0,0.12,0h8.65Z"/><path class="cls-2" d="M79,52.45a1.73,1.73,0,0,0,2.53,1.94l7.16-4.13a1.73,1.73,0,1,0-1.73-3L79.85,51.4A1.72,1.72,0,0,0,79,52.45Zm8.24-4.71a1.16,1.16,0,0,1,.26-0.11l0.08,0,0.2,0h0.08a1.19,1.19,0,0,1,.26,0h0a1.18,1.18,0,0,1,.25.1l0.07,0,0.16,0.12L88.72,48a1.16,1.16,0,0,1,.17.23,1.18,1.18,0,0,1-.43,1.61L81.3,53.92A1.18,1.18,0,0,1,81,54h-0.1l-0.2,0-0.2,0H80.4a1.18,1.18,0,0,1-.28-2.16Z"/></svg>