<?xml version="1.0" encoding="utf-8"?>
<!-- Generator: Adobe Illustrator 17.1.0, SVG Export Plug-In . SVG Version: 6.00 Build 0)  -->
<!DOCTYPE svg PUBLIC "-//W3C//DTD SVG 1.1//EN" "http://www.w3.org/Graphics/SVG/1.1/DTD/svg11.dtd">
<svg version="1.1" id="Layer_1" xmlns="http://www.w3.org/2000/svg" xmlns:xlink="http://www.w3.org/1999/xlink" x="0px" y="0px"
	 viewBox="0 0 216 216" enable-background="new 0 0 216 216" xml:space="preserve">
<path fill="#FFFFFF" d="M122.889,140.738h-1.419v-39.387h0.575c0.466,0,0.844-0.377,0.844-0.842s-0.378-0.843-0.844-0.843h-4.275
	V83.728h0.509c0.466,0,0.843-0.377,0.843-0.842c0-0.465-0.377-0.843-0.843-0.843h-3.189v-3.895c0-0.349-0.283-0.632-0.632-0.632
	h-5.98V67.344c0-0.233-0.189-0.421-0.421-0.421c-0.233,0-0.422,0.188-0.422,0.421v10.171h-6.016c-0.349,0-0.632,0.283-0.632,0.632
	v3.895h-3.265c-0.465,0-0.843,0.377-0.843,0.843c0,0.465,0.378,0.842,0.843,0.842h0.545v15.938h-4.312
	c-0.466,0-0.843,0.378-0.843,0.843s0.377,0.842,0.843,0.842h0.745v39.387h-1.588c-0.349,0-0.632,0.283-0.632,0.633v7.074
	c0,0.349,0.283,0.632,0.632,0.632h29.777c0.349,0,0.632-0.283,0.632-0.632v-7.074C123.521,141.021,123.237,140.738,122.889,140.738z
	 M108.505,140.738v-16.003h3.408v12.001c0,0.232,0.189,0.421,0.421,0.421c0.233,0,0.421-0.188,0.421-0.421v-12.001h1.531
	c0.233,0,0.421-0.188,0.421-0.422c0-0.232-0.188-0.421-0.421-0.421h-1.531v-11.099h3.41v20.441c0,0.232,0.188,0.422,0.421,0.422
	c0.233,0,0.422-0.189,0.422-0.422v-20.441h3.198v27.944H108.505z M100.004,140.738v-16.003h3.408v16.003H100.004z M104.255,124.735
	h3.408v16.003h-3.408V124.735z M109.531,93.126h-2.841v-9.397c0,0,0,0,0-0.001h2.841c0,0.001,0,0.001,0,0.001V93.126z
	 M109.531,93.969v5.697h-2.841v-5.697H109.531z M105.848,99.666h-2.841v-5.697h2.841V99.666z M111.913,101.351v10.601h-3.408v-9.078
	c0-0.233-0.188-0.421-0.422-0.421c-0.231,0-0.42,0.188-0.42,0.421v9.078h-3.408v-10.601H111.913z M116.165,101.351v10.601h-3.41
	v-10.601H116.165z M111.913,112.794v11.099h-3.408v-11.099H111.913z M107.663,112.794v11.099h-3.408v-11.099H107.663z
	 M120.206,111.952h-3.198v-10.601h3.198V111.952z M116.506,99.666h-6.132v-5.697h1.103c0.232,0,0.422-0.188,0.422-0.421
	c0-0.233-0.189-0.421-0.422-0.421h-1.103v-9.397c0,0,0,0,0-0.001h2.839c0,0.001,0,0.001,0,0.001v13.393
	c0,0.233,0.188,0.421,0.421,0.421c0.233,0,0.421-0.189,0.421-0.421V83.729c0,0,0,0,0-0.001h2.451V99.666z M102.25,78.779h11.574
	v3.264H102.25V78.779z M105.848,83.728C105.848,83.729,105.848,83.729,105.848,83.728v9.398h-2.841v-7.385
	c0-0.233-0.188-0.421-0.421-0.421c-0.232,0-0.422,0.188-0.422,0.421v7.385H99.53v-9.398H105.848z M99.53,93.969h2.634v5.697H99.53
	V93.969z M103.412,101.351v10.601h-1.484c-0.233,0-0.422,0.188-0.422,0.421c0,0.232,0.188,0.421,0.422,0.421h1.484v11.099h-3.408
	v-17.508c0-0.233-0.188-0.421-0.422-0.421c-0.232,0-0.421,0.188-0.421,0.421v17.508h-3.197v-22.541H103.412z M95.964,124.735h3.197
	v16.003h-3.197V124.735z M122.257,147.814H93.743v-3.708c0.048,0.02,0.1,0.031,0.154,0.031h15.333c0.232,0,0.421-0.189,0.421-0.421
	c0-0.233-0.188-0.422-0.421-0.422H93.897c-0.055,0-0.106,0.012-0.154,0.031v-1.322h28.514V147.814z"/>
</svg>
