<?xml version="1.0" encoding="utf-8"?>
<!-- Generator: Adobe Illustrator 17.1.0, SVG Export Plug-In . SVG Version: 6.00 Build 0)  -->
<!DOCTYPE svg PUBLIC "-//W3C//DTD SVG 1.1//EN" "http://www.w3.org/Graphics/SVG/1.1/DTD/svg11.dtd">
<svg version="1.1" id="Layer_1" xmlns="http://www.w3.org/2000/svg" xmlns:xlink="http://www.w3.org/1999/xlink" x="0px" y="0px"
	 viewBox="0 0 144 144" enable-background="new 0 0 144 144" xml:space="preserve">
<path fill="#FFFFFF" d="M102.37,71.641h-6.357V62.92c0-1.345-1.095-2.439-2.439-2.439H82.697V39.768c0-1.346-1.095-2.44-2.44-2.44
	H52.7c-1.346,0-2.44,1.095-2.44,2.44v11.481h-6.438c-1.346,0-2.44,1.095-2.44,2.44v49.396c0,1.346,1.095,2.44,2.44,2.44h8.706h1.097
	h21.903h7.438h7.569h4.479h7.356c1.345,0,2.439-1.095,2.439-2.44V74.08C104.81,72.735,103.715,71.641,102.37,71.641z M102.81,74.08
	V84h-2.31V73.641h1.87C102.608,73.641,102.81,73.842,102.81,74.08z M90.535,71.641c-1.346,0-2.44,1.094-2.44,2.439v29.006
	c0,0.151,0.018,0.297,0.045,0.44H84V91.25h1.125c0.276,0,0.5-0.224,0.5-0.5s-0.224-0.5-0.5-0.5H84V77.375c0-0.276-0.224-0.5-0.5-0.5
	s-0.5,0.224-0.5,0.5V90.25h-3V66.331l14.013,0.109v5.2H90.535z M56.064,103.086v-5.211h4.561v5.651H56.02
	C56.046,103.383,56.064,103.237,56.064,103.086z M61.625,97.875h11.463v5.211c0,0.151,0.018,0.297,0.045,0.44H61.625V97.875z
	 M73.088,74H68v-5.125h5.088V74z M67,74h-2.5c-0.276,0-0.5,0.224-0.5,0.5s0.224,0.5,0.5,0.5H67v5c0,0.276,0.224,0.5,0.5,0.5
	S68,80.276,68,80v-5h5.088v21.875H61.625v-28H67V74z M79,65.323l-1.664-0.013c-0.001,0-0.003,0-0.004,0
	c-0.274,0-0.498,0.221-0.5,0.496c-0.002,0.276,0.22,0.502,0.496,0.504L79,66.323V90.25h-3.912V62.92c0-0.238,0.202-0.439,0.44-0.439
	h3.501C79.015,62.527,79,62.574,79,62.625V65.323z M94.013,62.92v2.52L80,65.331v-2.706c0-0.051-0.015-0.098-0.029-0.145h13.602
	C93.812,62.48,94.013,62.682,94.013,62.92z M75.528,60.48c-1.346,0-2.44,1.094-2.44,2.439v4.955H68V44.5h5.375v12.125
	c0,0.276,0.224,0.5,0.5,0.5s0.5-0.224,0.5-0.5V44.5h6.322v15.98H75.528z M73.375,43.5H68v-4.173h5.385
	c-0.002,0.017-0.01,0.031-0.01,0.048V43.5z M80.697,39.768V43.5h-6.322v-4.125c0-0.017-0.008-0.031-0.01-0.048h5.891
	C80.495,39.327,80.697,39.529,80.697,39.768z M52.26,39.768c0-0.239,0.202-0.44,0.44-0.44H67V43.5h-9.125
	c-0.276,0-0.5,0.224-0.5,0.5s0.224,0.5,0.5,0.5H67v23.375h-5.375v-5c0-0.276-0.224-0.5-0.5-0.5s-0.5,0.224-0.5,0.5v5H59
	c-0.276,0-0.5,0.224-0.5,0.5s0.224,0.5,0.5,0.5h1.625v28h-4.561V53.689c0-1.346-1.094-2.44-2.439-2.44H52.26V39.768z M43.822,53.249
	h9.803c0.238,0,0.439,0.202,0.439,0.44v5.061H47.75c-0.276,0-0.5,0.224-0.5,0.5s0.224,0.5,0.5,0.5h6.314V100H47V87.25h3.25
	c0.276,0,0.5-0.224,0.5-0.5s-0.224-0.5-0.5-0.5H47V68.625c0-0.276-0.224-0.5-0.5-0.5s-0.5,0.224-0.5,0.5V86.25h-2.618V53.689
	C43.382,53.451,43.583,53.249,43.822,53.249z M43.382,87.25H46V100h-2.618V87.25z M43.382,103.086V101H46v2.526h-2.178
	C43.583,103.526,43.382,103.324,43.382,103.086z M52.528,103.526H47V101h7.064v2.086c0,0.238-0.201,0.44-0.439,0.44H52.528z
	 M75.528,103.526c-0.238,0-0.44-0.202-0.44-0.44V91.25H79v4c0,0.276,0.224,0.5,0.5,0.5s0.5-0.224,0.5-0.5v-4h3v12.276h-0.034H75.528
	z M90.095,103.086v-3.461h2.946v3.901h-2.506C90.297,103.526,90.095,103.324,90.095,103.086z M102.37,103.526h-7.356h-0.973v-3.901
	h3.334c0.276,0,0.5-0.224,0.5-0.5s-0.224-0.5-0.5-0.5h-3.334V81.667c0-0.276-0.224-0.5-0.5-0.5s-0.5,0.224-0.5,0.5v16.958h-2.946
	V74.08c0-0.238,0.202-0.439,0.44-0.439H99.5V84h-2.625c-0.276,0-0.5,0.224-0.5,0.5s0.224,0.5,0.5,0.5H99.5v5.75
	c0,0.276,0.224,0.5,0.5,0.5s0.5-0.224,0.5-0.5V85h2.31v18.086C102.81,103.324,102.608,103.526,102.37,103.526z"/>
</svg>
