<svg data-name="Layer 1" xmlns="http://www.w3.org/2000/svg" viewBox="0 0 59.07 82.15"><title>Icon_RH_Buildings_CapitalBuilding_RGB_Black</title><path d="M22.73 19.79a.89.89 0 0 0 .25 0 26.25 26.25 0 0 1 13.09 0 .9.9 0 0 0 1.15-.94c-.42-4.91-3.17-6.76-5.17-7.45V2.31A2.31 2.31 0 0 0 29.74 0h-.42a2.31 2.31 0 0 0-2.31 2.31v9c-3.86 1.27-5.08 5.41-5.17 7.53a.9.9 0 0 0 .9.94zm5.37-6.91a.9.9 0 0 0 .71-.88V2.31a.52.52 0 0 1 .52-.52h.42a.52.52 0 0 1 .52.52v9.72a.9.9 0 0 0 .68.87 5.71 5.71 0 0 1 4.32 4.8 29.72 29.72 0 0 0-6-.61 25 25 0 0 0-5.47.58c.39-1.57 1.42-4.15 4.3-4.79zm5.09 3.89h.18a.67.67 0 0 0 .16-1.29 13.9 13.9 0 0 0-5.15-.29.672.672 0 0 0 .2 1.33 12.77 12.77 0 0 1 4.61.26zM6.35 62.94a3.13 3.13 0 0 0-3.13 3.13v9.63a3.13 3.13 0 1 0 6.26 0v-9.63a3.13 3.13 0 0 0-3.13-3.13zM7.68 75.7a1.335 1.335 0 1 1-2.67 0v-9.63a1.335 1.335 0 1 1 2.67 0zm37.3 2.42a3.13 3.13 0 0 0 3.13-3.13v-9.62a3.13 3.13 0 1 0-6.26 0V75a3.13 3.13 0 0 0 3.13 3.12zm-1.33-12.75a1.335 1.335 0 0 1 2.67 0V75a1.335 1.335 0 0 1-2.67 0zm-32.74-24h.16c17.49-3.16 36.73 0 36.93 0a.88.88 0 0 0 .76-.23.9.9 0 0 0 .29-.74c-1.76-20.74-19.47-20.24-19.62-20.23-18.36.12-19.4 20-19.41 20.24a.9.9 0 0 0 .9.94zm36.22-2c-.89-.12-2.26-.3-4-.48.09-2.33-.29-8.81-6.35-15.37 4.36 1.95 9.22 6.27 10.36 15.85zM32.92 22.3c8 6.81 8.51 14 8.43 16.43-1.35-.12-2.86-.24-4.49-.34.16-2.51.17-9.9-4.24-16.14zm-2.5 0c4.77 5.91 4.77 13.57 4.64 16-1.47-.07-3-.12-4.64-.15zm-1.8 15.8h-.19c-1.37 0-2.78 0-4.22.07-.13-2.31-.16-9.82 4.4-15.72zM26.3 22.2h.32c-4.38 6.25-4.36 13.61-4.2 16.1-1.48.07-3 .18-4.48.32-.05-2.4.49-9.66 8.37-16.4zm-12 8.93a15.76 15.76 0 0 1 8.32-8c-6.24 6.64-6.62 13.23-6.53 15.58-1.41.16-2.83.35-4.23.58a26.06 26.06 0 0 1 2.5-8.14zm22.9 46.42a3.13 3.13 0 0 0 3.13-3.13v-9.6a3.13 3.13 0 1 0-6.26 0v9.63a3.13 3.13 0 0 0 3.19 3.13zm-1.28-12.73a1.335 1.335 0 0 1 2.67 0v9.63a1.335 1.335 0 0 1-2.67 0zm22.38-4.39c-28.8-4.52-57.27 0-57.55 0a.9.9 0 0 0-.76.89v19.94a.9.9 0 0 0 1 .89c28.22-2.6 56.82 0 57.11 0h.08a.9.9 0 0 0 .9-.9V61.31a.9.9 0 0 0-.78-.88zm-1 19.85c-3.31-.27-14.63-1.09-28.88-1.09-8.22 0-17.41.27-26.59 1.08V62.09c4.64-.66 29.83-3.89 55.47 0zM26.4 64.37V74a3.13 3.13 0 1 0 6.26 0v-9.63a3.13 3.13 0 1 0-6.26 0zm4.46 0V74a1.335 1.335 0 1 1-2.67 0v-9.63a1.335 1.335 0 1 1 2.67 0zm-16.78-2.14a3.13 3.13 0 0 0-3.13 3.14V75a3.13 3.13 0 1 0 6.26 0v-9.63a3.13 3.13 0 0 0-3.13-3.14zm1.33 12.76a1.335 1.335 0 1 1-2.67 0v-9.62a1.335 1.335 0 0 1 2.67 0zM9.17 57.58h.11q1.32-.16 2.66-.29a.9.9 0 0 0 .81-.89v-7.71a1.335 1.335 0 1 1 2.67 0v7.35a.9.9 0 0 0 1 .9q1.63-.1 3.25-.18a.9.9 0 0 0 .86-.9v-7.72a1.335 1.335 0 0 1 2.67 0v7.58a.9.9 0 0 0 .27.64.91.91 0 0 0 .65.26h3.25a.9.9 0 0 0 .89-.9v-7.99a1.335 1.335 0 1 1 2.67 0v8a.9.9 0 0 0 .88.9l3.25.07a.85.85 0 0 0 .65-.25.9.9 0 0 0 .27-.64v-7.67a1.335 1.335 0 0 1 2.67 0v7.82a.9.9 0 0 0 .85.9l3.25.18a.9.9 0 0 0 1-.9v-7.45a1.335 1.335 0 0 1 2.67 0v7.76a.9.9 0 0 0 .83.89c1.69.14 2.65.24 2.66.24a.9.9 0 0 0 1-.89V44.06a.9.9 0 0 0-.76-.89c-20.52-3.22-40.8 0-41 0a.9.9 0 0 0-.76.89v12.63a.9.9 0 0 0 .9.9zm.9-12.75c3.79-.53 21.18-2.65 38.92 0V55.7l-.88-.08v-6.93a3.13 3.13 0 0 0-6.26 0v6.5l-1.47-.08v-7a3.13 3.13 0 1 0-6.26 0v6.72h-1.47v-7.1a3.13 3.13 0 1 0-6.26 0v7.06h-1.47v-6.65a3.13 3.13 0 0 0-6.26 0V55l-1.47.08v-6.4a3.13 3.13 0 0 0-6.26 0v6.9l-.88.09zM21.8 61.69a3.13 3.13 0 0 0-3.13 3.13v9.63a3.13 3.13 0 0 0 6.26 0v-9.63a3.13 3.13 0 0 0-3.13-3.13zm1.33 12.76a1.335 1.335 0 0 1-2.67 0v-9.63a1.335 1.335 0 0 1 2.67 0zm29.57 4.38a3.13 3.13 0 0 0 3.13-3.13v-9.63a3.13 3.13 0 0 0-6.26 0v9.63a3.13 3.13 0 0 0 3.14 3.13zm-1.33-12.76a1.335 1.335 0 0 1 2.67 0v9.63a1.335 1.335 0 0 1-2.67 0z"/></svg>