<?xml version="1.0" encoding="utf-8"?>
<!-- Generator: Adobe Illustrator 17.1.0, SVG Export Plug-In . SVG Version: 6.00 Build 0)  -->
<!DOCTYPE svg PUBLIC "-//W3C//DTD SVG 1.1//EN" "http://www.w3.org/Graphics/SVG/1.1/DTD/svg11.dtd">
<svg version="1.1" xmlns="http://www.w3.org/2000/svg" xmlns:xlink="http://www.w3.org/1999/xlink" x="0px" y="0px"
	 viewBox="0 0 108 108" enable-background="new 0 0 108 108" xml:space="preserve">
<g id="Layer_2">
	<path d="M85.763,51.897h-4.006V37.593c0-0.552-0.447-1-1-1H63.339V13.157c0-0.414-0.336-0.75-0.75-0.75h-4.393
		c-0.414,0-0.75,0.336-0.75,0.75v23.436h-2.934V13.157c0-0.414-0.336-0.75-0.75-0.75h-4.395c-0.414,0-0.75,0.336-0.75,0.75v23.436
		h-4.195c-0.552,0-1,0.448-1,1v14.305h-7.743V20.073c0-0.414-0.336-0.75-0.75-0.75h-5.667c-0.414,0-0.75,0.336-0.75,0.75v31.824
		h-4.205c-0.552,0-1,0.447-1,1v34.029c0,0.553,0.448,1,1,1h61.455c0.553,0,1-0.447,1-1V52.897
		C86.763,52.345,86.315,51.897,85.763,51.897z M84.763,80.832H73.666v-7.583h11.097V80.832z M25.308,72.249v-4.332v-0.001h59.455
		v0.834V71v1.249H25.308z M72.666,73.249v7.583H62.333v-7.583H72.666z M61.333,73.249v7.583H49.916v-7.583H61.333z M48.916,73.249
		v7.583H38.5v-7.583H48.916z M25.308,79.375v-2v-4.126H37.5v7.583H25.308V79.375z M25.308,59.333H37.5v7.583H25.308V59.333z
		 M38.5,66.916v-7.583h10.417v7.583H38.5z M49.916,66.916v-7.583h11.417v7.583H49.916z M62.333,66.916v-7.583h10.333v7.583H62.333z
		 M84.763,66.75v0.166H73.666v-7.583h11.097V66.75z M45.422,50h34.334v1.897h-2.382H58.583h-2h-8.458h-2.703V50z M45.422,48.75v-1
		v-3.375v-2V41.5h10.244V49H45.422V48.75z M56.666,49v-7.5h11.417V49H56.666z M79.757,41.75V49H69.083v-7.5h10.674V41.75z
		 M58.946,13.907h2.893v22.686h-2.893V13.907z M50.117,13.907h2.895v22.686h-2.895V13.907z M45.422,38.593h2.703h1.333h2h23.167h2
		h0.75h2.382V40.5H45.422V38.593z M30.012,20.823h4.167v31.074h-4.167V20.823z M25.308,56.917v-3.02h12.275h1h3.625h36h3.708h2.847
		v4.436H25.308V56.917z M84.763,85.927h-2.847H68.083H30.708h-2.375h-3.025v-4.095h59.455V85.927z"/>
</g>
<g id="Layer_3" display="none">
	<path display="inline" fill="#010101" d="M82.838,82.564h0.744c0.299,0,0.542-0.224,0.542-0.5c0-0.276-0.243-0.5-0.542-0.5h-0.744
		H72.635V74.03c0-0.047-0.016-0.09-0.029-0.133h10.232h0.744c0.299,0,0.542-0.224,0.542-0.5c0-0.276-0.243-0.5-0.542-0.5h-0.744
		H25.857h-1.422c-0.3,0-0.542,0.224-0.542,0.5c0,0.276,0.241,0.5,0.542,0.5h1.422h10.499c-0.014,0.043-0.029,0.086-0.029,0.133
		v7.534h-10.47h-1.422c-0.3,0-0.542,0.224-0.542,0.5c0,0.276,0.241,0.5,0.542,0.5h1.422H82.838z M60.207,73.897
		c-0.013,0.043-0.029,0.086-0.029,0.133v7.534H48.805V74.03c0-0.047-0.015-0.09-0.029-0.133H60.207z M71.551,74.03v7.534h-10.29
		V74.03c0-0.047-0.015-0.09-0.028-0.133h10.349C71.568,73.94,71.551,73.983,71.551,74.03z M37.38,73.897h10.371
		c-0.013,0.043-0.03,0.086-0.03,0.133v7.534H37.41V74.03C37.41,73.983,37.393,73.94,37.38,73.897z"/>
	<path display="inline" fill="#010101" d="M82.838,68.689h0.744c0.299,0,0.542-0.224,0.542-0.5c0-0.276-0.243-0.5-0.542-0.5h-0.744
		H72.635v-7.534c0-0.047-0.016-0.09-0.029-0.133h10.232h0.744c0.299,0,0.542-0.224,0.542-0.5c0-0.276-0.243-0.5-0.542-0.5h-0.744
		H25.857h-1.422c-0.3,0-0.542,0.224-0.542,0.5c0,0.276,0.241,0.5,0.542,0.5h1.422h10.499c-0.014,0.043-0.029,0.086-0.029,0.133
		v7.534h-10.47h-1.422c-0.3,0-0.542,0.224-0.542,0.5c0,0.276,0.241,0.5,0.542,0.5h1.422H82.838z M60.207,60.022
		c-0.013,0.043-0.029,0.086-0.029,0.133v7.534H48.805v-7.534c0-0.047-0.015-0.09-0.029-0.133H60.207z M71.551,60.155v7.534h-10.29
		v-7.534c0-0.047-0.015-0.09-0.028-0.133h10.349C71.568,60.065,71.551,60.108,71.551,60.155z M37.38,60.022h10.371
		c-0.013,0.043-0.03,0.086-0.03,0.133v7.534H37.41v-7.534C37.41,60.108,37.393,60.065,37.38,60.022z"/>
	<path display="inline" fill="#010101" d="M79.082,42.022c-0.013,0.043-0.029,0.086-0.029,0.133v7.534H67.68v-7.534
		c0-0.047-0.016-0.09-0.029-0.133H79.082z M80.136,49.689c0,0-0.015-7.624-0.028-7.667h0.605h0.744c0.299,0,0.542-0.224,0.542-0.5
		c0-0.276-0.243-0.5-0.542-0.5h-0.744H44.732H43.31c-0.3,0-0.542,0.224-0.542,0.5c0,0.276,0.241,0.5,0.542,0.5h1.422H55.23
		c-0.014,0.043-0.029,0.086-0.029,0.133v7.534H44.732H43.31c-0.3,0-0.542,0.224-0.542,0.5c0,0.276,0.241,0.5,0.542,0.5h1.422h38.725
		c0.299,0,0.542-0.224,0.542-0.5c0-0.276-0.243-0.5-0.542-0.5h-0.744H80.136z M56.256,42.022h10.37
		c-0.013,0.043-0.03,0.086-0.03,0.133v7.534H56.285v-7.534C56.285,42.108,56.268,42.065,56.256,42.022z"/>
</g>
</svg>
