<?xml version="1.0" encoding="utf-8"?>
<!-- Generator: Adobe Illustrator 17.1.0, SVG Export Plug-In . SVG Version: 6.00 Build 0)  -->
<!DOCTYPE svg PUBLIC "-//W3C//DTD SVG 1.1//EN" "http://www.w3.org/Graphics/SVG/1.1/DTD/svg11.dtd">
<svg version="1.1" id="Layer_1" xmlns="http://www.w3.org/2000/svg" xmlns:xlink="http://www.w3.org/1999/xlink" x="0px" y="0px"
	 viewBox="0 0 216 216" enable-background="new 0 0 216 216" xml:space="preserve">
<g>
	<path d="M112.787,99.701c-4.489-3.653-11.112-2.971-14.767,1.52c-0.149,0.185-0.279,0.379-0.416,0.57l-0.555,0.868
		c-2.491,4.376-1.54,10.05,2.491,13.329c4.491,3.653,11.114,2.969,14.766-1.522c0.374-0.461,0.694-0.949,0.979-1.449l0.462-0.917
		C117.619,107.876,116.54,102.752,112.787,99.701z M113.135,113.514c-3.129,3.845-8.796,4.429-12.642,1.302
		c-3.519-2.862-4.298-7.851-2.006-11.624l0.37-0.56c0.109-0.153,0.214-0.308,0.337-0.459c3.126-3.844,8.794-4.428,12.638-1.299
		C115.678,103.999,116.263,109.672,113.135,113.514z"/>
	<path d="M128.694,80.018c-15.31-12.454-37.894-10.126-50.346,5.182c-12.451,15.31-10.124,37.897,5.184,50.352
		c0.139,0.112,0.281,0.216,0.42,0.325c0.765,0.602,1.544,1.173,2.341,1.705c12.146,8.09,27.852,7.839,39.646,0
		c0.799-0.529,1.575-1.105,2.336-1.705c2.023-1.597,3.909-3.432,5.602-5.514C146.329,115.053,144.004,92.465,128.694,80.018z
		 M137.834,119.355c-1.253,3.44-3.081,6.736-5.521,9.735c-2.039,2.508-4.374,4.635-6.904,6.395
		c-0.886,0.616-1.793,1.192-2.725,1.716c-5.741,3.223-12.278,4.678-18.759,4.266l-1.003-0.074
		c-4.618-0.431-9.178-1.828-13.374-4.193c-0.934-0.527-1.855-1.086-2.75-1.711c-0.678-0.473-1.345-0.972-1.996-1.501
		c-11.938-9.71-15.501-25.95-9.753-39.448l0.404-0.928c1.155-2.502,2.638-4.903,4.456-7.141
		c11.752-14.448,33.068-16.642,47.515-4.893c11.173,9.089,15.012,23.894,10.743,36.822L137.834,119.355z"/>
	<path d="M110.873,102.056c-3.193-2.595-7.901-2.112-10.499,1.08c-2.595,3.192-2.108,7.899,1.084,10.497
		c3.192,2.595,7.898,2.109,10.495-1.084C114.548,109.36,114.063,104.651,110.873,102.056z M111.17,111.914
		c-2.244,2.765-6.315,3.182-9.078,0.937c-2.763-2.246-3.183-6.319-0.936-9.078c2.247-2.761,6.319-3.182,9.081-0.936
		C112.998,105.082,113.417,109.156,111.17,111.914z"/>
	<path d="M96.639,118.026l-10.497,12.658c-0.18,0.213-0.15,0.532,0.065,0.709c0.094,0.077,0.208,0.115,0.321,0.115
		c0.146,0,0.288-0.061,0.387-0.184l10.499-12.654c0.177-0.213,0.149-0.532-0.065-0.71C97.133,117.783,96.815,117.813,96.639,118.026
		z"/>
	<path d="M125.468,83.314c-0.214-0.177-0.532-0.148-0.711,0.068L114.4,95.865c-0.179,0.215-0.148,0.532,0.065,0.709
		c0.095,0.08,0.209,0.118,0.322,0.118c0.144,0,0.288-0.063,0.386-0.183l10.359-12.486C125.712,83.81,125.681,83.491,125.468,83.314z
		"/>
	<path d="M127.434,85.794l-3.336,3.192c-0.201,0.194-0.207,0.51-0.016,0.712c0.1,0.104,0.231,0.156,0.362,0.156
		c0.126,0,0.253-0.046,0.35-0.139l3.338-3.192c0.199-0.191,0.206-0.51,0.014-0.712C127.955,85.611,127.637,85.603,127.434,85.794z"
		/>
</g>
</svg>
