<?xml version="1.0" encoding="utf-8"?>
<!-- Generator: Adobe Illustrator 17.1.0, SVG Export Plug-In . SVG Version: 6.00 Build 0)  -->
<!DOCTYPE svg PUBLIC "-//W3C//DTD SVG 1.1//EN" "http://www.w3.org/Graphics/SVG/1.1/DTD/svg11.dtd">
<svg version="1.1" id="Layer_1" xmlns="http://www.w3.org/2000/svg" xmlns:xlink="http://www.w3.org/1999/xlink" x="0px" y="0px"
	 viewBox="-4.968 -3.844 113.333 111.333" enable-background="new -4.968 -3.844 113.333 111.333" xml:space="preserve">
<g id="Layer_1_1_">
	<g>
		<g>
			<g>
				<path fill="#FFFFFF" d="M61.766,73.012h17.758c2.232,0,4.047-1.815,4.047-4.049V35.014c0-2.231-1.815-4.049-4.047-4.049H24.877
					c-2.232,0-4.048,1.816-4.048,4.049v33.949c0,2.232,1.815,4.049,4.048,4.049h17.759H61.766z M81.571,69.064
					c0,1.129-0.918,2.047-2.047,2.047H24.877c-1.13,0-2.048-0.918-2.048-2.047v-34.05c0-1.129,0.918-2.049,2.048-2.049h54.647
					c1.129,0,2.047,0.92,2.047,2.049V69.064L81.571,69.064z"/>
			</g>
		</g>
	</g>
	<path fill="#FFFFFF" d="M52.2,63.427c-6.307,0-11.439-5.131-11.439-11.437c0-6.307,5.131-11.438,11.439-11.438
		c6.308,0,11.438,5.131,11.438,11.438C63.638,58.296,58.508,63.427,52.2,63.427z M52.2,42.052c-5.48,0-9.939,4.458-9.939,9.938
		c0,5.479,4.459,9.937,9.939,9.937c5.48,0,9.938-4.458,9.938-9.937C62.138,46.51,57.68,42.052,52.2,42.052z"/>
	<path fill="#FFFFFF" d="M48.804,57.057c-0.09,0-0.181-0.024-0.261-0.073c-0.149-0.091-0.239-0.253-0.239-0.427v-9.137
		c0-0.174,0.09-0.335,0.238-0.426c0.148-0.091,0.332-0.099,0.487-0.021l8.979,4.53c0.168,0.084,0.273,0.256,0.274,0.445
		c0.001,0.188-0.105,0.36-0.272,0.446l-8.979,4.607C48.961,57.039,48.883,57.057,48.804,57.057z M49.304,48.233v7.506l7.376-3.784
		L49.304,48.233z"/>
</g>
<g id="Layer_2">
</g>
</svg>
