<?xml version="1.0" encoding="utf-8"?>
<!-- Generator: Adobe Illustrator 17.1.0, SVG Export Plug-In . SVG Version: 6.00 Build 0)  -->
<!DOCTYPE svg PUBLIC "-//W3C//DTD SVG 1.1//EN" "http://www.w3.org/Graphics/SVG/1.1/DTD/svg11.dtd">
<svg version="1.1" id="Layer_1" xmlns="http://www.w3.org/2000/svg" xmlns:xlink="http://www.w3.org/1999/xlink" x="0px" y="0px"
	 viewBox="0 0 144 144" enable-background="new 0 0 144 144" xml:space="preserve">
<path fill="#FFFFFF" d="M97.134,45.347c-0.974-0.552-2.211-0.542-3.124,0.013c-5.146,2.935-5.146,2.935-7.724,4.412l-7.944,4.549
	v-6.273c0-1.132-0.589-2.141-1.576-2.7c-0.957-0.542-2.25-0.519-3.124,0.013c-5.146,2.935-5.146,2.935-7.723,4.412l-0.736,0.422
	c-2.816,1.613-8.34,4.777-22.484,12.869c-0.968,0.588-1.546,1.592-1.546,2.685c0,1.129,0.633,2.197,1.586,2.706
	c5.144,2.952,5.144,2.952,7.721,4.424l1.095,0.626c2.922,1.67,8.558,4.891,22.112,12.646c0.474,0.265,1.024,0.41,1.55,0.41
	c0.532,0,1.083-0.146,1.554-0.414c0.984-0.562,1.572-1.571,1.572-2.7v-6.271l15.692,8.975c0.48,0.269,1.017,0.41,1.55,0.41
	s1.084-0.146,1.552-0.413c0.985-0.562,1.573-1.571,1.573-2.701V48.047C98.709,46.915,98.12,45.905,97.134,45.347z M76.342,83.444
	c0,0.408-0.206,0.759-0.562,0.963c-0.339,0.19-0.792,0.189-1.129,0c-13.546-7.75-19.182-10.971-22.104-12.641l-1.095-0.626
	c-2.577-1.472-2.577-1.472-7.745-4.437c-0.332-0.177-0.555-0.562-0.555-0.957c0-0.394,0.213-0.75,0.562-0.962
	c14.122-8.079,19.647-11.244,22.463-12.856l0.736-0.422c2.577-1.476,2.577-1.476,7.743-4.423c0.153-0.093,0.348-0.144,0.549-0.144
	c0.206,0,0.405,0.051,0.575,0.148c0.357,0.202,0.562,0.552,0.562,0.96v7.418l-13.276,7.597c-0.969,0.588-1.547,1.592-1.547,2.685
	c0,1.129,0.633,2.197,1.586,2.706c5.144,2.952,5.144,2.952,7.721,4.424l5.516,3.153V83.444z M96.709,83.444
	c0,0.408-0.205,0.759-0.563,0.963c-0.336,0.192-0.791,0.189-1.127,0l-16.677-9.538v0l-0.443-0.253l-0.06-0.035l0,0l-6.019-3.441
	c-2.577-1.472-2.577-1.472-7.745-4.437c-0.332-0.177-0.555-0.562-0.555-0.957c0-0.394,0.213-0.75,0.562-0.962l13.757-7.872l0,0
	l9.441-5.406c2.576-1.476,2.576-1.476,7.743-4.423c0.32-0.193,0.782-0.19,1.124,0.004c0.357,0.202,0.562,0.552,0.562,0.96V83.444z"
	/>
</svg>
