<svg id="Layer_1" data-name="Layer 1" xmlns="http://www.w3.org/2000/svg" viewBox="0 0 44.24 66.91"><defs><style>.cls-1{fill:#fff;}</style></defs><title>Icon_RH_Media_Radio_RGB_White</title><path class="cls-1" d="M44.24 37.6v-5.16a1 1 0 0 0-1-1h-2.12v-.29a2.69 2.69 0 0 0-2.28-2.65v-14A14.52 14.52 0 0 0 24.34 0H19.9A14.51 14.51 0 0 0 5.4 14.5v14a2.69 2.69 0 0 0-2.28 2.65v.29H1a1 1 0 0 0-1 1v5.16a19.91 19.91 0 0 0 18.64 19.84v3.46H6.41a3.29 3.29 0 0 0-3.29 3.29v1.72a1 1 0 0 0 1 1h36a1 1 0 0 0 1-1v-1.72a3.3 3.3 0 0 0-3.29-3.29H25.6v-3.46A19.91 19.91 0 0 0 44.24 37.6zM36.8 13.73h-5.17a.87.87 0 0 1 0-1.73h5a12.51 12.51 0 0 1 .17 1.73zM28.68 2.79a12.44 12.44 0 0 1 1.73.79v2.63a.87.87 0 1 1-1.73 0zM21.25 2h1.73v5.21a.87.87 0 1 1-1.73 0zm-7.42 1.58a12.44 12.44 0 0 1 1.73-.79v3.42a.87.87 0 0 1-1.73 0zM7.65 12h5a.87.87 0 0 1 0 1.73H7.44A12.51 12.51 0 0 1 7.65 12zm-.25 5.68h5.21a.87.87 0 0 1 0 1.73H7.4zm0 5.68h5.21a.87.87 0 0 1 0 1.73H7.4zm0 2.73h5.21a1.87 1.87 0 0 0 0-3.73H7.4v-1.95h5.21a1.87 1.87 0 0 0 0-3.73H7.4v-1.95h5.21a1.87 1.87 0 0 0 0-3.73h-4.7a12.54 12.54 0 0 1 4.92-6.79v2a1.87 1.87 0 0 0 3.73 0V2.47A12.44 12.44 0 0 1 19.9 2h.36v5.21a1.87 1.87 0 1 0 3.73 0V2h.36a12.44 12.44 0 0 1 3.33.47v3.74a1.87 1.87 0 1 0 3.73 0v-2A12.54 12.54 0 0 1 36.33 11h-4.7a1.87 1.87 0 0 0 0 3.73h5.21v1.95h-5.21a1.87 1.87 0 0 0 0 3.73h5.21v1.95h-5.21a1.87 1.87 0 0 0 0 3.73h5.21v2.37H7.4zm29.44-8.41v1.73h-5.21a.87.87 0 0 1 0-1.73zm0 5.68v1.73h-5.21a.87.87 0 0 1 0-1.73zM5.12 31.15a.69.69 0 0 1 .69-.69h32.62a.69.69 0 0 1 .69.69v2.58a.69.69 0 0 1-.69.69H5.81a.69.69 0 0 1-.69-.69zm31.72 5.28v1.17a12.51 12.51 0 0 1-12.5 12.5H19.9A12.51 12.51 0 0 1 7.4 37.6v-1.17zm1 26.47a1.29 1.29 0 0 1 1.28 1.29v.72h-34v-.72a1.29 1.29 0 0 1 1.29-1.29zm-17.19-2v-3.4h3v3.4zm3.71-5.4H19.9A17.92 17.92 0 0 1 2 37.6v-4.16h1.12v.29a2.69 2.69 0 0 0 2.28 2.65v1.22a14.51 14.51 0 0 0 14.5 14.5h4.45a14.52 14.52 0 0 0 14.5-14.5v-1.21a2.69 2.69 0 0 0 2.27-2.66v-.29h1.12v4.16a17.92 17.92 0 0 1-17.9 17.9z"/></svg>