<svg id="Layer_1" data-name="Layer 1" xmlns="http://www.w3.org/2000/svg" viewBox="0 0 65.52 65.52"><defs><style>.cls-1{fill:#fff;}</style></defs><title>Icon_RH_Media_RecordButton_RGB_White</title><path class="cls-1" d="M54,28.8A25.2,25.2,0,1,0,79.2,54,25.2,25.2,0,0,0,54,28.8Zm0,48.4A23.2,23.2,0,1,1,77.2,54,23.23,23.23,0,0,1,54,77.2Zm0-34A10.8,10.8,0,1,0,64.8,54,10.79,10.79,0,0,0,54,43.2Zm0-22A32.76,32.76,0,1,0,86.76,54,32.76,32.76,0,0,0,54,21.24Zm0,64.52A31.76,31.76,0,1,1,85.76,54,31.8,31.8,0,0,1,54,85.76Z" transform="translate(-21.24 -21.24)"/></svg>