<svg id="Layer_1" data-name="Layer 1" xmlns="http://www.w3.org/2000/svg" viewBox="0 0 108 108"><defs><style>.cls-1{fill:#fff;}</style></defs><title>Icon_RH_Media_AudioFile_RGB_White</title><path class="cls-1" d="M20.75,45.92a1,1,0,0,0-1,1V61.08a1,1,0,1,0,2,0V46.92A1,1,0,0,0,20.75,45.92Z"/><path class="cls-1" d="M28.78,37a1,1,0,0,0-1,1V70a1,1,0,0,0,2,0V38A1,1,0,0,0,28.78,37Z"/><path class="cls-1" d="M36.81,26.48a1,1,0,0,0-1,1v53a1,1,0,0,0,2,0v-53A1,1,0,0,0,36.81,26.48Z"/><path class="cls-1" d="M52.88,48.32a1,1,0,0,0-1,1v9.36a1,1,0,0,0,2,0V49.32A1,1,0,0,0,52.88,48.32Z"/><path class="cls-1" d="M44.84,37a1,1,0,0,0-1,1V70a1,1,0,0,0,2,0V38A1,1,0,0,0,44.84,37Z"/><path class="cls-1" d="M85,45.92a1,1,0,0,0-1,1V61.08a1,1,0,1,0,2,0V46.92A1,1,0,0,0,85,45.92Z"/><path class="cls-1" d="M77,37a1,1,0,0,0-1,1V70a1,1,0,0,0,2,0V38A1,1,0,0,0,77,37Z"/><path class="cls-1" d="M68.94,26.48a1,1,0,0,0-1,1v53a1,1,0,0,0,2,0v-53A1,1,0,0,0,68.94,26.48Z"/><path class="cls-1" d="M60.91,37a1,1,0,0,0-1,1V70a1,1,0,0,0,2,0V38A1,1,0,0,0,60.91,37Z"/></svg>