<?xml version="1.0" encoding="utf-8"?>
<!-- Generator: Adobe Illustrator 17.1.0, SVG Export Plug-In . SVG Version: 6.00 Build 0)  -->
<!DOCTYPE svg PUBLIC "-//W3C//DTD SVG 1.1//EN" "http://www.w3.org/Graphics/SVG/1.1/DTD/svg11.dtd">
<svg version="1.1" id="Layer_1" xmlns="http://www.w3.org/2000/svg" xmlns:xlink="http://www.w3.org/1999/xlink" x="0px" y="0px"
	 viewBox="0 0 144 144" enable-background="new 0 0 144 144" xml:space="preserve">
<path d="M98.895,73.176c-13.92-7.963-18.559-10.62-20.878-11.949c-2.32-1.329-2.32-1.329-6.928-3.957
	c-0.859-0.522-2.042-0.532-2.933-0.025c-0.92,0.521-1.469,1.462-1.469,2.517v5.473l-7-4.008c-2.32-1.329-2.32-1.329-6.928-3.957
	c-0.874-0.53-2.025-0.541-2.934-0.025c-0.92,0.521-1.469,1.462-1.469,2.517V91.62c0,1.053,0.548,1.993,1.467,2.518
	c0.436,0.248,0.949,0.385,1.445,0.385s0.995-0.132,1.453-0.387l13.965-7.988v5.472c0,1.052,0.548,1.993,1.467,2.519
	c0.437,0.247,0.95,0.384,1.445,0.384c0.496,0,0.995-0.132,1.453-0.387l20.878-11.94c2.32-1.325,2.32-1.325,6.924-3.967
	c0.913-0.489,1.503-1.484,1.503-2.537C100.357,74.674,99.819,73.738,98.895,73.176z M51.738,92.394
	c-0.294,0.165-0.654,0.161-0.926,0.007c-0.291-0.166-0.457-0.45-0.457-0.78V59.762c0-0.33,0.166-0.613,0.455-0.777
	c0.28-0.158,0.654-0.16,0.933,0.009c4.629,2.64,4.629,2.64,6.948,3.968l7.995,4.577v0l0.392,0.224l0.112,0.064v0l12.358,7.071
	c0.304,0.185,0.479,0.474,0.479,0.793s-0.18,0.631-0.473,0.788c-4.628,2.654-4.628,2.654-6.946,3.979l-5.417,3.097l0,0
	L51.738,92.394z M97.885,76.479c-4.628,2.654-4.628,2.654-6.946,3.979L70.069,92.394c-0.294,0.165-0.653,0.161-0.926,0.007
	c-0.29-0.166-0.457-0.45-0.457-0.78v-6.616l4.913-2.809c2.32-1.325,2.32-1.325,6.925-3.968c0.912-0.489,1.502-1.484,1.502-2.536
	c0-1.018-0.538-1.953-1.463-2.516L68.687,66.38v-6.618c0-0.33,0.166-0.613,0.455-0.777c0.271-0.152,0.641-0.167,0.934,0.009
	c4.629,2.64,4.629,2.64,6.947,3.968c2.319,1.329,6.958,3.986,20.856,11.937c0.304,0.185,0.479,0.474,0.479,0.793
	S98.178,76.322,97.885,76.479z"/>
</svg>
