<?xml version="1.0" encoding="utf-8"?>
<!-- Generator: Adobe Illustrator 17.1.0, SVG Export Plug-In . SVG Version: 6.00 Build 0)  -->
<!DOCTYPE svg PUBLIC "-//W3C//DTD SVG 1.1//EN" "http://www.w3.org/Graphics/SVG/1.1/DTD/svg11.dtd">
<svg version="1.1" id="Layer_1" xmlns="http://www.w3.org/2000/svg" xmlns:xlink="http://www.w3.org/1999/xlink" x="0px" y="0px"
	 viewBox="0 0 144 144" enable-background="new 0 0 144 144" xml:space="preserve">
<path fill="#231F20" d="M50.779,96.561c-0.496,0-1.01-0.138-1.45-0.388c-0.918-0.523-1.465-1.462-1.465-2.513V45.104
	c0-1.052,0.548-1.99,1.466-2.51c0.905-0.513,2.067-0.508,2.93,0.016c7.056,4.024,7.056,4.024,10.592,6.05
	c3.535,2.025,10.604,6.076,31.822,18.214c0.925,0.562,1.462,1.495,1.462,2.51c0,1.049-0.583,2.04-1.486,2.522
	c-7.055,4.048-7.055,4.048-10.59,6.067c-3.535,2.021-10.604,6.06-31.823,18.199C51.785,96.424,51.271,96.561,50.779,96.561z
	 M50.797,44.204c-0.166,0-0.332,0.044-0.48,0.129c-0.296,0.168-0.453,0.434-0.453,0.771V93.66c0,0.338,0.157,0.605,0.455,0.774
	c0.274,0.156,0.646,0.156,0.934-0.004c21.21-12.135,28.28-16.175,31.814-18.194s3.534-2.02,10.613-6.08
	c0.275-0.148,0.456-0.467,0.456-0.774s-0.184-0.608-0.478-0.788c-21.196-12.125-28.266-16.175-31.801-18.2
	c-3.534-2.025-3.534-2.025-10.613-6.062C51.098,44.243,50.952,44.204,50.797,44.204z"/>
</svg>
