<?xml version="1.0" encoding="utf-8"?>
<!-- Generator: Adobe Illustrator 17.1.0, SVG Export Plug-In . SVG Version: 6.00 Build 0)  -->
<!DOCTYPE svg PUBLIC "-//W3C//DTD SVG 1.1//EN" "http://www.w3.org/Graphics/SVG/1.1/DTD/svg11.dtd">
<svg version="1.1" id="Layer_1" xmlns="http://www.w3.org/2000/svg" xmlns:xlink="http://www.w3.org/1999/xlink" x="0px" y="0px"
	 viewBox="0 0 200 200" enable-background="new 0 0 200 200" xml:space="preserve">
<g>
	<path d="M142.741,67.437c0.005-0.557-0.266-1.081-0.726-1.403c-0.455-0.316-1.057-0.387-1.557-0.2l-19.197,7.03
		c-0.673,0.246-1.121,0.892-1.116,1.617l0.006,19.958H103.83v-5.741c0-1.668-1.356-3.024-3.024-3.024h-31.89l32.135-6.662
		c1.611-0.335,2.669-1.922,2.357-3.539l-0.379-1.968c-0.309-1.596-1.929-2.677-3.522-2.348l-39.844,8.26
		c-1.611,0.335-2.67,1.922-2.357,3.539l0.381,1.967c0.169,0.874,0.713,1.599,1.446,2.018c-0.356,0.497-0.572,1.1-0.572,1.756v19.483
		c0,1.668,1.357,3.024,3.025,3.024h17.383v20.064c0,1.654,1.346,3,3,3h48.843c1.654,0,3-1.346,3-3V100.65
		c0.904,0.559,1.976,0.888,3.128,0.888c3.204,0,5.811-2.513,5.811-5.6L142.741,67.437z M120.152,96.438v0.119
		c-1.502-0.055-2.888,0.461-3.951,1.334H103.83v-1.453H120.152z M118.289,109.341c0,1.957-1.593,3.55-3.551,3.55
		c-1.957,0-3.55-1.593-3.55-3.55c0-1.958,1.593-3.55,3.55-3.55c0.329,0,0.641,0.06,0.943,0.144c0.539,0.564,1.193,1.024,1.931,1.339
		C118.034,107.856,118.289,108.567,118.289,109.341z M114.738,104.791c-2.509,0-4.55,2.041-4.55,4.55c0,2.509,2.041,4.55,4.55,4.55
		c2.51,0,4.551-2.041,4.551-4.55c0-0.597-0.127-1.159-0.341-1.679c0.327,0.056,0.661,0.09,1.005,0.09
		c3.204,0,5.811-2.512,5.811-5.601v-2.761h2.528c0.136,0,0.25,0.115,0.25,0.25v29.156c-0.055-0.068-0.111-0.138-0.182-0.21
		l-10.363-10.665c-0.897-0.922-2.56-1.003-3.542-0.167l-2.952,2.513c-0.58,0.493-1.453,0.381-1.891-0.238l-6.782-9.618
		c0.609-0.554,1-1.345,1-2.231v-8.789h11.076c-0.483,0.816-0.763,1.758-0.763,2.761c0,0.958,0.252,1.86,0.693,2.649
		C114.803,104.8,114.772,104.791,114.738,104.791z M131.329,94.492c-0.168-0.032-0.34-0.054-0.519-0.054h-5.047V82.31l11.37-4.185
		v12.22C134.344,90.237,132.005,92.043,131.329,94.492z M84.236,111.204h10.007l-10.007,16.89V111.204z M84.915,128.909
		l10.491-17.705h5.399c0.422,0,0.823-0.088,1.188-0.245l6.802,9.646c0.761,1.079,2.349,1.283,3.355,0.424l2.952-2.513
		c0.597-0.509,1.631-0.457,2.177,0.103l10.363,10.665c0.011,0.012,0.017,0.021,0.027,0.031H84.76
		C84.779,129.193,84.829,129.056,84.915,128.909z M101.189,87.801c0.348,0.149,0.592,0.494,0.592,0.896v2.596h-3.587L101.189,87.801
		z M99.939,87.721l-3.063,3.571h-3.524l3.065-3.571H99.939z M95.099,87.721l-3.062,3.571H88.29l3.062-3.571H95.099z M90.034,87.721
		l-3.062,3.571h-3.525l3.064-3.571H90.034z M85.192,87.721l-3.062,3.571h-3.748l3.064-3.571H85.192z M80.128,87.721l-3.062,3.571
		H73.54l3.064-3.571H80.128z M75.286,87.721l-3.062,3.571h-3.748l3.064-3.571H75.286z M70.222,87.721l-3.062,3.571h-3.524
		l3.063-3.571H70.222z M62.317,91.293h-1.708v-2.596c0-0.538,0.438-0.976,0.976-0.976h3.797L62.317,91.293z M99.913,73.114
		c0.066-0.014,0.134-0.021,0.2-0.021c0.463,0,0.863,0.331,0.952,0.788l0.379,1.968c0.104,0.54-0.262,1.09-0.8,1.202l-0.078,0.016
		l-4.175-3.224L99.913,73.114z M95.102,74.112l4.175,3.224l-3.449,0.715l-4.176-3.224L95.102,74.112z M90.36,75.095l4.176,3.224
		l-3.67,0.761l-4.174-3.224L90.36,75.095z M85.402,76.123l4.175,3.224l-3.451,0.715l-4.176-3.224L85.402,76.123z M80.66,77.106
		l4.175,3.224l-3.668,0.761l-4.177-3.224L80.66,77.106z M75.7,78.134l4.176,3.224l-3.449,0.715l-4.176-3.224L75.7,78.134z
		 M70.96,79.117l4.177,3.224l-3.671,0.761l-4.174-3.224L70.96,79.117z M66.001,80.145l4.176,3.224l-3.448,0.714l-4.177-3.223
		L66.001,80.145z M59.65,84.543l-0.381-1.967c-0.104-0.54,0.263-1.09,0.8-1.202l1.191-0.247l4.177,3.224l-4.634,0.96
		C60.272,85.419,59.751,85.066,59.65,84.543z M60.609,108.18V92.293h41.172v15.887c0,0.538-0.438,0.976-0.976,0.976H61.585
		C61.047,109.155,60.609,108.718,60.609,108.18z M130.81,132.269H81.968c-0.551,0-1-0.448-1-1v-20.064h1.768v17.861
		c0,0.965,0.785,1.75,1.75,1.75h0.708c0.084,0.009,0.163,0.025,0.252,0.025h41.962c0.137,0,0.258-0.01,0.371-0.025h0.513
		c0.965,0,1.75-0.785,1.75-1.75V99.641c0-0.965-0.785-1.75-1.75-1.75h-2.528v-1.453h5.047c0.123,0,0.237,0.029,0.347,0.07
		c0.077,0.738,0.307,1.433,0.653,2.059v32.701C131.81,131.82,131.362,132.269,130.81,132.269z M136.938,99.537
		c-2.102,0-3.811-1.614-3.811-3.599c0-1.984,1.71-3.598,3.811-3.598c0.285,0,0.589,0.042,0.957,0.132l1.238,0.304v-17.52
		l-15.37,5.657v21.237c0,1.985-1.709,3.601-3.811,3.601c-2.101,0-3.81-1.615-3.81-3.601c0-1.984,1.709-3.599,3.81-3.599
		c0.284,0,0.59,0.043,0.961,0.133l1.238,0.304V74.938l-0.004-0.27l18.593-6.809l0.008,28.079
		C140.749,97.923,139.04,99.537,136.938,99.537z"/>
	<path d="M85.022,99.612l-5.318-3.074c-0.311-0.18-0.62-0.271-0.918-0.271c-0.664,0-1.335,0.486-1.335,1.571v6.139
		c0,1.086,0.671,1.572,1.337,1.572c0.297,0,0.605-0.091,0.917-0.271l5.315-3.065c0.554-0.318,0.871-0.792,0.871-1.3
		C85.893,100.406,85.575,99.932,85.022,99.612z M84.521,101.348l-5.315,3.065c-0.196,0.112-0.336,0.137-0.418,0.137
		c-0.293,0-0.337-0.358-0.337-0.572v-6.139c0-0.214,0.044-0.571,0.335-0.571c0.082,0,0.223,0.023,0.418,0.137l5.318,3.074
		c0.231,0.134,0.369,0.297,0.369,0.436C84.892,101.052,84.753,101.214,84.521,101.348z"/>
</g>
</svg>
