<svg data-name="Layer 1" xmlns="http://www.w3.org/2000/svg" viewBox="0 0 55.08 58.63"><title>Icon_RH_Media_Television_RGB_Black</title><path d="M39.1 23.81c-10.25-.29-20.7-.29-30.95 0a2.47 2.47 0 0 0-2.33 2.14 85.19 85.19 0 0 0 0 25.24 2.47 2.47 0 0 0 2.33 2.14c5.13.14 10.33.22 15.48.22s10.35-.07 15.47-.22a2.47 2.47 0 0 0 2.33-2.14 85.2 85.2 0 0 0 0-25.24 2.47 2.47 0 0 0-2.33-2.14zM39.94 51a1 1 0 0 1-.88.82c-10.22.29-20.64.29-30.87 0a1 1 0 0 1-.88-.82 83 83 0 0 1 0-24.87 1 1 0 0 1 .88-.82c5.11-.14 10.35-.25 15.43-.25s10.32.07 15.44.22a1 1 0 0 1 .88.82 83 83 0 0 1 0 24.9zm7.7-3.94a3.1 3.1 0 1 0 3.1 3.1 3.1 3.1 0 0 0-3.1-3.1zm0 5.2a2.1 2.1 0 1 1 2.1-2.1 2.1 2.1 0 0 1-2.1 2.13zm3.85-25.81h-7.7a.5.5 0 0 0 0 1h7.69a.5.5 0 0 0 0-1zm0 2.23h-7.7a.5.5 0 0 0 0 1h7.69a.5.5 0 0 0 0-1zm-3.85 9.96a3.1 3.1 0 1 0 3.1 3.1 3.1 3.1 0 0 0-3.1-3.1zm0 5.2a2.1 2.1 0 1 1 2.1-2.1 2.1 2.1 0 0 1-2.1 2.1zm3.44-25.34H36.84c-1-1.49-3.66-2.44-6.6-2.81l6.58-14.63a.75.75 0 0 0-1.37-.61l-6.79 15.12h-1.12a20.46 20.46 0 0 0-2.47.14l-7.6-9.32a.75.75 0 0 0-1.17.94l7 8.64c-2.31.47-4.27 1.34-5.11 2.57H4a4 4 0 0 0-4 4v32.09a4 4 0 0 0 4 4h47.08a4 4 0 0 0 4-4V22.51a4 4 0 0 0-4-4zm-23.54-1.44a14.63 14.63 0 0 1 7.07 1.47H20.47a14.63 14.63 0 0 1 7.07-1.47zm25.54 37.57a2 2 0 0 1-2 2H4a2 2 0 0 1-2-2V22.51a2 2 0 0 1 2-2h47.08a2 2 0 0 1 2 2zm-1.6-23.69h-7.69a.5.5 0 0 0 0 1h7.69a.5.5 0 0 0 0-1zm0 2.23h-7.69a.5.5 0 0 0 0 1h7.69a.5.5 0 0 0 0-1zm0 2.23h-7.69a.5.5 0 0 0 0 1h7.69a.5.5 0 0 0 0-1z"/></svg>