<svg id="Layer_1" data-name="Layer 1" xmlns="http://www.w3.org/2000/svg" viewBox="0 0 108 108"><defs><style>.cls-1{fill:none;}.cls-2{fill:#fff;}</style></defs><title>Icon_RH_Media_EighthNote_RGB_White</title><path class="cls-1" d="M67.63,36c-0.61-.64-1.25-1.27-1.89-1.9-2.49-2.45-5.06-5-5.94-8.48,0-.15-0.07-0.31-0.11-0.46a4.13,4.13,0,0,0-.41-1.25A2.36,2.36,0,0,0,57.15,23a7.06,7.06,0,0,0-3,.94c-0.59.44-.84,2-1,2.86l-0.06.38-7.2,41.53h0l-1-.17h0l0.94,0.24a1.08,1.08,0,0,1-.51.74,1,1,0,0,1-.87.09,7.39,7.39,0,0,0-2.77-.52,7.94,7.94,0,0,0-5.05,14.29,8.33,8.33,0,0,0,10.5-.73c2.29-2.31,3-5.72,3.67-9.62l5.78-34.65a2.24,2.24,0,0,1,.82-1.55A2.14,2.14,0,0,1,59.8,37C66,40.46,70,46.36,70.22,52.4c0.15,4.7-2,9.09-4.13,12.61a8,8,0,0,0,4.15-2.46,16.35,16.35,0,0,0,4-13.51A24.24,24.24,0,0,0,67.63,36Z"/><path class="cls-2" d="M76.25,48.77a26.22,26.22,0,0,0-7.16-14.14c-0.62-.66-1.28-1.31-1.94-2-2.4-2.36-4.66-4.58-5.4-7.54l-0.1-.42A5.75,5.75,0,0,0,61,22.83a4.28,4.28,0,0,0-4-1.78,8.93,8.93,0,0,0-4.09,1.33c-1.24.93-1.54,2.78-1.76,4.14L44.06,67.43A10,10,0,0,0,35.44,85a9.88,9.88,0,0,0,6,1.95,10.08,10.08,0,0,0,7.14-2.86c2.71-2.72,3.51-6.46,4.22-10.7l5.78-34.65,0-.14,0.24,0.12c5.62,3.13,9.23,8.39,9.4,13.72,0.15,4.85-2.48,9.49-4.79,13A1,1,0,0,0,64.09,67c2.51,0.47,5.28-.64,7.6-3.06A18.37,18.37,0,0,0,76.25,48.77Zm-6,13.78A8,8,0,0,1,66.1,65c2.18-3.53,4.28-7.92,4.13-12.61C70,46.36,66,40.46,59.8,37a2.14,2.14,0,0,0-2.39-.11,2.24,2.24,0,0,0-.82,1.55L50.81,73.08c-0.65,3.9-1.38,7.31-3.67,9.62a8.33,8.33,0,0,1-10.5.73A7.94,7.94,0,0,1,41.7,69.15a7.39,7.39,0,0,1,2.77.52,1,1,0,0,0,.87-0.09,1.08,1.08,0,0,0,.51-0.74l-0.94-.24h0l1,0.17h0l7.2-41.53,0.06-.38c0.15-.9.39-2.42,1-2.86a7.06,7.06,0,0,1,3-.94,2.36,2.36,0,0,1,2.14.85,4.13,4.13,0,0,1,.41,1.25c0,0.16.07,0.31,0.11,0.46,0.88,3.5,3.45,6,5.94,8.48,0.64,0.63,1.28,1.26,1.89,1.9a24.24,24.24,0,0,1,6.63,13A16.35,16.35,0,0,1,70.24,62.55Z"/></svg>