<?xml version="1.0" encoding="utf-8"?>
<!-- Generator: Adobe Illustrator 17.1.0, SVG Export Plug-In . SVG Version: 6.00 Build 0)  -->
<!DOCTYPE svg PUBLIC "-//W3C//DTD SVG 1.1//EN" "http://www.w3.org/Graphics/SVG/1.1/DTD/svg11.dtd">
<svg version="1.1" id="Layer_1" xmlns="http://www.w3.org/2000/svg" xmlns:xlink="http://www.w3.org/1999/xlink" x="0px" y="0px"
	 viewBox="0 0 144 144" enable-background="new 0 0 144 144" xml:space="preserve">
<g>
	<path fill="#FFFFFF" d="M74.166,51.779c-0.324-0.138-0.696-0.07-0.949,0.174L60.713,63.98H48.99c-0.482,0-0.875,0.392-0.875,0.875
		v14.199c0,0.483,0.393,0.875,0.875,0.875h10.015h0.075h1.451l12.688,12.119c0.166,0.158,0.385,0.242,0.605,0.242
		c0.115,0,0.232-0.023,0.344-0.07c0.322-0.138,0.531-0.455,0.531-0.805V65.178v-0.941V52.584
		C74.699,52.233,74.489,51.917,74.166,51.779z M72.949,66.256V89.37L61.486,78.422c-0.162-0.155-0.379-0.242-0.604-0.242H60.83
		h-0.075h-10.89V65.73h11.201c0.226,0,0.443-0.087,0.606-0.244L72.949,54.64v11.347V66.256z"/>
	<path fill="#FFFFFF" d="M82.893,63.969c-0.17-0.16-0.436-0.152-0.596,0.016c-0.16,0.17-0.152,0.435,0.016,0.596
		c1.707,1.621,2.646,3.799,2.646,6.133c0,2.402-1.037,4.705-2.842,6.318c-0.174,0.154-0.19,0.42-0.033,0.594
		c0.082,0.094,0.197,0.141,0.314,0.141c0.1,0,0.199-0.035,0.279-0.107c1.983-1.771,3.121-4.303,3.121-6.945
		C85.799,68.146,84.766,65.752,82.893,63.969z"/>
	<path fill="#FFFFFF" d="M88.477,55.311c-0.227,0.232-0.219,0.607,0.016,0.832c4.008,3.859,6.217,9.033,6.217,14.57
		c0,5.641-2.393,11.07-6.562,14.902c-0.238,0.219-0.254,0.592-0.035,0.832c0.117,0.125,0.274,0.189,0.434,0.189
		c0.143,0,0.285-0.051,0.396-0.154c4.414-4.055,6.943-9.801,6.943-15.77c0-5.859-2.336-11.336-6.578-15.418
		C89.074,55.068,88.701,55.076,88.477,55.311z"/>
	<path fill="#FFFFFF" d="M85.566,59.033c-0.203-0.193-0.521-0.186-0.713,0.018c-0.193,0.201-0.184,0.521,0.018,0.713
		c3.039,2.889,4.713,6.777,4.713,10.949c0,4.293-1.846,8.402-5.061,11.273c-0.207,0.186-0.227,0.504-0.039,0.713
		c0.1,0.111,0.236,0.168,0.375,0.168c0.121,0,0.24-0.043,0.336-0.129c3.43-3.062,5.399-7.445,5.399-12.025
		C90.594,66.262,88.807,62.113,85.566,59.033z"/>
</g>
</svg>
