<svg id="Layer_1" data-name="Layer 1" xmlns="http://www.w3.org/2000/svg" viewBox="0 0 108 108"><title>Icon_RH_Media_AudioFile_RGB_Flat</title><path d="M21.88,45.92a1,1,0,0,0-1,1V61.08a1,1,0,1,0,2,0V46.92A1,1,0,0,0,21.88,45.92Z"/><path d="M29.91,37a1,1,0,0,0-1,1V70a1,1,0,0,0,2,0V38A1,1,0,0,0,29.91,37Z"/><path d="M37.94,26.48a1,1,0,0,0-1,1v53a1,1,0,0,0,2,0v-53A1,1,0,0,0,37.94,26.48Z"/><path d="M54,48.32a1,1,0,0,0-1,1v9.36a1,1,0,0,0,2,0V49.32A1,1,0,0,0,54,48.32Z"/><path d="M46,37a1,1,0,0,0-1,1V70a1,1,0,0,0,2,0V38A1,1,0,0,0,46,37Z"/><path d="M86.12,45.92a1,1,0,0,0-1,1V61.08a1,1,0,1,0,2,0V46.92A1,1,0,0,0,86.12,45.92Z"/><path d="M78.09,37a1,1,0,0,0-1,1V70a1,1,0,0,0,2,0V38A1,1,0,0,0,78.09,37Z"/><path d="M70.06,26.48a1,1,0,0,0-1,1v53a1,1,0,0,0,2,0v-53A1,1,0,0,0,70.06,26.48Z"/><path d="M62,37a1,1,0,0,0-1,1V70a1,1,0,0,0,2,0V38A1,1,0,0,0,62,37Z"/></svg>