<?xml version="1.0" encoding="utf-8"?>
<!-- Generator: Adobe Illustrator 17.1.0, SVG Export Plug-In . SVG Version: 6.00 Build 0)  -->
<!DOCTYPE svg PUBLIC "-//W3C//DTD SVG 1.1//EN" "http://www.w3.org/Graphics/SVG/1.1/DTD/svg11.dtd">
<svg version="1.1" id="Layer_1" xmlns="http://www.w3.org/2000/svg" xmlns:xlink="http://www.w3.org/1999/xlink" x="0px" y="0px"
	 viewBox="0 0 144 144" enable-background="new 0 0 144 144" xml:space="preserve">
<g>
	<g>
		<g>
			<path fill="#FFFFFF" d="M83.324,65.14c-0.17-0.16-0.436-0.152-0.596,0.016c-0.16,0.17-0.152,0.436,0.016,0.596
				c1.707,1.621,2.646,3.799,2.646,6.133c0,2.402-1.037,4.705-2.842,6.318c-0.174,0.154-0.189,0.42-0.033,0.594
				c0.082,0.094,0.197,0.141,0.314,0.141c0.1,0,0.199-0.035,0.279-0.107c1.982-1.771,3.121-4.303,3.121-6.945
				C86.23,69.317,85.197,66.923,83.324,65.14z"/>
			<path fill="#FFFFFF" d="M89.738,56.466c-0.232-0.227-0.605-0.219-0.83,0.016c-0.227,0.233-0.219,0.608,0.016,0.832
				c4.008,3.859,6.217,9.033,6.217,14.57c0,5.641-2.393,11.07-6.562,14.902c-0.238,0.219-0.254,0.592-0.035,0.832
				c0.117,0.125,0.273,0.189,0.434,0.189c0.143,0,0.285-0.051,0.396-0.154c4.414-4.055,6.943-9.801,6.943-15.77
				C96.316,66.024,93.98,60.548,89.738,56.466z"/>
			<path fill="#FFFFFF" d="M85.998,60.204c-0.203-0.193-0.521-0.186-0.713,0.018c-0.193,0.201-0.184,0.521,0.017,0.713
				c3.039,2.889,4.713,6.777,4.713,10.949c0,4.293-1.846,8.402-5.061,11.273c-0.207,0.186-0.227,0.504-0.039,0.713
				c0.1,0.111,0.236,0.168,0.375,0.168c0.121,0,0.24-0.043,0.336-0.129c3.43-3.062,5.398-7.445,5.398-12.025
				C91.025,67.433,89.238,63.284,85.998,60.204z"/>
			<path fill="#FFFFFF" d="M90.891,47.881c-0.488-0.488-1.279-0.488-1.768,0L75.131,61.873v-8.118c0-0.351-0.211-0.668-0.533-0.805
				c-0.324-0.138-0.697-0.07-0.949,0.174L61.144,65.151H49.421c-0.482,0-0.875,0.392-0.875,0.875v14.199
				c0,0.483,0.393,0.875,0.875,0.875h6.48l-9.362,9.362c-0.488,0.487-0.488,1.279,0,1.768c0.244,0.244,0.563,0.366,0.883,0.366
				c0.32,0,0.641-0.122,0.885-0.366l11.13-11.13h0.025h1.501L73.65,93.22c0.166,0.158,0.385,0.242,0.605,0.242
				c0.115,0,0.232-0.023,0.344-0.07c0.322-0.138,0.531-0.455,0.531-0.805V67.802v-2.395l15.76-15.759
				C91.379,49.161,91.379,48.369,90.891,47.881z M50.296,79.351V66.901h11.201c0.225,0,0.443-0.087,0.605-0.244l11.278-10.847v7.812
				l-15.73,15.729H50.296z M73.381,69.552v20.989L61.917,79.593c-0.162-0.155-0.379-0.242-0.604-0.242h-0.103h-0.025l12.195-12.193
				V69.552z"/>
		</g>
	</g>
</g>
</svg>
