<svg id="template" xmlns="http://www.w3.org/2000/svg" viewBox="0 0 67.45 49.98"><defs><style>.cls-1{fill:#fff;}</style></defs><title>Icon_RH_Document_CustomerSnapshot_RGB_White</title><path class="cls-1" d="M23.79 20.75h-4.15c-6 0-6.38 4.42-6.57 6.79l-.35 3.83c0 2.17 1.26 3.28 2.67 4.31l.36.26-.03 1.54.23.2c.55.47 2 1.26 5.79 1.26s5.15-.75 5.73-1.2l.26-.2-.12-1.55.36-.27c1.47-1.08 2.7-2.15 2.7-4.33l-.3-3.87c-.24-2.36-.65-6.77-6.58-6.77zm-1.37.62c-.13.36-.34.8-.48 1.08h-.39a4.76 4.76 0 0 1-.53-1.09zm.36 14.49l-1.06.93-1.07-.93.88-12.78h.39zm4.82-.64l-.59-8.23a.275.275 0 1 0-.55 0l.6 10.27c-.45.35-1.8 1.07-5.34 1.07s-5-.77-5.39-1.11a.24.24 0 0 0 0-.08l.61-10.15a.275.275 0 1 0-.55 0l-.59 8.22c-1.44-1.06-2.41-2-2.41-3.81l.33-3.81c.23-2.86.82-6.22 6-6.22h.73a6.38 6.38 0 0 0 .59 1.32v.06l-1.02 13.24a.31.31 0 0 0 .1.25l1.38 1.2a.31.31 0 0 0 .4 0l1.38-1.2a.31.31 0 0 0 .11-.25l-.9-13.29a11.28 11.28 0 0 0 .56-1.31h.72c5.14 0 5.69 3.53 6 6.22l.3 3.81c-.03 1.82-1.02 2.74-2.47 3.8zm-5.88-15.31a4.32 4.32 0 1 0-4.33-4.32 4.33 4.33 0 0 0 4.33 4.32zm0-8a3.7 3.7 0 1 1-3.7 3.7 3.71 3.71 0 0 1 3.7-3.73zM4.55 45.73H62.9a.5.5 0 0 0 .5-.5V4.75a.5.5 0 0 0-.5-.5H4.55a.5.5 0 0 0-.5.5v40.48a.5.5 0 0 0 .5.5zm.5-40.48H62.4v39.48H5.05zM66.44-.01H1a1 1 0 0 0-1 1v48a1 1 0 0 0 1 1h65.45a1 1 0 0 0 1-1v-48a1 1 0 0 0-1.01-1zm-1 48H2v-46h63.45zM53.93 24.35H38.4a.75.75 0 0 0 0 1.5h15.53a.75.75 0 0 0 0-1.5zm0-4.89H38.4a.75.75 0 0 0 0 1.5h15.53a.75.75 0 0 0 0-1.5zm0 9.78H38.4a.75.75 0 0 0 0 1.5h15.53a.75.75 0 0 0 0-1.5z"/></svg>