<?xml version="1.0" encoding="utf-8"?>
<!-- Generator: Adobe Illustrator 17.1.0, SVG Export Plug-In . SVG Version: 6.00 Build 0)  -->
<!DOCTYPE svg PUBLIC "-//W3C//DTD SVG 1.1//EN" "http://www.w3.org/Graphics/SVG/1.1/DTD/svg11.dtd">
<svg version="1.1" id="Layer_1" xmlns="http://www.w3.org/2000/svg" xmlns:xlink="http://www.w3.org/1999/xlink" x="0px" y="0px"
	 viewBox="0 0 144 144" enable-background="new 0 0 144 144" xml:space="preserve">
<g>
	<path fill="#FFFFFF" d="M106.193,66.414c-0.229-0.318-0.595-0.524-1.007-0.524H93.787v-9.618c0-0.296-0.139-0.615-0.367-0.82
		c-0.228-0.206-0.503-0.366-0.846-0.366H62.152c-0.32-1.549-0.641-3.122-0.962-4.671c-0.114-0.548-0.595-0.958-1.168-0.958H46.014
		c-0.549,0-1.053,0.41-1.167,0.958c-0.321,1.55-0.642,3.122-0.962,4.671h-5.059c-0.321,0-0.618,0.137-0.824,0.366
		c-0.206,0.227-0.366,0.524-0.366,0.82v37.037l0.022,0.022c0,0.138,0.023,0.273,0.069,0.388c0.022,0.046,0.022,0.046,0.022,0.091
		c0.046,0.023,0.046,0.092,0.092,0.113c0.023,0.092,0.069,0.114,0.115,0.184c0.022,0.022,0.022,0.022,0.046,0.022v0.023
		c0.092,0.09,0.206,0.159,0.321,0.227c0.045,0,0.068,0.022,0.091,0.022c0.137,0.046,0.275,0.092,0.412,0.092h53.748
		c0.16,0,0.297-0.046,0.411-0.092c0.046,0,0.092-0.022,0.115-0.022c0.092-0.067,0.183-0.137,0.274-0.204c0,0,0.022,0,0.045-0.046
		c0.024,0,0.024,0,0.024,0c0.091-0.092,0.159-0.206,0.204-0.319c4.213-8.752,8.402-17.481,12.591-26.233
		C106.422,67.212,106.399,66.779,106.193,66.414L106.193,66.414z M42.878,63.064c-0.343,0-0.595,0.273-0.595,0.593
		c0,0.318,0.252,0.592,0.595,0.592h48.527v1.55H42.878c-0.343,0-0.595,0.251-0.595,0.593c0,0.341,0.252,0.57,0.595,0.57h7.257
		c-0.229,0.524-0.481,1.024-0.733,1.549h-6.524c-0.343,0-0.595,0.274-0.595,0.593c0,0.32,0.252,0.593,0.595,0.593h5.975l-0.755,1.55
		h-5.22c-0.343,0-0.595,0.25-0.595,0.593c0,0.296,0.252,0.592,0.595,0.592h4.67c-0.252,0.501-0.504,1.026-0.755,1.527h-3.915
		c-0.343,0-0.595,0.273-0.595,0.593c0,0.319,0.252,0.593,0.595,0.593h3.342c-0.228,0.523-0.48,1.025-0.732,1.55h-2.61
		c-0.343,0-0.595,0.251-0.595,0.592c0,0.344,0.252,0.57,0.595,0.57h2.06l-0.755,1.55h-1.305c-0.343,0-0.595,0.251-0.595,0.593
		c0,0.342,0.252,0.593,0.595,0.593h0.732c-0.228,0.501-0.481,1.025-0.732,1.526l0,0c-0.343,0-0.595,0.273-0.595,0.593
		c0,0.159,0.045,0.273,0.137,0.364c-0.801,1.686-1.602,3.351-2.403,5.015V57.458l0,0h4.83c0.595,0,1.052-0.411,1.167-0.935
		c0.32-1.572,0.664-3.122,0.961-4.695h12.087c0.319,1.573,0.64,3.123,0.96,4.695c0.115,0.524,0.596,0.935,1.168,0.935h30.215v5.606
		 M91.842,92.123H40.703c3.823-7.954,7.646-15.909,11.469-23.885h51.138C99.486,76.214,95.664,84.169,91.842,92.123L91.842,92.123z
		 M80.922,90.437h9.226c0.229,0,0.435-0.137,0.526-0.342l2.93-6.062c0.138-0.319,0-0.66-0.274-0.798
		c-0.274-0.137-0.663-0.022-0.802,0.273c-0.915,1.914-1.831,3.829-2.746,5.743h-8.859c-0.343,0-0.595,0.274-0.595,0.593
		C80.327,90.164,80.579,90.437,80.922,90.437L80.922,90.437z"/>
</g>
</svg>
