<svg id="icon" xmlns="http://www.w3.org/2000/svg" viewBox="0 0 46.79 63.48"><defs><style>.cls-1{fill:#fff;}</style></defs><title>Icon_RH_documents_paper-reporting_RGB_White</title><path class="cls-1" d="M95.19,51.91l-11-11.3a0.92,0.92,0,0,0-.66-0.28h-34a0.92,0.92,0,0,0-.92.92v61.63a0.92,0.92,0,0,0,.92.92H94.53a0.92,0.92,0,0,0,.92-0.92V52.55A0.92,0.92,0,0,0,95.19,51.91ZM84.48,43.53l8.35,8.61H84.48V43.53ZM93.6,102H50.51V42.17H82.63V52.66a0.93,0.93,0,0,0,0,.2A0.86,0.86,0,0,0,83.56,54h10v48Z" transform="translate(-48.66 -40.32)"/><path class="cls-1" d="M82.58,91.24H81.1v-18a0.74,0.74,0,0,0-.74-0.74H75a0.74,0.74,0,0,0-.74.74v2.25H69.79a0.74,0.74,0,0,0-.74.74v1.65H64.7a0.74,0.74,0,0,0-.74.74V91.24h-1.6V73.35a0.84,0.84,0,1,0-1.67,0V92.08a0.84,0.84,0,0,0,.84.84H82.58A0.84,0.84,0,0,0,82.58,91.24ZM69.06,79.39V91.24H65.44V79.39h3.62ZM74.29,77V91.24H70.55l0-14.24h3.75Zm5.34-3V91.24H75.77V74h3.86Z" transform="translate(-48.66 -40.32)"/><path class="cls-1" d="M72.05,66.51a6.61,6.61,0,1,0-6.61-6.61A6.61,6.61,0,0,0,72.05,66.51Zm5-7.38h-4.2v-4.2A5,5,0,0,1,77,59.13Zm-5.75-4.2v5.75H77A5,5,0,1,1,71.28,54.93Z" transform="translate(-48.66 -40.32)"/></svg>