<svg id="icon" xmlns="http://www.w3.org/2000/svg" viewBox="0 0 50.5 61.08"><title>Icon_RH_documents_paper-policy_RGB_Flat</title><path d="M61.57,58.24a0.57,0.57,0,0,0,.57.57H86a0.57,0.57,0,1,0,0-1.14H62.14A0.57,0.57,0,0,0,61.57,58.24Z" transform="translate(-43 -40.76)"/><path d="M86,63.55H62.14a0.57,0.57,0,1,0,0,1.14H86A0.57,0.57,0,1,0,86,63.55Z" transform="translate(-43 -40.76)"/><path d="M86,69.43H62.14a0.57,0.57,0,1,0,0,1.14H86A0.57,0.57,0,1,0,86,69.43Z" transform="translate(-43 -40.76)"/><path d="M64.36,80.12c-5.44-1.25-7.52-1.59-8.3-1.67H55c-0.76.09-2.84,0.42-8.25,1.67a0.45,0.45,0,0,0-.35.44v7.67c0,0.81.55,8,9.06,9.58h0.14c6-.84,8-4.87,8.7-7.2a10,10,0,0,0,.38-2.38V80.56A0.45,0.45,0,0,0,64.36,80.12Zm-0.55,4.11v4a10,10,0,0,1-1.15,4.13l-0.33.56a9.15,9.15,0,0,1-1.28,1.54l-0.46.4a10.08,10.08,0,0,1-5,2.06A12,12,0,0,1,52,95.64,50.88,50.88,0,0,0,63.81,84.22ZM47.33,80.91l2-.44c0.05,0,5.27-1.06,5.79-1.13H56c0.47,0.05,1.66.23,4.43,0.82A50.45,50.45,0,0,1,48.37,91.91a9.37,9.37,0,0,1-1-3.7v-7.3Zm16.48,0v1.42l0,0.06A47.94,47.94,0,0,1,51,95l-0.17-.12-0.51-.42a8.78,8.78,0,0,1-1.23-1.34l-0.21-.31A51.25,51.25,0,0,0,61.56,80.41l0.21,0Z" transform="translate(-43 -40.76)"/><path d="M93.29,50.26l-9-9.27a0.76,0.76,0,0,0-.55-0.23H55.87a0.76,0.76,0,0,0-.76.76V73.18c-1,.07-3.76.51-11.35,2.29a1,1,0,0,0-.76,1v12.2a14.35,14.35,0,0,0,12.38,13.19l0.19,0h0.12c7.41-.91,10.41-5.48,11.62-9H92.74a0.76,0.76,0,0,0,.76-0.76V50.79A0.76,0.76,0,0,0,93.29,50.26Zm-8.78-6.87,6.85,7.06H84.51V43.39ZM55.61,100.62C44.7,98.69,44.24,89,44.23,88.61v-12c8.83-2.06,10.8-2.22,11.19-2.22h0.31c0.39,0,2.36.16,11.19,2.22v12C66.91,89,66.71,99.24,55.61,100.62ZM92,91.32H67.75a13.55,13.55,0,0,0,.39-2.72V82.33H86a0.57,0.57,0,1,0,0-1.14H68.14V76.45H86a0.57,0.57,0,1,0,0-1.14H66.7c-5.93-1.38-8.75-1.89-10.07-2.06v-31H83v8.6A0.76,0.76,0,0,0,83,51a0.75,0.75,0,0,0,0,.16,0.76,0.76,0,0,0,.76.76H92V91.32Z" transform="translate(-43 -40.76)"/></svg>