<svg id="icon" xmlns="http://www.w3.org/2000/svg" viewBox="0 0 46.48 67.75"><defs><style>.cls-1{fill:#fff;}</style></defs><title>Icon_RH_documents_paper-license_RGB_White</title><path class="cls-1" d="M60.06,55.31H82.75a0.54,0.54,0,1,0,0-1.08H60.06A0.54,0.54,0,1,0,60.06,55.31Z" transform="translate(-52.76 -43.59)"/><path class="cls-1" d="M60.06,60.89H82.75a0.54,0.54,0,1,0,0-1.08H60.06A0.54,0.54,0,1,0,60.06,60.89Z" transform="translate(-52.76 -43.59)"/><path class="cls-1" d="M60.06,66.47H82.75a0.54,0.54,0,1,0,0-1.08H60.06A0.54,0.54,0,1,0,60.06,66.47Z" transform="translate(-52.76 -43.59)"/><path class="cls-1" d="M60.06,72.05H82.75a0.54,0.54,0,1,0,0-1.08H60.06A0.54,0.54,0,1,0,60.06,72.05Z" transform="translate(-52.76 -43.59)"/><path class="cls-1" d="M83.29,77.09a0.54,0.54,0,0,0-.54-0.54H60.06a0.54,0.54,0,1,0,0,1.08H82.75A0.54,0.54,0,0,0,83.29,77.09Z" transform="translate(-52.76 -43.59)"/><path class="cls-1" d="M99.06,106.64l-4.22-8.87,0,0,0.06-.27a0.62,0.62,0,0,1,.33-0.37l1.64-.53a1,1,0,0,0,.66-1.3L97,93.62a0.62,0.62,0,0,1,.1-0.49l1.15-1.28a1,1,0,0,0-.08-1.46l-1.28-1.15a0.62,0.62,0,0,1-.16-0.47l0.36-1.68a1,1,0,0,0-.79-1.22L94.6,85.5a0.62,0.62,0,0,1-.37-0.33l-0.53-1.64a1,1,0,0,0-1-.71,1,1,0,0,0-.32,0l-1.64.53a0.63,0.63,0,0,1-.37,0V43.59H52.76V94H80.58l0,0a0.62,0.62,0,0,1,.15.47l-0.35,1.68a1,1,0,0,0,.79,1.22l1.68,0.36L83,97.81l-4.29,8.83a0.93,0.93,0,0,0-.09,1,0.84,0.84,0,0,0,.92.15l3.31-.55,0.22,0,0.08,0.13,1.93,3.25a1,1,0,0,0,.82.71,1,1,0,0,0,.77-0.64l2.21-4.47,2.19,4.47a0.93,0.93,0,0,0,.74.67,0.9,0.9,0,0,0,.72-0.65l2-3.24,0.1-.14,0.15,0,3.5,0.34a0.73,0.73,0,0,0,.79-0.19A0.76,0.76,0,0,0,99.06,106.64ZM81.26,93.3L80,92.15A0.09,0.09,0,0,1,80,92l1.15-1.28a1.55,1.55,0,0,0,.3-1.41l-0.53-1.64A0.09,0.09,0,0,1,81,87.58L82.59,87a1.55,1.55,0,0,0,1-1.07l0.36-1.68a0.09,0.09,0,0,1,0-.05H84l1.69,0.36a1.58,1.58,0,0,0,1.37-.45l1.15-1.28a0.08,0.08,0,0,1,.12,0L89.63,84a1.56,1.56,0,0,0,1,.36,1.28,1.28,0,0,0,.4-0.06l1.64-.53h0.06a0.09,0.09,0,0,1,0,0l0.53,1.64a1.55,1.55,0,0,0,1.07,1l1.68,0.36a0.09,0.09,0,0,1,.07.1L95.8,88.57a1.55,1.55,0,0,0,.45,1.37l1.28,1.15a0.09,0.09,0,0,1,0,.13L96.38,92.5a1.55,1.55,0,0,0-.3,1.41l0.53,1.64a0.09,0.09,0,0,1-.06.11l-1.64.53a1.56,1.56,0,0,0-1,1.07L93.59,99a0.1,0.1,0,0,1-.11.07l-1.68-.35a1.58,1.58,0,0,0-1.37.45l-1.15,1.28a0.09,0.09,0,0,1-.13,0l-1.28-1.15a1.55,1.55,0,0,0-1-.36,1.33,1.33,0,0,0-.41.06l-1.64.53a0.09,0.09,0,0,1-.11-0.06l-0.53-1.64a1.22,1.22,0,0,0-.11-0.24,0.42,0.42,0,0,0-.15-0.22,1.5,1.5,0,0,0-.81-0.51l-1.68-.36a0.09,0.09,0,0,1-.05,0,0.09,0.09,0,0,1,0-.07l0.35-1.68A1.55,1.55,0,0,0,81.26,93.3Zm2.29,5.61,0.26,0.81a1,1,0,0,0,1.3.66l1.64-.53a0.66,0.66,0,0,1,.49.1l1.28,1.15A1.07,1.07,0,0,0,90,101l1-1.06-5,10.17L84,106.88a0.88,0.88,0,0,0-.82-0.6,2.75,2.75,0,0,0-.45,0l-3,.51Zm8.57,0.79,1.17,0.25a1.05,1.05,0,0,0,1.2-.71L98,106.7l-2.92-.28H95a1,1,0,0,0-1.22.52l-2,3.13-2.41-4.92ZM54.31,45.14H88.83V82.05a1.05,1.05,0,0,0-1.31.16l-1.15,1.28a0.65,0.65,0,0,1-.47.16l-1.69-.36a1,1,0,0,0-1.22.8l-0.36,1.68a0.62,0.62,0,0,1-.33.37l-1.64.54A1,1,0,0,0,80,88l0.53,1.64a0.62,0.62,0,0,1-.1.49l-1.15,1.28a1,1,0,0,0-.19,1H54.31V45.14Z" transform="translate(-52.76 -43.59)"/><path class="cls-1" d="M88.91,96.84a5.41,5.41,0,1,0-5.41-5.41A5.42,5.42,0,0,0,88.91,96.84Zm0-9.88a4.47,4.47,0,1,1-4.47,4.47A4.48,4.48,0,0,1,88.91,87Z" transform="translate(-52.76 -43.59)"/></svg>