<svg xmlns="http://www.w3.org/2000/svg" viewBox="0 0 50.6 68.64"><title>Icon_RH_Document_Paper-Checklist_RGB_Black</title><path d="M6.49 28.41h10.07a.76.76 0 0 0 .75-.75V17.59a.7.7 0 0 0 0-.14l1.38-2.31a1 1 0 0 0-.39-1.37 1 1 0 0 0-1.37.34l-1.63 2.73H6.49a.76.76 0 0 0-.75.75v10.07a.76.76 0 0 0 .75.75zm.75-10.09h7.18l-2.85 4.79-.93-1.75a1 1 0 1 0-1.76.94l1.76 3.31.06.08.06.08a1.25 1.25 0 0 0 .24.22h.1a.93.93 0 0 0 .4.09 1 1 0 0 0 .24 0h.23a1 1 0 0 0 .33-.26l.06-.07.05-.07 3.43-5.76v7h-8.6zm9.32 33H6.49a.76.76 0 0 0-.75.75v10.11a.75.75 0 0 0 .75.75h10.07a.75.75 0 0 0 .75-.75V52.12a.76.76 0 0 0-.75-.75zm-2.17 1.5l-2.86 2.87-2.87-2.87zm-7.15 1.5l2.87 2.87-2.87 2.83zm1.42 7.15l2.87-2.86 2.86 2.86zm7.15-1.41l-2.87-2.87 2.87-2.87zm27.17-18.3H22.45a.75.75 0 0 0 0 1.5h20.52a.75.75 0 0 0 0-1.5zm0-16.82H22.45a.75.75 0 0 0 0 1.5h20.52a.75.75 0 0 0 0-1.5zM21.7 20.63a.75.75 0 0 0 .75.75h20.52a.75.75 0 0 0 0-1.5H22.45a.75.75 0 0 0-.75.75zm28.6-8.1L38.46.32a1 1 0 0 0-.72-.3H1a1 1 0 0 0-1 1v66.64a1 1 0 0 0 1 1h48.6a1 1 0 0 0 1-1V13.22a1 1 0 0 0-.3-.69zM38.74 3.47l9 9.31h-9zm9.86 63.17H2V2h34.74v11.32a1 1 0 0 0 0 .22 1 1 0 0 0 0 .21 1 1 0 0 0 1 1H48.6zm-5.63-12.8H22.45a.75.75 0 0 0 0 1.5h20.52a.75.75 0 0 0 0-1.5zm0 5H22.45a.75.75 0 0 0 0 1.5h20.52a.75.75 0 0 0 0-1.5zM18.3 30.57a1 1 0 0 0-1.36.37l-1.84 3.24H6.5a.75.75 0 0 0-.75.75v10.06a.76.76 0 0 0 .75.75h10.06a.76.76 0 0 0 .75-.75V34.93a.65.65 0 0 0-.13-.39l1.49-2.61a1 1 0 0 0-.37-1.36zm-2.49 13.67H7.24v-8.56h7l-2.65 4.64-.93-1.9a1.002 1.002 0 0 0-1.8.88l1.77 3.59.07.11.06.08a1 1 0 0 0 .26.23.76.76 0 0 0 .16.06h.33a1 1 0 0 0 .4-.09.9.9 0 0 0 .27-.21v-.06a.76.76 0 0 0 .08-.11l3.42-6zm27.17-7.55H22.45a.75.75 0 0 0 0 1.5h20.52a.75.75 0 0 0 0-1.5z"/></svg>