<svg xmlns="http://www.w3.org/2000/svg" viewBox="0 0 55.48 68.64"><title>Icon_RH_Document_Paper-CaseStudy_RGB_Black</title><path d="M21.04 15.94a11.72 11.72 0 1 0 11.7 11.72 11.74 11.74 0 0 0-11.7-11.72zm0 2a9.72 9.72 0 0 1 8.1 4.38h-16.2a9.72 9.72 0 0 1 8.1-4.38zm0 19.45a9.74 9.74 0 0 1-8.91-5.85h17.83a9.74 9.74 0 0 1-8.92 5.85zm9.7-9.73a9.68 9.68 0 0 1-.31 2.38H11.62a9.56 9.56 0 0 1 .5-6.25h17.84a9.66 9.66 0 0 1 .78 3.87zm24.69 31.4c-.24-2.08-1.71-3.5-3-4.75l-.62-.6-1.23-1.24V13.22a1 1 0 0 0-.28-.7L38.45.32a1 1 0 0 0-.72-.3H1a1 1 0 0 0-1 1v66.64a1 1 0 0 0 1 1h48.6a1 1 0 0 0 1-1v-4.34a4.51 4.51 0 0 0 .78.07 4.25 4.25 0 0 0 2.9-1.11 3.77 3.77 0 0 0 1.17-3.22zM38.74 3.47l9 9.31h-9zm9.86 63.18H2V2h34.74v11.32a1 1 0 0 0 0 .22 1 1 0 0 0 0 .21 1 1 0 0 0 1 1H48.6v35.69l-4.68-4.72-1.36-1.4-4.93-5h3.11a.75.75 0 1 0 0-1.5h-4.59l-.41-.5a17.23 17.23 0 0 0 2.4-13.57h2.6a.75.75 0 1 0 0-1.43h-3a17.4 17.4 0 1 0-8.56 21c.2.18.4.37.58.55l1.7 1.72H9.26a.75.75 0 0 0 0 1.5h23.65l6.19 6.23H9.26a.75.75 0 1 0 0 1.5h31.33L43.74 58l2.2 2.24a14.05 14.05 0 0 0 2.63 2.3zm4.31-5.81a2.31 2.31 0 0 1-2 .53c-1.34-.25-2.44-1.4-3.5-2.5l-2.22-2.26q-7-7.11-14-14.19c-.21-.21-.43-.41-.66-.62l-.54-.48-.53-.51-.79.45a15.48 15.48 0 1 1 5-4.39l-.5.69.6.61c1.94 2 5.45 5.55 7.41 7.55l1.37 1.4q3.94 4 7.91 8l.64.63c1.16 1.12 2.25 2.18 2.41 3.55a1.77 1.77 0 0 1-.6 1.53z"/></svg>