<?xml version="1.0" encoding="utf-8"?>
<!-- Generator: Adobe Illustrator 17.1.0, SVG Export Plug-In . SVG Version: 6.00 Build 0)  -->
<!DOCTYPE svg PUBLIC "-//W3C//DTD SVG 1.1//EN" "http://www.w3.org/Graphics/SVG/1.1/DTD/svg11.dtd">
<svg version="1.1" id="Layer_1" xmlns="http://www.w3.org/2000/svg" xmlns:xlink="http://www.w3.org/1999/xlink" x="0px" y="0px"
	 viewBox="0 0 144 144" enable-background="new 0 0 144 144" xml:space="preserve">
<g>
	<g>
		<path fill="#FFFFFF" d="M85.158,37.228c-0.189-0.195-0.447-0.304-0.719-0.304H47.702c-0.554,0-1,0.446-1,1v66.641
			c0,0.553,0.446,1,1,1h48.597c0.553,0,1-0.447,1-1V50.147c0-0.261-0.101-0.511-0.283-0.697L85.158,37.228z M85.439,40.391
			l9.029,9.306h-9.029V40.391z M48.702,38.924h34.738v11.342c0,0.076,0.027,0.144,0.043,0.216c-0.016,0.071-0.043,0.139-0.043,0.215
			c0,0.553,0.447,1,1,1h10.859v51.868H48.702V38.924z"/>
	</g>
</g>
</svg>
