<?xml version="1.0" encoding="utf-8"?>
<!-- Generator: Adobe Illustrator 17.1.0, SVG Export Plug-In . SVG Version: 6.00 Build 0)  -->
<!DOCTYPE svg PUBLIC "-//W3C//DTD SVG 1.1//EN" "http://www.w3.org/Graphics/SVG/1.1/DTD/svg11.dtd">
<svg version="1.1" id="Layer_1" xmlns="http://www.w3.org/2000/svg" xmlns:xlink="http://www.w3.org/1999/xlink" x="0px" y="0px"
	 viewBox="0 0 144 144" enable-background="new 0 0 144 144" xml:space="preserve">
<g>
	<g>
		<g>
			<path fill="#FFFFFF" d="M85.158,37.983c-0.189-0.194-0.447-0.304-0.719-0.304H47.702c-0.553,0-1,0.447-1,1v66.641
				c0,0.553,0.447,1,1,1h48.597c0.553,0,1-0.447,1-1V50.902c0-0.26-0.101-0.51-0.283-0.696L85.158,37.983z M85.439,41.146
				l9.029,9.306h-9.029V41.146z M48.702,39.68h34.738v11.342c0,0.076,0.027,0.144,0.043,0.216c-0.016,0.071-0.043,0.139-0.043,0.215
				c0,0.553,0.447,1,1,1h10.859v51.868H48.702V39.68z"/>
		</g>
	</g>
	<g>
		<path fill="#FFFFFF" d="M87.465,61.472h-31.5c-0.414,0-0.75-0.336-0.75-0.75c0-0.414,0.336-0.75,0.75-0.75h31.5
			c0.414,0,0.75,0.336,0.75,0.75C88.215,61.136,87.879,61.472,87.465,61.472z"/>
	</g>
	<g>
		<path fill="#FFFFFF" d="M81.047,69.222H55.964c-0.414,0-0.75-0.336-0.75-0.75c0-0.414,0.336-0.75,0.75-0.75h25.082
			c0.414,0,0.75,0.336,0.75,0.75C81.797,68.886,81.461,69.222,81.047,69.222z"/>
	</g>
	<g>
		<path fill="#FFFFFF" d="M87.465,76.972h-31.5c-0.414,0-0.75-0.336-0.75-0.75c0-0.414,0.336-0.75,0.75-0.75h31.5
			c0.414,0,0.75,0.336,0.75,0.75C88.215,76.636,87.879,76.972,87.465,76.972z"/>
	</g>
	<g>
		<path fill="#FFFFFF" d="M81.047,84.722H55.964c-0.414,0-0.75-0.336-0.75-0.75c0-0.414,0.336-0.75,0.75-0.75h25.082
			c0.414,0,0.75,0.336,0.75,0.75C81.797,84.386,81.461,84.722,81.047,84.722z"/>
	</g>
	<g>
		<path fill="#FFFFFF" d="M87.465,92.472h-31.5c-0.414,0-0.75-0.336-0.75-0.75c0-0.414,0.336-0.75,0.75-0.75h31.5
			c0.414,0,0.75,0.336,0.75,0.75C88.215,92.136,87.879,92.472,87.465,92.472z"/>
	</g>
</g>
</svg>
