<svg id="ICON" xmlns="http://www.w3.org/2000/svg" viewBox="0 0 108 108"><defs><style>.cls-1{fill:#fff;}</style></defs><title>Icon_RH_documents_paper-blank-stack_RGB_White</title><path class="cls-1" d="M85.08 26.41L73.14 14.1a1 1 0 0 0-.72-.31h-37a1 1 0 0 0-1 1v10.55H23.89a1 1 0 0 0-1 1v67.09a1 1 0 0 0 1 1h48.92a1 1 0 0 0 1-1V82.89h10.55a1 1 0 0 0 1-1V27.11a1 1 0 0 0-.28-.7zm-11.65-9.12l9.09 9.37h-9.09zm-1.62 75.14H24.9V27.36h34.97v11.41a1 1 0 0 0 0 .22.94.94 0 0 0 1 1.22h10.94zM61.88 38.2v-9.37L71 38.2zm21.47 42.68h-9.53V38.65a1 1 0 0 0-.29-.7L61.6 25.65a1 1 0 0 0-.72-.31H36.45v-9.53h35v11.42a1 1 0 0 0 0 .22.94.94 0 0 0 1 1.22h10.9z"/></svg>