<svg xmlns="http://www.w3.org/2000/svg" viewBox="0 0 50.6 68.64"><title>Icon_RH_Document_Paper-Infographic_RGB_Black</title><path d="M22.3 53.12H6.82a.75.75 0 0 0 0 1.5H22.3a.75.75 0 0 0 0-1.5zm0 5H6.82a.75.75 0 1 0 0 1.5H22.3a.75.75 0 0 0 0-1.5zm0-10H6.82a.75.75 0 1 0 0 1.5H22.3a.75.75 0 0 0 0-1.5zm21.54 5H28.36a.75.75 0 0 0 0 1.5h15.53a.75.75 0 0 0 0-1.5zm6.46-40.59L38.46.32a1 1 0 0 0-.72-.3H1a1 1 0 0 0-1 1v66.64a1 1 0 0 0 1 1h48.6a1 1 0 0 0 1-1V13.22a1 1 0 0 0-.3-.69zM38.74 3.47l9 9.31h-9zm9.86 63.17H2V2h34.74v11.32a1 1 0 0 0 0 .22 1 1 0 0 0 0 .21 1 1 0 0 0 1 1H48.6zm-21-17.76a.75.75 0 0 0 .75.75h15.54a.75.75 0 0 0 0-1.5H28.36a.75.75 0 0 0-.75.75zm16.28 9.22H28.36a.75.75 0 0 0 0 1.5h15.53a.75.75 0 0 0 0-1.5zM25.3 13.65a13.48 13.48 0 1 0 13.48 13.49A13.5 13.5 0 0 0 25.3 13.65zm1 24.92V28.14h10.43A11.49 11.49 0 0 1 26.3 38.57zm-1-12.43a1 1 0 0 0-1 1v11.43a11.48 11.48 0 1 1 12.43-12.43z"/></svg>