<?xml version="1.0" encoding="utf-8"?>
<!-- Generator: Adobe Illustrator 17.1.0, SVG Export Plug-In . SVG Version: 6.00 Build 0)  -->
<!DOCTYPE svg PUBLIC "-//W3C//DTD SVG 1.1//EN" "http://www.w3.org/Graphics/SVG/1.1/DTD/svg11.dtd">
<svg version="1.1" id="Layer_1" xmlns="http://www.w3.org/2000/svg" xmlns:xlink="http://www.w3.org/1999/xlink" x="0px" y="0px"
	 viewBox="0 0 216 216" enable-background="new 0 0 216 216" xml:space="preserve">
<g>
	<g>
		<path fill="#FFFFFF" d="M136.882,144.3l-7.773-10.814c2.067-0.242,3.958-1.168,5.409-2.678c1.701-1.773,2.582-4.117,2.48-6.604
			l-1.612-39.531h0.001l-0.018-0.521c-0.415-12.191-11.262-20.488-27.044-20.719l-0.647-0.005v0.005
			c-15.776,0.226-26.63,8.523-27.045,20.719l-1.63,40.053c-0.102,2.486,0.779,4.83,2.48,6.604c1.451,1.51,3.342,2.436,5.409,2.678
			L79.118,144.3c-0.321,0.449-0.22,1.072,0.229,1.395c0.177,0.127,0.38,0.189,0.582,0.189c0.312,0,0.618-0.146,0.812-0.416
			l2.515-3.498c0.012,0,0.021,0.002,0.032,0.002h49.422c0.012,0,0.021-0.002,0.032-0.002l2.515,3.498
			c0.194,0.27,0.502,0.416,0.812,0.416c0.202,0,0.406-0.062,0.582-0.189C137.102,145.372,137.203,144.749,136.882,144.3
			 M82.926,129.421c-1.321-1.375-2.004-3.199-1.927-5.135l1.635-40.057l0.012-0.362c0.579-10.937,10.718-18.33,25.347-18.438
			c14.571,0.108,24.682,7.429,25.353,18.274h-0.001L135,124.286c0.078,1.936-0.605,3.76-1.926,5.135
			c-1.32,1.377-3.115,2.135-5.052,2.135H87.977C86.04,131.556,84.246,130.798,82.926,129.421 M87.224,136.45l2.081-2.895h37.391
			l2.081,2.895H87.224z"/>
		<path fill="#FFFFFF" d="M97.072,121.296c0-3.133-2.549-5.682-5.682-5.682s-5.681,2.549-5.681,5.682
			c0,3.133,2.548,5.682,5.681,5.682S97.072,124.429,97.072,121.296 M87.21,121.296c0-2.307,1.875-4.182,4.181-4.182
			c2.307,0,4.182,1.875,4.182,4.182c0,2.307-1.875,4.182-4.182,4.182C89.085,125.478,87.21,123.603,87.21,121.296"/>
		<path fill="#FFFFFF" d="M118.928,121.296c0,3.133,2.549,5.682,5.682,5.682c3.133,0,5.681-2.549,5.681-5.682
			c0-3.133-2.548-5.682-5.681-5.682C121.477,115.614,118.928,118.163,118.928,121.296 M128.79,121.296
			c0,2.307-1.875,4.182-4.181,4.182c-2.307,0-4.182-1.875-4.182-4.182c0-2.307,1.875-4.182,4.182-4.182
			C126.915,117.114,128.79,118.989,128.79,121.296"/>
		<path fill="#FFFFFF" d="M88.367,106.565c6.284-1.062,12.89-1.6,19.633-1.6c6.742,0,13.349,0.538,19.632,1.6
			c0.042,0.006,0.084,0.01,0.125,0.01c0.006,0,0.012,0,0.02,0c0.415,0,0.75-0.336,0.75-0.75c0-0.07-0.009-0.137-0.026-0.201
			l-0.88-21.6c-0.577-8.788-10.239-12.791-19.569-12.86c-9.366,0.068-19.08,4.066-19.669,12.86l-0.888,21.771
			c-0.011,0.226,0.084,0.444,0.254,0.593C87.917,106.539,88.146,106.601,88.367,106.565 M89.88,84.104
			c0.522-7.813,9.509-11.377,18.17-11.44c8.626,0.063,17.559,3.632,18.072,11.438l0.848,20.834
			c-6.091-0.977-12.468-1.471-18.97-1.471c-6.501,0-12.878,0.494-18.971,1.471L89.88,84.104z"/>
		<path fill="#FFFFFF" d="M127.674,109.786c0.027,0.006,0.057,0.008,0.084,0.008c0.24,0,0.451-0.174,0.493-0.418
			c0.046-0.271-0.139-0.529-0.41-0.576c-1.649-0.278-3.355-0.526-5.069-0.734c-0.278-0.04-0.523,0.161-0.557,0.436
			c-0.034,0.274,0.162,0.523,0.436,0.557C124.35,109.266,126.039,109.511,127.674,109.786"/>
		<path fill="#FFFFFF" d="M119.283,108.194c0.023-0.275-0.18-0.518-0.455-0.541c-3.549-0.312-7.192-0.47-10.828-0.47
			c-6.813,0-13.488,0.544-19.84,1.616c-0.273,0.046-0.456,0.304-0.41,0.576c0.041,0.244,0.253,0.418,0.492,0.418
			c0.027,0,0.056-0.002,0.084-0.008c6.298-1.063,12.917-1.603,19.674-1.603c3.606,0,7.221,0.157,10.741,0.465
			C119.018,108.671,119.259,108.469,119.283,108.194"/>
	</g>
</g>
</svg>
