<svg id="Layer_1" data-name="Layer 1" xmlns="http://www.w3.org/2000/svg" viewBox="0 0 108 108"><defs><style>.cls-1{fill:none;}.cls-2{fill:#fff;}</style></defs><title>Icon_RH_Transportation_Shipping-container-truck_RGB_White</title><circle class="cls-1" cx="31.11" cy="77.92" r="4.36"/><circle class="cls-1" cx="74.98" cy="77.92" r="4.36"/><path class="cls-1" d="M62.32,25.73H18.67V58H62.32V25.73ZM26.81,54a0.5,0.5,0,0,1-1,0V28.9a0.5,0.5,0,0,1,1,0V54Zm9.51,0a0.5,0.5,0,0,1-1,0V28.9a0.5,0.5,0,0,1,1,0V54Zm9.51,0a0.5,0.5,0,0,1-1,0V28.9a0.5,0.5,0,0,1,1,0V54Zm10,0a0.5,0.5,0,0,1-1,0V28.9a0.5,0.5,0,0,1,1,0V54Z"/><path class="cls-1" d="M89.39,62.67c0-3.42-2-9.32-2.45-10.33a1.85,1.85,0,0,0-1.9-1.4H73.1V63.55H88.76C88.93,63.55,89.39,63.55,89.39,62.67Z"/><path class="cls-1" d="M82.35,73.42a0.5,0.5,0,0,1,0-1H94.07c0-.35,0-0.71,0-1.09A52.2,52.2,0,0,0,92,53.21l-0.1-.36c-1-3.69-3.31-5.57-6.93-5.57H69.49a0.74,0.74,0,0,0-.74.74V62.39a2.24,2.24,0,0,1-2.24,2.24h-52a0.74,0.74,0,0,0-.74.74v7.71h9.31a0.5,0.5,0,0,1,0,1H13.8V74.9a0.74,0.74,0,0,0,.74.74H25.18a6.35,6.35,0,0,1,11.86,0h32a6.35,6.35,0,0,1,11.86,0H93.23A0.74,0.74,0,0,0,94,75c0-.43,0-1,0.07-1.54H82.35Zm-15.11.66H38.76a0.5,0.5,0,0,1,0-1H67.24A0.5,0.5,0,0,1,67.24,74.08Zm5.36-9.53a0.5,0.5,0,0,1-.5-0.5V50.44a0.5,0.5,0,0,1,.5-0.5H85a2.83,2.83,0,0,1,2.82,2c0.51,1.2,2.53,7.16,2.53,10.72a1.64,1.64,0,0,1-1.63,1.88H72.6Z"/><path class="cls-2" d="M93.41,52.82l-0.1-.36c-1.16-4.37-4.05-6.68-8.38-6.68H69.49A2.24,2.24,0,0,0,67.25,48V62.39a0.74,0.74,0,0,1-.74.74h-52a2.24,2.24,0,0,0-2.24,2.24V74.9a2.24,2.24,0,0,0,2.24,2.24H24.8a6.36,6.36,0,1,0,12.61,0H68.67a6.36,6.36,0,1,0,12.61,0H93.23a2.24,2.24,0,0,0,2.23-2.07c0-.5.06-1.1,0.08-1.78s0-1.2.08-1.88A53.49,53.49,0,0,0,93.41,52.82ZM31.11,82.27a4.36,4.36,0,1,1,4.36-4.36A4.36,4.36,0,0,1,31.11,82.27Zm43.87,0a4.36,4.36,0,1,1,4.36-4.36A4.36,4.36,0,0,1,75,82.27Zm18.25-6.64H80.91a6.35,6.35,0,0,0-11.86,0H37a6.35,6.35,0,0,0-11.86,0H14.54a0.74,0.74,0,0,1-.74-0.74V74.08h9.31a0.5,0.5,0,0,0,0-1H13.8V65.37a0.74,0.74,0,0,1,.74-0.74h52a2.24,2.24,0,0,0,2.24-2.24V48a0.74,0.74,0,0,1,.74-0.74H84.93c3.62,0,6,1.87,6.93,5.57L92,53.21a52.2,52.2,0,0,1,2.16,18.12c0,0.38,0,.74,0,1.09H82.35a0.5,0.5,0,0,0,0,1H94C94,74,94,74.52,94,75A0.74,0.74,0,0,1,93.23,75.63Z"/><path class="cls-2" d="M67.24,73.08H38.76a0.5,0.5,0,0,0,0,1H67.24A0.5,0.5,0,0,0,67.24,73.08Z"/><path class="cls-2" d="M90.39,62.67c0-3.57-2-9.52-2.53-10.72a2.83,2.83,0,0,0-2.82-2H72.6a0.5,0.5,0,0,0-.5.5V64.05a0.5,0.5,0,0,0,.5.5H88.76A1.64,1.64,0,0,0,90.39,62.67ZM73.1,50.94H85a1.85,1.85,0,0,1,1.9,1.4c0.43,1,2.45,6.91,2.45,10.33,0,0.88-.46.88-0.63,0.88H73.1V50.94Z"/><path class="cls-2" d="M17.67,60H63.32a1,1,0,0,0,1-1V24.73a1,1,0,0,0-1-1H17.67a1,1,0,0,0-1,1V59A1,1,0,0,0,17.67,60Zm1-34.29H62.32V58H18.67V25.73Z"/><path class="cls-2" d="M45.33,28.4a0.5,0.5,0,0,0-.5.5V54a0.5,0.5,0,0,0,1,0V28.9A0.5,0.5,0,0,0,45.33,28.4Z"/><path class="cls-2" d="M55.32,28.4a0.5,0.5,0,0,0-.5.5V54a0.5,0.5,0,0,0,1,0V28.9A0.5,0.5,0,0,0,55.32,28.4Z"/><path class="cls-2" d="M35.82,28.4a0.5,0.5,0,0,0-.5.5V54a0.5,0.5,0,0,0,1,0V28.9A0.5,0.5,0,0,0,35.82,28.4Z"/><path class="cls-2" d="M26.31,28.4a0.5,0.5,0,0,0-.5.5V54a0.5,0.5,0,0,0,1,0V28.9A0.5,0.5,0,0,0,26.31,28.4Z"/></svg>