<svg id="Layer_1" data-name="Layer 1" xmlns="http://www.w3.org/2000/svg" viewBox="0 0 108 108"><defs><style>.cls-1{fill:none;}</style></defs><title>Icon_RH_Transportation_Shipping-container-ship_RGB_Flat</title><polygon class="cls-1" points="18.63 44.2 11.79 44.2 10.72 57.67 18.63 57.67 18.63 44.2"/><path class="cls-1" d="M70.43,29.55H26.78V61.84H70.43V29.55ZM34.92,57.78a0.5,0.5,0,0,1-1,0V32.72a0.5,0.5,0,0,1,1,0V57.78Zm9.51,0a0.5,0.5,0,0,1-1,0V32.72a0.5,0.5,0,0,1,1,0V57.78Zm9.51,0a0.5,0.5,0,0,1-1,0V32.72a0.5,0.5,0,0,1,1,0V57.78Zm10,0a0.5,0.5,0,0,1-1,0V32.72a0.5,0.5,0,0,1,1,0V57.78Z"/><path class="cls-1" d="M74.69,68.2a0.75,0.75,0,0,1-.71.5H23.11a0.75,0.75,0,0,1-.7-0.48L20.32,62.8H8.4C9.92,68,18.59,76,24.75,78.7H83.65a1.58,1.58,0,0,0,.37-1c0-.48,0-1.93-3.25-2.55a0.75,0.75,0,0,1-.23-1.39c5.31-3,15.72-15.46,18.63-19.63H79.68Zm1.56,8.24H24.82a0.5,0.5,0,0,1,0-1H76.26A0.5,0.5,0,0,1,76.26,76.44Z"/><path d="M9.91,59.17h9.47a0.75,0.75,0,0,0,.75-0.75v-15a0.75,0.75,0,0,0-.75-0.75H12.62V33a0.5,0.5,0,0,0-1,0V42.7H11.1a0.75,0.75,0,0,0-.75.69l-1.19,15A0.75,0.75,0,0,0,9.91,59.17Zm1.88-15h6.84V57.67H10.72Z"/><path d="M101.17,53a0.75,0.75,0,0,0-.64-0.36H79.15a0.75,0.75,0,0,0-.71.5l-5,14H23.62l-2.08-5.42a0.75,0.75,0,0,0-.7-0.48H7.47a0.75,0.75,0,0,0-.74.85C7.59,68.29,18,77.43,24.3,80.14a0.75,0.75,0,0,0,.3.06H84A0.75,0.75,0,0,0,84.46,80a3.17,3.17,0,0,0,1.06-2.27c0-1.2-.53-2.69-2.81-3.57,6.37-4.63,17.2-17.81,18.5-20.42A0.75,0.75,0,0,0,101.17,53ZM80.54,73.81a0.75,0.75,0,0,0,.23,1.39C84,75.82,84,77.27,84,77.75a1.58,1.58,0,0,1-.37,1H24.75C18.59,76,9.92,68,8.4,62.8H20.32l2.08,5.42a0.75,0.75,0,0,0,.7.48H74a0.75,0.75,0,0,0,.71-0.5l5-14H99.17C96.26,58.35,85.85,70.8,80.54,73.81Z"/><path d="M76.26,75.44H24.82a0.5,0.5,0,0,0,0,1H76.26A0.5,0.5,0,0,0,76.26,75.44Z"/><path d="M25.78,63.84H71.43a1,1,0,0,0,1-1V28.55a1,1,0,0,0-1-1H25.78a1,1,0,0,0-1,1V62.84A1,1,0,0,0,25.78,63.84Zm1-34.29H70.43V61.84H26.78V29.55Z"/><path d="M53.45,32.22a0.5,0.5,0,0,0-.5.5V57.78a0.5,0.5,0,0,0,1,0V32.72A0.5,0.5,0,0,0,53.45,32.22Z"/><path d="M63.44,32.22a0.5,0.5,0,0,0-.5.5V57.78a0.5,0.5,0,0,0,1,0V32.72A0.5,0.5,0,0,0,63.44,32.22Z"/><path d="M43.93,32.22a0.5,0.5,0,0,0-.5.5V57.78a0.5,0.5,0,0,0,1,0V32.72A0.5,0.5,0,0,0,43.93,32.22Z"/><path d="M34.42,32.22a0.5,0.5,0,0,0-.5.5V57.78a0.5,0.5,0,0,0,1,0V32.72A0.5,0.5,0,0,0,34.42,32.22Z"/></svg>