<svg data-name="Layer 1" xmlns="http://www.w3.org/2000/svg" viewBox="0 0 100.41 79.48"><title>Icon_RH_Transportation_FastJet_RGB_Black</title><path d="M7.93 21.74H.5a.5.5 0 0 0 0 1h7.43a.5.5 0 0 0 0-1zm0 34.51H3.37a.5.5 0 0 0 0 1h4.56a.5.5 0 0 0 0-1zM17.7 5.81h15a.5.5 0 0 0 0-1h-15a.5.5 0 0 0 0 1zm9.44-3.91h5.53a.5.5 0 1 0 0-1h-5.53a.5.5 0 1 0 0 1zm5.53 75.18h-8.46a.5.5 0 0 0 0 1h8.46a.5.5 0 0 0 0-1zm36.77-48.29L52.81 6.44c5.5-.72 6.26-2.12 6.26-2.84C59.07.04 45 0 44.4 0a66.72 66.72 0 0 0-9.26.66 1 1 0 0 0-.86 1v3.58a1 1 0 0 0 .86 1c1.23.18 2.87.37 4.77.5l5.64 22.55a63.83 63.83 0 0 0-17.18 4.89L18.14 21.85a1 1 0 0 0-.77-.36h-6.83a1 1 0 0 0-.95 1.32l5.75 16.93-5.75 16.93a1 1 0 0 0 .95 1.32h6.84a1 1 0 0 0 .77-.36l10-12.07a61.46 61.46 0 0 0 17.36 4.74l-5.6 22.44c-1.9.13-3.55.33-4.77.5a1 1 0 0 0-.86 1v3.58a1 1 0 0 0 .86 1 66.77 66.77 0 0 0 9.26.66c5.48 0 14.67-.47 14.67-3.6 0-.72-.76-2.12-6.26-2.84l16.63-22.35c17-1.57 31-6.76 31-10.95s-14-9.38-31-10.95zM36.28 4.36V2.52A64.79 64.79 0 0 1 44.44 2c6.34 0 10.76.89 12.26 1.58-1.43.56-5.54 1.31-12.26 1.31a64.63 64.63 0 0 1-8.16-.53zM42 6.84h2.39c2.4 0 4.41-.08 6.1-.21l16.28 21.9c-2.43-.17-4.91-.26-7.4-.26a97.79 97.79 0 0 0-11.82.7zM16.9 55.99h-5l5.44-15.93a1 1 0 0 0 0-.64l-5.41-15.93h5l13.51 16.25zm39.89 20c-1.2.68-5.44 1.51-12.4 1.51a64.62 64.62 0 0 1-8.12-.53v-1.85a64.62 64.62 0 0 1 8.17-.52c6.92 0 11.08.79 12.36 1.37zm-6.31-3.16c-1.69-.13-3.7-.21-6.1-.21h-2.39l5.52-22.1a108.31 108.31 0 0 0 11.84.61c2.5 0 5-.09 7.4-.26zm8.88-23.65c-12.16 0-22-1.7-29.88-5.19l3-3.59a1 1 0 0 0 0-1.28l-2.78-3.38c8.29-3.65 18-5.44 29.67-5.44 22.84 0 39 7.14 39 9.42s-16.16 9.44-39 9.44zm19.96-15.79l-3.58-.65a.49.49 0 0 0-.49.19.5.5 0 0 0 0 .52 13.34 13.34 0 0 1 0 12.57.5.5 0 0 0 .45.72h.09l3.58-.65a.5.5 0 0 0 .31-.19 11.2 11.2 0 0 0 2.33-6.16 11.21 11.21 0 0 0-2.38-6.16.5.5 0 0 0-.31-.19zm-.38 11.75l-2.44.44a14.12 14.12 0 0 0 0-11.69l2.44.44a10.23 10.23 0 0 1 2.07 5.41 10.23 10.23 0 0 1-2.07 5.4zM32.67 73.81h-15a.5.5 0 0 0 0 1h15a.5.5 0 0 0 0-1z"/></svg>