<svg data-name="Layer 1" xmlns="http://www.w3.org/2000/svg" viewBox="0 0 76.03 30.44"><title>Icon_RH_Transportation_CruiseShip_RGB_Black</title><path d="M21.34 20.47a.58.58 0 1 0 .58.58.58.58 0 0 0-.58-.58zm.36-3.86a.58.58 0 1 0 .58.58.58.58 0 0 0-.57-.58zm-1.8-3.86a.58.58 0 1 0 .58.58.58.58 0 0 0-.58-.58zm2.27 0a.58.58 0 1 0 .58.58.58.58 0 0 0-.58-.58zm1.36 7.72a.58.58 0 1 0 .58.58.58.58 0 0 0-.58-.58zm2.27 0a.58.58 0 1 0 .58.58.58.58 0 0 0-.58-.58zm-1.44-7.72a.58.58 0 1 0 .58.58.58.58 0 0 0-.58-.58zm-.34 3.86a.58.58 0 1 0 .58.58.58.58 0 0 0-.58-.58zm-4.55 0a.58.58 0 1 0 .55.61.58.58 0 0 0-.58-.61zm-9.37 3.86a.58.58 0 1 0 .58.58.58.58 0 0 0-.61-.58zm4.45 0a.58.58 0 1 0 .58.58.58.58 0 0 0-.61-.58zm-2.19 0a.58.58 0 1 0 .58.58.58.58 0 0 0-.6-.58zm32-6.56a.58.58 0 1 0-.58-.58.58.58 0 0 0 .56.58zm-25.28 6.56a.58.58 0 1 0 .58.58.58.58 0 0 0-.58-.58zm7.18-3.86a.58.58 0 1 0 .58.58.58.58 0 0 0-.58-.58zm-9 0a.58.58 0 1 0 .58.58.58.58 0 0 0-.59-.58zm-.46 3.86a.58.58 0 1 0 .58.58.58.58 0 0 0-.59-.58zm-1.78-3.86a.58.58 0 1 0 .58.58.58.58 0 0 0-.58-.58zm61 4.45l-1.26-5.28a1 1 0 0 0-1-.77h-5l-1.54-6.36a1 1 0 0 0-1-.76h-4.78l-1.09-3.26a1 1 0 0 0-.95-.68h-.19v-.48l1.09-2a1 1 0 0 0-.88-1.48h-5.54a1 1 0 0 0-.71.29l-7.6 7.6h-9.9l-1-2.17a1 1 0 0 0-.8-.59L22.28 3.78a1 1 0 0 0-.9.37l-2.95 3.74h-2.67a1 1 0 0 0-.86.48l-1.2 2h-1.76a1 1 0 0 0-.75.34l-1.17 1.38H8.16a1 1 0 0 0-.85.47l-1.29 2.17h-5a1 1 0 0 0-1 1.24l.55 2.19v.12L5.02 29.8a1 1 0 0 0 .93.64h67.59a1 1 0 0 0 1-.82l1.48-8.14a1 1 0 0 0 0-.41zM54.29 2h3.42l-.42.76a1 1 0 0 0-.12.53L57.26 5a1 1 0 0 0 1 .95h.42l.65 1.95H48.4zm-26.9 4.39l5.71.67.37.84h-7.2zm-1.14-.17l-1.23 1.67h-1.37l1.37-1.78zm-3.64-.43l1.22.14-1.43 1.92h-1.38zm50.1 22.61h-66l-.55-1.42h66.81zm.44-2.42H5.75l-3.24-8.4-.22-.89h4.25a1 1 0 0 0 .85-.47l1.34-2.17h1.72a1 1 0 0 0 .75-.34l1.2-1.37h1.87a1 1 0 0 0 .86-.48l1.2-2h49.11l1.58 6.36a1 1 0 0 0 1 .76h5l.49 2.24h-4.49a1 1 0 0 0 0 2h5v.13zM35.63 12.75a.58.58 0 1 0 .58.58.58.58 0 0 0-.58-.58zm3.79 3.86a.58.58 0 1 0 .6.61.58.58 0 0 0-.6-.61zm-2.27 0a.58.58 0 1 0 .58.58.58.58 0 0 0-.58-.58zm.46-3.86a.58.58 0 1 0 .58.58.58.58 0 0 0-.57-.58zm4.41 1.16a.58.58 0 1 0-.58-.58.58.58 0 0 0 .58.58zm-2.19-1.16a.58.58 0 1 0 .58.58.58.58 0 0 0-.53-.58zm22.51 3.94H42.02a.5.5 0 0 0 0 1h20.37a.5.5 0 0 0 0-1zm0-3.86h-15a.5.5 0 0 0 0 1h15a.5.5 0 0 0 0-1zm-12.73 7.14h-3.47a.5.5 0 0 0-.5.5v2.12a.5.5 0 0 0 .5.5h3.47a.5.5 0 0 0 .5-.5v-2.12a.5.5 0 0 0-.5-.5zm-.5 2.12h-2.47v-1.12h2.47zm11.45-2.12h-3.47a.5.5 0 0 0-.5.5v2.12a.5.5 0 0 0 .5.5h3.47a.5.5 0 0 0 .5-.5v-2.12a.5.5 0 0 0-.5-.5zm-.54 2.13h-2.43v-1.13h2.43zm-5-2.12h-3.41a.5.5 0 0 0-.5.5v2.12a.5.5 0 0 0 .5.5h3.47a.5.5 0 0 0 .5-.5v-2.13a.5.5 0 0 0-.49-.5zm-.5 2.12h-2.41v-1.13h2.47zm-26.8-1.62a.58.58 0 1 0 .58.58.58.58 0 0 0-.52-.59zm1.13-7.72a.58.58 0 1 0 .58.58.58.58 0 0 0-.52-.59zm1.8 3.86a.58.58 0 1 0 .58.58.58.58 0 0 0-.52-.59zm-.63 3.85a.58.58 0 1 0 .58.58.58.58 0 0 0-.58-.58zm-3.4-7.72a.58.58 0 1 0 .58.58.58.58 0 0 0-.58-.58zm1.82 3.86a.58.58 0 1 0 .58.61.58.58 0 0 0-.57-.61zm4.25 0a.58.58 0 1 0 .58.58.58.58 0 0 0-.57-.58zm.66-3.86a.58.58 0 1 0 .58.58.58.58 0 0 0-.57-.58zm1.14 7.72a.58.58 0 1 0 .58.58.58.58 0 0 0-.57-.58zm-2.27 0a.58.58 0 1 0 .58.58.58.58 0 0 0-.56-.58zm-1.06-7.72a.58.58 0 1 0 .58.58.58.58 0 0 0-.56-.58zm3.79 3.86a.58.58 0 1 0 .58.58.58.58 0 0 0-.56-.58z"/></svg>