<?xml version="1.0" encoding="utf-8"?>
<!-- Generator: Adobe Illustrator 17.1.0, SVG Export Plug-In . SVG Version: 6.00 Build 0)  -->
<!DOCTYPE svg PUBLIC "-//W3C//DTD SVG 1.1//EN" "http://www.w3.org/Graphics/SVG/1.1/DTD/svg11.dtd">
<svg version="1.1" id="Layer_1" xmlns="http://www.w3.org/2000/svg" xmlns:xlink="http://www.w3.org/1999/xlink" x="0px" y="0px"
	 viewBox="0 0 126 126" enable-background="new 0 0 126 126" xml:space="preserve">
<g>
	<path fill="#FFFFFF" d="M99.583,42h-5.666C93.364,42,93,42.559,93,43.111V44h-3v-8.306c0-0.16-0.086-0.305-0.152-0.438
		c-0.057-0.14-0.156-0.271-0.276-0.379l-5.212-4.625C84.177,30.09,83.93,30,83.685,30h-41.58c-0.235,0-0.462,0.083-0.643,0.234
		l-5.202,4.361c-0.297,0.249-0.36,0.633-0.28,0.988C35.977,35.621,36,35.655,36,35.694V44h-3v-0.889C33,42.559,32.636,42,32.083,42
		h-5.667C25.865,42,25,42.559,25,43.111v13.208C25,56.872,25.865,57,26.417,57h5.667C32.636,57,33,56.872,33,56.319V45h3v42.694
		C36,88.247,36.365,89,36.917,89H37v1.306C37,90.858,37.698,91,38.25,91h9.25c0.552,0,0.5-0.142,0.5-0.694V89h29v1.306
		C77,90.858,77.864,91,78.417,91h9.25C88.22,91,89,90.858,89,90.306V89h-0.083C89.47,89,90,88.247,90,87.694V45h3v11.319
		C93,56.872,93.364,57,93.917,57h5.666c0.553,0,1.417-0.128,1.417-0.681V43.111C101,42.559,100.136,42,99.583,42z M88,87H38v-5.634
		c1,0.082,2.651,0.264,4.536,0.479c5.123,0.587,12.844,1.474,20.527,1.474c7.75,0,15.528-0.895,20.654-1.486
		c1.732-0.2,3.283-0.369,4.283-0.454V87z M38,74.098c4,0.872,11.476,5.257,12.575,7.59c-2.988-0.27-5.684-0.581-7.905-0.835
		c-1.996-0.229-3.67-0.41-4.67-0.489V74.098z M83.592,80.84c-2.271,0.262-5.039,0.583-8.11,0.859C76.549,79.395,84,75.067,88,74.13
		v6.246C87,80.458,85.43,80.627,83.592,80.84z M74.387,81.794c-3.549,0.299-7.449,0.525-11.324,0.525
		c-3.91,0-7.81-0.232-11.401-0.538C50.904,78.638,42,73.989,38,73.097v-4.826c1,0.253,2.584,0.799,4.427,1.448
		c5.144,1.812,12.896,4.552,20.636,4.552c7.808,0,15.617-2.763,20.764-4.591C85.514,69.08,87,68.573,88,68.312v4.815
		C84,74.087,75.117,78.681,74.387,81.794z M85.781,67.997c-0.643,0.219-1.457,0.467-2.228,0.74
		c-5.082,1.805-12.818,4.533-20.455,4.533c-7.569,0-15.419-2.705-20.499-4.495c-0.894-0.314-1.6-0.597-2.6-0.84V43h46v24.944
		C86,67.963,85.779,67.979,85.781,67.997z M87,67.671V42.694C87,42.418,86.318,42,86.042,42h-46.25C39.516,42,39,42.418,39,42.694
		v24.919c0-0.157-1-0.283-1-0.368V37h50v30.283C88,67.377,87,67.508,87,67.671z M42.469,32h40.836l3.03,3h-47.08L42.469,32z M31,55
		h-4V44h4V55z M99,55h-4V44h4V55z"/>
	<path fill="#FFFFFF" d="M40.668,75.735c-1.287,0-2.334,1.047-2.334,2.334c0,1.287,1.047,2.334,2.334,2.334
		c1.287,0,2.333-1.047,2.333-2.334C43.001,76.782,41.955,75.735,40.668,75.735z M40.668,79.403c-0.735,0-1.334-0.599-1.334-1.334
		c0-0.735,0.599-1.334,1.334-1.334c0.735,0,1.333,0.599,1.333,1.334C42.001,78.805,41.403,79.403,40.668,79.403z"/>
	<path fill="#FFFFFF" d="M45.001,80.861c0.894,0,1.621-0.71,1.621-1.583c0-0.873-0.727-1.584-1.621-1.584
		c-0.894,0-1.621,0.711-1.621,1.584C43.38,80.151,44.107,80.861,45.001,80.861z M45.001,78.694c0.342,0,0.621,0.262,0.621,0.584
		c0,0.321-0.279,0.583-0.621,0.583S44.38,79.6,44.38,79.278C44.38,78.956,44.659,78.694,45.001,78.694z"/>
	<path fill="#FFFFFF" d="M85.291,75.735c-1.286,0-2.333,1.047-2.333,2.334c0,1.287,1.047,2.334,2.333,2.334
		c1.287,0,2.334-1.047,2.334-2.334C87.625,76.782,86.578,75.735,85.291,75.735z M85.291,79.403c-0.735,0-1.333-0.599-1.333-1.334
		c0-0.735,0.598-1.334,1.333-1.334c0.735,0,1.334,0.599,1.334,1.334C86.625,78.805,86.026,79.403,85.291,79.403z"/>
	<path fill="#FFFFFF" d="M80.958,77.694c-0.894,0-1.621,0.711-1.621,1.584c0,0.873,0.728,1.583,1.621,1.583
		c0.894,0,1.621-0.71,1.621-1.583C82.579,78.405,81.852,77.694,80.958,77.694z M80.958,79.861c-0.343,0-0.621-0.262-0.621-0.583
		c0-0.322,0.278-0.584,0.621-0.584c0.343,0,0.621,0.262,0.621,0.584C81.579,79.6,81.301,79.861,80.958,79.861z"/>
</g>
</svg>
