<svg data-name="Layer 2" xmlns="http://www.w3.org/2000/svg" viewBox="0 0 108 108"><title>Icon_RH_nature_blowingsnow_RGB_Black</title><path d="M33 59.52H14a1 1 0 1 0 0 2h19c19.23 0 26.22 8.92 26.36 16.56.1 5.17-2.08 9.4-6 11.62-3.25 1.85-7.25 2-10 .28-1.56-1-3.38-2.93-3.16-6.82.18-3.16 3.56-5.54 5.67-5.54a1 1 0 0 0 0-2A8.42 8.42 0 0 0 38.28 83c-.21 3.79 1.24 6.86 4.1 8.63a10.51 10.51 0 0 0 5.55 1.5 13.13 13.13 0 0 0 6.46-1.74c4.54-2.59 7.09-7.47 7-13.39-.19-8.5-7.71-18.48-28.39-18.48zm-8.5-3.32a1 1 0 0 0 0-2H13.25a1 1 0 0 0 0 2zm6.4 8.3H19.51a1 1 0 0 0 0 2H30.9c.25 0 6.08.08 6.19 5a3.65 3.65 0 0 1-1.7 3.48 4.27 4.27 0 0 1-4.17 0 3.86 3.86 0 0 1-1.93-3.52 1 1 0 0 0-1-1 1 1 0 0 0-1 1 5.86 5.86 0 0 0 2.95 5.25 6.29 6.29 0 0 0 3.07.8 6 6 0 0 0 3.1-.84 5.66 5.66 0 0 0 2.67-5.24c-.08-5.49-5.4-6.93-8.18-6.94zm4.21-10.3h-7.24v2h7.23c7.36 0 12.4-1.36 15-4.06a7.23 7.23 0 0 0 2-5.52c-.21-5.06-3.37-7.39-6.42-7.46a5.57 5.57 0 0 0-5.83 5 3.92 3.92 0 0 0 1.38 3.29 3.6 3.6 0 0 0 3.08.93 1 1 0 1 0-.43-2 1.69 1.69 0 0 1-1.33-.48 2 2 0 0 1-.7-1.62 3.51 3.51 0 0 1 3.79-3.13c2 0 4.31 1.52 4.47 5.54a5.24 5.24 0 0 1-1.47 4C46.45 53 41.9 54.2 35.11 54.2zM81.81 30a20.87 20.87 0 0 0-40 0 13.28 13.28 0 0 0-18.07 9.62 12.84 12.84 0 0 0-12.14 10 .75.75 0 0 0 .73.91h26.84a.75.75 0 0 0 0-1.5H13.31a11.34 11.34 0 0 1 10.75-7.9h.29a.75.75 0 0 0 .74-.63A11.79 11.79 0 0 1 42 31.75a11.9 11.9 0 0 1 4.3 3.6.75.75 0 1 0 1.21-.89 13.42 13.42 0 0 0-4.31-3.76 19.35 19.35 0 0 1 36.94-1 17.52 17.52 0 0 0-4.63.08.75.75 0 1 0 .23 1.48 16 16 0 0 1 5.26.06h.08A15.81 15.81 0 0 1 94 46.92a15.2 15.2 0 0 1-.16 2.08h-6.51a.75.75 0 0 0 0 1.5h7.15a.75.75 0 0 0 .74-.62A17.22 17.22 0 0 0 81.81 30zM89 52.84a3.72 3.72 0 0 0-3.57 2.73h-2.55l2-2.37a.75.75 0 0 0-1.15-1l-2.82 3.34h-5.32L78.26 51l4.3-.77a.75.75 0 1 0-.27-1.48l-3.05.55 1.28-2.3a3.68 3.68 0 0 0 .95.12A3.75 3.75 0 1 0 78.8 46l-1.29 2.23-1-2.89a.75.75 0 0 0-1.41.51l1.47 4.09-2.65 4.6-2.65-4.6 1.47-4.09a.75.75 0 0 0-1.41-.51l-1 2.89L69 46a3.72 3.72 0 0 0-4.52-5.82 3.73 3.73 0 0 0 1.87 7 3.68 3.68 0 0 0 .92-.12l1.29 2.23-3.06-.55a.75.75 0 1 0-.27 1.48l4.3.77 2.66 4.61h-5.35L64 52.23a.75.75 0 0 0-1.15 1l2 2.37h-2.56a3.73 3.73 0 1 0 0 2h2.58l-2 2.35a.75.75 0 0 0 1.15 1l2.8-3.32h5.31l-2.65 4.6-4.28.77a.75.75 0 1 0 .27 1.48l3-.54-1.29 2.23a3.72 3.72 0 1 0-.93 7.33 3.76 3.76 0 0 0 1-.13 3.7 3.7 0 0 0 1.69-6.2l1.29-2.24 1.05 2.92a.75.75 0 0 0 1.41-.51l-1.48-4.11 2.66-4.61 2.66 4.61-1.48 4.11a.75.75 0 0 0 1.41.51l1.05-2.92 1.29 2.24a3.72 3.72 0 0 0 1.67 6.21 3.76 3.76 0 0 0 1 .13 3.73 3.73 0 1 0-.91-7.33l-1.29-2.23 3 .54a.75.75 0 1 0 .27-1.48l-4.27-.77-2.65-4.6h5.31l2.8 3.32a.75.75 0 1 0 1.15-1l-2-2.35h2.57A3.72 3.72 0 1 0 89 52.84zm-9.5-10.53a2.21 2.21 0 0 1 1.35-1 2.25 2.25 0 0 1 .58-.08 2.23 2.23 0 1 1-1.93 1.11zM68.46 44a2.23 2.23 0 1 1-2.16-2.81 2.25 2.25 0 0 1 .58.08A2.23 2.23 0 0 1 68.46 44zm-9.75 14.77a2.23 2.23 0 1 1 2.23-2.23 2.23 2.23 0 0 1-2.23 2.23zm9.5 12a2.23 2.23 0 1 1 .22-1.69 2.23 2.23 0 0 1-.22 1.72zm11.09-1.65a2.23 2.23 0 1 1 .22 1.69 2.22 2.22 0 0 1-.22-1.69zM89 58.79a2.23 2.23 0 1 1 2.23-2.23A2.23 2.23 0 0 1 89 58.79zm-28.67-8.24a.75.75 0 0 0 0-1.5h-5.45a.75.75 0 0 0 0 1.5z"/></svg>