<svg id="Layer_2" data-name="Layer 2" xmlns="http://www.w3.org/2000/svg" viewBox="0 0 108 108"><defs><style>.cls-1{fill:#fff;}</style></defs><title>Icon_RH_nature_partlycloudy-day_RGB_White</title><path class="cls-1" d="M80.27 55.44A17.62 17.62 0 0 0 63.45 43l9-10.25a1 1 0 0 0-1-1.69l-13.84 2.77 2.54-9a.78.78 0 0 0-1.31-.75L52.06 31l-4.6-13.69a1 1 0 0 0-1-.7 1 1 0 0 0-1 .7L41 30.77l-6.54-6.7a.78.78 0 0 0-1.3.75l2.54 9L21.78 31a1 1 0 0 0-1 1.69l9.56 10.83L21 45.93a.78.78 0 0 0 0 1.51l9 2.31-9.35 10.63a1 1 0 0 0 .77 1.71h.2L33 59.77a11.29 11.29 0 0 0-1.54 3.74 10.87 10.87 0 0 0-10.18 8.45.75.75 0 0 0 .73.91h68.77a.75.75 0 0 0 .74-.62 14.53 14.53 0 0 0-11.24-16.8zm-9.84-22.67l-8.31 9.42a16.17 16.17 0 0 0-4.07-6.92zm-11.49-7.38l-2.4 8.53a16.38 16.38 0 0 0-3.76-2.22zm-12.45-6.26l4 11.79a15.8 15.8 0 0 0-7.93 0zm-12.14 6.26l6.06 6.22a16.23 16.23 0 0 0-3.72 2.12zm12.14 7a14.3 14.3 0 0 1 13.83 10.85 17.53 17.53 0 0 0-13.68 12.17 11.1 11.1 0 0 0-4.14-.79 11.25 11.25 0 0 0-6.31 1.92 14.12 14.12 0 0 1-4-9.84 14.28 14.28 0 0 1 14.3-14.28zm-23.63.35L35 35.22a16.28 16.28 0 0 0-4 6.7zm-.8 13.92l8.32-2.12a16.21 16.21 0 0 0-.15 2.12 16.62 16.62 0 0 0 .15 2.12zm.64 13.64l8.14-9.22a16.08 16.08 0 0 0 3.79 6.69l-.14.15zm67.43 11H23a9.39 9.39 0 0 1 8.94-6.3h.16a.75.75 0 0 0 .76-.63 9.74 9.74 0 0 1 13.94-7.25 9.82 9.82 0 0 1 3.55 3 .75.75 0 0 0 1.21-.89A11.32 11.32 0 0 0 48 56.08a16.06 16.06 0 0 1 30.58-.91 14.88 14.88 0 0 0-3.71.1.75.75 0 1 0 .23 1.48 13.33 13.33 0 0 1 4.36.05h.07a13.1 13.1 0 0 1 10.72 12.9 12.45 12.45 0 0 1-.12 1.66z"/></svg>