<svg xmlns="http://www.w3.org/2000/svg" viewBox="0 0 108 108"><title>Icon_RH_nature_waterdroplet-single_RGB_Black</title><path d="M72.57 64.7a.5.5 0 0 0-.5.5 17.94 17.94 0 0 1-17.92 17.92.5.5 0 0 0 0 1A18.94 18.94 0 0 0 73.07 65.2a.5.5 0 0 0-.5-.5zm-5.11-29.21c-4.75-6.66-9.25-13-11.35-18.68a2.06 2.06 0 0 0-1.95-1.37 2 2 0 0 0-2 1.37c-2 5.47-6.37 11.42-11 17.71-7.28 10-14.8 20.27-14.8 30.67a27.73 27.73 0 0 0 55.46 0c.06-9.48-7.27-19.76-14.36-29.7zM54.15 90.93A25.76 25.76 0 0 1 28.42 65.2c0-9.75 7.33-19.79 14.42-29.49C47.53 29.29 52 23.23 54.08 17.5h.11c2.19 6 6.76 12.37 11.6 19.15 6.91 9.68 14.05 19.69 14.05 28.55a25.76 25.76 0 0 1-25.69 25.73z"/></svg>