<svg data-name="Layer 2" xmlns="http://www.w3.org/2000/svg" viewBox="0 0 108 108"><title>Icon_RH_nature_thunderstorm-severe_RGB_Black</title><path d="M81.81 30a20.87 20.87 0 0 0-40 0 13.28 13.28 0 0 0-18.07 9.62 12.84 12.84 0 0 0-12.14 10 .75.75 0 0 0 .73.91h11.18l-10 10a.5.5 0 1 0 .71.71l10.7-10.69h11.63L16.68 70.43a.75.75 0 1 0 1.06 1.06l20.93-20.94H50L21.63 78.88a.75.75 0 1 0 1.06 1.06l29.38-29.39h6.87l-2.54 7.3L28.75 85.5a.5.5 0 1 0 .71.71L55.65 60l-2.92 8.4a1 1 0 0 0 .94 1.33h3.88l-20.77 20.8a.75.75 0 1 0 1.06 1.06l21.83-21.84H63v8.31L47.28 93.78a.5.5 0 1 0 .71.71l15-15v14.2a1 1 0 0 0 .83 1H64a1 1 0 0 0 .94-.67l8.78-25.24L79.46 63v14.67a.75.75 0 0 0 .63.74h.12a.75.75 0 0 0 .71-.51L89 54a.73.73 0 0 0 0-.51l2.91-2.91h2.56a.75.75 0 0 0 .74-.62A17.22 17.22 0 0 0 81.81 30zM65 87.75v-19a1 1 0 0 0-1-1h-8.92l6-17.2h2.28V63a1 1 0 0 0 1 1h8.92zM79.46 61.6l-5 5 1.14-3.29a1 1 0 0 0-.93-1.31h-7.22l4.28-4.28-.1.3a.75.75 0 0 0 .71 1h7.11zm-14.12.4V50.55h8.81l-1.34 4zM81 73.12V58.23a.75.75 0 0 0-.75-.75h-6.86l2.35-6.93h4v3.17a.75.75 0 0 0 .75.75h6.82zM88.08 53h-6.86v-2.45h9.29zm5.76-4H13.31a11.34 11.34 0 0 1 10.75-7.9h.29a.75.75 0 0 0 .74-.63A11.79 11.79 0 0 1 42 31.75a11.9 11.9 0 0 1 4.3 3.6.75.75 0 1 0 1.21-.89 13.42 13.42 0 0 0-4.31-3.76 19.35 19.35 0 0 1 36.94-1 17.51 17.51 0 0 0-4.63.08.75.75 0 1 0 .23 1.48 16 16 0 0 1 5.26.06h.08A15.81 15.81 0 0 1 94 46.92a15.2 15.2 0 0 1-.16 2.08z"/></svg>