<svg data-name="Layer 2" xmlns="http://www.w3.org/2000/svg" viewBox="0 0 108 108"><title>Icon_RH_nature_snowflurries_RGB_Black</title><path d="M34.81 75.72a1.46 1.46 0 0 0 0-2.09 1.54 1.54 0 0 0-2.16 0 1.5 1.5 0 1 0 2.12 2.12zm1.55-22.48a1.5 1.5 0 1 0 2.12 2.12 1.48 1.48 0 0 0 0-2.1 1.52 1.52 0 0 0-2.12-.02zm-2.14 36.34A1 1 0 1 0 35.66 91a1 1 0 0 0 0-1.4 1 1 0 0 0-1.44-.02zM26.8 62.79l-.08.08A1.5 1.5 0 1 0 28.85 65l.08-.08a1.5 1.5 0 0 0-2.12-2.12zm-2.66 19.35a1.5 1.5 0 1 0 2.12 2.12 1.48 1.48 0 0 0 0-2.1 1.52 1.52 0 0 0-2.12-.02zM12.85 60.83a1 1 0 1 0 1.39 1.43 1 1 0 0 0 0-1.4 1 1 0 0 0-1.39-.03zm4.27 11.65a1.5 1.5 0 1 0 2.15 2.09 1.48 1.48 0 0 0 0-2.1 1.52 1.52 0 0 0-2.15.01zm26.2-5.27a1.46 1.46 0 0 0 0-2.09 1.54 1.54 0 0 0-2.16 0 1.5 1.5 0 1 0 2.12 2.12zM20 53.65a1 1 0 1 0 1.41 1.41 1 1 0 0 0 0-1.4 1 1 0 0 0-1.41-.01zm31.8 5.08a1.48 1.48 0 0 0 0-2.1 1.52 1.52 0 0 0-2.14 0 1.5 1.5 0 1 0 2.12 2.12zM67 73a1.5 1.5 0 1 0 2.12 2.12 1.48 1.48 0 0 0 0-2.1A1.52 1.52 0 0 0 67 73zm22.8-9.3a2.1 2.1 0 0 0-2 1.35h-1l.85-1a.5.5 0 0 0-.76-.64L85.49 65h-2.55l1.28-2.21 2.12-.38a.5.5 0 1 0-.18-1l-1.29.23.53-.92a2.07 2.07 0 0 0 .33 0A2.12 2.12 0 1 0 84.1 60l-.52.91-.44-1.22a.5.5 0 0 0-.94.34l.73 2-1.27 2.2L80.38 62l.73-2a.5.5 0 0 0-.3-.64.5.5 0 0 0-.64.3l-.44 1.22-.53-.88a2.09 2.09 0 1 0-1.63.78 2.07 2.07 0 0 0 .32 0l.53.92-1.29-.23a.5.5 0 1 0-.18 1l2.12.38L80.36 65h-2.55l-1.39-1.65a.5.5 0 0 0-.76.64l.85 1h-1.06a2.1 2.1 0 1 0 0 1.5h1l-.84 1a.5.5 0 0 0 .76.65l1.38-1.64h2.54l-1.27 2.2-2.02.39a.5.5 0 1 0 .18 1l1.28-.23-.52.91a2.1 2.1 0 1 0 1.3.75l.53-.91.44 1.23a.5.5 0 0 0 .47.33h.17a.5.5 0 0 0 .3-.64l-.73-2 1.28-2.21 1.28 2.21-.73 2a.5.5 0 0 0 .3.64h.17a.5.5 0 0 0 .47-.33l.44-1.24.53.91a2.1 2.1 0 0 0-.2 2.38 2.1 2.1 0 1 0 1.5-3.13l-.52-.91 1.28.23a.5.5 0 0 0 .18-1l-2.11-.38L83 66.51h2.5l1.38 1.64a.5.5 0 0 0 .76-.64l-.84-1h1a2.1 2.1 0 1 0 2-2.85zm-5-5.52a1.1 1.1 0 0 1 .67-.51 1.1 1.1 0 0 1 .84.11 1.1 1.1 0 0 1 .4 1.51 1.1 1.1 0 1 1-1.91-1.1zm-6.16.82a1.1 1.1 0 1 1-.11-.84 1.1 1.1 0 0 1 .11.84zm-5.15 7.89a1.1 1.1 0 1 1 1.1-1.1 1.1 1.1 0 0 1-1.11 1.06zm5 6.52a1.1 1.1 0 1 1-.4-1.51 1.11 1.11 0 0 1 .43 1.48zm6.66-1.5a1.1 1.1 0 1 1-.4 1.51 1.11 1.11 0 0 1 .42-1.55zm4.64-5a1.1 1.1 0 1 1 1.1-1.1 1.1 1.1 0 0 1-1.08 1.05zM81.8 30a20.87 20.87 0 0 0-40 0 13.29 13.29 0 0 0-18.07 9.62 12.84 12.84 0 0 0-12.14 10 .75.75 0 0 0 .73.91H50.8a.75.75 0 0 0 0-1.5H13.3A11.34 11.34 0 0 1 24 41.15h.29a.72.72 0 0 0 .76-.63A11.79 11.79 0 0 1 42 31.75a11.91 11.91 0 0 1 4.29 3.6.75.75 0 0 0 1.21-.89 13.42 13.42 0 0 0-4.32-3.76 19.34 19.34 0 0 1 36.94-1 17.58 17.58 0 0 0-4.63.09.75.75 0 1 0 .23 1.48 16 16 0 0 1 5.26.06h.08A15.81 15.81 0 0 1 94 46.92a15.2 15.2 0 0 1-.17 2.08H77.67a.75.75 0 0 0 0 1.5h16.8a.75.75 0 0 0 .74-.62A17.22 17.22 0 0 0 81.8 30zm-7.23 19.94a2.1 2.1 0 0 0-4.06-.75h-1.06l.85-1a.5.5 0 1 0-.76-.65l-1.39 1.65h-2.56L66.87 47l2.13-.41a.5.5 0 0 0-.18-1l-1.29.23.53-.92a2.07 2.07 0 0 0 .33 0 2.12 2.12 0 0 0 .55-.07 2.11 2.11 0 1 0-2.18-.72l-.52.91-.44-1.22a.5.5 0 0 0-.94.34l.73 2-1.27 2.2L63 46.22l.73-2a.5.5 0 0 0-.94-.34l-.44 1.22-.52-.91A2.1 2.1 0 0 0 62 41.8a2.1 2.1 0 1 0-2.37 3.08 2.13 2.13 0 0 0 .55.07 2.07 2.07 0 0 0 .32 0l.53.92-1.29-.23a.5.5 0 0 0-.18 1l2.12.38L63 49.19h-2.54l-1.39-1.65a.5.5 0 0 0-.76.65l.85 1H58.1a2.1 2.1 0 1 0 0 1.5h1l-.84 1a.5.5 0 1 0 .76.65l1.38-1.64H63l-1.27 2.2-2.11.38a.5.5 0 0 0 .18 1l1.27-.28-.52.9a2.1 2.1 0 1 0 1.3.75l.53-.91.44 1.26a.5.5 0 0 0 .47.33h.17a.5.5 0 0 0 .3-.64l-.73-2 1.28-2.21 1.28 2.21-.73 2a.5.5 0 0 0 .3.64h.17a.5.5 0 0 0 .47-.33l.44-1.23.53.91a2.1 2.1 0 1 0 1.3-.74l-.53-.94 1.28.23a.5.5 0 0 0 .18-1l-2.11-.38-1.27-2.2h2.54l1.38 1.64a.5.5 0 0 0 .76-.65l-.84-1h1a2.1 2.1 0 0 0 4.06-.75zm-7.13-7.63a1.1 1.1 0 1 1-.11.84 1.1 1.1 0 0 1 .1-.84zm-6.66 1.5a1.1 1.1 0 1 1-.55-2.06 1.11 1.11 0 0 1 .29 0 1.09 1.09 0 0 1 .67.51 1.1 1.1 0 0 1-.41 1.55zM56.14 51a1.1 1.1 0 1 1 1.1-1.1 1.1 1.1 0 0 1-1.1 1.1zm5 6.52a1.1 1.1 0 1 1-1.24-1.62 1.1 1.1 0 0 1 .84.11 1.1 1.1 0 0 1 .4 1.51zm6.14-.83a1.1 1.1 0 1 1 .11.84 1.1 1.1 0 0 1-.08-.81zm4-6.78a1.1 1.1 0 1 1 1.1 1.1 1.1 1.1 0 0 1-1.02-1.07zM57.14 82.83l-.08.08A1.5 1.5 0 1 0 59.18 85l.08-.08a1.5 1.5 0 0 0-2.12-2.12zm-10 10a1.5 1.5 0 1 0 2.12 2.12 1.48 1.48 0 0 0 0-2.1 1.52 1.52 0 0 0-2.11-.03zm4-20.2A1 1 0 1 0 52.59 74l.07-.07a1 1 0 0 0 0-1.38 1 1 0 0 0-1.48.07zm8.49-8.49a1 1 0 1 0 1.41 1.41 1 1 0 0 0 0-1.4 1 1 0 0 0-1.37-.02zm-17 17a1 1 0 1 0 1.41 1.41l.07-.07a1 1 0 0 0 0-1.38 1 1 0 0 0-1.42.01z"/></svg>