<svg data-name="Layer 1" xmlns="http://www.w3.org/2000/svg" viewBox="0 0 56.99 62.49"><title>Icon_RH_Nature_Seal_RGB_Black</title><path d="M33.13 16.51a.49.49 0 0 0-.34-.8.5.5 0 0 0-.22-.88l-9.2-1.75a.51.51 0 0 0-.19 1l8.94 1.7-6 .7a.5.5 0 0 0 .06 1h.06l6.25-.75-7.31 3.52a.5.5 0 0 0 .22.95.49.49 0 0 0 .22-.05l7.68-3.72a.5.5 0 0 0 .23-.67.49.49 0 0 0-.4-.25zm-3.51-3.61a1.75 1.75 0 1 0-1.75-1.75 1.76 1.76 0 0 0 1.75 1.75zm0-2.51a.75.75 0 1 1-.75.75.75.75 0 0 1 .75-.75zm27.32 43.64c-.29-1.26-2-1.62-2.68-1.72l-10.31-1.4a1.5 1.5 0 0 1-1.2-.64c-.77-1.2.08-4 .48-5.31a1 1 0 0 0 0-.35l.79-1.21c.68-1.06 1.37-2.12 2.06-3.16 3.9-5.87 2.46-14.26.73-21.24l.48.15h.15a.506.506 0 0 0 .15-1l-1.05-.32c-.19-.75-.38-1.48-.57-2.18v-.11h.16a.5.5 0 0 0 .48-.52.49.49 0 0 0-.52-.48h-.27v-1.83l2.83-1a.5.5 0 0 0-.34-.94l-2.57.91c-.57-5.4-3.61-9.61-8.28-11.14a13.35 13.35 0 0 0-14.97 5.53c-2.35 3.92-2.41 8.83-2.45 13.15v1.11a29.51 29.51 0 0 1-.22 3.25c-1.22.33-5.31 1.44-7.93 2.36-.32.11-7.81 2.85-10.05 10.86-2.13 7.6-2.73 12.37.2 15.82 1.75 2.06 4.59 4.36 7.05 4.36h.39c-2.37.8-5.86 2-7.12 2.24-2.35.52-2.44 1.61-2.37 2.06.17 1 1.32 1.25 2.36 1.25a11.75 11.75 0 0 0 1.18-.07 139.15 139.15 0 0 0 14.57-.35c4.11-.51 7.88-1.4 9.2-5.82l4.78-.41a7 7 0 0 0 3.62-1.51 2.53 2.53 0 0 0 1.41.93 17.11 17.11 0 0 1 3 1.44 10.84 10.84 0 0 0 5.38 1.04 42.08 42.08 0 0 0 10.06-1.53 1 1 0 0 0 .28-.13c1.14-.78 1.23-1.56 1.11-2.09zM44.06 16.18l.26 1-4.46-1.37 4.06-.15zm-.25-1.53l-3.73.14 3.76-1.34q0 .61-.04 1.2zm-11.88 39.2l-4.22.4c0-.16 0-.3.06-.47a1 1 0 0 0-.92-1.07 1 1 0 0 0-1.07.92c-.4 5.17-3.39 5.93-7.91 6.5a120.33 120.33 0 0 1-12.61.36c2.94-.92 7-2.34 7.25-2.42a1 1 0 0 0 .53-.44 21.6 21.6 0 0 1 2-2.62c.64-.75 1.29-1.51 1.88-2.3 1.23-1.64 1.38-2.27 1.21-2.79a1.11 1.11 0 0 0-.67-.69 1 1 0 0 0-1.31 1 8.56 8.56 0 0 1-.83 1.26c-.55.74-1.19 1.48-1.81 2.2l-.43.51c-5-1.81-7-8.81-7.06-8.88a1.002 1.002 0 0 0-1.93.54c.08.28 1.69 5.83 5.8 8.86a1.29 1.29 0 0 1-.64.26c-1.39.14-3.79-1.38-5.72-3.65-2.12-2.49-2.07-5.89.2-14 2-7 8.73-9.49 8.79-9.51 2.07-.72 5.17-1.6 6.88-2.07-1.06 4.54-3.14 5.65-3.21 5.69a1 1 0 0 0 .8 1.83c.2-.08 4.86-2.2 5-12.91v-1.11c0-4.07.09-8.68 2.17-12.14a11.41 11.41 0 0 1 12.59-4.62c4.72 1.55 6.65 5.79 7 9.93l-4.26 1.52a.5.5 0 0 0-.3.64.48.48 0 0 0 .23.26.49.49 0 0 0-.23.84.49.49 0 0 0-.35.33.5.5 0 0 0 .33.63l5.45 1.67c1.75 6.83 3.5 15.32-.16 20.82-.7 1.05-1.39 2.12-2.07 3.18-1.3 2-2.64 4.09-4.07 6.09-1.59 2.2-3.75 5.23-6.39 5.45zm-21 2.61a3.42 3.42 0 0 0 .79-.71h.11c-.11.16-.23.31-.32.46zm30.26-1.49a19.17 19.17 0 0 0-3.36-1.59l-.43-.13v-.4a32.1 32.1 0 0 0 2.6-3.3l.48-.7a4.53 4.53 0 0 0 .62 2.53 3.5 3.5 0 0 0 2.62 1.55L54 54.25a3.58 3.58 0 0 1 .58.13c-3.09.87-10.47 2.3-13.4.59zm-1.37-43.89a1.72 1.72 0 1 0-1.72-1.72 1.72 1.72 0 0 0 1.72 1.72zm0-2.44a.72.72 0 1 1-.72.72.72.72 0 0 1 .72-.72zm-1.57 3.45a3.06 3.06 0 0 0-3.92.44.5.5 0 0 0-.08.54 3.44 3.44 0 0 0 2.24 1.82h.22c1.33-.32 1.72-2.07 1.76-2.27a.5.5 0 0 0-.22-.53zm-1.66 1.79a2.54 2.54 0 0 1-1.25-.91 2 2 0 0 1 2.06-.2 1.89 1.89 0 0 1-.81 1.11z"/></svg>