<svg id="Layer_1" data-name="Layer 1" xmlns="http://www.w3.org/2000/svg" viewBox="0 0 108 108"><defs><style>.cls-1{fill:none;}</style></defs><title>Icon_RH_Nature_Cactus_RGB_Flat</title><path class="cls-1" d="M69.81,40.47c-1.51,1.4-1.54,3.39-1.54,5.26q0,3.63,0,7.27c0,2-.11,4.27-1.63,5.57a5.2,5.2,0,0,1-3.33,1.05,1.4,1.4,0,0,1-1.43-1.41l0-26.11c0-2.73,0-5.62-1.45-8a7.54,7.54,0,0,0-12.64-.4C46.07,26.26,46,29.55,46,32.62l0.09,15.86,0,7.41,0,3.74c0,1.37,0,3.08-.86,4.23-1.21,1.54-3.54.89-4.54-.55s-1.09-3.51-1.08-5.37l0.06-12.36A8.87,8.87,0,0,0,39.28,42a4.37,4.37,0,0,0-7.76-.5,8.72,8.72,0,0,0-.81,4.45l0,9.61c0,5,.14,10.5,3.44,14.27,2.95,3.36,7.65,4.45,12,5.26q0,5.39,0,10.77a1.77,1.77,0,0,0,.35,1.3,1.22,1.22,0,0,0,.72.3,4.23,4.23,0,0,0,.55,0H60.49A1.15,1.15,0,0,0,61.86,86V70.93A2.08,2.08,0,0,1,62,70a2.25,2.25,0,0,1,1.91-.86c5-.57,9.94-3.52,12-8.13,1.81-4,1.29-8.68,1.41-13.1,0.07-2.68.25-5.74-1.8-7.54A4.32,4.32,0,0,0,69.81,40.47Z"/><path d="M79.22,44.48a7.36,7.36,0,0,0-2.07-5.36,6.17,6.17,0,0,0-4.56-1.69c-3.76.09-6.22,2.85-6.27,7,0,1.37,0,2.73,0,4.1,0,1.92,0,3.9,0,5.85A3.55,3.55,0,0,1,65.42,57a2.7,2.7,0,0,1-1.57.63V50q0-10.32,0-20.64c0-6.21-4.14-10.74-9.82-10.76H54a9.46,9.46,0,0,0-6.73,2.7,11.13,11.13,0,0,0-3.07,8q0,8.85,0,17.69,0,7.24,0,14.47v0a1.06,1.06,0,0,1-1.91.61,4.51,4.51,0,0,1-.54-2.49c0-2.35,0-4.7,0-7.06,0-2.82,0-5.73,0-8.6a6.26,6.26,0,0,0-6.25-6.48,6.34,6.34,0,0,0-4.66,1.74,6.59,6.59,0,0,0-1.95,4.73c-0.07,5.56-.12,11.52,0,17.4A15.9,15.9,0,0,0,40.33,75.78c1,0.28,2,.48,3.08.7l0.79,0.16V88.35a1.06,1.06,0,0,0,1.06,1.06H62.75a1.06,1.06,0,0,0,1.06-1.06V71.17l1-.14c8.94-1.51,14.33-7.81,14.42-16.85C79.26,50.67,79.26,47.5,79.22,44.48Zm-1.91,3.43c-0.12,4.43.4,9.06-1.41,13.1-2.07,4.61-7,7.56-12,8.13A2.25,2.25,0,0,0,62,70a2.08,2.08,0,0,0-.14.93V86a1.15,1.15,0,0,1-1.37,1.46H47.77a4.23,4.23,0,0,1-.55,0,1.22,1.22,0,0,1-.72-0.3,1.77,1.77,0,0,1-.35-1.3q0-5.39,0-10.77c-4.4-.81-9.1-1.9-12-5.26-3.3-3.76-3.46-9.26-3.44-14.27l0-9.61a8.72,8.72,0,0,1,.81-4.45,4.37,4.37,0,0,1,7.76.5,8.87,8.87,0,0,1,.49,3.61L39.71,57.94c0,1.86,0,3.84,1.08,5.37s3.33,2.09,4.54.55c0.9-1.15.87-2.85,0.86-4.23l0-3.74,0-7.41L46,32.62c0-3.07,0-6.36,1.78-8.88a7.54,7.54,0,0,1,12.64.4c1.41,2.34,1.45,5.23,1.45,8l0,26.11a1.4,1.4,0,0,0,1.43,1.41,5.2,5.2,0,0,0,3.33-1.05c1.52-1.3,1.63-3.57,1.63-5.57q0-3.63,0-7.27c0-1.87,0-3.85,1.54-5.26a4.32,4.32,0,0,1,5.7-.1C77.57,42.17,77.39,45.23,77.31,47.91Z"/></svg>