<?xml version="1.0" encoding="utf-8"?>
<!-- Generator: Adobe Illustrator 17.1.0, SVG Export Plug-In . SVG Version: 6.00 Build 0)  -->
<!DOCTYPE svg PUBLIC "-//W3C//DTD SVG 1.1//EN" "http://www.w3.org/Graphics/SVG/1.1/DTD/svg11.dtd">
<svg version="1.1" id="Layer_1" xmlns="http://www.w3.org/2000/svg" xmlns:xlink="http://www.w3.org/1999/xlink" x="0px" y="0px"
	 viewBox="0 0 144 144" enable-background="new 0 0 144 144" xml:space="preserve">
<g>
	<g>
		<g>
			<path d="M118.792,84.487l-0.57-4.582c-0.201-1.622-0.769-4.216-1.264-5.783l-4.326-13.666c-0.313-0.992-0.995-1.79-1.92-2.247
				c-0.924-0.457-1.974-0.515-2.951-0.162l-2.562,0.923c-1.058,0.381-2.533-0.101-3.162-1.027L87.712,36.847
				c-0.613-0.902-1.505-1.421-2.446-1.422c-0.002,0-0.003,0-0.004,0c-0.939,0-1.831,0.515-2.446,1.414l-5.045,7.376
				c-0.798,1.166-2.554,2.649-3.835,3.241l-3.075,1.419c-1.675,0.773-3.495,2.732-4.146,4.458l-3.453,9.184
				c-0.088,0.232-0.178,0.371-0.25,0.455c-0.361-0.215-0.675-0.482-0.88-0.772l-1.173-1.658l-8.684-12.692
				c-0.217-0.318-0.564-0.501-0.955-0.501c0,0-0.001,0-0.002,0c-0.277,0-1.119,0.002-2.695,2.326l-3.051,4.494
				c-0.793,1.168-2.543,2.658-3.822,3.254l-1.09,0.507c-1.672,0.779-3.487,2.743-4.131,4.472l-8.581,23.019
				c-0.38,1.019-0.288,2.049,0.251,2.825c0.54,0.777,1.473,1.223,2.56,1.223h45.393c0.342,0,0.629-0.183,0.81-0.443
				c0.329-0.129,0.622-0.324,0.874-0.576c0.033,0.004,0.062,0.02,0.096,0.02h37.343c1.057,0,2.008-0.418,2.679-1.177
				C118.625,86.532,118.923,85.536,118.792,84.487z M29.843,87.105c-0.163-0.234-0.17-0.584-0.02-0.985l8.58-23.019
				c0.46-1.233,1.91-2.803,3.102-3.358l1.09-0.507c1.604-0.747,3.64-2.48,4.633-3.944l3.051-4.494
				c0.328-0.482,0.62-0.841,0.848-1.087l9.607,14.042c0.646,0.942,1.528,1.422,2.393,1.314c0.226-0.027,0.441-0.095,0.645-0.195
				c0.41,0.095,0.82,0.138,1.207,0.11l4.176-0.316c0.84-0.065,1.82,0.579,2.097,1.376l4.341,12.507
				c0.371,1.067,0.813,2.916,0.967,4.036l0.525,3.846c0.048,0.352-0.04,0.677-0.249,0.916c-0.078,0.089-0.182,0.146-0.284,0.205
				c-0.121-0.053-0.255-0.083-0.396-0.083h-0.838l-0.562-4.337c-0.054-0.411-0.43-0.7-0.841-0.647c-0.41,0.054-0.7,0.43-0.647,0.841
				l0.537,4.144H30.76C30.331,87.469,30.005,87.34,29.843,87.105z M116.455,85.968c-0.285,0.323-0.704,0.501-1.18,0.501H78.577
				c-0.005-0.081,0.002-0.159-0.009-0.241l-0.525-3.846c-0.167-1.221-0.632-3.161-1.035-4.325L72.666,65.55
				c-0.504-1.45-2.105-2.493-3.627-2.38l-4.031,0.305c0.041-0.087,0.092-0.16,0.127-0.254l3.453-9.183
				c0.463-1.231,1.916-2.795,3.111-3.347l3.074-1.419c1.606-0.741,3.648-2.466,4.647-3.927l5.045-7.376
				c0.24-0.351,0.522-0.543,0.796-0.543c0,0,0,0,0.001,0c0.273,0,0.556,0.194,0.795,0.546l14.324,21.096
				c1.152,1.695,3.564,2.482,5.494,1.785l2.562-0.922c0.464-0.167,0.956-0.141,1.388,0.073c0.432,0.213,0.751,0.589,0.899,1.058
				l4.326,13.666c0.456,1.445,1,3.93,1.186,5.426l0.57,4.582C116.866,85.206,116.741,85.644,116.455,85.968z"/>
			<path d="M89.776,47.189c-0.223-0.349-0.686-0.45-1.036-0.226c-0.349,0.224-0.449,0.688-0.226,1.037l8.625,13.438
				c0.143,0.223,0.385,0.344,0.632,0.344c0.139,0,0.278-0.038,0.404-0.118c0.349-0.224,0.449-0.688,0.226-1.037L89.776,47.189z"/>
			<path d="M89.85,54.796c-0.221-0.35-0.685-0.456-1.034-0.234c-0.351,0.221-0.455,0.684-0.233,1.035l2.83,4.484
				c0.151,0.241,0.226,0.419,0.26,0.534c-0.12-0.005-0.311-0.036-0.58-0.126l-4.845-1.627c-1.391-0.468-2.073,0.004-2.354,0.328
				c-0.28,0.324-0.652,1.062,0.008,2.376l5.859,11.667c0.132,0.262,0.396,0.413,0.671,0.413c0.112,0,0.228-0.025,0.336-0.08
				c0.37-0.186,0.52-0.637,0.333-1.006l-5.859-11.666c-0.225-0.449-0.221-0.691-0.232-0.705c0.048-0.026,0.288-0.065,0.761,0.095
				l4.845,1.627c1.347,0.452,1.996,0.078,2.306-0.316c0.309-0.394,0.518-1.114-0.24-2.314L89.85,54.796z"/>
			<path d="M54.701,58.122c-0.221-0.351-0.685-0.455-1.034-0.234c-0.351,0.221-0.455,0.684-0.233,1.035l4.367,6.919
				c0.143,0.227,0.386,0.35,0.635,0.35c0.137,0,0.275-0.037,0.399-0.115c0.351-0.221,0.455-0.684,0.233-1.035L54.701,58.122z"/>
		</g>
	</g>
</g>
</svg>
