<svg id="Layer_1" data-name="Layer 1" xmlns="http://www.w3.org/2000/svg" viewBox="0 0 108 108"><defs><style>.cls-1{fill:none;}.cls-2{fill:#fff;}</style></defs><title>Icon_RH_Nature_Bull_RGB_White</title><path class="cls-1" d="M56.93,69.52a1.34,1.34,0,0,0,.78-0.45,1.2,1.2,0,0,0,.45-0.81,1.81,1.81,0,0,0-.77.49A1.35,1.35,0,0,0,56.93,69.52Z"/><path class="cls-1" d="M82.92,38.35c-0.71.49-1.42,1-2.14,1.45a42.34,42.34,0,0,1-11.63,5.25,20.08,20.08,0,0,1-5.58.88,36.15,36.15,0,0,1-5-.62,37.89,37.89,0,0,0-4.29-.57,15.31,15.31,0,0,0-3.6.45,23.23,23.23,0,0,1-4.86.59,23.31,23.31,0,0,1-2.4-.15,33.9,33.9,0,0,1-14.73-5.22c-0.94-.61-1.85-1.27-2.74-1.91a34,34,0,0,0-5-3.19,12.43,12.43,0,0,0-3-1.06,15.29,15.29,0,0,1,4.48,3.43c0.32,0.31.62,0.61,0.9,0.87,4.49,4.16,9.37,8.34,15.26,9.71a1.22,1.22,0,0,1,.94,1.13,1.19,1.19,0,0,1-.84,1.19l-2.31.73a6.35,6.35,0,0,0,5.08,1.25,1.84,1.84,0,0,1,.35,0,1.69,1.69,0,0,1,1.47.83c2.37,4,4.54,8.6,2.73,12.88l-0.17.38a4.8,4.8,0,0,0-.29.74c-0.4,1.53,1.28,3.08,2,3.68,2.43,2,6.21,3.6,9.54,2.36A13.21,13.21,0,0,0,60,71.7a9.36,9.36,0,0,0,2.45-2.24,2.78,2.78,0,0,0,.41-2.55,4.81,4.81,0,0,0-.4-0.67,5.7,5.7,0,0,1-.64-1.15,5.34,5.34,0,0,1-.06-3,28,28,0,0,1,3.3-8.71,1.74,1.74,0,0,1,1.87-.81,6.37,6.37,0,0,0,5.13-1.27l-2.29-.72a1.2,1.2,0,0,1-.85-1.2,1.22,1.22,0,0,1,.94-1.13c6-1.37,10.92-5.63,15.48-9.87a28.94,28.94,0,0,1,5-4,12.55,12.55,0,0,0-2.26.76A32.35,32.35,0,0,0,82.92,38.35ZM52.7,70.59a1.49,1.49,0,0,1-1.07.43h0a2.74,2.74,0,0,1-1.84-.89c-1-1-1.17-2.2-.46-2.91s1.93-.51,2.91.46S53.41,69.89,52.7,70.59Zm6.07-.46a2.74,2.74,0,0,1-1.84.89,1.5,1.5,0,0,1-1.07-.43c-0.71-.71-0.51-1.93.46-2.91s2.2-1.17,2.91-.47S59.74,69.15,58.77,70.13Z"/><path class="cls-1" d="M50.39,68.29h0a1.81,1.81,0,0,0,.49.77,1.42,1.42,0,0,0,.81.45,1.67,1.67,0,0,0-.48-0.78A1.34,1.34,0,0,0,50.39,68.29Z"/><path class="cls-2" d="M93.25,33.56a1.78,1.78,0,0,0-2-1.31,13.81,13.81,0,0,0-4,1.11,34.35,34.35,0,0,0-5.56,3.35c-0.69.48-1.39,1-2.09,1.42a40.33,40.33,0,0,1-11.08,5,17.76,17.76,0,0,1-5,.8,35,35,0,0,1-4.72-.59,38.45,38.45,0,0,0-4.55-.59,17.38,17.38,0,0,0-4.07.49,21.63,21.63,0,0,1-4.46.56,21.41,21.41,0,0,1-2.2-.14,31.89,31.89,0,0,1-13.85-4.91c-0.9-.58-1.79-1.23-2.66-1.85a35.94,35.94,0,0,0-5.31-3.37,11.57,11.57,0,0,0-4.86-1.37A2.08,2.08,0,0,0,14.68,34c-0.06,1.45,1.62,1.91,2.18,2.06,1.33,0.36,2.88,1.88,4.13,3.11,0.33,0.33.65,0.64,0.95,0.91,4.06,3.76,8.43,7.53,13.65,9.44l-0.82.26a1.4,1.4,0,0,0-.94,1A1.38,1.38,0,0,0,34.13,52a8.37,8.37,0,0,0,7.49,2.57c2.07,3.49,3.94,7.5,2.5,10.9L44,65.81a6.46,6.46,0,0,0-.41,1.07c-0.49,1.9.47,3.94,2.7,5.74a13.48,13.48,0,0,0,8.3,3.24,9.11,9.11,0,0,0,3.2-.56,15.09,15.09,0,0,0,3.4-2,11,11,0,0,0,3-2.76,4.74,4.74,0,0,0,.58-4.48,6.52,6.52,0,0,0-.56-1,4.05,4.05,0,0,1-.43-0.75,3.56,3.56,0,0,1,0-1.89,26,26,0,0,1,3-7.91A8.29,8.29,0,0,0,74.27,52a1.38,1.38,0,0,0,.3-1.29,1.41,1.41,0,0,0-.94-1l-0.77-.24c5.3-1.92,9.74-5.77,13.87-9.61a23.35,23.35,0,0,1,5.55-4.15A1.79,1.79,0,0,0,93.25,33.56ZM85.36,38.4c-4.57,4.25-9.53,8.51-15.48,9.87a1.22,1.22,0,0,0-.94,1.13,1.2,1.2,0,0,0,.85,1.2l2.29,0.72a6.37,6.37,0,0,1-5.13,1.27,1.74,1.74,0,0,0-1.87.81,28,28,0,0,0-3.3,8.71,5.34,5.34,0,0,0,.06,3,5.7,5.7,0,0,0,.64,1.15,4.81,4.81,0,0,1,.4.67,2.78,2.78,0,0,1-.41,2.55A9.36,9.36,0,0,1,60,71.7a13.21,13.21,0,0,1-2.94,1.71c-3.33,1.24-7.11-.4-9.54-2.36-0.74-.6-2.42-2.15-2-3.68a4.8,4.8,0,0,1,.29-0.74L46,66.26c1.81-4.28-.36-8.92-2.73-12.88a1.69,1.69,0,0,0-1.47-.83,1.84,1.84,0,0,0-.35,0,6.35,6.35,0,0,1-5.08-1.25l2.31-.73a1.19,1.19,0,0,0,.84-1.19,1.22,1.22,0,0,0-.94-1.13c-5.88-1.37-10.76-5.55-15.26-9.71C23,38.3,22.71,38,22.39,37.69a15.29,15.29,0,0,0-4.48-3.43,12.43,12.43,0,0,1,3,1.06,34,34,0,0,1,5,3.19c0.89,0.64,1.8,1.3,2.74,1.91a33.9,33.9,0,0,0,14.73,5.22,23.31,23.31,0,0,0,2.4.15,23.23,23.23,0,0,0,4.86-.59,15.31,15.31,0,0,1,3.6-.45,37.89,37.89,0,0,1,4.29.57,36.15,36.15,0,0,0,5,.62,20.08,20.08,0,0,0,5.58-.88,42.34,42.34,0,0,0,11.63-5.25c0.72-.47,1.43-1,2.14-1.45a32.35,32.35,0,0,1,5.23-3.16,12.55,12.55,0,0,1,2.26-.76A28.94,28.94,0,0,0,85.36,38.4Z"/><path class="cls-2" d="M56.32,67.68c-1,1-1.17,2.2-.46,2.91a1.5,1.5,0,0,0,1.07.43,2.74,2.74,0,0,0,1.84-.89c1-1,1.17-2.2.46-2.91S57.3,66.71,56.32,67.68Zm1.39,1.39a1.34,1.34,0,0,1-.78.45,1.35,1.35,0,0,1,.45-0.78,1.81,1.81,0,0,1,.77-0.49A1.2,1.2,0,0,1,57.71,69.07Z"/><path class="cls-2" d="M49.32,67.22c-0.71.71-.51,1.93,0.46,2.91a2.74,2.74,0,0,0,1.84.89h0a1.49,1.49,0,0,0,1.07-.43c0.71-.71.51-1.93-0.46-2.91S50,66.51,49.32,67.22Zm1.52,1.85a1.81,1.81,0,0,1-.49-0.77h0a1.34,1.34,0,0,1,.78.45,1.67,1.67,0,0,1,.48.78A1.42,1.42,0,0,1,50.85,69.07Z"/></svg>