<svg xmlns="http://www.w3.org/2000/svg" viewBox="0 0 108 108"><title>Icon_RH_nature_flower-daisy_RGB_Black</title><path d="M91.5 54c0-1.94-2-3.42-5.56-4.35C89 47.89 90.43 46 90 44.36s-2.63-2.57-6.17-2.56q.43-.42.8-.83c2.61-2.89 2.45-4.71 1.87-5.72-1-1.65-3.45-1.93-7-.95 1.79-3.07 2.11-5.41.88-6.64s-3.57-.9-6.64.88c1-3.57.7-6.07-.95-7-1-.59-2.83-.74-5.72 1.87-.27.25-.55.51-.83.8 0-3.54-.88-5.72-2.56-6.17s-3.53 1-5.29 4.05c-.93-3.59-2.42-5.57-4.35-5.57s-3.43 2-4.35 5.57C47.89 19 46 17.58 44.36 18s-2.56 2.63-2.56 6.17q-.42-.43-.83-.8c-2.89-2.61-4.71-2.46-5.72-1.87-1.65 1-1.93 3.45-.95 7-3.07-1.79-5.41-2.12-6.64-.88s-.9 3.57.88 6.64c-3.57-1-6.07-.7-7 .95-.59 1-.74 2.83 1.87 5.72q.37.41.8.83c-3.54 0-5.72.88-6.17 2.56s1 3.53 4 5.29c-3.59.93-5.57 2.42-5.57 4.35s2 3.42 5.57 4.35C19 60.11 17.57 62 18 63.64s2.6 2.56 6.11 2.56h.06c-.28.28-.55.55-.79.82-2.61 2.89-2.45 4.71-1.87 5.72s1.76 1.52 3.42 1.52a14.06 14.06 0 0 0 3.61-.58c-1.79 3.08-2.12 5.42-.89 6.66a2.71 2.71 0 0 0 2 .74 9.92 9.92 0 0 0 4.65-1.62c-1 3.57-.7 6.06.95 7a2.69 2.69 0 0 0 1.37.36c1 0 2.47-.53 4.35-2.22q.41-.37.83-.8c0 3.54.88 5.72 2.56 6.17a2.38 2.38 0 0 0 .61.08c1.51 0 3.13-1.43 4.68-4.12.93 3.58 2.41 5.56 4.35 5.56s3.42-2 4.35-5.56c1.55 2.69 3.17 4.13 4.68 4.13a2.4 2.4 0 0 0 .62-.08c1.68-.45 2.57-2.62 2.56-6.17.28.28.55.55.82.79 1.88 1.7 3.31 2.22 4.35 2.22a2.69 2.69 0 0 0 1.37-.36c1.65-1 1.93-3.45.95-7a9.93 9.93 0 0 0 4.65 1.62 2.71 2.71 0 0 0 2-.74c1.23-1.24.91-3.57-.88-6.65a14 14 0 0 0 3.6.58c1.66 0 2.83-.5 3.42-1.52s.74-2.83-1.87-5.72c-.24-.27-.51-.55-.79-.83h.06c3.51 0 5.66-.89 6.11-2.56s-1-3.53-4-5.29c3.52-.93 5.5-2.42 5.5-4.35zM89 44.62c.35 1.31-1.36 3.06-4.57 4.7a49.51 49.51 0 0 0-9.24-.75h-1l.92-.51a49.19 49.19 0 0 0 7.61-5.27c3.57-.14 5.94.51 6.28 1.83zM85.18 36c.47.82-.14 2.26-1.68 4a39 39 0 0 1-9.17 6.83 39.21 39.21 0 0 1-4.15 2.06l-.1.07a57.93 57.93 0 0 0-5.77 1 11.13 11.13 0 0 0-2.31-3.6A47.35 47.35 0 0 1 70.4 40c9.4-5.43 13.98-5.37 14.78-4zm-27 17.14l-3.37-3.37a.5.5 0 0 0-.71.71l3.37 3.37-2.2 2.2L47.14 48a9.09 9.09 0 0 1 14.7 1.46zm0 1.41L60 56.41l-2.2 2.2-1.85-1.85zm-6.23-.42l-5.31 5.27a9.06 9.06 0 0 1-.12-10.65zm.71.71l1.91 1.91-5.17 5.13a9.17 9.17 0 0 1-2.12-1.7zm2.62 2.62l1.85 1.85-3.77 3.77a9 9 0 0 1-3-.73zm2.5 2.54l1.42 1.42a9.05 9.05 0 0 1-4.47 1.63zm.71-.71l2.2-2.2L62 58.38a9.17 9.17 0 0 1-2 2.44zm2.91-2.91l1.6-1.61a9 9 0 0 1-.63 2.65zm-.71-.71l-1.85-1.85 3.48-3.48a9 9 0 0 1 .73 3zm18.94-27.3c1 1 .35 3.35-1.63 6.39a48.46 48.46 0 0 0-8.35 3.94l-.9.54c.18-.3.38-.59.55-.89A48.46 48.46 0 0 0 73.24 30c3.04-2 5.43-2.6 6.39-1.63zM63.38 19c1.32.35 2 2.72 1.78 6.33a49.21 49.21 0 0 0-5.27 7.61c-.17.3-.34.61-.51.92v-1a49.5 49.5 0 0 0-.75-9.24c1.69-3.28 3.45-4.99 4.75-4.62zM61.2 33.67A39 39 0 0 1 68 24.5c1.71-1.54 3.15-2.15 4-1.68 1.37.79 1.43 5.38-4 14.78a39.14 39.14 0 0 1-2.57 3.86.7.7 0 0 0 0 .09 57.75 57.75 0 0 0-4.48 3.79 11.09 11.09 0 0 0-3.78-2 47.3 47.3 0 0 1 4.03-9.67zM54 18c1.58 0 3.93 3.94 3.93 14.79a39.09 39.09 0 0 1-.29 4.62.71.71 0 0 0 0 .1 57.74 57.74 0 0 0-2 5.51 10.49 10.49 0 0 0-4.27.16 47.44 47.44 0 0 1-1.33-10.4C50.07 21.94 52.42 18 54 18zm-9.38 1c1.32-.36 3.07 1.36 4.7 4.57a49.5 49.5 0 0 0-.75 9.24v1c-.17-.31-.34-.62-.51-.92a49.19 49.19 0 0 0-5.27-7.61c-.15-3.58.51-5.94 1.83-6.28zM36 22.82c.81-.47 2.26.14 4 1.68a39 39 0 0 1 6.83 9.17 39.21 39.21 0 0 1 2.06 4.15.71.71 0 0 0 .07.1 57.91 57.91 0 0 0 1 5.72 11.13 11.13 0 0 0-3.64 2.3A47.26 47.26 0 0 1 40 37.6c-5.43-9.4-5.37-13.99-4-14.78zm-7.63 5.54c1-1 3.35-.35 6.39 1.63a48.46 48.46 0 0 0 3.94 8.36c.17.3.35.6.54.9-.29-.18-.59-.38-.89-.55A48.46 48.46 0 0 0 30 34.76c-2-3.04-2.6-5.43-1.63-6.39zM22.82 36c.79-1.37 5.38-1.43 14.78 4a39.14 39.14 0 0 1 3.86 2.57h.09A57.79 57.79 0 0 0 45.31 47a11.09 11.09 0 0 0-2 3.81 47.23 47.23 0 0 1-9.63-4A39 39 0 0 1 24.5 40c-1.5-1.74-2.15-3.18-1.68-4zM19 44.62c.35-1.31 2.72-2 6.33-1.79a49.19 49.19 0 0 0 7.61 5.27l.92.51h-1a49.5 49.5 0 0 0-9.24.75c-3.28-1.68-4.99-3.43-4.62-4.74zM18 54c0-1.58 3.94-3.93 14.79-3.93a39.09 39.09 0 0 1 4.62.29h.1a57.64 57.64 0 0 0 5.47 2 10.47 10.47 0 0 0 .18 4.28 47.45 47.45 0 0 1-10.37 1.32C21.94 57.93 18 55.58 18 54zm1 9.38c-.35-1.31 1.36-3.06 4.57-4.7a49.51 49.51 0 0 0 9.24.75h1l-.92.51a49.2 49.2 0 0 0-7.61 5.27c-3.57.15-5.94-.51-6.28-1.83zM22.82 72c-.47-.82.14-2.26 1.68-4a39 39 0 0 1 9.17-6.83 39.21 39.21 0 0 1 4.15-2.06l.1-.07c1.81-.23 3.72-.58 5.7-1a11.13 11.13 0 0 0 2.32 3.63A47.22 47.22 0 0 1 37.6 68c-9.4 5.43-13.99 5.37-14.78 4zm5.54 7.63c-1-1-.35-3.36 1.63-6.4a48.29 48.29 0 0 0 8.35-3.93l.9-.54c-.18.3-.38.6-.55.89A48.46 48.46 0 0 0 34.76 78c-3.04 2-5.43 2.6-6.39 1.63zM44.62 89c-1.32-.35-2-2.72-1.79-6.33a49.19 49.19 0 0 0 5.27-7.61c.17-.3.34-.61.51-.92v1a49.5 49.5 0 0 0 .75 9.24c-1.68 3.28-3.42 4.99-4.74 4.62zm2.18-14.67A39 39 0 0 1 40 83.5c-1.71 1.54-3.15 2.15-4 1.68-1.37-.79-1.43-5.38 4-14.78a39.14 39.14 0 0 1 2.57-3.86.71.71 0 0 0 0-.09A57.66 57.66 0 0 0 47 62.69a11.09 11.09 0 0 0 3.81 2 47.27 47.27 0 0 1-4.01 9.64zM54 90c-1.58 0-3.93-3.94-3.93-14.79a39.09 39.09 0 0 1 .29-4.62.71.71 0 0 0 0-.1 57.85 57.85 0 0 0 2-5.49 10.45 10.45 0 0 0 4.26-.19 47.48 47.48 0 0 1 1.34 10.42C57.93 86.06 55.58 90 54 90zm9.38-1c-1.32.36-3.06-1.36-4.7-4.57a49.52 49.52 0 0 0 .75-9.24v-1c.17.31.34.62.51.92a49.21 49.21 0 0 0 5.26 7.6c.15 3.59-.5 5.95-1.82 6.29zM72 85.18c-.81.47-2.26-.14-4-1.68a39 39 0 0 1-6.83-9.17 39.21 39.21 0 0 1-2.06-4.15.7.7 0 0 0-.07-.1 58 58 0 0 0-1-5.75 11.13 11.13 0 0 0 3.6-2.33A47.39 47.39 0 0 1 68 70.4c5.43 9.4 5.37 13.99 4 14.78zm7.63-5.54c-1 1-3.35.35-6.39-1.63a48.49 48.49 0 0 0-3.94-8.35c-.17-.3-.36-.6-.54-.9.3.18.6.38.89.55A48.3 48.3 0 0 0 78 73.23c2 3.05 2.6 5.43 1.63 6.4zM85.18 72c-.79 1.37-5.38 1.43-14.78-4a39.14 39.14 0 0 1-3.86-2.57h-.09a58.06 58.06 0 0 0-3.8-4.48 11.09 11.09 0 0 0 2-3.78 47.3 47.3 0 0 1 9.71 4.07A39 39 0 0 1 83.5 68c1.5 1.74 2.15 3.18 1.68 4zM89 63.38c-.35 1.32-2.71 2-6.33 1.78a49.21 49.21 0 0 0-7.61-5.26l-.92-.51h1a49.52 49.52 0 0 0 9.23-.75c3.28 1.68 5 3.43 4.63 4.74zm-13.79-5.45a39.09 39.09 0 0 1-4.62-.29h-.1a57.69 57.69 0 0 0-5.54-2 10.46 10.46 0 0 0-.18-4.25 47.47 47.47 0 0 1 10.44-1.34C86.06 50.07 90 52.42 90 54s-3.94 3.93-14.79 3.93z" data-name="Layer 2"/></svg>