<svg data-name="Layer 2" xmlns="http://www.w3.org/2000/svg" viewBox="0 0 108 108"><title>Icon_RH_nature_sleet_RGB_Black</title><path d="M28.52 61.14a1.5 1.5 0 0 0 1.06-.44l.07-.07a1.46 1.46 0 0 0 0-2.09 1.54 1.54 0 0 0-2.16 0 1.5 1.5 0 0 0 1.06 2.56zm11.72 12.17l-.07.07a1 1 0 1 0 1.41 1.41l.07-.07a1 1 0 0 0-1.41-1.41zM35.26 55a1.48 1.48 0 0 0 0-2.1 1.52 1.52 0 0 0-2.14 0 1.5 1.5 0 1 0 2.14 2.1zM28.4 85.15a1 1 0 1 0 1.41 1.41 1 1 0 0 0 0-1.4 1 1 0 0 0-1.41-.01zm7.41-17.28l.08-.08a1.5 1.5 0 1 0-2.12-2.12l-.08.08a1.5 1.5 0 1 0 2.12 2.12zm-1.47 11.34l-.07.07a1 1 0 1 0 1.41 1.41l.07-.07a1 1 0 0 0-1.41-1.41zm2.21 10.48a1.5 1.5 0 1 0 2.09 2.15 1.48 1.48 0 0 0 0-2.1 1.52 1.52 0 0 0-2.09-.05zM18.19 58a1 1 0 0 0 0-1.39 1 1 0 0 0-1.44 0A1 1 0 1 0 18.19 58zm-2 11.91A1.5 1.5 0 1 0 18.27 72a1.48 1.48 0 0 0 0-2.1 1.52 1.52 0 0 0-2.13 0zm-3-9.69a1 1 0 1 0 1.41 1.41 1 1 0 0 0 0-1.4 1 1 0 0 0-1.46-.03zm8.64 4a1.5 1.5 0 1 0 2.12 2.12l.05-.04a1.46 1.46 0 0 0 0-2.09 1.54 1.54 0 0 0-2.21.04zm0-9.91a1 1 0 0 0 0-1.4 1 1 0 0 0-1.43 0 1 1 0 0 0 1.41 1.41zm7.66 19.85l.08-.08A1.5 1.5 0 0 0 27.45 72l-.08.08a1.5 1.5 0 1 0 2.12 2.12zm-8.38 4.14a1.5 1.5 0 1 0 2.09 2.15 1.48 1.48 0 0 0 0-2.1 1.52 1.52 0 0 0-2.09-.02zm37.35 3.56l-.07.07a1 1 0 1 0 1.41 1.41l.07-.07a1 1 0 0 0-1.41-1.41zm-3.1-11A1.5 1.5 0 1 0 57.48 73a1.48 1.48 0 0 0 0-2.1 1.52 1.52 0 0 0-2.12-.02zm8.77 5.33a1 1 0 1 0 1.43 1.39 1 1 0 0 0 0-1.4 1 1 0 0 0-1.43.04zM52.71 87.64l-.07.07a1 1 0 1 0 1.41 1.41l.07-.07a1 1 0 0 0-1.41-1.41zM81.81 30a20.87 20.87 0 0 0-40 0 13.28 13.28 0 0 0-18.07 9.62 12.84 12.84 0 0 0-12.14 10 .75.75 0 0 0 .73.91h46.54a15.8 15.8 0 1 0 27.64 0h8a.75.75 0 0 0 .74-.62A17.22 17.22 0 0 0 81.81 30zM72.7 72a13.8 13.8 0 1 1 13.8-13.8A13.82 13.82 0 0 1 72.7 72zm21.14-23h-8.28a15.76 15.76 0 0 0-25.73 0H13.31a11.34 11.34 0 0 1 10.75-7.9h.29a.72.72 0 0 0 .76-.63A11.79 11.79 0 0 1 42 31.75a11.9 11.9 0 0 1 4.3 3.6.75.75 0 1 0 1.21-.89 13.42 13.42 0 0 0-4.31-3.76 19.35 19.35 0 0 1 36.94-1 17.52 17.52 0 0 0-4.63.08.75.75 0 1 0 .23 1.48 16 16 0 0 1 5.26.06h.08A15.81 15.81 0 0 1 94 46.92a15.2 15.2 0 0 1-.16 2.08zM72.7 67.9a.5.5 0 0 0 0 1 10.71 10.71 0 0 0 10.7-10.7.5.5 0 0 0-1 0 9.71 9.71 0 0 1-9.7 9.7zM53.39 63a1 1 0 0 0 0-1.4 1 1 0 0 0-1.43 0 1 1 0 1 0 1.43 1.4zm-5.9 5.9l.07-.07a1 1 0 0 0-1.41-1.41l-.07.07a1 1 0 1 0 1.41 1.41zm-.1-13.22a1.5 1.5 0 0 0 1.06-.44 1.48 1.48 0 0 0 0-2.1 1.52 1.52 0 0 0-2.14 0 1.5 1.5 0 0 0 1.06 2.56zm-4.53 27.7l-.08.08a1.5 1.5 0 1 0 2.12 2.12l.1-.08a1.5 1.5 0 0 0-2.12-2.12zm4.07 10a1 1 0 1 0 1.41 1.41 1 1 0 0 0 0-1.4 1 1 0 0 0-1.42.03zm2.22-16.33l-.08.08a1.5 1.5 0 1 0 2.12 2.12l.08-.08a1.5 1.5 0 0 0-2.12-2.12zm-6.94-17.7a1.5 1.5 0 0 0-2.12 0l-.08.08a1.5 1.5 0 1 0 2.12 2.12l.08-.08a1.5 1.5 0 0 0 0-2.12z"/></svg>