<svg xmlns="http://www.w3.org/2000/svg" viewBox="0 0 108 108"><defs><style>.cls-1{fill:#fff;}</style></defs><title>Icon_RH_nature_flower-pansy_RGB_White</title><path class="cls-1" d="M87.64 46.13a7.74 7.74 0 0 0-.79-8.32 19.31 19.31 0 0 0-14.42-7.21 19.09 19.09 0 0 0-10.3-12.47 7.75 7.75 0 0 0-8.29 1.1 7.75 7.75 0 0 0-8.29-1.1A19.3 19.3 0 0 0 35.77 29a19.3 19.3 0 0 0-13.39 6 7.75 7.75 0 0 0-1.51 8.22 7.75 7.75 0 0 0-3.61 7.54 19.3 19.3 0 0 0 7.32 12.67A19.31 19.31 0 0 0 26.11 78a7.76 7.76 0 0 0 7.35 4 7.74 7.74 0 0 0 6.06 5.76A18.93 18.93 0 0 0 43 88a19.37 19.37 0 0 0 10.89-3.37 19.21 19.21 0 0 0 14.38 3.08A7.74 7.74 0 0 0 74.28 82a7.75 7.75 0 0 0 7.35-4 19.28 19.28 0 0 0 1.91-13 19.2 19.2 0 0 0 7-11 7.75 7.75 0 0 0-2.9-7.87zM46.21 19.49a6.26 6.26 0 0 1 7.11 1.29l.53.53.53-.53a6.26 6.26 0 0 1 7.11-1.29 17.83 17.83 0 0 1 9.37 11.13 18.89 18.89 0 0 0-3.34.45c-6.27 1.45-10.21 9.21-12.47 15.81a6.65 6.65 0 0 0-2.44 0 45.46 45.46 0 0 1 .5-17.88.5.5 0 0 0-1-.22 46.46 46.46 0 0 0-.49 18.38 6.93 6.93 0 0 0-1.08.49 36.34 36.34 0 0 1-4-10.8.5.5 0 1 0-1 .18 37.42 37.42 0 0 0 4.16 11.18A7 7 0 0 0 48.15 50c-4.83-3-12-8.48-12-14.51a17.78 17.78 0 0 1 10.06-16zm12.73 34.26a5 5 0 1 1-5-5 5 5 0 0 1 5 5zm-40.18-3.22a6.26 6.26 0 0 1 3.42-6.36l.67-.34-.34-.67a6.27 6.27 0 0 1 1-7.16 17.79 17.79 0 0 1 11.79-5.46 19 19 0 0 0-.66 4.91c0 6.5 6.8 12.13 12.82 15.85a6.9 6.9 0 0 0-.46 1.88 45.39 45.39 0 0 1-17.07-6 .5.5 0 1 0-.51.86A46.38 46.38 0 0 0 47 54.18a6.94 6.94 0 0 0 .15 1.1 36.52 36.52 0 0 1-11.77.53.49.49 0 0 0-.56.43.5.5 0 0 0 .43.56 30.57 30.57 0 0 0 4.18.28 41.56 41.56 0 0 0 8-.83 7 7 0 0 0 1 1.74c-4.4 3.74-11.87 8.92-17.64 7a17.78 17.78 0 0 1-12.03-14.46zm21 35.73a6.26 6.26 0 0 1-5-5.22l-.12-.74-.74.12a6.25 6.25 0 0 1-6.51-3.13 17.79 17.79 0 0 1-1.54-13 18.94 18.94 0 0 0 4.46 2.14 10 10 0 0 0 3.11.48c5.48 0 11.47-4 16-7.86a7 7 0 0 0 1.72 1.07 45.26 45.26 0 0 1-11.05 14.61.5.5 0 0 0 .66.75 46.26 46.26 0 0 0 11.41-15 6.89 6.89 0 0 0 1 .2A36.66 36.66 0 0 1 50 72.24a.5.5 0 1 0 .9.44 37.7 37.7 0 0 0 3.26-12 6.94 6.94 0 0 0 1.92-.32c2.17 5.32 4.77 14 1.22 18.87a17.79 17.79 0 0 1-17.51 7.02zm40.52-9a6.25 6.25 0 0 1-6.51 3.13l-.74-.12-.12.74a6.26 6.26 0 0 1-5 5.22 17.78 17.78 0 0 1-12.82-2.56 19 19 0 0 0 3.4-3.57c3.82-5.26 1.64-13.8-1.06-20.37a7 7 0 0 0 1.62-1.3 45.22 45.22 0 0 1 10.59 15.24.5.5 0 0 0 .46.3.49.49 0 0 0 .2 0 .5.5 0 0 0 .26-.66A46.23 46.23 0 0 0 59.71 57.7a7 7 0 0 0 .5-.86 36.73 36.73 0 0 1 10.12 6.61.5.5 0 1 0 .69-.72 37.76 37.76 0 0 0-10.42-6.81 6.93 6.93 0 0 0 .35-2.13c5.68-.4 14.61-.16 18.13 4.69a17.78 17.78 0 0 1 1.23 18.82zm8.8-23.66a17.7 17.7 0 0 1-6 9.77 19 19 0 0 0-2.85-5.81c-3.79-5.21-12.48-5.81-19.5-5.3a6.9 6.9 0 0 0-.51-1.49 45.28 45.28 0 0 1 18-3.71.5.5 0 0 0 .5-.5.52.52 0 0 0-.5-.5 46.27 46.27 0 0 0-18.44 3.83 7 7 0 0 0-.64-.82 36.64 36.64 0 0 1 10-6.64.5.5 0 0 0-.39-.92 37.71 37.71 0 0 0-10.27 6.87 7 7 0 0 0-1.94-1.14C58.34 42 62 33.87 67.86 32.53a17.79 17.79 0 0 1 17.81 6.22A6.26 6.26 0 0 1 86 46l-.4.64.64.4a6.27 6.27 0 0 1 2.87 6.59z" id="Layer_2" data-name="Layer 2"/></svg>