<svg data-name="Layer 2" xmlns="http://www.w3.org/2000/svg" viewBox="0 0 108 108"><title>Icon_RH_nature_windy_RGB_Black</title><path d="M14 50h13a.75.75 0 0 0 0-1.5H14a.75.75 0 0 0 0 1.5zm19.5 0H51c3.31 0 9.6-1.71 9.75-8.17a6.6 6.6 0 0 0-3.09-6.12 7.3 7.3 0 0 0-7.22 0 6.84 6.84 0 0 0-3.44 6.1.75.75 0 0 0 .75.75.75.75 0 0 0 .75-.75A5.31 5.31 0 0 1 51.17 37a5.86 5.86 0 0 1 5.72 0 5.15 5.15 0 0 1 2.36 4.8c-.15 6.6-7.92 6.7-8.25 6.7H33.5a.75.75 0 0 0 0 1.5zm-6.83 13.43h-6.92a1 1 0 0 0 0 2h6.75c10.53 0 17.67 1.79 21.13 5.39A8.56 8.56 0 0 1 50 77.35c-.26 6.47-4.1 8.84-7.3 8.92-2.93 0-6-1.71-6.29-5.23a3.46 3.46 0 0 1 1.24-2.89 3 3 0 0 1 2.47-.84 1 1 0 0 0 .43-2 5 5 0 0 0-4.22 1.29 5.44 5.44 0 0 0-1.92 4.57 7.88 7.88 0 0 0 8.11 7.06h.21c4.39-.1 9-3.49 9.25-10.83a10.49 10.49 0 0 0-2.93-8c-3.82-3.95-11.35-5.97-22.38-5.97zm27.08-.68h-5a.75.75 0 0 0 0 1.5h5a.75.75 0 0 0 0-1.5zM82.92 23.2c-4.27-2.43-9.38-2.53-13-.27-3.09 1.92-4.67 5.24-4.44 9.35.25 4.45 4.74 8 8.29 8a1 1 0 0 0 0-2c-2.34 0-6.1-2.64-6.3-6.15-.24-4.29 1.77-6.47 3.5-7.54 3-1.85 7.41-1.73 11 .31 4.28 2.44 6.68 7.1 6.57 12.79-.23 12.58-17.88 18.21-35.27 18.21H14a1 1 0 0 0 0 2h39.23c27.23 0 37.1-10.86 37.27-20.17.12-6.41-2.65-11.73-7.58-14.53zM75 62.75H60a.75.75 0 0 0 0 1.5h15c.34 0 8.23.08 8.25 6.69a5.66 5.66 0 0 1-2.69 5.19 5.49 5.49 0 0 1-5.4 0 5.71 5.71 0 0 1-2.66-5.24.75.75 0 0 0-.75-.75.75.75 0 0 0-.75.75 7.15 7.15 0 0 0 3.41 6.53 6.83 6.83 0 0 0 3.39.88 7 7 0 0 0 3.51-.93 7.2 7.2 0 0 0 3.43-6.49c-.01-6.42-6.38-8.13-9.74-8.13z"/></svg>