<svg xmlns="http://www.w3.org/2000/svg" viewBox="0 0 108 108"><title>Icon_RH_nature_flower-daffodil_RGB_Black</title><path d="M57.79 53.38h-3l1.5-2.59a.5.5 0 1 0-.87-.5l-1.5 2.59-1.5-2.59a.5.5 0 0 0-.87.5l1.5 2.59h-3a.5.5 0 0 0 0 1h3L51.57 57a.5.5 0 0 0 .18.68.49.49 0 0 0 .25.07.5.5 0 0 0 .43-.25l1.5-2.59 1.5 2.59a.5.5 0 0 0 .87-.5l-1.5-2.59h3a.5.5 0 0 0 0-1zM53.93 45a8.91 8.91 0 1 0 8.91 8.91A8.92 8.92 0 0 0 53.93 45zm0 16.83a7.91 7.91 0 1 1 7.91-7.91 7.92 7.92 0 0 1-7.91 7.87zm26-6.51a17.69 17.69 0 0 0-3.21-1.4 17.72 17.72 0 0 0 3.21-1.4c9-5.18 7.8-17.22 7.75-17.73v-.33l-.27-.2c-.41-.3-10.25-7.33-19.23-2.15a17.66 17.66 0 0 0-2.82 2.07 17.7 17.7 0 0 0 .39-3.48c0-10.37-11-15.37-11.48-15.58l-.3-.13-.3.13c-.47.21-11.48 5.21-11.48 15.58a17.67 17.67 0 0 0 .39 3.48 17.72 17.72 0 0 0-2.82-2.08c-9-5.19-18.82 1.85-19.23 2.15l-.27.2v.33c-.05.51-1.23 12.55 7.75 17.73a17.65 17.65 0 0 0 3.21 1.4 17.68 17.68 0 0 0-3.21 1.4c-9 5.18-7.81 17.22-7.75 17.73v.33l.27.2c.3.22 5.66 4.05 12 4.05a14.19 14.19 0 0 0 7.2-1.9 17.68 17.68 0 0 0 2.82-2.07 17.69 17.69 0 0 0-.39 3.48c0 10.37 11 15.37 11.48 15.58l.3.13.3-.13c.47-.21 11.48-5.21 11.48-15.58a17.67 17.67 0 0 0-.39-3.48 17.68 17.68 0 0 0 2.82 2.08 14.18 14.18 0 0 0 7.2 1.9c6.37 0 11.73-3.83 12-4.05l.27-.2v-.33c.11-.55 1.29-12.59-7.69-17.77zM64.57 37v-.06a18.64 18.64 0 0 1 4.31-3.59c7.34-4.24 15.7.81 17.32 1.88.11 1.94.3 11.7-7 15.94a18.79 18.79 0 0 1-5.3 1.94 38.84 38.84 0 0 0-5.93-.73 4.32 4.32 0 0 0-1.32-1.9 4.32 4.32 0 0 0 .14-2.48l12.78-6.37a.5.5 0 0 0-.45-.89l-12.66 6.32c-.05-.11-.09-.23-.15-.34A4.4 4.4 0 0 0 65 45.29l5.7-4.79a.5.5 0 0 0-.64-.77L64 44.8a4.33 4.33 0 0 0-.79-.22 4.35 4.35 0 0 0-2.13-3.08 36.33 36.33 0 0 1 3.46-4.5zm-.08 20.48a2.39 2.39 0 0 1-2.15 3.73l-1.15-.08.08 1.15a2.39 2.39 0 0 1-3.73 2.15l-1-.65-.5 1a2.39 2.39 0 0 1-4.3 0l-.5-1-1 .65a2.39 2.39 0 0 1-3.73-2.15l.08-1.15-1.15.08a2.39 2.39 0 0 1-2.15-3.73l.65-1L43 56a2.39 2.39 0 0 1 0-4.3l1-.5-.65-1a2.39 2.39 0 0 1 2.15-3.73l1.15.08-.08-1.15a2.39 2.39 0 0 1 3.73-2.15l1 .65.5-1a2.39 2.39 0 0 1 4.3 0l.5 1 1-.65a2.39 2.39 0 0 1 3.73 2.15l-.08 1.15 1.15-.08a2.39 2.39 0 0 1 2.15 3.73l-.65 1 1 .5a2.39 2.39 0 0 1 0 4.3l-1 .5zM53.93 16.6c1.74.87 10.28 5.57 10.28 14.06a18.79 18.79 0 0 1-1 5.56A38.83 38.83 0 0 0 59.64 41a4.31 4.31 0 0 0-2.31.19 4.32 4.32 0 0 0-2-1.37l.87-14.26a.5.5 0 0 0-.47-.53.49.49 0 0 0-.53.47l-.86 14.12h-.37A4.4 4.4 0 0 0 52 40l-1.29-7.34a.49.49 0 0 0-.58-.41.5.5 0 0 0-.41.58l1.36 7.78a4.34 4.34 0 0 0-.58.57 4.35 4.35 0 0 0-3.73.3 36.36 36.36 0 0 1-2.18-5.24 18.63 18.63 0 0 1-1-5.52c.05-8.54 8.6-13.26 10.34-14.12zM28.68 51.17c-7.34-4.24-7.15-14-7-15.94 1.62-1.07 10-6.11 17.32-1.88A18.81 18.81 0 0 1 43.29 37a38.86 38.86 0 0 0 2.33 5.5 4.32 4.32 0 0 0-1 2.1 4.32 4.32 0 0 0-2.21 1.09l-11.9-7.9a.5.5 0 1 0-.55.83l11.8 7.81c-.07.1-.16.19-.22.3A4.4 4.4 0 0 0 41 48.6L34 46a.5.5 0 1 0-.34.94L41 49.69a4.33 4.33 0 0 0 .2.79 4.35 4.35 0 0 0-1.61 3.38 36.33 36.33 0 0 1-5.59-.74h-.06a18.62 18.62 0 0 1-5.26-1.95zm14.61 19.58v.06A18.64 18.64 0 0 1 39 74.39c-7.34 4.24-15.7-.81-17.32-1.88-.12-1.94-.32-11.69 7-15.94A18.81 18.81 0 0 1 34 54.64a38.88 38.88 0 0 0 5.93.73 4.32 4.32 0 0 0 1.32 1.9 4.32 4.32 0 0 0-.16 2.46l-12.8 6.38a.5.5 0 0 0 .22.95.49.49 0 0 0 .22-.05l12.66-6.31c.05.11.09.23.15.34a4.4 4.4 0 0 0 1.33 1.44l-5.72 4.79a.5.5 0 0 0 .64.77L43.85 63a4.34 4.34 0 0 0 .79.22 4.35 4.35 0 0 0 2.13 3.08 36.34 36.34 0 0 1-3.45 4.5zm10.64 20.41c-1.74-.87-10.28-5.57-10.28-14.06a18.82 18.82 0 0 1 1-5.56 38.84 38.84 0 0 0 3.6-4.77 4.31 4.31 0 0 0 2.31-.19 4.32 4.32 0 0 0 2 1.37L51.7 82.2a.5.5 0 0 0 .47.53.5.5 0 0 0 .5-.47l.86-14.12h.37a4.4 4.4 0 0 0 1.91-.43l1.29 7.34a.5.5 0 0 0 .49.41h.09a.5.5 0 0 0 .41-.58l-1.36-7.78a4.34 4.34 0 0 0 .58-.57 4.35 4.35 0 0 0 3.73-.3 36.33 36.33 0 0 1 2.18 5.24 18.64 18.64 0 0 1 1 5.53c-.01 8.57-8.56 13.29-10.29 14.16zm32.28-18.64c-1.62 1.07-10 6.11-17.32 1.88a18.85 18.85 0 0 1-4.33-3.62 38.88 38.88 0 0 0-2.33-5.5 4.31 4.31 0 0 0 1-2.1 4.32 4.32 0 0 0 2.21-1.09L77.34 70a.49.49 0 0 0 .28.08.5.5 0 0 0 .28-.92l-11.8-7.84c.07-.1.16-.19.22-.3a4.4 4.4 0 0 0 .58-1.87l7 2.56a.51.51 0 0 0 .17 0 .5.5 0 0 0 .17-1L66.82 58a4.34 4.34 0 0 0-.21-.79 4.35 4.35 0 0 0 1.61-3.38 36.31 36.31 0 0 1 5.62.73h.06a18.64 18.64 0 0 1 5.26 1.94c7.36 4.32 7.17 14.08 7.05 16.02z" data-name="Layer 2"/></svg>