<svg id="Layer_2" data-name="Layer 2" xmlns="http://www.w3.org/2000/svg" viewBox="0 0 108 108"><defs><style>.cls-1{fill:#fff;}</style></defs><title>Icon_RH_nature_snow_RGB_White</title><path class="cls-1" d="M28.4 85.15a1 1 0 1 0 1.41 1.41 1 1 0 0 0 0-1.4 1 1 0 0 0-1.41-.01zM35.27 55a1.48 1.48 0 0 0 0-2.1 1.52 1.52 0 0 0-2.14 0 1.5 1.5 0 1 0 2.14 2.1zM34 79.51a1 1 0 1 0 1.41 1.41l.07-.07a1 1 0 0 0 0-1.38 1 1 0 0 0-1.48.04zm1.78-11.64l.08-.08a1.5 1.5 0 1 0-2.12-2.12l-.08.08a1.5 1.5 0 1 0 2.12 2.12zM36.25 90a1.5 1.5 0 1 0 2.12 2.12 1.48 1.48 0 0 0 0-2.1 1.52 1.52 0 0 0-2.12-.02zm-7.73-28.86a1.5 1.5 0 0 0 1.06-.44l.07-.07a1.46 1.46 0 0 0 0-2.09 1.54 1.54 0 0 0-2.16 0 1.5 1.5 0 0 0 1.06 2.56zm-7.41 17.19a1.5 1.5 0 1 0 2.09 2.15 1.48 1.48 0 0 0 0-2.1 1.52 1.52 0 0 0-2.09-.05zm-5-8.43a1.5 1.5 0 1 0 2.16 2.1 1.48 1.48 0 0 0 0-2.1 1.52 1.52 0 0 0-2.13 0zM18 58.18a1 1 0 0 0 0-1.39 1 1 0 0 0-1.44 0A1 1 0 1 0 18 58.18zm-4.85 2a1 1 0 1 0 1.41 1.41 1 1 0 0 0 0-1.4 1 1 0 0 0-1.42.01zm16.35 14l.08-.08a1.5 1.5 0 0 0-2.13-2.1l-.08.08a1.5 1.5 0 1 0 2.12 2.12zm-7.71-9.93a1.5 1.5 0 1 0 2.12 2.12l.07-.07a1.46 1.46 0 0 0 0-2.09 1.54 1.54 0 0 0-2.19.04zM41.2 75.17a1 1 0 0 0 0-1.38 1 1 0 0 0-1.45 0 1 1 0 1 0 1.41 1.41zM21.45 54.72a1 1 0 0 0 0-1.4 1 1 0 0 0-1.43 0 1 1 0 1 0 1.42 1.4zM46.14 80.1a1.5 1.5 0 1 0 2.12 2.12l.06-.06a1.46 1.46 0 0 0 0-2.09 1.54 1.54 0 0 0-2.18.03zm11 3.08a1 1 0 1 0 1.41 1.41l.06-.06a1 1 0 0 0 0-1.38 1 1 0 0 0-1.44.03zm1-10.88a1.48 1.48 0 0 0 0-2.1 1.52 1.52 0 0 0-2.14 0 1.5 1.5 0 1 0 2.12 2.12zM62.3 78a1 1 0 1 0 1.41 1.41 1 1 0 0 0 0-1.4A1 1 0 0 0 62.3 78zM52 88.32a1 1 0 1 0 1.41 1.41l.06-.06a1 1 0 0 0 0-1.38 1 1 0 0 0-1.47.03zM81.81 30a20.87 20.87 0 0 0-40 0 13.28 13.28 0 0 0-18.07 9.62 12.84 12.84 0 0 0-12.14 10 .75.75 0 0 0 .73.91H60.5a.75.75 0 0 0 0-1.5H13.31a11.34 11.34 0 0 1 10.75-7.9h.29a.71.71 0 0 0 .76-.63A11.79 11.79 0 0 1 42 31.75a11.9 11.9 0 0 1 4.3 3.6.75.75 0 1 0 1.21-.89 13.42 13.42 0 0 0-4.31-3.76 19.35 19.35 0 0 1 36.94-1 17.52 17.52 0 0 0-4.63.09.75.75 0 1 0 .23 1.48 16 16 0 0 1 5.26.06h.08A15.81 15.81 0 0 1 94 46.92a15.2 15.2 0 0 1-.16 2.08h-6.51a.75.75 0 0 0 0 1.5h7.15a.75.75 0 0 0 .74-.62A17.22 17.22 0 0 0 81.81 30zM41.08 62a1.5 1.5 0 0 0 1.06-.44l.08-.08a1.5 1.5 0 1 0-2.12-2.12l-.08.08A1.5 1.5 0 0 0 41.08 62zm48-9.14a3.72 3.72 0 0 0-3.57 2.73h-2.63l2-2.37a.75.75 0 0 0-1.15-1l-2.82 3.34h-5.32L78.26 51l4.3-.77a.75.75 0 1 0-.27-1.48l-3.05.55 1.28-2.3a3.68 3.68 0 0 0 .95.12A3.75 3.75 0 1 0 78.8 46l-1.29 2.23-1-2.89a.75.75 0 0 0-1.41.51l1.47 4.09-2.65 4.6-2.65-4.6 1.47-4.09a.75.75 0 0 0-1.41-.51l-1 2.89L69 46a3.72 3.72 0 0 0-4.52-5.82 3.73 3.73 0 0 0 1.87 7 3.68 3.68 0 0 0 .92-.12l1.29 2.23-3.06-.55a.75.75 0 1 0-.27 1.48l4.3.77 2.66 4.61h-5.35L64 52.23a.75.75 0 0 0-1.15 1l2 2.37h-2.56a3.73 3.73 0 1 0 0 2h2.58l-2 2.35a.75.75 0 0 0 1.15 1l2.8-3.32h5.31l-2.65 4.6-4.28.77a.75.75 0 1 0 .27 1.48l3-.54-1.29 2.23a3.72 3.72 0 1 0-.93 7.33 3.76 3.76 0 0 0 1-.13 3.7 3.7 0 0 0 1.69-6.2l1.29-2.24 1.05 2.92a.75.75 0 0 0 1.41-.51l-1.48-4.11 2.66-4.61 2.66 4.61-1.48 4.11a.75.75 0 0 0 1.41.51l1.05-2.92 1.29 2.24a3.72 3.72 0 0 0 1.67 6.21 3.76 3.76 0 0 0 1 .13 3.73 3.73 0 1 0-.91-7.33l-1.29-2.23 3 .54a.75.75 0 1 0 .27-1.48l-4.27-.77-2.65-4.6h5.31l2.8 3.32a.75.75 0 1 0 1.15-1l-2-2.35h2.57A3.72 3.72 0 1 0 89 52.84zm-9.5-10.53a2.21 2.21 0 0 1 1.35-1 2.25 2.25 0 0 1 .58-.08 2.23 2.23 0 1 1-1.93 1.11zM68.46 44a2.23 2.23 0 1 1-2.16-2.81 2.25 2.25 0 0 1 .58.08A2.23 2.23 0 0 1 68.46 44zm-9.75 14.77a2.23 2.23 0 1 1 2.23-2.23 2.23 2.23 0 0 1-2.23 2.23zm9.5 12a2.23 2.23 0 1 1 .22-1.69 2.23 2.23 0 0 1-.22 1.72zm11.09-1.65a2.23 2.23 0 1 1 .22 1.69 2.22 2.22 0 0 1-.22-1.69zM89 58.79a2.23 2.23 0 1 1 2.23-2.23A2.23 2.23 0 0 1 89 58.79zM46.81 69.57l.07-.07a1 1 0 0 0 0-1.38 1 1 0 0 0-1.45 0 1 1 0 1 0 1.41 1.41zm-5.63 15.49a1.5 1.5 0 1 0 2.12 2.12l.06-.06a1.46 1.46 0 0 0 0-2.09 1.54 1.54 0 0 0-2.18.03zm11.3-21.16a1 1 0 0 0 0-1.4 1 1 0 0 0-1.43 0 1 1 0 1 0 1.39 1.43zm-5.56 29.52a1 1 0 1 0 1.41 1.41 1 1 0 0 0 0-1.4 1 1 0 0 0-1.41-.01zm-.57-40.34a1.5 1.5 0 1 0 2.09 2.15 1.48 1.48 0 0 0 0-2.1 1.52 1.52 0 0 0-2.08-.05zm6.87 24.18l.06-.06a1.46 1.46 0 0 0 0-2.09 1.54 1.54 0 0 0-2.15 0 1.5 1.5 0 1 0 2.12 2.12z"/></svg>