<svg id="Layer_2" data-name="Layer 2" xmlns="http://www.w3.org/2000/svg" viewBox="0 0 108 108"><defs><style>.cls-1{fill:#fff;}</style></defs><title>Icon_RH_nature_mix-rain-sleet_RGB_White</title><path class="cls-1" d="M42.56 83.68l-.08.08a1.5 1.5 0 1 0 2.12 2.12l.08-.08a1.5 1.5 0 1 0-2.12-2.12zm4.36 9.75a1 1 0 1 0 1.41 1.41 1 1 0 0 0 0-1.4 1 1 0 0 0-1.41-.02zm3.76-27.73l.06-.06a1 1 0 0 0 0-1.38 1 1 0 0 0-1.45 0 1 1 0 1 0 1.41 1.41zm-1.84 11.7l-.08.08a1.5 1.5 0 1 0 2.12 2.12l.08-.08a1.5 1.5 0 0 0-2.12-2.12zM44 69.51a1 1 0 1 0 1.41 1.41l.06-.06a1 1 0 0 0 0-1.38 1 1 0 0 0-1.47.03zm47-7.26a.5.5 0 0 0-.5.5 7.72 7.72 0 0 1-7.71 7.71.5.5 0 0 0 0 1 8.72 8.72 0 0 0 8.71-8.71.5.5 0 0 0-.5-.5zM33.59 80A1 1 0 1 0 35 81.37l.06-.06a1 1 0 0 0 0-1.38 1 1 0 0 0-1.47.07zm-5.2 5.2a1 1 0 1 0 1.41 1.41 1 1 0 0 0 0-1.4 1 1 0 0 0-1.4-.06zm7.86 4.8a1.5 1.5 0 1 0 2.12 2.12 1.48 1.48 0 0 0 0-2.1 1.52 1.52 0 0 0-2.12-.02zm2.57-15.27a1 1 0 1 0 1.41 1.41l.06-.06a1 1 0 0 0 0-1.38 1 1 0 0 0-1.47.03zm51.36-24.18h4.31a.75.75 0 0 0 .74-.62A17.22 17.22 0 0 0 81.81 30a20.87 20.87 0 0 0-40 0 13.28 13.28 0 0 0-18.07 9.62 12.84 12.84 0 0 0-12.14 10 .75.75 0 0 0 .73.91h11.18l-10 10a.5.5 0 1 0 .71.71l10.7-10.69h11.63L16.68 70.43a.75.75 0 1 0 1.06 1.06l20.93-20.94H50L21.63 78.88a.75.75 0 1 0 1.06 1.06l29.38-29.39h4.19A12.48 12.48 0 0 0 68.7 62.17c.42 0 .83 0 1.23-.06v.64a12.92 12.92 0 1 0 25.84 0c-.03-3.97-2.72-8.13-5.59-12.2zM56.26 49H13.31a11.34 11.34 0 0 1 10.75-7.9h.29a.72.72 0 0 0 .76-.63A11.79 11.79 0 0 1 42 31.75a11.9 11.9 0 0 1 4.3 3.6.75.75 0 1 0 1.21-.89 13.42 13.42 0 0 0-4.31-3.76 19.35 19.35 0 0 1 36.94-1 17.52 17.52 0 0 0-4.63.09.75.75 0 1 0 .23 1.48 16 16 0 0 1 5.26.06h.08A15.81 15.81 0 0 1 94 46.92a15.2 15.2 0 0 1-.16 2.08h-4.73c-2.06-2.89-4-5.63-4.9-8.07a1.47 1.47 0 0 0-1.39-1 1.47 1.47 0 0 0-1.39 1 17.87 17.87 0 0 1-1.6 3.13A12.45 12.45 0 0 0 56.26 49zM68.7 60.17A10.47 10.47 0 1 1 79.17 49.7 10.48 10.48 0 0 1 68.7 60.17zm14.12 13.5A10.93 10.93 0 0 1 71.9 62.75a8.67 8.67 0 0 1 .07-1 12.4 12.4 0 0 0 8.75-15.31 28.1 28.1 0 0 0 2.1-3.59 50.17 50.17 0 0 0 4.76 7.51c3 4.25 6.17 8.64 6.17 12.41a10.93 10.93 0 0 1-10.93 10.9zm-15.35-.79a1 1 0 1 0 1.41 1.41 1 1 0 0 0 0-1.4 1 1 0 0 0-1.42-.01zM52 88.31a1 1 0 1 0 1.41 1.41l.06-.06a1 1 0 0 0 0-1.38 1 1 0 0 0-1.47.03zM76.6 49.2a.5.5 0 0 0-.5.5 7.41 7.41 0 0 1-7.4 7.4.5.5 0 0 0 0 1 8.41 8.41 0 0 0 8.4-8.4.5.5 0 0 0-.5-.5zM62.32 78a1 1 0 1 0 1.41 1.41l.06-.06a1 1 0 0 0 0-1.38 1 1 0 0 0-1.47.03zm-5.07-4.79a1.5 1.5 0 1 0-2.12-2.12l-.08.08a1.5 1.5 0 1 0 2.12 2.12zm6.2-6.21a1.48 1.48 0 0 0 0-2.1 1.52 1.52 0 0 0-2.14 0 1.5 1.5 0 1 0 2.14 2.1zm-7.55-6.53a1 1 0 0 0 0-1.4 1 1 0 0 0-1.43 0 1 1 0 1 0 1.41 1.41zm1.28 22.7a1 1 0 1 0 1.41 1.41l.06-.06a1 1 0 0 0 0-1.38 1 1 0 0 0-1.47.03z"/></svg>