<?xml version="1.0" encoding="utf-8"?>
<!-- Generator: Adobe Illustrator 17.1.0, SVG Export Plug-In . SVG Version: 6.00 Build 0)  -->
<!DOCTYPE svg PUBLIC "-//W3C//DTD SVG 1.1//EN" "http://www.w3.org/Graphics/SVG/1.1/DTD/svg11.dtd">
<svg version="1.1" id="Layer_1" xmlns="http://www.w3.org/2000/svg" xmlns:xlink="http://www.w3.org/1999/xlink" x="0px" y="0px"
	 viewBox="0 0 216 216" enable-background="new 0 0 216 216" xml:space="preserve">
<path d="M149.226,128.633l-15.496-16.955c0.027-0.081,0.134-0.132,0.222-0.159c0.917-0.285,2.599-0.776,3.737-1.091l10.397-2.879
	c0.354-0.098,1.432-0.396,1.396-1.28c-0.035-0.883-1.133-1.095-1.493-1.165l-10.976-2.118c-1.085-0.21-2.537-0.495-3.398-0.672
	l14.663-16.457c0.935-1.047,0.724-1.812,0.514-2.175c-0.209-0.363-0.767-0.93-2.141-0.644l-22.291,4.613
	c-0.018-0.072-0.021-0.184,0.048-0.381c0.373-1.063,0.955-2.873,1.298-4.036l2.844-9.646c0.219-0.744,0.195-1.258-0.074-1.619
	c-0.183-0.244-0.465-0.384-0.773-0.384c-0.406,0-0.824,0.23-1.315,0.726l-7.491,7.564c-0.845,0.852-2.107,2.189-2.814,2.981
	c-0.099,0.11-0.176,0.154-0.231,0.172l-6.989-21.13c-0.441-1.333-1.21-1.532-1.628-1.532c-0.419,0-1.188,0.199-1.628,1.532
	l-7.267,21.965c-0.578-0.591-1.688-1.781-2.479-2.655l-7.384-8.17c-0.486-0.538-0.906-0.788-1.321-0.788
	c-0.297,0-0.57,0.134-0.75,0.368c-0.269,0.349-0.302,0.857-0.105,1.601l3.752,14.17l-21.675-4.493
	c-1.376-0.285-1.931,0.281-2.141,0.643c-0.21,0.362-0.421,1.127,0.512,2.176L81.8,103.619c-0.756,0.176-2.029,0.482-3.045,0.731
	l-10.78,2.652c-0.953,0.234-1.436,0.653-1.437,1.245c0,0.592,0.482,1.011,1.435,1.246l10.72,2.654
	c1.138,0.28,2.718,0.676,3.598,0.889l-15.039,16.882c-0.933,1.049-0.722,1.813-0.512,2.176c0.169,0.294,0.567,0.722,1.445,0.722
	c0.205,0,0.436-0.023,0.696-0.077l22.196-4.595c-0.229,0.738-0.604,1.969-0.901,2.961l-3.295,11.001
	c-0.223,0.745-0.202,1.259,0.064,1.617c0.18,0.242,0.459,0.381,0.765,0.381c0.405,0,0.823-0.235,1.313-0.74l7.728-7.948
	c0.828-0.85,2.07-2.125,2.762-2.832c0.095-0.099,0.172-0.134,0.219-0.138l7.16,21.657c0.441,1.333,1.209,1.531,1.628,1.531
	c0.418,0,1.187-0.199,1.627-1.531l7.254-21.931c0.014-0.001,0.031-0.011,0.044-0.007l10.542,10.479
	c0.493,0.489,0.908,0.718,1.306,0.718c0.31,0,0.59-0.142,0.768-0.388c0.346-0.478,0.181-1.157,0.027-1.626l-3.422-10.466
	c-0.368-1.123-0.874-2.738-1.127-3.591c-0.018-0.062-0.014-0.081-0.013-0.1l22.107,4.282c0.246,0.048,0.466,0.068,0.661,0.068
	c0.901,0,1.303-0.44,1.471-0.739C149.97,130.438,150.172,129.67,149.226,128.633z M101.726,132.108
	c2.005,0.523,4.107,0.802,6.274,0.802c2.585,0,5.078-0.396,7.424-1.13l-6.905,20.875L101.726,132.108z M108,131.41
	c-12.908,0-23.41-10.502-23.41-23.411c0-12.908,10.502-23.409,23.41-23.409s23.41,10.501,23.41,23.409
	C131.41,120.908,120.908,131.41,108,131.41z M90.309,90.484c-3.271,3.304-5.624,7.516-6.646,12.219L68.813,86.028L90.309,90.484z
	 M83.402,104.075c-0.002,0.011-0.004,0.021-0.006,0.032c0.002-0.01,0.001-0.021,0.003-0.031L83.402,104.075z M90.942,126.128
	l-21.624,4.477l14.567-16.354C85.081,118.863,87.573,122.956,90.942,126.128z M114.007,83.827c-1.925-0.479-3.936-0.737-6.007-0.737
	c-2.69,0-5.279,0.434-7.708,1.226l6.939-20.971L114.007,83.827z M132.37,113.156l14.798,16.19l-21.211-4.109
	C129.12,121.943,131.392,117.787,132.37,113.156z M124.78,89.606l21.429-4.434l-14.258,16.001
	C130.666,96.67,128.148,92.682,124.78,89.606z M146.686,106.38l-9.396,2.602c-1.153,0.318-2.854,0.816-3.783,1.105
	c-0.282,0.088-0.521,0.23-0.721,0.407c0.082-0.821,0.125-1.653,0.125-2.495c0-1.559-0.151-3.083-0.427-4.563
	c0.188,0.156,0.423,0.268,0.692,0.323c0.785,0.16,2.384,0.474,3.553,0.7L146.686,106.38z M117.199,83.855
	c0.692-0.776,1.931-2.088,2.761-2.924l6.92-6.986l-2.614,8.866c-0.336,1.142-0.908,2.92-1.274,3.962
	c-0.147,0.42-0.17,0.819-0.098,1.182l-0.071,0.015l0.006,0.029c-1.992-1.481-4.215-2.668-6.6-3.505l0.095-0.031l-0.003-0.01
	C116.595,84.36,116.898,84.191,117.199,83.855z M94.745,82.213c0.803,0.888,1.934,2.1,2.522,2.702
	c0.161,0.164,0.339,0.287,0.529,0.37c-2.224,1.003-4.273,2.321-6.093,3.9c0.027-0.161,0.021-0.329-0.024-0.499l-3.695-13.952
	L94.745,82.213z M69.187,108.249l9.926-2.442c1.149-0.283,2.639-0.64,3.311-0.793c0.471-0.107,0.82-0.418,0.962-0.851
	c-0.194,1.251-0.296,2.532-0.296,3.836c0,1.378,0.118,2.729,0.334,4.046c-0.202-0.215-0.465-0.378-0.787-0.46
	c-0.817-0.206-2.43-0.608-3.585-0.894L69.187,108.249z M95.675,134.37l-7.1,7.301l3.036-10.137c0.34-1.135,0.786-2.596,0.991-3.246
	c0.077-0.243,0.08-0.482,0.029-0.706c1.89,1.486,3.999,2.705,6.271,3.6c-0.162,0.094-0.318,0.205-0.462,0.353
	C97.748,132.241,96.504,133.518,95.675,134.37z M128.365,140.905l-9.862-9.803c-0.138-0.137-0.289-0.24-0.447-0.32
	c2.174-0.963,4.185-2.227,5.979-3.74c-0.019,0.217-0.002,0.442,0.066,0.675c0.255,0.862,0.767,2.497,1.139,3.632L128.365,140.905z"
	/>
</svg>
