<svg data-name="Layer 1" xmlns="http://www.w3.org/2000/svg" viewBox="0 0 74.7 90.53"><title>Icon_RH_Nature_PalmTree_RGB_Black</title><path d="M52.87 14.86a45 45 0 0 1 9.08-1.59.83.83 0 0 0 .4-1.52c-7-5.05-15.48-4.24-23-1 .69-3.74 3.81-6.9 6.52-9.34a.83.83 0 0 0-.8-1.37c-6.92 1.76-12.9 6.05-14.42 13.23-2.57-1-4.83-2.31-7.66-2.89a29.63 29.63 0 0 0-9.13-.42c-4.17.46-11.14 1.88-13.44 5.88a.81.81 0 0 0-.11.36c-.64.5-.22 1.74.69 1.44 6.71-2.27 15.14-3.21 19.75 3.06C5.35 24.57 2.56 45.12 5.88 58.27c.24 1 1.52.65 1.61-.22.63-6 5.24-11.8 9.86-16.36-2.53 6.5-1.59 13.91-1.78 20.9a.83.83 0 0 0 1.53.41c3-5.4 7.7-9.35 11.39-14.22a29.09 29.09 0 0 0 4.22-7.17 27.43 27.43 0 0 0 3.7 6.06c-.26 1.18-1.12 4.3.09 5.15a1.3 1.3 0 0 0 .34.13 25.05 25.05 0 0 0-.56 3.51 4.25 4.25 0 0 0 .22 2.73 2.08 2.08 0 0 0 .44.48c-.21 1-.4 2-.54 3s-.47 2.45 0 3.39a1.8 1.8 0 0 0 .65.71c-.35 2.12-2.22 4.8-.85 6.88a2.44 2.44 0 0 0 .56.6c-.36 2.06-1.6 4.63-.69 6.56a2.28 2.28 0 0 0 .36.53c-.37 2.44-1.7 4.37-.24 6.84 1.35 2.29 4 2.11 6.35 2.24 1.87.1 4.74.6 5.86-1.41 1.26-2.28-.35-5.78-1.07-8a3.09 3.09 0 0 0 .26-.43c1-2.35-.23-4.07-.83-6.16a2.1 2.1 0 0 0 .69-1.51 13.69 13.69 0 0 0-.79-3.79 9.44 9.44 0 0 0-.9-3 2.44 2.44 0 0 0 .29-.7 10.44 10.44 0 0 0-.79-5.66 1.7 1.7 0 0 0 .92-1.93 17.37 17.37 0 0 0-.83-2.82c-.23-.76-.44-1.54-.72-2.29 2.21-1.28-.58-5.6-.73-8 1.19-.3 2.18-.85 2.08-2a10.28 10.28 0 0 0-1.24-3.11c5.25 4.47 12.08 7 19.28 7.83a.83.83 0 0 0 .66-1.17c-3.81-5.61-5.93-13.62-11-18.15A41.81 41.81 0 0 1 73.3 41.83a.83.83 0 0 0 1.4-.58 28.22 28.22 0 0 0-21.83-26.39zm-5.79 71.6c0 3.16-2.84 2.4-5 2.29-2.38-.13-5-.35-5-3.38a11.28 11.28 0 0 1 .78-3.17 16.31 16.31 0 0 0 3.78.21c1.42 0 3.07.25 4.34-.27a13.48 13.48 0 0 1 1.1 4.32zm-.79-7.58c-.71 2.79-3.85 1.9-5.83 1.86-1.1 0-2.49.28-3-1.08a4.48 4.48 0 0 1 .26-2.16c.19-.88.42-1.71.58-2.58a22.57 22.57 0 0 0 4.32.14 17.17 17.17 0 0 0 2.63 0c.47 1.21 1.38 2.47 1.04 3.81zm-.94-8.21c.31 1.24.28 2.53-1.24 2.79a14.76 14.76 0 0 1-2.46-.06c-1.94 0-4.73.14-4.06-2.67.28-1.18.76-2.25 1-3.42a20.85 20.85 0 0 0 3 0 10.33 10.33 0 0 0 2.76-.2 14.32 14.32 0 0 1 1 3.56zm-7.59-21.4q.93 1.09 1.9 2.15a11.84 11.84 0 0 1-2-.07 7.12 7.12 0 0 1 .1-2.08zm5.77 16.33a7.7 7.7 0 0 1-2.27.08c-.75 0-1.51 0-2.26-.09-1.19-.11-1.17-.39-1.1-1.47a28.87 28.87 0 0 1 .58-3.85 22.27 22.27 0 0 0 4-.1h1.16a13.85 13.85 0 0 1 .83 3.27c.09.96.26 1.76-.94 2.19zm.67-8.68c.09.41.36 1.2-.09 1.54-.25.19-1 0-1.32 0-1.21 0-4.6.72-5-.85a6.88 6.88 0 0 1 .15-1.8 17.58 17.58 0 0 1 .53-2.83h.49c1.27 0 2.54.06 3.8.07h.2c.31.83.54 1.7.8 2.55.14.47.34.91.43 1.35zm-3-11.82l1-.11a11.74 11.74 0 0 0 .58 2.28c.3 1 1.09 2.47 1.06 3.45s-1.14.88-2.06.8c-.14-2.16-.33-4.25-.56-6.39zm2.61-2.24l-.6.14-2.19.42q-.55-4.72-1.37-9.4c.25.38.55.7.81 1.06a.71.71 0 0 0 .11.61 36.52 36.52 0 0 1 2.91 5.28c.17.39.68 1.14.65 1.56q.36.53-.3.36zm2.33-18.16c-1.06-.12-1 1.5 0 1.64 9.56 1 12 12 16.18 19.26-10.23-1.58-19.72-6.94-23.71-17a.82.82 0 0 0-1.58.44 163.22 163.22 0 0 1 2.91 20.24c-3.13-3.5-5.9-7.19-6.86-12a.82.82 0 0 0-1.58.44c.55 1.88-1.36 5.3-2.17 6.73a39.69 39.69 0 0 1-5.2 6.86 83.36 83.36 0 0 0-6.91 8.31c-.06-7.53-.73-15.35 4-21.71.58-.78-.63-1.58-1.29-1-5 4.43-10.95 10.43-13.23 17.15C4.85 41.6 8.26 24.69 22.35 22.01a.83.83 0 0 0 .49-1.21c-4.36-7.21-12.61-7.43-19.91-5.46 3.38-3.25 10.87-4 14.8-3.92 5.11.1 8.71 2.13 13.35 3.75a.82.82 0 0 0 1-.57C33 8.67 37.03 4.85 42.16 2.73c-2.46 2.62-4.53 5.76-4.6 9.34a.83.83 0 0 0 1.24.71c6.7-3.16 14.15-4.39 20.7-.89a56.6 56.6 0 0 0-10.35 2.38.83.83 0 0 0 .2 1.58 26.59 26.59 0 0 1 23.47 22.89 43.24 43.24 0 0 0-26.66-14.01zm15.21-2.06a26.18 26.18 0 0 0-6.31-3.49c-.72-.25-1 .9-.32 1.15 3.55 1.24 8.16 4 10.12 7.29a.59.59 0 0 0 1-.6 14.69 14.69 0 0 0-4.49-4.35zm-42 2.68c-5.65 3.2-9.81 8.3-10.23 15 0 .76 1.14.76 1.19 0 .4-6.24 4.37-10.94 9.64-13.93a.597.597 0 0 0-.55-1.06z"/></svg>