<svg id="Layer_1" data-name="Layer 1" xmlns="http://www.w3.org/2000/svg" viewBox="0 0 68.75 36.44"><defs><style>.cls-1{fill:#fff;}</style></defs><title>Icon_RH_Nature_Fish_RGB_White</title><path class="cls-1" d="M65.89 14.89l-.44-.45C59.52 8.35 53.32 4.81 47.01 3.93c-.4-.06-.81-.08-1.21-.12C42.05.73 34.8.02 34.46 0a1 1 0 0 0-.5.08 26.45 26.45 0 0 0-11.87 10.44l-.48.27c-.6.37-1.2.77-1.8 1.18-2.1 1.42-4.07 2.74-6.46 2.6a4.14 4.14 0 0 1-1.73-.78l-.58-.35a24.74 24.74 0 0 0-3-1.5 10.49 10.49 0 0 0-6.9-.78 1.43 1.43 0 0 0-1.12 1c-.2.84.49 1.47 1 1.88l.2.19a7.14 7.14 0 0 1 1.55 5.19 5.22 5.22 0 0 1-2 3.54 1 1 0 0 0 .18 1.7 7.71 7.71 0 0 0 4.38.53 37.58 37.58 0 0 0 6.22-1.28l.43-.13c1.45-.42 3.11-.82 4.4-.17a6 6 0 0 1 1.39 1.08c.7 1.45 4.55 9.09 8 10.24a1 1 0 0 0 .32.05h.09c.44 0 1.81-.47 5.16-3.44a36.09 36.09 0 0 0 5.84.73c0 .18-.09.37-.17.62a3.78 3.78 0 0 1-1.11 1.6 1.1 1.1 0 0 0-.24 1.3 1.32 1.32 0 0 0 1.24.64h.31c2.71-.47 6.55-1.43 8.53-4.37l.12-.2c.95-.13 1.9-.28 2.88-.47a55.89 55.89 0 0 0 11.59-3.53l.82-.34c2.93-1.22 7.37-3.06 7.66-7 .12-2.57-1.5-4.2-2.92-5.63zM34.53 2.02a30 30 0 0 1 7.22 1.76 36 36 0 0 0-9.18 2 60.72 60.72 0 0 0-6.46 2.63 25.43 25.43 0 0 1 8.42-6.39zm-8.45 30.92c-1.32-.65-3-2.88-4.44-5.22l.31.19a29.89 29.89 0 0 0 6.84 3h.12a14.71 14.71 0 0 1-2.83 2.03zm12.57 1.12a4.77 4.77 0 0 0 .22-.56 7.4 7.4 0 0 0 .29-1.16c1.2 0 2.44-.07 3.7-.17a11 11 0 0 1-4.21 1.89zm21.67-8.4l-.84.35a54 54 0 0 1-11.17 3.4 49 49 0 0 1-10 .92 33.43 33.43 0 0 1-8.93-1.32 27.93 27.93 0 0 1-6.4-2.79 20.75 20.75 0 0 1-2.88-2c-.26-.22-.5-.46-.75-.7l-.16-.15a8 8 0 0 0-2-1.52 5.44 5.44 0 0 0-2.49-.56 12.26 12.26 0 0 0-3.37.59l-.44.13a35.59 35.59 0 0 1-5.87 1.21 7.92 7.92 0 0 1-1.78.05 7.16 7.16 0 0 0 1.49-3.58 9.14 9.14 0 0 0-2-6.67l-.11-.13a9.73 9.73 0 0 1 4.63.89 22.87 22.87 0 0 1 2.74 1.38l.52.32a5.74 5.74 0 0 0 2.66 1.08c3.07.2 5.43-1.39 7.71-2.93.57-.39 1.15-.77 1.72-1.12a53.75 53.75 0 0 1 10.57-4.85 30.56 30.56 0 0 1 11.73-1.9c.6 0 1.2.09 1.78.17 5.86.82 11.67 4.15 17.28 9.92l.46.46c1.29 1.29 2.39 2.41 2.28 4-.15 2.77-3.75 4.26-6.38 5.35zm-.37-10.44a2 2 0 1 0 2 2 2 2 0 0 0-2-2zm0 2.95a1 1 0 1 1 1-1 1 1 0 0 1-1 1.05zm-20.5-4a.5.5 0 0 0-.4.56c.08.6.81 5.87 2.44 7a.5.5 0 0 0 .58-.81c-.89-.63-1.63-3.75-2-5.86 6.66-.91 12.51 6.5 12.57 6.58a.5.5 0 1 0 .79-.61c-.22-.32-6.54-8.31-13.98-6.81zm-11.83-.28a39.24 39.24 0 0 1-12.53 4.33.5.5 0 0 0 .07 1h.07a40.27 40.27 0 0 0 12.86-4.39c7.09-3.77 17.55-8 26.51-1.58a.5.5 0 0 0 .58-.81C45.78 5.61 34.95 10 27.62 13.9z"/></svg>