<svg id="Layer_2" data-name="Layer 2" xmlns="http://www.w3.org/2000/svg" viewBox="0 0 108 108"><defs><style>.cls-1{fill:#fff;}</style></defs><title>Icon_RH_nature_drizzle_RGB_White</title><path class="cls-1" d="M34.45 58.33L38 54.79a.75.75 0 0 0-1.06-1.06l-3.54 3.54a.75.75 0 1 0 1.06 1.06zm17.61 14.83a.5.5 0 0 0-.71 0l-8.11 8.11a.5.5 0 1 0 .71.71l8.11-8.11a.5.5 0 0 0 0-.71zm-4.27-12.54a.75.75 0 0 0-1.06 0L41 66.3a.75.75 0 1 0 1.06 1.06l5.68-5.68a.75.75 0 0 0 .05-1.06zm-9.09 9.09a.75.75 0 0 0-1.06 0L32 75.4a.75.75 0 1 0 1 1.06l5.68-5.68a.75.75 0 0 0 .02-1.07zM21.13 54a.5.5 0 0 0-.71 0l-6.73 6.73a.5.5 0 1 0 .71.71l6.73-6.73a.5.5 0 0 0 0-.71zm.4 15.16L18 72.66a.75.75 0 1 0 1.06 1.06l3.54-3.54a.75.75 0 0 0-1.06-1.06zm8.63-8.63l-5.39 5.39A.75.75 0 1 0 25.83 67l5.39-5.39a.75.75 0 1 0-1.06-1.06zm-1.62 18.3L25 82.34a.75.75 0 1 0 1.06 1.06l3.54-3.54a.75.75 0 0 0-1.06-1.06zm9.83 7.33l-3.54 3.54a.5.5 0 1 0 .71.71l3.54-3.54a.5.5 0 0 0-.71-.71zm31.3-25.51a.5.5 0 0 0 .5.5 4 4 0 0 0 4-4 .5.5 0 0 0-1 0 3 3 0 0 1-3 3 .5.5 0 0 0-.5.5zm15.51-2.18a1.24 1.24 0 0 0-1.18-.82 1.24 1.24 0 0 0-1.17.82 18.6 18.6 0 0 1-2.43 3.9c-1.75 2.4-3.56 4.88-3.56 7.53a7.17 7.17 0 0 0 14.33 0c0-2.44-1.76-4.91-3.47-7.3a20.21 20.21 0 0 1-2.53-4.13zM84 75.06a5.17 5.17 0 0 1-5.17-5.17c0-2 1.62-4.21 3.18-6.35a33.88 33.88 0 0 0 2-2.91 35.85 35.85 0 0 0 2.07 3.12c1.52 2.13 3.1 4.34 3.1 6.14A5.17 5.17 0 0 1 84 75.06zm-.5-1.68a.5.5 0 0 0 .5.5 4 4 0 0 0 4-4 .5.5 0 0 0-1 0 3 3 0 0 1-3 3 .5.5 0 0 0-.5.5zM81.81 30a20.87 20.87 0 0 0-40 0 13.28 13.28 0 0 0-18.07 9.62 12.84 12.84 0 0 0-12.14 10 .75.75 0 0 0 .73.91H65.9c-1.52 2.12-2.9 4.3-2.9 6.62a7.17 7.17 0 0 0 14.33 0c0-2.21-1.45-4.44-3-6.62h20.15a.75.75 0 0 0 .74-.62A17.22 17.22 0 0 0 81.81 30zm-6.48 27.17a5.17 5.17 0 0 1-10.33 0c0-2 1.62-4.21 3.18-6.35a33.88 33.88 0 0 0 2-2.91A35.9 35.9 0 0 0 72.23 51c1.53 2.16 3.1 4.37 3.1 6.17zM93.84 49H73.28a15.89 15.89 0 0 1-1.94-3.31 1.25 1.25 0 0 0-2.34 0A15.54 15.54 0 0 1 67 49H13.31a11.34 11.34 0 0 1 10.75-7.9h.29a.75.75 0 0 0 .74-.63A11.79 11.79 0 0 1 42 31.75a11.9 11.9 0 0 1 4.3 3.6.75.75 0 1 0 1.21-.89 13.42 13.42 0 0 0-4.31-3.76 19.35 19.35 0 0 1 36.94-1 17.51 17.51 0 0 0-4.63.08.75.75 0 1 0 .23 1.48 16 16 0 0 1 5.26.06h.08A15.81 15.81 0 0 1 94 46.92a15.2 15.2 0 0 1-.16 2.08zM71.1 69.93l-3.54 3.54a.75.75 0 1 0 1.06 1.06L72.16 71a.75.75 0 0 0-1.06-1.06zM53.67 53.67l-3.54 3.54a.75.75 0 1 0 1.06 1.06l3.54-3.54a.75.75 0 0 0-1.06-1.06zm-2.45 36.14l-3.54 3.54a.75.75 0 1 0 1.06 1.06l3.54-3.54a.75.75 0 1 0-1.06-1.06zm11.89-11.88l-7.43 7.43a.75.75 0 1 0 1.06 1.06L64.17 79a.75.75 0 0 0-1.06-1.06zM56.92 69l3.54-3.54a.5.5 0 0 0-.71-.71l-3.54 3.54a.5.5 0 1 0 .71.71z"/></svg>