<svg id="Layer_2" data-name="Layer 2" xmlns="http://www.w3.org/2000/svg" viewBox="0 0 108 108"><defs><style>.cls-1{fill:#fff;}</style></defs><title>Icon_RH_nature_cold_RGB_White</title><path class="cls-1" d="M54.18 65H50.3a.5.5 0 0 0 0 1h3.88a.5.5 0 0 0 0-1zm-5.72 3.65V26a4.91 4.91 0 0 0-9.82 0v42.69a9.25 9.25 0 1 0 9.82 0zm-4.91 15.63a7.75 7.75 0 0 1-3.79-14.5.75.75 0 0 0 .38-.65V26A3.41 3.41 0 0 1 47 26v43.1a.75.75 0 0 0 .38.65 7.75 7.75 0 0 1-3.79 14.5zm42.82-33.23a4.39 4.39 0 0 0-5.41.79L77.75 50l4-1.44a.75.75 0 1 0-.51-1.41L76 49l-6-3.48L76 42l5.18 1.86a.75.75 0 1 0 .51-1.41l-4-1.44 3.31-1.8a4.42 4.42 0 1 0-1-1.73l-3.22 1.86.76-4.2a.75.75 0 1 0-1.54-.27l-1 5.45-6 3.5v-7l4.23-3.58a.75.75 0 1 0-1-1.15L69 34.86v-3.71a4.43 4.43 0 1 0-2 0v3.71l-3.24-2.74a.75.75 0 1 0-1 1.15L67 36.81v7l-5.86-3.41V30.35a17.08 17.08 0 1 0-34.17 0v47a17.08 17.08 0 0 0 34.17 0v-26.7L67 47.28v7l-4.23 3.52a.75.75 0 0 0 1 1.15L67 56.22v3.7a4.42 4.42 0 1 0 2 0v-3.73L72.24 59a.75.75 0 1 0 1-1.15L69 54.23v-7l6 3.5 1 5.45a.75.75 0 0 0 .74.62h.13a.75.75 0 0 0 .61-.87l-.76-4.21 3.22 1.86a4.41 4.41 0 1 0 6.42-2.52zm-3.66-17.38a2.92 2.92 0 1 1-1.07 4 2.9 2.9 0 0 1 1.07-4zM59.14 77.32a15.08 15.08 0 0 1-30.17 0v-47a15.08 15.08 0 1 1 30.17 0zm2-29v-5.61L66 45.53zm9.75 15.86A2.92 2.92 0 1 1 68 61.29a2.92 2.92 0 0 1 2.89 2.92zM68 29.77a2.92 2.92 0 1 1 2.92-2.92A2.92 2.92 0 0 1 68 29.77zm18.68 26.57a2.92 2.92 0 1 1-1.07-4 2.9 2.9 0 0 1 1.07 4zm-42.1 14.09v-5.51a1 1 0 0 0-2 0v5.51a6.19 6.19 0 1 0 2 0zm-1.31 1.94l-3.85 3.85a4.17 4.17 0 0 1 3.86-3.85zm-3.75 5.16l5.06-5.06a4.15 4.15 0 0 1 1.57.78l-5.84 5.85a4.15 4.15 0 0 1-.78-1.57zm3.06 3a4.15 4.15 0 0 1-1.58-.72L46.87 74a4.15 4.15 0 0 1 .77 1.57zm1.31.1l3.84-3.84a4.17 4.17 0 0 1-3.83 3.89zm10.28-23H50.3a.5.5 0 0 0 0 1h3.88a.5.5 0 0 0 0-1zm-3.87 4.72h2a.5.5 0 0 0 0-1h-2a.5.5 0 0 0 0 1zm3.88-19.44H50.3a.5.5 0 0 0 0 1h3.88a.5.5 0 0 0 0-1zm-3.88-2.68h2a.5.5 0 0 0 0-1h-2a.5.5 0 0 0 0 1zm0-7.37h2a.5.5 0 0 0 0-1h-2a.5.5 0 0 0 0 1zm3.88 2.69H50.3a.5.5 0 0 0 0 1h3.88a.5.5 0 0 0 0-1zM50.3 55h2a.5.5 0 0 0 0-1h-2a.5.5 0 0 0 0 1zm3.88-26.81H50.3a.5.5 0 0 0 0 1h3.88a.5.5 0 0 0 0-1zm0 22.13H50.3a.5.5 0 0 0 0 1h3.88a.5.5 0 0 0 0-1zM50.3 47.6h2a.5.5 0 0 0 0-1h-2a.5.5 0 0 0 0 1z"/></svg>