<svg id="Layer_2" data-name="Layer 2" xmlns="http://www.w3.org/2000/svg" viewBox="0 0 108 108"><defs><style>.cls-1{fill:#fff;}</style></defs><title>Icon_RH_nauture_dust-smoke_RGB_White</title><path class="cls-1" d="M82.75 41.42a20.56 20.56 0 0 0-39.42 0 13.1 13.1 0 0 0-17.8 9.48 12.66 12.66 0 0 0-12 9.84.75.75 0 0 0 .73.91h18.51a13.16 13.16 0 0 0-5.5 13.22 1 1 0 0 0 1 .83h61a1 1 0 0 0 1-1.22 10 10 0 0 0-9.08-7.74 10.28 10.28 0 0 0-2.93-5.08h17a.75.75 0 0 0 .74-.62 17 17 0 0 0-13.25-19.62zm6.32 4.68l-13.7 13.7a10.27 10.27 0 0 0-2.09-.68l14.17-14.17a15.48 15.48 0 0 1 1.61 1.16zm-2.5-1.68l-14.5 14.5h-1a10.21 10.21 0 0 0-1.94.19l15.54-15.56a15.43 15.43 0 0 1 1.89.88zM82 42.81a15.6 15.6 0 0 1 1.59.39L67.54 59.26a15.93 15.93 0 0 0-.82-2l14.81-14.77a.75.75 0 0 0 .47.32zm-.85-1.36L66.22 56.4a15.86 15.86 0 0 0-1.12-1.66l15.3-15.3a18.94 18.94 0 0 1 .76 2.01zm-1.22-2.95L64.47 54a15.89 15.89 0 0 0-1.38-1.39L78.9 36.75a19.05 19.05 0 0 1 1.03 1.75zm-1.62-2.57l-16 16a15.86 15.86 0 0 0-1.64-1.13l16.39-16.39a19.08 19.08 0 0 1 1.25 1.52zm-2-2.23L59.77 50.29a15.88 15.88 0 0 0-1.94-.83L74.88 32.4a19.14 19.14 0 0 1 1.47 1.3zm-2.28-1.9L56.74 49.13a15.9 15.9 0 0 0-2.32-.46l18-18a19.19 19.19 0 0 1 1.65 1.13zm-2.62-1.57L53.12 48.57h-.63a15.83 15.83 0 0 0-2.29.18L69.52 29.4a19 19 0 0 1 1.93.83zm-3-1.18l-20 20a16 16 0 0 0-5.28 2.51l23.08-23.04a18.9 18.9 0 0 1 2.24.53zM47.25 51.58l-7.65 7.66a14 14 0 0 1 7.65-7.66zm7.57-21.46l-9 9a19 19 0 0 1 9.01-9zM33.56 43l-5.78 5.78A11.52 11.52 0 0 1 33.56 43zM15.27 60.19A11.18 11.18 0 0 1 24 52.6l-7.6 7.6zm2.52 0l7.75-7.75h.59a.77.77 0 0 0 .76-.64c0-.3.11-.6.18-.9l8.63-8.62a11.76 11.76 0 0 1 2.67-.28h.39l-18.2 18.2zm4.19 0l18.08-18.08a11.43 11.43 0 0 1 2.22.55L24.75 60.19zm4.19 0l17.11-17.11.21.09a.75.75 0 0 0 1.06-.49c.1-.42.23-.83.37-1.24l12.25-12.26a19 19 0 0 1 3.55-.78L28.94 60.19zm4.19 0l31.9-31.91h.78a18.94 18.94 0 0 1 1.91.11l-31.83 31.8zm9.23-5a15.81 15.81 0 0 0-2.28 4.52 13.24 13.24 0 0 0-1.69.53h-1.08zM37 61.82l-7.44 7.44A11.28 11.28 0 0 1 37 61.82zm-7.88 11.92a10.6 10.6 0 0 1-.06-1.14 11.24 11.24 0 0 1 .11-1.52l20.16-20.16a13.83 13.83 0 0 1 3.14-.37L29.28 73.74zm1.58 0l23.12-23.13a13.92 13.92 0 0 1 2.34.43l-22.7 22.7zm4.19 0l22.35-22.36a13.89 13.89 0 0 1 1.92.86l-21.5 21.5zm4.18 0l21-21A13.92 13.92 0 0 1 61.62 54L41.84 73.74zm4.19 0l19.1-19.1a13.83 13.83 0 0 1 1.29 1.48L46 73.74zm4.19 0L64.22 57a13.93 13.93 0 0 1 1 1.8l-15 15zm4.19 0l14-14c.15.43.29.87.41 1.32a1 1 0 0 0 .45.59L54.39 73.74zm4.18 0L68.1 61.45a8.19 8.19 0 0 1 3-.57h.34L58.58 73.74zm4.19 0L72.69 61a8.28 8.28 0 0 1 2.07.7l-12 12zm4.19 0l11.46-11.49a8.24 8.24 0 0 1 1.5 1.27L67 73.74zm23.68 0h-2.77L86.86 72a7.83 7.83 0 0 1 1 1.74zm-1.65-2.51l-2.51 2.51h-2.8L84.68 70a8 8 0 0 1 1.53 1.22zm-4.58-2.38a7.84 7.84 0 0 1 2.14.64l-4.26 4.26h-2.79zm-2.33-.92a1 1 0 0 0 1 .85l-5 5h-2.77l6.59-6.59c.06.21.12.47.16.74zm-.51-1.84l-7.65 7.65h-2.79l9.43-9.44a8.28 8.28 0 0 1 .99 1.79zm-2.4-5.89l13.4-13.43a15.54 15.54 0 0 1 1.35 1.42l-12 12zm4.19 0L91.77 49a15.61 15.61 0 0 1 1.07 1.7l-9.49 9.49zm4.19 0l8.56-8.56a15.51 15.51 0 0 1 .75 2l-6.54 6.54zm4.18 0l5.41-5.41a15.59 15.59 0 0 1 .33 2.44l-3 3zm5.63 0h-1.47l1.58-1.58a15 15 0 0 1-.13 1.57z"/></svg>