<svg id="Layer_1" data-name="Layer 1" xmlns="http://www.w3.org/2000/svg" viewBox="0 0 108 108"><defs><style>.cls-1{fill:none;}.cls-2{fill:#fff;}</style></defs><title>Icon_RH_Nature_Armadillo_RGB_White</title><path class="cls-1" d="M77.59,67.72a11.34,11.34,0,0,1-5.82-2,15.55,15.55,0,0,1-2.38-2,7.3,7.3,0,0,1-2.21-3.59C67,59.26,67,58.41,67,57.57a15,15,0,0,0-.89-3.89,13.34,13.34,0,0,0-3-4.62,18.39,18.39,0,0,0-5.1-3.5l-0.31-.15A25.89,25.89,0,0,0,46,42.82c3.81,1.83,9,6.4,9.16,17.67a0.75,0.75,0,0,1-.74.76h0a0.75,0.75,0,0,1-.75-0.74C53.48,46.21,45,43.64,42.57,43.19a22.36,22.36,0,0,0-3.52,1c3.25,1.42,10.29,5.48,10,13.9a0.75,0.75,0,0,1-.75.72h0A0.75,0.75,0,0,1,47.51,58c0.38-9.55-9.71-12.79-10.44-13a27.27,27.27,0,0,0-3.81,2.17,21.65,21.65,0,0,0-2.07,1.54c-0.34.31-1.08,0.05-1-.4,0.43-2.39,2.22-7.37,2.41-10.07a92.46,92.46,0,0,1-6.64,11c-0.15.21-1-1.89-1.16-2.49a14.38,14.38,0,0,0-2-3.55v2.53a5,5,0,0,0,.61,2.92l0.73,0.92L23.1,50c-3.17,1.45-3.75,4.27-4.41,7.53-0.16.79-.33,1.6-0.53,2.4a15.5,15.5,0,0,1-1.65,3.63c-0.24.42-.48,0.84-0.7,1.27,1.53,0.2,2.67-.41,4-2.07a15.17,15.17,0,0,1,3.89-3c0.65-.4,1.32-0.82,2-1.28l1-.71,0.4,1.16a9.16,9.16,0,0,0,3.11,4.66,6.91,6.91,0,0,0,2.75,1,6,6,0,0,1,2.28.77,4,4,0,0,1,1.18,4.88,0,0,0,0,0,0,.06h2.91a2.29,2.29,0,0,0,.67,0,1,1,0,0,0,.36-0.75l0.38-1.19,0.53-1.64,0.24-.76a2,2,0,0,0,.19-0.57c0-.15.1-0.29,0.17-0.43a1.68,1.68,0,0,0,.2-0.38,3.51,3.51,0,0,1,2.06-1.58,4.68,4.68,0,0,1,1.71-.14,20.84,20.84,0,0,1,6,1.28,3.89,3.89,0,0,1,2.62,3,4,4,0,0,1-1.14,3.18h5A14.92,14.92,0,0,0,59,68.68a14.93,14.93,0,0,1,.79-1.53c0.79-1.32,1.93-2.9,3.54-3.2a2.66,2.66,0,0,1,2.33.83c0.48,0.42,1,.83,1.49,1.21a17.48,17.48,0,0,0,3.07,1.83,14.9,14.9,0,0,0,6.54,1.35h0.07a39.13,39.13,0,0,0,12-2.36l0.11,0c-1.21.22-2.45,0.43-3.69,0.57A48.29,48.29,0,0,1,77.59,67.72Z"/><path class="cls-2" d="M94,64.87a3.82,3.82,0,0,0-2.16-.37,13.24,13.24,0,0,0-2,.22c-1.75.33-3.49,0.61-5.25,0.82-1.42.17-2.85,0.29-4.29,0.34a16.3,16.3,0,0,1-4.1-.22,9.6,9.6,0,0,1-3.38-1.5,9,9,0,0,1-3.59-4.08,10.21,10.21,0,0,1-.43-2.68,17.45,17.45,0,0,0-.29-2,15.31,15.31,0,0,0-1.3-3.68,15.71,15.71,0,0,0-3.49-4.52,20.92,20.92,0,0,0-5.29-3.42c-9.14-4.22-18.23-3.56-26.31,2.52a41.15,41.15,0,0,0,1.95-8c0.16-.84.41-2.41-0.75-2.43a1.33,1.33,0,0,0-1,.37c-2,2.19-2.92,5.57-6.1,9.37a22.2,22.2,0,0,0-3.55-5.8c-0.25-.33-2-2.79-1.87-1.08,0.07,1,.16,2.08.19,3.13,0,1.3,0,2.59,0,3.89a8.36,8.36,0,0,0,.46,3.11c-3.26,2-4,5.35-4.57,8.37-0.16.76-.32,1.55-0.51,2.3a6.88,6.88,0,0,1-.28.84c-0.33.81-3.59,5.61-2.13,6l0.69,0.18c3.3,0.86,5.2-.81,6.62-2.55a13.66,13.66,0,0,1,3.44-2.64l1.08-.68a9.82,9.82,0,0,0,.63,1.3A11.17,11.17,0,0,0,27.13,63a8.79,8.79,0,0,0,1.72,1.8,7.87,7.87,0,0,0,2.3,1.27c0.82,0.27,1.7.25,2.53,0.48a1.87,1.87,0,0,1,1.24,1.58,4.47,4.47,0,0,1-.71,2.35c-0.34.74-.65,1.27-0.43,1.54a0.53,0.53,0,0,0,.4.15l3.27,0c1.09,0,2.17,0,3.26,0H41A0.63,0.63,0,0,0,41.43,72a1.42,1.42,0,0,0,.26-0.57q0.12-.39.26-0.78c0.22-.63.46-1.25,0.69-1.88q0.24-.67.44-1.35c0.11-.39.22-0.79,0.31-1.18a1.9,1.9,0,0,1,2.33-1.62,19.13,19.13,0,0,1,5.49,1.15,2.14,2.14,0,0,1,1.49,1.56,2.47,2.47,0,0,1-.85,1.86c-0.4.4-.81,0.78-1.21,1.17l-0.6.59a2.69,2.69,0,0,0-.48.48,0.39,0.39,0,0,0,0,.47,0.75,0.75,0,0,0,.57.19c0.48,0,1,0,1.45,0l1.42,0c1.43,0,2.85,0,4.28,0h1.82a0.8,0.8,0,0,0,.76-0.53l0.25-.7a16.37,16.37,0,0,1,1.17-2.6A7.52,7.52,0,0,1,63,66.14a1.3,1.3,0,0,1,.77-0.38,1.06,1.06,0,0,1,.65.37,20.14,20.14,0,0,0,6,3.79A16.41,16.41,0,0,0,76.91,71a39.17,39.17,0,0,0,7-.86c2.11-.45,4.2-1.11,6.29-1.67a7.69,7.69,0,0,0,3.7-1.73C94.4,66.19,94.74,65.38,94,64.87ZM88.87,66.8a39.13,39.13,0,0,1-12,2.36H76.79a14.9,14.9,0,0,1-6.54-1.35A17.48,17.48,0,0,1,67.18,66c-0.52-.38-1-0.78-1.49-1.21a2.66,2.66,0,0,0-2.33-.83c-1.61.3-2.76,1.89-3.54,3.2A14.93,14.93,0,0,0,59,68.68a14.92,14.92,0,0,1-.64,1.56h-5a4,4,0,0,0,1.14-3.18,3.89,3.89,0,0,0-2.62-3,20.84,20.84,0,0,0-6-1.28,4.68,4.68,0,0,0-1.71.14,3.51,3.51,0,0,0-2.06,1.58,1.68,1.68,0,0,1-.2.38c-0.06.14-.12,0.29-0.17,0.43a2,2,0,0,1-.19.57l-0.24.76-0.53,1.64-0.38,1.19a1,1,0,0,1-.36.75,2.29,2.29,0,0,1-.67,0H36.47a0,0,0,0,1,0-.06,4,4,0,0,0-1.18-4.88A6,6,0,0,0,33,64.55a6.91,6.91,0,0,1-2.75-1,9.16,9.16,0,0,1-3.11-4.66l-0.4-1.16-1,.71c-0.65.46-1.32,0.88-2,1.28a15.17,15.17,0,0,0-3.89,3c-1.35,1.65-2.5,2.27-4,2.07,0.22-.43.46-0.85,0.7-1.27a15.5,15.5,0,0,0,1.65-3.63c0.21-.8.37-1.61,0.53-2.4,0.66-3.26,1.24-6.08,4.41-7.53l1.07-.49-0.73-.92a5,5,0,0,1-.61-2.92V43.14a14.38,14.38,0,0,1,2,3.55c0.18,0.6,1,2.7,1.16,2.49a92.46,92.46,0,0,0,6.64-11c-0.19,2.7-2,7.68-2.41,10.07-0.08.45,0.66,0.71,1,.4a21.65,21.65,0,0,1,2.07-1.54A27.27,27.27,0,0,1,37.07,45c0.73,0.22,10.82,3.46,10.44,13a0.75,0.75,0,0,0,.72.78h0A0.75,0.75,0,0,0,49,58.05c0.34-8.42-6.71-12.48-10-13.9a22.36,22.36,0,0,1,3.52-1c2.46,0.44,10.91,3,11.13,17.32a0.75,0.75,0,0,0,.75.74h0a0.75,0.75,0,0,0,.74-0.76C55,49.22,49.85,44.66,46,42.82a25.89,25.89,0,0,1,11.59,2.58l0.31,0.15a18.39,18.39,0,0,1,5.1,3.5,13.34,13.34,0,0,1,3,4.62A15,15,0,0,1,67,57.57c0.08,0.83.07,1.68,0.23,2.51a7.3,7.3,0,0,0,2.21,3.59,15.55,15.55,0,0,0,2.38,2,11.34,11.34,0,0,0,5.82,2,48.29,48.29,0,0,0,7.7-.39c1.24-.14,2.48-0.35,3.69-0.57Z"/></svg>