<svg data-name="Layer 2" xmlns="http://www.w3.org/2000/svg" viewBox="0 0 108 108"><title>Icon_RH_nature_mostlycloudy-night_RGB_Black</title><path d="M80.26 56.4a12.36 12.36 0 0 0-.87-2.62 18.59 18.59 0 0 0 7.55-13.4 1 1 0 0 0-1.66-.84 12.75 12.75 0 0 1-18-18 1 1 0 0 0 .15-1.12 1 1 0 0 0-1-.54 18.81 18.81 0 0 0-16.61 14.55 19.19 19.19 0 0 0-22.9 13.12 15.84 15.84 0 0 0-12.3 18.34.75.75 0 0 0 .74.62h15.7a9.63 9.63 0 0 0-2.63 4.62A9.36 9.36 0 0 0 20 78.38a1 1 0 0 0 1 1.22h56.68a1 1 0 0 0 1-.83 12.32 12.32 0 0 0-5-12.26h17a.75.75 0 0 0 .73-.91 11.84 11.84 0 0 0-11.15-9.2zm-24-29.66a16.88 16.88 0 0 1 8-4.47 14.75 14.75 0 0 0 20.3 20.3A16.51 16.51 0 0 1 78.4 52a12.24 12.24 0 0 0-14.72-4.47A19.13 19.13 0 0 0 51.74 35a16.75 16.75 0 0 1 4.53-8.26zm20.6 49.87a9.56 9.56 0 0 1-.05 1H22.3a7.37 7.37 0 0 1 6.78-4.49h.17a1 1 0 0 0 1-.85 7.66 7.66 0 0 1 11-5.71A7.73 7.73 0 0 1 44 68.91a1 1 0 1 0 1.61-1.18 9.74 9.74 0 0 0-2.8-2.55 12.88 12.88 0 0 1 24.22-1 12.57 12.57 0 0 0-2.55.12 1 1 0 0 0 .3 2 10.59 10.59 0 0 1 3.47 0h.06a10.44 10.44 0 0 1 8.55 10.31zm-6-11.6a12.38 12.38 0 0 0-1.58-.5 14.89 14.89 0 0 0-28.28-.2 9.53 9.53 0 0 0-3.17-.54A9.68 9.68 0 0 0 33.06 65H16a13.79 13.79 0 0 1-.14-1.89 14.43 14.43 0 0 1 11.79-14.17h.07a14.66 14.66 0 0 1 4.8-.06.75.75 0 1 0 .23-1.48 16.19 16.19 0 0 0-4.16-.09 17.67 17.67 0 0 1 33.7.95 12.36 12.36 0 0 0-3.94 3.44.75.75 0 0 0 1.21.89 10.84 10.84 0 0 1 3.92-3.28 10.74 10.74 0 0 1 15.38 8 .76.76 0 0 0 .76.63h.26A10.33 10.33 0 0 1 89.69 65zM40.07 25.45l-.52 2.84a.57.57 0 0 0 .23.56.65.65 0 0 0 .61 0l2.54-1.37 2.54 1.38a.57.57 0 0 0 .61 0 .65.65 0 0 0 .23-.57l-.52-2.84 2.09-2a.57.57 0 0 0 .15-.59.65.65 0 0 0-.47-.39l-2.86-.38-1.25-2.6a.57.57 0 0 0-.52-.32.65.65 0 0 0-.52.33l-1.25 2.6-2.86.38a.58.58 0 0 0-.47.39.65.65 0 0 0 .15.59zm1.49-2.4a.5.5 0 0 0 .38-.28l1-2 1 2a.5.5 0 0 0 .38.28l2.25.3-1.64 1.56a.5.5 0 0 0-.15.45l.41 2.23-2-1.08a.5.5 0 0 0-.48 0l-2 1.08.41-2.23a.5.5 0 0 0-.15-.45l-1.64-1.56z"/></svg>