<svg id="Layer_1" data-name="Layer 1" xmlns="http://www.w3.org/2000/svg" viewBox="0 0 62.82 71.43"><defs><style>.cls-1{fill:#fff;}</style></defs><title>Icon_RH_Nature_Snowflake_RGB_White</title><path class="cls-1" d="M59.27 48.29a3.47 3.47 0 0 0-2.34.92l-3.2-1.85 3.4-1.33a1.004 1.004 0 0 0-.73-1.87l-4.89 1.91-4.47-2.58 3.21-1.26a1 1 0 1 0-.73-1.86l-4.7 1.84L35 36.54h25a1 1 0 1 0 0-2H35.25l9.43-5.44 4.72 1.86a1 1 0 1 0 .73-1.86l-3.23-1.27 4.5-2.59 4.91 1.92a1 1 0 1 0 .73-1.86l-3.42-1.34 3.35-1.93a3.58 3.58 0 1 0-1-1.73l-3.17 1.83.5-3.33a1.01 1.01 0 1 0-2-.3l-.74 4.91-4.71 2.71.55-3.5a1.01 1.01 0 1 0-2-.3l-.77 5.1L34 32.98l12.57-21.77a1 1 0 1 0-1.73-1L32.4 31.74V20.51l4-3.16a1 1 0 0 0-1.24-1.57l-2.76 2.18v-5.2l4-3.14a1 1 0 0 0-1.24-1.57l-2.76 2.16V6.85a3.48 3.48 0 0 0 2-1.61 3.53 3.53 0 1 0-4 1.61v3.4l-2.75-2.21a1.007 1.007 0 1 0-1.25 1.58l4 3.22v5.18l-2.75-2.21a1 1 0 1 0-1.25 1.54l4 3.27v11.27L17.88 10.21a1 1 0 1 0-1.73 1l12.51 21.68-9.63-5.56-.8-5.26a1.01 1.01 0 0 0-2 .3l.56 3.68-4.69-2.71-.7-5.06a1.01 1.01 0 0 0-2 .3l.53 3.48-3-1.74a3.47 3.47 0 0 0 .1-.81 3.52 3.52 0 1 0-1.11 2.54l3 1.74-3.28 1.28a1.01 1.01 0 1 0 .76 1.87l4.77-1.87 4.43 2.55-3.09 1.21a1 1 0 1 0 .73 1.86l4.58-1.79 9.72 5.61H2.67a1 1 0 1 0 0 2h25.12l-9.83 5.71-4.72-1.85a1 1 0 1 0-.73 1.86l3.23 1.27-4.47 2.58-4.87-1.92a1 1 0 0 0-.73 1.86l3.42 1.34-3.15 1.82a3.6 3.6 0 1 0 1 1.71l3-1.71-.54 3.34a1 1 0 0 0 .83 1.1h.17a1 1 0 0 0 1-.85l.74-4.91 4.69-2.71-.54 3.53a1 1 0 0 0 .84 1.14h.15a1 1 0 0 0 1-.85l.78-5.11 9.53-5.5-12.44 21.53a1 1 0 0 0 1.73 1L30.4 39.21v11.55l-4 3.16a1 1 0 1 0 1.24 1.57l2.76-2.18v5.2l-4 3.11a1 1 0 1 0 1.24 1.57l2.76-2.13v3.56a3.57 3.57 0 1 0 2 0v-3.61l2.75 2.22a1.02 1.02 0 0 0 1.25-1.61l-4-3.23v-5.13l2.75 2.22a1 1 0 0 0 1.25-1.56l-4-3.23V39.35l12.43 21.54a1 1 0 0 0 1.73-1L34.13 38.35l9.62 5.56.78 5.13a1 1 0 0 0 1 .85h.15a1 1 0 0 0 .84-1.14l-.54-3.55 4.69 2.71.73 4.91a1 1 0 0 0 1 .85h.15a1 1 0 0 0 .85-1.15l-.51-3.35 3 1.74a3.46 3.46 0 0 0-.12.87 3.5 3.5 0 1 0 3.5-3.5zm.06-30.31a1.5 1.5 0 1 1-1.5 1.5 1.5 1.5 0 0 1 1.49-1.5zm-55.82 3a1.5 1.5 0 1 1 1.5-1.5 1.5 1.5 0 0 1-1.51 1.53zm.06 32.25a1.5 1.5 0 1 1 1.5-1.5 1.5 1.5 0 0 1-1.51 1.53zM32.7 68.68a1.5 1.5 0 1 1-1.37-2.23h.14a1.48 1.48 0 0 1 .67.19 1.5 1.5 0 0 1 .56 2.04zM31.4 5a1.5 1.5 0 0 1-1.29-2.24A1.5 1.5 0 1 1 31.4 5zm27.87 48.29a1.5 1.5 0 1 1 1.5-1.5 1.5 1.5 0 0 1-1.5 1.5z"/></svg>