<svg id="Layer_1" data-name="Layer 1" xmlns="http://www.w3.org/2000/svg" viewBox="0 0 108 108"><title>Icon_RH_Nature_FrogHand_RGB_Flat</title><path d="M60.4,90.81a13.27,13.27,0,0,1-5.78-1.36h0c-4.38-2.16-8.36-7-10.92-13.3-1.6-3.94-4-6.26-7.74-9.17a42,42,0,0,0-9.31-5.9c-0.72-.3-1.46-0.55-2.21-0.81-3.18-1.11-6.78-2.36-8.17-6.62a6,6,0,0,1,.83-5.8,6.1,6.1,0,0,1,5.6-2c4.13,0.5,6.46,3.94,8.52,7a34,34,0,0,0,2.11,2.89c2.22,2.61,7.14,6.28,11.51,3.48a5.5,5.5,0,0,0,2.29-4.44,27.55,27.55,0,0,0-1-8.51c-1.33-5-2.86-9.85-6.89-13.54-3.42-3.14-4.22-9-1.72-12.57a6.89,6.89,0,0,1,6.61-2.92,8.29,8.29,0,0,1,5.72,3.82,10.85,10.85,0,0,1,1.68,8.5c-2.16,8.26-.74,16.19,4.35,24.25a3.44,3.44,0,0,0,2.58,1.79,4.54,4.54,0,0,0,3.59-1.76,12.8,12.8,0,0,0,3-10,26.57,26.57,0,0,0-.62-3c-0.72-2.92-1.53-6.22.59-9.16a8.45,8.45,0,0,1,7.56-3.36,6.36,6.36,0,0,1,5.28,3.9c1.91,4.44-1,8.22-3.5,11.56a25.48,25.48,0,0,0-2.64,3.92c-2.19,4.47-5.29,13.5-3.07,19a6.44,6.44,0,0,0,4,3.81c2.65,0.95,4.86-.87,7.2-2.78s5.07-4.16,8.35-3a5.92,5.92,0,0,1,3.39,3.88,8.39,8.39,0,0,1-.45,6.81c-2.22,3.49-7.61,2.46-10.2,2A9.67,9.67,0,0,0,73.34,79c-1.55,1.14-2.41,2.87-3.31,4.7a22.16,22.16,0,0,1-2,3.55A9.19,9.19,0,0,1,60.4,90.81Zm-4.89-3.15C59,89.39,63.9,89.42,66.39,86.1a20.32,20.32,0,0,0,1.85-3.24c1-2,2-4,3.93-5.43a11.65,11.65,0,0,1,9.15-2c2.16,0.41,6.65,1.27,8.14-1.08a6.41,6.41,0,0,0,.24-5.09,4.15,4.15,0,0,0-2.18-2.65c-2.2-.8-4.15.79-6.4,2.64-2.54,2.09-5.42,4.45-9.14,3.12a8.44,8.44,0,0,1-5.18-4.94c-3.06-7.52,2.49-19.27,3.13-20.59a26.86,26.86,0,0,1,2.84-4.25C75.2,39.39,77.48,36.39,76,33a4.35,4.35,0,0,0-3.66-2.7,6.39,6.39,0,0,0-5.72,2.54c-1.58,2.19-.94,4.78-0.27,7.52A28.26,28.26,0,0,1,67,43.59,14.82,14.82,0,0,1,63.6,55.18a6.47,6.47,0,0,1-5.25,2.42,5.3,5.3,0,0,1-4.1-2.71c-5.33-8.44-6.87-17.13-4.59-25.82a8.92,8.92,0,0,0-1.4-6.87,6.33,6.33,0,0,0-4.32-3,4.92,4.92,0,0,0-4.72,2.09c-2.11,3-1,7.72,1.44,9.94,4.42,4.05,6.11,9.39,7.47,14.5a29.59,29.59,0,0,1,1,9.13,7.46,7.46,0,0,1-3.21,6C41.09,64,35.35,61.21,31.82,57A36.05,36.05,0,0,1,29.58,54c-1.91-2.81-3.88-5.71-7.1-6.1a4.15,4.15,0,0,0-3.82,1.24A4,4,0,0,0,18.19,53c1.08,3.32,3.79,4.26,6.93,5.35,0.76,0.26,1.55.54,2.31,0.85a43.52,43.52,0,0,1,9.77,6.17c4,3,6.6,5.66,8.37,10,2.38,5.85,6,10.31,10,12.26h0Z"/></svg>