<svg data-name="Layer 2" xmlns="http://www.w3.org/2000/svg" viewBox="0 0 108 108"><title>Icon_RH_nature_hot_RGB_Black</title><path d="M54 65h-3.92a.5.5 0 0 0 0 1H54a.5.5 0 0 0 0-1zm-5.72 3.65V26a4.91 4.91 0 1 0-9.82 0v42.69a9.25 9.25 0 1 0 9.82 0zm-4.95 15.63a7.75 7.75 0 0 1-3.79-14.5.75.75 0 0 0 .38-.65V26a3.41 3.41 0 1 1 6.82 0v43.1a.75.75 0 0 0 .38.65 7.75 7.75 0 0 1-3.79 14.5zm1-13.85V27a1 1 0 0 0-2 0v43.43a6.19 6.19 0 1 0 2 0zm-1.03 1.92l-4.13 4.13a4.19 4.19 0 0 1 4.13-4.13zm-3.94 5.36l5.17-5.18a4.16 4.16 0 0 1 1.52.82l-5.87 5.87a4.16 4.16 0 0 1-.82-1.51zm3.18 2.93a4.15 4.15 0 0 1-1.63-.72l5.83-5.83a4.15 4.15 0 0 1 .72 1.63zm1.39 0l3.56-3.56a4.17 4.17 0 0 1-3.56 3.58zm6.15-18.3h2a.5.5 0 0 0 0-1h-2a.5.5 0 0 0 0 1zM54 28.17h-3.92a.5.5 0 0 0 0 1H54a.5.5 0 0 0 0-1zm-3.87 4.69h2a.5.5 0 1 0 0-1h-2a.5.5 0 0 0 0 1zM54 35.54h-3.92a.5.5 0 0 0 0 1H54a.5.5 0 0 0 0-1zm-3.87 4.69h2a.5.5 0 0 0 0-1h-2a.5.5 0 0 0 0 1zM81.46 51l8.89-2.26a.77.77 0 0 0 0-1.5l-9.21-2.34 9.37-10.62a1 1 0 0 0-1-1.68l-13.6 2.81 2.48-8.83a.77.77 0 0 0-1.3-.75l-6.63 6.8L66 19.21a1 1 0 0 0-1.94 0l-3.23 9.49a17.08 17.08 0 0 0-34.08 1.65v47a17.08 17.08 0 0 0 34.17 0v-9.72L64 76.87a1 1 0 0 0 1.94 0l4.51-13.42 6.63 6.8a.77.77 0 0 0 .55.24.78.78 0 0 0 .39-.11.76.76 0 0 0 .36-.88l-2.57-9.14 13.89 2.8h.2a1 1 0 0 0 .77-1.7zM58.91 77.32a15.08 15.08 0 0 1-30.17 0v-47a15.08 15.08 0 1 1 30.17 0zM89.24 48l-8.43 2.15a14.35 14.35 0 0 0 0-4.29zm-.79-13.6l-8.12 9.2a16 16 0 0 0-4-6.76zm-11.26-7.23l-2.34 8.32a16 16 0 0 0-3.65-2.17zM65 21l3.87 11.52a15.65 15.65 0 0 0-7.73 0zm0 54l-3.86-11.5a15.65 15.65 0 0 0 7.73 0zm12.2-6.14l-6-6.14a16 16 0 0 0 3.65-2.17zM65 62a14 14 0 0 1-4.07-.61V34.67A14 14 0 1 1 65 62zm11.6-3a16 16 0 0 0 3.81-6.85l8.19 9.28zm-26.52-4h2a.5.5 0 0 0 0-1h-2a.5.5 0 0 0 0 1zM54 50.29h-3.92a.5.5 0 0 0 0 1H54a.5.5 0 0 0 0-1zm0-7.37h-3.92a.5.5 0 0 0 0 1H54a.5.5 0 0 0 0-1zm0 14.75h-3.92a.5.5 0 0 0 0 1H54a.5.5 0 0 0 0-1zM50.08 47.6h2a.5.5 0 0 0 0-1h-2a.5.5 0 0 0 0 1z"/></svg>