<svg id="Layer_2" data-name="Layer 2" xmlns="http://www.w3.org/2000/svg" viewBox="0 0 108 108"><defs><style>.cls-1{fill:#fff;}</style></defs><title>Icon_RH_nature_moon-stars_RGB_White</title><path class="cls-1" d="M55.43 30.6l7 1.69 2.41 6.76a.92.92 0 0 0 .78.61h.1a.92.92 0 0 0 .79-.44l3.76-6.11 7.17-.2a.93.93 0 0 0 .68-1.53l-4.65-5.46 2-6.88a.93.93 0 0 0-1.24-1.12l-6.64 2.74-5.92-4.06a.93.93 0 0 0-1.45.84l.55 7.16-5.69 4.4a.93.93 0 0 0 .35 1.64zM62 25.53a.75.75 0 0 0 .29-.65l-.49-6.37 5.27 3.61a.75.75 0 0 0 .71.07l5.91-2.44-1.8 6.13a.75.75 0 0 0 .15.7l4.14 4.86-6.39.18a.75.75 0 0 0-.62.36l-3.35 5.44-2.14-6a.75.75 0 0 0-.53-.48l-6.21-1.5zm15.07 24.4a.61.61 0 0 0-.51-.42l-4.79-.64-2.08-4.35a.64.64 0 0 0-1.12 0l-2.08 4.35-4.79.64a.62.62 0 0 0-.35 1.06l3.5 3.33-.85 4.74a.62.62 0 0 0 .9.66l4.23-2.3 4.25 2.3a.63.63 0 0 0 .29.08.62.62 0 0 0 .61-.73l-.87-4.75 3.5-3.33a.61.61 0 0 0 .16-.64zm-4.54 3.43a.5.5 0 0 0-.15.45l.78 4.19-3.79-2a.5.5 0 0 0-.48 0l-3.79 2 .78-4.23a.5.5 0 0 0-.15-.45l-3.12-3 4.27-.57a.5.5 0 0 0 .38-.28l1.86-3.88L71 49.54a.5.5 0 0 0 .38.28l4.27.57zM87 59.7a1 1 0 0 0-1.12.15A26.59 26.59 0 0 1 48.29 22.3a1 1 0 0 0-.84-1.66 36.82 36.82 0 1 0 40 40 1 1 0 0 0-.45-.94zM75.46 81.93a34.82 34.82 0 1 1-30.26-59 28.6 28.6 0 0 0 40 40 34.87 34.87 0 0 1-9.74 19z"/></svg>