<svg data-name="Layer 2" xmlns="http://www.w3.org/2000/svg" viewBox="0 0 108 108"><title>Icon_RH_nature_thunderstorm_RGB_Black</title><path d="M81.81 30a20.87 20.87 0 0 0-40 0 13.28 13.28 0 0 0-18.07 9.62 12.84 12.84 0 0 0-12.14 10 .75.75 0 0 0 .73.91h11.18l-10 10a.5.5 0 1 0 .71.71l10.7-10.69h11.63L16.68 70.43a.75.75 0 1 0 1.06 1.06l20.93-20.94H50L21.63 78.88a.75.75 0 1 0 1.06 1.06l29.38-29.39h7.25l-2.25 6.64L28.75 85.5a.5.5 0 1 0 .71.71l26.88-26.88-1.61 4.76a1 1 0 0 0 .95 1.32h6.22L36.78 90.53a.75.75 0 1 0 1.06 1.06L64 65.4h2v9.68l-18.7 18.7a.5.5 0 1 0 .71.71l18-18v15.84a1 1 0 0 0 .84 1H67a1 1 0 0 0 .95-.68l9.31-27.41 14.66-14.69h2.56a.75.75 0 0 0 .74-.62A17.22 17.22 0 0 0 81.81 30zM68 86.28V64.4a1 1 0 0 0-1-1h-9.9l4.37-12.86h4.92v7.38a1 1 0 0 0 1 1h9.9zm.38-29.35v-6.38h8.4l-6.38 6.38zM78 63.1l1.65-4.85a1 1 0 0 0-.95-1.32h-6.21l6.38-6.38h11.64zM93.84 49H13.31a11.34 11.34 0 0 1 10.75-7.9h.29a.74.74 0 0 0 .76-.63A11.79 11.79 0 0 1 42 31.75a11.9 11.9 0 0 1 4.29 3.6.75.75 0 1 0 1.21-.89 13.41 13.41 0 0 0-4.3-3.76 19.34 19.34 0 0 1 36.94-1 17.52 17.52 0 0 0-4.63.08.75.75 0 1 0 .23 1.48 16 16 0 0 1 5.26.06h.08A15.81 15.81 0 0 1 94 46.92a15.2 15.2 0 0 1-.16 2.08z"/></svg>