<svg id="Layer_1" data-name="Layer 1" xmlns="http://www.w3.org/2000/svg" viewBox="0 0 67.22 56.29"><defs><style>.cls-1{fill:#fff;}</style></defs><title>Icon_RH_Nature_Seagull_RGB_White</title><path class="cls-1" d="M14.42 5.43a.93.93 0 1 0 .93.93.93.93 0 0 0-.93-.93zM67.2 37.07c-.16-.94-1.2-1.37-1.81-1.55-1.23-.36-2.48-.66-3.69-.95l-1.93-.47c2.94-1.22 3.45-2.8 3.51-3a1 1 0 0 0-.88-1.25c-8.45-.75-11.46-3-11.48-3-.59-.48-1.19-.93-1.79-1.38a35.25 35.25 0 0 1-3.23-2.65c-.61-.58-1.2-1.19-1.78-1.79-.92-.94-1.87-1.92-2.89-2.81-3.53-3.1-7.9-4.48-11.31-5.33l-.49-.11c-1.16-.27-2-.47-2.5-.6a16.32 16.32 0 0 0-1.58-6.85A9.38 9.38 0 0 0 15.54.15a11.54 11.54 0 0 0-5.86 2.79 9.92 9.92 0 0 0-2 2.41l-.08.12c-.4.63-.67 1.06-.85 1.39-3.12.81-5.2 2-6.17 3.63a3.41 3.41 0 0 0-.5 2.5 1.42 1.42 0 0 0 1.53 1.02 4.52 4.52 0 0 0 1-.14 17.17 17.17 0 0 0 2.3-.72 15.9 15.9 0 0 1 2-.67c.33-.08.78-.19 1.24-.35a2.19 2.19 0 0 1 1.4.63 1.13 1.13 0 0 1 .28.88 5.51 5.51 0 0 1-.69 1.89 10.12 10.12 0 0 0-.69 1.62 16.91 16.91 0 0 0-.53 7.1c.61 4.34 3.25 7.62 5.48 10a21.1 21.1 0 0 0 13.8 6.43l-.37 12.23-6.1.13a1 1 0 0 0-1 1 1 1 0 0 0 1 1h1.92a1 1 0 0 0 1 1.27 1 1 0 0 0 .32-.05l2-.68a1 1 0 0 0 .95.68 1 1 0 0 0 .32-.05l4.16-1.38a1 1 0 0 0 .67-1.12.94.94 0 0 0 0-.14l.39-13a27.84 27.84 0 0 0 5.15-1.12c.79-.26 1.59-.55 2.36-.87.18-.07.39-.18.61-.3a3.65 3.65 0 0 1 .78-.35l6.87.33 9.42.42 2 .1c1.76.09 3.56.18 5.38.17a2.45 2.45 0 0 0 1.48-.39 1.48 1.48 0 0 0 .69-1.49zM6.39 10.54a17.46 17.46 0 0 0-2.2.73 15.45 15.45 0 0 1-2 .67h-.12a2.15 2.15 0 0 1 .22-.49c.4-.67 1.6-1.9 5.14-2.78a5.14 5.14 0 0 1 1.27.65c.1.64-1.54 1.03-2.31 1.22zm23.75 42.4h-1.31l.37-12.16h.05c.41 0 .83 0 1.25-.05zm29.62-16.17l-2-.1-9.45-.42-6.87-.33a3.78 3.78 0 0 0-1.82.59c-.15.08-.3.16-.42.21-.72.3-1.46.57-2.2.81-8.4 2.72-16.88.95-22.13-4.64-3-3.21-4.54-6-5-8.91a14.87 14.87 0 0 1 .47-6.25 8.45 8.45 0 0 1 .58-1.33 7.17 7.17 0 0 0 .89-2.61 3.11 3.11 0 0 0-.77-2.37 3.62 3.62 0 0 0-.8-.65 2.23 2.23 0 0 0 .39-1.78 3 3 0 0 0-1.76-1.84l.4-.64.1-.15a7.9 7.9 0 0 1 1.62-1.94 9.56 9.56 0 0 1 4.84-2.32 7.32 7.32 0 0 1 7.78 4.05 15 15 0 0 1 1.38 6.69c0 .87.09.89 4 1.8l.45.1c3.39.85 7.28 2.1 10.48 4.9 1 .84 1.88 1.79 2.77 2.7.6.62 1.21 1.24 1.83 1.84a37 37 0 0 0 3.41 2.8c.58.44 1.17.88 1.74 1.35.13.1 2.93 2.29 10.6 3.26a12 12 0 0 1-4.53 1.56c-13.39 1.28-18.93-1-19.07-1.09-12-4-10.87-12.87-10.81-13.25a1.01 1.01 0 0 0-2-.3 12.49 12.49 0 0 0 .93 6.09c1.22 3 4.15 7 11.14 9.32.19.08 3.77 1.61 12.1 1.61 2.23 0 4.8-.11 7.74-.39l3.44.87 2 .49 1.62.39c-1.01-.01-2.05-.07-3.07-.12z"/></svg>