<?xml version="1.0" encoding="utf-8"?>
<!-- Generator: Adobe Illustrator 17.1.0, SVG Export Plug-In . SVG Version: 6.00 Build 0)  -->
<!DOCTYPE svg PUBLIC "-//W3C//DTD SVG 1.1//EN" "http://www.w3.org/Graphics/SVG/1.1/DTD/svg11.dtd">
<svg version="1.1" id="Layer_1" xmlns="http://www.w3.org/2000/svg" xmlns:xlink="http://www.w3.org/1999/xlink" x="0px" y="0px"
	 viewBox="0 0 126.833 122.5" enable-background="new 0 0 126.833 122.5" xml:space="preserve">
<g>
	<path fill="#FFFFFF" d="M81.368,70.154c-0.414,0-0.75,0.336-0.75,0.75c0,9.78-7.957,17.736-17.737,17.736
		c-0.414,0-0.75,0.336-0.75,0.75c0,0.414,0.336,0.75,0.75,0.75c10.607,0,19.237-8.629,19.237-19.236
		C82.118,70.49,81.782,70.154,81.368,70.154z"/>
	<path fill="#FFFFFF" d="M87.777,61.191c3.874-2.69,6.161-7.029,6.161-11.774c0-1.058-0.045-2.331-0.579-4.034
		c-0.291-0.998-0.688-1.956-1.199-2.884l-0.04-0.08c-0.691-1.344-2.096-3.288-3.722-5.539c-2.639-3.653-5.914-8.187-7.267-11.804
		l-0.059-0.17c-0.263-0.586-0.846-0.965-1.485-0.965c-0.64,0-1.223,0.379-1.485,0.965l-0.054,0.147
		c-1.223,3.359-4.257,7.649-6.84,11.229c-3.338-5.123-5.554-9.258-6.761-12.616l-0.045-0.121c-0.363-0.815-1.171-1.341-2.056-1.341
		c-0.887,0-1.695,0.526-2.059,1.341l-0.048,0.127c-2.602,7.238-9.311,16.528-14.703,23.993C42.308,52.139,39.519,56,38.144,58.68
		c-1.008,1.806-1.813,3.733-2.389,5.71c-1.027,3.295-1.113,5.738-1.113,7.77c0,15.274,12.427,27.7,27.702,27.7
		c15.276,0,27.704-12.426,27.704-27.7c0-2.039-0.087-4.491-1.117-7.784C88.618,63.309,88.231,62.241,87.777,61.191z M79.588,26.598
		c1.546,3.642,4.653,7.943,7.188,11.454c1.562,2.161,2.911,4.03,3.544,5.241l0.062,0.123c0.441,0.789,0.797,1.64,1.062,2.547
		c0.455,1.452,0.493,2.502,0.493,3.454c0,4.193-2.092,8.003-5.593,10.304L72.066,38.51l0.324-0.449
		C74.945,34.525,78.08,30.187,79.588,26.598z M62.344,97.859c-14.172,0-25.702-11.529-25.702-25.7c0-1.884,0.079-4.147,1.027-7.192
		c0.539-1.851,1.286-3.638,2.22-5.312l0.058-0.116c1.28-2.488,4.029-6.294,7.211-10.7c5.465-7.567,12.267-16.984,14.955-24.476
		c0.032-0.072,0.112-0.157,0.232-0.157c0.102,0,0.175,0.062,0.214,0.126l0.006,0.019c1.349,3.749,3.762,8.189,7.567,13.935
		l-0.019,0.013l15.482,22.997l0.025-0.017c0.562,1.2,1.029,2.431,1.395,3.677c0.951,3.041,1.031,5.313,1.031,7.204
		C88.048,86.33,76.517,97.859,62.344,97.859z"/>
</g>
</svg>
