<svg data-name="Layer 1" xmlns="http://www.w3.org/2000/svg" viewBox="0 0 68.76 55.37"><title>Icon_RH_Nature_Crab_RGB_Black</title><path d="M65.38 26.09c-3.19-2.36-7.61-1.57-9.22-1.17q-.2-.4-.43-.78c1-.46 3.79-2 4.72-4.58a5.8 5.8 0 0 0-.52-4.79 6.33 6.33 0 0 0 .72-3.94 12.55 12.55 0 0 0-2.7-6.25c-2.37-3-5.67-4.8-8.41-4.56a1 1 0 0 0-.84 1.35l1.15 3-2.94-1.5a1 1 0 0 0-1.38.51l-.16.4a1.08 1.08 0 0 0-.06.19c-.48 2.52.52 5.76 2.63 8.45 2.3 2.93 5.31 4.59 7.88 4.59a4.89 4.89 0 0 0 2.62-.73 3.59 3.59 0 0 1 .13 2.59c-.8 2.29-3.89 3.54-3.92 3.55h-.06a21.67 21.67 0 0 0-9.34-6.57 3 3 0 1 0-4.56-1.32 31.66 31.66 0 0 0-13 .09 3 3 0 1 0-4.38 1.33 21.38 21.38 0 0 0-9.28 6.73 1 1 0 0 0-.39-.29s-3.12-1.28-3.92-3.54a3.58 3.58 0 0 1 .13-2.6 4.89 4.89 0 0 0 2.62.73c2.57 0 5.58-1.66 7.88-4.59 2.11-2.69 3.11-5.92 2.63-8.45a1.08 1.08 0 0 0-.06-.19l-.16-.4a1 1 0 0 0-1.38-.48l-2.94 1.5 1.15-3a1 1 0 0 0-.84-1.35c-2.74-.24-6 1.54-8.41 4.56a12.53 12.53 0 0 0-2.7 6.25 6.33 6.33 0 0 0 .74 3.93 5.8 5.8 0 0 0-.52 4.79c1.11 3.16 4.92 4.68 5.08 4.74h.07c-.12.21-.23.42-.34.63-1.56-.4-6-1.24-9.28 1.16-2.29 1.7-3.42 4.6-3.36 8.63a1 1 0 0 0 1 1 1 1 0 0 0 1-1c-.05-3.34.8-5.69 2.54-7 2.36-1.75 5.82-1.23 7.31-.9a12.4 12.4 0 0 0-.65 3.94v.72c-2.24.37-8.29 2.24-8.41 11.48a1 1 0 0 0 1 1 1 1 0 0 0 1-1c.1-7.84 5-9.28 6.69-9.54a13.8 13.8 0 0 0 2.36 5.11c-2.58.9-7.25 3.58-6.92 11.19a1 1 0 0 0 1 1 1 1 0 0 0 1-1c-.31-7.3 4.66-9.06 6.3-9.45a20.08 20.08 0 0 0 3.52 2.94c-1.66 1.37-4 4.67-1.67 11.55a1 1 0 0 0 .95.68 1 1 0 0 0 .32-.05 1 1 0 0 0 .62-1.27c-2.44-7.17.82-9.37 1.64-9.8a29.33 29.33 0 0 0 13.75 3.22 29.34 29.34 0 0 0 13.74-3.27c.85.46 4 2.72 1.61 9.78a1 1 0 0 0 .65 1.27 1 1 0 0 0 .32.05 1 1 0 0 0 .95-.68c2.33-6.85 0-10.14-1.64-11.53a20.11 20.11 0 0 0 3.55-2.95c1.69.41 6.56 2.21 6.25 9.44a1 1 0 0 0 1 1 1 1 0 0 0 1-1c.32-7.57-4.28-10.26-6.87-11.17a13.81 13.81 0 0 0 2.38-5.13c1.76.27 6.52 1.73 6.62 9.53a1 1 0 0 0 1 1 1 1 0 0 0 1-1c-.12-9.16-6.06-11.07-8.35-11.47v-.73a12.4 12.4 0 0 0-.65-4c1.52-.34 4.93-.81 7.25.91 1.74 1.29 2.6 3.64 2.54 7a1 1 0 0 0 1 1 1 1 0 0 0 1-1c.09-3.9-1.04-6.79-3.35-8.49zm-7.77-11.64c-1.86 1.46-5.57 0-8.1-3.26a10 10 0 0 1-2.33-5.93l4.08 2.08a1 1 0 0 0 1.39-1.25l-1.52-4a10 10 0 0 1 5.25 3.72 10.53 10.53 0 0 1 2.29 5.22 3.68 3.68 0 0 1-1.06 3.42zm-48-3.42a10.53 10.53 0 0 1 2.29-5.22 10 10 0 0 1 5.25-3.69l-1.52 4a1 1 0 0 0 1.39 1.25l4.08-2.08a10 10 0 0 1-2.33 5.93c-2.53 3.23-6.23 4.72-8.09 3.26a3.68 3.68 0 0 1-1.06-3.44zm33.87.9a1.52 1.52 0 1 1-1.52 1.52 1.52 1.52 0 0 1 1.53-1.51zm-18.56 0a1.52 1.52 0 1 1-1.54 1.53 1.52 1.52 0 0 1 1.55-1.52zm27.74 26.3a1 1 0 0 0-.47.54c-3.81 4.07-10.33 6.76-17.81 6.76s-14.08-2.75-17.85-6.85a1 1 0 0 0-.33-.38 11.58 11.58 0 0 1-3-7.55c0-8.16 9.51-14.79 21.2-14.79s21.2 6.64 21.2 14.79a11.56 11.56 0 0 1-2.94 7.48z"/></svg>