<svg id="Layer_2" data-name="Layer 2" xmlns="http://www.w3.org/2000/svg" viewBox="0 0 108 108"><defs><style>.cls-1{fill:#fff;}</style></defs><title>Icon_RH_nature_tropicalstorm_RGB_White</title><path class="cls-1" d="M52.36 27.15l5.24-13.89a.75.75 0 0 0-.7-1 33.94 33.94 0 0 0-1.08 67.86L50.58 94a.75.75 0 0 0 .7 1 33.94 33.94 0 0 0 1.08-67.86zm0 66.34l5.24-13.85a.75.75 0 0 0-.7-1 32.44 32.44 0 0 1-1.1-64.87l-5.22 13.85a.75.75 0 0 0 .7 1 32.44 32.44 0 0 1 1.09 64.85zm1.72-53.33a13.47 13.47 0 1 0 13.48 13.47 13.49 13.49 0 0 0-13.47-13.47zm0 24.94a11.47 11.47 0 1 1 11.48-11.47A11.49 11.49 0 0 1 54.09 65.1z"/></svg>