<svg id="Layer_1" data-name="Layer 1" xmlns="http://www.w3.org/2000/svg" viewBox="0 0 108 108"><defs><style>.cls-1{fill:#fff;}</style></defs><title>Icon_RH_Nature_Frog_RGB_White</title><path class="cls-1" d="M79.22,69.51l-0.82.24c-2,.54-4,1.16-6.15,1.87a12.51,12.51,0,0,1,1.91-3,22,22,0,0,0,1.53-2.16,24.92,24.92,0,0,0,3-7.78,28.35,28.35,0,0,0,.1-10.49A14.48,14.48,0,0,1,81,47l0.51-.25A19.18,19.18,0,0,0,86,43.51c2.84-2.85,3.21-6.33,1-9.56-2-3-7.65-4.15-11.64-2.71a7,7,0,0,0-13.87.93,13.69,13.69,0,0,0-5.24,5.19c-0.72,0-2.07-.15-2.81-0.21L52.06,37h0A36.54,36.54,0,0,0,40.47,39,31.23,31.23,0,0,0,30,45a39.88,39.88,0,0,0-4.11,4.4L25.33,50c-0.63.74-1.31,1.45-2,2.13a21.58,21.58,0,0,0-4,5.07,17,17,0,0,0-1.31,13,6.59,6.59,0,0,0,5.64,4.57c-1.57,1.71-3.41,4.34-3.14,7a1,1,0,0,0,1,.9h0.14c0.13,0,13.4-1.9,34.59-.86a7.3,7.3,0,0,0,5.19-.95c1.6-1,1.8-3.35,1-5-1.11-2.19-3.27-2.79-5.57-2.44-2.14.32-4.2,1-6.31,1.46a13.42,13.42,0,0,1-3.94.25,10.46,10.46,0,0,0,3.88-5.68c0.63-3.14-1.35-6-3.6-7.53C43.26,59.53,38.52,59,35.19,59h0a1,1,0,0,0,0,2c3.06,0,7.38.45,10.61,2.59,1.63,1.08,3.19,3.25,2.74,5.47C48,71.8,45,74,43.66,74.83a1,1,0,0,0-.06,1.92,22.4,22.4,0,0,0,6.9.19A18.83,18.83,0,0,0,54,76.07a26.42,26.42,0,0,1,3.29-.75,3.17,3.17,0,0,1,2.82.87,2.12,2.12,0,0,1,.71,1.58,1.8,1.8,0,0,1-.67,1.37,4.28,4.28,0,0,1-2.58.76,216.66,216.66,0,0,0-34.93.67c0.47-2.49,3.22-5.18,4.39-6.11a1,1,0,0,0-.86-1.75c-2.38.58-5.22-.15-6.17-3.06a15,15,0,0,1,1.19-11.47,19.74,19.74,0,0,1,3.66-4.6c0.68-.7,1.39-1.43,2.06-2.22l0.53-.62a37.87,37.87,0,0,1,3.9-4.18,29.24,29.24,0,0,1,9.83-5.66A34.53,34.53,0,0,1,52.06,39l1.24,0.1c4.1,0.35,4.1.34,4.45-.32A11.78,11.78,0,0,1,63,33.66a1,1,0,0,0,.54-1,5,5,0,1,1,10,.08s0,0,0,.06a1.46,1.46,0,0,0,.11.38s0,0,0,.06a0.94,0.94,0,0,0,.08.09,1,1,0,0,0,.14.15L74,33.58l0.17,0.08,0.21,0,0.11,0h0.06l0.2,0L75,33.61l0.06,0c3.3-2,8.79-.78,10.33,1.48,2.09,3.07.73,5.52-.77,7A17.3,17.3,0,0,1,80.54,45l-0.4.2c-2.43,1.15-3.5,1.84-3.38,3a26.62,26.62,0,0,1,0,10.11A22.94,22.94,0,0,1,74,65.42a20.15,20.15,0,0,1-1.39,2A13.92,13.92,0,0,0,70.35,71c-0.51,1.36-.68,2.21-0.14,2.76a1.11,1.11,0,0,0,1.17.26c2.65-.92,5.12-1.69,7.55-2.35l0.88-.26c1.95-.59,3.39-0.94,4.27,0a0.6,0.6,0,0,1,.18.35,2.29,2.29,0,0,1-1.26.66l-0.3.1-0.24.07a2.55,2.55,0,0,0-1.54.91,2.63,2.63,0,0,0-.24,2l0,0.16a4.48,4.48,0,0,1,.07.82l-0.22,0c-0.54-.1-1.1-0.25-1.69-0.42-2.07-.56-4.42-1.2-6.27.34-0.12.1-.28,0.26-0.48,0.46-0.56.57-1.5,1.54-2.37,1.54h0a1.58,1.58,0,0,1-1.1-.55,30.29,30.29,0,0,1-6-11.45,7.45,7.45,0,0,1,2.8-8,1,1,0,0,0-1.11-1.66,9.49,9.49,0,0,0-3.63,10.1,32.16,32.16,0,0,0,6.52,12.38,3.5,3.5,0,0,0,2.51,1.14h0c1.7,0,3.06-1.4,3.78-2.14,0.13-.14.24-0.25,0.33-0.32,1-.88,2.71-0.42,4.47.05,0.6,0.16,1.23.33,1.84,0.45a2.18,2.18,0,0,0,2-.44,2.93,2.93,0,0,0,.48-2.63l0-.19a3.65,3.65,0,0,1-.06-0.51,4.23,4.23,0,0,1,.4-0.13l0.34-.1,0.26-.09c0.94-.3,2.68-0.86,2.65-2.6a2.56,2.56,0,0,0-.71-1.68C83.74,68.14,81.13,68.93,79.22,69.51Z"/><path class="cls-1" d="M69.88,31.74a1,1,0,0,0,.79-1.84,4,4,0,0,0-5.15,1.71,4.5,4.5,0,0,0,1.07,5.44,1,1,0,0,0,1.21-1.59,2.58,2.58,0,0,1-.53-2.87A2,2,0,0,1,69.88,31.74Z"/></svg>