<svg id="Layer_2" data-name="Layer 2" xmlns="http://www.w3.org/2000/svg" viewBox="0 0 108 108"><defs><style>.cls-1{fill:#fff;}</style></defs><title>Icon_RH_nature_freezingrain_RGB_White</title><path class="cls-1" d="M81.81 30a20.87 20.87 0 0 0-40 0 13.28 13.28 0 0 0-18.07 9.62 12.84 12.84 0 0 0-12.14 10 .75.75 0 0 0 .73.91h11.18l-10 10a.5.5 0 1 0 .71.71l10.7-10.69h11.63L16.68 70.43a.75.75 0 1 0 1.06 1.06l20.93-20.94h9.44a1 1 0 0 0 .13.22 2.51 2.51 0 0 1 .41 1.09l-26.87 27a.75.75 0 1 0 1.06 1.06L49 53.67a8.79 8.79 0 0 0 2.6 5.4 1 1 0 0 0 1.35 0 9.29 9.29 0 0 0 2.45-4.81 17.24 17.24 0 0 1 .58-1.87 20 20 0 0 1 1.59 4.36L28.75 85.5a.5.5 0 1 0 .71.71l28.32-28.33c.67 3 1.11 6.47 1.54 10.1L37 90.27a.75.75 0 1 0 1.06 1.06l21.48-21.45c.4 3.44.82 6.92 1.42 10.21L47.28 93.78a.5.5 0 1 0 .71.71l13.2-13.21a39.6 39.6 0 0 0 2.14 7.39 1 1 0 0 0 .89.61 1 1 0 0 0 .89-.55C67 85 67.87 79.64 68.46 74l6.18-6.18A2.86 2.86 0 0 0 75.78 69a1 1 0 0 0 1.22-.22 9.25 9.25 0 0 0 1.49-4.83l3.58-3.58c.13 1.11.24 2.24.36 3.39.45 4.58.91 9.32 2.75 13.55a1 1 0 0 0 .93.6 1 1 0 0 0 .91-.63 63.56 63.56 0 0 0 3.06-12.06c1-5.35 1.92-10.41 4.69-14.36a1 1 0 0 0 .16-.48.75.75 0 0 0 .26-.45A17.22 17.22 0 0 0 81.81 30zm-28.4 23.74a9.85 9.85 0 0 1-1.21 3.1 9 9 0 0 1-1.38-4.17 11.4 11.4 0 0 0-.47-2.12h4.27a12.55 12.55 0 0 0-1.21 3.19zM67 68.66c-.55 6.08-1.12 12.34-2.66 16.86-1.5-4.74-2.17-10.6-2.83-16.29-.87-7.48-1.69-14.57-4.32-18.68h13C68.21 55 67.61 61.66 67 68.66zm1.66 3.76c.12-1.19.23-2.39.34-3.58.29-3.2.59-6.44 1-9.41l2.9-2.9c.2 1.39.33 2.86.45 4.27a29.67 29.67 0 0 0 .89 6zm1.8-15.56a29.28 29.28 0 0 1 1.28-4.79 11.24 11.24 0 0 1 .86 2.64zm6.31 3.4a27 27 0 0 1-.63 5.93 33.1 33.1 0 0 1-.77-5.56C75 57 74.68 53 73.12 50.55h5.37c-1.49 2.58-1.62 6.2-1.75 9.72zm1.9 2.15c0-.68.07-1.37.1-2.07.08-2.9.23-6.14 1.23-8.34a22.21 22.21 0 0 1 2 7.11zm9.51 2.43a80.16 80.16 0 0 1-2 9.06 56.37 56.37 0 0 1-1.66-10.35c-.48-4.86-.95-9.47-3-13h11.11c-2.63 4.14-3.52 9.08-4.48 14.3zM93.84 49H13.31a11.34 11.34 0 0 1 10.75-7.9h.29a.71.71 0 0 0 .76-.63A11.79 11.79 0 0 1 42 31.75a11.9 11.9 0 0 1 4.3 3.6.75.75 0 1 0 1.21-.89 13.42 13.42 0 0 0-4.31-3.76 19.35 19.35 0 0 1 36.94-1 17.52 17.52 0 0 0-4.63.08.75.75 0 1 0 .23 1.48 16 16 0 0 1 5.26.06h.08A15.81 15.81 0 0 1 94 46.92a15.2 15.2 0 0 1-.16 2.08zm-9.64 3.88s1.05 1.85 1.05 6.12a.5.5 0 0 0 1 0c0-4.59-1.15-6.55-1.2-6.63a.5.5 0 0 0-.86.51zm-23.58-.55a.5.5 0 0 0-.16.69s2.2 3.68 2.8 13a.5.5 0 0 0 .5.47.5.5 0 0 0 .47-.53c-.63-9.64-2.85-13.33-2.95-13.48a.5.5 0 0 0-.67-.15z"/></svg>