<?xml version="1.0" encoding="utf-8"?>
<!-- Generator: Adobe Illustrator 17.1.0, SVG Export Plug-In . SVG Version: 6.00 Build 0)  -->
<!DOCTYPE svg PUBLIC "-//W3C//DTD SVG 1.1//EN" "http://www.w3.org/Graphics/SVG/1.1/DTD/svg11.dtd">
<svg version="1.1" id="Layer_1" xmlns="http://www.w3.org/2000/svg" xmlns:xlink="http://www.w3.org/1999/xlink" x="0px" y="0px"
	 viewBox="0 0 144 144" enable-background="new 0 0 144 144" xml:space="preserve">
<g>
	<g>
		<path fill="#FFFFFF" d="M91.604,30.983c-0.177-0.292-0.489-0.474-0.83-0.482c-0.321-0.018-0.663,0.157-0.854,0.439
			c-0.03,0.045-3.123,4.572-9.6,10.256c-8.173,7.172-11.717,16.462-12.862,25.553c-6.918-11.529-19.333-16.85-19.898-17.087
			c-0.314-0.131-0.673-0.094-0.954,0.1c-0.28,0.193-0.444,0.517-0.433,0.857c0.002,0.041,0.121,4.143-1.281,10.386
			c-4.885,21.755,17.934,37.853,20.803,39.776c0.321,0.982,1.299,4.565,0.361,9.287c-0.931,1.057-1.6,1.67-1.619,1.687
			c-0.411,0.369-0.446,1.002-0.077,1.412c0.197,0.221,0.471,0.333,0.745,0.333c0.237,0,0.476-0.084,0.666-0.255
			c0.241-0.216,5.82-5.285,7.766-12.439c13.149-7.101,21.465-16.661,24.705-28.425C103.936,51.714,92.11,31.82,91.604,30.983z
			 M46.844,61.443c0.949-4.225,1.229-7.477,1.307-9.289c3.706,1.869,14.005,7.812,18.981,18.198
			c-0.462,7.626,0.58,14.891,1.8,20.376c-0.634,2.573-1.575,5.231-2.809,7.922C61.603,95.47,42.514,80.728,46.844,61.443z
			 M67.605,100.183c0.899-1.89,1.654-3.767,2.276-5.619c0.786,2.895,1.489,4.888,1.758,5.614c-0.692,2.601-1.935,4.931-3.203,6.811
			C68.575,103.603,67.912,101.124,67.605,100.183z M96.316,71.849c-3.038,11.029-10.802,20.059-23.084,26.853
			c-2.164-6.219-11.943-38.143,8.407-56.003c4.661-4.089,7.597-7.564,8.987-9.353C93.137,38.114,100.967,54.961,96.316,71.849z"/>
		<path fill="#FFFFFF" d="M89.593,38.596c-0.255,5.606-1.387,12.077-2.91,18.573c-4.081-6.047-3.186-11.22-3.176-11.274
			c0.051-0.271-0.128-0.532-0.399-0.583c-0.27-0.05-0.531,0.126-0.583,0.397c-0.049,0.249-1.058,6.046,3.854,12.75
			c-1.76,7.261-3.974,14.474-5.982,20.484c-4.92-4.983-6.743-12.569-6.762-12.649c-0.062-0.269-0.33-0.435-0.601-0.374
			c-0.268,0.062-0.436,0.331-0.374,0.6c0.081,0.346,1.995,8.305,7.383,13.476c-2.731,8.085-4.995,13.734-5.051,13.872
			c-0.155,0.384,0.03,0.821,0.415,0.976c0.092,0.037,0.186,0.055,0.28,0.055c0.297,0,0.578-0.178,0.695-0.469
			c0.07-0.175,3.692-9.22,7.33-20.884c8.838-4.111,11.486-8.755,11.597-8.955c0.133-0.242,0.045-0.545-0.196-0.678
			c-0.246-0.136-0.547-0.045-0.68,0.195c-0.025,0.045-2.46,4.278-10.317,8.14c3.305-10.777,6.516-23.536,6.974-33.584
			c0.019-0.414-0.301-0.765-0.715-0.783C89.956,37.868,89.611,38.183,89.593,38.596z"/>
		<path fill="#FFFFFF" d="M66.614,94.013c-0.811-4.927-2.262-9.912-3.989-14.655c0.229-1.566,1.172-5.711,3.125-7.618
			c0.196-0.193,0.201-0.51,0.008-0.707c-0.191-0.198-0.508-0.201-0.707-0.01c-1.602,1.564-2.594,4.441-3.09,6.542
			c-3.243-8.452-7.265-15.968-10.009-20.69c-0.208-0.357-0.663-0.479-1.025-0.271c-0.358,0.208-0.479,0.667-0.271,1.025
			c1.638,2.817,3.736,6.641,5.847,11.06c-1.55-1.022-3.813-2.116-6.426-2.116c-0.276,0-0.5,0.224-0.5,0.5c0,0.276,0.224,0.5,0.5,0.5
			c3.363,0,6.188,2.076,7.328,3.049c1.378,3,2.728,6.229,3.935,9.579c-1.129-0.811-2.76-1.621-4.98-1.891
			c-0.264-0.028-0.523,0.162-0.557,0.436c-0.033,0.274,0.161,0.523,0.436,0.557c3.102,0.376,4.953,1.939,5.769,2.816
			c1.344,3.976,2.46,8.079,3.128,12.139c0.061,0.367,0.379,0.628,0.739,0.628c0.04,0,0.082-0.003,0.124-0.01
			C66.404,94.808,66.681,94.422,66.614,94.013z"/>
	</g>
</g>
</svg>
