<svg id="Layer_1" data-name="Layer 1" xmlns="http://www.w3.org/2000/svg" viewBox="0 0 70.63 63.07"><defs><style>.cls-1{fill:#fff;}</style></defs><title>Icon_RH_Nature_Bird_RGB_White</title><path class="cls-1" d="M70.53 15.75a.75.75 0 0 0-.69-.39l-4.72.21a10.25 10.25 0 0 0-7.81-3.61 11.69 11.69 0 0 0-6.33 1.7c-1.56-4-2.95-8.5-2.46-12.2a.5.5 0 0 0-.64-.55c-1.6.47-5.19 1.81-6.51 4.69a2.07 2.07 0 0 0-1.92-.38c-1.76.42-3.4 2.42-3.46 5.1a2.16 2.16 0 0 0-1.33-.22 3.29 3.29 0 0 0-2.27 1.93C27.86 8.36 23.57 4.56 22.03.51a.75.75 0 0 0-1.28-.29c-1.17 1.16-3.62 4-3.58 7.1a2.36 2.36 0 0 0-1.81.66 5.37 5.37 0 0 0-.83 6.11 2.41 2.41 0 0 0-1.41.79c-.91 1-1.33 3.2.16 6.19a1.77 1.77 0 0 0-.49.31c-1.36 1.19-1 4.48-.63 6.34 1 5.49 3.32 9.72 6.68 12.54a88.39 88.39 0 0 1-18 4.88 1 1 0 0 0-.76 1.34c.1.26 2.38 6 7.46 7a5.8 5.8 0 0 0 1.63 4.74 6.51 6.51 0 0 0 5.45 1.64 3.16 3.16 0 0 0 1.63 2.91 3.3 3.3 0 0 0 1.48.32c4.14 0 10.69-5.75 12.42-7.34a22.7 22.7 0 0 0 12 3.2A21.66 21.66 0 0 0 58 52.05c6.53-6.83 9.89-17.83 9.45-31.17l3-4.34a.75.75 0 0 0 .08-.79zM34.8 11.06a1.42 1.42 0 0 1 1.35.68.5.5 0 0 0 .9-.37c-.44-2.88 1.24-4.88 2.63-5.21a1 1 0 0 1 1.36.74.5.5 0 0 0 1 0c.63-2.69 3.63-4.12 5.45-4.75-.26 3.81 1.14 8.19 2.67 12.13-2.22 1.6-4.1 3.95-6.3 6.7l-.47.58a82.53 82.53 0 0 0-8.92-7.86l-1.26-1a2.45 2.45 0 0 1 1.59-1.64zm21.72 39.58a19.7 19.7 0 0 1-14.41 6.29 20.34 20.34 0 0 1-13.07-4.39 1.012 1.012 0 1 0-1.29 1.56c.21.17.44.32.66.49-5.29 4.81-9.93 7.06-11.31 6.38-.61-.3-.57-1.52-.5-2.22a1 1 0 0 0-1.24-1.08c-2 .5-3.74.19-4.83-.89a4.06 4.06 0 0 1-.92-3.93 1 1 0 0 0-.86-1.24c-3.27-.15-5.34-3.09-6.25-4.75a86.69 86.69 0 0 0 17.93-5.08 1 1 0 0 0 .31-.21 19.72 19.72 0 0 0 10.65 2.8.75.75 0 0 0 0-1.5c-12.23 0-16.37-8.4-17.69-15.46-.45-2.39-.39-4.47.15-4.93 0 0 .15-.13.53 0a.75.75 0 0 0 .87-1.11c-1.66-2.65-1.65-4.72-.94-5.51a1.12 1.12 0 0 1 1.4-.15.75.75 0 0 0 .92-1.13c-1.67-2.2-1.19-4.61-.2-5.5a.79.79 0 0 1 1.21 0 .75.75 0 0 0 1.24-.74c-.64-2.39 1.06-4.88 2.23-6.25 2.25 4.6 7.41 8.73 12.41 12.73a74.24 74.24 0 0 1 9.31 8.32 1 1 0 0 0 .26.33c2.15 2.54 3.56 5.18 3.56 8 0 4.8-2.5 6-2.62 6a.75.75 0 0 0 .59 1.38c.14-.06 3.53-1.56 3.53-7.42 0-3-1.37-5.79-3.48-8.42l.7-.87c4-5 6.57-8.22 11.92-8.22a8.25 8.25 0 0 1 6.19 2.79l-.81 2.51a.75.75 0 0 0 .4.93l2.38 1.06c.39 12.6-2.78 23.06-8.93 29.43zm9.82-30.79h-.09l-1.94-.86.6-1.72a1 1 0 0 0 .24-.13.93.93 0 0 0 .08-.1l3.16-.14zm-8.36-3.11a2 2 0 1 0 2 2 2 2 0 0 0-2.01-1.99zm0 2.92a1 1 0 1 1 1-1 1 1 0 0 1-1.01 1.01z"/></svg>