<svg id="Layer_2" data-name="Layer 2" xmlns="http://www.w3.org/2000/svg" viewBox="0 0 108 108"><defs><style>.cls-1{fill:#fff;}</style></defs><title>Icon_RH_nature_drizzle-freezing_RGB_White</title><path class="cls-1" d="M47.68 60.73a.75.75 0 0 0-1.06 0l-5.75 5.75a.75.75 0 1 0 1.06 1.06l5.75-5.75a.75.75 0 0 0 0-1.06zm-9.21 9.21a.75.75 0 0 0-1.06 0l-5.75 5.75a.75.75 0 1 0 1.06 1.06L38.48 71a.75.75 0 0 0 0-1.07zm-4-11.6L38 54.79a.75.75 0 0 0-1.06-1.06l-3.54 3.54a.75.75 0 1 0 1.06 1.06zm3.67 28.06l-3.54 3.54a.5.5 0 1 0 .71.71l3.54-3.54a.5.5 0 0 0-.71-.71zm-8.07-25.81l-5.54 5.54a.75.75 0 1 0 1.06 1.06l5.54-5.54a.75.75 0 0 0-1.06-1.06zm-12.48-2.38l3.54-3.54a.5.5 0 0 0-.71-.71l-3.54 3.54a.47.47 0 0 0-.06.1l-.09.06-3.54 3.54a.5.5 0 1 0 .71.71l3.54-3.54a.47.47 0 0 0 .06-.1zm3.61 11.25L17.66 73a.75.75 0 1 0 1.06 1.06l3.54-3.54a.75.75 0 0 0-1.06-1.06zm7 9.68l-3.54 3.54a.75.75 0 1 0 1.06 1.06l3.54-3.54a.75.75 0 0 0-1.06-1.06zm26.46-25.4a.75.75 0 0 0-1.06 0l-3.54 3.54a.75.75 0 1 0 1.06 1.06l3.54-3.54a.75.75 0 0 0 .01-1.06zm22.52-.86s1.05 1.85 1.05 6.12a.5.5 0 0 0 1 0c0-4.59-1.15-6.55-1.2-6.63a.5.5 0 0 0-.86.51zm-26 36.93l-3.54 3.54a.75.75 0 1 0 1.06 1.06l3.54-3.54a.75.75 0 0 0-1.06-1.06zM81.81 30a20.87 20.87 0 0 0-40 0 13.28 13.28 0 0 0-18.07 9.62 12.84 12.84 0 0 0-12.14 10 .75.75 0 0 0 .73.91h51.28a1 1 0 0 0 .21.3c1.81 1.68 2.19 6.08 2.52 10 .35 4.06.62 7.26 2.44 8.23a1 1 0 0 0 1.22-.28c1.44-1.8 1.57-5 1.7-8.43.15-2.91.3-6.15 1.3-8.35 1.63 3.14 2 7.34 2.47 11.75.45 4.58.91 9.32 2.75 13.55a1 1 0 0 0 .92.6 1 1 0 0 0 .91-.63 63.56 63.56 0 0 0 3.06-12.06c.87-4.72 1.7-9.2 3.78-12.91 0 .21.07.44.11.66.27 1.79.65 4.25 2.71 6.11a1 1 0 0 0 1.35 0 9.29 9.29 0 0 0 2.45-4.81 8.66 8.66 0 0 1 1.31-3.19 1 1 0 0 0 .2-.75.73.73 0 0 0 .21-.39A17.22 17.22 0 0 0 81.81 30zM69.74 60.27a27 27 0 0 1-.63 5.93 33.1 33.1 0 0 1-.77-5.56C68 57 67.68 53 66.12 50.55h5.37c-1.49 2.58-1.62 6.2-1.75 9.72zm11.41 4.58a80.16 80.16 0 0 1-2 9.06 56.37 56.37 0 0 1-1.66-10.35c-.48-4.86-.95-9.47-3-13h11.14c-2.63 4.13-3.52 9.07-4.48 14.29zm10.42-11.11a9.87 9.87 0 0 1-1.21 3.1A9 9 0 0 1 89 52.67a11.4 11.4 0 0 0-.47-2.12h4.27a12.56 12.56 0 0 0-1.23 3.19zM93.84 49H13.31a11.34 11.34 0 0 1 10.75-7.9h.29a.71.71 0 0 0 .76-.63A11.79 11.79 0 0 1 42 31.75a11.9 11.9 0 0 1 4.3 3.6.75.75 0 1 0 1.21-.89 13.42 13.42 0 0 0-4.31-3.76 19.34 19.34 0 0 1 36.94-1 17.52 17.52 0 0 0-4.63.08.75.75 0 1 0 .23 1.48 16 16 0 0 1 5.26.06h.08A15.81 15.81 0 0 1 94 46.92a15.2 15.2 0 0 1-.16 2.08zm-25.2 23.39l-3.54 3.54A.75.75 0 1 0 66.17 77l3.54-3.54a.75.75 0 0 0-1.06-1.06zm-15.78-.74l-9.21 9.21a.5.5 0 1 0 .71.71l9.21-9.21a.5.5 0 0 0-.71-.71zm9.06-9.06l-3.54 3.54a.5.5 0 1 0 .71.71l3.54-3.54a.5.5 0 0 0-.71-.71zm-.6 17.13L55 86a.75.75 0 1 0 1.06 1.06l6.31-6.31a.75.75 0 0 0-1.06-1.06z"/></svg>