<svg data-name="Layer 2" xmlns="http://www.w3.org/2000/svg" viewBox="0 0 108 108"><title>Icon_RH_nature_partlycloudy-night_RGB_Black</title><path d="M40.07 25.45l-.52 2.84a.57.57 0 0 0 .23.56.65.65 0 0 0 .61 0l2.54-1.37 2.54 1.38a.57.57 0 0 0 .61 0 .65.65 0 0 0 .23-.57l-.52-2.84 2.09-2a.57.57 0 0 0 .15-.59.65.65 0 0 0-.47-.39l-2.86-.38-1.25-2.6a.57.57 0 0 0-.52-.32.65.65 0 0 0-.52.33l-1.25 2.6-2.86.38a.58.58 0 0 0-.47.39.65.65 0 0 0 .15.59zm1.49-2.4a.5.5 0 0 0 .38-.28l1-2 1 2a.5.5 0 0 0 .38.28l2.25.3-1.64 1.56a.5.5 0 0 0-.15.45l.41 2.23-2-1.08a.5.5 0 0 0-.48 0l-2 1.08.41-2.23a.5.5 0 0 0-.15-.45l-1.64-1.56zM80.39 63.5a11.19 11.19 0 0 0-5.27-7.33 18.84 18.84 0 0 0 11.82-15.79 1 1 0 0 0-1.66-.84 12.75 12.75 0 0 1-18-18 1 1 0 0 0 .15-1.12 1 1 0 0 0-1-.54A18.85 18.85 0 0 0 49.84 43c-.47 0-.94-.06-1.41-.06a17.62 17.62 0 0 0-16.82 12.5 14.52 14.52 0 0 0-11.24 16.8.75.75 0 0 0 .74.62h68.72a.75.75 0 0 0 .73-.91 10.87 10.87 0 0 0-10.17-8.45zM56.27 26.74a16.88 16.88 0 0 1 8-4.47 14.75 14.75 0 0 0 20.3 20.3A16.86 16.86 0 0 1 72.36 55a11.4 11.4 0 0 0-3-.4 11.1 11.1 0 0 0-4.14.79A17.53 17.53 0 0 0 52 43.33a16.8 16.8 0 0 1 4.27-16.59zM21.75 71.36a12.35 12.35 0 0 1-.12-1.66 13.1 13.1 0 0 1 10.71-12.88h.07a13.33 13.33 0 0 1 4.36-.05.75.75 0 1 0 .23-1.51 14.87 14.87 0 0 0-3.71-.1 16.06 16.06 0 0 1 30.58.91 11.33 11.33 0 0 0-3.57 3.13.75.75 0 0 0 1.21.89 9.85 9.85 0 0 1 3.55-3 9.69 9.69 0 0 1 4.3-1 9.83 9.83 0 0 1 3.42.61v.19l.24-.07A9.7 9.7 0 0 1 79 64.37a.74.74 0 0 0 .76.63H80a9.37 9.37 0 0 1 8.82 6.37zm1-31.13l4.4.59 1.92 4a.61.61 0 0 0 1.1 0l1.92-4 4.4-.59a.61.61 0 0 0 .34-1l-3.22-3.06.8-4.37a.61.61 0 0 0-.89-.65l-3.91 2.11-3.9-2.16a.61.61 0 0 0-.89.65l.8 4.37-3.22 3.06a.61.61 0 0 0 .34 1zm3.76-3.57a.5.5 0 0 0 .15-.45l-.71-3.83 3.43 1.86a.5.5 0 0 0 .48 0l3.43-1.86-.71 3.83a.5.5 0 0 0 .15.45l2.82 2.69-3.87.51a.5.5 0 0 0-.38.28l-1.68 3.52-1.68-3.52a.5.5 0 0 0-.38-.28l-3.87-.51z"/></svg>