<svg data-name="Layer 1" xmlns="http://www.w3.org/2000/svg" viewBox="0 0 54.59 64.89"><title>Icon_RH_Nature_Tornado_RGB_Black</title><path d="M25.9 51.91c-4.68-1.25-11.2-1.09-15.15.39a1 1 0 1 0 .7 1.87c3.61-1.35 9.6-1.49 13.93-.34a1 1 0 1 0 .52-1.93zm5-11.12c-9.42-1.65-20.11-.31-23.81 1.94a1 1 0 1 0 1 1.71c3.39-2.06 13.71-3.22 22.43-1.68a1.015 1.015 0 1 0 .35-2zm-5.67 16.86c-3.1-1.37-7.92-1.29-11.1-.51a1 1 0 1 0 .47 1.94c2.82-.69 7.24-.79 9.86.39a1 1 0 0 0 .82-1.82zM19 62.37a1.023 1.023 0 1 0 .43 2c1.09-.24 3.11-.5 4.46.4A1.003 1.003 0 0 0 25 63.1c-1.87-1.29-4.29-1.1-5.99-.73zM26.44 2C39.2 2 47.67 5.22 51.05 8a1.002 1.002 0 0 0 1.27-1.55C48.51 3.32 39.72 0 26.44 0 12.44 0 3.6 2.94.16 8.74a1 1 0 0 0 1.72 1c3-5.08 11.5-7.76 24.56-7.76zm1 44.35c-7.28-1.43-14.6-.91-19.11 1.35a1.002 1.002 0 1 0 .9 1.79c4.13-2.08 11-2.53 17.83-1.18a1.02 1.02 0 0 0 .39-2zm22.16-23.7c-11.53-5.16-28.83-5.48-39.39-.74a1 1 0 0 0 .82 1.82c10.1-4.54 26.68-4.21 37.75.74a1.003 1.003 0 0 0 .82-1.83zm2.71-4.9C39 11 19.73 10.48 8.44 16.55a1 1 0 0 0 .95 1.76c10.6-5.7 29.45-5.15 42 1.21a1 1 0 1 0 .9-1.78zm1.74-5C34.6 2.65 12.2 6.07 4.13 12.29a1 1 0 1 0 1.22 1.58c6.7-5.18 28.4-9.4 47.75.63a1.002 1.002 0 1 0 .92-1.78zM37.72 36.11c-8.36-2.4-21.18-1.81-30.48 1.41a1 1 0 0 0 .65 1.89c8.82-3 21.4-3.64 29.28-1.38a1 1 0 0 0 .55-1.92zm5.18-4.74c-10.4-3.78-26.48-1.71-34.18.48a1.01 1.01 0 0 0 .27 2 1 1 0 0 0 .27 0c7.45-2.12 23-4.14 32.95-.52a1 1 0 1 0 .68-1.88zm3.71-4.48c-12.55-4.45-29.68-2.72-36.72.18a1 1 0 1 0 .76 1.85c6.75-2.78 23.2-4.43 35.29-.15a1 1 0 0 0 .67-1.88z"/></svg>