<svg id="Layer_2" data-name="Layer 2" xmlns="http://www.w3.org/2000/svg" viewBox="0 0 108 108"><defs><style>.cls-1{fill:#fff;}</style></defs><title>Icon_RH_nature_snow-heavy_RGB_White</title><path class="cls-1" d="M29.15 61.13l.07-.07a1.46 1.46 0 0 0 0-2.09A1.54 1.54 0 0 0 27 59a1.5 1.5 0 1 0 2.12 2.12zm-.75 24a1 1 0 1 0 1.41 1.41 1 1 0 0 0 0-1.4 1 1 0 0 0-1.41.01zm.12-10a1.46 1.46 0 0 0 0-2.09 1.54 1.54 0 0 0-2.15 0 1.5 1.5 0 1 0 2.11 2.14zm4.59 5.27a1 1 0 1 0 1.41 1.41l.06-.06a1 1 0 0 0 0-1.38 1 1 0 0 0-1.47.07zm.69-10.55a1.46 1.46 0 0 0 0-2.09 1.54 1.54 0 0 0-2.15 0A1.5 1.5 0 1 0 33.73 70zm-1.32-16.29a1.5 1.5 0 1 0 2.12 2.12 1.48 1.48 0 0 0 0-2.1 1.52 1.52 0 0 0-2.12-.02zm-11 1.17a1 1 0 0 0 0-1.4 1 1 0 0 0-1.43 0 1 1 0 1 0 1.42 1.4zM18 58.18a1 1 0 0 0 0-1.39 1 1 0 0 0-1.44 0A1 1 0 1 0 18 58.18zM16.14 69.9a1.5 1.5 0 1 0 2.13 2.1 1.48 1.48 0 0 0 0-2.1 1.52 1.52 0 0 0-2.13 0zm-3-9.69a1 1 0 1 0 1.41 1.41 1 1 0 0 0 0-1.4 1 1 0 0 0-1.41-.02zm8.43 4.27a1.5 1.5 0 1 0 2.12 2.12l.07-.07a1.46 1.46 0 0 0 0-2.09 1.54 1.54 0 0 0-2.19.03zm-.46 13.86a1.5 1.5 0 1 0 2.09 2.15 1.48 1.48 0 0 0 0-2.1 1.52 1.52 0 0 0-2.09-.06zM36.25 90a1.5 1.5 0 1 0 2.12 2.12 1.48 1.48 0 0 0 0-2.1 1.52 1.52 0 0 0-2.12-.02zm27.38-13.28A1 1 0 1 0 65 78.13a1 1 0 0 0 0-1.4 1 1 0 0 0-1.37-.01zM58 82.3a1 1 0 1 0 1.41 1.41l.07-.07a1 1 0 0 0 0-1.38 1 1 0 0 0-1.48.04zm20.28-26.19a3.72 3.72 0 0 0-7.3-1H68.4l2-2.35a.75.75 0 0 0-1.15-1l-2.8 3.32h-5.32l2.65-4.6 4.27-.77a.75.75 0 1 0-.27-1.48l-3 .54L66 46.59a3.68 3.68 0 0 0 .9.12 3.76 3.76 0 0 0 1-.13 3.74 3.74 0 1 0-3.6-1L63 47.83l-1-2.93a.75.75 0 0 0-1.41.51L62 49.53l-2.66 4.61-2.66-4.61 1.48-4.11a.75.75 0 0 0-1.41-.51l-1.05 2.92-1.29-2.24a3.72 3.72 0 0 0-4.52-5.83 3.73 3.73 0 0 0 1.87 7 3.68 3.68 0 0 0 .92-.12L54 48.81l-3-.54a.75.75 0 1 0-.27 1.48l4.27.77 2.65 4.6h-5.33l-2.8-3.32a.75.75 0 0 0-1.15 1l2 2.35h-2.59a3.73 3.73 0 1 0 0 2h2.58l-2 2.37a.75.75 0 0 0 1.15 1l2.82-3.34h5.33L55 61.72l-4.3.77A.75.75 0 1 0 51 64l3-.58-1.29 2.24a3.77 3.77 0 1 0 1.73 1l1.29-2.23 1 2.89a.75.75 0 0 0 1.41-.51l-1.47-4.09 2.65-4.6L62 62.73l-1.47 4.09a.75.75 0 0 0 1.41.51l1-2.89 1.29 2.23a3.75 3.75 0 1 0 1.72-1l-1.29-2.23 3.05.55a.75.75 0 1 0 .27-1.48l-4.3-.77-2.66-4.61h5.33l2.82 3.34a.75.75 0 1 0 1.15-1l-2-2.37H71a3.72 3.72 0 0 0 7.3-1zM65 41.86a2.23 2.23 0 1 1 .82 3 2.23 2.23 0 0 1-.82-3zm-11.09 1.7a2.23 2.23 0 1 1-.22-1.69 2.21 2.21 0 0 1 .25 1.69zm-9.7 14.8a2.23 2.23 0 1 1 2.23-2.23 2.23 2.23 0 0 1-2.23 2.23zm9.52 12a2.23 2.23 0 1 1-.82-3 2.23 2.23 0 0 1 .82 3.01zm12.13-3.06a2.23 2.23 0 1 1-.82 3 2.21 2.21 0 0 1 .82-2.98zm6.46-11.21a2.23 2.23 0 1 1 2.23 2.23 2.23 2.23 0 0 1-2.23-2.21zM39 64.68a1.48 1.48 0 0 0 0-2.1 1.52 1.52 0 0 0-2.14 0 1.5 1.5 0 1 0 2.14 2.1zm51.61 6.93a2.09 2.09 0 0 0-2.38.19l-.9-.52 1.22-.44a.5.5 0 0 0-.34-.94l-2 .73L84 69.35l2.2-1.27 2 .73h.17a.5.5 0 0 0 .17-1l-1.22-.44.92-.53a2.1 2.1 0 0 0 1.3.47 2.08 2.08 0 0 0 1-.28 2.1 2.1 0 1 0-3.12-1.48l-.91.53.23-1.29a.5.5 0 0 0-.4-.58.51.51 0 0 0-.58.4l-.38 2.12-2.21 1.28v-2.5l1.65-1.39a.5.5 0 0 0-.65-.76l-1 .85v-1.06a2.1 2.1 0 1 0-1.5 0v1l-1-.84a.5.5 0 0 0-.65.76l1.64 1.38V68l-2.2-1.27-.38-2.11a.5.5 0 1 0-1 .18l.23 1.28-.91-.52a2.15 2.15 0 1 0-.76 1.3l.92.53-1.23.44a.5.5 0 0 0 .17 1h.17l2-.73L81 69.35l-2.21 1.28-2-.73a.5.5 0 0 0-.34.94l1.24.44-.91.53a2.11 2.11 0 1 0 .75 1.3l.9-.52-.23 1.28a.5.5 0 0 0 .4.58h.09a.5.5 0 0 0 .49-.41l.38-2.11 2.2-1.27v2.54l-1.64 1.38a.5.5 0 0 0 .65.76l1-.84v1a2.1 2.1 0 1 0 1.5 0v-1l1 .85a.5.5 0 0 0 .65-.76l-1.69-1.39v-2.56l2.21 1.28.38 2.08a.5.5 0 0 0 .49.41h.09a.5.5 0 0 0 .4-.58l-.23-1.29.91.53a2.1 2.1 0 1 0 3.12-1.49zM89 64.31a1.1 1.1 0 1 1-.4 1.51 1.11 1.11 0 0 1 .4-1.51zm-12.64 1.52a1.1 1.1 0 1 1-1.24-1.62 1.1 1.1 0 0 1 .84.11 1.1 1.1 0 0 1 .4 1.51zm.12 7.9a1.09 1.09 0 0 1-.51.67 1.1 1.1 0 1 1 .51-.67zm7.11 3.79a1.1 1.1 0 1 1-1.1-1.1 1.1 1.1 0 0 1 1.1 1.1zm-1.11-15.23a1.1 1.1 0 1 1 1.1-1.1 1.1 1.1 0 0 1-1.1 1.1zm8 11.69a1.1 1.1 0 1 1 .11-.84 1.11 1.11 0 0 1-.08.86zm-38 13.9a1 1 0 1 0 1.41 1.41l.07-.07a1 1 0 0 0 0-1.38 1 1 0 0 0-1.49.04zM81.81 30a20.87 20.87 0 0 0-40 0 13.28 13.28 0 0 0-18.07 9.62 12.84 12.84 0 0 0-12.14 10 .75.75 0 0 0 .73.91H43A.75.75 0 0 0 43 49H13.31a11.34 11.34 0 0 1 10.75-7.9h.29a.75.75 0 0 0 .74-.63A11.79 11.79 0 0 1 42 31.75a11.9 11.9 0 0 1 4.3 3.6.75.75 0 1 0 1.21-.89 13.42 13.42 0 0 0-4.31-3.76 19.35 19.35 0 0 1 36.94-1 17.52 17.52 0 0 0-4.63.08.75.75 0 1 0 .23 1.48 16 16 0 0 1 5.26.06h.08A15.81 15.81 0 0 1 94 46.92a15.2 15.2 0 0 1-.16 2.08H72.67a.75.75 0 0 0 0 1.5h21.81a.75.75 0 0 0 .74-.62A17.22 17.22 0 0 0 81.81 30zM42.4 83.84l-.08.08A1.5 1.5 0 1 0 44.44 86l.08-.08a1.5 1.5 0 0 0-2.12-2.12zm6.05-6.05a1.5 1.5 0 1 0 2.09 2.15 1.48 1.48 0 0 0 0-2.1 1.52 1.52 0 0 0-2.09-.05zm-10.61-2.08a1 1 0 1 0 1.41 1.41l.06-.06a1 1 0 0 0 0-1.38 1 1 0 0 0-1.47.03zm9.09 17.71a1 1 0 1 0 1.41 1.41 1 1 0 0 0 0-1.4 1 1 0 0 0-1.42-.01zm-3.66-20.73a1 1 0 0 0 .71-.29A1 1 0 0 0 44 71a1 1 0 0 0-1.43 0 1 1 0 0 0 .71 1.71z"/></svg>