<svg xmlns="http://www.w3.org/2000/svg" viewBox="0 0 108 108"><defs><style>.cls-1{fill:#fff;}</style></defs><title>Icon_RH_nature_flower-mum_RGB_White</title><path class="cls-1" d="M90.5 54c0-2.79-1.9-4.55-5.88-5.39 3.42-2.14 4.63-4.46 3.68-7.07s-3.3-3.61-7.36-3.04c2.48-3.18 2.82-5.77 1-7.9s-4.38-2.26-8-.35c1.25-3.83.69-6.4-1.72-7.79s-4.89-.63-7.61 2.4c-.14-4-1.54-6.25-4.28-6.73s-4.75 1.08-6.27 4.87c-1.51-3.74-3.58-5.33-6.33-4.85a4.61 4.61 0 0 0-3.73 3.4 11.93 11.93 0 0 0-.51 3.31c-2.7-3-5.19-3.78-7.6-2.39s-3 3.92-1.73 7.78c-3.56-1.9-6.18-1.78-8 .35s-1.47 4.71 1 7.92c-4-.56-6.42.43-7.37 3a4.61 4.61 0 0 0 1.06 5 11.92 11.92 0 0 0 2.61 2.1c-3.95.84-5.88 2.6-5.88 5.39s1.9 4.55 5.88 5.39c-3.42 2.14-4.63 4.46-3.68 7.07.78 2.14 2.52 3.21 5.34 3.21a14.62 14.62 0 0 0 2-.16c-2.49 3.18-2.84 5.78-1 7.91a4.43 4.43 0 0 0 3.55 1.71A6.4 6.4 0 0 0 31 79a11.93 11.93 0 0 0 3.13-1.22c-1.25 3.83-.69 6.4 1.72 7.79a4.66 4.66 0 0 0 2.36.68c1.68 0 3.41-1 5.26-3.07.14 4 1.54 6.24 4.28 6.73a5.44 5.44 0 0 0 .94.09c2.28 0 4-1.61 5.38-4.94 1.33 3.31 3.11 4.94 5.4 4.94a5.31 5.31 0 0 0 .93-.08c2.74-.48 4.15-2.66 4.29-6.72 1.84 2 3.58 3.06 5.27 3.06a4.63 4.63 0 0 0 2.34-.67c2.42-1.4 3-3.92 1.73-7.78a9.67 9.67 0 0 0 4.41 1.34A4.44 4.44 0 0 0 82 77.44c1.79-2.13 1.47-4.7-1-7.92a14.73 14.73 0 0 0 2 .17c2.82 0 4.58-1.06 5.36-3.21a4.61 4.61 0 0 0-1.06-5 11.92 11.92 0 0 0-2.61-2.1c3.88-.81 5.81-2.57 5.81-5.38zm-3.14-12.1c.54 1.49.67 3.77-4.27 6.47-1-.13-2-.22-3.16-.27-1.29-2.61-4.78-2.79-8-2.4a12.27 12.27 0 0 0 3.4-4.7 35.74 35.74 0 0 1 4.57-1.3c5.45-1.09 6.89.63 7.46 2.2zM47.72 55.07a6.42 6.42 0 0 0 2.1 3.78A13 13 0 0 1 46.33 62c-2.19 1.22-5.08 2.18-6.36-.15a2.53 2.53 0 0 1-.13-2.41 7.67 7.67 0 0 1 3.38-3.06 13 13 0 0 1 4.5-1.31zM40 48.13a2.53 2.53 0 0 1 .21-2.41c1.37-2.27 4.21-1.21 6.36.08A12.93 12.93 0 0 1 50 49.05a6.44 6.44 0 0 0-2.23 3.71 12.93 12.93 0 0 1-4.47-1.46 7.66 7.66 0 0 1-3.3-3.17zM49.63 54a4.43 4.43 0 1 1 4.43 4.43A4.44 4.44 0 0 1 49.63 54zm10.74 1.26a12.94 12.94 0 0 1 4.45 1.45 7.66 7.66 0 0 1 3.27 3.17 2.53 2.53 0 0 1-.21 2.41c-1.37 2.27-4.22 1.21-6.36-.08A12.91 12.91 0 0 1 58.14 59a6.44 6.44 0 0 0 2.23-3.71zm0-2.31a6.42 6.42 0 0 0-2.1-3.78 13 13 0 0 1 3.49-3.14c2.19-1.21 5.08-2.18 6.36.14s-1.06 4.26-3.25 5.47A13 13 0 0 1 60.4 53zm.69-8.8a26.91 26.91 0 0 1 3.66-3.9c6.27-5.26 8-3.22 8.61-2.46s2.22 2.68-3.37 7.58l-.09-.17c-.71-1.31-3.06-4.06-8.78-1.02zm2.23-4.9l-.17.44a32.58 32.58 0 0 0-3.92 4.43c0-.25.05-.51.05-.74 0-4.1-1.34-6-2.74-6.82 1.07-2.87 2.19-4.81 3.35-5.76a2.87 2.87 0 0 1 4.64 1.69c.31 1.51-.1 3.8-1.18 6.79zm-6 4.12A13 13 0 0 1 56.22 48a6.31 6.31 0 0 0-4.32 0 13 13 0 0 1-1.05-4.57c0-2.51.56-5.49 3.21-5.49s3.21 2.95 3.21 5.46zm-3.21-7.49c-1.5 0-4.9.68-5.18 6.68a25.88 25.88 0 0 1-1.37-4.69C47 34.76 47 32.45 47.5 31a2.62 2.62 0 0 1 2.19-1.81c1-.16 3.44-.58 4.88 6.73zM48 44.3l-.31-.22c-3.74-2.24-6.1-1.9-7.53-1-5-6-3-7.72-2.25-8.36a2.62 2.62 0 0 1 2.79-.51c1.45.5 3.22 2 5.26 4.43l.28.34A31.6 31.6 0 0 0 48 44.3zm-9.77 4.59a9.18 9.18 0 0 0 3.85 4 26.68 26.68 0 0 1-5.22-1.23c-7.69-2.8-6.78-5.29-6.44-6.23s1.21-3.26 8.25-.87l-.1.16a4.53 4.53 0 0 0-.38 4.17zm-1.08 4.42a31.61 31.61 0 0 0 5.48 1.14l-.34.16a9.4 9.4 0 0 0-4.23 4 4.54 4.54 0 0 0-.42 2c-7.71 1.28-8.18-1.26-8.35-2.23a2.62 2.62 0 0 1 1-2.68c1.16-1 3.33-1.79 6.47-2.34zm1 9.32l.08.17a4.62 4.62 0 0 0 4.19 2.45A10 10 0 0 0 47 63.86a27.77 27.77 0 0 1-3.31 3.58l-.33.3c-2.44 2-4.44 3.2-6 3.45a2.62 2.62 0 0 1-2.66-1c-.56-.71-2.16-2.65 3.44-7.55zm6.67 6.13l.16-.42a32.2 32.2 0 0 0 3.93-4.45c0 .25-.05.51-.05.74 0 4.1 1.34 6 2.74 6.82-1.07 2.87-2.19 4.81-3.35 5.76a2.87 2.87 0 0 1-4.64-1.69c-.29-1.52.11-3.77 1.2-6.75zm6-4.12a12.94 12.94 0 0 1 1-4.57 6.31 6.31 0 0 0 4.32 0 12.93 12.93 0 0 1 1 4.57c0 2.51-.56 5.49-3.21 5.49s-3.08-2.98-3.08-5.49zm3.21 7.49c1.5 0 4.9-.68 5.18-6.68a25.89 25.89 0 0 1 1.37 4.69c.55 3.13.56 5.45 0 6.88a2.87 2.87 0 0 1-4.86.86c-.93-1.07-1.67-3-2.21-5.77zm6.12-8.38l.3.2a10 10 0 0 0 5 1.7A4.6 4.6 0 0 0 68 65c1.91 2.32 3 4.24 3.24 5.7a2.87 2.87 0 0 1-3.78 3.17c-1.45-.5-3.22-2-5.26-4.43l-.28-.34a31.55 31.55 0 0 0-1.74-5.34zm9.76-4.61a9.17 9.17 0 0 0-3.85-4 26.75 26.75 0 0 1 5.21 1.23c7.69 2.8 6.78 5.29 6.44 6.23s-1.21 3.26-8.26.87l.1-.16a4.53 4.53 0 0 0 .39-4.16zM71 54.73a31.63 31.63 0 0 0-5.48-1.14l.35-.16c3.81-2.11 4.69-4.33 4.64-6 7.73-1.28 8.19 1.26 8.36 2.23s.63 3.6-7.42 5zm10.21-23.49c1 1.22 1.92 3.32-1.81 7.54a36.1 36.1 0 0 0-3.85 1.08 4.09 4.09 0 0 0-1-3c-2-2.4-4.78-1.72-7.33-.2.61-.6 1.21-1.15 1.79-1.64 8.06-6.8 10.83-5.41 12.2-3.78zm-9.43-7.91c1.37.79 2.94 2.46.89 7.7a39.68 39.68 0 0 0-4.34 3.22 34.77 34.77 0 0 0-2.67 2.53 11 11 0 0 0 .34-4.56 4.13 4.13 0 0 0-2.8-3.29l-.26-.08c4.48-6.85 7.18-6.48 8.84-5.52zm-11.56-4.21c1.56.27 3.6 1.3 3.47 6.93-.59.76-1.2 1.63-1.81 2.6a4.14 4.14 0 0 0-2.94 1 12.48 12.48 0 0 0-3.15 4.76 12.3 12.3 0 0 0-2.36-5.32c1.84-9.65 4.74-10.33 6.79-9.97zm-15.31 2.74a3.64 3.64 0 0 1 3-2.74c1.56-.28 3.83 0 5.63 5.34a36.19 36.19 0 0 0-1 3.88 4.08 4.08 0 0 0-3.12-.61 4.13 4.13 0 0 0-3.33 2.76A9.71 9.71 0 0 0 45.6 34c-.22-.84-.4-1.66-.54-2.42-.78-4.39-.83-7.67-.15-9.72zm-8.56 1.47c1.37-.79 3.6-1.31 7.11 3.09a39.87 39.87 0 0 0 .62 5.37 34.78 34.78 0 0 0 .85 3.58 11 11 0 0 0-3.78-2.58 4.13 4.13 0 0 0-4.25.78c-.07.06-.13.13-.2.19-3.7-7.33-2.02-9.47-.36-10.43zm-9.43 7.91c1-1.22 2.93-2.46 7.73.46.36.89.82 1.85 1.35 2.87-1.61 2.42 0 5.53 1.93 8.14a12.27 12.27 0 0 0-5.78-.61c-7.43-6.42-6.57-9.27-5.23-10.86zm-5.29 14.63a3.64 3.64 0 0 1-.87-4c.54-1.49 1.9-3.33 7.43-2.21a36.11 36.11 0 0 0 2.86 2.8A4.09 4.09 0 0 0 29 44.89c-1.07 2.95.89 5 3.49 6.45-.82-.23-1.6-.47-2.31-.73-4.24-1.53-7.11-3.13-8.55-4.74zm-3 8.15c0-1.58.65-3.78 6.23-4.62a39.85 39.85 0 0 0 5 2.15 34.84 34.84 0 0 0 3.53 1 11 11 0 0 0-4.12 2 4.13 4.13 0 0 0-1.45 4.07c0 .1.05.17.08.27-8.27-.4-9.27-2.95-9.27-4.89zm2.14 12.12c-.54-1.49-.67-3.77 4.27-6.47 1 .13 2 .22 3.17.27 1 2 3.19 2.56 5.62 2.56a20.47 20.47 0 0 0 2.39-.16A12.27 12.27 0 0 0 32.79 67c-9.27 3.26-11.32 1.09-12.03-.86zM30.79 78a3.64 3.64 0 0 1-3.87-1.23c-1-1.21-1.93-3.31 1.81-7.55a36.21 36.21 0 0 0 3.85-1.08 4.42 4.42 0 0 0 4.27 4.58 5.11 5.11 0 0 0 .81-.07A9.7 9.7 0 0 0 41 71.34c-.62.61-1.23 1.18-1.83 1.68-3.45 2.89-6.27 4.57-8.38 4.98zm5.56 6.68c-1.37-.79-2.94-2.46-.88-7.7a39.87 39.87 0 0 0 4.34-3.22 34.72 34.72 0 0 0 2.67-2.53 11 11 0 0 0-.34 4.56 4.13 4.13 0 0 0 2.8 3.29l.27.07c-4.5 6.93-7.21 6.52-8.87 5.56zm11.57 4.21c-1.56-.28-3.6-1.3-3.47-6.93q.89-1.15 1.82-2.61h.25a4.18 4.18 0 0 0 2.68-1 12.5 12.5 0 0 0 3.16-4.77 12.49 12.49 0 0 0 2.28 5.24l.08.08c-1.86 9.7-4.77 10.38-6.81 10.02zm12.31 0c-1.56.27-3.83 0-5.63-5.33a36.36 36.36 0 0 0 1-3.9 3.93 3.93 0 0 0 2.24.7 5 5 0 0 0 .87-.08A4.13 4.13 0 0 0 62 77.56a9.72 9.72 0 0 0 .5-3.56c.22.85.4 1.66.54 2.43 1.86 10.42-.72 12.12-2.82 12.49zm11.56-4.21c-1.37.79-3.6 1.31-7.11-3.09a39.71 39.71 0 0 0-.68-5.33 34.79 34.79 0 0 0-.85-3.58A11 11 0 0 0 67 75.25a4.67 4.67 0 0 0 1.53.27 4.15 4.15 0 0 0 2.72-1.05l.2-.19c3.7 7.33 1.99 9.47.33 10.43zm9.43-7.91c-1 1.21-2.93 2.47-7.73-.46-.36-.89-.82-1.85-1.35-2.87a4.13 4.13 0 0 0 .6-3 12.47 12.47 0 0 0-2.54-5.11 15.53 15.53 0 0 0 4.33.76 7 7 0 0 0 1.47-.15c7.4 6.42 6.54 9.27 5.21 10.86zm5.28-14.63a3.64 3.64 0 0 1 .87 4c-.54 1.49-1.91 3.33-7.44 2.21a36.28 36.28 0 0 0-2.86-2.8 4.09 4.09 0 0 0 2.09-2.4c1.07-2.95-.9-5-3.49-6.45.82.23 1.6.47 2.31.73 4.21 1.57 7.07 3.13 8.51 4.74zm-3.22-3.54a39.85 39.85 0 0 0-5-2.15 34.71 34.71 0 0 0-3.5-1c3.23-.93 6.15-2.62 5.54-6.06 0-.09 0-.18-.07-.27 8.21.44 9.21 3 9.21 4.9.04 1.59-.62 3.78-6.19 4.62z" id="Layer_2" data-name="Layer 2"/></svg>