<svg data-name="Layer 2" xmlns="http://www.w3.org/2000/svg" viewBox="0 0 108 108"><title>Icon_RH_nature_mix-snow-sleet_RGB_Black</title><path d="M21.71 54.47a1 1 0 0 0 0-1.4 1 1 0 0 0-1.43 0 1 1 0 1 0 1.42 1.4zm12.71.78a1.5 1.5 0 0 0 1.06-.44 1.48 1.48 0 0 0 0-2.1 1.52 1.52 0 0 0-2.14 0 1.5 1.5 0 0 0 1.06 2.56zm-6.74 3.12l-.07.07a1.5 1.5 0 1 0 2.12 2.12l.07-.07a1.5 1.5 0 0 0-2.12-2.12zM36.25 90a1.5 1.5 0 1 0 2.12 2.12 1.48 1.48 0 0 0 0-2.1 1.52 1.52 0 0 0-2.12-.02zm-.13-9.73a1 1 0 0 0-1.41-1.41l-.08.08a1 1 0 1 0 1.37 1.4zm6.06-18.77l.08-.08a1.5 1.5 0 1 0-2.12-2.12l-.08.08a1.5 1.5 0 1 0 2.12 2.12zM28.4 85.15a1 1 0 1 0 1.41 1.41 1 1 0 0 0 0-1.4 1 1 0 0 0-1.41-.01zm7.45-17.31l.08-.08a1.5 1.5 0 0 0-2.12-2.12l-.08.08a1.5 1.5 0 1 0 2.12 2.12zm6.46 6.23l.08-.08A1 1 0 0 0 41 72.58l-.08.08a1 1 0 1 0 1.41 1.41zM18.13 58a1 1 0 0 0 0-1.4 1 1 0 0 0-1.43 0 1 1 0 1 0 1.43 1.4zm11.38 16.17l.08-.08A1.5 1.5 0 0 0 27.47 72l-.08.08a1.5 1.5 0 1 0 2.12 2.12zM16.14 69.9a1.5 1.5 0 1 0 2.13 2.1 1.48 1.48 0 0 0 0-2.1 1.52 1.52 0 0 0-2.13 0zm-3-9.69a1 1 0 1 0 1.41 1.41 1 1 0 0 0 0-1.4 1 1 0 0 0-1.41-.02zm8.79 3.91l-.07.07A1.5 1.5 0 1 0 24 66.3l.07-.07a1.5 1.5 0 0 0-2.12-2.12zm-.82 14.22a1.5 1.5 0 1 0 2.09 2.15 1.48 1.48 0 0 0 0-2.1 1.52 1.52 0 0 0-2.09-.06zm35.88 5a1 1 0 1 0 1.41 1.41l.06-.06a1 1 0 0 0 0-1.38 1 1 0 0 0-1.46.05zm5-5a1 1 0 1 0 1.41 1.41l.06-.06a1 1 0 0 0 0-1.38 1 1 0 0 0-1.46.01zm-3.59-10.5A1.5 1.5 0 1 0 60.52 70a1.48 1.48 0 0 0 0-2.1 1.52 1.52 0 0 0-2.12-.06zm8.78-9.76l-1.05-2.92 2.07-3.59 2.07 3.59-1.05 2.92a.5.5 0 0 0 .3.64h.17a.5.5 0 0 0 .47-.33l.77-2.13.95 1.64a3.13 3.13 0 1 0 1.74-1l-.94-1.63 2.2.4a.51.51 0 0 0 .58-.4.5.5 0 0 0-.4-.58l-3-.55-2.07-3.58h4.13l2 2.35a.5.5 0 0 0 .76-.65l-1.44-1.71h1.88a3.11 3.11 0 1 0 0-2h-1.9l1.46-1.73a.5.5 0 0 0-.76-.65l-2 2.37h-4.2L72 45l3-.55a.5.5 0 0 0-.18-1l-2.22.4.95-1.64a3.1 3.1 0 1 0-1.73-1l-.94 1.63-.76-2.11a.5.5 0 0 0-.94.34l1 2.9-1.98 3.59L66.13 44l1-2.9a.5.5 0 0 0-.94-.34l-.76 2.11-.94-1.63a3.09 3.09 0 1 0-3.13 1 3.11 3.11 0 0 0 .81.11 3.06 3.06 0 0 0 .59-.08l1 1.65-2.22-.4a.5.5 0 0 0-.18 1l3.06.55 2.07 3.59h-4.16l-2-2.37a.5.5 0 0 0-.76.65L61 48.59h-1.87a3.1 3.1 0 1 0 0 2H61l-1.44 1.71a.5.5 0 1 0 .76.65l2-2.35h4.13l-2.07 3.58-3 .55a.5.5 0 0 0-.4.58.51.51 0 0 0 .58.4l2.2-.4-.94 1.63a3.1 3.1 0 1 0-.6 6.14A3.14 3.14 0 0 0 63 63a3.08 3.08 0 0 0 1.53-5l.95-1.64.77 2.13a.5.5 0 0 0 .47.33h.17a.5.5 0 0 0 .29-.74zm6.21.5a1.61 1.61 0 0 1 2.19.59 1.61 1.61 0 1 1-2.19-.59zM80.2 48a1.61 1.61 0 1 1-1.61 1.61A1.61 1.61 0 0 1 80.2 48zm-7.38-9.59a1.61 1.61 0 1 1 .59 2.19 1.61 1.61 0 0 1-.6-2.21zM63 40.58a1.61 1.61 0 1 1 .59-2.19 1.6 1.6 0 0 1-.59 2.19zm-6.8 10.6a1.61 1.61 0 1 1 1.61-1.61 1.61 1.61 0 0 1-1.61 1.61zm7.38 9.59a1.61 1.61 0 1 1 .16-1.22 1.59 1.59 0 0 1-.16 1.22zm-8.74.76a1 1 0 0 0 0-1.4 1 1 0 0 0-1.43 0 1 1 0 1 0 1.41 1.41zM81.81 30a20.87 20.87 0 0 0-40 0 13.28 13.28 0 0 0-18.07 9.62 12.84 12.84 0 0 0-12.14 10 .75.75 0 0 0 .73.91H50.6a.75.75 0 0 0 0-1.5H13.31a11.34 11.34 0 0 1 10.75-7.9h.29a.75.75 0 0 0 .74-.63A11.79 11.79 0 0 1 42 31.75a11.9 11.9 0 0 1 4.3 3.6.75.75 0 1 0 1.21-.89 13.42 13.42 0 0 0-4.31-3.76 19.35 19.35 0 0 1 36.94-1 17.52 17.52 0 0 0-4.63.09.75.75 0 1 0 .23 1.48 16 16 0 0 1 5.26.06h.08A15.81 15.81 0 0 1 94 46.92a15.2 15.2 0 0 1-.16 2.08h-3.93a14 14 0 0 0-3.54-2.19 1 1 0 0 0-.79 1.84 12 12 0 1 1-16.43 13.48 1 1 0 1 0-2 .4 14 14 0 1 0 24.22-12h3.07a.75.75 0 0 0 .74-.62A17.22 17.22 0 0 0 81.81 30zm-1.44 38.63a.5.5 0 0 0 .5.5 9.44 9.44 0 0 0 9.43-9.43.5.5 0 0 0-1 0 8.44 8.44 0 0 1-8.43 8.43.5.5 0 0 0-.5.5zm-13.29 4.64a1 1 0 1 0 1.41 1.41 1 1 0 0 0 0-1.4 1 1 0 0 0-1.41-.01zm-25.31 11.2a1.5 1.5 0 1 0 2.11 2.14l.07-.07a1.46 1.46 0 0 0 0-2.09 1.54 1.54 0 0 0-2.18.02zm5.16 9a1 1 0 1 0 1.41 1.41 1 1 0 0 0 0-1.4 1 1 0 0 0-1.42-.06zm5.93-20A1.5 1.5 0 1 0 55 75.51l.07-.07a1.46 1.46 0 0 0 0-2.09 1.54 1.54 0 0 0-2.22.04zM48.5 55.18a1.48 1.48 0 0 0 0-2.1 1.52 1.52 0 0 0-2.14 0 1.5 1.5 0 1 0 2.09 2.15zm-1.26 11.13l-.08.08a1 1 0 1 0 1.41 1.41l.08-.08a1 1 0 0 0-1.41-1.41zm4.71 22.09a1 1 0 1 0 1.41 1.41l.06-.06a1 1 0 0 0 0-1.38 1 1 0 0 0-1.48.04zm-4.65-9.46a1.5 1.5 0 1 0 2.12 2.12l.07-.07a1.46 1.46 0 0 0 0-2.09 1.54 1.54 0 0 0-2.19.04z"/></svg>