<svg data-name="Layer 2" xmlns="http://www.w3.org/2000/svg" viewBox="0 0 108 108"><title>Icon_RH_nature_rain_RGB_Black</title><path d="M72.23 74.22a.5.5 0 0 0 .5.5 10 10 0 0 0 10-10 .5.5 0 0 0-1 0 9 9 0 0 1-9 9 .5.5 0 0 0-.5.5zM81.81 30a20.87 20.87 0 0 0-40 0 13.28 13.28 0 0 0-18.07 9.62 12.84 12.84 0 0 0-12.14 10 .75.75 0 0 0 .73.91h11.18l-10 10a.5.5 0 1 0 .71.71l10.7-10.69h11.63L16.68 70.43a.75.75 0 1 0 1.06 1.06l20.93-20.94H50L21.63 78.88a.75.75 0 1 0 1.06 1.06l29.38-29.39h11.64l-35 35a.5.5 0 1 0 .71.71l33-33C59.93 57 58 60.82 58 64.73a14.7 14.7 0 0 0 .57 4l-21.79 21.8a.75.75 0 1 0 1.06 1.06l21.24-21.25a14.84 14.84 0 0 0 5.17 6.46l-17 17a.5.5 0 1 0 .71.71l17.15-17.15A14.74 14.74 0 0 0 87.5 64.73a16.39 16.39 0 0 0-2.25-7.51l6.67-6.67h2.56a.75.75 0 0 0 .74-.62A17.22 17.22 0 0 0 81.81 30zm3.69 34.73a12.77 12.77 0 0 1-25.54 0c0-4.87 3.73-10 7.33-14.91a51.3 51.3 0 0 0 5.43-8.48 55 55 0 0 0 5.62 9c3.53 4.89 7.16 9.99 7.16 14.39zm-.76-8.42c-1.1-1.92-2.42-3.85-3.77-5.76h9.53zm9.1-7.31H79.91c-2.4-3.37-4.66-6.55-5.71-9.41a1.54 1.54 0 0 0-1.46-1 1.55 1.55 0 0 0-1.46 1c-1 2.75-3.24 5.79-5.59 9l-.29.4H13.31a11.34 11.34 0 0 1 10.75-7.9h.29a.71.71 0 0 0 .76-.63A11.79 11.79 0 0 1 42 31.75a11.9 11.9 0 0 1 4.3 3.6.75.75 0 1 0 1.21-.89 13.42 13.42 0 0 0-4.31-3.76 19.35 19.35 0 0 1 36.94-1 17.52 17.52 0 0 0-4.63.09.75.75 0 1 0 .23 1.48 16 16 0 0 1 5.26.06h.08A15.81 15.81 0 0 1 94 46.92a15.2 15.2 0 0 1-.16 2.08z"/></svg>