<svg data-name="Layer 2" xmlns="http://www.w3.org/2000/svg" viewBox="0 0 108 108"><title>Icon_RH_nature_mostlycloudy-day_RGB_Black</title><path d="M78.86 47.55a19.16 19.16 0 0 0-21.34-13.43l2.62-9.3a.78.78 0 0 0-1.31-.75L52.06 31l-4.6-13.69a1 1 0 0 0-1-.7 1 1 0 0 0-1 .7L41 30.77l-6.54-6.7a.78.78 0 0 0-1.3.75l2.54 9L21.78 31a1 1 0 0 0-1 1.69l9.56 10.83L21 45.93a.78.78 0 0 0 0 1.51l8.55 2.18a12.21 12.21 0 0 0-4 6.79 11.84 11.84 0 0 0-11.14 9.2.75.75 0 0 0 .73.91h17a12.32 12.32 0 0 0-5 12.26 1 1 0 0 0 1 .83h56.7a1 1 0 0 0 1-1.22 9.36 9.36 0 0 0-8.47-7.26 9.63 9.63 0 0 0-2.63-4.62h15.68a.75.75 0 0 0 .74-.62 15.84 15.84 0 0 0-12.3-18.34zM58.94 25.39l-2.4 8.53a16.21 16.21 0 0 0-3.76-2.21zm-12.45-6.26l4 11.79a15.8 15.8 0 0 0-7.93 0zm-12.14 6.26l6.06 6.22a16.23 16.23 0 0 0-3.72 2.12zm12.14 7a14.26 14.26 0 0 1 8 2.44A19.14 19.14 0 0 0 42.1 47.55a12.09 12.09 0 0 0-4.58-.9 12.31 12.31 0 0 0-5.24 1.16c0-.38-.05-.76-.05-1.14a14.28 14.28 0 0 1 14.26-14.25zm-23.63.35L35 35.22a16.28 16.28 0 0 0-4 6.7zm-.8 13.92l8.32-2.12a14.65 14.65 0 0 0 0 4.24zm53.48 25.61a1 1 0 0 0 1 .85h.21a7.35 7.35 0 0 1 6.73 4.49H29a9.56 9.56 0 0 1-.05-1 10.44 10.44 0 0 1 8.53-10.26h.06a10.54 10.54 0 0 1 3.47 0 1 1 0 1 0 .3-2 12.63 12.63 0 0 0-2.55-.12 12.88 12.88 0 0 1 24.22 1 9.74 9.74 0 0 0-2.8 2.55 1 1 0 1 0 1.61 1.18 7.73 7.73 0 0 1 2.79-2.34 7.66 7.66 0 0 1 11 5.71zM89.78 65h-17A9.68 9.68 0 0 0 68 63.77a9.53 9.53 0 0 0-3.17.54 14.89 14.89 0 0 0-28.31.2 12.38 12.38 0 0 0-1.58.5H16.09a10.33 10.33 0 0 1 9.77-7.12h.26a.76.76 0 0 0 .76-.63 10.74 10.74 0 0 1 15.38-8 10.84 10.84 0 0 1 3.92 3.28.75.75 0 1 0 1.21-.89 12.36 12.36 0 0 0-3.94-3.44 17.67 17.67 0 0 1 33.7-.95 16.18 16.18 0 0 0-4.16.09.75.75 0 1 0 .23 1.48 14.66 14.66 0 0 1 4.8.06h.07a14.43 14.43 0 0 1 11.83 14.23 13.79 13.79 0 0 1-.14 1.88z"/></svg>