<svg id="Layer_2" data-name="Layer 2" xmlns="http://www.w3.org/2000/svg" viewBox="0 0 108 108"><defs><style>.cls-1{fill:#fff;}</style></defs><title>Icon_RH_nature_thunderstorm-scattered_RGB_White</title><path class="cls-1" d="M38.5 69.91a.75.75 0 0 0-1.06 0l-5.77 5.77a.75.75 0 1 0 1.06 1.06L38.5 71a.75.75 0 0 0 0-1.09zm-.38 16.48l-3.54 3.54a.5.5 0 1 0 .71.71l3.54-3.54a.5.5 0 0 0-.71-.71zm-8.05-25.8l-5.54 5.54a.75.75 0 1 0 1.06 1.06l5.54-5.54a.75.75 0 0 0-1.06-1.06zm4.39-2.26L38 54.79a.75.75 0 0 0-1.06-1.06l-3.54 3.54a.75.75 0 1 0 1.06 1.06zm-6.25 20.81l-3.54 3.54a.75.75 0 1 0 1.06 1.06l3.54-3.54a.75.75 0 0 0-1.06-1.06zm-7-9.68L17.66 73a.75.75 0 1 0 1.06 1.06l3.54-3.54a.75.75 0 0 0-1.06-1.06zm-3.62-11.25l3.54-3.54a.5.5 0 0 0-.71-.71l-3.54 3.54a.47.47 0 0 0-.06.1l-.09.06-3.54 3.54a.5.5 0 1 0 .71.71l3.54-3.54a.47.47 0 0 0 .06-.1zm30.15 3.52a.75.75 0 0 0-1.06-1.06l-5.77 5.77A.75.75 0 1 0 42 67.5zm16.45-1.42l-3.54 3.54a.5.5 0 1 0 .71.71L64.9 61a.5.5 0 0 0-.71-.71zm7.23 9.3l-3.54 3.54a.75.75 0 1 0 1.06 1.06l3.54-3.54a.75.75 0 0 0-1.06-1.06zM81.81 30a20.87 20.87 0 0 0-40 0 13.28 13.28 0 0 0-18.07 9.62 12.84 12.84 0 0 0-12.14 10 .75.75 0 0 0 .73.91h58.24l-2.5 7.36a1 1 0 0 0 .93 1.34h6.86v18.44a1 1 0 0 0 .84 1h.16a1 1 0 0 0 .95-.68L86 54a1 1 0 0 0-1-1.28h-6.85v-2.17h16.33a.75.75 0 0 0 .74-.62A17.22 17.22 0 0 0 81.81 30zm1.8 24.73l-5.73 16.88V58.23a1 1 0 0 0-1-1h-6.46l2.27-6.68h3.46v3.17a1 1 0 0 0 1 1zM93.84 49H13.31a11.34 11.34 0 0 1 10.75-7.9h.29a.71.71 0 0 0 .76-.63A11.79 11.79 0 0 1 42 31.75a11.9 11.9 0 0 1 4.3 3.6.75.75 0 1 0 1.21-.89 13.42 13.42 0 0 0-4.31-3.76 19.34 19.34 0 0 1 36.94-1 17.52 17.52 0 0 0-4.63.08.75.75 0 1 0 .23 1.48 16 16 0 0 1 5.26.06h.08A15.81 15.81 0 0 1 94 46.92a15.2 15.2 0 0 1-.16 2.08zm-30.5 28.7l-7.57 7.57a.75.75 0 1 0 1.06 1.06l7.57-7.57a.75.75 0 0 0-1.06-1.06zm-9.66-24l-3.54 3.54a.75.75 0 1 0 1.06 1.06l3.54-3.54a.75.75 0 0 0-1.06-1.06zM51.17 74a.5.5 0 0 0 .71 0l5.93-5.93a.5.5 0 0 0-.71-.71l-5.93 5.93a.5.5 0 0 0 0 .71zm.05 15.77l-3.54 3.54a.75.75 0 1 0 1.06 1.06l3.54-3.54a.75.75 0 0 0-1.06-1.06zm-2.9-12.87a.5.5 0 0 0-.71 0l-5.93 5.93a.5.5 0 1 0 .71.71l5.93-5.93a.5.5 0 0 0 0-.71z"/></svg>