<svg data-name="Layer 2" xmlns="http://www.w3.org/2000/svg" viewBox="0 0 108 108"><title>Icon_RH_nature_cloudy_RGB_Black</title><path d="M82.75 41.42a20.56 20.56 0 0 0-39.42 0 13.1 13.1 0 0 0-17.8 9.48 12.66 12.66 0 0 0-12 9.84.75.75 0 0 0 .73.91h18.51a13.16 13.16 0 0 0-5.5 13.22 1 1 0 0 0 1 .83h61a1 1 0 0 0 1-1.22 10 10 0 0 0-9.08-7.74 10.28 10.28 0 0 0-2.93-5.08h17a.75.75 0 0 0 .74-.62 17 17 0 0 0-13.25-19.62zM79.3 67.93a1 1 0 0 0 1 .85h.23a8 8 0 0 1 7.35 5H29.12a10.6 10.6 0 0 1-.06-1.14 11.29 11.29 0 0 1 9.22-11.1h.06a11.46 11.46 0 0 1 3.76 0 1 1 0 1 0 .31-2 13.49 13.49 0 0 0-2.85-.12 13.91 13.91 0 0 1 26.23 1 10.41 10.41 0 0 0-3 2.74 1 1 0 0 0 1.61 1.19 8.38 8.38 0 0 1 3-2.54 8.3 8.3 0 0 1 11.9 6.12zm15.28-7.73H76.14a10.33 10.33 0 0 0-5.06-1.31 10.18 10.18 0 0 0-3.46.6 15.93 15.93 0 0 0-30.31.18 13.24 13.24 0 0 0-1.69.53H15.27a11.16 11.16 0 0 1 10.57-7.76h.29a.77.77 0 0 0 .76-.64 11.6 11.6 0 0 1 16.6-8.64 11.72 11.72 0 0 1 4.23 3.54.75.75 0 0 0 1.28-.87 13.21 13.21 0 0 0-4.25-3.71 19 19 0 0 1 36.36-1 17.37 17.37 0 0 0-4.54.09.75.75 0 1 0 .23 1.48 15.88 15.88 0 0 1 5.18.06h.08a15.56 15.56 0 0 1 12.72 15.3 14.76 14.76 0 0 1-.2 2.14z"/></svg>