<svg data-name="Layer 2" xmlns="http://www.w3.org/2000/svg" viewBox="0 0 108 108"><title>Icon_RH_nature_foggy_RGB_Black</title><path d="M26.83 56.24a11.9 11.9 0 0 0 .17 2.08.75.75 0 0 0 .74.62H83.5a.75.75 0 0 0 .73-.91A8.75 8.75 0 0 0 83.5 56h5.92a1 1 0 0 0 0-2h-6.7a1 1 0 0 0-.49.14 9 9 0 0 0-6.28-3 9.23 9.23 0 0 0-2.72-4.74H89a.75.75 0 0 0 .74-.62 15.58 15.58 0 0 0-12.09-18 18.87 18.87 0 0 0-36.13 0 12 12 0 0 0-16.29 8.69 11.64 11.64 0 0 0-10.95 9 .75.75 0 0 0 .73.91h17.08a12 12 0 0 0-5 7.64H14.42a1 1 0 0 0 0 2h12.42c0 .04-.01.13-.01.22zM16 44.83a10.14 10.14 0 0 1 9.58-7h.28a.75.75 0 0 0 .74-.64 10.54 10.54 0 0 1 15.09-7.85 10.64 10.64 0 0 1 3.84 3.22.75.75 0 0 0 1.21-.89 12.15 12.15 0 0 0-3.86-3.38A17.35 17.35 0 0 1 76 27.4a15.94 15.94 0 0 0-4.07.09.75.75 0 0 0 .19 1.51 14.37 14.37 0 0 1 4.72.06h.07A14.16 14.16 0 0 1 88.48 43a13.37 13.37 0 0 1-.13 1.84H71.06a9.29 9.29 0 0 0-4.14-1 9.14 9.14 0 0 0-3.27.6 14.4 14.4 0 0 0-27.48.09c-.35.08-.69.17-1 .28zm20.92 1.1h.05a10.63 10.63 0 0 1 3.49 0 .75.75 0 1 0 .23-1.48 12.24 12.24 0 0 0-2.83-.1 12.89 12.89 0 0 1 24.43.83 9.35 9.35 0 0 0-2.84 2.53.75.75 0 0 0 1.21.89 7.84 7.84 0 0 1 2.83-2.37 7.76 7.76 0 0 1 11.1 5.78.75.75 0 0 0 .74.64h.21a7.46 7.46 0 0 1 7 4.88H28.41a9.72 9.72 0 0 1-.08-1.2 10.48 10.48 0 0 1 8.57-10.4zm44 37.24H33.4a.5.5 0 0 0 0 1h47.52a.5.5 0 0 0 0-1zm11.5-19.72H19.89a1 1 0 0 0 0 2h72.53a1 1 0 0 0 0-2zm-8.57 9.72H19a.75.75 0 0 0 0 1.5h64.85a.75.75 0 0 0 0-1.5z"/></svg>