<svg data-name="Layer 1" xmlns="http://www.w3.org/2000/svg" viewBox="0 0 46.21 59.61"><title>Icon_RH_Nature_Acorn_RGB_Black</title><path d="M46.16 24.16a11.53 11.53 0 0 0-2.4-5.74 19.51 19.51 0 0 0-5-4.5 29 29 0 0 0-6.43-3 27.87 27.87 0 0 0-6.86-1.41h-1c-1.45-3.92 2.72-5.72 3.2-5.91a1 1 0 0 0 0-1.87L23.14.14a1 1 0 0 0-.8.06c-4.39 2.35-4.12 8.24-4 9.92-.9.19-1.8.39-2.69.6l-.54.14A20.91 20.91 0 0 0 2.6 18.47c-2.8 3.73-3.63 9-.6 12.88a1 1 0 0 0 1 .26l.35-.13a28.83 28.83 0 0 0 4 17.13c3.32 5.5 8.2 8.46 13.94 10.87a.73.73 0 0 0 .53.2.74.74 0 0 0 .71-.21c5.7-2.44 11.66-5.67 15.58-10.67s4.68-11.32 5.2-17.53l.2.06a1 1 0 0 0 1.13-.46 11.75 11.75 0 0 0 1.52-6.71zm-2-.31a11.72 11.72 0 0 0-5 3.11 25.58 25.58 0 0 0-.05-3.16 11.64 11.64 0 0 1 4.42-2.11 8.7 8.7 0 0 1 .58 2.16zm-1.07-3a12.42 12.42 0 0 0-4.08 1.88c-.09-.81-.2-1.62-.34-2.43a12.79 12.79 0 0 0-.39-1.5c.68-.44 1.38-.84 2.09-1.22a13 13 0 0 1 2.67 3.22zm-3.48-3.94c-.54.3-1.07.62-1.59.95a19.31 19.31 0 0 0-1.44-3 22 22 0 0 1 2.98 2.03zm-1.5 7.59a22.47 22.47 0 0 1 0 3.3q-1.34-.31-2.71-.56a9.37 9.37 0 0 1 2.71-2.74zm-3.61 2.22a32.89 32.89 0 0 0-1-4c.67-.67 1.34-1.27 1.86-1.74a22.92 22.92 0 0 1 2-1.61c0 .12.07.25.09.37.23 1.18.42 2.38.53 3.59a12.4 12.4 0 0 0-3.45 3.39zm2.61-8.35a24.68 24.68 0 0 0-3.41 2.83l-.53.53a30.4 30.4 0 0 0-1.55-3.62 39.9 39.9 0 0 1 3.79-3.17 17.17 17.17 0 0 1 1.7 3.43zm-29 5.78a25.74 25.74 0 0 1 2.13-4.83A23.48 23.48 0 0 1 14 23.2a17.53 17.53 0 0 0-.81 3.47c-.72.11-1.43.24-2.14.38a12.34 12.34 0 0 0-2.94-2.9zm1.9 3.11c-1 .21-2 .47-2.92.74.21-1 .43-1.91.7-2.83A14.72 14.72 0 0 1 10 27.25zm.74-8.77a19.23 19.23 0 0 1 3-3.64 23 23 0 0 1 3.45 2.19l-.06.09a26.8 26.8 0 0 0-2.75 5 23.27 23.27 0 0 0-3.65-3.65zm4 5.68c.55.73 1 1.44 1.51 2.13q-1 .1-2 .24a16.49 16.49 0 0 1 .47-2.38zm.36-1.14a25.32 25.32 0 0 1 2.86-5.37c.36.3.71.61 1 .91a13 13 0 0 1 2.21 2.83 23.18 23.18 0 0 0-1.91 4.67c-.64 0-1.28.07-1.92.11-.67-1-1.41-2.07-2.24-3.15zm3.42-6.23c.59-.85 1.2-1.68 1.85-2.47.28.27.56.54.83.82.8.83 1.56 1.69 2.3 2.57-.62.86-1.22 1.74-1.75 2.65a13.55 13.55 0 0 0-2.06-2.55c-.36-.3-.76-.64-1.17-1.02zm3.24 5.64A21 21 0 0 1 23.11 26h-2.74a22.29 22.29 0 0 1 1.4-3.52zm.57-1.07a31.23 31.23 0 0 1 1.83-2.85l.19.23a33.43 33.43 0 0 1 2.58 3.82 14.88 14.88 0 0 0-1.31 3.47l-1.52-.01a21.56 21.56 0 0 0-1.77-4.62zm2.44-3.68a41.88 41.88 0 0 1 3.23-3.74 25.52 25.52 0 0 1 2.44 3.93 20.9 20.9 0 0 0-3 3.7 34.61 34.61 0 0 0-2.34-3.45zm2.75 6c.45.85.85 1.73 1.22 2.63-.7-.07-1.4-.12-2.1-.17a14.3 14.3 0 0 1 .87-2.46zm.58-1.1a19 19 0 0 1 2.83-3.73l.09.18a29.87 29.87 0 0 1 1.41 3.52 9 9 0 0 0-2.4 3.9h-.15a30.46 30.46 0 0 0-1.78-3.87zm4.67 1a32.85 32.85 0 0 1 .78 3.36q-1.27-.21-2.56-.37a7.37 7.37 0 0 1 1.75-3.01zm-2.96-11.37a29.53 29.53 0 0 1 5.06 1.82v.06a42.94 42.94 0 0 0-3.74 3.1 27.86 27.86 0 0 0-2.48-3.91c.45-.37.79-.72 1.16-1.07zm-1.16-.28l-.6.57c-.26-.29-.52-.56-.8-.83.46.12.93.12 1.4.26zm-4.36-.51h1.15a10.87 10.87 0 0 1 1.91 1.73 43.05 43.05 0 0 0-3.25 3.79c-.88-1-1.8-2.07-2.77-3l-.3-.31a15.29 15.29 0 0 1 2.5-2.25h.29a1 1 0 0 0 .46.04zm-1.49-9.34l2 .71a6.11 6.11 0 0 0-2.54 6.66c-.3 0-.6 0-.9.05s-.77.1-1.15.15c-.11-1.42-.22-5.72 2.58-7.57zm-1.1 9.45a18.26 18.26 0 0 0-1.34 1.32c-.32-.34-.66-.68-1-1 .8-.12 1.6-.23 2.34-.32zm-4.51.74l1-.2a1.07 1.07 0 0 0 .43.58l.89.83.18.18c-.67.81-1.3 1.67-1.92 2.54a23.87 23.87 0 0 0-3.21-2.09 19.46 19.46 0 0 1 2.63-1.84zm-2.86.72c-.26.21-.52.42-.76.63l-.56-.24q.65-.21 1.32-.39zm-2.76.93c.39.13.78.28 1.18.45a20.22 20.22 0 0 0-2.84 3.51 11.07 11.07 0 0 0-2.81-1.37 18.51 18.51 0 0 1 4.47-2.59zM5.64 17.8c.19-.19.38-.35.57-.53a9.35 9.35 0 0 1 3.2 1.43 26.38 26.38 0 0 0-2.16 4.78 12 12 0 0 0-4.14-2.09 14 14 0 0 1 2.53-3.59zM3 29.35a7.49 7.49 0 0 1-.35-7 11.06 11.06 0 0 1 4.12 2.07l.17.12c-.38 1.23-.68 2.5-.94 3.8-1.02.29-2.02.62-3 1.01zm18.11 27.86c-5-2.17-9.26-4.85-12.19-9.7a26.65 26.65 0 0 1-3.66-16.89c.6-.2 1.2-.39 1.81-.57l1.12-.31a60.39 60.39 0 0 1 24.76-.87c2.74 10.32-3.54 22.34-11.84 28.34zm15.76-10c-2.73 3.66-6.7 6.34-10.85 8.39 6.73-6.8 11.09-17.04 9.09-26.35 2.13.41 4.22.9 6.25 1.48-.44 5.74-.9 11.68-4.46 16.46zm6.37-18c-1.24-.38-2.5-.72-3.78-1 .9-1.57 3-2.67 4.72-3.29a9.5 9.5 0 0 1-.91 4.29z"/></svg>