<svg id="Layer_2" data-name="Layer 2" xmlns="http://www.w3.org/2000/svg" viewBox="0 0 108 108"><defs><style>.cls-1{fill:#fff;}</style></defs><title>Icon_RH_nature_mix-rain-snow_RGB_White</title><path class="cls-1" d="M49.26 64.28a1 1 0 1 0 1.41 1.41l.06-.06a1 1 0 0 0 0-1.38 1 1 0 0 0-1.47.03zM44 69.51a1 1 0 1 0 1.41 1.41l.06-.06a1 1 0 0 0 0-1.38 1 1 0 0 0-1.47.03zm3.89 8.81A1.5 1.5 0 1 0 50 80.43l.07-.07a1.46 1.46 0 0 0 0-2.09 1.54 1.54 0 0 0-2.14.04zM42.2 84a1.5 1.5 0 1 0 2.12 2.12l.07-.07a1.46 1.46 0 0 0 0-2.09 1.54 1.54 0 0 0-2.19.04zm4.72 9.38a1 1 0 1 0 1.41 1.41 1 1 0 0 0 0-1.4 1 1 0 0 0-1.41.03zM28.4 85.15a1 1 0 1 0 1.41 1.41 1 1 0 0 0 0-1.4 1 1 0 0 0-1.41-.01zm10.42-10.42a1 1 0 1 0 1.41 1.41l.06-.06a1 1 0 0 0 0-1.38 1 1 0 0 0-1.47.03zM33.59 80A1 1 0 1 0 35 81.37l.06-.06a1 1 0 0 0 0-1.38 1 1 0 0 0-1.47.07zm2.95 9.74l-.07.07a1.5 1.5 0 1 0 2.12 2.12l.07-.07a1.5 1.5 0 0 0-2.12-2.12zm17.12-17.16a1.5 1.5 0 1 0 2.12 2.12l.07-.07a1.46 1.46 0 0 0 0-2.09 1.54 1.54 0 0 0-2.19.04zm14.52-.42a1 1 0 1 0 1.41 1.41 1 1 0 0 0 0-1.4 1 1 0 0 0-1.41 0zm14-1.21a.5.5 0 0 0 .5.5 8.72 8.72 0 0 0 8.71-8.71.5.5 0 0 0-1 0 7.72 7.72 0 0 1-7.71 7.71.5.5 0 0 0-.47.55zm-14.3-12.87l-1.05-2.92 2.07-3.59 2.1 3.59-1.05 2.92a.5.5 0 0 0 .3.64h.17a.5.5 0 0 0 .47-.33l.77-2.13.94 1.63a3.14 3.14 0 1 0 1.74-1l-.94-1.63 2.2.4a.51.51 0 0 0 .58-.4.5.5 0 0 0-.4-.58l-3-.55-2.07-3.58h4.13l2 2.35a.5.5 0 0 0 .76-.65l-1.44-1.71H78a3.11 3.11 0 1 0 0-2h-1.9l1.46-1.73a.5.5 0 0 0-.76-.65l-2 2.37h-4.18L72.69 45l3.06-.55a.5.5 0 0 0-.18-1l-2.22.4.95-1.64a3.12 3.12 0 1 0-1.73-1l-.94 1.63-.76-2.11a.5.5 0 0 0-.94.34L71 44l-2.1 3.56L66.83 44l1-2.9a.5.5 0 0 0-.94-.34l-.76 2.11-.94-1.63a3.36 3.36 0 1 0-1.74 1l1 1.65-2.22-.4a.5.5 0 0 0-.18 1l3.06.55 2.07 3.59H63l-2-2.37a.5.5 0 0 0-.76.65l1.46 1.73h-1.87a3.1 3.1 0 1 0 0 2h1.89l-1.46 1.66a.5.5 0 1 0 .76.65l2-2.35h4.13l-2.07 3.58-3 .55a.5.5 0 0 0-.4.58.51.51 0 0 0 .58.4l2.2-.4-.94 1.63a3.1 3.1 0 1 0-.6 6.14 3.14 3.14 0 0 0 .78-.08 3.08 3.08 0 0 0 1.53-5l.95-1.64.77 2.13a.5.5 0 0 0 .47.33h.17a.5.5 0 0 0 .29-.74zm5.46 1.48a1.61 1.61 0 1 1 .16 1.22 1.59 1.59 0 0 1-.16-1.22zM80.89 48a1.61 1.61 0 1 1-1.61 1.61A1.61 1.61 0 0 1 80.89 48zm-7.38-9.59a1.61 1.61 0 1 1-.16 1.22 1.61 1.61 0 0 1 .16-1.24zm-9.8 2.18a1.61 1.61 0 1 1 .59-2.19 1.61 1.61 0 0 1-.59 2.18zM56.9 51.18a1.61 1.61 0 1 1 1.61-1.61 1.61 1.61 0 0 1-1.61 1.61zm7.38 9.59a1.61 1.61 0 1 1-1.81-2.35 1.62 1.62 0 0 1 .42-.06 1.61 1.61 0 0 1 1.39 2.41zm25.79-10.22h4.42a.75.75 0 0 0 .74-.62A17.22 17.22 0 0 0 81.81 30a20.87 20.87 0 0 0-40 0 13.28 13.28 0 0 0-18.07 9.62 12.84 12.84 0 0 0-12.14 10 .75.75 0 0 0 .73.91h11.18l-10 10a.5.5 0 1 0 .71.71l10.7-10.69h11.63L16.68 70.43a.75.75 0 1 0 1.06 1.06l20.93-20.94H50L21.63 78.88a.75.75 0 1 0 1.06 1.06l29.49-29.49a.71.71 0 0 0 .07-.1.74.74 0 0 0 .24-.54.75.75 0 0 0-.75-.75H13.31a11.34 11.34 0 0 1 10.75-7.9h.29a.71.71 0 0 0 .76-.63A11.79 11.79 0 0 1 42 31.75a11.9 11.9 0 0 1 4.3 3.6.75.75 0 1 0 1.21-.89 13.42 13.42 0 0 0-4.31-3.76 19.35 19.35 0 0 1 36.94-1 17.52 17.52 0 0 0-4.63.09.75.75 0 1 0 .23 1.48 16 16 0 0 1 5.26.06h.08A15.81 15.81 0 0 1 94 46.92a15.2 15.2 0 0 1-.16 2.08H89c-2.06-2.89-4-5.63-4.9-8.07a1.47 1.47 0 0 0-1.39-1 1.47 1.47 0 0 0-1.39 1 17.55 17.55 0 0 1-1.53 3 1 1 0 1 0 1.71 1 23.2 23.2 0 0 0 1.21-2.21 50.25 50.25 0 0 0 4.76 7.51c3 4.25 6.17 8.64 6.17 12.41a10.92 10.92 0 0 1-21.74 1.47 1 1 0 1 0-2 .27 12.92 12.92 0 0 0 25.72-1.74c.01-3.86-2.68-8.02-5.55-12.09zM59.38 66.86A1.5 1.5 0 1 0 61.5 69l.07-.07a1.46 1.46 0 0 0 0-2.09 1.54 1.54 0 0 0-2.19.02zm-3.48-6.39a1 1 0 0 0 0-1.4 1 1 0 0 0-1.43 0 1 1 0 1 0 1.41 1.41zm1.63 22.34A1 1 0 1 0 59 84.22l.07-.07a1 1 0 0 0 0-1.38 1 1 0 0 0-1.53.04zm-5.32 5.32a1 1 0 1 0 1.41 1.41l.07-.07a1 1 0 0 0 0-1.38 1 1 0 0 0-1.48.04zm10.65-10.64a1 1 0 1 0 1.41 1.41l.07-.07a1 1 0 0 0 0-1.38 1 1 0 0 0-1.48.04z"/></svg>