<?xml version="1.0" encoding="utf-8"?>
<!-- Generator: Adobe Illustrator 17.1.0, SVG Export Plug-In . SVG Version: 6.00 Build 0)  -->
<!DOCTYPE svg PUBLIC "-//W3C//DTD SVG 1.1//EN" "http://www.w3.org/Graphics/SVG/1.1/DTD/svg11.dtd">
<svg version="1.1" id="Layer_1" xmlns="http://www.w3.org/2000/svg" xmlns:xlink="http://www.w3.org/1999/xlink" x="0px" y="0px"
	 viewBox="0 0 576 792" enable-background="new 0 0 576 792" xml:space="preserve">
<path d="M317.126,393.982c-0.151-0.193-0.416-0.307-0.662-0.307c-1.568,0-15.644,0.247-26.721,8.783
	c-5.592,4.308-10.261,9.138-13.149,13.602c-2.504,3.869-3.429,7.142-2.711,9.429c-11.287,9.702-16.176,15.125-16.257,15.215
	c-0.439,0.492-0.396,1.248,0.097,1.688l0.892,0.795c0.228,0.202,0.511,0.303,0.794,0.303c0.329,0,0.656-0.135,0.892-0.398
	c0.081-0.09,4.906-5.42,15.994-14.947c0.855,0.383,1.893,0.582,3.121,0.582c5.522,0,14.38-4.076,22.566-10.382
	c11.501-8.863,15.173-23.076,15.322-23.676C317.364,394.428,317.277,394.176,317.126,393.982z M275.223,427.482
	c-10.98,9.454-15.735,14.721-15.814,14.811l-0.892-0.795c0.08-0.09,4.867-5.393,15.901-14.896c0.399-0.343,0.804-0.69,1.219-1.045
	c7.862-6.71,18.672-15.365,32.952-25.661l0.698,0.968c-14.233,10.263-25.002,18.883-32.832,25.562
	C276.037,426.785,275.627,427.136,275.223,427.482z M307.876,410.067c-0.024-0.009-0.048-0.023-0.075-0.026l-5.575-0.797
	c-0.218-0.028-0.419,0.121-0.45,0.338c-0.031,0.217,0.12,0.42,0.338,0.451l5.213,0.744c-0.375,0.474-0.764,0.943-1.169,1.409
	l-6.405-0.749c-0.219-0.023-0.416,0.13-0.442,0.349c-0.025,0.219,0.131,0.417,0.35,0.441l5.852,0.686
	c-1.342,1.471-2.836,2.883-4.502,4.167c-1.781,1.372-3.59,2.628-5.383,3.763c-0.041-0.023-0.085-0.043-0.134-0.049l-5.575-0.796
	c-0.215-0.032-0.419,0.12-0.449,0.337c-0.031,0.218,0.119,0.42,0.338,0.451l4.805,0.688c-5.823,3.534-11.392,5.658-15.196,5.658
	c-0.647,0-1.223-0.062-1.723-0.184c7.772-6.611,18.374-15.08,32.294-25.116c0.535-0.386,0.656-1.132,0.272-1.667l-0.699-0.97
	c-0.185-0.257-0.465-0.43-0.777-0.48c-0.065-0.011-0.127-0.015-0.191-0.015c-0.25,0-0.494,0.077-0.699,0.225
	c-14.07,10.145-24.783,18.705-32.639,25.391c-0.193-1.795,0.727-4.375,2.68-7.392c1.005-1.552,2.242-3.153,3.661-4.763l-0.488,4.981
	c-0.022,0.219,0.138,0.414,0.357,0.436c0.013,0.001,0.026,0.001,0.039,0.001c0.202,0,0.376-0.153,0.397-0.359l0.587-5.982
	c0.001-0.017-0.005-0.032-0.005-0.047c0.355-0.385,0.713-0.768,1.088-1.152l-0.505,5.144c-0.021,0.219,0.139,0.414,0.357,0.435
	c0.013,0.001,0.026,0.002,0.04,0.002c0.202,0,0.375-0.154,0.395-0.359l0.587-5.982c0.004-0.034-0.006-0.065-0.011-0.097
	c1.899-1.864,4.006-3.707,6.284-5.463c0.722-0.555,1.459-1.07,2.206-1.555l-0.666,4.662c-0.031,0.218,0.12,0.419,0.338,0.45
	c0.018,0.003,0.038,0.004,0.057,0.004c0.194,0,0.366-0.144,0.394-0.341l0.763-5.332c8.674-5.276,18.446-6.163,21.657-6.31
	C314.707,397.713,312.444,404.033,307.876,410.067z"/>
</svg>
