<svg data-name="Layer 1" xmlns="http://www.w3.org/2000/svg" viewBox="0 0 73.83 45.63"><title>Icon_RH_Nature_Rainbow_RGB_Black</title><path d="M72.86 32.9c-.11-.18-.22-.37-.34-.56a7.85 7.85 0 0 0-7-3.65v-.28a28.41 28.41 0 0 0-56.82-.54 11.26 11.26 0 0 0-1.37 2.34 6.31 6.31 0 0 0-5.94 1.8 4.91 4.91 0 0 0-1 5.33 4.83 4.83 0 0 0 4.39 3h.59a10.25 10.25 0 0 0 6.73 4.77 9.26 9.26 0 0 0 1.59.14 13.12 13.12 0 0 0 6.81-2.19 7.58 7.58 0 0 0 6.05 2.08 7.28 7.28 0 0 0 5.52-3.44 7.15 7.15 0 0 0 .54-6.36c-.08-.2-.16-.4-.25-.6a7.86 7.86 0 0 0-6.44-4.64 11.1 11.1 0 0 1-.15-1.68 11.3 11.3 0 1 1 22.59 0v.13a11.37 11.37 0 0 0-1.3 3 6.22 6.22 0 0 0-5.61 2.66 4.9 4.9 0 0 0-.16 5.41 4.84 4.84 0 0 0 4.79 2.34l.58-.09a10.25 10.25 0 0 0 7.37 3.72h.21a12.41 12.41 0 0 0 7.79-3.28 7.6 7.6 0 0 0 6.3 1.16 7.28 7.28 0 0 0 4.95-4.23 7.14 7.14 0 0 0-.42-6.34zM37.08 2a26.45 26.45 0 0 1 26.37 24.95 9.94 9.94 0 0 0-3.94-2.14 22.72 22.72 0 0 0-44.82-.31h-.11a10.4 10.4 0 0 0-1.08.21l-.3.07c-.23.07-.45.15-.67.23a9.15 9.15 0 0 0-1.73.8A26.51 26.51 0 0 1 37.08 2zm21.39 22.58c-.2 0-.39-.08-.59-.1a11.07 11.07 0 0 0-3.21.1 18 18 0 0 0-35.24.35l-.38-.12a11.11 11.11 0 0 0-3.34-.38 21.73 21.73 0 0 1 42.75.16zm-27.92 11c.08.17.15.33.21.49a5.17 5.17 0 0 1-.38 4.6 5.3 5.3 0 0 1-4 2.5 5.78 5.78 0 0 1-5-2.07 1 1 0 0 0-1.35-.11s-3.68 2.82-7.58 2.18c-2.22-.36-4.15-1.87-5.72-4.36a1 1 0 0 0-.81-.5h-.2a5.12 5.12 0 0 1-.89 0 2.82 2.82 0 0 1-2.59-1.8 2.94 2.94 0 0 1 .57-3.19c1.19-1.25 2.86-1.6 4.95-1a1 1 0 0 0 1.23-.7 1 1 0 0 0 0-.34 8.6 8.6 0 0 1 2.31-3.39 7 7 0 0 1 2.38-1.19 8.93 8.93 0 0 1 4.73 0 7.89 7.89 0 0 1 5.39 4.71 1 1 0 0 0 .93.64H25.14a5.82 5.82 0 0 1 5.4 3.54zm6.53-20.47a13.31 13.31 0 0 0-13.27 12.51 10.06 10.06 0 0 0-3.43-2.35 17 17 0 0 1 33.31-.46 9.84 9.84 0 0 0-3.46 1.68 13.32 13.32 0 0 0-13.15-11.37zM71.43 38.5a5.3 5.3 0 0 1-3.6 3.07 5.78 5.78 0 0 1-5.25-1.3 1 1 0 0 0-1.35.1s-3.19 3.32-7.15 3.26c-2.26-.05-4.38-1.22-6.31-3.49a1 1 0 0 0-.76-.35 1 1 0 0 0-.31 0 5.35 5.35 0 0 1-.87.18A2.81 2.81 0 0 1 43 38.58a2.94 2.94 0 0 1 .09-3.23c1-1.42 2.58-2 4.74-1.75a1 1 0 0 0 1.09-1.19 9.34 9.34 0 0 1 1-2.68 1 1 0 0 0 .21-.23 5.26 5.26 0 0 1 .55-.72 8.28 8.28 0 0 1 6.82-2.26 7.93 7.93 0 0 1 6 3.73 1.23 1.23 0 0 0 1.18.55 5.84 5.84 0 0 1 6.07 2.65c.1.15.19.3.28.45a5.16 5.16 0 0 1 .4 4.6z"/></svg>