<svg id="Layer_1" data-name="Layer 1" xmlns="http://www.w3.org/2000/svg" viewBox="0 0 72 72"><defs><style>.cls-1{fill:#fff}</style></defs><circle class="cls-1" cx="12.48" cy="28.44" r=".71"/><path class="cls-1" d="M65.84 45.21a19.94 19.94 0 0 0-1.67-3.37c-.51-.83-1.88-2.68-2.69-3.71a20 20 0 0 0-1.88-12.77 17.32 17.32 0 0 0-2.8-3.66c-4-4-7.74-4.91-10.21-5a21.19 21.19 0 0 0-6.11.87c-.49.13-.92.26-1.31.38a7.94 7.94 0 0 1-2.85.51 7.25 7.25 0 0 1-2.1-.42l-1.47-.41a42.81 42.81 0 0 0-5.22-1c-2.35-.27-4.23.87-6.05 2a11.4 11.4 0 0 1-3.81 1.74 3 3 0 0 0-1-.42s-2.1-.46-2.67-.08l-.32.22v.36a4.21 4.21 0 0 0 .07 1.28 5.87 5.87 0 0 0-.84.46A8.33 8.33 0 0 0 11 24a5.5 5.5 0 0 0-.83 1.31 4.89 4.89 0 0 0-.27 1.1c0 .12-.05.24-.07.36a3.74 3.74 0 0 1-.77 1.79 7.26 7.26 0 0 1-1.72 1.4l-.34.13c-.15.08-.31.16-.47.26a1.15 1.15 0 0 0-.63 1c0 .31.11.51 1.17 2a3.51 3.51 0 0 0 1.83 1.48 2.93 2.93 0 0 0 .85.14h.13a4.34 4.34 0 0 0 1.22-.29 8.83 8.83 0 0 0 6.25-.57 8 8 0 0 1 2.38-.76 3.72 3.72 0 0 1 2.09.23 4.6 4.6 0 0 1 2.41 2.29 4 4 0 0 1 .11 3.33 5 5 0 0 1-1.28 1.49l-.26.18a10.28 10.28 0 0 1-2.64 1.47 3.64 3.64 0 0 0-1.51.35 3.89 3.89 0 0 0-.81.55 3.23 3.23 0 0 1-.32.26 1.82 1.82 0 0 1-.6.28 8.05 8.05 0 0 0-.82.31 4.14 4.14 0 0 0-2.52 2 3.63 3.63 0 0 0 1.6 4.29 3.63 3.63 0 0 0 2.48.43 4.79 4.79 0 0 0 2-.82 3.8 3.8 0 0 0 .72-.73 1.58 1.58 0 0 1 .46-.47 2.25 2.25 0 0 1 .89-.07H22a13 13 0 0 0 7.91-2.39 9.72 9.72 0 0 1 1.54 2.32 4.91 4.91 0 0 0-.57.15 2.49 2.49 0 0 0-1.51 1.15 4 4 0 0 0-.08 2.05.77.77 0 0 0 .76.57h6.44a.78.78 0 0 0 .73-.5c.24-.61.46-1.37.67-2.11s.41-1.43.62-2a3.92 3.92 0 0 0 0-2.8 20.29 20.29 0 0 0-1-2.22c.86.08 1.73.13 2.6.13a27.85 27.85 0 0 0 7.22-1v4.49c-.16 2.15-.74 3-1.7 3.6a4.83 4.83 0 0 1-1.47.62A2.71 2.71 0 0 0 42.41 52a4 4 0 0 0 .19 3 .78.78 0 0 0 .69.4h8.58a.81.81 0 0 0 .64-.32c.62-.85 1.27-2 1.9-3.06.41-.73.84-1.47 1.25-2.11.19-.29.75-1.24 1.9-3.18a8.94 8.94 0 0 1 1.19 1.9 4.05 4.05 0 0 0-.57.15 2.49 2.49 0 0 0-1.51 1.15 4.17 4.17 0 0 0-.16 2.07.79.79 0 0 0 .76.57h6.44a.78.78 0 0 0 .73-.5c.23-.6.48-1.36.71-2.09s.47-1.44.68-2a4 4 0 0 0 .01-2.77zM37 45.78a2.34 2.34 0 0 1 0 1.67c-.23.61-.45 1.37-.66 2.1l-.44 1.47h-5.15a2 2 0 0 1 0-.4c.08-.16.37-.26.63-.36a2.22 2.22 0 0 1 .65-.13 1.19 1.19 0 0 0 .92-.41c.7-.91-.71-3-1.83-4.39a17.28 17.28 0 0 0 1.77-1.76l.33-.38c.21-.26.43-.51.65-.77.55.12 1.1.23 1.66.32A18.62 18.62 0 0 1 37 45.78zm17.29 3.27c-.43.66-.87 1.43-1.29 2.17-.53.91-1.07 1.85-1.58 2.59h-7.57a3.09 3.09 0 0 1-.08-1c.1-.15.32-.23.86-.39a6.49 6.49 0 0 0 1.91-.83c1.52-1 2.21-2.42 2.39-4.79v-3.26c0-.87 0-1.48-.06-2a5.94 5.94 0 0 1 .05-1.67 6.35 6.35 0 0 1 1.6-3 .78.78 0 0 0 0-1.11.79.79 0 0 0-1.12 0 7.76 7.76 0 0 0-2 3.7 4.9 4.9 0 0 0-.11 1A26.7 26.7 0 0 1 35 41a13.91 13.91 0 0 0 .9-1.36 1.85 1.85 0 0 0 .24-1.11c0-.54-.11-1.08-.19-1.61a21.5 21.5 0 0 0-.61-2.64.78.78 0 0 0-1-.53.79.79 0 0 0-.54 1 18.5 18.5 0 0 1 .56 2.45c.08.49.15 1 .19 1.48a.45.45 0 0 1 0 .2A23.29 23.29 0 0 1 32 42.16l-.33.38A12.08 12.08 0 0 1 22 47.11h-.26a3.48 3.48 0 0 0-1.6.21 3 3 0 0 0-1.05.93 2.09 2.09 0 0 1-.39.43 3.27 3.27 0 0 1-1.34.54A2.11 2.11 0 0 1 16 49a2.05 2.05 0 0 1-1-2.34c.19-.46.77-.73 1.7-1.14a6.5 6.5 0 0 1 .66-.24 3.43 3.43 0 0 0 1-.5c.17-.12.3-.24.43-.34l.11-.09a12.61 12.61 0 0 0 4.75-2.2L24 42a6.39 6.39 0 0 0 1.78-2.1 5.51 5.51 0 0 0-.1-4.69 6.16 6.16 0 0 0-3.26-3.08 5.34 5.34 0 0 0-3-.32 9.42 9.42 0 0 0-2.82.92 6.61 6.61 0 0 1-3.52.69.76.76 0 0 0 0-1 .78.78 0 0 0-1.11 0 4.11 4.11 0 0 1-2.16 1 1 1 0 0 1-.41-.07c-.43-.13-.7-.5-1-1-.12-.17-.38-.53-.59-.84l.39-.21a8.72 8.72 0 0 0 2.11-1.72 5.34 5.34 0 0 0 1.13-2.5c0-.14.05-.28.08-.43a3.35 3.35 0 0 1 .18-.77 3.75 3.75 0 0 1 .6-.91 6.84 6.84 0 0 1 1.55-1.43 4.69 4.69 0 0 1 .55-.31 4.7 4.7 0 0 0 1.32 1.33.79.79 0 0 0 .87-1.33 2.78 2.78 0 0 1-1.17-1.52 3.59 3.59 0 0 1-.08-.35c.43.05.93.12 1.07.15a1.25 1.25 0 0 1 .71.43.79.79 0 0 0 1.1.18.68.68 0 0 0 .22-.26A14 14 0 0 0 22.3 20c1.67-1 3.24-2 5.05-1.76a42.63 42.63 0 0 1 5 .94c.58.15 1 .29 1.42.4a8.66 8.66 0 0 0 2.51.48 9.09 9.09 0 0 0 3.35-.58l1.26-.37a20.06 20.06 0 0 1 5.64-.81c2.19.08 5.55.93 9.15 4.54a15.48 15.48 0 0 1 2.53 3.3 18.19 18.19 0 0 1 1.19 13.77 22.47 22.47 0 0 1-2.25 4.39c-1.62 2.7-2.6 4.4-2.82 4.75zm10-1.6c-.23.6-.47 1.35-.7 2.08-.17.51-.34 1-.5 1.49H58a1.53 1.53 0 0 1 .06-.4c.07-.16.37-.26.62-.36a2.28 2.28 0 0 1 .66-.13 1.18 1.18 0 0 0 .92-.42c.7-.92-.75-3.1-1.88-4.44l.1-.16a23.64 23.64 0 0 0 2.42-4.71l.09-.3c.71.93 1.5 2 1.84 2.57a18.32 18.32 0 0 1 1.53 3.11 2.34 2.34 0 0 1-.01 1.67z"/></svg>