<svg xmlns="http://www.w3.org/2000/svg" viewBox="0 0 80.01 58.89"><title>Icon_RH_Diagrams_Graph-Arrow-FlatHigh_RGB_Black</title><path d="M79.77 19.65l-6.18-2.91a.41.41 0 0 0-.59.37v1.87h-7.22V1.83a1.84 1.84 0 0 0-1.84-1.84H8.73a1.84 1.84 0 0 0-1.84 1.84v17.15H1a1 1 0 1 0 0 2h5.9v36.07a1.84 1.84 0 0 0 1.84 1.84h55.21a1.84 1.84 0 0 0 1.84-1.84V20.98H73v1.88a.41.41 0 0 0 .58.37l6.18-2.79a.41.41 0 0 0 .01-.79zM21.7 56.88H8.89v-13H21.7zm0-14H8.89V29.64H21.7zm0-14.21H8.89v-7.69H21.7zm0-9.66H8.89v-3.57H21.7zm0-4.55H8.89V2H21.7zm14.22 42.46H22.7v-13h13.22zm0-14H22.7V29.64h13.22zm0-14.21H22.7v-7.73h13.22zm0-9.66H22.7v-3.61h13.22zm0-4.55H22.7V2h13.22zm14.21 42.46H36.92v-13h13.21zm0-14H36.92V29.64h13.21zm0-14.21H36.92v-7.77h13.21zm0-9.66H36.92v-3.65h13.21zm0-4.55H36.92V2h13.21zM63.78 57H51.13V44h12.65zm0-14H51.13V29.64h12.65zm0-14.21H51.13v-7.81h12.65zm0-9.66H51.13v-3.69h12.65zm0-4.55H51.13V2h12.65z"/></svg>