<svg data-name="Layer 1" xmlns="http://www.w3.org/2000/svg" viewBox="0 0 82.9 39.15"><title>Icon_RH_Diagram_ProcessImprovement-A_RGB_Black</title><path d="M19.59 11.3a5.65 5.65 0 1 0-5.65-5.65 5.65 5.65 0 0 0 5.65 5.65zm0-9.79a4.15 4.15 0 1 1-4.15 4.15 4.15 4.15 0 0 1 4.15-4.16zm.5 11.8a.5.5 0 0 0-1 0v.5a.5.5 0 0 0 1 0zm13.79 2.51a.5.5 0 0 0-.5.5v.5a.5.5 0 0 0 1 0v-.5a.5.5 0 0 0-.5-.5zm0-4.52a5.65 5.65 0 1 0-5.65-5.65 5.65 5.65 0 0 0 5.65 5.65zm0-9.79a4.15 4.15 0 1 1-4.15 4.15 4.15 4.15 0 0 1 4.15-4.16zm14.79 11.8a.5.5 0 0 0-1 0v.5a.5.5 0 0 0 1 0zm-14.29 0a.5.5 0 0 0-1 0v.5a.5.5 0 0 0 1 0zm13.79 2.51a.5.5 0 0 0-.5.5v.5a.5.5 0 0 0 1 0v-.5a.5.5 0 0 0-.49-.5zm0-4.52a5.65 5.65 0 1 0-5.65-5.65 5.65 5.65 0 0 0 5.66 5.65zm0-9.79a4.15 4.15 0 1 1-4.15 4.15 4.15 4.15 0 0 1 4.16-4.16zM19.59 15.82a.5.5 0 0 0-.5.5v.5a.5.5 0 0 0 1 0v-.5a.5.5 0 0 0-.5-.5zm14.29 7.53a.5.5 0 0 0 .5-.5v-.5a.5.5 0 0 0-1 0v.5a.5.5 0 0 0 .5.49zm14.29 0a.5.5 0 0 0 .5-.5v-.5a.5.5 0 0 0-1 0v.5a.5.5 0 0 0 .51.49zm0 4.52a5.65 5.65 0 1 0 5.66 5.64 5.65 5.65 0 0 0-5.65-5.65zm0 9.79a4.15 4.15 0 1 1 4.15-4.15 4.15 4.15 0 0 1-4.14 4.15zm-.5-11.8a.5.5 0 0 0 1 0v-.5a.5.5 0 0 0-1 0zm-42-12.08a5.65 5.65 0 1 0 5.65 5.65 5.65 5.65 0 0 0-5.67-5.66zm0 9.79a4.15 4.15 0 1 1 4.16-4.15 4.15 4.15 0 0 1-4.18 4.14zm47.63-5H14.69a1 1 0 1 0 0 2h38.59v3l6.91-4-6.91-4zm18.94-9.85a10.69 10.69 0 1 0 10.67 10.7A10.7 10.7 0 0 0 72.22 8.73zm0 19.37a8.69 8.69 0 1 1 8.69-8.69 8.7 8.7 0 0 1-8.71 8.68zm-53.15-2.24a.5.5 0 0 0 1 0v-.5a.5.5 0 0 0-1 0zm14.29 0a.5.5 0 0 0 1 0v-.5a.5.5 0 0 0-1 0zm-13.79 2a5.65 5.65 0 1 0 5.65 5.65 5.65 5.65 0 0 0-5.65-5.64zm0 9.79a4.15 4.15 0 1 1 4.15-4.15 4.15 4.15 0 0 1-4.15 4.17zm14.29-9.79a5.65 5.65 0 1 0 5.65 5.65 5.65 5.65 0 0 0-5.65-5.64zm0 9.79a4.15 4.15 0 1 1 4.15-4.15 4.15 4.15 0 0 1-4.15 4.17zm-14.29-14.3a.5.5 0 0 0 .5-.5v-.5a.5.5 0 0 0-1 0v.5a.5.5 0 0 0 .5.5z"/></svg>