<?xml version="1.0" encoding="utf-8"?>
<!-- Generator: Adobe Illustrator 17.1.0, SVG Export Plug-In . SVG Version: 6.00 Build 0)  -->
<!DOCTYPE svg PUBLIC "-//W3C//DTD SVG 1.1//EN" "http://www.w3.org/Graphics/SVG/1.1/DTD/svg11.dtd">
<svg version="1.1" id="Layer_1" xmlns="http://www.w3.org/2000/svg" xmlns:xlink="http://www.w3.org/1999/xlink" x="0px" y="0px"
	 viewBox="0 0 216 216" enable-background="new 0 0 216 216" xml:space="preserve">
<g>
	<path d="M136.95,132.672h-5.29V82.044c0-0.447-0.363-0.811-0.811-0.811h-14.677c-0.447,0-0.811,0.363-0.811,0.811v7.406h-13.574
		c-0.448,0-0.811,0.363-0.811,0.81v5.763H87.784c-0.447,0-0.81,0.363-0.81,0.811v35.838h-6.844V82.247
		c0-0.597-0.483-1.081-1.08-1.081c-0.597,0-1.081,0.484-1.081,1.081v51.507c0,0.596,0.484,1.08,1.081,1.08h57.899
		c0.597,0,1.08-0.484,1.08-1.08C138.03,133.156,137.547,132.672,136.95,132.672z M130.039,82.854v49.817h-13.034V90.261
		c0-0.039-0.017-0.072-0.021-0.11v-7.296H130.039z M115.362,91.071v41.601h-12.721V96.834c0-0.077-0.023-0.146-0.044-0.217v-5.546
		H115.362z M88.595,97.645h12.383v35.027H88.595V97.645z"/>
</g>
</svg>
