<?xml version="1.0" encoding="utf-8"?>
<!-- Generator: Adobe Illustrator 17.1.0, SVG Export Plug-In . SVG Version: 6.00 Build 0)  -->
<!DOCTYPE svg PUBLIC "-//W3C//DTD SVG 1.1//EN" "http://www.w3.org/Graphics/SVG/1.1/DTD/svg11.dtd">
<svg version="1.1" id="Layer_1" xmlns="http://www.w3.org/2000/svg" xmlns:xlink="http://www.w3.org/1999/xlink" x="0px" y="0px"
	 viewBox="0 0 108 108" enable-background="new 0 0 108 108" xml:space="preserve">
<g>
	<path fill="#FFFFFF" d="M85.79,64.822V43.04c0-0.553-0.447-1-1-1H55.767V31.819c4.698-0.481,8.376-4.46,8.376-9.284
		c0-5.146-4.188-9.333-9.333-9.333c-5.146,0-9.333,4.188-9.333,9.333c0,4.794,3.633,8.75,8.29,9.271V42.04H24.743
		c-0.554,0-1,0.447-1,1v21.768c-4.706,0.474-8.393,4.456-8.393,9.285c0,5.147,4.187,9.333,9.334,9.333
		c5.145,0,9.333-4.186,9.333-9.333c0-4.788-3.626-8.74-8.274-9.269V44.04h28.023v20.782c-4.657,0.52-8.29,4.476-8.29,9.27
		c0,5.147,4.187,9.333,9.333,9.333c5.146,0,9.333-4.186,9.333-9.333c0-4.823-3.678-8.804-8.376-9.284V44.04H83.79v20.769
		c-4.698,0.48-8.376,4.461-8.376,9.284c0,5.147,4.187,9.333,9.333,9.333c5.146,0,9.333-4.186,9.333-9.333
		C94.08,69.299,90.446,65.343,85.79,64.822z M32.018,74.093c0,4.043-3.29,7.333-7.333,7.333c-4.043,0-7.334-3.29-7.334-7.333
		c0-4.044,3.291-7.333,7.334-7.333C28.728,66.76,32.018,70.049,32.018,74.093z M62.143,74.093c0,4.043-3.29,7.333-7.333,7.333
		c-4.043,0-7.333-3.29-7.333-7.333c0-4.044,3.29-7.333,7.333-7.333C58.853,66.76,62.143,70.049,62.143,74.093z M54.81,29.868
		c-4.043,0-7.333-3.29-7.333-7.333c0-4.043,3.29-7.333,7.333-7.333c4.043,0,7.333,3.29,7.333,7.333
		C62.143,26.578,58.853,29.868,54.81,29.868z M84.747,81.426c-4.043,0-7.333-3.29-7.333-7.333c0-4.044,3.29-7.333,7.333-7.333
		c4.043,0,7.333,3.289,7.333,7.333C92.08,78.136,88.79,81.426,84.747,81.426z"/>
</g>
</svg>
