<svg id="Icon" xmlns="http://www.w3.org/2000/svg" viewBox="0 0 58.89 58.89"><defs><style>.cls-1{fill:#fff;}</style></defs><title>Icon_RH_Diagrams_Financial-Flat-Low_RGB_White</title><path class="cls-1" d="M57.06 0H1.84A1.84 1.84 0 0 0 0 1.84v55.22a1.84 1.84 0 0 0 1.84 1.84h55.21a1.84 1.84 0 0 0 1.84-1.84V1.83A1.84 1.84 0 0 0 57.06 0zm-7.07 42.73h2.73l-.81.9-1.91-.64zM30.34 2h18.65v6.31H30.34zm0 7.31h18.65v10.13H30.34zm0 11.14h18.65v10.14H30.34zm0 11.14h18.65v10.14h-.2l-1-1.65a1 1 0 0 0-.82-.47 1.08 1.08 0 0 0-.85.43l-1.18 1.7h-6.7l-3.33-3.07a1 1 0 0 0-1.6.34l-1.18 2.73h-1.79zm13.87 11.14l-.76 1.09-3.71-.67-.46-.42zm-13.87 0h1.32l-.3.71-1-.49zM10.7 2h18.64v6.31H10.7zm0 7.31h18.64v10.13H10.7zm0 11.14h18.64v10.14H10.7zm0 11.14h18.64v10.14h-1.55l-3.3-1.57a1 1 0 0 0-1 .09l-2.08 1.48h-1.55l-.82-.4a1 1 0 0 0-1.1.15l-.28.25h-7zm0 11.14h5.79l-.53.47-5.3 1.69zM2 2h7.69v6.31H2zm0 7.31h7.69v10.13H2zm0 11.14h7.69v10.14H2zm0 11.14h7.69v10.14H7.56a1 1 0 0 0-.81-.45 1 1 0 0 0-.83.41l-.06.09H2zm7.69 11.14V45l-1.48-2.27zm-7.69 0h3.09l-.87 1.2L2 44.6zm54.89 14.16H2v-10.2l3.12-.95a1 1 0 0 0 .52-.37l1-1.38 1.9 2.91a1 1 0 0 0 .84.45 1 1 0 0 0 .3 0l7.11-2.27a1 1 0 0 0 .36-.2l1.62-1.44 1.68.82a1 1 0 0 0 1-.08l2.72-1.93 7.25 3.47a1 1 0 0 0 .78 0 1 1 0 0 0 .57-.54l1.77-4.1 4.05 3.74a1 1 0 0 0 .5.25l4.63.83a1 1 0 0 0 1-.41l2.13-3.07 1.1 1.76a1 1 0 0 0 .53.42l3.4 1.13a1 1 0 0 0 1.06-.28l1.69-1.88 2.25 1.7zm0-14.11h-.06.06zm0-1h-1.4l-.39-.3a1 1 0 0 0-1.35.13l-.15.17h-3.61V31.59h6.9zm0-11.14h-6.9v-10.2h6.9zm0-11.14h-6.9V9.3h6.9zm0-11.14h-6.9V2h6.9z"/></svg>