<svg id="Layer_1" data-name="Layer 1" xmlns="http://www.w3.org/2000/svg" viewBox="0 0 71.47 73.64"><defs><style>.cls-1{fill:#fff;}</style></defs><title>Icon_RH_Diagrams_Transparency_RGB_White</title><path class="cls-1" d="M44.95 50.69a.5.5 0 0 0-.63.32l-.2.61h-.64a.5.5 0 0 0 0 1h1.36l.42-1.3a.5.5 0 0 0-.31-.63zm-4.4.93h-1.94a.5.5 0 0 0 0 1h2a.5.5 0 0 0 0-1zm-14.67.07h-2a.5.5 0 0 0 0 1h2a.5.5 0 0 0 0-1zm4.89 0h-2a.5.5 0 1 0 0 1h2a.5.5 0 0 0 0-1zm4.89 0h-2a.5.5 0 0 0 0 1h2a.5.5 0 0 0 0-1zm35.4-11.64L53.39 27.21l2.14-6.59a.75.75 0 0 0-.27-.84L28.26.14a.75.75 0 0 0-.88 0l-27 19.64a.75.75 0 0 0-.27.84L10.36 52.4a.75.75 0 0 0 .71.52h8.19l6.51 20a1 1 0 0 0 1 .69h33.37a1 1 0 0 0 1-.69l10.28-31.76a1 1 0 0 0-.36-1.11zM11.61 51.42l-10-30.73 26.17-19 26.16 19-1.83 5.59-8.09-5.88a1 1 0 0 0-1.18 0l-27 19.64a1 1 0 0 0-.36 1.12l3.33 10.25zm47.81 20.21h-32l-6.16-19.06a.49.49 0 0 0 .23-.41.5.5 0 0 0-.5-.5l-3.38-10.42 25.83-18.79 8.24 6-.05.16a.5.5 0 0 0 .32.63h.15a.49.49 0 0 0 .39-.23l16.8 12.23zM46.54 45.86a.5.5 0 0 0-.63.32l-.63 2a.5.5 0 0 0 .32.63h.15a.5.5 0 0 0 .48-.35l.63-2a.5.5 0 0 0-.32-.6zm4.76-14.65a.5.5 0 0 0-.63.32l-.63 2a.5.5 0 0 0 .32.63h.15a.5.5 0 0 0 .48-.35l.63-2a.5.5 0 0 0-.32-.6zm-1.59 4.88a.5.5 0 0 0-.63.32l-.63 2a.5.5 0 0 0 .32.63h.15a.5.5 0 0 0 .48-.35l.63-2a.5.5 0 0 0-.32-.6zm-1.59 4.88a.5.5 0 0 0-.63.32l-.63 2a.5.5 0 0 0 .32.63h.15a.5.5 0 0 0 .48-.35l.63-2a.5.5 0 0 0-.31-.6z"/></svg>