<?xml version="1.0" encoding="utf-8"?>
<!-- Generator: Adobe Illustrator 17.1.0, SVG Export Plug-In . SVG Version: 6.00 Build 0)  -->
<!DOCTYPE svg PUBLIC "-//W3C//DTD SVG 1.1//EN" "http://www.w3.org/Graphics/SVG/1.1/DTD/svg11.dtd">
<svg version="1.1" id="Layer_1" xmlns="http://www.w3.org/2000/svg" xmlns:xlink="http://www.w3.org/1999/xlink" x="0px" y="0px"
	 viewBox="0 0 216 216" enable-background="new 0 0 216 216" xml:space="preserve">
<g>
	<path fill="#FFFFFF" d="M78.999,133.609c-0.153,0.572-0.411,1.094-0.717,1.582c0.307-0.489,0.566-1.01,0.723-1.581
		c0.227-0.859,0.25-1.737,0.09-2.583C79.254,131.874,79.229,132.752,78.999,133.609z"/>
	<path fill="#FFFFFF" d="M108.501,126.291c2.983,0.256,5.333,2.76,5.333,5.809c0,1.157-0.343,2.233-0.926,3.141
		c0.583-0.907,0.926-1.983,0.926-3.141c0-3.051-2.35-5.551-5.33-5.811v-22.748h-0.003V126.291z"/>
	<path fill="#FFFFFF" d="M68.313,135.016c-0.405-0.701-0.651-1.462-0.742-2.242c0.091,0.782,0.338,1.545,0.744,2.246
		c0.348,0.602,0.802,1.118,1.322,1.549C69.116,136.135,68.661,135.618,68.313,135.016z"/>
	<path fill="#FFFFFF" d="M90.183,126.289c-0.373,0.033-0.736,0.1-1.085,0.2c0.35-0.099,0.712-0.166,1.085-0.198V126.289z"/>
	<path fill="#FFFFFF" d="M107.501,126.291v-0.001c-2.989,0.261-5.337,2.76-5.337,5.81c0,1.61,0.655,3.067,1.713,4.122
		c-1.056-1.056-1.71-2.514-1.71-4.122C102.167,129.051,104.518,126.547,107.501,126.291z"/>
	<path fill="#FFFFFF" d="M70.447,127.05c-0.001,0-0.002,0.001-0.002,0.001c-0.833,0.481-1.494,1.157-1.99,1.946
		C68.952,128.207,69.615,127.53,70.447,127.05z"/>
	<path fill="#FFFFFF" d="M94.502,136.499c0.539-0.468,0.993-1.032,1.331-1.667C95.495,135.467,95.041,136.03,94.502,136.499z"/>
	<path fill="#FFFFFF" d="M78.28,128.978c-0.966-1.525-2.601-2.516-4.392-2.676C75.68,126.468,77.31,127.453,78.28,128.978z"/>
	<path fill="#FFFFFF" d="M76.284,137.149c0.13-0.075,0.239-0.175,0.362-0.259c-0.124,0.085-0.233,0.185-0.364,0.26
		C76.283,137.15,76.283,137.15,76.284,137.149z"/>
	<path fill="#FFFFFF" d="M69.868,136.761c-0.014-0.011-0.031-0.019-0.045-0.03C69.837,136.742,69.853,136.75,69.868,136.761z"/>
	<path fill="#FFFFFF" d="M143.309,126.323c0.671,0.077,1.324,0.267,1.931,0.569C144.634,126.588,143.981,126.398,143.309,126.323z"
		/>
	<path fill="#FFFFFF" d="M77.274,136.422c-0.019,0.017-0.034,0.04-0.053,0.057C77.24,136.461,77.255,136.439,77.274,136.422z"/>
	<path fill="#FFFFFF" d="M72.865,102.541h34.636v-0.002H72.864v23.76c-0.528,0.044-1.042,0.165-1.538,0.348
		c0.495-0.182,1.012-0.303,1.538-0.348V102.541z"/>
	<path fill="#FFFFFF" d="M117.421,89.558c3.109-2.656,5.083-6.6,5.083-10.999c0-3.001-0.916-5.79-2.482-8.105
		c1.565,2.315,2.48,5.103,2.48,8.102C122.501,82.957,120.528,86.902,117.421,89.558z"/>
	<path fill="#FFFFFF" d="M108.501,102.541h34.633v-0.002h-34.63V93.03c0.198-0.007,0.39-0.035,0.586-0.049
		c-0.197,0.015-0.391,0.043-0.59,0.049V102.541z"/>
	<path fill="#FFFFFF" d="M148.469,132.27c0.017-0.561-0.047-1.126-0.194-1.68c-0.167-0.616-0.448-1.175-0.788-1.69
		c0.34,0.516,0.62,1.075,0.785,1.69C148.42,131.145,148.484,131.71,148.469,132.27z"/>
	<path fill="#FFFFFF" d="M91.183,126.291c0.745,0.064,1.451,0.268,2.091,0.587c-0.64-0.319-1.345-0.524-2.09-0.589v-22.748h0
		V126.291z"/>
	<path fill="#FFFFFF" d="M131.151,132.1c0,1.485-0.562,2.838-1.479,3.869c0.918-1.03,1.482-2.382,1.482-3.869
		c0-3.05-2.348-5.549-5.335-5.81v0.001C128.801,126.547,131.151,129.053,131.151,132.1z"/>
	<path fill="#FFFFFF" d="M144.874,137.484c0.983-0.407,1.841-1.084,2.474-1.958C146.711,136.397,145.855,137.075,144.874,137.484z"
		/>
	<path fill="#FFFFFF" d="M137.585,129.184c0.954-1.653,2.668-2.719,4.552-2.885v-22.758h-0.002v22.758
		c-1.88,0.16-3.6,1.23-4.55,2.881c-0.63,1.09-0.881,2.324-0.741,3.554C136.706,131.507,136.956,130.272,137.585,129.184z"/>
	<path fill="#FFFFFF" d="M124.818,126.291v-22.75h-0.003v22.748c-2.98,0.26-5.33,2.76-5.33,5.811c0,1.135,0.331,2.191,0.893,3.087
		c-0.562-0.897-0.892-1.953-0.892-3.087C119.485,129.051,121.835,126.547,124.818,126.291z"/>
	<path fill="#FFFFFF" d="M143.309,126.323c-0.057-0.007-0.114-0.019-0.172-0.024v-23.758h-0.002v23.758
		C143.193,126.304,143.25,126.316,143.309,126.323z"/>
	<path fill="#FFFFFF" d="M147.486,128.9c-0.493-0.748-1.135-1.391-1.934-1.851c-0.102-0.059-0.208-0.106-0.313-0.158
		c0.105,0.053,0.212,0.1,0.314,0.16C146.352,127.512,146.994,128.153,147.486,128.9z"/>
	<path fill="#FFFFFF" d="M148.469,132.27c-0.029,0.956-0.293,1.899-0.785,2.75c-0.101,0.177-0.218,0.342-0.337,0.506
		c0.12-0.165,0.239-0.331,0.342-0.51C148.18,134.165,148.442,133.225,148.469,132.27z"/>
	<path fill="#FFFFFF" d="M117.421,89.558c-2.277,1.945-5.166,3.184-8.33,3.422C112.255,92.743,115.144,91.504,117.421,89.558z"/>
	<path fill="#FFFFFF" d="M78.282,135.191c-0.284,0.451-0.61,0.872-1.008,1.23C77.672,136.063,77.998,135.643,78.282,135.191z"/>
	<path fill="#FFFFFF" d="M77.221,136.478c-0.176,0.154-0.379,0.278-0.575,0.412C76.841,136.757,77.045,136.632,77.221,136.478z"/>
	<path fill="#FFFFFF" d="M70.448,127.049C70.447,127.049,70.447,127.049,70.448,127.049c0.282-0.162,0.578-0.291,0.879-0.402
		C71.025,126.758,70.729,126.886,70.448,127.049z"/>
	<path fill="#FFFFFF" d="M148.469,132.27c0.016-0.56-0.049-1.124-0.198-1.68c-0.165-0.615-0.445-1.174-0.785-1.69
		c-0.493-0.747-1.134-1.388-1.932-1.849c-0.102-0.059-0.209-0.107-0.314-0.16c-0.607-0.302-1.26-0.492-1.931-0.569
		c-0.058-0.007-0.116-0.019-0.174-0.024v-23.758h-34.633V93.03c0.199-0.007,0.393-0.035,0.59-0.049
		c3.163-0.239,6.053-1.477,8.33-3.422c3.107-2.657,5.08-6.601,5.08-11.002c0-2.998-0.915-5.787-2.48-8.102
		c-2.609-3.856-7.024-6.394-12.017-6.394c-8,0-14.5,6.499-14.5,14.499c0,7.821,6.23,14.2,14,14.471v9.509h-0.003v0.002H72.865
		v23.758c-0.526,0.045-1.042,0.166-1.538,0.348c-0.301,0.111-0.597,0.24-0.88,0.403c-0.832,0.48-1.495,1.157-1.993,1.947
		c-0.308,0.49-0.566,1.014-0.72,1.593c-0.197,0.721-0.247,1.46-0.164,2.184c0.091,0.78,0.337,1.542,0.742,2.242
		c0.348,0.602,0.803,1.12,1.324,1.553c0.063,0.053,0.121,0.112,0.186,0.162c0.014,0.011,0.03,0.019,0.045,0.03
		c0.996,0.745,2.221,1.169,3.497,1.169c1.019,0,2.028-0.269,2.918-0.779c0.131-0.076,0.241-0.176,0.364-0.26
		c0.195-0.133,0.399-0.258,0.575-0.412c0.02-0.017,0.034-0.039,0.053-0.057c0.398-0.359,0.724-0.779,1.008-1.23
		c0.306-0.488,0.564-1.009,0.717-1.582c0.23-0.858,0.255-1.735,0.096-2.582c-0.121-0.642-0.345-1.266-0.682-1.848
		c-0.04-0.07-0.09-0.133-0.133-0.201c-0.97-1.526-2.6-2.511-4.392-2.676c-0.008-0.001-0.016-0.003-0.024-0.003v-22.76h16.32v22.75
		l-0.001,0v0.002c-0.373,0.032-0.736,0.099-1.085,0.198c-2.445,0.695-4.243,2.942-4.243,5.611c0,3.22,2.61,5.83,5.83,5.83
		c1.462,0,2.795-0.542,3.818-1.431c0.539-0.469,0.993-1.032,1.331-1.667c0.433-0.815,0.681-1.744,0.681-2.732
		c0-2.288-1.322-4.266-3.241-5.222c-0.64-0.318-1.345-0.523-2.091-0.587v-22.75h0v-0.002h16.321v22.75c-0.001,0-0.002,0-0.003,0.001
		v0.001c-2.983,0.256-5.334,2.76-5.334,5.809c0,1.608,0.654,3.066,1.71,4.122c1.058,1.055,2.518,1.708,4.128,1.708
		c2.056,0,3.865-1.073,4.904-2.689c0.583-0.908,0.926-1.984,0.926-3.141c0-3.049-2.35-5.553-5.333-5.809v-22.75h0.003v-0.002h16.31
		v0.002h0.003v22.75c-2.983,0.256-5.333,2.76-5.333,5.809c0,1.134,0.33,2.19,0.892,3.087c1.033,1.646,2.859,2.743,4.937,2.743
		c1.732,0,3.287-0.76,4.357-1.961c0.917-1.031,1.479-2.384,1.479-3.869c0-3.047-2.35-5.553-5.333-5.809v-0.001
		c-0.001,0-0.002,0-0.003-0.001v-22.75h16.32v0.002h0.002v22.758c-1.884,0.166-3.598,1.231-4.552,2.885
		c-0.629,1.089-0.879,2.323-0.742,3.55c0.033,0.293,0.082,0.586,0.161,0.876c0.4,1.499,1.37,2.759,2.72,3.539
		c0.88,0.511,1.89,0.78,2.91,0.78c0.78,0,1.54-0.156,2.24-0.446c0.981-0.409,1.838-1.086,2.474-1.958
		c0.118-0.164,0.235-0.329,0.337-0.506C148.176,134.169,148.44,133.226,148.469,132.27z M77.118,129.934
		c0.578,1.002,0.732,2.17,0.432,3.287c-0.299,1.119-1.016,2.053-2.019,2.631c-0.659,0.381-1.406,0.582-2.162,0.582
		c-1.545,0-2.985-0.83-3.757-2.168c-0.579-1.002-0.733-2.17-0.433-3.289c0.299-1.116,1.017-2.051,2.019-2.629
		c0.659-0.381,1.406-0.582,2.162-0.582C74.906,127.766,76.346,128.596,77.118,129.934z M95.016,132.1
		c0,2.39-1.943,4.334-4.333,4.334c-2.389,0-4.333-1.944-4.333-4.334c0-2.389,1.944-4.334,4.333-4.334
		C93.073,127.766,95.016,129.711,95.016,132.1z M112.334,132.1c0,2.39-1.944,4.334-4.333,4.334c-2.39,0-4.334-1.944-4.334-4.334
		c0-2.389,1.944-4.334,4.334-4.334C110.39,127.766,112.334,129.711,112.334,132.1z M108.001,91.056c-6.893,0-12.5-5.608-12.5-12.5
		c0-6.893,5.607-12.5,12.5-12.5c6.892,0,12.5,5.607,12.5,12.5C120.501,85.448,114.893,91.056,108.001,91.056z M129.651,132.1
		c0,2.39-1.943,4.334-4.333,4.334c-2.389,0-4.333-1.944-4.333-4.334c0-2.389,1.944-4.334,4.333-4.334
		C127.708,127.766,129.651,129.711,129.651,132.1z M146.39,134.266c-0.772,1.338-2.212,2.168-3.758,2.168
		c-0.756,0-1.503-0.201-2.162-0.582c-1.002-0.578-1.72-1.512-2.019-2.631c-0.3-1.117-0.146-2.285,0.433-3.287
		c0.772-1.338,2.211-2.168,3.757-2.168c0.756,0,1.503,0.201,2.162,0.582C146.872,129.541,147.584,132.196,146.39,134.266z"/>
	<path fill="#FFFFFF" d="M69.823,136.731c-0.065-0.05-0.123-0.109-0.186-0.162C69.7,136.621,69.758,136.681,69.823,136.731z"/>
	<path fill="#FFFFFF" d="M90.184,103.539h-16.32v22.76c0.008,0.001,0.016,0.003,0.024,0.003c-0.008-0.001-0.016-0.003-0.023-0.003
		v-22.758h16.318v22.748l0.001,0V103.539z"/>
	<path fill="#FFFFFF" d="M96.514,132.1c0,0.988-0.248,1.917-0.681,2.732c0.434-0.816,0.682-1.745,0.682-2.732
		c0-2.286-1.322-4.267-3.242-5.222C95.192,127.833,96.514,129.812,96.514,132.1z"/>
	<path fill="#FFFFFF" d="M125.315,137.93c-2.078,0-3.904-1.098-4.937-2.743c1.032,1.647,2.858,2.747,4.94,2.747
		c1.732,0,3.284-0.763,4.354-1.965C128.601,137.169,127.047,137.93,125.315,137.93z"/>
	<path fill="#FFFFFF" d="M107.504,93.03c-7.77-0.271-14-6.65-14-14.471c0-8,6.5-14.499,14.5-14.499
		c4.993,0,9.407,2.538,12.017,6.394c-2.608-3.858-7.023-6.398-12.02-6.398c-7.995,0-14.5,6.504-14.5,14.5
		c0,7.826,6.237,14.208,14,14.474v9.509h0.003V93.03z"/>
	<path fill="#FFFFFF" d="M108.004,137.93c-1.61,0-3.07-0.653-4.128-1.708c1.056,1.057,2.515,1.711,4.124,1.711
		c2.059,0,3.869-1.076,4.907-2.693C111.87,136.856,110.06,137.93,108.004,137.93z"/>
	<polygon fill="#FFFFFF" points="107.504,103.539 91.183,103.539 91.183,103.541 107.501,103.541 107.501,126.29 107.504,126.289 	
		"/>
	<polygon fill="#FFFFFF" points="125.815,103.539 125.815,126.289 125.818,126.29 125.818,103.541 142.134,103.541 142.134,103.539 
			"/>
	<path fill="#FFFFFF" d="M84.854,132.1c0-2.669,1.798-4.916,4.243-5.611c-2.448,0.692-4.248,2.943-4.248,5.611
		c0,3.217,2.617,5.834,5.833,5.834c1.461,0,2.795-0.544,3.819-1.435c-1.023,0.889-2.356,1.431-3.818,1.431
		C87.464,137.93,84.854,135.319,84.854,132.1z"/>
	<rect x="116.658" y="95.385" fill="#FFFFFF" width="0.002" height="16.31"/>
	<path fill="#FFFFFF" d="M69.868,136.761c0.996,0.746,2.22,1.173,3.501,1.173c1.019,0,2.026-0.271,2.912-0.782l0.001-0.001
		c-0.889,0.51-1.898,0.779-2.918,0.779C72.088,137.93,70.864,137.505,69.868,136.761z"/>
	<path fill="#FFFFFF" d="M67.734,130.59c0.153-0.578,0.412-1.103,0.72-1.593c-0.31,0.491-0.57,1.016-0.724,1.593
		c-0.194,0.723-0.243,1.461-0.159,2.184C67.487,132.05,67.537,131.311,67.734,130.59z"/>
	<path fill="#FFFFFF" d="M79.095,131.027c-0.12-0.64-0.343-1.263-0.679-1.844c-0.041-0.072-0.092-0.136-0.136-0.205
		c0.043,0.068,0.093,0.131,0.133,0.201C78.75,129.762,78.974,130.386,79.095,131.027z"/>
	<path fill="#FFFFFF" d="M139.724,137.149c-1.35-0.78-2.32-2.04-2.72-3.539c-0.079-0.291-0.128-0.583-0.161-0.876
		c0.033,0.293,0.081,0.585,0.159,0.875c0.403,1.505,1.368,2.763,2.718,3.542c0.887,0.512,1.894,0.782,2.912,0.782
		c0.781,0,1.541-0.158,2.242-0.45c-0.7,0.29-1.46,0.446-2.24,0.446C141.614,137.93,140.604,137.66,139.724,137.149z"/>
</g>
</svg>
