<svg xmlns="http://www.w3.org/2000/svg" viewBox="0 0 58.89 58.89"><title>Icon_RH_Diagrams_Financial-Flat-High_RGB_Black</title><path d="M57.05 0H1.83A1.84 1.84 0 0 0-.01 1.84v55.22a1.84 1.84 0 0 0 1.84 1.84h55.21a1.84 1.84 0 0 0 1.84-1.84V1.83A1.84 1.84 0 0 0 57.05 0zM30.34 2h18.65v6.31H30.34zm0 7.31h18.65v4.83l-1.23-2a1 1 0 0 0-.82-.47 1 1 0 0 0-.85.43l-2.65 3.8-3.71-.67-4.87-4.5a1 1 0 0 0-1.6.34l-1.92 4.44-1-.49zM10.69 2h18.65v6.31H10.69zm0 7.31h18.65v5.25l-4.83-2.32a1 1 0 0 0-1 .09l-2.72 1.93-1.75-.82a1 1 0 0 0-1.1.15l-1.95 1.72-5.3 1.69zM2 2h7.69v6.31H2zm0 7.31h7.69v7.78l-2.16-3.32a1 1 0 0 0-.81-.45 1.1 1.1 0 0 0-.83.41l-1.67 2.29-2.22.67zm54.89 47.58H2V18.77l3.12-.95a1 1 0 0 0 .52-.37l1-1.38 1.9 2.91a1 1 0 0 0 .84.45 1 1 0 0 0 .3 0l7.11-2.27a1 1 0 0 0 .36-.2l1.61-1.42 1.68.82a1 1 0 0 0 1-.08l2.72-1.93 7.28 3.42a1 1 0 0 0 .78 0 1 1 0 0 0 .57-.54l1.77-4.1 4.05 3.74a1 1 0 0 0 .5.25l4.63.83a1 1 0 0 0 1-.41l2.13-3.07 1.1 1.76a1 1 0 0 0 .53.42l3.4 1.13a1 1 0 0 0 1.06-.28l1.69-1.87 2.25 1.7zm0-42l-1.77-1.34a1 1 0 0 0-1.35.13l-1.87 2.07-1.91-.64V9.3h6.9zm0-6.55h-6.9V2h6.9z"/></svg>