<svg id="Layer_1" data-name="Layer 1" xmlns="http://www.w3.org/2000/svg" viewBox="0 0 72.3 71.27"><defs><style>.cls-1{fill:#fff;}</style></defs><title>Icon_RH_Diagrams_Collaboration_RGB_White</title><path class="cls-1" d="M33.08 21.15a.5.5 0 0 0-.69.15 21 21 0 0 0-1.24 2.26.5.5 0 1 0 .9.43 19.89 19.89 0 0 1 1.19-2.15.5.5 0 0 0-.16-.69zm.94 10.48a.5.5 0 0 0-.69-.15q-.69.45-1.34.94a.5.5 0 1 0 .61.79q.62-.47 1.27-.9a.5.5 0 0 0 .15-.68zm-3.19 2.41a.5.5 0 0 0-.68 0 .504.504 0 0 0-1 .13q0 .39.08.78l-.52.59a.492.492 0 0 0 .71.68.5.5 0 0 0 .48.39h.09a.5.5 0 0 0 .4-.58l-.12-.73.52-.52a.5.5 0 0 0 .05-.71zm-2.27-5.91a.5.5 0 0 0 .46.54h.45c0 .16-.06.31-.09.47a.5.5 0 0 0 .42.57h.08a.5.5 0 0 0 .49-.42q0-.25.09-.5l.5.08a.508.508 0 0 0 .18-1l-.47-.07c0-.15.07-.29.1-.44a.515.515 0 1 0-1-.25q-.07.27-.14.55l-.48.04a.49.49 0 0 0-.59.45zm2.3-13c.55.26 1.1.56 1.63.87a.5.5 0 0 0 .51-.86c-.55-.33-1.13-.64-1.71-.92a.5.5 0 1 0-.43.9zm5.76 14.62l-.71-.34a.5.5 0 0 0-.66.25.49.49 0 0 0 .2.62.5.5 0 0 0 .47.88l.68-.31.31.17.32.18a.49.49 0 0 0 .25.07.5.5 0 0 0 .43-.25.49.49 0 0 0-.14-.64.5.5 0 0 0 .26-.62.5.5 0 0 0-.64-.3l-.75.3zm-1.47-11.84l-.33.34a.5.5 0 1 0 .73.68l.35-.36.37.35a.5.5 0 1 0 .7-.71l-.35-.32.33-.3a.5.5 0 1 0-.66-.75l-.42.38-.43-.36a.5.5 0 0 0-.63.78zM33.6 42.63a.5.5 0 0 0-.45-.6l-.45-.08-.29-.05-.26-.66a.5.5 0 0 0-.67-.23.5.5 0 0 0-.24.63.49.49 0 0 0-.52.36.5.5 0 0 0 .36.61l.62.15v.09h.19l.38.64a.5.5 0 0 0 .69.16.5.5 0 0 0 .18-.63.5.5 0 0 0 .46-.39zm-1.25-13.9a.5.5 0 0 0 .35.62q.57.16 1.14.35H34a.506.506 0 0 0 .16-1q-.59-.2-1.19-.37a.5.5 0 0 0-.62.4zm-2.74 4.07a.5.5 0 0 0 .5-.49v-1.18a.5.5 0 1 0-1-.07q.04.57.04 1.24a.5.5 0 0 0 .46.51zm-5.33 14.64a.48.48 0 0 0-.53.47v1.81a.5.5 0 0 0 .5.48.5.5 0 0 0 .48-.52v-.61-1.12a.5.5 0 0 0-.45-.51zm-5.35-13.4c.32.48.67 1 1 1.41a.5.5 0 1 0 .78-.62c-.35-.43-.68-.88-1-1.34a.5.5 0 1 0-.83.56zm6.14 11.36c.11-.56.24-1.13.39-1.68a.518.518 0 1 0-1-.27c-.16.58-.3 1.17-.41 1.77a.5.5 0 0 0 .4.58h.09a.5.5 0 0 0 .52-.41zm-4.24-15.68h.16c.51-.18 1-.33 1.56-.47a.515.515 0 0 0-.25-1c-.55.14-1.1.3-1.64.49a.506.506 0 0 0 .16 1zm18-7.66a.5.5 0 1 0 .83-.56c-.32-.47-.66-.94-1-1.39a.5.5 0 0 0-.78.62c.27.44.64.9.94 1.33zm-13.94 6.72h.06c.53-.07 1.08-.11 1.62-.14a.5.5 0 0 0 0-1c-.57 0-1.15.07-1.71.14a.5.5 0 0 0 .06 1zm3.55 13q.51.21 1 .38h.16a.506.506 0 0 0 .16-1q-.5-.17-1-.37a.5.5 0 0 0-.37.93zm0-5.08a.5.5 0 0 0-.7.11q-.32.43-.61.87a.5.5 0 0 0 .83.55q.28-.42.58-.83a.5.5 0 0 0-.1-.77zM26.5 13.63c.6.13 1.2.29 1.79.47h.15a.506.506 0 0 0 .15-1c-.61-.19-1.24-.36-1.87-.5a.51.51 0 1 0-.21 1zm-4.6-.44h.4q.74 0 1.46.05a.5.5 0 0 0 0-1q-.76-.06-1.53-.06h-.41a.5.5 0 0 0 0 1zm25.85 36.59a.5.5 0 0 0 .5-.48v-.79-.9a.52.52 0 0 0-.52-.48.5.5 0 0 0-.48.52V49.26a.5.5 0 0 0 .5.52zm-4.37-36h.16c.61-.21 1.23-.39 1.85-.54a.513.513 0 1 0-.23-1c-.66.16-1.31.35-1.95.56a.506.506 0 0 0 .16 1zm4.82-1c.58-.05 1.17-.08 1.75-.08h.2a.5.5 0 0 0 0-1h-.19c-.61 0-1.23 0-1.84.08a.5.5 0 0 0 0 1zm-3 16a.5.5 0 0 0 .47.53c.54 0 1.08.08 1.61.16h.07a.5.5 0 0 0 .07-1c-.56-.08-1.13-.13-1.69-.16a.5.5 0 0 0-.51.39zm2.37 17a.5.5 0 0 0 .41-.58c-.09-.55-.21-1.11-.34-1.65a.514.514 0 1 0-1 .24q.19.78.33 1.58a.5.5 0 0 0 .49.42zm8.27-20c-.1.62-.24 1.24-.4 1.85a.5.5 0 0 0 .35.61h.13a.5.5 0 0 0 .48-.37c.17-.64.31-1.29.42-1.94a.507.507 0 0 0-1-.17zm-.18-7.53a.5.5 0 0 0 .49.39h.11a.5.5 0 0 0 .38-.6c-.14-.65-.32-1.3-.52-1.92a.523.523 0 1 0-1 .31c.26.49.43 1.1.56 1.72zm-6.35 11.1a.5.5 0 0 0 .35.61c.52.14 1 .3 1.55.48a.49.49 0 0 0 .17 0 .507.507 0 0 0 .17-1c-.53-.19-1.08-.36-1.62-.51a.5.5 0 0 0-.6.32zm2.16 6.67a.5.5 0 0 0 .71-.06q.54-.63 1-1.31a.5.5 0 1 0-.81-.58q-.46.64-1 1.25a.5.5 0 0 0 .12.61zm-7.94.16a.5.5 0 0 0 .07-.7l-.45-.71c0-.27 0-.54.05-.81a.5.5 0 0 0-.48-.52.49.49 0 0 0-.49.37.49.49 0 0 0-.64 0 .5.5 0 0 0 0 .71l.47.49v.06c0 .23-.05.46-.08.7a.5.5 0 0 0 .43.56h.07a.49.49 0 0 0 .46-.34.47.47 0 0 0 .61 0zm-2-8.1c0 .14.07.28.1.43l-.46.07a.506.506 0 1 0 .16 1l.51-.08c0 .17.06.34.09.51a.5.5 0 0 0 .49.42h.08a.5.5 0 0 0 .41-.57c0-.15-.06-.3-.09-.46h.44a.5.5 0 0 0 .46-.53.51.51 0 0 0-.53-.46h-.56c0-.19-.09-.37-.14-.55a.517.517 0 1 0-1 .26zm1.16 4.9a.5.5 0 0 0 .48-.52q0-.53-.06-1.05a.51.51 0 0 0-.54-.46.5.5 0 0 0-.46.54c0 .33 0 .67.06 1a.5.5 0 0 0 .5.4zm-3.72-17a.5.5 0 0 0 .27-.08c.54-.35 1.1-.68 1.67-1a.5.5 0 1 0-.46-.89c-.59.31-1.18.65-1.75 1a.5.5 0 0 0 .27.92zm1.34 7.6a.5.5 0 0 0-.22.67c.24.48.47 1 .67 1.49a.5.5 0 0 0 .46.31.51.51 0 0 0 .19 0 .5.5 0 0 0 .28-.65c-.21-.53-.45-1.06-.71-1.57a.5.5 0 0 0-.7-.32zm-.59 20.05a.5.5 0 0 0 .68-.18l.37-.68.79-.19a.513.513 0 0 0-.23-1 .5.5 0 0 0-.26-.63.5.5 0 0 0-.66.26l-.22.48-.04.14h-.18v.09l-.58.1a.502.502 0 0 0 .08 1h.05a.49.49 0 0 0 .2.61zm.33-10.48a.5.5 0 0 0 .64-.77l-.66-.52-.47-.35a.5.5 0 0 0-.59.81l.46.34zm.1 17.77A21 21 0 0 0 42.51 52a.5.5 0 1 0 .36-.93 19.83 19.83 0 0 1-2.25-1 .5.5 0 1 0-.47.88zm1.37-11.07h.13a.56.56 0 0 0 .51-.38l.07-.22c.06-.18.12-.37.19-.6s.09-.34.13-.51a.514.514 0 1 0-1-.24c0 .16-.08.32-.14.52s-.1.34-.16.51l-.1.3.46.19-.46-.15a.46.46 0 0 0 .37.59zm14.57-18.9q0 .71.05 1.43v.47a.5.5 0 0 0 .49.51.5.5 0 0 0 .5-.49v-.49q0-.76-.05-1.5a.51.51 0 0 0-.53-.46.5.5 0 0 0-.47.54zM45.15 41.23a.5.5 0 0 0 .22 0l.42-.22.17.41a.5.5 0 0 0 .93-.36l-.21-.52.49-.29a.5.5 0 1 0-.52-.85l-.39.23-.2-.42a.5.5 0 0 0-.91.42l.22.46-.46.23a.512.512 0 0 0 .22 1zm-.08-2.87a.5.5 0 0 0 .16-.69c-.19-.32-.4-.63-.61-.94a.5.5 0 1 0-.82.57q.3.44.58.89a.5.5 0 0 0 .43.24.49.49 0 0 0 .27-.07zm3.3 14l-.45-.05c0-.16.06-.31.09-.47a.506.506 0 1 0-1-.16q0 .25-.09.5l-.5-.08a.508.508 0 1 0-.18 1l.47.07c0 .15-.07.29-.1.44a.5.5 0 0 0 .36.61h.13a.5.5 0 0 0 .48-.37c0-.18.09-.36.13-.54l.55.06a.52.52 0 0 0 .54-.45.5.5 0 0 0-.42-.58zm-5 8.05c-.38.5-.78 1-1.21 1.47a.5.5 0 1 0 .74.67c.44-.49.87-1 1.27-1.54a.5.5 0 1 0-.8-.6zm3-4.38a.5.5 0 0 0-.66.26c-.25.58-.52 1.15-.83 1.71a.5.5 0 0 0 .88.48c.32-.58.61-1.19.87-1.8a.5.5 0 0 0-.28-.67zm-9.22-8.33l.33-.34a.502.502 0 1 0-.73-.69l-.35.36-.36-.35a.5.5 0 0 0-.7.71l.34.32-.33.31a.5.5 0 1 0 .66.75l.41-.37.43.36a.5.5 0 1 0 .63-.78zm2.92 16.13c-.49.4-1 .79-1.52 1.14a.5.5 0 0 0 .28.91.51.51 0 0 0 .28-.09c.55-.37 1.08-.77 1.6-1.2a.5.5 0 1 0-.64-.77zm-3.82-20.56h.85a.5.5 0 0 0 .48-.52.52.52 0 0 0-.52-.48h-1.55a.49.49 0 0 0-.52.48.5.5 0 0 0 .48.52zm3.17 1.74a.5.5 0 1 0-.82-.57q-.33.48-.69.93a.502.502 0 0 0 .79.62q.37-.48.72-.98zm13.61 7.17c-.61.09-1.23.16-1.86.2a.5.5 0 0 0 0 1c.66 0 1.31-.11 2-.21a.506.506 0 1 0-.15-1zm8.58-3.55c-.5.36-1 .71-1.56 1a.5.5 0 1 0 .51.86c.56-.33 1.12-.69 1.64-1.07a.5.5 0 1 0-.59-.81zM49.8 36.94q-.58.54-1.2 1a.5.5 0 1 0 .62.78c.43-.34.86-.71 1.26-1.08a.5.5 0 0 0-.68-.73zm11.55-.31a.5.5 0 1 0-.8.6c.36.49.71 1 1 1.52a.5.5 0 1 0 .85-.52c-.25-.54-.67-1.08-1.05-1.6zm10.95-4.3a22 22 0 0 0-17-21.38 21.93 21.93 0 0 0-38.33.62A21.93 21.93 0 0 0 5.3 47.23c0 .53-.06 1-.06 1.52a21.94 21.94 0 0 0 30.1 20.35 21.7 21.7 0 0 0 9.49 2.16 22 22 0 0 0 21.93-21.93 21.45 21.45 0 0 0-.12-2.29 21.83 21.83 0 0 0 5.66-14.7zm-7.15 13.11a.51.51 0 1 0-1 .19c0 .24.08.49.11.73l-.52.52a.5.5 0 0 0 .69.72l.19-.2c.07.66.11 1.31.11 1.94a20 20 0 0 1-19.9 19.92 19.7 19.7 0 0 1-8.46-1.9l.16-.07a.5.5 0 0 0-.44-.9l-.68.31-.65-.36a.502.502 0 0 0-.5.87l.14.08A19.89 19.89 0 0 1 7.24 48.74v-1.13l.15.16a.5.5 0 1 0 .71-.7l-.52-.55q0-.38.09-.75a.505.505 0 0 0-1-.14v.13a19.89 19.89 0 0 1 10.67-32.21l-.15.31a.5.5 0 0 0 .91.41q.15-.34.31-.67l.72-.13a.5.5 0 0 0 .41-.57.49.49 0 0 0-.57-.41l-.29.05a19.91 19.91 0 0 1 34.82-.59l-.3-.05a.506.506 0 1 0-.15 1l.73.13.37.6a.5.5 0 1 0 .9-.44l-.16-.3a19.89 19.89 0 0 1 10.26 32.74v-.19zm-1.39-4.62a.502.502 0 0 0-.92.4c.24.56.46 1.14.65 1.72a.5.5 0 0 0 .48.35h.15a.5.5 0 0 0 .33-.66c-.19-.61-.42-1.22-.68-1.81zm-7.91-8.72a.5.5 0 0 0-.16-.69l-.47-.28.22-.5a.5.5 0 1 0-.92-.39l-.19.42-.42-.23a.5.5 0 1 0-.45.89l.44.23-.24.44a.5.5 0 1 0 .88.48l.22-.43.39.23a.5.5 0 0 0 .69-.16zm2.19 1a.5.5 0 1 0-.64.76c.47.4.93.82 1.35 1.25a.5.5 0 1 0 .71-.7c-.44-.42-.92-.86-1.41-1.28zM34.15 44.45a.5.5 0 0 0-.8.6q.38.5.78 1a.5.5 0 1 0 .76-.65q-.42-.47-.74-.95zm23.42 6.49c-.57.24-1.17.45-1.76.63a.506.506 0 0 0 .15 1h.15c.62-.19 1.25-.41 1.85-.66a.502.502 0 1 0-.38-.93zm-41.7-27.7a.5.5 0 0 0 .49-.51v-.34-1.4a.5.5 0 0 0-.46-.53.49.49 0 0 0-.53.46q-.05.73-.05 1.47v.36a.5.5 0 0 0 .55.49zm17.51 26.39c-.47.32-1 .62-1.44.89a.5.5 0 1 0 .49.87c.51-.29 1-.6 1.51-.93a.5.5 0 0 0-.56-.83zm-17.23 2.39c-.6-.19-1.19-.42-1.77-.67a.502.502 0 1 0-.4.92c.61.27 1.23.5 1.86.71h.15a.506.506 0 0 0 .15-1zm2.35-20.7l-.22-.46.46-.23a.5.5 0 1 0-.44-.9l-.41.21-.17-.41a.5.5 0 1 0-.93.36l.21.52-.49.29a.5.5 0 0 0 .52.85l.38-.22.2.42a.5.5 0 1 0 .89-.45zm-6.65 18.7c-.53-.33-1.06-.69-1.56-1.07a.5.5 0 0 0-.6.8c.53.4 1.09.78 1.64 1.13a.51.51 0 0 0 .26.07.5.5 0 0 0 .26-.93zm-2-11.33a.5.5 0 0 0 .43-.25c.33-.56.69-1.11 1.07-1.63a.5.5 0 0 0-.81-.59c-.4.55-.78 1.12-1.12 1.71a.5.5 0 0 0 .43.75zm6.3-19.89h.1a.5.5 0 0 0 .49-.4c.12-.57.26-1.13.42-1.69a.52.52 0 0 0-1-.29c-.17.58-.32 1.18-.44 1.77a.5.5 0 0 0 .43.61zm-.16 6.12a.5.5 0 0 0-.42.57c.09.6.21 1.2.35 1.79a.5.5 0 0 0 .49.38h.12a.5.5 0 0 0 .37-.6c-.14-.56-.25-1.14-.33-1.71a.5.5 0 0 0-.55-.44zm4.76 28c-.63 0-1.26-.12-1.88-.23a.507.507 0 0 0-.17 1c.65.11 1.32.19 2 .24a.5.5 0 0 0 0-1zM8.69 40.42a.5.5 0 0 0-.65.28c-.25.63-.48 1.28-.67 1.93a.5.5 0 0 0 .34.62h.14a.5.5 0 0 0 .48-.36c.18-.62.4-1.24.64-1.84a.5.5 0 0 0-.28-.63zm6-7.84a.5.5 0 0 0-.7-.06c-.52.44-1 .9-1.5 1.39a.5.5 0 1 0 .71.7c.45-.46.93-.91 1.43-1.32a.5.5 0 0 0 .08-.71zm16.13 7.43a.5.5 0 0 0 .47-.67q-.23-.64-.42-1.31a.52.52 0 0 0-1 .28q.2.7.45 1.37a.5.5 0 0 0 .52.33zm-1.17 11.56c-.53.21-1.06.4-1.6.56a.506.506 0 0 0 .15 1h.15c.56-.17 1.13-.37 1.68-.59a.5.5 0 1 0-.37-.93zm-1.32 8.93a.502.502 0 0 0-.82.58c.35.5.73 1 1.12 1.46a.5.5 0 1 0 .76-.64c-.37-.45-.73-.92-1.06-1.4zm2.89 3.28a.5.5 0 0 0-.67.74c.45.41.93.81 1.41 1.18a.5.5 0 1 0 .61-.79c-.42-.36-.92-.74-1.35-1.13zm-3.84-23.6l-.44-.23.24-.44a.5.5 0 1 0-.87-.48l-.22.43-.4-.24a.5.5 0 1 0-.53.85l.47.29-.22.51a.5.5 0 0 0 .92.39l.19-.42.43.23a.503.503 0 0 0 .45-.9zm-3.65-1.71a.5.5 0 0 0-.07-.7c-.43-.35-.84-.72-1.24-1.11a.502.502 0 1 0-.7.72c.42.41.86.8 1.3 1.16a.5.5 0 0 0 .7-.07zm1.66 15.71c0-.14-.07-.28-.1-.43l.46-.06a.507.507 0 0 0-.17-1l-.51.08q0-.25-.09-.51a.506.506 0 0 0-1 .16c0 .15.06.3.09.46h-.44a.502.502 0 0 0 .08 1l.56-.05c0 .19.09.37.14.55a.5.5 0 0 0 .48.37h.13a.5.5 0 0 0 .36-.56zm.83 2.45a.5.5 0 0 0-.92.38c.23.56.5 1.13.78 1.67a.5.5 0 0 0 .89-.46c-.28-.47-.53-1.01-.75-1.59z"/></svg>