<?xml version="1.0" encoding="utf-8"?>
<!-- Generator: Adobe Illustrator 17.1.0, SVG Export Plug-In . SVG Version: 6.00 Build 0)  -->
<!DOCTYPE svg PUBLIC "-//W3C//DTD SVG 1.1//EN" "http://www.w3.org/Graphics/SVG/1.1/DTD/svg11.dtd">
<svg version="1.1" id="Layer_1" xmlns="http://www.w3.org/2000/svg" xmlns:xlink="http://www.w3.org/1999/xlink" x="0px" y="0px"
	 viewBox="0 0 612 792" enable-background="new 0 0 612 792" xml:space="preserve">
<g>
	<g>
		<path fill="#FFFFFF" d="M338.405,388.274v-20.038c0-2.139-1.74-3.879-3.88-3.879h-55.74c-2.14,0-3.88,1.74-3.88,3.879v55.74
			c0,2.14,1.74,3.881,3.88,3.881h55.74c2.14,0,3.88-1.741,3.88-3.881v-35.692c0-0.002,0.001-0.003,0.001-0.005
			C338.406,388.277,338.405,388.276,338.405,388.274z M307.155,366.357h21.254v6.996h-21.254V366.357z M307.155,374.353h21.254
			v10.127h-21.254V374.353z M284.901,366.357h21.254v6.996h-21.254V366.357z M284.901,374.353h21.254v10.127h-21.254V374.353z
			 M284.901,385.48h21.254v10.127h-21.254V385.48z M276.905,368.236c0-1.036,0.844-1.879,1.88-1.879h5.116v6.996h-6.996V368.236z
			 M276.905,374.353h6.996v10.127h-6.996V374.353z M276.905,385.48h6.996v10.127h-6.996V385.48z M336.405,423.977
			c0,1.037-0.844,1.881-1.88,1.881h-55.74c-1.036,0-1.88-0.844-1.88-1.881v-10.525h2.023c0.118,0,0.235-0.02,0.347-0.061
			l2.772-1.024c0.19-0.07,0.354-0.197,0.471-0.362l2.635-3.741l2.018-1.062l2.271,1.606c0.116,0.083,0.249,0.139,0.39,0.166
			l2.772,0.529c0.324,0.06,0.657-0.04,0.891-0.272l2.338-2.312l2.192,0.722c0.436,0.142,0.92-0.031,1.164-0.426l2.338-3.791
			l1.999,0.764c0.345,0.131,0.739,0.061,1.018-0.185l2.279-2.014l2.177,1.031c0.497,0.235,1.093,0.023,1.331-0.475l2.238-4.702
			l1.791,1.388c0.215,0.166,0.489,0.245,0.756,0.199c0.268-0.038,0.51-0.185,0.668-0.405l2.383-3.312l2.07,0.488l2.772,0.812
			c0.402,0.118,0.842-0.029,1.09-0.372l2.421-3.328l2.18,0.3c0.34,0.05,0.675-0.082,0.896-0.341l2.611-3.056l2.364-0.936h1.832
			V423.977z M336.405,387.279h-2.023c-0.126,0-0.251,0.023-0.368,0.07l-2.772,1.099c-0.151,0.06-0.286,0.156-0.392,0.28
			l-2.418,2.828l-2.231-0.307c-0.37-0.053-0.729,0.104-0.945,0.402l-2.358,3.243l-2.148-0.629l-2.773-0.655
			c-0.395-0.092-0.805,0.062-1.041,0.39l-2.168,3.014l-1.953-1.514c-0.238-0.186-0.55-0.254-0.844-0.183
			c-0.295,0.07-0.541,0.27-0.672,0.543l-2.343,4.923l-1.871-0.886c-0.361-0.17-0.79-0.11-1.09,0.155l-2.32,2.049l-2.207-0.843
			c-0.446-0.168-0.956,0.001-1.208,0.41l-2.357,3.824l-2.024-0.667c-0.357-0.116-0.748-0.025-1.016,0.239l-2.398,2.372l-2.043-0.39
			l-2.596-1.836c-0.307-0.217-0.709-0.244-1.043-0.068l-2.772,1.461c-0.141,0.074-0.261,0.18-0.352,0.309l-2.595,3.684l-2.312,0.854
			h-1.845v-3.718h4.951l0.705-1h-5.656v-10.127h6.996v8.924l1-0.526v-8.398h21.254v2.28c0.328-0.085,0.667-0.087,1-0.001v-2.279
			h2.681l0.476-1h-3.156V385.48h21.254v4.564l1-1.171v-3.393h6.996V387.279z M336.405,384.48h-6.996v-10.127h6.996V384.48z
			 M336.405,373.353h-6.996v-6.996h5.116c1.036,0,1.88,0.843,1.88,1.879V373.353z"/>
		<path fill="#FFFFFF" d="M280.507,417.861h-1.025c-0.276,0-0.5,0.224-0.5,0.5c0,0.276,0.224,0.5,0.5,0.5h1.025
			c0.276,0,0.5-0.224,0.5-0.5C281.007,418.085,280.783,417.861,280.507,417.861z"/>
		<path fill="#FFFFFF" d="M309.219,417.861h-1.025c-0.276,0-0.5,0.224-0.5,0.5c0,0.276,0.224,0.5,0.5,0.5h1.025
			c0.276,0,0.5-0.224,0.5-0.5C309.719,418.085,309.495,417.861,309.219,417.861z"/>
		<path fill="#FFFFFF" d="M313.32,417.861h-1.025c-0.276,0-0.5,0.224-0.5,0.5c0,0.276,0.224,0.5,0.5,0.5h1.025
			c0.276,0,0.5-0.224,0.5-0.5C313.82,418.085,313.597,417.861,313.32,417.861z"/>
		<path fill="#FFFFFF" d="M321.523,417.861h-1.025c-0.276,0-0.5,0.224-0.5,0.5c0,0.276,0.224,0.5,0.5,0.5h1.025
			c0.276,0,0.5-0.224,0.5-0.5C322.023,418.085,321.8,417.861,321.523,417.861z"/>
		<path fill="#FFFFFF" d="M317.422,417.861h-1.025c-0.276,0-0.5,0.224-0.5,0.5c0,0.276,0.224,0.5,0.5,0.5h1.025
			c0.276,0,0.5-0.224,0.5-0.5C317.922,418.085,317.698,417.861,317.422,417.861z"/>
		<path fill="#FFFFFF" d="M325.626,417.861H324.6c-0.276,0-0.5,0.224-0.5,0.5c0,0.276,0.224,0.5,0.5,0.5h1.026
			c0.276,0,0.5-0.224,0.5-0.5C326.126,418.085,325.902,417.861,325.626,417.861z"/>
		<path fill="#FFFFFF" d="M329.727,417.861h-1.025c-0.276,0-0.5,0.224-0.5,0.5c0,0.276,0.224,0.5,0.5,0.5h1.025
			c0.276,0,0.5-0.224,0.5-0.5C330.227,418.085,330.004,417.861,329.727,417.861z"/>
		<path fill="#FFFFFF" d="M333.829,417.861h-1.025c-0.276,0-0.5,0.224-0.5,0.5c0,0.276,0.224,0.5,0.5,0.5h1.025
			c0.276,0,0.5-0.224,0.5-0.5C334.329,418.085,334.105,417.861,333.829,417.861z"/>
		<path fill="#FFFFFF" d="M292.811,417.861h-1.025c-0.276,0-0.5,0.224-0.5,0.5c0,0.276,0.224,0.5,0.5,0.5h1.025
			c0.276,0,0.5-0.224,0.5-0.5C293.311,418.085,293.088,417.861,292.811,417.861z"/>
		<path fill="#FFFFFF" d="M284.608,417.861h-1.025c-0.276,0-0.5,0.224-0.5,0.5c0,0.276,0.224,0.5,0.5,0.5h1.025
			c0.276,0,0.5-0.224,0.5-0.5C285.108,418.085,284.885,417.861,284.608,417.861z"/>
		<path fill="#FFFFFF" d="M288.71,417.861h-1.025c-0.276,0-0.5,0.224-0.5,0.5c0,0.276,0.224,0.5,0.5,0.5h1.025
			c0.276,0,0.5-0.224,0.5-0.5C289.21,418.085,288.986,417.861,288.71,417.861z"/>
		<path fill="#FFFFFF" d="M305.117,417.861h-1.025c-0.276,0-0.5,0.224-0.5,0.5c0,0.276,0.224,0.5,0.5,0.5h1.025
			c0.276,0,0.5-0.224,0.5-0.5C305.617,418.085,305.394,417.861,305.117,417.861z"/>
		<path fill="#FFFFFF" d="M301.016,417.861h-1.025c-0.276,0-0.5,0.224-0.5,0.5c0,0.276,0.224,0.5,0.5,0.5h1.025
			c0.276,0,0.5-0.224,0.5-0.5C301.516,418.085,301.292,417.861,301.016,417.861z"/>
		<path fill="#FFFFFF" d="M296.914,417.861h-1.025c-0.276,0-0.5,0.224-0.5,0.5c0,0.276,0.224,0.5,0.5,0.5h1.025
			c0.276,0,0.5-0.224,0.5-0.5C297.414,418.085,297.19,417.861,296.914,417.861z"/>
	</g>
</g>
</svg>
