<?xml version="1.0" encoding="utf-8"?>
<!-- Generator: Adobe Illustrator 17.1.0, SVG Export Plug-In . SVG Version: 6.00 Build 0)  -->
<!DOCTYPE svg PUBLIC "-//W3C//DTD SVG 1.1//EN" "http://www.w3.org/Graphics/SVG/1.1/DTD/svg11.dtd">
<svg version="1.1" id="Layer_1" xmlns="http://www.w3.org/2000/svg" xmlns:xlink="http://www.w3.org/1999/xlink" x="0px" y="0px"
	 viewBox="0 0 108 108" enable-background="new 0 0 108 108" xml:space="preserve">
<path fill="#FFFFFF" d="M94.123,26.982c-0.099-0.098-0.239-0.136-0.372-0.103c-0.012,0.002-0.024,0.006-0.037,0.011l-7.212,2.638
	c-0.127,0.046-0.218,0.15-0.246,0.28c-0.029,0.129,0.009,0.263,0.103,0.357l1.179,1.18l-3.422,3.422v-8.615
	c0-1.002-0.815-1.818-1.818-1.818H27.102c-1.003,0-1.819,0.816-1.819,1.818v40.521l-7.02,7.019c-0.586,0.586-0.586,1.535,0,2.121
	c0.293,0.293,0.677,0.439,1.061,0.439c0.384,0,0.768-0.146,1.061-0.439l4.898-4.898v10.434c0,1.003,0.816,1.818,1.819,1.818h55.195
	c1.003,0,1.818-0.815,1.818-1.818V39.009l5.543-5.542l1.217,1.217c0.091,0.093,0.224,0.131,0.354,0.104
	c0.145-0.011,0.233-0.117,0.279-0.241l2.7-7.156C94.262,27.25,94.226,27.089,94.123,26.982z M69.645,39.92h9.318l-9.318,9.318V39.92
	z M27.282,54.1h10.573L27.282,64.673V54.1z M39.979,81.166H27.282V68.915l0.636-0.636h12.061V81.166z M39.979,67.029H29.168
	l10.811-10.81V67.029z M39.979,51.977l-0.873,0.873H27.282V39.92h12.696V51.977z M39.979,38.67H27.282V26.333h12.696V38.67z
	 M54.187,81.166H41.229V68.279h12.958V81.166z M54.187,67.029H41.229v-12.06l0.869-0.869H52.83l1.356,1.356V67.029z M43.348,52.85
	l4.116-4.116l4.116,4.116H43.348z M54.187,51.214l-5.662-5.662c-0.586-0.586-1.535-0.586-2.121,0l-5.175,5.175V39.92h12.958V51.214z
	 M54.187,38.67H41.229V26.333h12.958V38.67z M68.395,81.166H55.437V68.279h12.958V81.166z M68.395,67.029H55.437V56.706l4.431,4.431
	c0.586,0.586,1.535,0.586,2.121,0l6.406-6.407V67.029z M57.072,54.1h7.711l-3.856,3.855L57.072,54.1z M68.395,50.488l-2.361,2.362
	H55.822l-0.386-0.386V39.92h12.958V50.488z M68.395,38.67H55.437V26.333h12.958V38.67z M82.115,81.166H69.645V68.279h12.471V81.166z
	 M82.115,67.029H69.645V54.1h12.471V67.029z M82.115,52.85h-11.84l11.84-11.84V52.85z M82.115,36.767l-1.902,1.903H69.645V26.333
	h12.471V36.767z"/>
</svg>
