<?xml version="1.0" encoding="utf-8"?>
<!-- Generator: Adobe Illustrator 17.1.0, SVG Export Plug-In . SVG Version: 6.00 Build 0)  -->
<!DOCTYPE svg PUBLIC "-//W3C//DTD SVG 1.1//EN" "http://www.w3.org/Graphics/SVG/1.1/DTD/svg11.dtd">
<svg version="1.1" id="Layer_1" xmlns="http://www.w3.org/2000/svg" xmlns:xlink="http://www.w3.org/1999/xlink" x="0px" y="0px"
	 viewBox="0 0 104.4 106.926" enable-background="new 0 0 104.4 106.926" xml:space="preserve">
<g>
	<path fill="#FFFFFF" d="M84.005,44.154V24.116c0-2.139-1.739-3.879-3.88-3.879h-55.74c-2.14,0-3.88,1.74-3.88,3.879v55.74
		c0,2.141,1.74,3.881,3.88,3.881h55.74c2.141,0,3.88-1.74,3.88-3.881V44.164c0-0.002,0.001-0.003,0.001-0.005
		C84.006,44.157,84.005,44.156,84.005,44.154z M75.009,22.237h5.116c1.036,0,1.88,0.843,1.88,1.879v2.78
		c-0.345,0-0.662,0.23-0.734,0.584l-0.36,1.752h-5.901V22.237z M82.005,31.352v9.008h-1.854L82.005,31.352z M75.009,30.233h5.695
		L78.62,40.36h-3.611V30.233z M74.301,49.493c0.341,0.05,0.676-0.082,0.896-0.341l2.124-2.486l-0.434,2.109l-1.922,2.069
		l-1.611-0.765c-0.317-0.151-0.699-0.061-0.915,0.219l-2.733,3.536l-0.21-1.108c0.076-0.058,0.146-0.125,0.204-0.205l2.167-6.266
		L74.301,49.493z M76.843,44.328c-0.15,0.06-0.285,0.156-0.392,0.28l-1.438,1.681V41.36h3.4l-0.526,2.554L76.843,44.328z
		 M74.013,47.407l-2.212-3.278c-0.369-0.053-0.729,0.104-0.944,0.402l-1.941,5.139l-1.576-8.31h6.674V47.407z M65.813,41.36
		l1.732,9.135l-1.194-0.35l-2.773-0.655c-0.195-0.046-0.395-0.03-0.574,0.036l1.172-8.166H65.813z M64.319,40.36l0.562-3.914
		l0.742,3.914H64.319z M52.755,22.237h21.254v6.996H52.755V22.237z M52.755,30.233h21.254V40.36H67.15l-1.635-8.618
		c-0.068-0.361-0.403-0.612-0.754-0.61c-0.367,0.008-0.674,0.28-0.726,0.643l-1.232,8.585H52.755V30.233z M55.932,58.424
		l2.237-5.701l1.791,2.388c0.199,0.154,0.45,0.223,0.698,0.196l-0.216,1.504l-1.23-1.165c-0.186-0.176-0.448-0.243-0.698-0.184
		c-0.249,0.063-0.449,0.248-0.529,0.492l-1.534,4.637l-0.756-1.851C55.792,58.654,55.873,58.548,55.932,58.424z M54.7,56.303
		l-1.559-3.815h3.067L54.7,56.303z M60.369,52.894l-1.953-2.514c-0.238-0.186-0.55-0.254-0.844-0.183
		c-0.295,0.07-0.541,0.27-0.672,0.543l-0.296,0.748h-3.846V41.36h9.902l-1.497,10.429L60.369,52.894z M52.511,54.914l0.396,0.968
		l-0.221-0.104c-0.128-0.06-0.264-0.081-0.399-0.085L52.511,54.914z M30.501,22.237h21.254v6.996H30.501V22.237z M30.501,30.233
		h21.254V40.36H30.501V30.233z M30.501,41.36h21.254v10.127H33.978l-0.383-2.47c-0.057-0.37-0.344-0.664-0.752-0.635
		c-0.374,0.005-0.687,0.286-0.733,0.657l-0.306,2.448h-1.304V41.36z M49.276,57.981l-2.207-0.843
		c-0.446-0.169-0.956,0.001-1.208,0.409l-2.357,3.824l-2.023-0.666c-0.356-0.117-0.748-0.025-1.017,0.238l-2.397,2.373l-2.043-0.391
		l-0.382-0.712l-1.507-9.727H51.65l-1.314,4.558L49.276,57.981z M49.447,60.127l-0.549,1.902l-1.271-0.684
		c-0.208-0.111-0.453-0.12-0.668-0.021c-0.214,0.098-0.369,0.29-0.42,0.521l-2.482,11.249l-2.084-7.782
		c-0.072-0.27-0.288-0.477-0.56-0.537c-0.271-0.063-0.556,0.034-0.736,0.246l-1.947,2.293l-2.368-0.446l-0.293-1.893l2.135,0.408
		c0.324,0.061,0.657-0.039,0.891-0.271l2.339-2.31l2.191,0.721c0.438,0.143,0.92-0.031,1.164-0.426l2.338-3.791l1.999,0.764
		C49.23,60.108,49.339,60.124,49.447,60.127z M33.507,58.24l-0.08-0.149c-0.271-0.191-0.615-0.226-0.922-0.111l0.429-3.437
		L33.507,58.24z M31.679,52.488l-1.043,8.347l-0.133,0.214v-8.561H31.679z M29.504,62.578c-0.014,0.011-0.025,0.023-0.039,0.034
		h-6.957V52.487h6.996V62.578z M28.682,63.612l-2.017,2.864l-2.312,0.854h-1.846v-3.719H28.682z M22.505,24.116
		c0-1.036,0.845-1.879,1.88-1.879h5.116v6.996h-6.996V24.116z M22.505,30.233h6.996V40.36h-6.996V30.233z M22.505,41.36h6.996
		v10.127h-6.996V41.36z M22.505,69.332h2.023c0.118,0,0.235-0.021,0.347-0.062l2.772-1.022c0.189-0.07,0.354-0.197,0.471-0.363
		l1.99-2.825l-0.273,2.189l-1.639,2.622l-3.813,1.168c-0.209,0.063-0.38,0.217-0.468,0.417l-1.41,3.237V69.332z M80.125,81.737
		h-55.74c-1.035,0-1.88-0.844-1.88-1.881v-1.564c0.069-0.066,0.131-0.142,0.172-0.235l2.476-5.684l3.751-1.149
		c0.173-0.053,0.32-0.166,0.417-0.319l1.875-3c0.058-0.093,0.094-0.196,0.108-0.305l0.761-6.093l0.708-1.424l1.489,3.021l0.7,4.519
		c0.049,0.313,0.29,0.562,0.603,0.622l3.317,0.625c0.262,0.051,0.536-0.046,0.71-0.252l1.303-1.534l2.509,9.368
		c0.089,0.333,0.404,0.54,0.741,0.556c0.346-0.008,0.641-0.251,0.716-0.589l2.931-13.28l1.215,0.654
		c0.199,0.107,0.437,0.119,0.646,0.031c0.209-0.088,0.367-0.266,0.43-0.483l1.316-4.562l1.026-0.907l1.606,0.76l1.802,4.41
		c0.118,0.291,0.407,0.469,0.72,0.467c0.314-0.011,0.588-0.217,0.687-0.515l1.801-5.445l1.426,1.351
		c0.204,0.193,0.498,0.256,0.762,0.164c0.266-0.092,0.456-0.324,0.496-0.602l0.721-5.025l1.326-1.842l2.069,0.488l2.127,0.623
		l0.578,3.047c0.056,0.29,0.275,0.521,0.562,0.59c0.284,0.068,0.587-0.038,0.769-0.271l3.384-4.377l1.562,0.741
		c0.294,0.141,0.647,0.073,0.871-0.167l2.438-2.625c0.093-0.101,0.157-0.225,0.185-0.359l0.759-3.688l1.099-0.435h1.832v34.697
		h0.001C82.005,80.893,81.161,81.737,80.125,81.737z M82.009,43.159h-0.004h-2.021c-0.126,0-0.251,0.023-0.368,0.07l-0.06,0.024
		l0.39-1.893h2.063V43.159z"/>
</g>
</svg>
