<svg data-name="Layer 1" xmlns="http://www.w3.org/2000/svg" viewBox="0 0 77.31 73.53"><title>Icon_RH_Diagrams_Trust_RGB_Black</title><path d="M6.97 29.8l-1.87-.6a.523.523 0 0 0-.31 1l1.87.6h.15a.506.506 0 0 0 .15-1zm11.86 4.88l1.87.6h.15a.506.506 0 0 0 .15-1l-1.87-.6a.523.523 0 0 0-.31 1zm19.83 2.42a.5.5 0 0 0 .5-.5v-2a.5.5 0 0 0-1 0v2a.5.5 0 0 0 .5.5zm-13-1.22l-1.87-.6a.523.523 0 1 0-.31 1l1.87.6h.15a.506.506 0 0 0 .16-1zm7.18 3.37l1.87.6h.15a.506.506 0 0 0 .15-1l-1.87-.6a.523.523 0 1 0-.31 1zm-16.51-6.43l-1.87-.6a.523.523 0 1 0-.31 1l1.87.6h.15a.506.506 0 0 0 .15-1zm5.13 30.61l-1.16 1.6a.5.5 0 1 0 .81.59l1.16-1.6a.5.5 0 1 0-.81-.59zm2.89-4l-1.16 1.6a.5.5 0 1 0 .81.59l1.16-1.6a.5.5 0 1 0-.81-.59zm-5.79 8l-1.16 1.6a.5.5 0 1 0 .81.59l1.16-1.6a.5.5 0 1 0-.81-.59zm-6.9-36.12l-1.87-.6a.523.523 0 1 0-.31 1l1.87.6h.15a.506.506 0 0 0 .15-1zm27-18.76a.5.5 0 0 0 .5-.5v-2a.5.5 0 0 0-1 0v2a.5.5 0 0 0 .5.5zm3.76 27.33h.15l1.87-.6a.523.523 0 1 0-.31-1l-1.87.6a.506.506 0 0 0 .15 1zM38.66 7.64a.5.5 0 0 0 .5-.5v-2a.5.5 0 0 0-1 0v2a.5.5 0 0 0 .5.5zm17.8 27.67h.15l1.87-.6a.523.523 0 0 0-.31-1l-1.87.6a.506.506 0 0 0 .15 1zm-17.8-17.85a.5.5 0 0 0 .5-.5v-2a.5.5 0 1 0-1 0v2a.5.5 0 0 0 .5.5zm0 9.82a.5.5 0 0 0 .5-.5v-2a.5.5 0 0 0-1 0v2a.5.5 0 0 0 .5.5zm0-4.91a.5.5 0 0 0 .5-.5v-1.99a.5.5 0 0 0-1 0v2a.5.5 0 0 0 .5.49zm0 9.82a.5.5 0 0 0 .5-.5v-2a.5.5 0 0 0-1 0v2a.5.5 0 0 0 .5.5zm15.47 3.37a.5.5 0 0 0-.63-.32l-1.84.64a.506.506 0 0 0 .15 1h.15l1.87-.6a.5.5 0 0 0 .3-.72zm4.62 31.87a.5.5 0 0 0-.81.59l1.16 1.6a.5.5 0 0 0 .81-.59zm-5.79-8a.5.5 0 1 0-.81.59l1.16 1.6a.5.5 0 0 0 .81-.59zm2.89 4a.5.5 0 1 0-.81.59l1.16 1.6a.5.5 0 1 0 .81-.59zm-28.6-8l-1.16 1.6a.5.5 0 1 0 .81.59l1.16-1.6a.5.5 0 1 0-.81-.59zM38.66 0L0 28.08l14.77 45.45h47.78l14.77-45.45zm22.53 71.23a.45.45 0 0 0-.41.3H16.54a.44.44 0 0 0-.41-.3L2.45 29.14a.43.43 0 0 0 .16-.48l35.8-26a.45.45 0 0 0 .51 0l35.8 26a.44.44 0 0 0 .16.48zM49.45 37.07a.5.5 0 0 0-.63-.32l-1.87.6a.506.506 0 0 0 .15 1h.15l1.87-.6a.5.5 0 0 0 .33-.68zm13.42-4.85l-1.87.6a.506.506 0 0 0 .15 1h.15l1.87-.6a.523.523 0 0 0-.31-1zm9.36-3l-1.87.6a.506.506 0 0 0 .15 1h.15l1.87-.6a.523.523 0 0 0-.31-1zm-4.68 1.51l-1.87.6a.506.506 0 0 0 .15 1h.15l1.87-.6a.523.523 0 0 0-.31-1zM50.07 55.44a.5.5 0 0 0-.81.59l1.16 1.6a.5.5 0 0 0 .81-.59zm-17-8l-1.16 1.6a.5.5 0 1 0 .81.59l1.16-1.6a.5.5 0 1 0-.81-.59zm-2.89 4l-1.16 1.6a.5.5 0 1 0 .81.59l1.16-1.6a.5.5 0 1 0-.81-.59zm.07-13.12a.506.506 0 0 0 .15-1l-1.87-.6a.523.523 0 0 0-.31 1l1.87.6zm5.71 5.13l-1.16 1.6a.5.5 0 1 0 .81.59l1.16-1.6a.5.5 0 1 0-.81-.59zm3.53-3.7l-.3.1v-.31a.5.5 0 0 0-1 0v.34l-.3-.1a.523.523 0 1 0-.31 1l.3.1-.18.25a.5.5 0 0 0 .81.59l.18-.25.18.25a.5.5 0 0 0 .81-.59l-.18-.25.3-.1a.523.523 0 1 0-.31-1zm4.82 7.69a.5.5 0 1 0-.81.59l1.16 1.61a.5.5 0 1 0 .81-.59zm-2.89-4a.5.5 0 1 0-.81.59l1.16 1.6a.5.5 0 0 0 .81-.59zm5.79 8a.5.5 0 1 0-.81.59l1.16 1.6a.5.5 0 1 0 .81-.59z"/></svg>