<svg id="Layer_1" data-name="Layer 1" xmlns="http://www.w3.org/2000/svg" viewBox="0 0 46.1 55.3"><defs><style>.cls-1{fill:#fff;}</style></defs><title>Icon_RH_Diagram_ProcessImprovement-B_RGB_White</title><path class="cls-1" d="M19.28 8.03H39.2a4.9 4.9 0 1 1 0 9.79h-.65v-2l-5.18 3 5.18 3v-2h.7a6.9 6.9 0 1 0 0-13.79H19.28a1 1 0 1 0 0 2zm12.27 39.3a1 1 0 0 0 .71.29h.17a1 1 0 0 0 .73-.55l5.15-10.58a1 1 0 1 0-1.8-.87l-4.54 9.32-2.54-2.54a1 1 0 0 0-1.41 1.41zm13.36-18.52H20.42a1 1 0 0 0-1 1V54.3a1 1 0 0 0 1 1h24.49a1 1 0 0 0 1-1V29.81a1 1 0 0 0-1-1zm-1 24.49H21.42V30.81h22.49zM10.55 29.62h-.7a4.9 4.9 0 0 1 0-9.8h19.88a1 1 0 0 0 0-2H9.8a6.9 6.9 0 0 0 0 13.8h.75v2l5.18-3-5.18-3zm3.56-16.56V1a1 1 0 0 0-1-1H1a1 1 0 0 0-1 1v12.06a1 1 0 0 0 1 1h12.06a1 1 0 0 0 1-1zm-2-1H2V2h10.06z"/></svg>