<svg xmlns="http://www.w3.org/2000/svg" viewBox="0 0 80.01 58.89"><title>Icon_RH_Diagrams_Graph-Arrow-FlatLow_RGB_Black</title><path d="M79.77 47.87l-6.18-2.91a.41.41 0 0 0-.59.37v1.87h-7.22V1.83a1.84 1.84 0 0 0-1.84-1.84H8.73a1.84 1.84 0 0 0-1.84 1.84V47.2H1a1 1 0 0 0 0 2h5.9v7.84a1.84 1.84 0 0 0 1.84 1.84h55.21a1.84 1.84 0 0 0 1.84-1.84V49.2H73v1.88a.41.41 0 0 0 .58.37l6.18-2.84a.41.41 0 0 0 .01-.74zm-58.06 9H8.89v-7.68H21.7zm0-9.68H8.89v-3.35H21.7zm0-4.35H8.89v-13.2H21.7zm0-14.21H8.89V15.44H21.7zm-.01-14.19H8.89V2H21.7zM35.91 56.9H22.7v-7.68h13.22zm0-9.68H22.7v-3.35h13.22zm0-4.35H22.7V29.64h13.22zm0-14.21H22.7V15.44h13.22zm0-14.22H22.7V2h13.22zM50.13 56.9H36.92v-7.68h13.22zm0-9.68H36.92v-3.35h13.22zm0-4.35H36.92V29.64h13.22zm0-14.21H36.92V15.44h13.22zm0-14.22H36.92V2h13.22zM63.78 56.9H51.13v-7.68h12.65zm0-9.68H51.13v-3.35h12.65zm0-4.35H51.13V29.64h12.65zm0-14.21H51.13V15.44h12.65zm0-14.22H51.13V2h12.65z"/></svg>