<?xml version="1.0" encoding="utf-8"?>
<!-- Generator: Adobe Illustrator 17.1.0, SVG Export Plug-In . SVG Version: 6.00 Build 0)  -->
<!DOCTYPE svg PUBLIC "-//W3C//DTD SVG 1.1//EN" "http://www.w3.org/Graphics/SVG/1.1/DTD/svg11.dtd">
<svg version="1.1" id="Layer_1" xmlns="http://www.w3.org/2000/svg" xmlns:xlink="http://www.w3.org/1999/xlink" x="0px" y="0px"
	 viewBox="0 0 216 216" enable-background="new 0 0 216 216" xml:space="preserve">
<path fill="#FFFFFF" d="M102.588,135.625c-1.782,0-4.084-1.171-5.242-2.665l-15.108-19.508c-1.27-1.64-1.11-4.167,0.356-5.633
	l2.052-2.052c0.702-0.702,1.622-1.089,2.589-1.089c1.062,0,2.077,0.476,2.782,1.305l10.779,13.123
	c0.561,0.659,1.279,0.607,1.73-0.143l22.866-38.51c0.701-1.166,1.988-1.89,3.358-1.89c0.694,0,1.375,0.186,1.971,0.536l2.038,1.202
	c1.836,1.08,2.475,3.468,1.424,5.322l-26.619,46.988C106.608,134.302,104.422,135.625,102.588,135.625z M87.236,106.678
	c-0.434,0-0.851,0.179-1.175,0.503l-2.052,2.052c-0.766,0.767-0.853,2.138-0.189,2.994l15.108,19.508
	c0.78,1.007,2.49,1.89,3.661,1.89c1.121,0,2.634-0.934,3.237-1.999l26.619-46.988c0.516-0.911,0.202-2.083-0.698-2.613l-2.038-1.202
	c-0.863-0.508-2.089-0.191-2.6,0.661l-22.867,38.51c-0.607,1.011-1.553,1.59-2.595,1.59h-0.001c-0.882,0-1.725-0.42-2.374-1.183
	l-10.779-13.122C88.165,106.892,87.718,106.678,87.236,106.678z"/>
</svg>
