<?xml version="1.0" encoding="utf-8"?>
<!-- Generator: Adobe Illustrator 17.1.0, SVG Export Plug-In . SVG Version: 6.00 Build 0)  -->
<!DOCTYPE svg PUBLIC "-//W3C//DTD SVG 1.1//EN" "http://www.w3.org/Graphics/SVG/1.1/DTD/svg11.dtd">
<svg version="1.1" id="Layer_1" xmlns="http://www.w3.org/2000/svg" xmlns:xlink="http://www.w3.org/1999/xlink" x="0px" y="0px"
	 viewBox="0 0 216 216" enable-background="new 0 0 216 216" xml:space="preserve">
<path fill="#FFFFFF" d="M86.537,136.008c-1.024,0-1.987-0.399-2.712-1.124l-2.567-2.568c-1.507-1.508-1.523-3.977-0.036-5.504
	l18.302-18.773c0.539-0.552,0.986-1.016,1.314-1.358c-0.31-0.312-0.747-0.755-1.37-1.386l-18.24-18.485
	c-1.5-1.52-1.492-3.985,0.019-5.496l2.552-2.552c1.462-1.463,4.025-1.456,5.479,0.017l18.338,18.563
	c0.52,0.526,0.997,1.009,1.358,1.374c0.343-0.33,0.805-0.78,1.354-1.321l18.793-18.466c0.731-0.718,1.703-1.114,2.737-1.114
	c1.047,0,2.027,0.404,2.762,1.139l1.99,1.989c1.506,1.506,1.527,3.978,0.049,5.511l-18.191,18.845
	c-0.573,0.594-1.003,1.039-1.331,1.372c0.354,0.36,0.822,0.835,1.333,1.353l18.364,18.608c1.5,1.52,1.492,3.985-0.018,5.495
	l-2.553,2.553c-1.464,1.464-4.025,1.455-5.479-0.017l-18.461-18.687c-0.56-0.566-1.03-1.036-1.375-1.378
	c-0.332,0.332-0.787,0.793-1.347,1.37l-18.312,18.875C88.562,135.594,87.584,136.008,86.537,136.008z M102.911,105.928
	c0.179,0.168,0.292,0.398,0.312,0.646c0.041,0.493,0.041,0.493-2.268,2.86l-18.302,18.773c-0.728,0.747-0.72,1.955,0.018,2.693
	l2.567,2.568c0.703,0.702,1.927,0.691,2.617-0.02l18.311-18.875c2.292-2.361,2.292-2.361,2.784-2.361
	c0.058,0,0.115,0.005,0.172,0.015c0.377,0.066,0.377,0.066,2.624,2.341l18.461,18.686c0.699,0.709,1.938,0.715,2.643,0.009
	l2.553-2.553c0.735-0.735,0.739-1.937,0.009-2.677l-18.364-18.608c-2.485-2.519-2.485-2.519-2.227-3.138
	c0.054-0.129,0.133-0.242,0.23-0.335c0.114-0.116,0.962-0.991,1.979-2.045l18.19-18.845c0.727-0.753,0.716-1.968-0.023-2.707
	l-1.99-1.989c-0.709-0.709-1.97-0.715-2.683-0.012L111.731,98.82c-2.329,2.289-2.329,2.289-2.779,2.289
	c-0.21,0-0.414-0.066-0.585-0.189c-0.087-0.062-0.096-0.069-2.174-2.174L87.855,80.183c-0.701-0.708-1.938-0.712-2.642-0.008
	l-2.552,2.552c-0.736,0.736-0.74,1.937-0.009,2.677l18.24,18.485C101.927,104.937,102.795,105.814,102.911,105.928z"/>
</svg>
