<?xml version="1.0" encoding="utf-8"?>
<!-- Generator: Adobe Illustrator 17.1.0, SVG Export Plug-In . SVG Version: 6.00 Build 0)  -->
<!DOCTYPE svg PUBLIC "-//W3C//DTD SVG 1.1//EN" "http://www.w3.org/Graphics/SVG/1.1/DTD/svg11.dtd">
<svg version="1.1" id="Layer_1" xmlns="http://www.w3.org/2000/svg" xmlns:xlink="http://www.w3.org/1999/xlink" x="0px" y="0px"
	 viewBox="0 0 216 216" enable-background="new 0 0 216 216" xml:space="preserve">
<g>
	<path fill="#FFFFFF" d="M107.919,145.465c-0.153,0-0.307-0.035-0.447-0.105l-31.634-15.818c-0.339-0.168-0.553-0.516-0.553-0.895
		V89.106c0-0.379,0.214-0.726,0.553-0.895l31.634-15.818c0.281-0.141,0.613-0.141,0.895,0L140,88.211
		c0.339,0.169,0.553,0.516,0.553,0.895v39.541c0,0.379-0.214,0.727-0.553,0.895l-31.634,15.818
		C108.226,145.43,108.072,145.465,107.919,145.465z M77.285,128.029l30.634,15.316l30.634-15.316V89.723l-30.634-15.316
		L77.285,89.723V128.029z"/>
	<path fill="#FFFFFF" d="M107.919,105.92c-0.153,0-0.307-0.035-0.447-0.105L75.838,90c-0.494-0.248-0.694-0.848-0.447-1.342
		c0.247-0.494,0.848-0.695,1.342-0.447l31.187,15.592l31.187-15.592c0.494-0.248,1.096-0.048,1.342,0.447
		c0.247,0.494,0.047,1.094-0.447,1.342l-31.634,15.815C108.226,105.885,108.072,105.92,107.919,105.92z"/>
	<path fill="#FFFFFF" d="M107.919,145.465c-0.553,0-1-0.447-1-1V104.92c0-0.551,0.447-1,1-1c0.553,0,1,0.449,1,1v39.545
		C108.919,145.018,108.472,145.465,107.919,145.465z"/>
</g>
</svg>
