<?xml version="1.0" encoding="utf-8"?>
<!-- Generator: Adobe Illustrator 17.1.0, SVG Export Plug-In . SVG Version: 6.00 Build 0)  -->
<!DOCTYPE svg PUBLIC "-//W3C//DTD SVG 1.1//EN" "http://www.w3.org/Graphics/SVG/1.1/DTD/svg11.dtd">
<svg version="1.1" id="Layer_1" xmlns="http://www.w3.org/2000/svg" xmlns:xlink="http://www.w3.org/1999/xlink" x="0px" y="0px"
	 viewBox="0 0 207.021 207.021" enable-background="new 0 0 207.021 207.021" xml:space="preserve">
<g>
	<path fill="#FFFFFF" d="M128.465,83.602c-0.012-0.096-0.037-0.188-0.075-0.275c-0.007-0.017-0.006-0.035-0.014-0.052
		c-0.005-0.01-0.015-0.016-0.021-0.027c-0.055-0.102-0.125-0.196-0.213-0.274c-0.019-0.017-0.041-0.027-0.061-0.042
		c-0.049-0.037-0.096-0.077-0.153-0.105L96.295,67.009c-0.281-0.141-0.613-0.141-0.894,0L63.767,82.828
		c-0.058,0.029-0.108,0.07-0.158,0.109c-0.018,0.014-0.037,0.022-0.054,0.037c-0.089,0.078-0.159,0.172-0.214,0.275
		c-0.006,0.01-0.016,0.016-0.021,0.027c-0.008,0.017-0.007,0.035-0.014,0.052c-0.038,0.087-0.063,0.178-0.074,0.275
		c-0.003,0.028-0.011,0.055-0.012,0.083c0,0.013-0.005,0.024-0.005,0.037v39.541c0,0.379,0.214,0.727,0.553,0.894L95.4,139.976
		c0.009,0.004,0.019,0.002,0.027,0.006c0.129,0.06,0.268,0.099,0.42,0.099s0.291-0.039,0.42-0.099
		c0.009-0.004,0.019-0.002,0.028-0.006l31.634-15.818c0.339-0.168,0.553-0.516,0.553-0.894V83.722c0-0.013-0.005-0.024-0.005-0.037
		C128.475,83.657,128.468,83.631,128.465,83.602z M95.848,69.023l29.398,14.699L95.848,98.419L66.449,83.722L95.848,69.023z
		 M65.214,85.34l29.634,14.815v37.308l-29.634-14.816V85.34z M96.848,137.462v-37.308l29.634-14.815v37.306L96.848,137.462z"/>
	<path fill="#FFFFFF" d="M97.05,142.066l-1.108,0.564l-1.105-0.57c-0.245-0.128-0.546-0.03-0.673,0.215
		c-0.126,0.246-0.03,0.547,0.215,0.674l1.333,0.688c0.072,0.037,0.15,0.056,0.229,0.056c0.078,0,0.156-0.019,0.227-0.055
		l1.336-0.681c0.246-0.125,0.344-0.426,0.218-0.672C97.597,142.038,97.296,141.938,97.05,142.066z"/>
	<path fill="#FFFFFF" d="M126.735,126.939l-2.474,1.26c-0.246,0.125-0.345,0.426-0.219,0.672c0.088,0.174,0.264,0.273,0.445,0.273
		c0.077,0,0.154-0.018,0.227-0.055l2.474-1.26c0.246-0.125,0.345-0.426,0.219-0.672
		C127.282,126.911,126.978,126.815,126.735,126.939z"/>
	<path fill="#FFFFFF" d="M101.997,139.544l-2.474,1.261c-0.246,0.125-0.344,0.427-0.218,0.672c0.088,0.174,0.264,0.273,0.446,0.273
		c0.076,0,0.154-0.018,0.227-0.055l2.474-1.261c0.246-0.125,0.344-0.427,0.218-0.673S102.242,139.418,101.997,139.544z"/>
	<path fill="#FFFFFF" d="M111.893,134.502l-2.474,1.261c-0.246,0.125-0.345,0.427-0.219,0.672c0.088,0.174,0.264,0.273,0.445,0.273
		c0.077,0,0.154-0.018,0.227-0.055l2.474-1.261c0.246-0.125,0.345-0.427,0.219-0.672
		C112.439,134.474,112.135,134.379,111.893,134.502z"/>
	<path fill="#FFFFFF" d="M116.841,131.981l-2.475,1.261c-0.246,0.125-0.345,0.426-0.219,0.672c0.088,0.174,0.264,0.273,0.445,0.273
		c0.077,0,0.154-0.018,0.227-0.055l2.475-1.261c0.246-0.125,0.345-0.426,0.219-0.672
		C117.388,131.952,117.083,131.857,116.841,131.981z"/>
	<path fill="#FFFFFF" d="M106.945,137.023l-2.474,1.261c-0.246,0.125-0.344,0.427-0.218,0.672c0.088,0.174,0.264,0.273,0.446,0.273
		c0.076,0,0.154-0.018,0.227-0.055l2.473-1.261c0.246-0.125,0.345-0.427,0.219-0.672C107.493,136.995,107.188,136.9,106.945,137.023
		z"/>
	<path fill="#FFFFFF" d="M121.788,129.459l-2.474,1.261c-0.246,0.125-0.345,0.427-0.219,0.672c0.088,0.174,0.264,0.273,0.445,0.273
		c0.077,0,0.154-0.018,0.227-0.055l2.474-1.261c0.246-0.125,0.345-0.427,0.219-0.672
		C122.336,129.431,122.031,129.336,121.788,129.459z"/>
	<path fill="#FFFFFF" d="M130.776,123.442L130.776,123.442c-0.276,0-0.5,0.224-0.501,0.499l-0.002,1.194l-1.064,0.542
		c-0.246,0.125-0.345,0.426-0.219,0.672c0.088,0.174,0.264,0.273,0.445,0.273c0.077,0,0.154-0.018,0.227-0.055l1.337-0.681
		c0.168-0.085,0.273-0.257,0.273-0.444l0.003-1.5C131.276,123.667,131.053,123.443,130.776,123.442z"/>
	<path fill="#FFFFFF" d="M130.812,104.71L130.812,104.71c-0.276,0-0.5,0.223-0.501,0.499l-0.006,3.122
		c-0.001,0.276,0.223,0.5,0.499,0.501h0.001c0.275,0,0.499-0.223,0.5-0.499l0.006-3.122
		C131.312,104.935,131.089,104.711,130.812,104.71z"/>
	<path fill="#FFFFFF" d="M130.837,92.223L130.837,92.223c-0.276,0-0.5,0.223-0.501,0.499l-0.006,3.122
		c-0.001,0.276,0.223,0.5,0.499,0.501h0.001c0.275,0,0.499-0.223,0.5-0.499l0.006-3.122
		C131.337,92.448,131.113,92.224,130.837,92.223z"/>
	<path fill="#FFFFFF" d="M130.825,98.467L130.825,98.467c-0.276,0-0.5,0.223-0.501,0.499l-0.006,3.122
		c-0.001,0.276,0.223,0.5,0.499,0.501h0.001c0.275,0,0.499-0.223,0.5-0.499l0.006-3.122
		C131.325,98.691,131.102,98.467,130.825,98.467z"/>
	<path fill="#FFFFFF" d="M130.85,85.979L130.85,85.979c-0.276,0-0.5,0.223-0.501,0.499l-0.006,3.122
		c-0.001,0.276,0.223,0.5,0.499,0.501h0.001c0.275,0,0.499-0.223,0.5-0.499l0.006-3.122C131.35,86.204,131.126,85.98,130.85,85.979z
		"/>
	<path fill="#FFFFFF" d="M130.788,117.198L130.788,117.198c-0.276,0-0.5,0.224-0.501,0.499l-0.006,3.122
		c-0.001,0.276,0.223,0.5,0.499,0.501h0.001c0.275,0,0.499-0.224,0.5-0.499l0.006-3.122
		C131.288,117.422,131.064,117.199,130.788,117.198z"/>
	<path fill="#FFFFFF" d="M130.801,110.954L130.801,110.954c-0.276,0-0.5,0.223-0.501,0.499l-0.006,3.122
		c-0.001,0.276,0.223,0.5,0.499,0.501h0.001c0.275,0,0.499-0.223,0.5-0.499l0.006-3.122
		C131.301,111.179,131.077,110.955,130.801,110.954z"/>
	<path fill="#FFFFFF" d="M131.086,81.413l-1.336-0.684c-0.242-0.126-0.546-0.03-0.673,0.217c-0.126,0.246-0.028,0.547,0.218,0.673
		l1.062,0.544l-0.002,1.194c-0.001,0.276,0.223,0.5,0.499,0.501h0.001c0.275,0,0.499-0.223,0.5-0.499l0.003-1.5
		C131.357,81.671,131.253,81.499,131.086,81.413z"/>
	<path fill="#FFFFFF" d="M109.535,71.494l2.471,1.266c0.072,0.038,0.15,0.055,0.228,0.055c0.182,0,0.356-0.099,0.445-0.272
		c0.126-0.246,0.028-0.547-0.218-0.673l-2.471-1.266c-0.242-0.126-0.546-0.029-0.673,0.217
		C109.191,71.067,109.289,71.369,109.535,71.494z"/>
	<path fill="#FFFFFF" d="M104.595,68.963l2.47,1.266c0.072,0.038,0.15,0.055,0.228,0.055c0.182,0,0.356-0.099,0.445-0.272
		c0.126-0.246,0.028-0.547-0.217-0.673l-2.47-1.266c-0.245-0.125-0.547-0.029-0.673,0.217S104.35,68.837,104.595,68.963z"/>
	<path fill="#FFFFFF" d="M99.655,66.432l2.47,1.266c0.073,0.038,0.151,0.055,0.228,0.055c0.182,0,0.357-0.099,0.445-0.272
		c0.126-0.246,0.029-0.547-0.217-0.673l-2.47-1.266c-0.246-0.126-0.546-0.029-0.673,0.217C99.312,66.005,99.41,66.306,99.655,66.432
		z"/>
	<path fill="#FFFFFF" d="M124.354,79.087l2.47,1.266c0.073,0.038,0.151,0.055,0.229,0.055c0.182,0,0.356-0.099,0.445-0.272
		c0.126-0.246,0.028-0.547-0.217-0.673l-2.471-1.266c-0.243-0.125-0.547-0.029-0.673,0.217
		C124.012,78.66,124.109,78.961,124.354,79.087z"/>
	<path fill="#FFFFFF" d="M119.415,76.557l2.471,1.265c0.072,0.038,0.15,0.055,0.228,0.055c0.182,0,0.356-0.099,0.445-0.272
		c0.126-0.246,0.028-0.547-0.218-0.673l-2.471-1.265c-0.242-0.125-0.546-0.029-0.673,0.217
		C119.071,76.13,119.169,76.431,119.415,76.557z"/>
	<path fill="#FFFFFF" d="M114.475,74.025l2.47,1.266c0.073,0.038,0.151,0.055,0.229,0.055c0.182,0,0.356-0.099,0.445-0.272
		c0.126-0.246,0.028-0.547-0.217-0.673l-2.47-1.266c-0.245-0.126-0.548-0.029-0.674,0.217
		C114.132,73.598,114.229,73.899,114.475,74.025z"/>
	<path fill="#FFFFFF" d="M94.969,65.165l1.109-0.565l1.107,0.567c0.073,0.038,0.151,0.055,0.228,0.055
		c0.182,0,0.357-0.099,0.445-0.272c0.126-0.246,0.029-0.547-0.217-0.673l-1.335-0.684c-0.144-0.073-0.312-0.074-0.455,0
		l-1.336,0.682c-0.246,0.125-0.344,0.426-0.218,0.672C94.421,65.192,94.722,65.29,94.969,65.165z"/>
	<path fill="#FFFFFF" d="M74.616,75.483c0.076,0,0.154-0.018,0.227-0.055l2.516-1.283c0.246-0.125,0.344-0.426,0.218-0.672
		c-0.126-0.247-0.426-0.345-0.672-0.218l-2.516,1.283c-0.246,0.125-0.344,0.426-0.218,0.672
		C74.258,75.384,74.434,75.483,74.616,75.483z"/>
	<path fill="#FFFFFF" d="M64.553,80.616c0.076,0,0.154-0.018,0.227-0.055l2.516-1.283c0.246-0.125,0.344-0.427,0.218-0.672
		c-0.126-0.246-0.426-0.345-0.672-0.218l-2.516,1.283c-0.246,0.125-0.344,0.427-0.218,0.672
		C64.195,80.516,64.371,80.616,64.553,80.616z"/>
	<path fill="#FFFFFF" d="M89.711,67.785c0.076,0,0.154-0.018,0.227-0.055l2.516-1.283c0.246-0.125,0.344-0.427,0.218-0.672
		c-0.126-0.246-0.427-0.345-0.672-0.218l-2.516,1.283c-0.246,0.125-0.344,0.427-0.218,0.672
		C89.354,67.686,89.529,67.785,89.711,67.785z"/>
	<path fill="#FFFFFF" d="M84.679,70.351c0.076,0,0.154-0.018,0.227-0.055l2.516-1.283c0.246-0.125,0.344-0.427,0.218-0.672
		c-0.126-0.246-0.427-0.344-0.672-0.218l-2.516,1.283c-0.246,0.125-0.344,0.427-0.218,0.672
		C84.322,70.251,84.497,70.351,84.679,70.351z"/>
	<path fill="#FFFFFF" d="M79.647,72.917c0.076,0,0.154-0.018,0.227-0.055l2.516-1.283c0.246-0.125,0.344-0.426,0.218-0.672
		s-0.426-0.344-0.672-0.218l-2.516,1.283c-0.246,0.125-0.344,0.426-0.218,0.672C79.29,72.818,79.465,72.917,79.647,72.917z"/>
	<path fill="#FFFFFF" d="M69.584,78.05c0.076,0,0.154-0.018,0.227-0.055l2.516-1.283c0.246-0.125,0.344-0.427,0.218-0.672
		c-0.126-0.247-0.426-0.345-0.672-0.218l-2.516,1.283c-0.246,0.125-0.344,0.427-0.218,0.672C69.227,77.95,69.402,78.05,69.584,78.05
		z"/>
	<path fill="#FFFFFF" d="M61.81,80.954l-1.336,0.682c-0.167,0.085-0.273,0.257-0.273,0.445v1.5c0,0.276,0.224,0.5,0.5,0.5
		s0.5-0.224,0.5-0.5v-1.194l1.063-0.542c0.246-0.125,0.344-0.426,0.218-0.672C62.356,80.926,62.055,80.827,61.81,80.954z"/>
	<path fill="#FFFFFF" d="M60.7,120.954c0.276,0,0.5-0.224,0.5-0.5v-3.073c0-0.276-0.224-0.5-0.5-0.5s-0.5,0.224-0.5,0.5v3.073
		C60.2,120.73,60.424,120.954,60.7,120.954z"/>
	<path fill="#FFFFFF" d="M60.7,90.226c0.276,0,0.5-0.224,0.5-0.5v-3.073c0-0.276-0.224-0.5-0.5-0.5s-0.5,0.224-0.5,0.5v3.073
		C60.2,90.002,60.424,90.226,60.7,90.226z"/>
	<path fill="#FFFFFF" d="M60.7,114.808c0.276,0,0.5-0.224,0.5-0.5v-3.073c0-0.276-0.224-0.5-0.5-0.5s-0.5,0.224-0.5,0.5v3.073
		C60.2,114.584,60.424,114.808,60.7,114.808z"/>
	<path fill="#FFFFFF" d="M60.7,108.663c0.276,0,0.5-0.224,0.5-0.5v-3.073c0-0.276-0.224-0.5-0.5-0.5s-0.5,0.224-0.5,0.5v3.073
		C60.2,108.439,60.424,108.663,60.7,108.663z"/>
	<path fill="#FFFFFF" d="M60.7,96.372c0.276,0,0.5-0.224,0.5-0.5v-3.073c0-0.276-0.224-0.5-0.5-0.5s-0.5,0.224-0.5,0.5v3.073
		C60.2,96.148,60.424,96.372,60.7,96.372z"/>
	<path fill="#FFFFFF" d="M60.7,102.517c0.276,0,0.5-0.224,0.5-0.5v-3.073c0-0.276-0.224-0.5-0.5-0.5s-0.5,0.224-0.5,0.5v3.073
		C60.2,102.293,60.424,102.517,60.7,102.517z"/>
	<path fill="#FFFFFF" d="M62.262,125.269l-1.062-0.548v-1.195c0-0.276-0.224-0.5-0.5-0.5s-0.5,0.224-0.5,0.5v1.5
		c0,0.188,0.104,0.358,0.271,0.444l1.333,0.688c0.073,0.038,0.151,0.056,0.229,0.056c0.181,0,0.356-0.099,0.445-0.271
		C62.604,125.697,62.508,125.396,62.262,125.269z"/>
	<path fill="#FFFFFF" d="M87.319,138.185l-2.505-1.292c-0.245-0.128-0.546-0.03-0.673,0.215c-0.126,0.246-0.03,0.547,0.215,0.674
		l2.505,1.292c0.073,0.038,0.151,0.056,0.229,0.056c0.181,0,0.356-0.099,0.445-0.271C87.661,138.613,87.564,138.312,87.319,138.185z
		"/>
	<path fill="#FFFFFF" d="M92.33,140.768l-2.505-1.291c-0.246-0.128-0.547-0.03-0.673,0.215c-0.126,0.246-0.03,0.548,0.215,0.674
		l2.505,1.291c0.073,0.038,0.151,0.056,0.229,0.056c0.181,0,0.356-0.099,0.445-0.271C92.672,141.196,92.576,140.894,92.33,140.768z"
		/>
	<path fill="#FFFFFF" d="M82.308,135.602l-2.506-1.292c-0.246-0.128-0.547-0.03-0.673,0.215c-0.126,0.246-0.03,0.547,0.215,0.674
		l2.506,1.292c0.073,0.038,0.151,0.056,0.229,0.056c0.181,0,0.356-0.099,0.445-0.271C82.649,136.03,82.553,135.729,82.308,135.602z"
		/>
	<path fill="#FFFFFF" d="M77.296,133.018l-2.506-1.291c-0.245-0.128-0.547-0.03-0.673,0.216c-0.126,0.245-0.03,0.547,0.215,0.673
		l2.506,1.291c0.073,0.038,0.151,0.056,0.229,0.056c0.181,0,0.356-0.099,0.445-0.271C77.638,133.446,77.542,133.144,77.296,133.018z
		"/>
	<path fill="#FFFFFF" d="M72.285,130.435l-2.506-1.292c-0.245-0.127-0.547-0.03-0.673,0.215c-0.126,0.246-0.03,0.547,0.215,0.674
		l2.506,1.292c0.073,0.038,0.151,0.056,0.229,0.056c0.181,0,0.356-0.099,0.445-0.271C72.627,130.863,72.531,130.562,72.285,130.435z
		"/>
	<path fill="#FFFFFF" d="M67.274,127.852l-2.506-1.292c-0.246-0.127-0.546-0.03-0.673,0.215c-0.126,0.246-0.03,0.547,0.215,0.674
		l2.506,1.292c0.073,0.038,0.151,0.056,0.229,0.056c0.181,0,0.356-0.099,0.445-0.271C67.616,128.28,67.52,127.979,67.274,127.852z"
		/>
</g>
</svg>
