<svg xmlns="http://www.w3.org/2000/svg" viewBox="0 0 108 108"><title>Icon_RH_shapes_hearts_RGB_Black</title><path d="M80.24 52.09a.5.5 0 0 0 0 1c4 0 6.48 3.61 6.48 7a.5.5 0 0 0 1 0c0-3.87-2.86-8-7.48-8zM62.67 33.17c5.35 0 8.67 4.82 8.67 9.29a.5.5 0 0 0 1 0c0-4.95-3.7-10.29-9.67-10.29a.5.5 0 0 0 0 1zM80.29 46.6a13.9 13.9 0 0 0-2.05.15 26.87 26.87 0 0 0 .43-4.75c0-8.1-6.09-16.85-15.94-16.85a16.87 16.87 0 0 0-14.81 8.76 16.87 16.87 0 0 0-14.82-8.8c-9.84 0-15.94 8.75-15.94 16.85 0 9.65 5.28 18.84 15.26 26.59a67.73 67.73 0 0 0 15.12 8.83 1 1 0 0 0 .73 0c.07 0 1.55-.62 3.85-1.77a39.19 39.19 0 0 0 4.92 4.51 51.89 51.89 0 0 0 11.58 6.76 1 1 0 0 0 .73 0 51.89 51.89 0 0 0 11.58-6.76c7.67-5.95 11.72-13 11.72-20.45.02-6.28-4.72-13.07-12.36-13.07zM47.92 75.37C44.55 73.94 19.17 62.5 19.17 42c0-7.14 5.33-14.85 13.94-14.85 10.23 0 13.73 9 13.88 9.33a1 1 0 0 0 1.87 0c.14-.38 3.65-9.33 13.88-9.33 8.61 0 13.94 7.71 13.94 14.85a24.86 24.86 0 0 1-.58 5.29 13.49 13.49 0 0 0-7.1 5.76 13 13 0 0 0-11.29-6.45c-7.65 0-12.38 6.79-12.38 13.08A22.79 22.79 0 0 0 50.79 74c-1.34.71-2.36 1.15-2.87 1.37zM69 84.87C66.12 83.64 47.33 75 47.33 59.68c0-5.33 4-11.08 10.38-11.08a11.21 11.21 0 0 1 10.35 7 1 1 0 0 0 .93.65 1 1 0 0 0 .94-.65 11.56 11.56 0 0 1 6.78-6.4 1 1 0 0 0 .85-.24 11.68 11.68 0 0 1 2.72-.31c6.41 0 10.38 5.75 10.38 11.08C90.67 75 71.87 83.63 69 84.87z"/></svg>