<?xml version="1.0" encoding="utf-8"?>
<!-- Generator: Adobe Illustrator 17.1.0, SVG Export Plug-In . SVG Version: 6.00 Build 0)  -->
<!DOCTYPE svg PUBLIC "-//W3C//DTD SVG 1.1//EN" "http://www.w3.org/Graphics/SVG/1.1/DTD/svg11.dtd">
<svg version="1.1" id="Layer_1" xmlns="http://www.w3.org/2000/svg" xmlns:xlink="http://www.w3.org/1999/xlink" x="0px" y="0px"
	 viewBox="0 0 216 216" enable-background="new 0 0 216 216" xml:space="preserve">
<g>
	<g>
		<path d="M108.699,145.471c-0.167,0-0.335-0.041-0.485-0.125l-36.87-20.484c-0.247-0.137-0.425-0.371-0.488-0.646
			c-0.064-0.275-0.009-0.564,0.151-0.797l36.871-53.258c0.373-0.539,1.271-0.539,1.645,0l36.871,53.258
			c0.16,0.232,0.216,0.521,0.151,0.797c-0.063,0.275-0.241,0.51-0.488,0.646l-36.872,20.484
			C109.034,145.43,108.866,145.471,108.699,145.471z M73.279,123.65l35.42,19.678l35.422-19.678L108.7,72.486L73.279,123.65z"/>
		<path d="M108.699,145.471L108.699,145.471c-0.553,0-1-0.447-1-1l0.001-73.742c0-0.552,0.448-1,1-1l0,0c0.553,0,1,0.448,1,1
			l-0.001,73.742C109.699,145.023,109.251,145.471,108.699,145.471z"/>
	</g>
</g>
</svg>
