<?xml version="1.0" encoding="utf-8"?>
<!-- Generator: Adobe Illustrator 17.1.0, SVG Export Plug-In . SVG Version: 6.00 Build 0)  -->
<!DOCTYPE svg PUBLIC "-//W3C//DTD SVG 1.1//EN" "http://www.w3.org/Graphics/SVG/1.1/DTD/svg11.dtd">
<svg version="1.1" id="Layer_1" xmlns="http://www.w3.org/2000/svg" xmlns:xlink="http://www.w3.org/1999/xlink" x="0px" y="0px"
	 viewBox="0 0 108 108" enable-background="new 0 0 108 108" xml:space="preserve">
<g>
	<path d="M92.794,44.416c-0.119-0.362-0.432-0.626-0.809-0.681L66.22,39.992L54.698,16.644c-0.168-0.341-0.516-0.558-0.896-0.558
		c-0.381,0-0.729,0.216-0.896,0.558L41.381,39.992l-25.767,3.744c-0.377,0.055-0.689,0.319-0.807,0.681
		c-0.118,0.362-0.019,0.759,0.252,1.025l18.646,18.174l-4.401,25.662c-0.064,0.375,0.09,0.754,0.398,0.977
		c0.309,0.225,0.717,0.254,1.053,0.076l23.047-12.113L76.847,90.33c0.145,0.078,0.305,0.115,0.465,0.115
		c0.207,0,0.414-0.064,0.588-0.191c0.307-0.223,0.461-0.602,0.396-0.977l-4.4-25.662L92.54,45.441
		C92.813,45.175,92.911,44.778,92.794,44.416z M72.122,62.551c-0.234,0.229-0.342,0.561-0.287,0.885l4.148,24.182L54.267,76.201
		c-0.291-0.154-0.64-0.154-0.931,0L31.618,87.617l4.147-24.182c0.056-0.324-0.052-0.656-0.288-0.885l-17.57-17.127l24.281-3.528
		c0.326-0.047,0.607-0.252,0.754-0.547l10.859-22.002l10.857,22.002c0.145,0.296,0.426,0.5,0.752,0.547l24.281,3.528L72.122,62.551z
		"/>
	<path d="M55.893,75.002c-0.129,0.244-0.035,0.547,0.21,0.675l16.723,8.791c0.074,0.039,0.153,0.058,0.232,0.058
		c0.18,0,0.354-0.097,0.442-0.268c0.129-0.244,0.035-0.547-0.21-0.675l-16.723-8.791C56.324,74.665,56.021,74.756,55.893,75.002z"/>
	<path d="M54.136,23.538c-0.247-0.122-0.547-0.021-0.669,0.227l-7.989,16.189c-0.123,0.248-0.021,0.547,0.227,0.669
		c0.071,0.035,0.146,0.052,0.221,0.052c0.185,0,0.362-0.102,0.449-0.279l7.989-16.189C54.486,23.96,54.384,23.66,54.136,23.538z"/>
	<path d="M23.551,47.545c-0.197-0.191-0.515-0.189-0.707,0.009c-0.193,0.198-0.189,0.514,0.009,0.707l14.644,14.275l-2.196,12.803
		c-0.047,0.272,0.136,0.531,0.408,0.578c0.028,0.005,0.057,0.007,0.085,0.007c0.239,0,0.451-0.172,0.492-0.415l2.24-13.062
		c0.028-0.163-0.026-0.328-0.144-0.443L23.551,47.545z"/>
</g>
</svg>
