<?xml version="1.0" encoding="utf-8"?>
<!-- Generator: Adobe Illustrator 17.1.0, SVG Export Plug-In . SVG Version: 6.00 Build 0)  -->
<!DOCTYPE svg PUBLIC "-//W3C//DTD SVG 1.1//EN" "http://www.w3.org/Graphics/SVG/1.1/DTD/svg11.dtd">
<svg version="1.1" id="Layer_1" xmlns="http://www.w3.org/2000/svg" xmlns:xlink="http://www.w3.org/1999/xlink" x="0px" y="0px"
	 viewBox="0 0 216 216" enable-background="new 0 0 216 216" xml:space="preserve">
<g>
	<g>
		<defs>
			<path id="SVGID_1_" d="M108.005,144.639h-0.003c-19.638,0-35.61-15.973-35.61-35.609c0.001-19.635,15.976-35.607,35.609-35.607
				c19.635,0,35.608,15.975,35.608,35.609C143.609,128.664,127.637,144.637,108.005,144.639z M108.001,75.422
				c-18.531,0-33.608,15.076-33.609,33.607c0,18.533,15.075,33.609,33.605,33.609l0.008,1v-1
				c18.529-0.002,33.604-15.078,33.604-33.607C141.609,90.499,126.532,75.422,108.001,75.422z"/>
		</defs>
		<use xlink:href="#SVGID_1_"  overflow="visible" fill="#FFFFFF"/>
		<clipPath id="SVGID_2_">
			<use xlink:href="#SVGID_1_"  overflow="visible"/>
		</clipPath>
		<g clip-path="url(#SVGID_2_)">
			<path fill="#FFFFFF" d="M121.776,155.877c-13.877,0-26.922-5.404-36.733-15.215c-9.812-9.812-15.217-22.861-15.217-36.738
				c0.001-28.646,23.307-51.953,51.953-51.953s51.952,23.307,51.952,51.955c0,28.644-23.304,51.949-51.948,51.951h-0.003
				C121.779,155.877,121.777,155.877,121.776,155.877z M121.779,53.971c-27.543,0-49.952,22.409-49.953,49.953
				c0,13.344,5.196,25.889,14.631,35.324c9.434,9.434,21.978,14.629,35.318,14.629c0.002,0,0.002,0,0.004,0h0.004
				c27.541-0.002,49.948-22.408,49.948-49.951C171.731,76.381,149.323,53.971,121.779,53.971z"/>
		</g>
	</g>
	<g>
		<path fill="#FFFFFF" d="M132.953,97.139c-0.275,0-0.541-0.152-0.672-0.415c-4.415-8.838-10.719-13.651-20.438-15.604
			c-0.406-0.082-0.67-0.477-0.588-0.883c0.081-0.406,0.474-0.667,0.883-0.587c10.218,2.053,16.844,7.112,21.485,16.404
			c0.186,0.37,0.035,0.821-0.336,1.006C133.18,97.114,133.065,97.139,132.953,97.139z"/>
	</g>
</g>
</svg>
