<svg xmlns="http://www.w3.org/2000/svg" viewBox="0 0 108 108"><defs><style>.a{fill:#fff;}</style></defs><title>Icon_RH_Shapes_Pattern-Crosshatch_RGB_White</title><path class="a" d="M77.49 54l10.34-10.33a1 1 0 0 0-1.41-1.41L76.08 52.59 66.45 43l10.34-10.37a1 1 0 0 0-1.41-1.41L65 41.55l-9.63-9.63 10.38-10.33a1 1 0 0 0-1.41-1.41L54 30.51 43.67 20.17a1 1 0 0 0-1.41 1.41l10.33 10.34L43 41.55 32.63 31.21a1 1 0 0 0-1.41 1.41L41.55 43l-9.63 9.63-10.33-10.38a1 1 0 0 0-1.41 1.41L30.51 54 20.17 64.33a1 1 0 1 0 1.41 1.41l10.34-10.33L41.55 65 31.21 75.37a1 1 0 1 0 1.41 1.41L43 66.45l9.63 9.63-10.38 10.33a1 1 0 1 0 1.41 1.41L54 77.49l10.33 10.34a1 1 0 0 0 1.41-1.41L55.41 76.08 65 66.45l10.37 10.34a1 1 0 0 0 1.41-1.41L66.45 65l9.63-9.63 10.33 10.38a1 1 0 0 0 1.41-1.41zM54 33.33L63.63 43 54 52.59 44.37 43zM33.33 54L43 44.37 52.59 54 43 63.63zM54 74.67L44.37 65 54 55.41 63.63 65zm11-11L55.41 54 65 44.37 74.67 54z"/></svg>