<?xml version="1.0" encoding="utf-8"?>
<!-- Generator: Adobe Illustrator 17.1.0, SVG Export Plug-In . SVG Version: 6.00 Build 0)  -->
<!DOCTYPE svg PUBLIC "-//W3C//DTD SVG 1.1//EN" "http://www.w3.org/Graphics/SVG/1.1/DTD/svg11.dtd">
<svg version="1.1" id="Layer_1" xmlns="http://www.w3.org/2000/svg" xmlns:xlink="http://www.w3.org/1999/xlink" x="0px" y="0px"
	 viewBox="0 0 216 216" enable-background="new 0 0 216 216" xml:space="preserve">
<g>
	<path d="M135.548,79.357H63.2c-0.487,0-0.882,0.395-0.882,0.881v45.819c0,0.485,0.395,0.88,0.882,0.88h7.145
		c0.07,0,0.139-0.006,0.207-0.023l16.054-3.887c0.473-0.116,0.764-0.593,0.647-1.065c-0.113-0.475-0.591-0.765-1.063-0.649
		l-15.951,3.864h-6.156V81.12h70.585v44.057h-46.86c-0.487,0-0.881,0.392-0.881,0.881c0,0.485,0.394,0.88,0.881,0.88h47.741
		c0.488,0,0.883-0.395,0.883-0.88V80.238C136.431,79.752,136.036,79.357,135.548,79.357z"/>
	<path d="M84.015,98.827h2.702c0.567,0,1.029-0.462,1.029-1.029v-7.425c0-0.568-0.462-1.03-1.029-1.03H71.202
		c-0.567,0-1.03,0.462-1.03,1.03v7.425c0,0.567,0.462,1.029,1.03,1.029h9.492c0.182,0.557,0.838,1.828,3.031,1.828h0.555
		l-0.312-0.457c-0.003-0.006-0.357-0.543-0.252-0.979C83.753,99.06,83.852,98.931,84.015,98.827z M83.145,99.081
		c-0.082,0.344-0.005,0.693,0.096,0.965c-1.814-0.199-2.021-1.492-2.029-1.549l-0.033-0.256h-9.976
		c-0.245,0-0.444-0.199-0.444-0.443v-7.425c0-0.245,0.199-0.445,0.444-0.445h15.515c0.244,0,0.444,0.2,0.444,0.445v7.425
		c0,0.244-0.2,0.443-0.444,0.443h-2.855l-0.066,0.036C83.447,98.468,83.228,98.737,83.145,99.081z"/>
	<path d="M104.657,98.827h2.702c0.567,0,1.029-0.462,1.029-1.029v-7.425c0-0.568-0.462-1.03-1.029-1.03H91.844
		c-0.567,0-1.029,0.462-1.029,1.03v7.425c0,0.567,0.463,1.029,1.029,1.029h9.492c0.182,0.557,0.838,1.828,3.031,1.828h0.555
		l-0.312-0.457c-0.003-0.006-0.357-0.543-0.252-0.979C104.396,99.06,104.494,98.931,104.657,98.827z M103.787,99.081
		c-0.082,0.344-0.005,0.693,0.096,0.965c-1.814-0.199-2.021-1.492-2.029-1.549l-0.033-0.256h-9.976
		c-0.244,0-0.443-0.199-0.443-0.443v-7.425c0-0.245,0.199-0.445,0.443-0.445h15.516c0.244,0,0.444,0.2,0.444,0.445v7.425
		c0,0.244-0.2,0.443-0.444,0.443h-2.855l-0.066,0.036C104.09,98.468,103.87,98.737,103.787,99.081z"/>
	<path d="M124.991,98.827h2.702c0.567,0,1.029-0.462,1.029-1.029v-7.425c0-0.568-0.462-1.03-1.029-1.03h-15.516
		c-0.566,0-1.029,0.462-1.029,1.03v7.425c0,0.567,0.463,1.029,1.029,1.029h9.492c0.182,0.557,0.838,1.828,3.031,1.828h0.555
		l-0.312-0.457c-0.003-0.006-0.357-0.543-0.252-0.979C124.729,99.06,124.828,98.931,124.991,98.827z M124.121,99.081
		c-0.082,0.344-0.005,0.693,0.096,0.965c-1.814-0.199-2.021-1.492-2.029-1.549l-0.033-0.256h-9.977
		c-0.244,0-0.443-0.199-0.443-0.443v-7.425c0-0.245,0.199-0.445,0.443-0.445h15.516c0.244,0,0.444,0.2,0.444,0.445v7.425
		c0,0.244-0.2,0.443-0.444,0.443h-2.855l-0.066,0.036C124.424,98.468,124.204,98.737,124.121,99.081z"/>
	<path d="M84.015,113.959h2.702c0.567,0,1.029-0.462,1.029-1.029v-7.425c0-0.568-0.462-1.03-1.029-1.03H71.202
		c-0.567,0-1.03,0.462-1.03,1.03v7.425c0,0.567,0.462,1.029,1.03,1.029h9.492c0.182,0.557,0.838,1.828,3.031,1.828h0.555
		l-0.312-0.457c-0.003-0.006-0.357-0.543-0.252-0.979C83.753,114.191,83.852,114.062,84.015,113.959z M83.145,114.213
		c-0.082,0.344-0.005,0.693,0.096,0.965c-1.814-0.199-2.021-1.492-2.029-1.549l-0.033-0.256h-9.976
		c-0.245,0-0.444-0.199-0.444-0.443v-7.425c0-0.245,0.199-0.445,0.444-0.445h15.515c0.244,0,0.444,0.2,0.444,0.445v7.425
		c0,0.244-0.2,0.443-0.444,0.443h-2.855l-0.066,0.036C83.447,113.6,83.228,113.869,83.145,114.213z"/>
	<path d="M90.814,112.93c0,0.567,0.463,1.029,1.029,1.029h9.492c0.182,0.557,0.838,1.828,3.031,1.828h0.555l-0.312-0.457
		c-0.003-0.006-0.357-0.543-0.252-0.979c0.038-0.159,0.137-0.288,0.3-0.392h2.702c0.567,0,1.029-0.462,1.029-1.029v-7.425
		c0-0.568-0.462-1.03-1.029-1.03H91.844c-0.567,0-1.029,0.462-1.029,1.03V112.93z M91.4,105.505c0-0.245,0.199-0.445,0.443-0.445
		h15.516c0.244,0,0.444,0.2,0.444,0.445v7.425c0,0.244-0.2,0.443-0.444,0.443h-2.855l-0.066,0.036
		c-0.348,0.19-0.567,0.46-0.65,0.804c-0.082,0.344-0.005,0.693,0.096,0.965c-1.814-0.199-2.021-1.492-2.029-1.549l-0.033-0.256
		h-9.976c-0.244,0-0.443-0.199-0.443-0.443V105.505z"/>
	<path d="M111.148,112.93c0,0.567,0.463,1.029,1.029,1.029h9.492c0.182,0.557,0.838,1.828,3.031,1.828h0.555l-0.312-0.457
		c-0.003-0.006-0.357-0.543-0.252-0.979c0.038-0.159,0.137-0.288,0.3-0.392h2.702c0.567,0,1.029-0.462,1.029-1.029v-7.425
		c0-0.568-0.462-1.03-1.029-1.03h-15.516c-0.566,0-1.029,0.462-1.029,1.03V112.93z M111.734,105.505
		c0-0.245,0.199-0.445,0.443-0.445h15.516c0.244,0,0.444,0.2,0.444,0.445v7.425c0,0.244-0.2,0.443-0.444,0.443h-2.855l-0.066,0.036
		c-0.348,0.19-0.567,0.46-0.65,0.804c-0.082,0.344-0.005,0.693,0.096,0.965c-1.814-0.199-2.021-1.492-2.029-1.549l-0.033-0.256
		h-9.977c-0.244,0-0.443-0.199-0.443-0.443V105.505z"/>
</g>
</svg>
