<?xml version="1.0" encoding="utf-8"?>
<!-- Generator: Adobe Illustrator 17.1.0, SVG Export Plug-In . SVG Version: 6.00 Build 0)  -->
<!DOCTYPE svg PUBLIC "-//W3C//DTD SVG 1.1//EN" "http://www.w3.org/Graphics/SVG/1.1/DTD/svg11.dtd">
<svg version="1.1" id="Layer_1" xmlns="http://www.w3.org/2000/svg" xmlns:xlink="http://www.w3.org/1999/xlink" x="0px" y="0px"
	 viewBox="0 0 144 144" enable-background="new 0 0 144 144" xml:space="preserve">
<g>
	<g>
		<linearGradient id="SVGID_1_" gradientUnits="userSpaceOnUse" x1="46.744" y1="46.0426" x2="96.9942" y2="96.2929">
			<stop  offset="0" style="stop-color:#E6E6E6"/>
			<stop  offset="0.5" style="stop-color:#F7F7F7"/>
			<stop  offset="1" style="stop-color:#C4C4C4"/>
		</linearGradient>
		<rect x="44.744" y="48.042" fill="url(#SVGID_1_)" width="54.25" height="46.25"/>
		<g>
			<path d="M99.303,46.843H44.697c-0.553,0-1,0.447-1,1v46.801c0,0.553,0.447,1,1,1h54.605c0.552,0,1-0.447,1-1V47.843
				C100.303,47.291,99.854,46.843,99.303,46.843z M79.135,80.73v-0.281c0-0.414-0.336-0.75-0.75-0.75H65.614
				c-0.414,0-0.75,0.336-0.75,0.75v0.281H45.697v-4.34h52.605v4.34H79.135z M87.883,81.73v7.395h-8.748V81.73H87.883z
				 M66.364,93.801V81.199h4.886v12.602H66.364z M77.635,93.801H72.75V81.199h4.885V93.801z M64.864,89.125h-8.501V81.73h8.501
				V89.125z M98.303,62.292v4.431H45.697v-4.431H98.303z M56.676,61.292v-7.034h9.519v7.034H56.676z M67.195,61.292v-7.034h10.5
				v7.034H67.195z M78.695,61.292v-7.034h9.5v7.034H78.695z M88.856,67.723h9.446v7.668h-9.42v-7.535
				C88.883,67.809,88.869,67.766,88.856,67.723z M98.303,61.292h-9.107v-7.034h9.107V61.292z M78.356,67.723h9.554
				c-0.012,0.043-0.027,0.086-0.027,0.133v7.535h-9.5v-7.535C78.383,67.809,78.369,67.766,78.356,67.723z M66.856,67.723H77.41
				c-0.012,0.043-0.027,0.086-0.027,0.133v7.535h-10.5v-7.535C66.883,67.809,66.869,67.766,66.856,67.723z M56.336,67.723h9.574
				c-0.012,0.043-0.027,0.086-0.027,0.133v7.535h-9.519v-7.535C56.363,67.809,56.348,67.766,56.336,67.723z M45.697,67.723h9.692
				c-0.013,0.043-0.026,0.086-0.026,0.133v7.535h-9.666V67.723z M55.676,61.292h-9.979v-7.034h9.979V61.292z M45.697,81.73h9.666
				v7.395h-9.666V81.73z M88.883,81.73h9.42v7.395h-9.42V81.73z M45.697,48.843h52.605v4.415H45.697V48.843z M45.697,90.125h19.167
				v3.52H45.697V90.125z M98.303,93.645H79.135v-3.52h19.168V93.645z"/>
			<path d="M74.279,88.809c0.276,0,0.5-0.223,0.5-0.5V87.5c0-0.277-0.224-0.5-0.5-0.5c-0.276,0-0.5,0.223-0.5,0.5v0.809
				C73.779,88.586,74.003,88.809,74.279,88.809z"/>
			<path d="M69.613,87c-0.277,0-0.5,0.223-0.5,0.5v0.809c0,0.277,0.223,0.5,0.5,0.5c0.275,0,0.5-0.223,0.5-0.5V87.5
				C70.113,87.223,69.889,87,69.613,87z"/>
		</g>
	</g>
</g>
</svg>
