<svg xmlns="http://www.w3.org/2000/svg" viewBox="0 0 108 108"><defs><style>.a{fill:#fff;}</style></defs><title>Icon_RH_Office_Cabinet_RGB_White</title><path class="a" d="M59.5 53a.77.77 0 1 0 .77.77.77.77 0 0 0-.77-.77zM32.56 73.5H52.5a.75.75 0 0 0 .75-.75v-23a.75.75 0 0 0-.75-.75H32.56a.75.75 0 0 0-.75.75v23a.75.75 0 0 0 .75.75zm.75-23h18.44V72H33.31zm22.19-3h19.94a.75.75 0 0 0 .75-.75V39a.75.75 0 0 0-.75-.75H55.5a.75.75 0 0 0-.75.75v7.79a.75.75 0 0 0 .75.72zm.75-7.79h18.44V46H56.25zm9.22 2.37a.77.77 0 1 0 .77.77.77.77 0 0 0-.77-.76zM48.5 53a.77.77 0 1 0 .77.77.77.77 0 0 0-.77-.77zm-6-10.9a.77.77 0 1 0 .77.77.77.77 0 0 0-.74-.78zm-10 5.42h20a.75.75 0 0 0 .75-.75V39a.75.75 0 0 0-.75-.75H32.56a.75.75 0 0 0-.75.75v7.79a.75.75 0 0 0 .75.72zm.75-7.79h18.5V46H33.31zm46.13-9.46H28.56a1 1 0 0 0-1 1v45.48a1 1 0 0 0 1 1h50.88a1 1 0 0 0 1-1v-45.5a1 1 0 0 0-1-1zm-1 45.49H29.56V36h48.88zm0-41.78H29.56v-1.73h48.88zM55.5 73.5h19.94a.75.75 0 0 0 .75-.75v-23a.75.75 0 0 0-.75-.75H55.5a.75.75 0 0 0-.75.75v23a.75.75 0 0 0 .75.75zm.75-23h18.44V72H56.25z"/></svg>