<?xml version="1.0" encoding="utf-8"?>
<!-- Generator: Adobe Illustrator 17.1.0, SVG Export Plug-In . SVG Version: 6.00 Build 0)  -->
<!DOCTYPE svg PUBLIC "-//W3C//DTD SVG 1.1//EN" "http://www.w3.org/Graphics/SVG/1.1/DTD/svg11.dtd">
<svg version="1.1" id="Layer_1" xmlns="http://www.w3.org/2000/svg" xmlns:xlink="http://www.w3.org/1999/xlink" x="0px" y="0px"
	 viewBox="0 0 144 144" enable-background="new 0 0 144 144" xml:space="preserve">
<g>
	<g>
		<g>
			<path d="M44.198,43.18c0.484,0,0.875-0.392,0.875-0.875c0-0.483-0.391-0.875-0.875-0.875H39.5c-0.482,0-0.875,0.392-0.875,0.875
				c0,0.483,0.393,0.875,0.875,0.875h1.543v49.668H39.5c-0.482,0-0.875,0.391-0.875,0.875c0,0.482,0.393,0.875,0.875,0.875h4.697
				c0.484,0,0.875-0.393,0.875-0.875c0-0.484-0.391-0.875-0.875-0.875h-1.404V43.18H44.198z"/>
			<path d="M104.5,94.609c-0.484,0-0.875,0.393-0.875,0.875v1.404l-54.712,0.068v-1.473c0-0.482-0.391-0.875-0.875-0.875
				c-0.482,0-0.875,0.393-0.875,0.875v4.699c0,0.482,0.393,0.875,0.875,0.875c0.484,0,0.875-0.393,0.875-0.875v-1.477l54.712-0.068
				v1.545c0,0.482,0.391,0.875,0.875,0.875c0.482,0,0.875-0.393,0.875-0.875v-4.699C105.375,95.002,104.982,94.609,104.5,94.609z"/>
			<path d="M77.752,84.49c1.021,0,1.854-0.994,1.854-2.215V77.49c0-1.221-0.832-2.215-1.854-2.215c-0.23,0-0.451,0.057-0.654,0.15
				c-0.932-1.826-2.826-3.082-5.012-3.082h-5.179c-2.193,0-4.092,1.262-5.02,3.098c-0.215-0.105-0.449-0.166-0.696-0.166
				c-1.021,0-1.852,0.994-1.852,2.215v4.785c0,1.221,0.832,2.215,1.852,2.215c0.112,0,0.221-0.017,0.327-0.039
				c0.127,0.424,0.307,0.828,0.525,1.205c-0.239,0.34-0.4,0.84-0.4,1.588c0,1.625,2.756,2.787,4.373,3.326
				c0.053,0.02,1.311,0.492,3.48,0.492c2.168,0,3.427-0.473,3.453-0.484c1.642-0.547,4.398-1.709,4.398-3.334
				c0-0.748-0.16-1.248-0.4-1.588c0.219-0.377,0.396-0.777,0.525-1.201C77.564,84.473,77.656,84.49,77.752,84.49z M62.043,82.275
				c0,0.596-0.325,1.086-0.729,1.178c-0.042,0.01-0.08,0.037-0.124,0.037c-0.462,0-0.852-0.557-0.852-1.215V77.49
				c0-0.658,0.391-1.215,0.852-1.215c0.114,0,0.223,0.035,0.323,0.096c0.307,0.186,0.529,0.623,0.529,1.119V82.275z M72.532,89.4
				c-0.012,0.006-1.119,0.412-3.035,0.412c-1.918,0-3.025-0.406-3.06-0.42c-2.444-0.814-3.544-1.746-3.544-2.148
				c0-0.182,0.012-0.32,0.027-0.441c0.068-0.529,0.271-0.539,0.473-0.539c0.215,0,0.488,0.051,0.739,0.104
				c0.02,0.004,0.122,0.027,0.286,0.062c0.765,0.162,2.943,0.578,5.078,0.578c2.141,0,4.326-0.42,5.076-0.578
				c0.158-0.033,0.256-0.057,0.273-0.061c0.264-0.055,0.539-0.105,0.754-0.105c0.199,0,0.402,0.01,0.471,0.539
				c0.016,0.121,0.027,0.26,0.027,0.441C76.098,87.646,74.998,88.578,72.532,89.4z M75.85,85.029
				c-0.084-0.01-0.168-0.016-0.25-0.016c-0.312,0-0.629,0.053-1.025,0.137c-0.025,0.006-2.636,0.607-5.078,0.607
				c-2.443,0-5.055-0.601-5.094-0.611c-0.381-0.08-0.699-0.133-1.01-0.133c-0.083,0-0.168,0.006-0.252,0.016
				c-0.244-0.416-0.432-0.865-0.527-1.354c0.264-0.383,0.43-0.867,0.43-1.4V77.49c0-0.377-0.087-0.726-0.227-1.039
				c0.62-1.664,2.212-2.857,4.09-2.857h5.179c1.854,0,3.434,1.164,4.069,2.797c-0.156,0.324-0.254,0.697-0.254,1.1v4.785
				c0,0.559,0.18,1.066,0.469,1.455C76.271,84.199,76.084,84.629,75.85,85.029z M76.9,82.275V77.49c0-0.517,0.244-0.963,0.572-1.133
				c0.09-0.045,0.182-0.082,0.279-0.082c0.463,0,0.854,0.557,0.854,1.215v4.785c0,0.658-0.391,1.215-0.854,1.215
				c-0.027,0-0.051-0.019-0.078-0.023C77.25,83.406,76.9,82.895,76.9,82.275z"/>
			<path d="M104.5,41.43H48.303c-0.387,0-0.704,0.254-0.82,0.601c-0.041,0.084-0.07,0.175-0.07,0.274V66.97
				c0,0.345,0.28,0.625,0.625,0.625h40.671v22.842c0,0.344,0.281,0.625,0.625,0.625h14.861c0.094,0.035,0.195,0.061,0.305,0.061
				c0.482,0,0.875-0.391,0.875-0.875V42.305C105.375,41.822,104.982,41.43,104.5,41.43z M103.625,89.812H89.959V67.595h13.666
				V89.812z M103.625,66.345H89.334H48.663V43.18h54.962V66.345z"/>
		</g>
	</g>
</g>
</svg>
