<?xml version="1.0" encoding="utf-8"?>
<!-- Generator: Adobe Illustrator 17.1.0, SVG Export Plug-In . SVG Version: 6.00 Build 0)  -->
<!DOCTYPE svg PUBLIC "-//W3C//DTD SVG 1.1//EN" "http://www.w3.org/Graphics/SVG/1.1/DTD/svg11.dtd">
<svg version="1.1" id="Layer_1" xmlns="http://www.w3.org/2000/svg" xmlns:xlink="http://www.w3.org/1999/xlink" x="0px" y="0px"
	 viewBox="0 0 144 144" enable-background="new 0 0 144 144" xml:space="preserve">
<g>
	<g>
		<path d="M91.742,42.403H80.226l-1.598-5.316c-0.115-0.383-0.511-0.611-0.9-0.512l-23.351,5.828h-0.91c-0.553,0-1,0.447-1,1v17.173
			l-8.132-4.939c-0.356-0.217-0.816-0.104-1.03,0.251c-0.216,0.354-0.103,0.815,0.251,1.03l8.911,5.412v6.285l-8.132-4.939
			c-0.356-0.217-0.816-0.104-1.03,0.251c-0.216,0.355-0.103,0.815,0.251,1.03l8.911,5.412v28.066c0,0.553,0.447,1,1,1h1.058
			c-0.651,0.636-1.058,1.52-1.058,2.499c0,1.929,1.568,3.498,3.498,3.498c1.929,0,3.498-1.569,3.498-3.498
			c0-0.979-0.407-1.863-1.058-2.499h26.398c-0.651,0.636-1.058,1.52-1.058,2.499c0,1.929,1.568,3.498,3.498,3.498
			c1.929,0,3.498-1.569,3.498-3.498c0-0.979-0.407-1.863-1.058-2.499h1.058c0.553,0,1-0.447,1-1V43.403
			C92.742,42.851,92.295,42.403,91.742,42.403z M56.965,104.356c-1.336,0-2.422-1.087-2.422-2.422c0-1.335,1.086-2.422,2.422-2.422
			c1.336,0,2.422,1.087,2.422,2.422C59.387,103.27,58.301,104.356,56.965,104.356z M88.244,104.356
			c-1.336,0-2.422-1.087-2.422-2.422c0-1.335,1.086-2.422,2.422-2.422c1.336,0,2.422,1.087,2.422,2.422
			C90.666,103.27,89.58,104.356,88.244,104.356z M90.742,92.721h-2.94c-0.311,0-0.562-0.252-0.562-0.562
			c0-0.311,0.252-0.563,0.562-0.563h2.94V92.721z M90.742,90.595h-2.94c-0.861,0-1.562,0.701-1.562,1.563
			c0,0.861,0.701,1.562,1.562,1.562h2.94v3.715H54.467V87.22h36.275V90.595z M90.742,79.912v1.126h-2.94
			c-0.311,0-0.562-0.253-0.562-0.563c0-0.311,0.252-0.562,0.562-0.562 M54.467,44.403h36.275v2.629H54.467V44.403z M90.742,48.532
			v4.43H54.467v-4.43H90.742z M54.467,54.462h36.275v3.535h-2.94c-0.861,0-1.562,0.701-1.562,1.562c0,0.861,0.701,1.562,1.562,1.562
			h2.94v12.931H54.467V54.462z M90.742,60.122h-2.94c-0.311,0-0.562-0.252-0.562-0.562c0-0.311,0.252-0.562,0.562-0.562h2.94V60.122
			z M54.467,85.72V75.553h36.275v3.359h-2.94c-0.861,0-1.562,0.701-1.562,1.562c0,0.862,0.701,1.563,1.562,1.563h2.94v3.682H54.467z
			 M77.396,38.204l1.262,4.199H60.57L77.396,38.204z"/>
	</g>
</g>
</svg>
