<svg id="Layer_1" data-name="Layer 1" xmlns="http://www.w3.org/2000/svg" viewBox="0 0 66.76 62.72"><defs><style>.cls-1{fill:#fff;}</style></defs><title>Icon_RH_Ofice_Presentation-ProjectorScreen_RGB_White</title><path class="cls-1" d="M104.77,41.49H73.46a.5.5,0,0,0-.36-.85H70.9a.5.5,0,0,0-.36.85H39.23a.61.61,0,0,0-.61.61v.24a.61.61,0,0,0,.61.61h1.09v33a.75.75,0,0,0,.75.75H71.16v8.06L57.94,102.56a.5.5,0,1,0,.8.6l6.17-8.31H79.09l6.17,8.31a.5.5,0,0,0,.8-.6l-6.23-8.39a.24.24,0,0,0-.17-.22l-6.83-9.19V76.7h30.09a.75.75,0,0,0,.75-.75v-33h1.09a.61.61,0,0,0,.61-.61V42.1A.61.61,0,0,0,104.77,41.49ZM78.35,93.85H65.65L72,85.36l0,0h0ZM102.18,75.2H41.82V43h60.36Z" transform="translate(-38.62 -40.64)"/></svg>