<svg data-name="Layer 2" xmlns="http://www.w3.org/2000/svg" viewBox="0 0 59.46 60.06"><title>Icon_RH_Office_HelpDesk_RGB_Black</title><path d="M29.15 20.28L25.6 23.8a.502.502 0 1 0 .71.71l3.5-3.52a.502.502 0 0 0-.71-.71zm-.6 3.41L25 27.24a.502.502 0 1 0 .71.71l3.55-3.55a.502.502 0 0 0-.71-.71zm11.14-10.74a6.47 6.47 0 1 0-6.47-6.48 6.48 6.48 0 0 0 6.47 6.48zm0-11.3a4.82 4.82 0 1 1-4.82 4.82 4.83 4.83 0 0 1 4.82-4.81zM18.21 45.19h3.46v3.53h1.67v-8.4h-1.67v3.23h-3.46v-3.24h-1.67v8.4h1.67zm40.42-14.76h-6.37a7.86 7.86 0 0 0 .08-1.13l-.4-5.13c-.31-3.15-1-9.71-9.52-9.71h-5.48c-4.19 0-6.48 1.52-7.77 3.45H18.01a.5.5 0 0 0-.5.5v10.13h-1.4a.5.5 0 0 0-.5.5v.25a2.08 2.08 0 0 0 .34 1.14H.81a.83.83 0 0 0-.83.83v3.48a.83.83 0 0 0 .83.83h4.12v23.67a.83.83 0 0 0 .83.83h52.87a.83.83 0 0 0 .83-.83v-28a.83.83 0 0 0-.83-.81zM36.94 16.1h5.49c7.06 0 7.57 5.15 7.87 8.21l.4 5.05a5.68 5.68 0 0 1-.1 1.06h-2.63l-.46-7a.83.83 0 0 0-1.65.11l.46 6.85H35.58a2.08 2.08 0 0 0 .34-1.14v-.25a.5.5 0 0 0-.5-.5h-1.41V18.4a.5.5 0 0 0-.5-.5h-2.16a7.81 7.81 0 0 1 5.59-1.8zm-18.43 2.8h14.5v9.64h-14.5zm16.38 10.64a1.1 1.1 0 0 1-1.06.84H17.7a1.09 1.09 0 0 1-1.06-.84zm22.92 28.87H6.59V35.56h51.22zm0-24.51H1.65v-1.82h56.16zM43.5 45.74h1.85a4.51 4.51 0 0 0 1.21-.16 2.62 2.62 0 0 0 1-.49 2.25 2.25 0 0 0 .64-.86 3.11 3.11 0 0 0 .23-1.25 2.78 2.78 0 0 0-.27-1.18 2.38 2.38 0 0 0-.62-.83 2.59 2.59 0 0 0-.92-.5 3.81 3.81 0 0 0-1.12-.16h-3.69v8.4h1.67zm0-3.78h1.94a1.44 1.44 0 0 1 .9.25 1 1 0 0 1 .33.8q0 1.08-1.2 1.08h-2zm-11.39 5.11h-4.3v-2h2.41V43.4h-2.41v-1.44h4.15v-1.65h-5.85v8.4h6zm8.28 0h-4.21v-6.76h-1.67v8.4h5.88z"/></svg>