<?xml version="1.0" encoding="utf-8"?>
<!-- Generator: Adobe Illustrator 17.1.0, SVG Export Plug-In . SVG Version: 6.00 Build 0)  -->
<!DOCTYPE svg PUBLIC "-//W3C//DTD SVG 1.1//EN" "http://www.w3.org/Graphics/SVG/1.1/DTD/svg11.dtd">
<svg version="1.1" id="Layer_1" xmlns="http://www.w3.org/2000/svg" xmlns:xlink="http://www.w3.org/1999/xlink" x="0px" y="0px"
	 viewBox="0 0 144 144" enable-background="new 0 0 144 144" xml:space="preserve">
<g>
	<g>
		<g>
			<path fill="#FFFFFF" d="M59.794,83.055H37.72c-0.572,0-1.038-0.466-1.038-1.038v-5.98c0-0.572,0.466-1.038,1.038-1.038h22.074
				c0.572,0,1.038,0.466,1.038,1.038v5.98C60.832,82.589,60.366,83.055,59.794,83.055z M38.182,81.555h21.15v-5.057h-21.15V81.555z"
				/>
			<path fill="#FFFFFF" d="M59.794,93.045H37.72c-0.572,0-1.038-0.466-1.038-1.038v-5.968c0-0.572,0.466-1.038,1.038-1.038h22.074
				c0.572,0,1.038,0.466,1.038,1.038v5.968C60.832,92.579,60.366,93.045,59.794,93.045z M38.182,91.545h21.15v-5.044h-21.15V91.545z
				"/>
			<path fill="#FFFFFF" d="M59.794,62.818H37.72c-0.572,0-1.038-0.466-1.038-1.038v-5.736c0-0.572,0.466-1.038,1.038-1.038h22.074
				c0.572,0,1.038,0.466,1.038,1.038v5.736C60.832,62.353,60.366,62.818,59.794,62.818z M38.182,61.318h21.15v-4.812h-21.15V61.318z
				"/>
			<path fill="#FFFFFF" d="M59.794,73.053H37.72c-0.572,0-1.038-0.466-1.038-1.038v-6.212c0-0.572,0.466-1.038,1.038-1.038h22.074
				c0.572,0,1.038,0.466,1.038,1.038v6.212C60.832,72.587,60.366,73.053,59.794,73.053z M38.182,71.553h21.15v-5.288h-21.15V71.553z
				"/>
			<path fill="#FFFFFF" d="M52.326,59.42h-7.452c-0.276,0-0.5-0.224-0.5-0.5c0-0.276,0.224-0.5,0.5-0.5h7.452
				c0.276,0,0.5,0.224,0.5,0.5C52.826,59.196,52.603,59.42,52.326,59.42z"/>
			<path fill="#FFFFFF" d="M52.326,69.48h-7.452c-0.276,0-0.5-0.224-0.5-0.5c0-0.276,0.224-0.5,0.5-0.5h7.452
				c0.276,0,0.5,0.224,0.5,0.5C52.826,69.257,52.603,69.48,52.326,69.48z"/>
			<path fill="#FFFFFF" d="M52.432,79.682h-7.453c-0.276,0-0.5-0.224-0.5-0.5c0-0.276,0.224-0.5,0.5-0.5h7.453
				c0.276,0,0.5,0.224,0.5,0.5C52.932,79.458,52.708,79.682,52.432,79.682z"/>
			<path fill="#FFFFFF" d="M52.432,89.672h-7.453c-0.276,0-0.5-0.224-0.5-0.5c0-0.276,0.224-0.5,0.5-0.5h7.453
				c0.276,0,0.5,0.224,0.5,0.5C52.932,89.448,52.708,89.672,52.432,89.672z"/>
		</g>
		<path fill="#FFFFFF" d="M61.802,97.784H34.965c-1.345,0-2.44-1.095-2.44-2.44V57.691c0-0.238-0.202-0.44-0.44-0.44h-0.448
			c-1.345,0-2.44-1.095-2.44-2.44v-6.155c0-1.345,1.095-2.44,2.44-2.44h80.565c1.346,0,2.44,1.095,2.44,2.44v6.155
			c0,1.345-1.095,2.44-2.44,2.44h-0.328c-0.238,0-0.44,0.202-0.44,0.44v37.535c0,1.346-1.095,2.44-2.44,2.44h-4.133
			c-1.346,0-2.44-1.095-2.44-2.44V57.691c0-0.238-0.202-0.44-0.44-0.44H64.682c-0.238,0-0.44,0.202-0.44,0.44v37.653
			C64.242,96.689,63.147,97.784,61.802,97.784z M31.637,48.216c-0.238,0-0.44,0.202-0.44,0.44v6.155c0,0.238,0.202,0.44,0.44,0.44
			h0.448c1.345,0,2.44,1.095,2.44,2.44v37.653c0,0.238,0.202,0.44,0.44,0.44h26.837c0.238,0,0.44-0.202,0.44-0.44V57.691
			c0-1.345,1.095-2.44,2.44-2.44h37.297c1.346,0,2.44,1.095,2.44,2.44v37.535c0,0.238,0.202,0.44,0.44,0.44h4.133
			c0.238,0,0.44-0.202,0.44-0.44V57.691c0-1.345,1.095-2.44,2.44-2.44h0.328c0.238,0,0.44-0.202,0.44-0.44v-6.155
			c0-0.238-0.202-0.44-0.44-0.44H31.637z"/>
	</g>
</g>
</svg>
