<svg xmlns="http://www.w3.org/2000/svg" viewBox="0 0 108 108"><title>Icon_RH_Office_Dishwasher_RGB_Black</title><path d="M54 49.12a.75.75 0 0 0 .75-.75v-2a.75.75 0 0 0-1.5 0v2a.75.75 0 0 0 .75.75zm0-5a.75.75 0 0 0 .75-.75v-2a.75.75 0 0 0-1.5 0v2a.75.75 0 0 0 .75.75zm6.55-.72a.75.75 0 0 0 1.18-.93l-1.24-1.57a.75.75 0 1 0-1.18.93zm9.3 11.76a.75.75 0 0 0 1.15-.92l-1.24-1.57a.75.75 0 1 0-1.18.93zm-6.2-7.84a.75.75 0 0 0 1.18-.93l-1.24-1.57a.75.75 0 1 0-1.18.93zM54 53.88a.75.75 0 0 0 .75-.75v-1.76a.75.75 0 0 0-1.5 0v1.75a.75.75 0 0 0 .75.76zm12.75-2.63a.75.75 0 0 0 1.18-.93l-1.24-1.57a.75.75 0 1 0-1.18.93zm-23-3.64a.75.75 0 0 0 .59-.28l1.24-1.57a.75.75 0 1 0-1.18-.93l-1.23 1.57a.75.75 0 0 0 .59 1.22zM66.24 34h2a.75.75 0 0 0 0-1.5h-2a.75.75 0 0 0 0 1.5zm5 0h2a.75.75 0 0 0 0-1.5h-2a.75.75 0 0 0 0 1.5zm7.35-7H29.41a1 1 0 0 0-1 1v52a1 1 0 0 0 1 1h49.18a1 1 0 0 0 1-1V28a1 1 0 0 0-1-1zm-48.18 2h10.23v8.76H30.41zm47.18 50H30.41V39.28h47.18zm0-41.2H42.14V29h35.45zm-32.87 38a10.27 10.27 0 0 0 4.63-1.12 10.13 10.13 0 0 0 9.28 0 10.28 10.28 0 1 0 0-18.31 10.13 10.13 0 0 0-9.26 0 10.27 10.27 0 1 0-4.64 19.44zm18.56-18.58A8.28 8.28 0 1 1 55 65.5a8.29 8.29 0 0 1 8.28-8.28zm-9.28 0a8.28 8.28 0 0 1 2.64.45 10.25 10.25 0 0 0 0 15.66A8.27 8.27 0 1 1 54 57.22zm-9.28 0a8.31 8.31 0 0 1 2.64.44 10.25 10.25 0 0 0 0 15.66 8.27 8.27 0 1 1-2.64-16.11zm2.14-13.53a.75.75 0 0 0 .59-.28l1.24-1.57a.75.75 0 1 0-1.18-.93l-1.24 1.57a.75.75 0 0 0 .59 1.22zm-6.2 7.84a.75.75 0 0 0 .59-.28l1.24-1.57a.75.75 0 1 0-1.18-.93l-1.24 1.57a.75.75 0 0 0 .59 1.22zm-3.1 3.92a.75.75 0 0 0 .59-.29l1.24-1.57a.75.75 0 1 0-1.18-.93L37 54.24a.75.75 0 0 0 .59 1.22z"/></svg>