<?xml version="1.0" encoding="utf-8"?>
<!-- Generator: Adobe Illustrator 17.1.0, SVG Export Plug-In . SVG Version: 6.00 Build 0)  -->
<!DOCTYPE svg PUBLIC "-//W3C//DTD SVG 1.1//EN" "http://www.w3.org/Graphics/SVG/1.1/DTD/svg11.dtd">
<svg version="1.1" id="Layer_1" xmlns="http://www.w3.org/2000/svg" xmlns:xlink="http://www.w3.org/1999/xlink" x="0px" y="0px"
	 viewBox="0 0 108.75 109" enable-background="new 0 0 108.75 109" xml:space="preserve">
<g>
	<path d="M81.722,47.673c-0.487-0.51-1.159-0.789-1.945-0.806c-0.449-0.009-2.729-0.009-2.731-0.011
		c-2.103-0.119-3.51,0.563-4.055,2.039l-2.772,6.708c-0.364-0.12-0.746-0.206-1.171-0.206h-8.732V51.46h5.748
		c0.188,0,0.378-0.013,0.57-0.031c1.488-0.152,2.899-0.889,3.973-2.077c1.111-1.228,1.747-2.82,1.807-4.51
		c0.021-0.08,0.031-0.163,0.031-0.25c0-0.074-0.008-0.146-0.022-0.215c-0.005-0.17-0.017-0.345-0.034-0.527L70.43,24.824
		c-0.406-3.978-1.878-7.61-4.142-10.226c-2.368-2.753-5.391-4.208-8.739-4.208h-4.773c-3.349,0-6.372,1.455-8.74,4.207
		c-2.264,2.619-3.735,6.251-4.141,10.227l-1.958,19.032c-0.025,0.256-0.038,0.503-0.038,0.738c0,0.044,0.003,0.089,0.009,0.132
		c0.034,1.734,0.674,3.373,1.81,4.627c1.074,1.188,2.484,1.925,3.978,2.078c0.186,0.018,0.377,0.03,0.563,0.03h5.75v3.937h-8.735
		c-0.422,0-0.81,0.066-1.185,0.17l-2.743-6.637c-0.513-1.386-1.707-2.088-3.548-2.088c-0.169,0-0.344,0.005-0.467,0.014
		c0,0-2.332,0.003-2.785,0.013c-0.786,0.017-1.458,0.296-1.946,0.807c-0.952,0.998-0.911,2.569-0.893,3.24l0.003,0.174
		c-0.028,1.005,0.932,1.254,2.842,1.75c0.475,0.123,1.146,0.297,1.498,0.421l3.938,10.617c0.164,1.381,0.659,2.673,1.459,3.773
		l0.051,0.063c1.201,1.581,2.939,2.488,4.769,2.488l3.01,0.005c0.002,0,0.003,0.001,0.005,0.001h0.687l3.085,0.005l0.193-0.003
		c0.146,0,0.265,0.005,0.358,0.01c0.011,0.088,0.019,0.182,0.02,0.258l-0.029,5.18c0,1.05,0.789,1.904,1.898,2.198l-0.018,1.954
		c0,1.284,1.175,2.289,2.684,2.312v2.119c-0.027,0.001-0.054,0-0.081,0.001c-7.095,0.361-12.166,5.475-13.972,7.589
		c-0.24-0.071-0.489-0.122-0.752-0.122c-1.457,0-2.642,1.185-2.642,2.641c0,1.457,1.185,2.642,2.642,2.642
		c1.456,0,2.641-1.185,2.641-2.642c0-0.455-0.126-0.877-0.329-1.251c1.644-1.895,6.275-6.529,12.494-6.855v6.868
		c-1.096,0.408-1.882,1.456-1.882,2.692c0,1.589,1.293,2.881,2.882,2.881c1.589,0,2.881-1.292,2.881-2.881
		c0-1.236-0.786-2.284-1.881-2.692v-6.826c4.186,0.402,8.351,2.785,12.423,7.085c-0.161,0.342-0.259,0.719-0.259,1.121
		c0,1.458,1.184,2.644,2.641,2.644c1.457,0,2.643-1.186,2.643-2.644c0-1.456-1.186-2.641-2.643-2.641
		c-0.32,0-0.623,0.065-0.906,0.171c-4.488-4.745-9.159-7.349-13.898-7.744V82.12c1.507-0.023,2.682-1.027,2.682-2.32l-0.018-1.945
		c1.109-0.294,1.899-1.149,1.899-2.204l-0.029-5.156c0.001-0.085,0.009-0.184,0.021-0.274c0.095-0.006,0.213-0.011,0.357-0.011
		l0.233,0.004l6.745-0.012c1.831,0,3.57-0.907,4.759-2.473l0.088-0.111c0.776-1.069,1.271-2.36,1.435-3.741l3.938-10.617
		c0.353-0.124,1.023-0.298,1.498-0.421c1.97-0.511,2.869-0.744,2.842-1.757l0.003-0.171C82.633,50.24,82.673,48.669,81.722,47.673z
		 M38.714,94.348c0-0.354,0.288-0.641,0.642-0.641c0.353,0,0.641,0.287,0.641,0.641c0,0.354-0.288,0.642-0.641,0.642
		C39.002,94.99,38.714,94.702,38.714,94.348z M70.967,93.849c0.354,0,0.643,0.287,0.643,0.641c0,0.355-0.288,0.644-0.643,0.644
		c-0.354,0-0.641-0.289-0.641-0.644C70.326,94.136,70.613,93.849,70.967,93.849z M71.23,66.504c-0.831,1.095-1.959,1.697-3.18,1.697
		l-4.488,0.009c-0.005,0-0.009-0.003-0.014-0.003H45.641l-3.37-0.006c-1.218,0-2.347-0.603-3.19-1.713l-0.038-0.047
		c-0.462-0.636-0.792-1.412-0.966-2.233c0.929,0.672,2.078,1.021,3.198,1.021h27.772c1.121,0,2.271-0.351,3.2-1.022
		c-0.174,0.82-0.499,1.592-0.941,2.202L71.23,66.504z M56.844,79.809c0,0.061-0.244,0.315-0.732,0.315h-1.899
		c-0.489,0-0.733-0.255-0.733-0.307l0.017-1.846h3.332L56.844,79.809z M58.726,75.656c0,0.06-0.244,0.315-0.732,0.315H52.33
		c-0.488,0-0.732-0.255-0.732-0.31l0.029-5.189c-0.001-0.084-0.013-0.177-0.019-0.266h7.107c-0.006,0.094-0.019,0.191-0.02,0.281
		L58.726,75.656z M29.703,50.53c0.002-0.473,0.05-1.166,0.346-1.476c0.074-0.077,0.209-0.18,0.54-0.187
		c0.447-0.009,2.746-0.013,2.801-0.014c0.139-0.008,0.276-0.012,0.409-0.012c1.276,0,1.532,0.404,1.686,0.817l2.859,6.92
		c-0.673,0.645-1.283,1.585-1.875,2.841l-2.664-7.182c-0.257-0.688-0.987-0.878-2.749-1.335
		C30.641,50.795,30.078,50.649,29.703,50.53z M51.009,49.46h-6.75c-0.124,0-0.251-0.01-0.367-0.021
		c-0.979-0.1-1.96-0.621-2.691-1.429c-0.832-0.919-1.291-2.133-1.294-3.419c0-0.037-0.002-0.073-0.006-0.108
		c0.003-0.138,0.012-0.281,0.026-0.426l1.957-19.029c0.365-3.572,1.667-6.812,3.666-9.125c1.979-2.298,4.477-3.513,7.226-3.513
		h4.773c2.749,0,5.246,1.215,7.226,3.515c1.999,2.31,3.301,5.55,3.665,9.123l1.957,19.026c0.016,0.148,0.023,0.292,0.026,0.431
		c-0.004,0.035-0.006,0.07-0.006,0.106c-0.002,1.285-0.462,2.5-1.295,3.42c-0.73,0.808-1.712,1.329-2.686,1.428
		c-0.123,0.012-0.249,0.021-0.374,0.021h-6.748c-0.553,0-1,0.448-1,1v4.937h-6.305V50.46C52.009,49.908,51.562,49.46,51.009,49.46z
		 M41.274,56.896h27.772c1.294,0,2.258,0.944,3.645,3.592c-0.103,2.357-2.268,3.241-3.645,3.241H41.274
		c-1.381,0-3.556-0.891-3.643-3.267C38.937,57.498,39.997,56.896,41.274,56.896z M76.518,52.24l-2.678,7.218
		c-0.555-1.037-1.164-2.022-1.908-2.767l2.92-7.068c0.141-0.379,0.396-0.783,1.674-0.783c0.133,0,0.27,0.004,0.463,0.014
		c0,0,2.299,0.003,2.746,0.013c0.331,0.007,0.467,0.11,0.54,0.187c0.296,0.31,0.344,1.004,0.347,1.476
		c-0.376,0.119-0.938,0.265-1.353,0.373C77.505,51.359,76.775,51.549,76.518,52.24z M55.162,96.683
		c-0.486,0-0.882-0.396-0.882-0.881c0-0.486,0.396-0.882,0.882-0.882c0.485,0,0.881,0.396,0.881,0.882
		C56.043,96.287,55.647,96.683,55.162,96.683z"/>
	<path d="M66.087,47.196c0.007,0,0.106-0.006,0.113-0.007c0.432-0.044,0.885-0.298,1.243-0.696c0.265-0.291,0.709-0.926,0.711-1.903
		l0.001-0.199c-0.001-0.012-0.003-0.038-1.967-19.132c-0.318-3.118-1.431-5.917-3.13-7.88c-1.557-1.809-3.41-2.726-5.51-2.726
		h-4.773c-2.1,0-3.956,0.92-5.516,2.733c-1.696,1.959-2.806,4.756-3.127,7.875c-1.962,19.093-1.963,19.114-1.965,19.163l0.001,0.162
		c0.002,0.978,0.445,1.615,0.711,1.91c0.356,0.392,0.811,0.65,1.226,0.691l21.952,0.011C66.067,47.197,66.077,47.196,66.087,47.196z
		 M43.166,44.465c0.019-0.194,1.962-19.103,1.962-19.103c0.3-2.918,1.326-5.519,2.889-7.325c1.362-1.583,2.963-2.386,4.759-2.386
		h4.773c1.795,0,3.394,0.8,4.753,2.379c1.566,1.811,2.594,4.414,2.892,7.329c0,0,1.946,18.923,1.962,19.057l-0.002,0.165
		c-0.002,0.646-0.283,1.053-0.452,1.239c-0.228,0.252-0.468,0.358-0.582,0.371L44.3,46.198l-0.104-0.008
		c-0.132-0.013-0.373-0.144-0.574-0.366c-0.169-0.187-0.451-0.597-0.453-1.245L43.166,44.465z"/>
</g>
</svg>
