<svg id="Layer_1" data-name="Layer 1" xmlns="http://www.w3.org/2000/svg" viewBox="0 0 144 144"><defs><style>.cls-1{fill:none;}.cls-2{fill:#fff;}</style></defs><title>Icon_RH_Office_chair-accent_RGB_White</title><polygon class="cls-1" points="72.78 91.75 79.27 90.79 79.26 90.35 71.21 91.21 72.78 91.75"/><path class="cls-1" d="M67,76.38H66.77a7.15,7.15,0,0,1-.74,0h-0.4v14a2.18,2.18,0,0,0,1.38,0V76.38Z"/><polygon class="cls-1" points="52.57 96.56 66.25 92.86 66.25 91.86 52.57 96.03 52.57 96.56"/><polygon class="cls-1" points="67 92.87 80.31 96.56 80.31 95.86 67 91.86 67 92.87"/><polygon class="cls-1" points="81.52 95.77 81.06 95.88 81.06 96.62 81.52 96.56 81.52 95.77"/><polygon class="cls-1" points="61.89 91.33 54 90.57 54.02 90.88 60.83 91.69 61.89 91.33"/><path class="cls-1" d="M64.9,90.48L56.32,90l7.38,0.71a0.38,0.38,0,0,1,.08.73L53.54,95,66,91.15A1.07,1.07,0,0,1,64.9,90.48Z"/><path class="cls-1" d="M95.22,90.7a3.92,3.92,0,0,1-.36-1.41c-0.09-1.66,0-14.22,0-14.75a9.44,9.44,0,0,1,.84-3.89h-2a9.41,9.41,0,0,1,.84,3.89c0,0.53.09,13.09,0,14.75a3.9,3.9,0,0,1-.36,1.41l0,0a5.18,5.18,0,0,1-1.26,1.68,0.49,0.49,0,0,1-.31.11,0.5,0.5,0,0,1-.32-0.89,4.23,4.23,0,0,0,.51-0.55c-2.74.21-4.12,0.82-4.22,1.13,0.14,0.39,2.38,1.18,6.16,1.18s6-.79,6.16-1.21c-0.1-.28-1.48-0.89-4.22-1.1a4.24,4.24,0,0,0,.51.55,0.5,0.5,0,0,1-.63.78,5.2,5.2,0,0,1-1.26-1.67Z"/><polygon class="cls-1" points="51.27 96.4 51.82 96.56 51.82 96.05 51.27 95.92 51.27 96.4"/><path class="cls-1" d="M67,91.09l11.9,3.58-9.57-3.29a0.38,0.38,0,0,1,.08-0.73l3.06-.33-4.76.16A0.82,0.82,0,0,1,67,91.09Z"/><path class="cls-1" d="M94.68,68.23c-1.17,0-2.29,0-3.35.06l-0.89,1.27c1.33,0.06,2.77.09,4.23,0.09a53.12,53.12,0,0,0,10.15-.71A53.13,53.13,0,0,0,94.68,68.23Z"/><path class="cls-1" d="M90.56,66.34A2,2,0,0,0,89,64.8c-4.15-.44-6.81-0.68-7.51-0.68-1.61,0-3.11-1.7-3.18-1.77C78,62,72.42,53.76,71.22,51.57a3.33,3.33,0,0,0-2.66-1.94l-22.6-1a2.86,2.86,0,0,0-1.17,2V62a9.94,9.94,0,0,0,1.36,3.68s4.29,6,6,8.24a4.68,4.68,0,0,0,4.19,1.61l6.79-.15-0.29-.17c-2.57-1.72-7.23-4.56-7.28-4.59s-3.36-3-5.64-3a0.5,0.5,0,1,1,0-1c2.66,0,6.09,3.1,6.24,3.23s4.67,2.83,7.24,4.55a6.23,6.23,0,0,0,3.67,1c0.18,0,14.81-.66,17.34-1.24,2.23-.51,2.64-1.47,2.64-1.48a0.69,0.69,0,0,1,.06-0.12l3.41-4.87V66.34ZM90.11,67.6s-1.65,2.23-2.85,3.78a3.59,3.59,0,0,1-3.16,1.54c-4.46,0-16.47.2-17.54,0.4a3.87,3.87,0,0,1-.72.07,4.16,4.16,0,0,1-2-.53c-0.25-.14-6.82-3.7-8.41-5.55a7.65,7.65,0,0,0-4.14-2l-4.16-.7a0.5,0.5,0,0,1,.17-1l4.15,0.7,0.43,0.08L46.43,50a0.5,0.5,0,1,1,.94-0.35l5.66,15a7.19,7.19,0,0,1,3.12,2c1,1.18,4.47,3.25,6.54,4.43A62,62,0,0,1,71,70.55L68.71,51a0.5,0.5,0,1,1,1-.12L72,70.53l1.28,0c0.32-3.05,4.11-6.64,4.28-6.8a0.5,0.5,0,0,1,.68.73s-3.6,3.41-4,6.06c4.19-.05,7.94,0,8.27,0a0.5,0.5,0,0,1,0,1h0c-4.2,0-14.49,0-18.45.4L64.3,72a3.24,3.24,0,0,0,2.07.35c1.38-.26,17.11-0.4,17.78-0.41a2.64,2.64,0,0,0,2.31-1.16C87.66,69.22,89.3,67,89.3,67h0a0.49,0.49,0,0,1,.36-0.16,0.5,0.5,0,0,1,.5.5,0.49,0.49,0,0,1-.07.24h0Z"/><path class="cls-2" d="M89.67,66.84a0.49,0.49,0,0,0-.36.16h0s-1.64,2.22-2.84,3.77a2.64,2.64,0,0,1-2.31,1.16c-0.67,0-16.41.15-17.78,0.41A3.24,3.24,0,0,1,64.3,72l-0.19-.11c4-.4,14.26-0.43,18.45-0.4h0a0.5,0.5,0,0,0,0-1c-0.33,0-4.08,0-8.27,0,0.36-2.65,3.92-6,4-6.06a0.5,0.5,0,0,0-.68-0.73c-0.17.16-4,3.75-4.28,6.8l-1.28,0L69.7,50.89a0.5,0.5,0,1,0-1,.12L71,70.55a62,62,0,0,0-8.32.53c-2.07-1.19-5.53-3.25-6.54-4.43a7.19,7.19,0,0,0-3.12-2l-5.66-15a0.5,0.5,0,1,0-.94.35l5.4,14.33-0.43-.08-4.15-.7a0.5,0.5,0,0,0-.17,1l4.16,0.7a7.65,7.65,0,0,1,4.14,2c1.59,1.85,8.16,5.41,8.41,5.55a4.16,4.16,0,0,0,2,.53,3.87,3.87,0,0,0,.72-0.07c1.07-.2,13.08-0.35,17.54-0.4a3.59,3.59,0,0,0,3.16-1.54c1.2-1.55,2.85-3.78,2.85-3.78h0a0.49,0.49,0,0,0,.07-0.24A0.5,0.5,0,0,0,89.67,66.84Z"/><path class="cls-2" d="M97,70.63c4.23-.08,9.37-0.44,9.37-1.69,0-1.49-7.32-1.71-11.68-1.71-1.09,0-2.13,0-3.13.05V66.34a2.91,2.91,0,0,0-2.44-2.53h0c-3-.31-6.7-0.69-7.64-0.69a4.13,4.13,0,0,1-2.39-1.38c-0.06-.09-5.8-8.5-7-10.66a4.41,4.41,0,0,0-3.52-2.46l-22.7-1a0.45,0.45,0,0,0-.21,0c-1.63.67-1.86,2.82-1.88,3V62c0,1.62,1.44,4.08,1.53,4.22s4.33,6.07,6.08,8.32a5.5,5.5,0,0,0,4.4,2,4.33,4.33,0,0,0,.67,0l8.41-.18V89.72l-10.7-.55a0.44,0.44,0,0,0-.29.12l-0.57.6h0a0.37,0.37,0,0,0-.08.16,0.36,0.36,0,0,0,0,0,0.35,0.35,0,0,0,0,.07l0.07,1.07a0.37,0.37,0,0,0,.33.35l5.56,0.65-8.4,2.85h0a0.37,0.37,0,0,0-.16.13l0,0a0.36,0.36,0,0,0-.06.19v1.23a0.37,0.37,0,0,0,.27.36l1.3,0.37h0.2l14.33-3.87,14,3.87h0.15l1.2-.17a0.37,0.37,0,0,0,.32-0.37v-1.6a0.36,0.36,0,0,0-.06-0.19l0,0A0.37,0.37,0,0,0,82,94.94h0l-7.69-2.65,5.39-.8A0.38,0.38,0,0,0,80,91.1l0-1.17a0.37,0.37,0,0,0,0-.16l0,0a0.38,0.38,0,0,0-.16-0.14h0l-0.53-.21a0.42,0.42,0,0,0-.15,0l-11.31.39V76.35c2.8-.13,14.55-0.7,16.9-1.24,2.5-.58,3.18-1.71,3.33-2l1.78-2.54c0.82,0,1.69.08,2.59,0.1,0.8,0.59,1.13,2.69,1.14,3.92,0,0.13.09,13.06,0,14.69a2.81,2.81,0,0,1-.18.82c-1.49.08-5.8,0.46-5.8,2.16s4.5,2.19,7.16,2.19,7.16-.46,7.16-2.19S97.53,90.14,96,90.05a2.83,2.83,0,0,1-.18-0.82c-0.09-1.63,0-14.56,0-14.69C95.87,73.31,96.19,71.23,97,70.63ZM51.82,96.56l-0.55-.16V95.92L51.82,96v0.51Zm29.24-.68,0.45-.11v0.79l-0.45.06V95.88Zm-27-5,0-.32,7.89,0.76-1.06.36Zm9.77,0.59a0.38,0.38,0,0,0-.08-0.73L56.32,90l8.58,0.44a1.07,1.07,0,0,0,1.11.68L53.54,95Zm2.47,1.39-13.68,3.7V96l13.68-4.17v1Zm0.08-2.44a1.83,1.83,0,0,1-.69-0.11v-14H66a7.15,7.15,0,0,0,.74,0H67V90.31A1.83,1.83,0,0,1,66.33,90.42Zm14,6.14L67,92.87v-1l13.31,4v0.7Zm-1.05-6.21v0.44l-6.49,1-1.58-.54Zm-6.75,0-3.06.33a0.38,0.38,0,0,0-.08.73l9.57,3.29L67,91.09a0.82,0.82,0,0,0,.72-0.6ZM87.15,72.54a0.69,0.69,0,0,0-.06.12s-0.41,1-2.64,1.48c-2.53.58-17.16,1.23-17.34,1.24a6.23,6.23,0,0,1-3.67-1c-2.57-1.72-7.22-4.55-7.24-4.55S52.63,66.62,50,66.62a0.5,0.5,0,1,0,0,1c2.28,0,5.53,2.94,5.64,3s4.71,2.87,7.28,4.59l0.29,0.17-6.79.15a4.68,4.68,0,0,1-4.19-1.61c-1.74-2.23-6-8.22-6-8.24A9.94,9.94,0,0,1,44.8,62V50.68a2.86,2.86,0,0,1,1.17-2l22.6,1a3.33,3.33,0,0,1,2.66,1.94C72.42,53.76,78,62,78.28,62.35c0.06,0.07,1.57,1.77,3.18,1.77,0.7,0,3.36.24,7.51,0.68a2,2,0,0,1,1.59,1.54v1.32Zm9.36,19.89a0.5,0.5,0,0,0,.63-0.78,4.24,4.24,0,0,1-.51-0.55c2.74,0.21,4.12.82,4.22,1.1-0.14.42-2.38,1.21-6.16,1.21s-6-.79-6.16-1.18c0.1-.3,1.48-0.91,4.22-1.13a4.23,4.23,0,0,1-.51.55,0.5,0.5,0,0,0,.32.89,0.49,0.49,0,0,0,.31-0.11,5.18,5.18,0,0,0,1.26-1.68l0,0a3.9,3.9,0,0,0,.36-1.41c0.09-1.66,0-14.22,0-14.75a9.41,9.41,0,0,0-.84-3.89h2a9.44,9.44,0,0,0-.84,3.89c0,0.53-.09,13.09,0,14.75a3.92,3.92,0,0,0,.36,1.41l0,0.06A5.2,5.2,0,0,0,96.51,92.42ZM94.68,69.65c-1.46,0-2.91,0-4.23-.09l0.89-1.27c1.06,0,2.18-.06,3.35-0.06a53.13,53.13,0,0,1,10.15.71A53.12,53.12,0,0,1,94.68,69.65Z"/></svg>