<svg xmlns="http://www.w3.org/2000/svg" viewBox="0 0 108 108"><defs><style>.a{fill:#fff;}</style></defs><title>Icon_RH_Office_WaterMachine_RGB_White</title><path class="a" d="M54 49.53c-16.68 0-16.68 1.33-16.68 2 0 .29 0 .71 1.5 1.09L42.39 87a.75.75 0 0 0 .49.63 36.71 36.71 0 0 0 11.45 1.78 32.2 32.2 0 0 0 10.78-1.81.75.75 0 0 0 .5-.63l3.57-34.4c1.5-.38 1.5-.8 1.5-1.09 0-.63 0-1.95-16.68-1.95zM54 51c5.51 0 9.8.21 12.46.46-2.66.25-7 .46-12.46.46s-9.8-.21-12.46-.46C44.2 51.23 48.49 51 54 51zm10.17 35.34c-9.17 3.08-18.25.63-20.33 0l-1.72-16.55c2.13-1.47 7.06-3.74 13.15.77 3.66 2.71 6.39 3.53 8.34 3.53a6 6 0 0 0 1.85-.28zm1.48-14.23c-1.19.65-4.07 1.26-9.48-2.75-6.33-4.69-11.7-2.71-14.22-1.23l-.47-4.55c1.25-1 6.75-4.93 13.8.3 3.17 2.35 6 3.53 8.32 3.53a6.45 6.45 0 0 0 1.15-.1 5.23 5.23 0 0 0 1.45-.48zm.75-7.27a3.32 3.32 0 0 1-2 1c-1.48.24-4.11-.1-8.25-3.17-6.83-5.06-12.54-2.37-14.87-.81l-.93-9a106.29 106.29 0 0 0 13.65.59 106.29 106.29 0 0 0 13.64-.58zm8.12-45.91H61a11.51 11.51 0 0 0-11.5 11.5v12.21a1 1 0 0 0 1 1h6.22a1 1 0 0 0 1-1v-12a3.48 3.48 0 0 1 3.48-3.48h13.3a1 1 0 0 0 1-1v-6.23a1 1 0 0 0-.99-1zm-1 6.22h-12.3a5.48 5.48 0 0 0-5.48 5.48v11h-4.23v-11.2a9.51 9.51 0 0 1 9.5-9.5h12.5z"/></svg>