<svg id="Layer_1" data-name="Layer 1" xmlns="http://www.w3.org/2000/svg" viewBox="0 0 40.4 64.73"><defs><style>.cls-1{fill:#fff;}</style></defs><title>Icon_RH_Office_ConferenceRoom_RGB_White</title><path class="cls-1" d="M38.78 39.37a.68.68 0 0 0 .21 0h.06a.73.73 0 0 0 .17-.12l.07-.05c1-1.19 1-5.86 1-6.78s0-5.55-1-6.76a.68.68 0 0 0-.55-.26h-5.62v-1.03h5.7a.68.68 0 0 0 .21 0h.06a.73.73 0 0 0 .17-.12l.07-.05c1-1.19 1-5.86 1-6.78s0-5.55-1-6.76a.68.68 0 0 0-.55-.26h-5.66v-2a1 1 0 0 0-1-1H27.2V1.62a.68.68 0 0 0 0-.25v-.06a.73.73 0 0 0-.12-.17l-.05-.07c-1.19-1-5.86-1-6.78-1s-5.55 0-6.76 1a.68.68 0 0 0-.26.55v5.67H8.28a1 1 0 0 0-1 1v2h-5.7a.68.68 0 0 0-.21 0h-.06a.73.73 0 0 0-.17.12l-.07.05c-1 1.19-1 5.86-1 6.78s0 5.55 1 6.76a.68.68 0 0 0 .55.26h5.71v1.11h-5.7a.68.68 0 0 0-.21 0h-.06a.73.73 0 0 0-.17.12l-.07.05c-1 1.19-1 5.86-1 6.78s0 5.55 1 6.76a.68.68 0 0 0 .55.26h5.71v1.03h-5.7a.68.68 0 0 0-.21 0h-.06a.73.73 0 0 0-.17.12l-.07.05c-1 1.19-1 5.86-1 6.78s0 5.55 1 6.76a.68.68 0 0 0 .55.26h5.71v2a1 1 0 0 0 1 1h4.77v5.67a.68.68 0 0 0 0 .36v.06a.73.73 0 0 0 .12.17l.05.07c1.19 1 5.86 1 6.78 1s5.55 0 6.76-1a.68.68 0 0 0 .29-.5v-5.72h4.87a1 1 0 0 0 1-1v-2.08h5.7a.68.68 0 0 0 .21 0h.06a.73.73 0 0 0 .17-.12l.07-.05c1-1.19 1-5.86 1-6.78s0-5.55-1-6.76a.68.68 0 0 0-.55-.26h-5.61v-1.03zm-5.66-27.54h5.2a18.85 18.85 0 0 1 .58 5.54 18.46 18.46 0 0 1-.59 5.55h-5.19zm0 15h5.2a18.85 18.85 0 0 1 .58 5.54 18.46 18.46 0 0 1-.59 5.55h-5.19zM7.28 52.92h-5.2a18.85 18.85 0 0 1-.58-5.55 18.46 18.46 0 0 1 .59-5.55h5.19zm0-15h-5.2a18.85 18.85 0 0 1-.58-5.55 18.46 18.46 0 0 1 .59-5.55h5.19zm0-15h-5.2a18.85 18.85 0 0 1-.58-5.55 18.46 18.46 0 0 1 .59-5.55h5.19zm7.38-20.84a18.85 18.85 0 0 1 5.54-.58 18.46 18.46 0 0 1 5.55.59v5.19H14.66zm11.08 60.58a18.85 18.85 0 0 1-5.53.58 18.46 18.46 0 0 1-5.55-.59v-5.2h11.08zm5.37-7.2H9.28V9.29h21.84zm7.2-13.63a18.85 18.85 0 0 1 .59 5.54 18.46 18.46 0 0 1-.59 5.55h-5.19V41.83z"/></svg>