<svg id="Layer_1" data-name="Layer 1" xmlns="http://www.w3.org/2000/svg" viewBox="0 0 35.48 64.11"><defs><style>.cls-1{fill:#fff;}</style></defs><title>Icon_RH_Office_Refrigerator_RGB_White</title><path class="cls-1" d="M16.49 4.59a.5.5 0 0 0-.59.4 117.41 117.41 0 0 0-.65 15 117.67 117.67 0 0 0 .65 15 .5.5 0 0 0 .49.4h.1a.5.5 0 0 0 .4-.58 119.45 119.45 0 0 1-.63-14.75 119.18 119.18 0 0 1 .63-14.85.5.5 0 0 0-.4-.62zm-13 39.87a106 106 0 0 0 14.25.66 105.91 105.91 0 0 0 14.28-.65.51.51 0 0 0-.2-1 107.1 107.1 0 0 1-14.08.65 107.34 107.34 0 0 1-14.07-.63.51.51 0 0 0-.2 1zm15.13-9.59a.5.5 0 0 0 .4.58h.09a.5.5 0 0 0 .49-.4 117.55 117.55 0 0 0 .65-15 117.28 117.28 0 0 0-.65-15 .51.51 0 0 0-1 .19 119.12 119.12 0 0 1 .63 14.82 119.44 119.44 0 0 1-.64 14.82zM34.48 0H1a1 1 0 0 0-1 1v62.12a1 1 0 0 0 1 1h33.48a1 1 0 0 0 1-1V1a1 1 0 0 0-1-1zM2 2h15.24v39.12H2zm31.48 60.12H2v-20h31.48zm0-21H18.24V2h15.24z"/></svg>