<svg id="Layer_1" data-name="Layer 1" xmlns="http://www.w3.org/2000/svg" viewBox="0 0 47.27 67.45"><defs><style>.cls-1{fill:#fff;}</style></defs><title>Icon_RH_Office_HandDryer_RGB_White</title><path class="cls-1" d="M25.16 61.03a2.89 2.89 0 0 0-1.12-2c-.49-.49-.92-.91-.92-1.53a3.2 3.2 0 0 1 1-2.23.5.5 0 0 0-.64-.77 4.17 4.17 0 0 0-1.39 3 3.12 3.12 0 0 0 1.24 2.2c.44.44.83.82.83 1.31a2.5 2.5 0 0 1-.9 1.49 3.18 3.18 0 0 0-1.14 2.09c0 1.63 1.83 2.73 1.9 2.78a.5.5 0 0 0 .51-.86c-.39-.23-1.41-1-1.41-1.92 0-.48.42-.93.87-1.4a3.27 3.27 0 0 0 1.17-2.16zm-3.39 0a2.89 2.89 0 0 0-1.12-2c-.49-.49-.92-.91-.92-1.53a3.2 3.2 0 0 1 1-2.23.5.5 0 0 0-.64-.77 4.17 4.17 0 0 0-1.39 3 3.12 3.12 0 0 0 1.24 2.2c.45.44.83.82.83 1.31a2.5 2.5 0 0 1-.9 1.49 3.18 3.18 0 0 0-1.14 2.09c0 1.63 1.83 2.73 1.9 2.78a.5.5 0 0 0 .51-.86c-.39-.23-1.41-1-1.41-1.92 0-.48.42-.93.87-1.4a3.28 3.28 0 0 0 1.17-2.16zm6.78 0a2.89 2.89 0 0 0-1.12-2c-.49-.49-.92-.91-.92-1.53a3.2 3.2 0 0 1 1-2.23.5.5 0 0 0-.64-.77 4.17 4.17 0 0 0-1.39 3 3.12 3.12 0 0 0 1.23 2.2c.44.44.83.82.83 1.31a2.5 2.5 0 0 1-.9 1.49 3.17 3.17 0 0 0-1.14 2.09c0 1.63 1.83 2.73 1.9 2.78a.5.5 0 0 0 .25.07.5.5 0 0 0 .26-.93c-.39-.23-1.41-1-1.41-1.92 0-.48.42-.93.87-1.4a3.27 3.27 0 0 0 1.17-2.16zM42.64 1.58A6.13 6.13 0 0 0 37.97.03H9.34a6.12 6.12 0 0 0-4.7 1.55C1.28 4.43-.28 10.58.01 19.8c.08 2.56.12 4.93.17 7.11.29 15.53.43 22.62 12.1 22.85a5.21 5.21 0 0 1 3.69 1.23c1.31 1 2.79 2.08 7.65 2.08s6.34-1.1 7.65-2.08a5.21 5.21 0 0 1 3.69-1.23c11.67-.22 11.8-7.31 12.1-22.84 0-2.19.09-4.56.17-7.12.3-9.24-1.26-15.37-4.59-18.22zm2.6 18.12c-.08 2.57-.13 4.95-.17 7.14-.29 15.52-.43 20.73-10.13 20.92a7.1 7.1 0 0 0-4.17 1.15 17.18 17.18 0 0 0-1.13-8.37.75.75 0 1 0-1.4.53c1.72 4.55 1.23 7.85.72 9.08-1 .52-2.42.92-5.29.92a11.25 11.25 0 0 1-5.2-.87c-.55-1.2-1.06-4.52.67-9.13a.75.75 0 1 0-1.4-.53 17.15 17.15 0 0 0-1.15 8.4 7.07 7.07 0 0 0-4.22-1.18c-9.74-.19-9.84-5.4-10.14-20.88 0-2.19-.09-4.57-.17-7.14C1.73 9.1 3.98 4.85 5.93 3.16A4.35 4.35 0 0 1 8.76 2a2.07 2.07 0 0 1 .33 0h29.12a4.09 4.09 0 0 1 3.18 1.14c1.93 1.71 4.18 5.96 3.85 16.56z"/></svg>