<?xml version="1.0" encoding="utf-8"?>
<!-- Generator: Adobe Illustrator 17.1.0, SVG Export Plug-In . SVG Version: 6.00 Build 0)  -->
<!DOCTYPE svg PUBLIC "-//W3C//DTD SVG 1.1//EN" "http://www.w3.org/Graphics/SVG/1.1/DTD/svg11.dtd">
<svg version="1.1" id="Layer_1" xmlns="http://www.w3.org/2000/svg" xmlns:xlink="http://www.w3.org/1999/xlink" x="0px" y="0px"
	 viewBox="0 0 216 216" enable-background="new 0 0 216 216" xml:space="preserve">
<g>
	<path fill="#FFFFFF" d="M102.831,118.034h17.673c0.339,1.036,1.561,3.406,5.645,3.406h1.029l-0.579-0.854
		c-0.005-0.01-0.667-1.011-0.471-1.824c0.071-0.297,0.256-0.535,0.56-0.729h5.03c1.057,0,1.918-0.859,1.918-1.916v-13.825
		c0-1.058-0.861-1.918-1.918-1.918H116.4v-8.614c0-1.058-0.86-1.918-1.919-1.918H85.595c-1.057,0-1.918,0.861-1.918,1.918v13.825
		c0,1.057,0.861,1.917,1.918,1.917h5.031c0.303,0.192,0.488,0.432,0.559,0.729c0.196,0.813-0.465,1.813-0.471,1.824l-0.58,0.852
		h1.03c4.084,0,5.306-2.368,5.645-3.405h4.104v8.616C100.913,117.175,101.773,118.034,102.831,118.034z M116.4,105.585v-4.121
		h15.317c0.456,0,0.827,0.372,0.827,0.828v13.825c0,0.455-0.371,0.826-0.827,0.826h-5.316l-0.123,0.066
		c-0.648,0.356-1.057,0.858-1.21,1.497c-0.154,0.64-0.01,1.292,0.177,1.794c-3.378-0.367-3.765-2.775-3.779-2.882l-0.062-0.476
		h-18.573c-0.456,0-0.827-0.371-0.827-0.826v-8.616h12.478C115.54,107.502,116.4,106.643,116.4,105.585z M102.003,106.413v-4.12
		c0-0.457,0.372-0.828,0.827-0.828h12.479v4.121c0,0.456-0.372,0.828-0.828,0.828H102.003z M95.909,106.413l-0.062,0.475
		c-0.015,0.107-0.401,2.515-3.779,2.883c0.187-0.503,0.331-1.155,0.177-1.795c-0.154-0.639-0.562-1.142-1.21-1.496l-0.123-0.066
		h-5.316c-0.456,0-0.827-0.372-0.827-0.828V91.761c0-0.456,0.372-0.828,0.827-0.828h28.887c0.456,0,0.828,0.372,0.828,0.828v8.614
		h-12.479c-1.058,0-1.918,0.86-1.918,1.918v4.12H95.909z"/>
	<path fill="#FFFFFF" d="M138.53,76.408H77.47c-0.649,0-1.175,0.526-1.175,1.175v61.06c0,0.649,0.525,1.176,1.175,1.176h7.521
		c0.093,0,0.186-0.012,0.276-0.033l21.393-5.182c0.631-0.152,1.019-0.787,0.865-1.418c-0.152-0.631-0.788-1.018-1.418-0.865
		l-21.257,5.148h-6.206V78.757h58.711v58.711h-29.093c-0.649,0-1.175,0.525-1.175,1.174c0,0.649,0.525,1.176,1.175,1.176h30.268
		c0.649,0,1.175-0.526,1.175-1.176v-61.06C139.705,76.934,139.18,76.408,138.53,76.408z"/>
</g>
</svg>
