<svg data-name="Layer 1" xmlns="http://www.w3.org/2000/svg" viewBox="0 0 71.44 67.06"><title>Icon_RH_Office_Mobility_RGB_Black</title><path d="M18.78 61.27a.31.31 0 0 0-.27-.14.32.32 0 0 0-.27.15l-.92 1.5a32.93 32.93 0 0 1-4.82-51.94 1 1 0 0 0-1.36-1.46 34.93 34.93 0 0 0 5.13 55.15l-.8 1.3a.33.33 0 0 0 0 .31.32.32 0 0 0 .25.18l6.28.79a.32.32 0 0 0 .31-.15.32.32 0 0 0 0-.34zm-2.8-54a.32.32 0 0 0 .32.14l6.29-.94a.31.31 0 0 0 .24-.18.32.32 0 0 0 0-.31L22 4.72a32.92 32.92 0 0 1 44.72 21.47 1.035 1.035 0 1 0 2-.53A34.92 34.92 0 0 0 20.85 3l-1-1.45a.32.32 0 0 0-.54 0L15.93 6.9a.32.32 0 0 0 0 .35zm55.43 31l-2.69-5.74a.32.32 0 0 0-.29-.19.32.32 0 0 0-.29.19l-2.62 5.79a.31.31 0 0 0 0 .3.32.32 0 0 0 .27.15h1.74c-.36 11.76-9.63 25.59-26.39 26.32v-2.9a1.74 1.74 0 0 0 .58-3.38v-4.14c2.54.24 5.07 1.69 7.54 4.3a1.55 1.55 0 0 0-.16.68 1.62 1.62 0 1 0 1.05-1.5c-2.72-2.88-5.56-4.46-8.43-4.7v-1.31a1.52 1.52 0 0 0 1.63-1.41v-1.2a1.43 1.43 0 0 0 1.15-1.34v-3.13a1.26 1.26 0 0 1 0-.17h4.45a3.64 3.64 0 0 0 2.89-1.5l.05-.07a4.82 4.82 0 0 0 .83-2.24l2.39-6.44c.21-.08.62-.18.91-.26 1.19-.31 1.74-.45 1.72-1.06v-.1a2.75 2.75 0 0 0-.54-2 1.64 1.64 0 0 0-1.18-.49H54.4c-1.28-.07-2.13.34-2.46 1.24l-1.68 4.07a2.15 2.15 0 0 0-.71-.13h-5.3v-2.38h3.81a3.78 3.78 0 0 0 2.41-1.26 4.27 4.27 0 0 0 1.12-2.74.59.59 0 0 0 0-.15.63.63 0 0 0 0-.13v-.32l-1.2-11.54a11.25 11.25 0 0 0-2.51-6.2 6.87 6.87 0 0 0-5.3-2.55h-2.24a29.21 29.21 0 1 0 0 58.42h.8a29.18 29.18 0 0 0 28.38-28.29h1.6a.32.32 0 0 0 .29-.45zM50.72 59.26a.39.39 0 1 1-.39.39.39.39 0 0 1 .39-.39zm2.35-26.83c.08-.23.24-.47 1-.47h1.95a.43.43 0 0 1 .33.11 1.47 1.47 0 0 1 .21.9l-.82.22c-1.07.28-1.51.39-1.67.81l-1.62 4.38a7.14 7.14 0 0 0-1.16-1.68zm-11.93-20.6h1.43a3.73 3.73 0 0 1 2.88 1.44 8.07 8.07 0 0 1 1.75 4.44s1.18 11.48 1.19 11.56v.1a1.11 1.11 0 0 1-.27.75.66.66 0 0 1-.35.22h-6.63zm0 19.13h6.68a1.23 1.23 0 0 0 .75-.42 1.7 1.7 0 0 0 .43-1.15v-.12l-1.19-11.6a8.69 8.69 0 0 0-1.9-4.78 4.31 4.31 0 0 0-3.34-1.65h-1.43V9.85h1.43a5.7 5.7 0 0 1 4.38 2.13 10 10 0 0 1 2.23 5.55l1.19 11.54v.26a.48.48 0 0 0 0 .07 3.09 3.09 0 0 1-.79 2.07 2.62 2.62 0 0 1-1.63.87h-4.31a.61.61 0 0 0-.61.61v3h-1.9zm0 5.89h8.41c.78 0 1.37.57 2.21 2.18a2.13 2.13 0 0 1-2.21 2h-8.41zm0 5.05h8.41a3.36 3.36 0 0 0 1.94-.62 3.58 3.58 0 0 1-.57 1.33v.06a2.41 2.41 0 0 1-1.93 1h-7.8zm0 3h2.14v3.3s-.15.19-.44.19h-1.7zm0 4.71h1v1.12s-.15.19-.45.19h-.56zm0 10.28a.53.53 0 0 1 0 1.06zM16.72 24.17a27.27 27.27 0 0 1 15.67-12.42l3.44-1-2.47 2.62a28.62 28.62 0 0 0-6.49 11.61v.09H16.26zm-3.65 13.12a27 27 0 0 1 2.33-10.48h11a46.11 46.11 0 0 0-1.2 10.5v.29H13.06zm0 2.12H25.2a43.62 43.62 0 0 0 1.52 10.39l.23.8H16.23a27 27 0 0 1-3.12-11.19zM32.92 64.1a27.33 27.33 0 0 1-15.58-11.57l-.06-.09h10.28a27.74 27.74 0 0 0 6.29 10.09l2.59 2.59zm6.52.41l-1.5-1a23.83 23.83 0 0 1-8.32-11.11h9.82zm0-13.9H28.97l-.08-.25a40.77 40.77 0 0 1-1.77-10.95h12.31zm0-13H27.09v-.3a43.31 43.31 0 0 1 1.28-10.49h11.06zm0-12.6H28.86l.23-.67c2.31-6.83 6.09-10.55 8.85-12.48l1.5-1z"/></svg>