<?xml version="1.0" encoding="utf-8"?>
<!-- Generator: Adobe Illustrator 17.1.0, SVG Export Plug-In . SVG Version: 6.00 Build 0)  -->
<!DOCTYPE svg PUBLIC "-//W3C//DTD SVG 1.1//EN" "http://www.w3.org/Graphics/SVG/1.1/DTD/svg11.dtd">
<svg version="1.1" id="Layer_1" xmlns="http://www.w3.org/2000/svg" xmlns:xlink="http://www.w3.org/1999/xlink" x="0px" y="0px"
	 viewBox="0 0 144 144" enable-background="new 0 0 144 144" xml:space="preserve">
<g>
	<g>
		<path d="M103.243,48.715c-0.09-0.189-0.254-0.334-0.453-0.396l-2.673-0.844c-0.372-0.121-0.772,0.07-0.92,0.431L91.561,66.59
			H52.439l-7.636-18.685c-0.148-0.36-0.547-0.552-0.92-0.431l-2.673,0.844c-0.2,0.062-0.364,0.207-0.454,0.396
			c-0.088,0.189-0.094,0.408-0.015,0.603L47.8,66.59h-1.749c-0.414,0-0.75,0.336-0.75,0.75v3.771c0,0.414,0.336,0.749,0.75,0.749
			h0.998l1.621,22.926c0.014,0.18,0.084,0.334,0.178,0.473c-1.529,0.791-2.588,2.369-2.588,4.205c0,2.615,2.127,4.744,4.746,4.744
			c2.616,0,4.745-2.129,4.745-4.744c0-1.529-0.739-2.879-1.866-3.748h36.678c-1.127,0.869-1.867,2.219-1.867,3.748
			c0,2.615,2.129,4.744,4.746,4.744c2.617,0,4.746-2.129,4.746-4.744c0-1.836-1.059-3.414-2.588-4.203
			c0.094-0.141,0.164-0.295,0.178-0.475l1.621-22.926h0.688c0.414,0,0.75-0.336,0.75-0.749V67.34c0-0.414-0.336-0.75-0.75-0.75H96.2
			l7.059-17.272C103.337,49.124,103.332,48.905,103.243,48.715z M42.438,49.503l1.237-0.391l7.144,17.478h-1.397L42.438,49.503z
			 M54.292,99.465c0,1.811-1.474,3.285-3.285,3.285c-1.812,0-3.286-1.475-3.286-3.285c0-1.812,1.474-3.287,3.286-3.287
			C52.818,96.178,54.292,97.652,54.292,99.465z M50.6,93.717l-1.527-21.605h5.456l0.776,4.85c0.059,0.365,0.372,0.633,0.74,0.633
			h3.898c0.414,0,0.75-0.336,0.75-0.75v-4.733h23.51v4.733c0,0.414,0.336,0.75,0.75,0.75h3.897c0.368,0,0.683-0.268,0.741-0.633
			l0.775-4.85h5.008l-1.527,21.605H50.6z M96.729,99.465c0,1.811-1.474,3.285-3.286,3.285s-3.285-1.475-3.285-3.285
			c0-1.812,1.473-3.287,3.285-3.287S96.729,97.652,96.729,99.465z M97.338,68.09v2.271h-7.569c-0.368,0-0.682,0.268-0.74,0.632
			l-0.816,5.1h-2.508v-4.982c0-0.414-0.336-0.75-0.75-0.75h-25.01c-0.414,0-0.75,0.336-0.75,0.75v4.982h-2.508l-0.816-5.1
			c-0.059-0.364-0.373-0.632-0.741-0.632h-8.327V68.09H97.338z M94.579,66.59h-1.397l7.144-17.478l1.236,0.391L94.579,66.59z"/>
		<path d="M71.486,63.234c0.19,0.211,0.46,0.331,0.743,0.331c0.283,0,0.553-0.12,0.743-0.331l10.143-11.268
			c0.532-0.709,0.608-1.495,0.204-2.103c-0.449-0.674-1.157-0.928-1.85-0.685l-3.71,0.358V37.767c0-0.553-0.447-1-1-1
			c-0.552,0-1,0.447-1,1v12.872c0,0.282,0.119,0.551,0.328,0.74c0.209,0.189,0.486,0.282,0.769,0.255l4.242-0.409l-8.869,9.846
			l-8.873-9.847l4.247,0.41c0.285,0.027,0.56-0.065,0.769-0.255c0.209-0.189,0.328-0.458,0.328-0.74V37.767c0-0.553-0.448-1-1-1
			c-0.553,0-1,0.447-1,1v11.771l-3.71-0.358c-0.692-0.243-1.401,0.011-1.851,0.684c-0.406,0.607-0.33,1.395,0.261,2.173
			L71.486,63.234z"/>
	</g>
</g>
</svg>
