<?xml version="1.0" encoding="utf-8"?>
<!-- Generator: Adobe Illustrator 17.1.0, SVG Export Plug-In . SVG Version: 6.00 Build 0)  -->
<!DOCTYPE svg PUBLIC "-//W3C//DTD SVG 1.1//EN" "http://www.w3.org/Graphics/SVG/1.1/DTD/svg11.dtd">
<svg version="1.1" id="Layer_1" xmlns="http://www.w3.org/2000/svg" xmlns:xlink="http://www.w3.org/1999/xlink" x="0px" y="0px"
	 viewBox="0 0 216 216" enable-background="new 0 0 216 216" xml:space="preserve">
<g>
	<g>
		<path fill="#FFFFFF" d="M140.97,82.105H75.031c-2.14,0-3.881,1.741-3.881,3.88v44.03c0,2.139,1.741,3.879,3.881,3.879h27.594
			v13.188c0,0.553,0.447,1,1,1c0.553,0,1-0.447,1-1v-13.188h6.75v8.439c0,0.553,0.448,1,1,1c0.553,0,1-0.447,1-1v-8.439h27.595
			c2.14,0,3.88-1.74,3.88-3.879v-44.03C144.85,83.846,143.109,82.105,140.97,82.105 M142.85,130.016c0,1.035-0.844,1.879-1.88,1.879
			H75.031c-1.037,0-1.881-0.844-1.881-1.879v-44.03c0-1.037,0.844-1.88,1.881-1.88h65.938c1.036,0,1.88,0.843,1.88,1.88V130.016z"/>
		<path fill="#FFFFFF" d="M137.845,87.359h-60.69c-0.414,0-0.75,0.335-0.75,0.75v39.781c0,0.414,0.336,0.75,0.75,0.75h60.69
			c0.414,0,0.75-0.336,0.75-0.75V88.109C138.595,87.694,138.259,87.359,137.845,87.359 M137.095,110.088h-3.769
			c0.307,0.396,0.623,0.881,0.89,1.457c0.007,0.014,0.011,0.029,0.017,0.043h2.862v15.553h-59.19V111.59h10.56
			c0.247,0,0.479-0.121,0.618-0.326l1.416-2.064l2.298,7.053c0.102,0.316,0.391,0.51,0.73,0.518
			c0.331-0.008,0.618-0.232,0.706-0.551l4.781-17.387l5.315,23.592c0.077,0.344,0.382,0.586,0.731,0.586h0.02
			c0.359-0.01,0.66-0.271,0.72-0.625l1.855-10.895l0.443,0.951c0.129,0.273,0.405,0.459,0.711,0.432
			c0.303-0.014,0.567-0.205,0.672-0.49l1.7-4.596l1.278,3.322c0.112,0.287,0.39,0.479,0.7,0.479h2.327
			c0.011-0.023,0.018-0.049,0.028-0.074c0.256-0.562,0.562-1.037,0.864-1.426h-2.705l-1.807-4.693
			c-0.111-0.293-0.371-0.451-0.705-0.48c-0.312,0.002-0.589,0.195-0.698,0.488l-1.767,4.777l-0.701-1.496
			c-0.14-0.297-0.447-0.475-0.78-0.426c-0.324,0.043-0.584,0.293-0.639,0.617l-1.62,9.518l-5.14-22.816
			c-0.076-0.336-0.371-0.576-0.715-0.585c-0.353-0.011-0.649,0.22-0.74,0.552l-4.915,17.869l-1.997-6.123
			c-0.087-0.271-0.322-0.471-0.605-0.51c-0.279-0.037-0.564,0.082-0.725,0.318l-2.053,2.992H77.904v-21.23h59.19V110.088z"/>
		<path fill="#FFFFFF" d="M122.801,122.127l0.765,0.65c0.288,0.246,0.408,0.35,0.774,0.652c0.164,0.135,0.37,0.207,0.581,0.207
			c0.21,0,0.416-0.072,0.586-0.211c4.835-4.006,5.959-5.793,6.181-6.221c1.28-1.986,0.972-3.664,0.484-4.721
			c-0.489-1.062-1.249-1.699-1.422-1.834c-0.874-0.637-1.784-0.961-2.704-0.961c-1.418,0-2.514,0.752-3.192,1.398
			c-0.681-0.646-1.776-1.398-3.194-1.398c-0.92,0-1.831,0.324-2.718,0.971c-0.089,0.068-0.879,0.688-1.383,1.787
			c-0.479,1.047-0.786,2.727,0.451,4.74C118.14,117.432,118.984,118.814,122.801,122.127 M118.922,113.072
			c0.353-0.77,0.914-1.207,0.913-1.207c0.614-0.449,1.229-0.676,1.824-0.676c1.336,0,2.332,1.127,2.605,1.471
			c0.285,0.359,0.891,0.359,1.177,0c0.273-0.344,1.269-1.471,2.605-1.471c0.596,0,1.209,0.227,1.799,0.656
			c0.024,0.019,0.604,0.484,0.964,1.266c0.483,1.049,0.349,2.162-0.401,3.311c-0.019,0.029-0.036,0.061-0.049,0.09
			c-0.009,0.016-0.771,1.539-5.438,5.449c-0.122-0.102-0.227-0.193-0.384-0.326l-0.759-0.645c-3.715-3.227-4.44-4.498-4.467-4.549
			C118.576,115.246,118.445,114.111,118.922,113.072"/>
	</g>
</g>
</svg>
