<svg id="Layer_1" data-name="Layer 1" xmlns="http://www.w3.org/2000/svg" viewBox="0 0 63.69 65.01"><defs><style>.cls-1{fill:#fff;}</style></defs><title>Icon_RH_Science_AtomB_RGB_White</title><path class="cls-1" d="M17.85 23.72a1.9 1.9 0 1 0-1.9-1.9 1.9 1.9 0 0 0 1.9 1.9zm31.31 8.37a1.893 1.893 0 0 0-3.06-2.23q-1.5-1.06-3-2.06a.65.65 0 0 0-.71 1.09c1.18.77 2.29 1.53 3.36 2.29a1.87 1.87 0 0 0 2.32 1.67c11 8.17 15.53 14.91 14 17.52-1.09 1.88-5.46 2-11.68.34-1.73-.46-3.56-1.05-5.47-1.75l-.22-.73a76.29 76.29 0 0 0-7.62-15.9 94.83 94.83 0 0 0-5.49-8.06c2-1.7 3.92-3.3 5.85-4.78.14 1.3.26 2.64.36 4.06a.66.66 0 0 0 .69.6.65.65 0 0 0 .6-.69c-.11-1.61-.26-3.25-.46-4.89a77.52 77.52 0 0 1 9.3-6c5.67-3 9.76-3.89 11.23-2.31.68.73.8 2 .37 3.75a.49.49 0 1 0 .95.24c.53-2.1.32-3.66-.6-4.65-2.33-2.51-8-.24-12.41 2.11a77.51 77.51 0 0 0-9 5.77C37.31 8.48 34.93.01 31.13.01c-3.46 0-5.89 7-7.17 16.22-2.54-2-4.52-2.57-5.67-1.88-.88.54-1.3 1.68-1.25 3.4a.5.5 0 0 0 .5.47.49.49 0 0 0 .47-.5c0-.93.09-2.12.78-2.55.91-.56 2.71.25 5 2.17a121.44 121.44 0 0 0-.91 13.74c-1.37 1.41-2.68 2.83-3.93 4.26a85.08 85.08 0 0 1-11.93-9.68C2.47 21.09.4 17.24 1.48 15.37c.45-.78 1.44-1.26 2.95-1.44a.65.65 0 1 0-.15-1.29c-1.94.23-3.26.93-3.92 2.08-1.85 3.19 2.1 8.21 5.74 11.86a86.08 86.08 0 0 0 12 9.75C10.37 45.5 5.44 54.28 8.43 57.5a3.91 3.91 0 0 0 3 1.09c3.25 0 8.13-2.22 13.34-5.52 1.38 7 3.56 11.94 6.46 11.94 1.08 0 2.09-.68 3-2a.65.65 0 1 0-1.07-.74c-.46.67-1.17 1.46-1.94 1.46-1.89 0-3.91-4.27-5.27-11.41.61-.4 1.23-.82 1.84-1.25a1.93 1.93 0 1 0-.46-.86l-1.57 1.07a97.44 97.44 0 0 1-1.23-10.88c.73.44 1.46.89 2.21 1.32a115.42 115.42 0 0 0 17.52 8.36c.89 3.37.84 5.68-.16 6.29-1.7 1-6.8-2.55-13.25-11.44a.49.49 0 0 0-.79.57c4.24 5.84 10 12 13.37 12a2.22 2.22 0 0 0 1.18-.31c1.62-1 1.43-3.88.75-6.72 1.64.58 3.22 1.08 4.73 1.48a31.62 31.62 0 0 0 7.76 1.24c2.44 0 4.49-.57 5.41-2.17 2.36-4.12-4.88-11.99-14.05-18.93zm-18-30.79c2.15 0 4.82 5.94 6.14 17.05-2.09 1.58-4.2 3.3-6.32 5.14a46.75 46.75 0 0 0-5.82-6.3c1.37-9.81 3.8-15.89 6.06-15.89zm-6.08 17.09a52.64 52.64 0 0 1 5.2 5.77q-1.32 1.15-2.62 2.34c-1.13 1.05-2.25 2.13-3.34 3.22.08-4.11.35-7.93.76-11.33zM22.99 32.5c0 1.83 0 3.67.12 5.5q-1.67-1-3.25-2.12 1.47-1.67 3.13-3.38zm1.58 19.55c-7.56 4.84-13.53 6.83-15.42 4.8-2.16-2.32 1.41-10.19 9.85-20q2 1.37 4.19 2.72a102.45 102.45 0 0 0 1.38 12.47zm2.82-11.45q-1.5-.87-2.95-1.76-.15-3-.15-6.34v-1.36q1.9-1.93 4-3.9 1.27-1.18 2.56-2.32a91.09 91.09 0 0 1 5.41 7.92 75.27 75.27 0 0 1 7.59 15.66 115.81 115.81 0 0 1-16.46-7.9zm4.46-8.1a3.36 3.36 0 1 0 3.36 3.36 3.36 3.36 0 0 0-3.36-3.36z"/></svg>