<?xml version="1.0" encoding="utf-8"?>
<!-- Generator: Adobe Illustrator 17.1.0, SVG Export Plug-In . SVG Version: 6.00 Build 0)  -->
<!DOCTYPE svg PUBLIC "-//W3C//DTD SVG 1.1//EN" "http://www.w3.org/Graphics/SVG/1.1/DTD/svg11.dtd">
<svg version="1.1" id="Layer_1" xmlns="http://www.w3.org/2000/svg" xmlns:xlink="http://www.w3.org/1999/xlink" x="0px" y="0px"
	 viewBox="0 0 144 144" enable-background="new 0 0 144 144" xml:space="preserve">
<g>
	<g>
		<path d="M100,58.417c-0.128,0-0.255-0.045-0.357-0.137l-6.519-5.905c-0.217-0.197-0.233-0.533-0.036-0.75
			c0.198-0.218,0.534-0.233,0.75-0.037l6.519,5.905c0.217,0.197,0.233,0.533,0.036,0.75C100.289,58.358,100.145,58.417,100,58.417z"
			/>
	</g>
	<g>
		<path d="M94.627,83.958c-0.189,0-0.38-0.05-0.553-0.156c-0.5-0.306-0.658-0.959-0.353-1.46c2.911-4.763,3.778-8.782,2.654-12.286
			c-0.729-3.003-6.648-8.302-8.869-10.096c-0.456-0.368-0.528-1.037-0.16-1.493c0.37-0.456,1.038-0.528,1.493-0.159
			c0.875,0.706,8.575,7.021,9.578,11.175c1.303,4.052,0.366,8.646-2.885,13.967C95.334,83.777,94.985,83.958,94.627,83.958z"/>
	</g>
	<g>
		<path d="M83.026,92.548c-4.433,0-11.687-3.801-12.58-4.278c-0.516-0.276-0.712-0.919-0.435-1.437
			c0.276-0.517,0.919-0.713,1.437-0.436c2.49,1.33,9.58,4.627,12.478,3.93c3.706-0.614,6.885-3.221,9.796-7.985
			c0.306-0.5,0.959-0.659,1.46-0.352c0.5,0.306,0.658,0.959,0.353,1.46c-3.252,5.322-6.911,8.252-11.186,8.958
			C83.948,92.504,83.503,92.548,83.026,92.548z"/>
	</g>
	<g>
		<path d="M83.385,76.633c-0.189,0-0.38-0.05-0.553-0.156c-0.5-0.306-0.658-0.959-0.353-1.459
			c2.968-4.857,5.694-10.778,3.421-17.864c-1.207-4.984-2.954-6.794-3.243-7.067C81.263,49.28,59.88,37.141,45.822,37.141
			c-0.255,0-0.506,0.004-0.757,0.012c-0.011,0-0.023,0.001-0.035,0.001c-0.57,0-1.041-0.453-1.06-1.027
			c-0.02-0.586,0.441-1.077,1.027-1.096c14.997-0.493,38.611,13.146,38.837,13.284c0.034,0.021,0.067,0.044,0.1,0.069
			c0.256,0.2,2.544,2.126,4.01,8.196c2.529,7.873-0.621,14.585-3.651,19.545C84.092,76.452,83.743,76.633,83.385,76.633z"/>
	</g>
	<g>
		<path d="M63.05,89.034c-2.281,0-3.42-0.481-3.603-0.566c-0.036-0.017-0.073-0.036-0.107-0.057
			c-1.741-1.064-22.532-16.705-28.734-29.825c-0.25-0.53-0.024-1.163,0.506-1.414c0.534-0.251,1.163-0.023,1.414,0.506
			C38.452,70.214,58.28,85.207,60.38,86.557c0.329,0.118,2.732,0.872,7.691-0.326c7.418-1.227,11.441-6.356,14.409-11.214
			c0.306-0.501,0.958-0.659,1.46-0.353c0.5,0.306,0.658,0.959,0.353,1.459c-3.03,4.96-7.564,10.827-15.799,12.186
			C66.233,88.857,64.433,89.034,63.05,89.034z"/>
	</g>
	<g>
		<path d="M63.05,89.034c-2.281,0-3.42-0.481-3.603-0.566c-0.532-0.247-0.763-0.878-0.516-1.41c0.246-0.531,0.878-0.763,1.41-0.516
			c0.008,0.003,2.384,0.98,7.73-0.311c7.418-1.227,11.441-6.356,14.409-11.214c0.306-0.501,0.958-0.659,1.46-0.353
			c0.5,0.306,0.658,0.959,0.353,1.459c-3.03,4.96-7.564,10.827-15.799,12.186C66.233,88.857,64.433,89.034,63.05,89.034z"/>
	</g>
	<g>
		<path d="M93.451,65.143c-0.279,0-0.558-0.11-0.766-0.327c-0.406-0.424-0.392-1.096,0.032-1.501l18.244-17.479l-5.014-4.505
			L88.912,57.764c-0.422,0.407-1.094,0.395-1.501-0.027c-0.408-0.422-0.395-1.094,0.027-1.501l17.747-17.121
			c0.401-0.387,1.033-0.398,1.446-0.026l6.601,5.931c0.22,0.198,0.347,0.477,0.353,0.773c0.004,0.295-0.114,0.579-0.328,0.784
			L94.186,64.848C93.98,65.045,93.716,65.143,93.451,65.143z"/>
	</g>
	<g>
		<path d="M90.597,61.66c-0.14,0-0.279-0.055-0.384-0.164c-0.202-0.212-0.195-0.548,0.017-0.751L109.3,42.475
			c0.213-0.203,0.547-0.195,0.751,0.016c0.202,0.212,0.195,0.548-0.017,0.751L90.964,61.512
			C90.861,61.611,90.729,61.66,90.597,61.66z"/>
	</g>
	<g>
		<g>
			<path d="M46.966,105.24c-0.14,0-0.279-0.055-0.384-0.164c-0.202-0.212-0.195-0.548,0.017-0.751l17.478-16.745
				c0.212-0.203,0.547-0.195,0.751,0.016c0.202,0.212,0.195,0.548-0.017,0.751l-17.478,16.745
				C47.23,105.191,47.098,105.24,46.966,105.24z"/>
		</g>
		<g>
			<path d="M50.466,108.986c-0.24,0-0.479-0.08-0.676-0.243l-7.177-5.931c-0.234-0.193-0.374-0.476-0.385-0.779
				c-0.011-0.303,0.108-0.596,0.327-0.806l15.282-14.642c0.422-0.405,1.094-0.391,1.5,0.032c0.406,0.424,0.392,1.096-0.032,1.501
				l-14.42,13.816l5.514,4.557l19.315-19.279c0.413-0.414,1.087-0.414,1.501,0.001c0.414,0.415,0.414,1.087-0.002,1.502
				l-19.998,19.96C51.01,108.881,50.738,108.986,50.466,108.986z"/>
		</g>
		<g>
			<path d="M56.876,101.462c-0.128,0-0.255-0.045-0.357-0.137L50,95.419c-0.217-0.197-0.233-0.533-0.036-0.75
				c0.198-0.217,0.534-0.233,0.75-0.037l6.519,5.905c0.217,0.197,0.233,0.533,0.036,0.75
				C57.164,101.403,57.02,101.462,56.876,101.462z"/>
		</g>
	</g>
	<g>
		<path d="M64.128,95.556c-0.128,0-0.255-0.045-0.357-0.137l-6.518-5.905c-0.217-0.197-0.233-0.533-0.036-0.75
			c0.198-0.218,0.534-0.233,0.75-0.037l6.518,5.905c0.217,0.197,0.233,0.533,0.036,0.75C64.416,95.498,64.272,95.556,64.128,95.556z
			"/>
	</g>
	<g>
		<path d="M106.518,52.511c-0.128,0-0.255-0.045-0.357-0.137l-6.518-5.905c-0.217-0.197-0.233-0.533-0.036-0.75
			c0.198-0.218,0.534-0.233,0.75-0.037l6.518,5.905c0.217,0.197,0.233,0.533,0.036,0.75
			C106.807,52.453,106.663,52.511,106.518,52.511z"/>
	</g>
	<g>
		<path d="M35.533,45.941c-0.194,0-0.39-0.053-0.566-0.165l-4.056-2.565c-0.496-0.313-0.644-0.969-0.33-1.465
			c0.312-0.495,0.968-0.644,1.464-0.33l4.056,2.565c0.496,0.313,0.644,0.969,0.33,1.465C36.23,45.766,35.886,45.941,35.533,45.941z"
			/>
	</g>
	<g>
		<path d="M31.567,59.195c-0.454,0-0.874-0.293-1.015-0.75c-1.3-4.23,7.562-20.548,13.647-23.333
			c0.533-0.245,1.162-0.009,1.407,0.523c0.244,0.533,0.009,1.163-0.524,1.407c-5.691,2.605-13.26,18.307-12.5,20.779
			c0.172,0.56-0.143,1.155-0.703,1.327C31.775,59.179,31.67,59.195,31.567,59.195z"/>
	</g>
	<g>
		<path d="M31.567,58.663c-0.161,0-0.319-0.073-0.424-0.211c-0.176-0.234-0.13-0.567,0.104-0.744
			c1.819-1.374,4.64-4.813,7.362-8.974C42.187,43.263,44.5,38.3,44.5,36.092c0-0.293,0.237-0.531,0.531-0.531
			c0.293,0,0.531,0.238,0.531,0.531c0,2.914-3.134,8.742-6.066,13.224c-2.826,4.321-5.671,7.775-7.609,9.24
			C31.791,58.628,31.679,58.663,31.567,58.663z"/>
	</g>
</g>
</svg>
