<?xml version="1.0" encoding="utf-8"?>
<!-- Generator: Adobe Illustrator 17.1.0, SVG Export Plug-In . SVG Version: 6.00 Build 0)  -->
<!DOCTYPE svg PUBLIC "-//W3C//DTD SVG 1.1//EN" "http://www.w3.org/Graphics/SVG/1.1/DTD/svg11.dtd">
<svg version="1.1" id="Layer_1" xmlns="http://www.w3.org/2000/svg" xmlns:xlink="http://www.w3.org/1999/xlink" x="0px" y="0px"
	 viewBox="0 0 612 792" enable-background="new 0 0 612 792" xml:space="preserve">
<g>
	<g>
		<path d="M345.411,377.548c-0.438-0.824-0.851-1.603-1.195-2.36c-0.151-0.331-0.471-0.555-0.835-0.582
			c-0.342-0.021-0.713,0.145-0.912,0.45c-1.005,1.537-2.411,2.91-4.04,4.501c-3.716,3.629-8.34,8.145-10.24,17.157
			c-2.494,11.823,1.053,24.306,1.683,26.37c-0.811,3.285-4.598,7.341-4.637,7.383c-0.379,0.401-0.36,1.034,0.042,1.413
			c0.193,0.182,0.439,0.272,0.685,0.272c0.266,0,0.53-0.105,0.728-0.313c0.172-0.183,4.049-4.331,5.075-8.092
			c2.624-1.357,16.233-9.04,17.7-23.214C350.793,387.694,347.683,381.83,345.411,377.548z M347.475,400.328
			c-1.245,12.038-12.435,19.276-15.947,21.266c-0.957-3.511-3.503-14.41-1.382-24.468c1.775-8.418,5.976-12.52,9.681-16.139
			c1.193-1.166,2.339-2.284,3.308-3.47c0.165,0.317,0.336,0.639,0.511,0.968C345.915,382.766,348.741,388.094,347.475,400.328z"/>
		<path d="M343.182,379.853c-0.289-0.014-0.511,0.196-0.526,0.472c-0.212,3.917-0.982,8.333-2.003,12.735
			c-0.906-1.583-2.439-4.792-2.037-7.837c0.036-0.273-0.157-0.525-0.431-0.561c-0.27-0.04-0.525,0.156-0.562,0.431
			c-0.548,4.158,2.071,8.402,2.701,9.353c-1.184,4.847-2.637,9.603-3.963,13.587c-1.131-1.424-4.256-5.62-4.457-8.734
			c-0.019-0.276-0.264-0.489-0.531-0.467c-0.275,0.018-0.484,0.256-0.467,0.531c0.262,4.045,4.73,9.383,5.078,9.793
			c-1.83,5.397-3.327,9.118-3.364,9.21c-0.103,0.256,0.021,0.547,0.276,0.651c0.062,0.024,0.125,0.036,0.188,0.036
			c0.197,0,0.385-0.118,0.464-0.312c0.047-0.116,2.438-6.061,4.891-13.89c1.086-0.558,6.851-3.63,8.335-6.722
			c0.119-0.249,0.014-0.548-0.234-0.668c-0.249-0.117-0.548-0.015-0.668,0.234c-1.1,2.292-5.093,4.724-7.011,5.792
			c0.868-2.847,1.729-5.899,2.478-8.987c0.009-0.029,0.018-0.057,0.022-0.087c1.166-4.824,2.06-9.725,2.294-14.033
			C343.669,380.103,343.457,379.868,343.182,379.853z"/>
		<path d="M314.244,369.583c2.679-0.182,6.375,0.133,9.632,0.411c4.171,0.355,6.389,0.52,7.392,0.083
			c1.646-0.718,3.071-2.571,3.39-4.408c0.209-1.208-0.085-2.258-0.827-2.955c-4.68-4.399-13.178-7.793-20.833-4.91
			c-0.267,0.026-0.88,0.093-1.741,0.22l0.001-2.113c0-2.185-3.684-2.978-6.16-2.978c-2.477,0-6.16,0.793-6.16,2.978
			c0,1.794,0.003,3.631,0.007,5.493c-6.914,2.948-13.754,8.204-13.754,17.488c0,1.99,0.461,3.755,1.254,5.311l-15.143,3.875
			c-0.027,0.007-0.049,0.024-0.074,0.035c-5.41,1.698-9.347,6.759-9.347,12.723c0,7.351,5.98,13.33,13.33,13.33
			c6.068,0,11.192-4.079,12.8-9.637c0.002-0.009,0.012-0.013,0.015-0.022l3.839-14.714c2.216,1.366,4.758,2.322,7.283,2.902
			c0.04,3.84,0.084,7.676,0.133,11.459c-4.114,1.596-7.577,4.131-7.577,9.219c0,5.409,4.277,7.375,7.851,8.332
			c0.056,2.93,0.111,5.535,0.166,7.742c-0.813-0.166-1.537-0.391-2.1-0.677c-3.91-1.993-4.809-1.949-5.338-1.097
			c-0.623,0.999,0.335,1.955,2.868,3.857c1.482,1.111,3.075,1.892,4.697,2.406c0.117,3.68,0.161,3.805,0.243,4.021
			c0.468,1.246,3.208,1.91,5.007,1.91c1.797,0,4.537-0.663,5.007-1.908c0.082-0.217,0.127-0.349,0.246-4.094
			c0.612-0.207,1.192-0.442,1.725-0.708c3.227-1.613,5.077-4.254,5.077-7.246c0-3.512-2.505-6.544-6.444-7.895
			c0.053-3.019,0.103-6.301,0.153-9.815c5.635-1.587,11.25-4.34,11.25-11.299c0-5.638-5.404-9.708-10.995-11.395
			c0.046-5.3,0.082-10.518,0.105-15.53C312.462,369.763,313.52,369.632,314.244,369.583z M300.921,355.99
			c0.19-0.359,1.837-1.058,4.176-1.058c2.339,0,3.985,0.698,4.16,0.978l-0.001,2.447c-1.635,0.305-3.656,0.758-5.837,1.422
			l-0.03-2.866c-0.003-0.274-0.227-0.495-0.5-0.495c-0.002,0-0.004,0-0.005,0c-0.276,0.003-0.498,0.229-0.495,0.505l0.033,3.174
			c-0.489,0.16-0.982,0.329-1.48,0.512C300.938,359.024,300.934,357.463,300.921,355.99z M286.541,400.836
			c0,2.256-0.67,4.354-1.811,6.122c-1.367-1.753-2.51-5.474-2.583-7.041c1.19-1.188,2.098-3.482,2.607-5.163
			C285.88,396.513,286.541,398.597,286.541,400.836z M280.568,399.697c-1.607,0-3.698-5.662-3.791-7.938
			c0.004-0.004,0.008-0.01,0.013-0.014c0.019-0.019,0.036-0.042,0.055-0.061c0.107-0.112,0.214-0.233,0.319-0.366
			c0.037-0.047,0.073-0.1,0.109-0.148c0.088-0.117,0.175-0.237,0.262-0.369c0.042-0.064,0.084-0.133,0.126-0.201
			c0.081-0.131,0.163-0.266,0.243-0.409c0.043-0.075,0.085-0.154,0.127-0.233c0.013-0.024,0.026-0.047,0.039-0.072
			c2.37,0.62,4.441,1.979,5.941,3.83C283.266,396.626,281.703,399.697,280.568,399.697z M274.096,390.785
			c-0.056-0.067-0.111-0.141-0.168-0.216c-0.037-0.049-0.073-0.097-0.11-0.149c-0.059-0.085-0.118-0.177-0.178-0.27
			c-0.034-0.053-0.067-0.102-0.1-0.158c-0.062-0.102-0.123-0.212-0.186-0.321c0.606-0.101,1.223-0.166,1.857-0.166
			c0.628,0,1.239,0.064,1.84,0.163c-0.062,0.109-0.122,0.219-0.183,0.319c-0.035,0.058-0.07,0.109-0.105,0.164
			c-0.06,0.093-0.118,0.185-0.178,0.268c-0.035,0.052-0.07,0.098-0.106,0.146c-0.059,0.078-0.115,0.152-0.173,0.222
			c-0.035,0.042-0.069,0.082-0.104,0.121c-0.057,0.064-0.112,0.122-0.168,0.177c-0.033,0.033-0.067,0.065-0.102,0.095
			c-0.055,0.05-0.109,0.092-0.163,0.131c-0.032,0.023-0.064,0.048-0.095,0.067c-0.057,0.036-0.112,0.061-0.167,0.086
			c-0.025,0.012-0.052,0.027-0.077,0.035c-0.079,0.027-0.155,0.043-0.228,0.043c-0.073,0-0.149-0.016-0.229-0.043
			c-0.025-0.008-0.052-0.023-0.078-0.035c-0.054-0.023-0.109-0.05-0.166-0.086c-0.031-0.02-0.063-0.045-0.096-0.068
			c-0.053-0.038-0.106-0.08-0.161-0.128c-0.034-0.03-0.069-0.064-0.104-0.099c-0.054-0.053-0.108-0.109-0.163-0.171
			C274.168,390.87,274.132,390.829,274.096,390.785z M274.723,392.462c0.037,0.012,0.074,0.024,0.111,0.033
			c0.244,0.056,0.49,0.056,0.735,0c0.036-0.009,0.072-0.021,0.108-0.032c0.054-0.016,0.107-0.026,0.161-0.048
			c0.289,2.101,1.523,5.854,3.153,7.487c-0.084,2.267-2.182,7.951-3.791,7.951c-1.609,0-3.707-5.685-3.791-7.952
			c1.63-1.633,2.864-5.386,3.153-7.486C274.616,392.435,274.67,392.446,274.723,392.462z M272.335,389.889
			c0.007,0.015,0.015,0.028,0.022,0.043c0.05,0.094,0.1,0.188,0.15,0.276c0.074,0.132,0.148,0.255,0.224,0.376
			c0.047,0.076,0.095,0.154,0.142,0.226c0.08,0.12,0.159,0.23,0.239,0.337c0.044,0.06,0.087,0.123,0.132,0.178
			c0.092,0.117,0.186,0.221,0.279,0.32c0.031,0.033,0.062,0.073,0.094,0.104c0.002,0.003,0.005,0.007,0.008,0.01
			c-0.093,2.276-2.186,7.938-3.792,7.938c-1.129,0-2.689-3.062-3.438-5.965C267.893,391.878,269.964,390.513,272.335,389.889z
			 M268.256,399.915c-0.072,1.559-1.211,5.27-2.573,7.029c-1.136-1.765-1.803-3.858-1.803-6.108c0-2.23,0.657-4.308,1.774-6.062
			C266.166,396.448,267.071,398.73,268.256,399.915z M266.282,407.787c1.447-1.701,2.627-5.199,2.911-7.218
			c0.414,0.166,0.857,0.17,1.277-0.004c0.288,2.1,1.522,5.858,3.154,7.493c-0.035,0.787-0.352,2.25-0.926,3.817
			C270.111,411.287,267.863,409.812,266.282,407.787z M275.21,412.166c-0.515,0-1.017-0.047-1.513-0.113
			c0.422-1.186,0.74-2.4,0.867-3.331c0.418,0.172,0.855,0.172,1.273,0c0.127,0.931,0.445,2.146,0.869,3.334
			C276.216,412.121,275.719,412.166,275.21,412.166z M276.777,408.059c1.631-1.635,2.866-5.393,3.154-7.493
			c0.42,0.174,0.866,0.169,1.276,0.005c0.285,2.025,1.469,5.531,2.922,7.228c-1.584,2.024-3.836,3.497-6.426,4.082
			C277.129,410.311,276.812,408.847,276.777,408.059z M288.41,399.07c-0.789-5.919-5.468-10.613-11.381-11.426l9.935-2.543
			c1.016,1.621,2.397,2.997,4.015,4.123L288.41,399.07z M292.393,387.764l0.718-2.751c0.07-0.267-0.09-0.54-0.357-0.609
			c-0.271-0.074-0.54,0.091-0.609,0.357l-0.619,2.372c-0.966-0.748-1.817-1.599-2.504-2.558l2.439-0.624
			c0.268-0.068,0.429-0.341,0.36-0.608c-0.068-0.267-0.335-0.428-0.608-0.36l-2.755,0.705c-0.796-1.396-1.267-2.987-1.267-4.796
			c0-16.831,25.854-19.087,26.115-19.107c0.097-0.008,0.191-0.029,0.281-0.065c6.581-2.543,14.475,0.315,18.875,4.451
			c0.318,0.3,0.278,0.854,0.226,1.157c-0.073,0.422-0.247,0.854-0.484,1.26c-2.169-0.111-13.634-0.762-18.704-2.351
			c-0.261-0.082-0.544,0.064-0.627,0.328c-0.082,0.264,0.064,0.544,0.328,0.627c4.833,1.514,14.936,2.175,18.252,2.357
			c-0.305,0.298-0.638,0.544-0.982,0.693c-0.628,0.251-3.841-0.021-6.424-0.241c-3.33-0.284-7.103-0.608-9.936-0.415
			c-0.056,0.004-1.621,0.164-3.854,0.579c-0.01-0.001-0.018-0.006-0.026-0.006c-0.002,0-0.003,0-0.005,0
			c-0.145,0-0.279,0.033-0.403,0.088c-2.95,0.57-6.896,1.567-10.132,3.192c-0.092,0.028-0.172,0.071-0.25,0.124
			c-3.162,1.641-5.579,3.902-5.579,6.988c0,3.527,2.799,5.127,5.211,6.013c0.017,2.019,0.036,4.047,0.056,6.077
			C296.755,390.051,294.388,389.1,292.393,387.764z M299.054,382.398c-2.212-0.958-3.193-2.147-3.193-3.846
			c0-1.742,1.262-3.213,3.136-4.431C299.013,376.844,299.031,379.607,299.054,382.398z M300.99,373.018
			c0.502-0.239,1.024-0.467,1.562-0.681l0.325,30.645c-0.535,0.15-1.071,0.311-1.606,0.479
			C301.143,393.343,301.045,382.868,300.99,373.018z M299.383,411.508c0.018,1.153,0.034,2.279,0.052,3.376
			c-0.912-0.624-1.076-1.258-1.076-1.823C298.358,412.448,298.737,411.942,299.383,411.508z M301.369,410.592
			c0.489-0.167,1.023-0.323,1.584-0.474l0.209,19.643c-0.489,0.001-0.973-0.014-1.445-0.048c0-0.017,0.01-0.032,0.009-0.05
			C301.605,424.95,301.482,418.361,301.369,410.592z M308.215,437.159c-0.443,0.267-1.712,0.708-3.118,0.708
			c-1.406,0-2.675-0.442-3.117-0.708c-0.03-0.423-0.069-1.342-0.115-2.728c0.451,0.082,0.9,0.147,1.349,0.193l0.015,1.364
			c0.003,0.274,0.227,0.495,0.5,0.495c0.002,0,0.004,0,0.005,0c0.276-0.003,0.498-0.229,0.495-0.505l-0.014-1.281
			c0.257,0.012,0.516,0.027,0.771,0.027c1.161,0,2.285-0.12,3.347-0.329C308.277,436.016,308.24,436.803,308.215,437.159z
			 M315.151,425.911c0,3.021-2.488,4.716-3.972,5.457c-3.319,1.66-8.478,1.981-12.814-0.192c3.622,1.008,9.313,0.776,12.493-1.172
			c1.64-1.004,2.506-2.393,2.506-4.016c0-1.605-1.072-3.097-2.73-3.894c0.013-0.633,0.024-1.287,0.036-1.951
			C313.012,421.118,315.151,423.017,315.151,425.911z M310.588,424.441c0.484,0.439,0.776,0.984,0.776,1.547
			c0,0.678-0.281,1.268-0.85,1.788C310.539,426.73,310.564,425.627,310.588,424.441z M308.486,428.927
			c-1.26,0.465-2.785,0.725-4.325,0.807l-0.211-19.871c0.768-0.188,1.57-0.368,2.384-0.551c0.81-0.182,1.656-0.372,2.518-0.582
			C308.737,416.826,308.608,423.969,308.486,428.927z M320.11,396.902c0,7.267-7.552,8.962-14.214,10.458
			c-5.118,1.148-9.538,2.141-9.538,5.7c0,2.442,1.926,3.602,3.114,4.131c0.014,0.826,0.027,1.633,0.042,2.419
			c-4.052-1.212-5.812-3.118-5.812-6.237c0-5.962,6.147-7.556,12.092-9.098c4.929-1.278,9.584-2.486,9.584-6.451
			c0-2.152-1.612-3.922-4.333-4.852c0.018-1.796,0.035-3.588,0.052-5.375C315.762,389.148,320.11,392.469,320.11,396.902z
			 M311.021,395.1c1.49,0.652,2.356,1.621,2.356,2.725c0,1.21-0.938,2.058-2.419,2.743
			C310.98,398.749,311.002,396.926,311.021,395.1z M308.949,401.324c-1.109,0.353-2.355,0.677-3.657,1.015
			c-0.465,0.12-0.94,0.245-1.418,0.372l-0.326-30.753c1.885-0.678,3.873-1.205,5.671-1.592
			C309.17,380.229,309.078,390.886,308.949,401.324z"/>
		<path d="M323.696,363.377c0.97,0,1.758-0.788,1.758-1.758c0-0.97-0.788-1.758-1.758-1.758s-1.758,0.788-1.758,1.758
			C321.939,362.589,322.727,363.377,323.696,363.377z M323.696,360.861c0.418,0,0.758,0.34,0.758,0.758
			c0,0.418-0.34,0.758-0.758,0.758s-0.758-0.34-0.758-0.758C322.939,361.201,323.278,360.861,323.696,360.861z"/>
	</g>
</g>
</svg>
