<svg id="Layer_1" data-name="Layer 1" xmlns="http://www.w3.org/2000/svg" viewBox="0 0 108 108"><defs><style>.cls-1{fill:none;}.cls-2{fill:#fff;}</style></defs><title>Icon_RH_Science_DNA_CMYK_White</title><path class="cls-1" d="M38.52,56a11.15,11.15,0,0,1,1.08-7.31c1.78-3.21,5.08-5.62,7.34-7-0.81-.46-1.63-0.91-2.44-1.34S42.85,39.48,42,39a0.56,0.56,0,0,0-.29-0.07c-0.59,0-1.82.71-4.32,4.13l-0.31.42a18.44,18.44,0,0,0-4,11.19c0.17,8.57,8.45,14.36,12,16.46,2.92,1.71,6,3.36,8.89,5,1.59,0.86,3.18,1.73,4.76,2.6,6.41,3.56,10,8.39,11,14.76a2.5,2.5,0,0,0,2.14,2,2.58,2.58,0,0,0,2.61-1.32,4,4,0,0,0,.15-2.82c-1.2-6.78-5.08-12.18-11.53-16.06-2.38-1.43-4.9-2.73-7.33-4-1.61-.83-3.27-1.7-4.89-2.59"/><path class="cls-1" d="M61.55,28.88l-0.38.26C62.45,29.78,63.7,30.39,65,31a1.46,1.46,0,0,0,2-.3,20.61,20.61,0,0,0,7.74-15.51,2.38,2.38,0,0,0-1.15-2.3,2.51,2.51,0,0,0-2.49-.21A2.86,2.86,0,0,0,69.57,15c-0.28,2.85-.8,6.14-2.62,8.86a19.08,19.08,0,0,1-5.07,4.76Z"/><path class="cls-1" d="M52,20.28H49.55c-1.87,0-5.64.08-7.77,0.13,0.26,0.52.51,1,.79,1.52a5.59,5.59,0,0,0,.64,0c4.33,0,17.29-.18,22.73-0.31a12.3,12.3,0,0,0,.59-1.43,3.06,3.06,0,0,1-.51.06C62.58,20.28,55.44,20.28,52,20.28Z"/><path class="cls-2" d="M61.88,23.79h0.28l4.47-.06a0.85,0.85,0,0,0,.72-0.41A14.72,14.72,0,0,0,69,19.08a0.62,0.62,0,0,0-.61-0.75h-6q-5.16,0-10.31,0H49.55c-2.71,0-9.31.16-9.37,0.16A1,1,0,0,0,39.31,20l0.41,0.83c0.39,0.81.8,1.64,1.26,2.44a2,2,0,0,0,1.83.78c3,0,12.53-.1,19.07-0.22h0ZM42.57,22c-0.28-.49-0.53-1-0.79-1.52,2.13,0,5.9-.13,7.77-0.13H52c3.44,0,10.58,0,14,0a3.06,3.06,0,0,0,.51-0.06,12.3,12.3,0,0,1-.59,1.43C60.5,21.83,47.55,22,43.21,22A5.59,5.59,0,0,1,42.57,22Z"/><path class="cls-2" d="M40.39,53.3H68.62a1,1,0,0,0,.93-1.38l-0.4-1c-0.34-.87-0.67-1.69-1.07-2.49a2.07,2.07,0,0,0-1.94-.85l-13.48,0H41.14a1.48,1.48,0,0,0-1.26.72l-0.24.41a10.1,10.1,0,0,0-1.14,3.47,1,1,0,0,0,1,1.12h0.94Zm1-3.62,0.08-.13h0.24l6.07,0h4.73l13.63,0,0.29,0c0.25,0.53.48,1.08,0.72,1.68H40.72A7.85,7.85,0,0,1,41.39,49.68Z"/><path class="cls-2" d="M64.22,73.57c-2.43-1.46-5-2.78-7.44-4.06-1.6-.83-3.25-1.69-4.84-2.57A43.59,43.59,0,0,1,47.32,64h0c2.4,0,9.74,0,12.13,0h1.09L58,65.91a1,1,0,0,0-.08,1.55L58,67.56a1.7,1.7,0,0,0,.44.34l0.34,0.18c2,1,4,2.07,6,3.08a1.52,1.52,0,0,0,.68.15,1.72,1.72,0,0,0,1-.31A31.27,31.27,0,0,0,74.4,63,14.86,14.86,0,0,0,76,59.63a18,18,0,0,0-.27-11.74q-0.12-.33-0.25-0.65C73.41,42,68.59,38.4,65.15,36.13c-2.49-1.64-5.14-3-7.7-4.39-1.27-.67-2.54-1.34-3.79-2l-3.77-2.13h0.53l2.38,0c1.72,0,5,0,7.49-.13a5.26,5.26,0,0,0-1.13,1,1.54,1.54,0,0,0-.4,1.17h0a1.55,1.55,0,0,0,1,1.21q2.18,1.09,4.38,2.14a4.11,4.11,0,0,0,1.78.47,3.69,3.69,0,0,0,2.39-1,22.8,22.8,0,0,0,8.45-16.94,4.35,4.35,0,0,0-2.07-4.09,4.47,4.47,0,0,0-4.44-.32,4.81,4.81,0,0,0-2.59,3.77H64.18l-23.85,0,0-.26a4.61,4.61,0,0,0-4.86-4,4.52,4.52,0,0,0-4.23,4.65,22.35,22.35,0,0,0,3.72,11.93,27.72,27.72,0,0,0,9,8.16c2.88,1.71,5.53,3.12,8.1,4.32l2.15,1c1.41,0.64,2.86,1.31,4.26,2l0.35,0.17c1.17,0.55,2,1,2.53,1.28H47a26.8,26.8,0,0,1,2.38-1.41,1,1,0,0,0,.53-0.86,1,1,0,0,0-.49-0.89h0c-1.3-.79-2.66-1.53-4-2.24-0.82-.44-1.64-0.89-2.44-1.34-2.7-1.56-5.75,2.61-7.21,4.61l-0.29.4a20.44,20.44,0,0,0-4.39,12.43c0.19,9.58,9.15,15.88,13,18.14,2.95,1.73,6,3.39,8.95,5,1.58,0.86,3.17,1.72,4.74,2.6,0.78,0.43,1.5.88,2.19,1.35-1.23-.08-4-0.25-5.3-0.28s-4.56-.11-6.6-0.23c0.49-.39,1-0.75,1.18-0.89a1,1,0,0,0,.18-1.82h0l-1.77-1c-1.35-.76-2.63-1.48-4-2.34a2.2,2.2,0,0,0-2.83.2,28.17,28.17,0,0,0-6.15,6.68,21.53,21.53,0,0,0-3.56,9.53,5.41,5.41,0,0,0,2.14,5.11,4,4,0,0,0,2.35.73,4.63,4.63,0,0,0,4.54-4.07l0-.23c3.83,0,7.88.22,11.8,0.42C56.29,93.82,63.64,94,67.89,94a4.52,4.52,0,0,0,3.76,3.42,4.48,4.48,0,0,0,.65,0,4.61,4.61,0,0,0,4-2.34A5.84,5.84,0,0,0,76.69,91C75.38,83.61,71.19,77.75,64.22,73.57ZM74.56,94.16a2.58,2.58,0,0,1-2.61,1.32,2.5,2.5,0,0,1-2.14-2c0-.16-0.05-0.31-0.08-0.46a1.17,1.17,0,0,0-1.16-1H66.1c-1.33,0-2.7,0-2.7,0-3.72,0-7.58-.23-11.32-0.42-4.25-.21-8.64-0.42-12.78-0.42a1,1,0,0,0-1,.86l-0.15,1.08a2.68,2.68,0,0,1-2.45,2.37,2.65,2.65,0,0,1-2.67-2.92,19.36,19.36,0,0,1,3.31-9.35A26.23,26.23,0,0,1,42.1,77a1.51,1.51,0,0,1,.27-0.18,0.74,0.74,0,0,1,.25.12c1.43,0.89,2.72,1.62,4.1,2.39l0.37,0.21-0.29.23c-1.72,1.37-2.16,1.76-1.93,2.51s0.31,1,9.79,1.23l1.23,0,6.2,0.2h0.73A1,1,0,0,0,63.48,82a26.47,26.47,0,0,0-4.7-3.27C57.2,77.82,55.61,77,54,76.09c-2.94-1.59-6-3.24-8.89-5-3.56-2.09-11.84-7.88-12-16.46a18.44,18.44,0,0,1,4-11.19l0.31-.42c2.5-3.41,3.73-4.13,4.32-4.13A0.56,0.56,0,0,1,42,39c0.82,0.47,1.65.92,2.48,1.37s1.63,0.88,2.44,1.34a27.19,27.19,0,0,0-3.41,2.43A1.07,1.07,0,0,0,44.24,46H62.32L63,46h0.3a1,1,0,0,0,.9-0.63l0.12-.32c0.54-1.38-1.16-2.47-4.69-4.11l-0.3-.14c-1.43-.72-2.9-1.39-4.33-2l-2.14-1c-2.51-1.17-5.11-2.56-7.93-4.23A25.75,25.75,0,0,1,36.59,26a20.39,20.39,0,0,1-3.38-10.88,2.49,2.49,0,0,1,2.37-2.59,2.57,2.57,0,0,1,2.73,2.26c0,0.23.05,0.46,0.08,0.71l0,0.37a1,1,0,0,0,1,.9l22.31,0h7A0.77,0.77,0,0,0,69.47,16c0-.32.07-0.63,0.1-0.94a2.86,2.86,0,0,1,1.51-2.36,2.51,2.51,0,0,1,2.49.21,2.38,2.38,0,0,1,1.15,2.3A20.61,20.61,0,0,1,67,30.77a1.46,1.46,0,0,1-2,.3c-1.26-.6-2.51-1.21-3.79-1.85l0.38-.26,0.32-.22c0.83-.59,1.68-1.21,2.49-1.91a0.81,0.81,0,0,0-.53-1.43l-11.06.13-2.42,0c-0.51,0-3,0-4.25,0a1,1,0,0,0-1,.73,1,1,0,0,0,.46,1.13c2.33,1.35,4.72,2.71,7.1,4,1.27,0.71,2.55,1.39,3.84,2.06C59,34.84,61.64,36.21,64,37.8c3.22,2.12,7.72,5.49,9.62,10.19,0.08,0.19.15,0.38,0.22,0.58A16,16,0,0,1,74.15,59a12.85,12.85,0,0,1-1.42,3,29.06,29.06,0,0,1-7.26,7.3c-1.7-.86-3.4-1.73-5.09-2.6l3.52-2.55A1,1,0,0,0,64.27,63l-0.05-.21a1,1,0,0,0-.93-0.76H63l-0.69,0H59.49c-2.39,0-9.72,0-12.11,0h-1.1c-1.26,0-2.88-.25-3.22.42a0.71,0.71,0,0,0,.16,1c1,0.76,2,1.54,3,2.27a45.84,45.84,0,0,0,4.8,3c1.62,0.89,3.28,1.76,4.89,2.59,2.44,1.26,5,2.57,7.33,4,6.45,3.87,10.33,9.28,11.53,16.06A4,4,0,0,1,74.56,94.16Z"/><path class="cls-2" d="M65.07,85.17c-0.65,0-1.27-.05-1.25,0-4.41-.18-18.1-0.75-20-0.76-0.12,0-1.63-.19-2.21.77-0.37.62-.78,1.22-1.26,1.91l-0.67,1a1,1,0,0,0,.78,1.56l0.5,0,0.78,0c3.2,0,6.68.21,10,.41s6.62,0.4,9.78.41l4.55,0h1.18a1.3,1.3,0,0,0,1.21-1.77,15.67,15.67,0,0,0-1.16-2.27A2.81,2.81,0,0,0,65.07,85.17Zm0.82,3.32c-3.32,0-10.5-.21-14-0.42-3.18-.19-6.46-0.39-9.54-0.42,0.3-.44.59-0.88,0.87-1.33h0a4.63,4.63,0,0,0,.55,0c1.94,0,17,.88,20.78.81a1.33,1.33,0,0,1,1.18.65c0.12,0.21.22,0.43,0.33,0.65H65.89Z"/><path class="cls-2" d="M67.71,54.6H39.48A1,1,0,0,0,38.56,56L39,57c0.34,0.87.67,1.69,1.07,2.49A2.07,2.07,0,0,0,42,60.3l13.48,0H67a1.48,1.48,0,0,0,1.26-.72l0.24-.41a10.1,10.1,0,0,0,1.14-3.47,1,1,0,0,0-1-1.12H67.71Zm-1,3.62-0.08.13H66.4l-6.07,0H55.6L42,58.3l-0.29,0C41.43,57.75,41.2,57.2,41,56.6H67.39A7.85,7.85,0,0,1,66.72,58.22Z"/></svg>