<svg xmlns="http://www.w3.org/2000/svg" viewBox="0 0 108 108"><defs><style>.cls-1{fill:#fff}</style></defs><g id="Layer_5" data-name="Layer 5"><path class="cls-1" d="M54 63.5a9.5 9.5 0 1 1 9.5-9.5 9.51 9.51 0 0 1-9.5 9.5zm0-18a8.5 8.5 0 1 0 8.5 8.5 8.51 8.51 0 0 0-8.5-8.5z"/><path class="cls-1" d="M42.72 53.12A10.2 10.2 0 0 1 43 51.5a.5.5 0 1 1 1 .22 9.81 9.81 0 0 0-.22 1.44.52.52 0 0 1-.54.46.51.51 0 0 1-.52-.5zm0 2a.5.5 0 0 1 1 0 10.37 10.37 0 0 0 .28 1.42.5.5 0 0 1-1 .24 10.78 10.78 0 0 1-.28-1.57.13.13 0 0 1 .02-.06zm.84-5.48a.71.71 0 0 1 0-.2 13.79 13.79 0 0 1 .75-1.42.5.5 0 1 1 .85.53 10 10 0 0 0-.68 1.29.49.49 0 0 1-.66.26.52.52 0 0 1-.24-.43zm.12 8.91a.5.5 0 0 1 .95-.22 12.27 12.27 0 0 0 .71 1.28.5.5 0 0 1-.14.69.51.51 0 0 1-.7-.15 11.79 11.79 0 0 1-.78-1.39.52.52 0 0 1-.02-.18zm1.83-11.89a.46.46 0 0 1 .13-.33 10 10 0 0 1 1.16-1.1.5.5 0 0 1 .63.77 11.1 11.1 0 0 0-1.06 1 .5.5 0 0 1-.86-.34zm.18 14.81a.48.48 0 0 1 .16-.36.5.5 0 0 1 .7 0 11.22 11.22 0 0 0 1.09 1 .5.5 0 0 1-.62.79 12.1 12.1 0 0 1-1.19-1.07.52.52 0 0 1-.12-.33zm2.61-17a.51.51 0 0 1 .26-.44A11.31 11.31 0 0 1 50 43.4a.5.5 0 0 1 .64.3.5.5 0 0 1-.29.64 9.39 9.39 0 0 0-1.33.61.51.51 0 0 1-.68-.2.53.53 0 0 1-.02-.24zm.25 19.11a.59.59 0 0 1 0-.23.52.52 0 0 1 .68-.22 9.3 9.3 0 0 0 1.34.57.5.5 0 0 1-.33.95 10.49 10.49 0 0 1-1.47-.63.49.49 0 0 1-.2-.4zm3.11-20.27a.51.51 0 0 1 .42-.5 12.05 12.05 0 0 1 1.59-.15.5.5 0 0 1 .51.49.49.49 0 0 1-.48.5 10.16 10.16 0 0 0-1.46.14.49.49 0 0 1-.57-.41.25.25 0 0 1 .01-.03zM52 64.69v-.07a.5.5 0 0 1 .57-.42 11.51 11.51 0 0 0 1.45.1.51.51 0 0 1 .52.5.48.48 0 0 1-.47.5H54a11.9 11.9 0 0 1-1.59-.11.51.51 0 0 1-.41-.5zm3.27-21.35v-.08a.5.5 0 0 1 .58-.41 11.62 11.62 0 0 1 1.55.36.51.51 0 0 1 .33.63.51.51 0 0 1-.63.33 9.78 9.78 0 0 0-1.42-.34.5.5 0 0 1-.45-.49zm.32 21.26a.49.49 0 0 1 .41-.49 10.53 10.53 0 0 0 1.41-.38.5.5 0 1 1 .32.94 10.32 10.32 0 0 1-1.54.42.51.51 0 0 1-.59-.4s-.05-.06-.05-.09zm3.01-20.12a.46.46 0 0 1 .06-.23.5.5 0 0 1 .68-.21 12.25 12.25 0 0 1 1.35.86.5.5 0 0 1-.6.81 10.69 10.69 0 0 0-1.23-.79.49.49 0 0 1-.26-.44zm.28 18.87a.5.5 0 0 1 .25-.43 9.89 9.89 0 0 0 1.21-.82.5.5 0 1 1 .61.79 11 11 0 0 1-1.32.9.51.51 0 0 1-.63-.19.45.45 0 0 1-.12-.25zm2.53-16.69a.5.5 0 0 1 .86-.34 12.26 12.26 0 0 1 1 1.25.5.5 0 0 1-.83.57 9.88 9.88 0 0 0-.9-1.14.48.48 0 0 1-.13-.34zm.21 14.43a.45.45 0 0 1 .13-.32 9.85 9.85 0 0 0 .87-1.17.5.5 0 0 1 .84.55 10.58 10.58 0 0 1-1 1.27.51.51 0 0 1-.71 0 .52.52 0 0 1-.13-.33zm1.74-11.46a.51.51 0 0 1 .3-.46.5.5 0 0 1 .66.26 11.16 11.16 0 0 1 .54 1.5.51.51 0 0 1-.35.62.5.5 0 0 1-.61-.35 9.78 9.78 0 0 0-.5-1.37.45.45 0 0 1-.04-.2zm.13 8.44a.63.63 0 0 1 0-.19 9.84 9.84 0 0 0 .51-1.39.49.49 0 0 1 .6-.36.51.51 0 0 1 .37.6 11.88 11.88 0 0 1-.5 1.53.5.5 0 0 1-1-.19zm.75-5a.51.51 0 0 1 .46-.5.5.5 0 0 1 .54.46 7.79 7.79 0 0 1 0 1v.63a.49.49 0 0 1-.52.47.47.47 0 0 1-.47-.53v-.59a8.44 8.44 0 0 0 0-.87z"/><path class="cls-1" d="M35.5 54a18.5 18.5 0 1 1 34.28 9.66.5.5 0 0 1-.85-.52 17.5 17.5 0 1 0-6.65 6.28.5.5 0 0 1 .68.21.5.5 0 0 1-.21.67A18.5 18.5 0 0 1 35.5 54z"/><path class="cls-1" d="M26.79 48.4a.41.41 0 0 1 0-.11 27.51 27.51 0 1 1 .27 12.55.48.48 0 0 1 .36-.6.5.5 0 0 1 .61.36 26.5 26.5 0 1 0-.26-12.1.51.51 0 0 1-.59.39.5.5 0 0 1-.39-.49z"/><path class="cls-1" d="M17.5 54a36.5 36.5 0 0 1 57-30.19.49.49 0 0 1 .13.69.5.5 0 0 1-.69.14 35.5 35.5 0 1 0 9.48 9.52.51.51 0 0 1 .14-.7.5.5 0 0 1 .69.14A36.5 36.5 0 1 1 17.5 54z"/><circle class="cls-1" cx="66.6" cy="66.76" r="2.27"/><circle class="cls-1" cx="79.66" cy="28.54" r="4.26"/><circle class="cls-1" cx="27.12" cy="54.06" r="3.82"/></g></svg>