<?xml version="1.0" encoding="utf-8"?>
<!-- Generator: Adobe Illustrator 17.1.0, SVG Export Plug-In . SVG Version: 6.00 Build 0)  -->
<!DOCTYPE svg PUBLIC "-//W3C//DTD SVG 1.1//EN" "http://www.w3.org/Graphics/SVG/1.1/DTD/svg11.dtd">
<svg version="1.1" id="Layer_1" xmlns="http://www.w3.org/2000/svg" xmlns:xlink="http://www.w3.org/1999/xlink" x="0px" y="0px"
	 viewBox="0 0 216 216" enable-background="new 0 0 216 216" xml:space="preserve">
<g>
	<path fill="#FFFFFF" d="M142.106,108c0-3.377-7.468-5.74-17.247-6.977c1.528-1.968,2.903-3.874,4.057-5.662
		c3.819-5.922,4.894-9.785,3.201-11.479c-0.518-0.516-1.244-0.778-2.166-0.778c-3.036,0-8.539,3.036-14.976,8.03
		c-1.237-9.776-3.599-17.243-6.976-17.243c-3.376,0-5.738,7.466-6.975,17.243c-6.437-4.995-11.941-8.03-14.979-8.03
		c-0.919,0-1.647,0.261-2.163,0.777c-1.696,1.695-0.619,5.558,3.201,11.479c1.153,1.788,2.528,3.694,4.056,5.663
		c-9.779,1.236-17.247,3.599-17.247,6.977s7.469,5.74,17.247,6.977c-1.527,1.968-2.903,3.874-4.056,5.661
		c-3.82,5.923-4.897,9.783-3.201,11.479c0.516,0.517,1.244,0.778,2.165,0.778c3.036,0,8.54-3.036,14.978-8.031
		c1.237,9.776,3.599,17.242,6.975,17.242c3.377,0,5.739-7.466,6.976-17.241c6.438,4.995,11.94,8.03,14.976,8.03
		c0.922,0,1.648-0.262,2.163-0.777c1.696-1.694,0.621-5.557-3.198-11.478c-1.154-1.788-2.529-3.695-4.057-5.663
		C134.638,113.74,142.106,111.377,142.106,108z M129.951,84.678c0.488,0,0.841,0.107,1.053,0.317
		c0.763,0.764,0.328,3.714-3.412,9.513c-1.276,1.979-2.813,4.1-4.554,6.301c-2.336-0.255-4.779-0.45-7.267-0.581
		c-0.131-2.49-0.326-4.935-0.582-7.273C122.077,87.503,127.434,84.678,129.951,84.678z M114.403,108c0,0.896-0.01,1.77-0.024,2.634
		c-0.61,0.631-1.224,1.263-1.854,1.893c-0.637,0.637-1.265,1.248-1.89,1.854c-0.865,0.014-1.74,0.024-2.636,0.024
		c-0.896,0-1.771-0.01-2.636-0.024c-0.626-0.605-1.253-1.217-1.89-1.854c-0.629-0.629-1.241-1.26-1.851-1.89
		c-0.014-0.865-0.024-1.74-0.024-2.637c0-0.896,0.01-1.772,0.024-2.637c0.61-0.63,1.222-1.261,1.851-1.89
		c0.636-0.636,1.263-1.247,1.888-1.851c0.866-0.014,1.742-0.024,2.638-0.024c0.897,0,1.773,0.01,2.639,0.024
		c0.625,0.605,1.251,1.215,1.887,1.851c0.63,0.63,1.243,1.261,1.854,1.893C114.393,106.23,114.403,107.104,114.403,108z
		 M113.64,102.359c-0.232-0.232-0.464-0.454-0.696-0.683c0.449,0.014,0.892,0.031,1.332,0.049c0.018,0.44,0.034,0.884,0.049,1.333
		C114.094,102.826,113.872,102.592,113.64,102.359z M111.288,100.06c-0.71-0.68-1.417-1.346-2.122-1.996
		c1.582-1.428,3.112-2.747,4.581-3.95c0.19,1.888,0.344,3.905,0.455,6.039C113.234,100.112,112.262,100.082,111.288,100.06z
		 M108.963,100.028c-0.322-0.002-0.643-0.005-0.964-0.005c-0.321,0-0.642,0.003-0.964,0.005c0.321-0.301,0.647-0.615,0.964-0.908
		C108.317,99.413,108.643,99.727,108.963,100.028z M104.71,100.06c-0.973,0.022-1.944,0.052-2.912,0.092
		c0.111-2.134,0.265-4.15,0.455-6.038c1.468,1.203,2.998,2.522,4.579,3.949C106.127,98.714,105.42,99.38,104.71,100.06z
		 M103.055,101.676c-0.232,0.229-0.464,0.451-0.696,0.683c-0.232,0.232-0.453,0.464-0.682,0.697
		c0.014-0.449,0.031-0.892,0.049-1.331C102.164,101.707,102.607,101.691,103.055,101.676z M100.061,104.707
		c-0.679,0.708-1.339,1.415-1.991,2.121c-1.393-1.546-2.708-3.075-3.938-4.577c1.883-0.189,3.894-0.342,6.021-0.453
		C100.113,102.764,100.082,103.735,100.061,104.707z M100.028,107.04c-0.002,0.32-0.005,0.64-0.005,0.959
		c0,0.319,0.003,0.639,0.005,0.959c-0.3-0.32-0.606-0.64-0.9-0.959C99.423,107.68,99.729,107.36,100.028,107.04z M100.061,111.292
		c0.022,0.972,0.052,1.944,0.092,2.911c-2.128-0.111-4.14-0.264-6.024-0.453c1.23-1.502,2.547-3.033,3.94-4.579
		C98.721,109.877,99.382,110.585,100.061,111.292z M101.677,112.943c0.229,0.232,0.45,0.465,0.682,0.696
		c0.233,0.233,0.466,0.455,0.699,0.685c-0.449-0.014-0.892-0.031-1.332-0.049C101.708,113.836,101.691,113.393,101.677,112.943z
		 M104.711,115.939c0.709,0.68,1.417,1.345,2.121,1.995c-1.581,1.427-3.111,2.746-4.579,3.949c-0.19-1.887-0.343-3.903-0.455-6.036
		C102.766,115.887,103.738,115.918,104.711,115.939z M107.036,115.971c0.321,0.002,0.643,0.005,0.963,0.005
		c0.321,0,0.642-0.003,0.963-0.005c-0.321,0.301-0.646,0.615-0.963,0.907C107.682,116.586,107.356,116.273,107.036,115.971z
		 M111.288,115.939c0.974-0.022,1.946-0.052,2.915-0.093c-0.111,2.134-0.265,4.15-0.455,6.038c-1.469-1.204-2.999-2.523-4.581-3.951
		C109.871,117.285,110.578,116.62,111.288,115.939z M112.941,114.325c0.233-0.23,0.466-0.452,0.699-0.685
		c0.233-0.233,0.454-0.466,0.685-0.699c-0.014,0.45-0.031,0.895-0.049,1.336C113.835,114.294,113.391,114.311,112.941,114.325z
		 M115.938,111.292c0.679-0.708,1.339-1.415,1.991-2.121c1.393,1.547,2.71,3.077,3.94,4.579c-1.883,0.189-3.895,0.343-6.023,0.453
		C115.886,113.236,115.917,112.264,115.938,111.292z M115.971,108.958c0.002-0.32,0.005-0.64,0.005-0.959
		c0-0.319-0.003-0.639-0.005-0.959c0.3,0.32,0.606,0.64,0.9,0.959C116.576,108.319,116.27,108.639,115.971,108.958z
		 M115.938,104.707c-0.022-0.972-0.052-1.943-0.092-2.909c2.128,0.111,4.138,0.264,6.022,0.453
		c-1.229,1.502-2.545,3.031-3.938,4.577C117.278,106.122,116.617,105.415,115.938,104.707z M107.999,75.465
		c1.882,0,4.287,6.14,5.546,16.804c-1.798,1.445-3.655,3.029-5.546,4.735c-1.89-1.706-3.746-3.289-5.544-4.733
		C103.714,81.606,106.117,75.465,107.999,75.465z M88.406,94.507c-3.74-5.798-4.176-8.747-3.411-9.512
		c0.21-0.21,0.563-0.317,1.05-0.317c2.52,0,7.878,2.825,14.765,8.276c-0.256,2.338-0.451,4.784-0.582,7.274
		c-2.487,0.131-4.93,0.326-7.266,0.581C91.22,98.607,89.682,96.486,88.406,94.507z M75.465,108c0-1.882,6.14-4.285,16.803-5.544
		c1.456,1.811,3.044,3.668,4.738,5.544c-1.695,1.877-3.283,3.735-4.739,5.546C81.605,112.286,75.465,109.882,75.465,108z
		 M86.046,131.321c-0.487,0-0.842-0.107-1.052-0.318c-0.765-0.764-0.329-3.712,3.411-9.511c1.276-1.979,2.813-4.1,4.554-6.301
		c2.337,0.255,4.78,0.45,7.267,0.582c0.131,2.489,0.326,4.934,0.582,7.272C93.922,128.496,88.565,131.321,86.046,131.321z
		 M107.999,140.533c-1.882,0-4.285-6.141-5.544-16.805c1.798-1.445,3.654-3.028,5.544-4.733c1.891,1.706,3.748,3.29,5.546,4.735
		C112.286,134.393,109.881,140.533,107.999,140.533z M127.592,121.492c3.74,5.799,4.175,8.747,3.41,9.512
		c-0.21,0.21-0.562,0.317-1.051,0.317c-2.517,0-7.874-2.825-14.762-8.276c0.256-2.338,0.451-4.783,0.582-7.273
		c2.487-0.131,4.93-0.326,7.266-0.582C124.779,117.392,126.315,119.513,127.592,121.492z M123.731,113.546
		c-1.456-1.812-3.045-3.669-4.739-5.546c1.694-1.877,3.282-3.733,4.738-5.544c10.663,1.259,16.803,3.662,16.803,5.544
		C140.533,109.882,134.394,112.286,123.731,113.546z"/>
	<path fill="#FFFFFF" d="M107.999,104.646c-1.849,0-3.353,1.504-3.353,3.353c0,1.848,1.504,3.353,3.353,3.353
		c1.85,0,3.353-1.505,3.353-3.353C111.352,106.151,109.849,104.646,107.999,104.646z M107.999,109.779
		c-0.981,0-1.779-0.799-1.779-1.78s0.797-1.778,1.779-1.778s1.781,0.797,1.781,1.778S108.98,109.779,107.999,109.779z"/>
</g>
</svg>
