<svg id="Layer_1" data-name="Layer 1" xmlns="http://www.w3.org/2000/svg" viewBox="0 0 64.76 67.05"><defs><style>.cls-1{fill:#fff;}</style></defs><title>Icon_RH_Science_DynamoGenerator_RGB_White</title><path class="cls-1" d="M35.38 64.66a.5.5 0 0 0 .5-.5v-9a.5.5 0 0 0-1 0v9a.5.5 0 0 0 .5.5zM60.5 32.73a.5.5 0 0 0-.65.27l-2.35 5.71-2.88 2.36a.5.5 0 1 0 .63.77l3-2.44a.5.5 0 0 0 .14-.19l2.45-5.82a.5.5 0 0 0-.34-.66zM31.87 6.91a.49.49 0 0 0 .26-.07l4.83-2.91 3.85.3a.51.51 0 0 0 .54-.46.5.5 0 0 0-.46-.54l-4-.32a.49.49 0 0 0-.3.07l-5 3a.5.5 0 0 0 .26.93zm31.52 12.2a1 1 0 0 0-.14-.4L56.89 8.27a1 1 0 0 0-.29-.31l-10.36-7a1 1 0 0 0-.48-.17L36.23.04a1 1 0 0 0-.6.14l-9.54 5.71a1 1 0 0 0-.41.49l-4.61 11.57a1 1 0 0 0-.06.51l.1.73a50.55 50.55 0 0 0-9.45-2.23l-10.5-1.69a1 1 0 0 0-1.16 1V33a1 1 0 0 0 1 1l6.16.27c.25 0 3.4.22 7.17.22a52.54 52.54 0 0 0 9.83-.74l6 9.61a1 1 0 0 0 .43.38l2.36 1.08v8l-1.67.39a.75.75 0 0 0-.56.58l-2.34 11.03a.75.75 0 0 0 .63.9L37.13 67a.74.74 0 0 0 .25 0h.05l15.81-1.1a.75.75 0 0 0 .68-.89l-2.31-11.6a.75.75 0 0 0-.68-.6l-2-.15v-4.57l3.25-.26a1 1 0 0 0 .56-.22l7.49-6.12a1 1 0 0 0 .29-.39l4.16-9.91a1 1 0 0 0 .07-.5zM2 17.43l9.33 1.5a46.64 46.64 0 0 1 10.1 2.5l.37 2.6L2 22.12zm0 5.69l20 1.93.44 3.07L2 26.66zm5.23 9.15L2 32.04v-4.37l20.5 1.47.36 2.49a1 1 0 0 0 .11.31c-5.68.97-15.61.34-15.74.33zm29.4 33.13l-6.61-1 2.06-9.81 4.55-1.1zm.58-13.58l-2.77.67v-7l1.78.82v4a.5.5 0 0 0 1 0v-3.53l1 .44v4.63l-.76-.06a.87.87 0 0 0-.25.03zm13 2.44l2 10.25-14.08.98V53.36zm-10.52-2.29v-4.05l1.45.66a1 1 0 0 0 .42.09h.08l5.81-.46v4.33zM58.77 40.1l-7.05 5.77-10 .79-10-4.61-6.87-10.92-1.83-12.64 4.39-11 9-5.41 8.95.71 9.94 6.7 6.13 10.07 1.31 11.1zm-8.18-9.61l5.43 7.37a.5.5 0 1 0 .8-.59l-5.72-7.76.09-.2a9.59 9.59 0 0 0 .66-2.61l7.74 3.3a.5.5 0 1 0 .39-.92l-8.07-3.44a11.13 11.13 0 0 0-.37-2.89l7.28-2.11a.52.52 0 1 0-.28-1l-7.29 2.11a11 11 0 0 0-1.51-2.86l4.22-7a.502.502 0 1 0-.86-.52l-4 6.68a9 9 0 0 0-2.81-2.11l-.62-10a.5.5 0 0 0-1 .06l.6 9.58a7.1 7.1 0 0 0-2.09-.32h-.41l-4.9-10.05a.5.5 0 1 0-.9.43l4.74 9.85c-.15 0-.3.05-.45.1a6.62 6.62 0 0 0-2.47 1.38l-8.78-7.28a.5.5 0 1 0-.64.77l8.7 7.21a8.54 8.54 0 0 0-1.78 3.48l-10.23-2.18a.51.51 0 0 0-.21 1l10.25 2.17a10.85 10.85 0 0 0 .28 4.46l-9 3.05a.506.506 0 0 0 .16 1h.16l9-3a10.75 10.75 0 0 0 2.46 3.84l-6.3 7.52a.5.5 0 1 0 .77.64l6.28-7.5a8.09 8.09 0 0 0 3.53 1.68l-2.13 9.31a.5.5 0 0 0 .38.6h.11a.5.5 0 0 0 .49-.39l2.16-9.43h.3a6.4 6.4 0 0 0 3-.75l2.07 9.48a.5.5 0 0 0 .49.39h.19a.5.5 0 0 0 .38-.59l-2.15-9.82a7.33 7.33 0 0 0 1.86-2.14zm-.92-2.93l-1.93-2.62 2.18.93a8 8 0 0 1-.25 1.73zm.21-2.79l-2.15-.92 1.9-.55a9.29 9.29 0 0 1 .25 1.51zm-1.28-3.89a9.09 9.09 0 0 1 .72 1.52l-2 .57zm-.62-.9l-1.33 2.2-.23-3.69a7.78 7.78 0 0 1 1.56 1.49zm-2.6-2.12l.21 3.42-1.87-3.9a5.39 5.39 0 0 1 1.66.48zm-3.55-.37a4.64 4.64 0 0 1 .77-.15l2.21 4.6-4.46-3.69a4.65 4.65 0 0 1 1.48-.76zm-2.21 1.44l4.75 3.93-6.12-1.31a6.4 6.4 0 0 1 1.37-2.6zm-1.56 3.61l6.31 1.35-6.09 2.05a8.94 8.94 0 0 1-.23-3.38zm.54 4.35l6.13-2.07-4.23 5.1a8.76 8.76 0 0 1-1.91-3.01zm5.3 4.94a6.07 6.07 0 0 1-2.68-1.26l4.08-4.87zm2.17-.1a4.62 4.62 0 0 1-1.16.18l1.34-5.84 1.1 5a4.63 4.63 0 0 1-1.28.68zm2.14-1.35l-1-4.41 2 2.76a6 6 0 0 1-1.01 1.67z"/></svg>