<svg id="Layer_1" data-name="Layer 1" xmlns="http://www.w3.org/2000/svg" viewBox="0 0 108 108"><defs><style>.cls-1{fill:none;}.cls-2{fill:#fff;}</style></defs><title>Icon_RH_Object_Space-Rover_RGB_White</title><polygon class="cls-1" points="71.44 43.29 65.3 43.24 65.45 45.7 71.58 45.78 71.44 43.29"/><polygon class="cls-1" points="64.45 43.23 60.05 43.19 59.71 45.63 64.6 45.69 64.45 43.23"/><polygon class="cls-1" points="59.59 46.47 59.3 48.47 64.77 48.54 64.65 46.54 59.59 46.47"/><path class="cls-1" d="M39.36,37.53l2.25-2.81a46.91,46.91,0,0,0-9-4.72A27.33,27.33,0,0,0,39.36,37.53Z"/><polygon class="cls-1" points="71.63 46.62 65.5 46.55 65.61 48.55 71.75 48.63 71.63 46.62"/><path class="cls-1" d="M52.32,44.93c-0.64-.08-1.27-0.18-1.89-0.3A29.3,29.3,0,0,1,30.85,31,12.89,12.89,0,0,0,52.32,44.93Z"/><polygon class="cls-1" points="78 45.86 77.85 43.35 72.28 43.3 72.43 45.79 78 45.86"/><circle class="cls-1" cx="47.17" cy="29.35" r="1.25"/><polygon class="cls-1" points="72.59 48.63 78.18 48.7 78.06 46.7 72.48 46.63 72.59 48.63"/><path class="cls-1" d="M50.81,42.67c0.4,0.08.81,0.14,1.21,0.2a57.84,57.84,0,0,0-8.74-7L41,38.69A27.5,27.5,0,0,0,50.81,42.67Z"/><path class="cls-1" d="M68.58,67.33a5.79,5.79,0,1,0,5.79,5.79A5.79,5.79,0,0,0,68.58,67.33Zm0,9.59a3.8,3.8,0,1,1,3.8-3.8A3.8,3.8,0,0,1,68.58,76.91Z"/><path class="cls-1" d="M30.17,72.11h2.18a7.78,7.78,0,0,1,15.43,0H60.86a7.78,7.78,0,0,1,15.43,0h2.18V59.57H30.17V72.11Z"/><rect class="cls-1" x="30.17" y="55.26" width="48.31" height="3.31"/><circle class="cls-1" cx="40.07" cy="73.11" r="2.8"/><circle class="cls-1" cx="68.57" cy="73.11" r="2.8"/><path class="cls-1" d="M40.07,67.33a5.79,5.79,0,1,0,5.79,5.79A5.79,5.79,0,0,0,40.07,67.33Zm0,9.59a3.8,3.8,0,1,1,3.8-3.8A3.8,3.8,0,0,1,40.07,76.91Z"/><path class="cls-2" d="M79.47,53.26H69.14v-3l9.93,0.12a0.84,0.84,0,0,0,.85-0.9l-0.44-7a0.84,0.84,0,0,0-.84-0.79L59,41.49a0.84,0.84,0,0,0-.85.84h0a0.92,0.92,0,0,0,0,.11l-0.93,6.49a1,1,0,0,0,0,.32v0a0.84,0.84,0,0,0,.83.85l9.08,0.11v3H35.75V50A14.84,14.84,0,0,0,55,44.64v0a1,1,0,0,0,.08-1.33,54.06,54.06,0,0,0-10.54-9.05l2.14-2.68a2.27,2.27,0,1,0-1.56-1.25l-2.25,2.82c-5.08-3.3-10-5.69-12-5.33a1,1,0,0,0-.67.47,1,1,0,0,0-.12.12l0,0a14.86,14.86,0,0,0,3.78,20.38,1,1,0,0,0-.06.3v4.17H29.17a1,1,0,0,0-1,1V73.11a1,1,0,0,0,1,1h3.18a7.78,7.78,0,0,0,15.43,0H60.86a7.78,7.78,0,0,0,15.43,0h3.18a1,1,0,0,0,1-1V54.26A1,1,0,0,0,79.47,53.26ZM47.17,28.1a1.25,1.25,0,1,1-1.25,1.25A1.25,1.25,0,0,1,47.17,28.1Zm31,20.61-5.59-.07-0.12-2,5.58,0.07Zm-0.33-5.35L78,45.86l-5.58-.07L72.28,43.3Zm-17.79-.16,4.4,0,0.14,2.46-4.89-.06ZM59.3,48.47l0.29-2,5.06,0.06,0.12,2Zm6-5.23,6.13,0.05,0.14,2.48-6.13-.08Zm0.31,5.31-0.12-2,6.13,0.08,0.12,2ZM43.29,35.81a57.84,57.84,0,0,1,8.74,7c-0.41-.06-0.82-0.12-1.21-0.2a27.5,27.5,0,0,1-9.82-4Zm-1.68-1.1-2.25,2.81A27.33,27.33,0,0,1,32.59,30,46.91,46.91,0,0,1,41.61,34.71ZM29.53,36.66A12.82,12.82,0,0,1,30.85,31,29.3,29.3,0,0,0,50.43,44.63c0.62,0.12,1.25.22,1.89,0.3A12.89,12.89,0,0,1,29.53,36.66ZM40.07,78.9a5.79,5.79,0,1,1,5.79-5.79A5.79,5.79,0,0,1,40.07,78.9Zm28.51,0a5.79,5.79,0,1,1,5.79-5.79A5.79,5.79,0,0,1,68.58,78.9Zm9.9-6.79H76.29a7.78,7.78,0,0,0-15.43,0H47.78a7.78,7.78,0,0,0-15.43,0H30.17V59.57H78.47V72.11Zm0-13.54H30.17V55.26H78.47v3.31Z"/><path class="cls-2" d="M40.07,69.31a3.8,3.8,0,1,0,3.8,3.8A3.8,3.8,0,0,0,40.07,69.31Zm0,6.6a2.8,2.8,0,1,1,2.8-2.8A2.8,2.8,0,0,1,40.07,75.91Z"/><path class="cls-2" d="M68.58,69.31a3.8,3.8,0,1,0,3.8,3.8A3.8,3.8,0,0,0,68.58,69.31Zm0,6.6a2.8,2.8,0,1,1,2.8-2.8A2.8,2.8,0,0,1,68.58,75.91Z"/></svg>