<svg id="Layer_1" data-name="Layer 1" xmlns="http://www.w3.org/2000/svg" viewBox="0 0 63 55.43"><defs><style>.cls-1{fill:#fff;}</style></defs><title>Icon_RH_Science_Quark_RGB_White</title><path class="cls-1" d="M19.67 43.09a1 1 0 0 0-1.37.37l-.5.87a1 1 0 0 0 1.73 1l.5-.87a1 1 0 0 0-.36-1.37zm-5-17a14.69 14.69 0 1 0 14.71 14.65 14.71 14.71 0 0 0-14.69-14.69zm10.83 6.86a.53.53 0 0 0 .29.09.47.47 0 0 0 .18 0 13.7 13.7 0 0 1 .9 1.5.49.49 0 0 0-.11.59.5.5 0 0 0 .44.27h.08a13.75 13.75 0 1 1-1.88-3.11.51.51 0 0 0 .1.66zm-1.12 1.66a3.29 3.29 0 0 0-4.43.6 1 1 0 0 0-.67-.27h-1a1 1 0 0 0 0 2h.91a3.28 3.28 0 0 0 0 .41 3.32 3.32 0 0 0 1.29 2.61 1 1 0 0 0-.08.09l-.5.87a1 1 0 0 0 1.73 1l.5-.87a1 1 0 0 0 .12-.4h.27a3.33 3.33 0 0 0 1.93-6zm-1.93 5a2.33 2.33 0 1 1 2.33-2.33 2.34 2.34 0 0 1-2.36 2.34zm7.16-6.66a.5.5 0 0 0-.21.68.52.52 0 0 0 .67.21.51.51 0 0 0 .21-.68.5.5 0 0 0-.67-.21zm-2.11-2.41a.5.5 0 0 0 .29-.91.5.5 0 0 0-.7.12.51.51 0 0 0 .13.7.47.47 0 0 0 .28.09zm1.72-2.46a.5.5 0 0 0 .41-.22.5.5 0 0 0-.82-.57.5.5 0 0 0 .12.7.52.52 0 0 0 .26.09zm-15 8.8h1a1 1 0 1 0 0-2h-1a1 1 0 0 0 0 2zM9.3 40.36l-.28-.48a3.32 3.32 0 0 0 1.27-2.6 3.28 3.28 0 0 0 0-.41h1a1 1 0 1 0 0-2h-1a1 1 0 0 0-.7.29 3.33 3.33 0 1 0-2.56 5.45h.17l.44.76a1 1 0 1 0 1.73-1zm-2.34-.75a2.33 2.33 0 1 1 2.33-2.33 2.34 2.34 0 0 1-2.33 2.34zm4.34 4.21l-.5-.87a1 1 0 0 0-1.73 1l.5.87a1 1 0 0 0 1.73-1zm6.36 2.75a1 1 0 0 0-1.37.38 3.2 3.2 0 0 0-3.18 0l-.31-.53a1 1 0 1 0-1.73 1l.5.87a1 1 0 0 0 .13.14 3.3 3.3 0 0 0-.34 1.43 3.335 3.335 0 0 0 6.67 0 3.29 3.29 0 0 0-.39-1.54 1 1 0 0 0 .38-.37 1 1 0 0 0-.37-1.38zm-3 5.63a2.33 2.33 0 1 1 2.33-2.33 2.34 2.34 0 0 1-2.3 2.33zM30.5 24.83a.5.5 0 0 0 .13.69.41.41 0 0 0 .28.09.48.48 0 0 0 .41-.21.5.5 0 0 0-.12-.7.51.51 0 0 0-.7.13zm14.49-7l-.49-.88a1 1 0 1 0-1.73 1l.5.87a1 1 0 0 0 1.73-1zM32.27 31.61a.5.5 0 0 0-.21.67.48.48 0 0 0 .44.27.45.45 0 0 0 .23 0 .5.5 0 1 0-.46-.89zm10.65-5.53a.51.51 0 0 0-.21.68.5.5 0 0 0 .44.27.47.47 0 0 0 .23-.06.5.5 0 0 0 .22-.67.51.51 0 0 0-.68-.22zM56.04 7.95a3.32 3.32 0 0 0-2.62 1.29 1 1 0 0 0-.76-.37h-1a1 1 0 0 0 0 2h1.08a3.27 3.27 0 0 0 0 .42 3.32 3.32 0 0 0 1.28 2.6l-.3.52a1 1 0 1 0 1.73 1l.47-.81h.16a3.335 3.335 0 1 0 0-6.67zm0 5.67a2.33 2.33 0 1 1 2.33-2.33 2.34 2.34 0 0 1-2.33 2.28zM48.31 0A14.65 14.65 0 0 0 34.5 19.74a.492.492 0 0 0-.48.86.47.47 0 0 0 .28.09.41.41 0 0 0 .44-.28A14.69 14.69 0 1 0 48.28.01zm0 28.38A13.69 13.69 0 1 1 62 14.7a13.71 13.71 0 0 1-13.69 13.69zm5.19-11.79a1 1 0 0 0-1.37.37l-.5.87a1 1 0 0 0 1.73 1l.5-.87a1 1 0 0 0-.36-1.37zm-10.52-2.23l-.32-.55a3.32 3.32 0 0 0 1.24-2.58 3.27 3.27 0 0 0 0-.41h.8a1 1 0 0 0 0-2h-1a1 1 0 0 0-.6.22 3.33 3.33 0 1 0-2.49 5.52h.21l.47.81a1 1 0 1 0 1.73-1zm-2.41-.79a2.33 2.33 0 1 1 2.33-2.34 2.34 2.34 0 0 1-2.32 2.34zm10.93 6.48a1 1 0 0 0-1.37.37l-.23.53a3.2 3.2 0 0 0-3.15 0l-.25-.53a1 1 0 0 0-1.73 1l.5.87a.92.92 0 0 0 .07.08 3.21 3.21 0 0 0 0 3 3.32 3.32 0 0 0 5.92-3 .94.94 0 0 0 .1-.11l.5-.87a1 1 0 0 0-.36-1.34zm-3.24 6.1a2.33 2.33 0 1 1 2.33-2.33 2.34 2.34 0 0 1-2.28 2.33zm-13.33 4.08a.5.5 0 0 0 .23.94.59.59 0 0 0 .23 0 .5.5 0 1 0-.46-.89zm-2.72-7.86a.49.49 0 0 0 .12.69.52.52 0 0 0 .29.09.49.49 0 0 0 .41-.21.5.5 0 1 0-.82-.57zm5.39 6.48a.5.5 0 0 0-.22.67.51.51 0 0 0 .45.27.54.54 0 0 0 .23-.06.5.5 0 0 0 .21-.67.49.49 0 0 0-.67-.21zm-.25-13.9a.5.5 0 0 0 .13.7.47.47 0 0 0 .28.09.49.49 0 0 0 .41-.22.5.5 0 0 0-.12-.69.51.51 0 0 0-.7.12zm-1.71 2.5a.5.5 0 0 0 .12.69.52.52 0 0 0 .29.09.51.51 0 0 0 .41-.21.5.5 0 0 0-.13-.7.49.49 0 0 0-.69.13zm12-6.62h1a1 1 0 0 0 0-2h-1a1 1 0 0 0 0 2zm-7.38 16.64a.5.5 0 0 0 .23.94.47.47 0 0 0 .23-.06.49.49 0 0 0 .21-.67.49.49 0 0 0-.67-.21z"/></svg>