<?xml version="1.0" encoding="utf-8"?>
<!-- Generator: Adobe Illustrator 17.1.0, SVG Export Plug-In . SVG Version: 6.00 Build 0)  -->
<!DOCTYPE svg PUBLIC "-//W3C//DTD SVG 1.1//EN" "http://www.w3.org/Graphics/SVG/1.1/DTD/svg11.dtd">
<svg version="1.1" id="Layer_1" xmlns="http://www.w3.org/2000/svg" xmlns:xlink="http://www.w3.org/1999/xlink" x="0px" y="0px"
	 viewBox="0 0 144 144" enable-background="new 0 0 144 144" xml:space="preserve">
<g>
	<g>
		<path d="M96.2,117.082c-0.356,0-0.708-0.153-0.953-0.449L73.435,90.116c-0.432-0.526-0.356-1.301,0.168-1.734l14.43-11.87
			c0.254-0.207,0.576-0.306,0.902-0.274c0.326,0.031,0.624,0.191,0.832,0.443l21.812,26.517c0.432,0.526,0.356,1.301-0.168,1.734
			l-14.43,11.869C96.752,116.99,96.475,117.082,96.2,117.082z M76.12,89.503l20.247,24.614l12.528-10.305L88.648,79.198
			L76.12,89.503z"/>
	</g>
	<g>
		<path d="M79.455,79.603c-0.178,0-0.354-0.076-0.475-0.224l-9.074-11.032c-0.105-0.126-0.154-0.289-0.138-0.451
			c0.017-0.163,0.096-0.312,0.222-0.416l7.831-6.44c0.261-0.216,0.649-0.179,0.866,0.084l9.074,11.031
			c0.105,0.126,0.154,0.289,0.138,0.451c-0.017,0.163-0.096,0.312-0.222,0.416l-7.831,6.441
			C79.731,79.557,79.593,79.603,79.455,79.603z M71.248,68.04l8.291,10.081l6.879-5.659l-8.291-10.08L71.248,68.04z"/>
	</g>
	<g>
		<path d="M55.185,67.767c-0.356,0-0.708-0.153-0.953-0.449L32.421,40.802c-0.207-0.252-0.307-0.577-0.274-0.901
			c0.031-0.325,0.191-0.625,0.444-0.832l14.431-11.87c0.523-0.432,1.3-0.356,1.733,0.169l21.812,26.517
			c0.207,0.253,0.307,0.577,0.274,0.901c-0.031,0.325-0.191,0.625-0.444,0.832L55.965,67.487
			C55.737,67.675,55.46,67.767,55.185,67.767z M35.105,40.188l20.247,24.614l12.529-10.305L47.634,29.883L35.105,40.188z"/>
	</g>
	<g>
		<path d="M65.09,91.743c-0.045,0-0.088-0.002-0.132-0.007c-0.325-0.035-0.623-0.198-0.827-0.452L51.286,75.32
			c-0.204-0.254-0.299-0.58-0.265-0.904c0.035-0.325,0.197-0.622,0.452-0.827L79.412,51.11c0.529-0.427,1.306-0.342,1.732,0.188
			l12.843,15.963c0.426,0.53,0.343,1.306-0.188,1.732L65.862,91.472C65.642,91.648,65.369,91.743,65.09,91.743z M53.977,74.736
			l11.3,14.045l26.017-20.935L79.996,53.801L53.977,74.736z"/>
	</g>
	<g>
		<path d="M91.746,67.331c-0.044,0-0.088-0.002-0.132-0.007c-0.325-0.035-0.623-0.198-0.827-0.452L80.65,54.273
			c-0.204-0.254-0.299-0.58-0.265-0.905c0.035-0.325,0.198-0.622,0.452-0.827l2.312-1.859c0.529-0.428,1.306-0.342,1.732,0.188
			l10.136,12.597c0.426,0.53,0.343,1.306-0.188,1.732l-2.312,1.86C92.298,67.236,92.025,67.331,91.746,67.331z M83.342,53.689
			l8.592,10.679l0.392-0.316l-8.592-10.679L83.342,53.689z"/>
	</g>
	<g>
		<path d="M61.281,92.22c-0.044,0-0.088-0.002-0.132-0.007c-0.325-0.035-0.623-0.198-0.827-0.452L50.184,79.163
			c-0.204-0.254-0.299-0.58-0.265-0.905c0.035-0.325,0.198-0.622,0.452-0.827l2.312-1.859c0.529-0.427,1.306-0.342,1.732,0.188
			l10.136,12.597c0.426,0.53,0.343,1.305-0.188,1.731l-2.31,1.86C61.833,92.125,61.561,92.22,61.281,92.22z M52.876,78.578
			l8.593,10.679l0.391-0.315l-8.592-10.679L52.876,78.578z"/>
	</g>
	<g>
		<path d="M51.82,88.633c-0.178,0-0.356-0.078-0.477-0.227c-0.214-0.263-0.176-0.651,0.088-0.866l4.51-3.68
			c0.262-0.215,0.652-0.176,0.867,0.088c0.214,0.263,0.176,0.651-0.088,0.866l-4.51,3.68C52.095,88.588,51.957,88.633,51.82,88.633z
			"/>
	</g>
	<g>
		<circle cx="51.76" cy="88.017" r="0.95"/>
	</g>
	<g>
		<path d="M79.763,96.486c-0.179,0-0.357-0.078-0.479-0.229c-0.214-0.265-0.173-0.652,0.093-0.866l14.295-11.533
			c0.262-0.213,0.651-0.173,0.865,0.093c0.214,0.265,0.173,0.652-0.093,0.866L80.149,96.35
			C80.036,96.442,79.899,96.486,79.763,96.486z"/>
	</g>
	<g>
		<path d="M85.36,103.039c-0.179,0-0.357-0.078-0.479-0.229c-0.214-0.265-0.173-0.652,0.091-0.866l14.294-11.533
			c0.265-0.213,0.653-0.173,0.866,0.093c0.214,0.265,0.173,0.652-0.091,0.866l-14.294,11.533
			C85.633,102.995,85.496,103.039,85.36,103.039z"/>
	</g>
	<g>
		<path d="M90.4,109.727c-0.179,0-0.357-0.078-0.479-0.229c-0.214-0.265-0.173-0.652,0.091-0.866l14.294-11.533
			c0.265-0.213,0.653-0.173,0.866,0.093c0.214,0.265,0.173,0.652-0.091,0.866L90.788,109.59
			C90.673,109.682,90.536,109.727,90.4,109.727z"/>
	</g>
	<g>
		<path d="M49.182,60.968c-0.179,0-0.357-0.078-0.479-0.229c-0.214-0.265-0.173-0.652,0.091-0.866l14.294-11.533
			c0.265-0.213,0.653-0.173,0.866,0.093c0.214,0.265,0.173,0.652-0.091,0.866L49.57,60.831
			C49.455,60.923,49.318,60.968,49.182,60.968z"/>
	</g>
	<g>
		<path d="M44.346,53.725c-0.179,0-0.357-0.078-0.479-0.229c-0.214-0.265-0.173-0.652,0.091-0.866l14.294-11.533
			c0.265-0.213,0.652-0.173,0.866,0.093c0.214,0.265,0.173,0.652-0.091,0.866L44.734,53.589
			C44.619,53.681,44.482,53.725,44.346,53.725z"/>
	</g>
	<g>
		<path d="M39.152,47.136c-0.179,0-0.357-0.078-0.479-0.229c-0.214-0.265-0.173-0.652,0.091-0.866l14.294-11.533
			c0.265-0.213,0.653-0.173,0.866,0.093c0.214,0.265,0.173,0.652-0.091,0.866L39.539,46.999
			C39.425,47.091,39.288,47.136,39.152,47.136z"/>
	</g>
	<g>
		<path d="M103.704,110.292c-0.174,0-0.346-0.073-0.469-0.216L81.141,84.159c-0.22-0.259-0.189-0.647,0.07-0.868
			c0.257-0.221,0.646-0.191,0.868,0.069l22.094,25.916c0.22,0.259,0.189,0.647-0.07,0.868
			C103.988,110.244,103.846,110.292,103.704,110.292z"/>
	</g>
	<g>
		<path d="M62.192,60.604c-0.174,0-0.346-0.073-0.469-0.216L39.628,34.471c-0.22-0.259-0.189-0.647,0.07-0.868
			c0.257-0.221,0.646-0.191,0.868,0.069l22.094,25.916c0.22,0.259,0.189,0.647-0.07,0.868
			C62.475,60.556,62.334,60.604,62.192,60.604z"/>
	</g>
	<g>
		<rect x="61.142" y="60.518" transform="matrix(0.6488 0.761 -0.761 0.6488 69.3532 -26.7699)" width="5.072" height="2.463"/>
	</g>
	<g>
		<rect x="77.619" y="80.728" transform="matrix(0.6488 0.761 -0.761 0.6488 90.5187 -32.2102)" width="5.072" height="2.463"/>
	</g>
</g>
</svg>
