<?xml version="1.0" encoding="utf-8"?>
<!-- Generator: Adobe Illustrator 17.1.0, SVG Export Plug-In . SVG Version: 6.00 Build 0)  -->
<!DOCTYPE svg PUBLIC "-//W3C//DTD SVG 1.1//EN" "http://www.w3.org/Graphics/SVG/1.1/DTD/svg11.dtd">
<svg version="1.1" id="Layer_1" xmlns="http://www.w3.org/2000/svg" xmlns:xlink="http://www.w3.org/1999/xlink" x="0px" y="0px"
	 viewBox="0 0 216 216" enable-background="new 0 0 216 216" xml:space="preserve">
<g>
	<path d="M136,132.916c-0.439,0-1,0.355-1,0.795V135h-2.544c-0.439,0-0.795,0.561-0.795,1c0,0.439,0.356,1,0.795,1h3.442
		c0.439,0,1.102,0.062,1.102-0.377v-2.912C137,133.271,136.439,132.916,136,132.916z"/>
	<path d="M121.866,80h5.825c0.437,0,0.792-0.562,0.792-1c0-0.438-0.355-1-0.792-1h-5.825c-0.438,0-0.796,0.562-0.796,1
		C121.07,79.438,121.428,80,121.866,80z"/>
	<path d="M110.216,80h5.826c0.438,0,0.793-0.562,0.793-1c0-0.438-0.354-1-0.793-1h-5.826c-0.437,0-0.792,0.562-0.792,1
		C109.424,79.438,109.779,80,110.216,80z"/>
	<path d="M98.568,80h5.824c0.439,0,0.795-0.562,0.795-1c0-0.438-0.355-1-0.795-1h-5.824c-0.439,0-0.795,0.562-0.795,1
		C97.773,79.438,98.129,80,98.568,80z"/>
	<path d="M135.898,78h-3.442c-0.439,0-0.795,0.562-0.795,1c0,0.438,0.356,1,0.795,1H135v2.35c0,0.438,0.561,0.794,1,0.794
		s1-0.356,1-0.794v-3.442C137,78.468,136.337,78,135.898,78z"/>
	<path d="M136,110.148c-0.439,0-1,0.355-1,0.795v5.823c0,0.439,0.561,0.794,1,0.794s1-0.354,1-0.794v-5.823
		C137,110.504,136.439,110.148,136,110.148z"/>
	<path d="M136,98.499c-0.439,0-1,0.355-1,0.795v5.825c0,0.438,0.561,0.794,1,0.794s1-0.356,1-0.794v-5.825
		C137,98.854,136.439,98.499,136,98.499z"/>
	<path d="M136,86.85c-0.439,0-1,0.356-1,0.795v5.824c0,0.439,0.561,0.794,1,0.794s1-0.355,1-0.794v-5.824
		C137,87.206,136.439,86.85,136,86.85z"/>
	<path d="M136,121.797c-0.439,0-1,0.356-1,0.795v5.824c0,0.439,0.561,0.794,1,0.794s1-0.355,1-0.794v-5.824
		C137,122.153,136.439,121.797,136,121.797z"/>
	<path d="M129.651,136.498l-4.783-2.33c-0.083-0.041-0.18-0.035-0.259,0.012c-0.076,0.048,0.147,0.131,0.146,0.225l0.245,1.399V135
		h-3.134h-0.53h-5.824h-5.823h-5.825H98.04h-5.825H86.39h-5.294H80v-1.289v-5.825v-5.825v-5.823v-5.825v-5.824v-5.824v-5.825v-5.824
		V82.35V80h1.096h5.824h4.236h1.588c0.439,0,0.794-0.562,0.794-1c0-0.438-0.354-1-0.794-1h-1.588H86.92h-5.824h-2.913
		c-0.438,0-0.487,0.412-0.487,0.85C77.684,87.928,78,97.122,78,106.221c0,5.279,0,10.561,0,15.84v5.825v5.825v2.912
		c0,0.439-0.256,0.377,0.183,0.377h2.913h5.294h5.825h5.825h5.823h5.825h5.823h5.824h0.53H125v0.372l-0.313,1.395
		c-0.002,0.092-0.104,0.205-0.024,0.257c0.074,0.068,0.097,0.075,0.181,0.04l4.831-2.088c0.098-0.039,0.142-0.13,0.145-0.232
		c0-0.097-0.058-0.184-0.134-0.234C129.674,136.506,129.657,136.502,129.651,136.498z"/>
</g>
</svg>
