<svg id="ICON" xmlns="http://www.w3.org/2000/svg" viewBox="0 0 108 108"><defs><style>.cls-1{fill:#fff;}</style></defs><title>Icon_RH_miscellaneous_target-crosshairs_RGB_White</title><path class="cls-1" d="M96.94 53H83.6a29.9 29.9 0 0 0-28.72-29V10.94a1 1 0 0 0-2 0V24a29.9 29.9 0 0 0-29 29H10.81a1 1 0 0 0 0 2H23.9a29.9 29.9 0 0 0 29 28.73v13.33a1 1 0 0 0 2 0V83.72A29.91 29.91 0 0 0 83.6 55h13.34a1 1 0 0 0 0-2zM52.88 25v6.7A22.22 22.22 0 0 0 31.58 53H24.9a28.9 28.9 0 0 1 27.98-28zm0 57.71A28.9 28.9 0 0 1 24.9 55h6.68a22.22 22.22 0 0 0 21.3 21zm1-20.29a1 1 0 0 0-1 1V75a21.19 21.19 0 0 1-20.27-20h11.83a1 1 0 0 0 0-2H32.6a21.19 21.19 0 0 1 20.28-20.28v11.84a1 1 0 0 0 2 0V32.74A21.19 21.19 0 0 1 74.9 53H63.31a1 1 0 0 0 0 2h11.58a21.19 21.19 0 0 1-20 20V63.44a1 1 0 0 0-1.01-1zm1 20.28V76a22.22 22.22 0 0 0 21-21h6.72a28.9 28.9 0 0 1-27.72 27.72zM75.92 53a22.22 22.22 0 0 0-21-21.29V25A28.9 28.9 0 0 1 82.6 53z"/></svg>