<svg id="Layer_1" data-name="Layer 1" xmlns="http://www.w3.org/2000/svg" viewBox="0 0 108 108"><defs><style>.cls-1{fill:none;}.cls-2{fill:#fff;}</style></defs><title>Icon_RH_Unclear_Texas_RGB_White</title><path class="cls-1" d="M85.15,54.39a4,4,0,0,0-.62-2c-0.38-.58-0.71-1-1-1.42a5.15,5.15,0,0,1-1.1-3.14q-0.1-3.36-.16-6.72l-0.14,0a7.22,7.22,0,0,1-.86-0.25A18.75,18.75,0,0,1,79.21,40a4.2,4.2,0,0,0-1.54-.49,4.94,4.94,0,0,0-3.1.44,9.17,9.17,0,0,1-1.8.71,2.28,2.28,0,0,1-2.67-.82,0.62,0.62,0,0,0-.89-0.22,5,5,0,0,1-3.58,0,0.93,0.93,0,0,0-.28-0.06,10.24,10.24,0,0,1-2.9-.63,9.59,9.59,0,0,0-2.14-.52,2.17,2.17,0,0,1-1.1-.48l-0.14-.1-0.53-.37A5,5,0,0,0,57.75,37a2,2,0,0,0-.43,0c-0.17,0-.35,0-0.52,0l-0.14,0a2.23,2.23,0,0,1-1-.27c-0.79-.47-1.53-1-2.22-1.46a1.78,1.78,0,0,1-.65-1.39c0-1.77,0-3.53,0-5.3V24.85A0.89,0.89,0,0,0,51.92,24H39.61a0.89,0.89,0,0,0-.89.89V48.09a1.84,1.84,0,0,1-1.82,1.84l-13.29.16a0.35,0.35,0,0,0-.25.58,18.21,18.21,0,0,0,1.71,1.52l0.23,0.18,0.57,0.46c0.32,0.25.64,0.51,1,.78l0.26,0.23c0.79,0.7,1.61,1.42,2.39,2.18a6.33,6.33,0,0,1,1.9,4.32,6.29,6.29,0,0,0,.23,1.24,1.69,1.69,0,0,0,.66,1.05L33,63.16c1.17,0.77,2.38,1.56,3.6,2.25,0.93,0.52,1.38.41,2.1-.5a14.83,14.83,0,0,0,.88-1.25,4.43,4.43,0,0,1,4-2.12l0.48,0a6.43,6.43,0,0,1,.66.09l0.3,0a3.29,3.29,0,0,1,2.28,1.25,11.32,11.32,0,0,0,2,1.91c0.3,0.24.61,0.49,0.9,0.74A22.92,22.92,0,0,1,54.53,71L56,73.41l1.26,2a10,10,0,0,1,1.09,2.85l0.16,0.58A11.37,11.37,0,0,0,59,80.2a2.79,2.79,0,0,0,1.3,1.43A24.9,24.9,0,0,0,66.64,84l-0.24-.58-0.5-1.18c-0.22-.52-0.45-1-0.65-1.58a4.71,4.71,0,0,1,.48-4.33A9,9,0,0,0,67,73.62a3.1,3.1,0,0,1,1.69-2.08,7.25,7.25,0,0,0,2.54-2.13,5.67,5.67,0,0,1,3.07-1.88l0.25-.07c0.56-.16,1.12-0.32,1.67-0.52a2.86,2.86,0,0,0,1.56-1.31l0.27-.45c0.14-.24.29-0.47,0.41-0.72a3.71,3.71,0,0,1,3.24-2.19,2.23,2.23,0,0,0,.35-0.07l0.2,0a0.42,0.42,0,0,0,.33-0.27,16.15,16.15,0,0,1,2.53-3.79,2.11,2.11,0,0,0,.22-0.49l0.1-.26V56.62c0-.2-0.06-0.4-0.1-0.6A15.38,15.38,0,0,1,85.15,54.39Z"/><path class="cls-2" d="M87.44,56.41c0-.24-0.07-0.48-0.11-0.71a13.2,13.2,0,0,1-.18-1.45,5.88,5.88,0,0,0-1-3c-0.4-.6-0.74-1.08-1.08-1.5a3.14,3.14,0,0,1-.66-1.95q-0.1-3.45-.16-6.9A1.62,1.62,0,0,0,83,39.27l-0.44-.11a5.4,5.4,0,0,1-.68-0.2,16.45,16.45,0,0,1-1.78-.75,6.13,6.13,0,0,0-2.25-.71,7,7,0,0,0-4.28.68,7.93,7.93,0,0,1-1.48.56,0.27,0.27,0,0,1-.39-0.1,2.58,2.58,0,0,0-3.21-.93,3,3,0,0,1-2.18,0,2.86,2.86,0,0,0-.92-0.19A8.6,8.6,0,0,1,63.07,37a11.49,11.49,0,0,0-2.51-.61l-0.17-.12-0.21-.15-0.44-.31a6.65,6.65,0,0,0-1.14-.71,3,3,0,0,0-1.17-.23l-0.33,0-0.21,0a0.29,0.29,0,0,0-.15,0c-0.67-.4-1.31-0.82-1.91-1.24h0c0-1.33.06-7.45,0.09-10.26A1.39,1.39,0,0,0,53.51,22H38.32a1.65,1.65,0,0,0-1.65,1.65l0,23.74a0.75,0.75,0,0,1-.75.75H21.92a1.26,1.26,0,0,0-1.05.57,1.81,1.81,0,0,0-.08,1.89,12,12,0,0,0,3,3.18L24,53.92l0.61,0.48c0.29,0.23.59,0.46,0.86,0.7l0.26,0.23c0.77,0.68,1.57,1.38,2.3,2.1a4.33,4.33,0,0,1,1.31,3,8.25,8.25,0,0,0,.29,1.65,3.63,3.63,0,0,0,1.5,2.23l0.79,0.52c1.2,0.79,2.44,1.61,3.73,2.32,1.79,1,3.31.67,4.64-1a16.77,16.77,0,0,0,1-1.42,2.57,2.57,0,0,1,2.63-1.18,4.46,4.46,0,0,1,.45.07l0.37,0.06a1.3,1.3,0,0,1,1,.48,13,13,0,0,0,2.36,2.27c0.28,0.23.57,0.46,0.85,0.7a21.3,21.3,0,0,1,3.91,5l1.47,2.35,1.26,2a8.35,8.35,0,0,1,.86,2.31l0.17,0.62A13.11,13.11,0,0,0,57.13,81a4.8,4.8,0,0,0,2.23,2.42,26.48,26.48,0,0,0,7,2.62h0.84a1.57,1.57,0,0,0,1.5-2.09l0,0c-0.15-.42-0.33-0.83-0.5-1.23l-0.5-1.18c-0.22-.5-0.43-1-0.62-1.52a2.8,2.8,0,0,1,.28-2.49A10.83,10.83,0,0,0,69,74.08a1.11,1.11,0,0,1,.63-0.75,9.2,9.2,0,0,0,3.24-2.7,3.68,3.68,0,0,1,2-1.18l0.25-.07c0.66-.19,1.32-0.38,2-0.62a5,5,0,0,0,2.48-2.19l0.21-.35c0.18-.29.36-0.59,0.5-0.89a1.88,1.88,0,0,1,1.57-1.07,4.23,4.23,0,0,0,.66-0.11l0.16,0a2.42,2.42,0,0,0,1.71-1.33,14.24,14.24,0,0,1,2.21-3.34,3.26,3.26,0,0,0,.63-1.16c0-.11.08-0.23,0.13-0.33l0.09-.2V56.41Zm-2,.92-0.1.26a2.11,2.11,0,0,1-.22.49,16.15,16.15,0,0,0-2.53,3.79,0.42,0.42,0,0,1-.33.27l-0.2,0a2.23,2.23,0,0,1-.35.07,3.71,3.71,0,0,0-3.24,2.19c-0.12.25-.27,0.48-0.41,0.72l-0.27.45a2.86,2.86,0,0,1-1.56,1.31c-0.55.2-1.11,0.36-1.67,0.52l-0.25.07a5.67,5.67,0,0,0-3.07,1.88,7.25,7.25,0,0,1-2.54,2.13A3.1,3.1,0,0,0,67,73.62a9,9,0,0,1-1.29,2.74,4.71,4.71,0,0,0-.48,4.33c0.2,0.53.42,1.06,0.65,1.58l0.5,1.18L66.64,84a24.9,24.9,0,0,1-6.37-2.4A2.79,2.79,0,0,1,59,80.2a11.37,11.37,0,0,1-.46-1.34l-0.16-.58a10,10,0,0,0-1.09-2.85l-1.26-2L54.53,71a22.92,22.92,0,0,0-4.3-5.45c-0.29-.25-0.6-0.5-0.9-0.74a11.32,11.32,0,0,1-2-1.91A3.29,3.29,0,0,0,45,61.69l-0.3,0a6.43,6.43,0,0,0-.66-0.09l-0.48,0a4.43,4.43,0,0,0-4,2.12,14.83,14.83,0,0,1-.88,1.25c-0.72.91-1.17,1-2.1,0.5-1.22-.68-2.43-1.48-3.6-2.25l-0.8-.52a1.69,1.69,0,0,1-.66-1.05,6.29,6.29,0,0,1-.23-1.24A6.33,6.33,0,0,0,29.46,56c-0.77-.76-1.59-1.49-2.39-2.18l-0.26-.23c-0.31-.27-0.63-0.52-1-0.78l-0.57-.46-0.23-.18a18.21,18.21,0,0,1-1.71-1.52,0.35,0.35,0,0,1,.25-0.58l13.29-.16a1.84,1.84,0,0,0,1.82-1.84V24.85A0.89,0.89,0,0,1,39.61,24H51.92a0.89,0.89,0,0,1,.89.89v3.58c0,1.77,0,3.53,0,5.3a1.78,1.78,0,0,0,.65,1.39c0.69,0.5,1.44,1,2.22,1.46a2.23,2.23,0,0,0,1,.27l0.14,0c0.17,0,.34,0,0.52,0a2,2,0,0,1,.43,0,5,5,0,0,1,.79.51l0.53,0.37,0.14,0.1a2.17,2.17,0,0,0,1.1.48,9.59,9.59,0,0,1,2.14.52,10.24,10.24,0,0,0,2.9.63,0.93,0.93,0,0,1,.28.06,5,5,0,0,0,3.58,0,0.62,0.62,0,0,1,.89.22,2.28,2.28,0,0,0,2.67.82,9.17,9.17,0,0,0,1.8-.71,4.94,4.94,0,0,1,3.1-.44,4.2,4.2,0,0,1,1.54.49,18.75,18.75,0,0,0,2.05.87,7.22,7.22,0,0,0,.86.25l0.14,0q0.05,3.36.16,6.72A5.15,5.15,0,0,0,83.51,51c0.31,0.39.63,0.84,1,1.42a4,4,0,0,1,.62,2A15.38,15.38,0,0,0,85.35,56c0,0.2.07,0.4,0.1,0.6v0.71Z"/></svg>