<?xml version="1.0" encoding="utf-8"?>
<!-- Generator: Adobe Illustrator 17.1.0, SVG Export Plug-In . SVG Version: 6.00 Build 0)  -->
<!DOCTYPE svg PUBLIC "-//W3C//DTD SVG 1.1//EN" "http://www.w3.org/Graphics/SVG/1.1/DTD/svg11.dtd">
<svg version="1.1" id="Layer_1" xmlns="http://www.w3.org/2000/svg" xmlns:xlink="http://www.w3.org/1999/xlink" x="0px" y="0px"
	 viewBox="0 0 144 144" enable-background="new 0 0 144 144" xml:space="preserve">
<g>
	<g>
		<path d="M92.367,96.43h-2.119c-8.398,0-10.91-4.871-11.605-7.002H42.298c-2.174,0-3.942-1.767-3.942-3.941V57.059
			c0-2.176,1.769-3.945,3.942-3.945h59.403c2.174,0,3.943,1.769,3.943,3.945v28.428c0,2.174-1.77,3.941-3.943,3.941H91.355
			c-0.623,0.397-1.002,0.889-1.148,1.499c-0.404,1.673,0.955,3.73,0.969,3.751L92.367,96.43z M42.298,55.355
			c-0.938,0-1.701,0.764-1.701,1.703v28.428c0,0.938,0.764,1.701,1.701,1.701h38.194l0.127,0.977
			c0.031,0.221,0.826,5.172,7.773,5.928c-0.387-1.034-0.682-2.376-0.365-3.69c0.317-1.313,1.154-2.349,2.488-3.077l0.252-0.137
			h10.934c0.938,0,1.701-0.764,1.701-1.701V57.059c0-0.939-0.764-1.703-1.701-1.703H42.298z"/>
		<path d="M95.947,64.226H48.054c-0.465,0-0.842-0.377-0.842-0.841c0-0.464,0.377-0.84,0.842-0.84h47.894
			c0.465,0,0.842,0.376,0.842,0.84C96.789,63.849,96.412,64.226,95.947,64.226"/>
		<path d="M95.947,69.708H48.054c-0.465,0-0.842-0.376-0.842-0.841c0-0.464,0.377-0.841,0.842-0.841h47.894
			c0.465,0,0.842,0.377,0.842,0.841C96.789,69.332,96.412,69.708,95.947,69.708"/>
		<path d="M95.947,74.885H48.054c-0.465,0-0.842-0.377-0.842-0.841c0-0.464,0.377-0.84,0.842-0.84h47.894
			c0.465,0,0.842,0.376,0.842,0.84C96.789,74.508,96.412,74.885,95.947,74.885"/>
		<path d="M95.947,80.367H48.054c-0.465,0-0.842-0.376-0.842-0.84c0-0.465,0.377-0.842,0.842-0.842h47.894
			c0.465,0,0.842,0.377,0.842,0.842C96.789,79.991,96.412,80.367,95.947,80.367"/>
	</g>
</g>
</svg>
