<svg id="Layer_2" data-name="Layer 2" xmlns="http://www.w3.org/2000/svg" viewBox="0 0 84.9 38.96"><defs><style>.cls-1{fill:#fff;}</style></defs><title>Icon_RH_Miscellanious_DevOps_RGB_White</title><path class="cls-1" d="M84.77 13.01a1.48 1.48 0 0 0-1.66-.74l-3.88.57A19.42 19.42 0 0 0 60.93 0c-7.78 0-11.41 4.29-16 9.73-.76.9-1.55 1.83-2.41 2.81-.85-1-1.65-1.9-2.42-2.81C35.5 4.29 31.87 0 24.1 0A19.41 19.41 0 0 0 5.79 12.86l-4-.59a1.45 1.45 0 0 0-1.63.74 1.66 1.66 0 0 0 .44 1.84l4.06 4.86A19.5 19.5 0 0 0 24.1 38.96c7.78 0 11.41-4.29 16-9.73.76-.9 1.55-1.83 2.41-2.81.84 1 1.65 1.9 2.42 2.81 4.6 5.44 8.23 9.73 16 9.73a19.5 19.5 0 0 0 19.52-19.42l3.87-4.63a1.7 1.7 0 0 0 .45-1.9zM6.13 14.48a.78.78 0 0 0 .86-.55h.08a17.84 17.84 0 0 1 17-12.4c7 0 10.29 3.85 14.79 9.17.82 1 1.67 2 2.58 3l-3.38 4.48-3.53-4.57c-.18-.22-4.39-5.29-10.43-5.29a11.15 11.15 0 0 0-9.18 4.83.78.78 0 0 0-.24.68.79.79 0 0 0 .91.67l4.29-.65-9 10.88-9.05-10.84zm15.45-1.56a1.48 1.48 0 0 0-1.66-.73l-2.47.4a9.55 9.55 0 0 1 6.63-2.68c5.27 0 9.16 4.66 9.18 4.69l3.79 4.88-3.75 4.87s-3.93 4.7-9.19 4.7a9.57 9.57 0 0 1-9.14-6.76l6.14-7.43a1.7 1.7 0 0 0 .47-1.91zm39.35 24.45c-7 0-10.29-3.85-14.79-9.17-.82-1-1.67-2-2.58-3l3.42-4.43 3.53 4.57c.18.22 4.39 5.29 10.42 5.29a11.19 11.19 0 0 0 10.27-6.82l2.2 2.67a.79.79 0 0 0 .61.29.8.8 0 0 0 .61-.28l4.07-4.86a17.91 17.91 0 0 1-17.76 15.74zm2.82-22.57l6.29 7.61a9.59 9.59 0 0 1-9.11 6.64c-5.27 0-9.16-4.66-9.18-4.69l-3.76-4.88 3.75-4.87s3.91-4.7 9.19-4.7a9.55 9.55 0 0 1 6.65 2.71l-2.63-.4a1.46 1.46 0 0 0-1.63.73 1.65 1.65 0 0 0 .43 1.85zm10.26 9.92l-9-10.88 4.3.65a.79.79 0 0 0 .77-1.23l.08-.05a11.16 11.16 0 0 0-9.23-4.89c-6 0-10.25 5.07-10.44 5.3l-8.31 10.79c-1.2 1.32-2.26 2.58-3.28 3.79-4.5 5.32-7.75 9.17-14.79 9.17A17.9 17.9 0 0 1 6.38 21.81l3.9 4.67a.8.8 0 0 0 .61.28.79.79 0 0 0 .61-.29l2.28-2.76a11.16 11.16 0 0 0 10.32 6.93c6 0 10.25-5.07 10.44-5.31l8.32-10.79c1.19-1.32 2.26-2.58 3.29-3.79 4.5-5.32 7.75-9.17 14.79-9.17a17.84 17.84 0 0 1 16.94 12.16.74.74 0 0 0 0 .1.79.79 0 0 0 .9.67l4.3-.63z"/></svg>