<?xml version="1.0" encoding="utf-8"?>
<!-- Generator: Adobe Illustrator 17.1.0, SVG Export Plug-In . SVG Version: 6.00 Build 0)  -->
<!DOCTYPE svg PUBLIC "-//W3C//DTD SVG 1.1//EN" "http://www.w3.org/Graphics/SVG/1.1/DTD/svg11.dtd">
<svg version="1.1" id="Layer_1" xmlns="http://www.w3.org/2000/svg" xmlns:xlink="http://www.w3.org/1999/xlink" x="0px" y="0px"
	 viewBox="0 0 144 144" enable-background="new 0 0 144 144" xml:space="preserve">
<g>
	<path fill="#FFFFFF" d="M72,34.566C51.326,34.567,34.566,51.328,34.566,72c0,0.562,0.455,1.018,1.016,1.018
		c0.562,0,1.02-0.455,1.02-1.018c0-2.813,0.328-5.553,0.947-8.176l6.834,1.83C43.916,67.695,43.67,69.818,43.67,72
		c0,5.149,1.377,9.986,3.783,14.151c0.002,0.004,0.004,0.009,0.008,0.013c0.279,0.488,0.9,0.656,1.391,0.377l0.1-0.061
		c0.49-0.278,0.658-0.899,0.377-1.389c-0.084-0.146-0.201-0.267-0.336-0.352c-2.096-3.775-3.287-8.114-3.287-12.739
		c0-4.43,1.094-8.598,3.027-12.258l6.988,4.035c0.486,0.28,1.107,0.113,1.391-0.373c0.281-0.488,0.113-1.109-0.373-1.391
		l-7.887-4.554c-0.486-0.28-1.108-0.113-1.391,0.373c-0.004,0.009-0.008,0.016-0.012,0.024c-1.055,1.824-1.91,3.777-2.539,5.83
		l-6.834-1.831c1.602-5.361,4.439-10.189,8.186-14.155l12.119,12.12c0.008,0.008,0.016,0.017,0.023,0.024
		c0.398,0.398,1.043,0.398,1.441,0c1.059-1.059,2.254-1.98,3.559-2.735c0.316-0.183,0.496-0.51,0.506-0.851
		c0.008-0.183-0.037-0.369-0.135-0.54l-4.035-6.986c1.713-0.905,3.541-1.626,5.453-2.137c0.543-0.146,0.865-0.703,0.723-1.248
		c-0.146-0.542-0.707-0.866-1.248-0.719c-2.422,0.646-4.717,1.606-6.836,2.833c-0.488,0.282-0.654,0.905-0.373,1.392
		c0.006,0.009,0.012,0.017,0.016,0.025l4.043,7.001c-0.838,0.547-1.633,1.157-2.373,1.824L47.699,46.262
		c6.344-5.99,14.889-9.659,24.301-9.659c6.084,0,11.811,1.535,16.811,4.24l-4.021,6.966c-0.004,0.008-0.008,0.017-0.014,0.025
		c-0.102,0.175-0.143,0.368-0.135,0.557c0.014,0.334,0.195,0.655,0.508,0.836c0.006,0.003,0.012,0.007,0.018,0.011
		c1.988,1.153,3.809,2.559,5.424,4.171c0.398,0.397,1.043,0.397,1.439,0c0.398-0.397,0.398-1.042,0-1.439
		c-1.504-1.506-3.18-2.843-4.992-3.98l3.535-6.126c2.348,1.451,4.514,3.167,6.455,5.108c4.096,4.098,7.193,9.19,8.895,14.886
		l-7.799,2.09c-0.543,0.145-0.865,0.704-0.721,1.247c0.146,0.543,0.703,0.865,1.25,0.719l7.795-2.088
		c0.621,2.623,0.949,5.362,0.949,8.176c0,2.814-0.328,5.553-0.949,8.176l-6.832-1.829c0.467-2.042,0.715-4.168,0.715-6.347
		c0-0.562-0.457-1.018-1.02-1.018s-1.02,0.455-1.02,1.018c0,2.001-0.221,3.947-0.645,5.818l-7.791-2.088
		c-0.545-0.144-1.104,0.177-1.248,0.721c-0.791,2.957-2.35,5.6-4.453,7.703c-0.398,0.398-0.398,1.042,0,1.44
		c0.398,0.396,1.041,0.396,1.44,0c2.115-2.117,3.742-4.726,4.691-7.642l7.803,2.093c0.012,0.002,0.025,0.006,0.035,0.009
		c0.012,0.003,0.023,0.007,0.035,0.009l7.764,2.08c-1.6,5.362-4.441,10.189-8.186,14.154l-5-4.999
		c1.449-1.557,2.725-3.278,3.799-5.132c0.281-0.486,0.117-1.108-0.369-1.391c-0.486-0.281-1.111-0.116-1.393,0.372
		c-1.154,1.994-2.564,3.824-4.184,5.443c-0.398,0.398-0.398,1.042,0,1.44l5.707,5.707c-3.965,3.744-8.793,6.583-14.154,8.185
		l-1.829-6.833c2.052-0.63,4.005-1.484,5.829-2.539c0.008-0.004,0.016-0.009,0.023-0.013c0.092-0.054,0.172-0.117,0.238-0.191
		c0.004-0.003,0.008-0.008,0.012-0.01c0.002-0.004,0.004-0.006,0.006-0.008c0.281-0.32,0.34-0.794,0.117-1.183
		c-0.006-0.009-0.01-0.017-0.016-0.025L82,87.287c-0.004-0.009-0.01-0.018-0.014-0.026c-0.18-0.311-0.5-0.49-0.832-0.506
		c-0.189-0.011-0.383,0.032-0.56,0.135c-0.01,0.006-0.021,0.014-0.03,0.019c-1.296,0.745-2.696,1.326-4.175,1.717
		c-1.432,0.376-2.91,0.564-4.391,0.564c-0.562,0-1.02,0.457-1.02,1.018c0,0.562,0.457,1.02,1.02,1.02
		c1.654,0,3.307-0.212,4.91-0.634c1.332-0.351,2.607-0.841,3.811-1.454l3.539,6.129c-1.709,0.902-3.525,1.62-5.428,2.13
		c-0.008,0.002-0.016,0.004-0.023,0.007c-0.008,0.002-0.016,0.003-0.023,0.007c-2.164,0.575-4.436,0.882-6.783,0.882
		c-0.564,0-1.02,0.456-1.02,1.019s0.455,1.019,1.02,1.019c2.178,0,4.305-0.248,6.346-0.714l1.832,6.832
		c-2.627,0.62-5.363,0.949-8.178,0.949c-6.084,0.001-11.812-1.536-16.814-4.24l3.537-6.125c1.867,0.991,3.857,1.782,5.941,2.339
		c0.543,0.146,1.102-0.178,1.248-0.721s-0.178-1.102-0.721-1.246c-4.185-1.12-7.961-3.246-11.051-6.106l5.705-5.703
		c0.398-0.398,0.398-1.042,0-1.44c-1.869-1.868-3.311-4.165-4.162-6.729l7.783-2.085c0.543-0.145,0.865-0.704,0.722-1.246v-0.001
		v-0.001c-0.005-0.005-0.005-0.01-0.007-0.015c-0.174-0.662-0.27-1.358-0.27-2.078c0.01-4.465,3.621-8.077,8.088-8.086
		c4.463,0.009,8.076,3.621,8.084,8.086c-0.008,4.465-3.621,8.077-8.084,8.085c-0.727,0-1.428-0.094-2.096-0.273
		c-0.25-0.067-0.508-0.033-0.723,0.075c-0.248,0.126-0.445,0.354-0.523,0.646l-2.084,7.783c-1.111-0.368-2.174-0.849-3.17-1.426
		c-0.486-0.281-1.111-0.114-1.391,0.372c-0.281,0.485-0.115,1.108,0.371,1.391c1.438,0.832,2.994,1.484,4.639,1.924
		c0.223,0.059,0.447,0.039,0.645-0.041c0.287-0.115,0.514-0.36,0.602-0.681l2.107-7.862c0.527,0.086,1.07,0.129,1.623,0.129
		C77.59,82.12,82.121,77.59,82.121,72c0-2.429-0.855-4.657-2.281-6.4l5.014-5.012c2.697,3.037,4.334,7.029,4.334,11.412v0.002
		c0,0.562,0.455,1.018,1.02,1.018c0.562,0,1.02-0.455,1.02-1.018V72c0-3.137-0.754-6.102-2.09-8.72l7.025-4.057
		c0.49-0.281,0.654-0.903,0.373-1.391c-0.279-0.486-0.902-0.653-1.389-0.373l-7.027,4.059c-0.736-1.124-1.58-2.168-2.525-3.113
		c-0.399-0.396-1.041-0.396-1.44,0L78.4,64.159c-0.836-0.683-1.783-1.235-2.811-1.625l4.463-16.659
		c0.055-0.203,0.045-0.408-0.021-0.595c-0.108-0.308-0.359-0.561-0.699-0.65c-2.338-0.625-4.799-0.96-7.332-0.96
		c-0.564,0-1.02,0.456-1.02,1.018c0,0.562,0.455,1.02,1.02,1.02c2-0.001,3.945,0.222,5.816,0.646l-4.193,15.655
		c-0.529-0.085-1.072-0.129-1.623-0.129c-0.555,0-1.096,0.044-1.623,0.129l-2.107-7.863c-0.146-0.543-0.703-0.865-1.246-0.718
		c-0.545,0.143-0.867,0.703-0.721,1.244l2.106,7.863c-2.701,1.024-4.852,3.174-5.877,5.875l-7.861-2.107
		c-0.543-0.145-1.101,0.177-1.246,0.72c-0.145,0.544,0.178,1.102,0.721,1.247l7.863,2.107c-0.086,0.528-0.131,1.071-0.131,1.623
		s0.045,1.095,0.131,1.624l-7.863,2.106c-0.322,0.087-0.566,0.318-0.684,0.606v0.002c-0.076,0.197-0.096,0.418-0.037,0.639
		c0.795,2.972,2.283,5.659,4.279,7.878l-5.736,5.736c-0.197,0.198-0.297,0.459-0.297,0.72c0,0.261,0.1,0.521,0.297,0.72
		c1.506,1.506,3.182,2.844,4.994,3.98l-3.537,6.125c-7.584-4.685-13.266-12.15-15.623-20.972c-0.146-0.545-0.705-0.866-1.25-0.722
		c-0.541,0.146-0.865,0.703-0.719,1.247C40.104,97.668,54.678,109.432,72,109.434c20.67-0.001,37.432-16.762,37.434-37.434
		C109.432,51.328,92.67,34.567,72,34.566"/>
	<path fill="#FFFFFF" d="M65.634,72.001c0,0.553,0.447,0.999,1,0.999h2.952l-2.087,2.088c-0.391,0.391-0.391,1.023,0,1.414
		c0.195,0.195,0.451,0.293,0.707,0.293c0.256,0,0.512-0.098,0.707-0.293l2.088-2.088v2.951c0,0.553,0.447,1,1,1c0.553,0,1-0.447,1-1
		v-2.951l2.086,2.086c0.195,0.195,0.451,0.293,0.707,0.293c0.256,0,0.512-0.098,0.707-0.293c0.391-0.391,0.391-1.023,0-1.414
		L74.415,73h2.951c0.553,0,1-0.447,1-0.999c0-0.553-0.447-1-1-1h-2.951l2.088-2.088c0.391-0.392,0.391-1.023,0-1.414
		c-0.391-0.391-1.023-0.391-1.414,0l-2.088,2.088v-2.952c0-0.553-0.447-1-1-1c-0.553,0-1,0.447-1,1v2.952l-2.088-2.088
		c-0.391-0.391-1.023-0.391-1.414,0c-0.391,0.391-0.391,1.023,0,1.414l2.088,2.088h-2.953
		C66.081,71.001,65.634,71.448,65.634,72.001"/>
</g>
</svg>
