<svg id="Layer_1" data-name="Layer 1" xmlns="http://www.w3.org/2000/svg" viewBox="0 0 108 108"><defs><style>.cls-1{fill:#fff;}</style></defs><title>Icon_RH_Miscellaneous_Hop_RGB_White</title><circle class="cls-1" cx="17.2" cy="76.26" r="1.38"/><circle class="cls-1" cx="17.83" cy="70.64" r="1.38"/><circle class="cls-1" cx="19.21" cy="65.07" r="1.38"/><circle class="cls-1" cx="21.53" cy="59.94" r="1.38"/><circle class="cls-1" cx="25.16" cy="55.38" r="1.38"/><circle class="cls-1" cx="29.69" cy="51.99" r="1.38"/><circle class="cls-1" cx="34.95" cy="49.9" r="1.38"/><circle class="cls-1" cx="40.62" cy="49.23" r="1.38"/><circle class="cls-1" cx="46.33" cy="50.61" r="1.38"/><circle class="cls-1" cx="51.62" cy="53.05" r="1.38"/><circle class="cls-1" cx="55.99" cy="57.19" r="1.38"/><circle class="cls-1" cx="58.75" cy="62.7" r="1.38"/><circle class="cls-1" cx="59.09" cy="68.36" r="1.38"/><circle class="cls-1" cx="61.51" cy="58.14" r="1.38"/><circle class="cls-1" cx="63.39" cy="53.05" r="1.38"/><circle class="cls-1" cx="65.68" cy="48.17" r="1.38"/><circle class="cls-1" cx="68.44" cy="43.82" r="1.38"/><circle class="cls-1" cx="71.98" cy="39.73" r="1.38"/><circle class="cls-1" cx="75.91" cy="36.32" r="1.38"/><circle class="cls-1" cx="80.5" cy="33.56" r="1.38"/><circle class="cls-1" cx="85.47" cy="32.18" r="1.38"/><circle class="cls-1" cx="90.8" cy="31.74" r="1.38"/></svg>