<svg id="ICON" xmlns="http://www.w3.org/2000/svg" viewBox="0 0 108 108"><defs><style>.cls-1{fill:#fff;}</style></defs><title>Icon_RH_miscellaneous_target-archery_RGB_White</title><path class="cls-1" d="M76.33 40.44a.5.5 0 0 0 .35-.15l10.06-10.05a.5.5 0 0 0-.34-.85l-7.23-.2a1 1 0 0 0-.93-.93L78 21a.5.5 0 0 0-.85-.34L67.13 30.74a.5.5 0 0 0-.15.37l.12 4.12a30.34 30.34 0 1 0 5.14 5.1l4.08.11zm.74-18.23l.18 6.54-9.08 9.08-.17-6.54zm-.29 36.9a28.38 28.38 0 1 1-9.61-21.22v.92l-3.78 3.78A22.4 22.4 0 1 0 64.84 44l3.77-3.77h.93a28.18 28.18 0 0 1 7.24 18.88zm-29.07.6a1 1 0 0 0 1.41 0l4.16-4.16a6 6 0 1 1-1.44-1.39l-4.13 4.14a1 1 0 0 0 0 1.41zm5.2-6.62a7.5 7.5 0 1 0 1.44 1.39l4-4a13.1 13.1 0 1 1-1.42-1.41zM58 48a14.79 14.79 0 1 0 1.42 1.41l4.34-4.34a20.88 20.88 0 1 1-1.42-1.41zm11.58-8.75l9.08-9.08 6.54.18-9.08 9.08z"/></svg>