<svg id="Layer_2" data-name="Layer 2" xmlns="http://www.w3.org/2000/svg" viewBox="0 0 74.06 74.06"><defs><style>.cls-1{fill:#fff;}</style></defs><title>Icon_RH_Miscellanious_GlobeB_RGB_White</title><path class="cls-1" d="M20.11 56.13a2.86 2.86 0 0 0-.82-2.2 1.64 1.64 0 0 0-2.42 1 2.9 2.9 0 0 0 .57 2.52c.12.13.23.26.33.39a3.63 3.63 0 0 0 1.5 1.19.5.5 0 0 0 .2 0 .5.5 0 0 0 .49-.41c0-.14.07-.29.1-.44a3 3 0 0 0 .13-1.47 4.61 4.61 0 0 1-.08-.58zm-1 1.68a3.87 3.87 0 0 1-.6-.63c-.12-.14-.23-.29-.37-.43a1.92 1.92 0 0 1-.34-1.57.54.54 0 0 1 .38-.43.63.63 0 0 1 .51 0c.28.2.35 1 .39 1.47a5.61 5.61 0 0 0 .1.77 1.8 1.8 0 0 1-.04.82zM37.03.03a37 37 0 1 0 37 37 37.07 37.07 0 0 0-37-37zM8.74 57.65a34.94 34.94 0 0 1 1.43-43.07l1.18 1.12a.49.49 0 0 0 .43.13.5.5 0 0 0 .36-.27c.68-1.34 2.23-2 3.89-2.59a3.19 3.19 0 0 1 1-.25 5.63 5.63 0 0 1 .62.08l.33.06a4.6 4.6 0 0 0 4-1.32 1.66 1.66 0 0 0 .5-1.19.94.94 0 0 0-.36-.68c-.6-.46-1.22 0-1.63.26l-.31.22a1.7 1.7 0 0 1 .15-.56 1.17 1.17 0 0 1 .5-.61 6.31 6.31 0 0 1 1.75-.26 7.09 7.09 0 0 0 2-.31c.61-.22 1-.24 1.19 0s.08.38 0 .75a2.72 2.72 0 0 0 0 1.08.5.5 0 0 0 .28.33 3.19 3.19 0 0 0 2.86-.54 5.81 5.81 0 0 1 1.3-.58 4.79 4.79 0 0 1 1.93.09 6.66 6.66 0 0 0 2 .15 6.64 6.64 0 0 0 2.76-1.21 6 6 0 0 1 2.3-1.05 5.93 5.93 0 0 1 2.39.37c.43.12.86.25 1.29.33a7.18 7.18 0 0 0 4.62-.66l.64-.35a3.2 3.2 0 0 1 2.26-.69 3.16 3.16 0 0 1 1.52 1.44 1.31 1.31 0 0 1 .33.8 1.27 1.27 0 0 1-.38.52 3.9 3.9 0 0 0-.38.44c-.83 1.17-.22 2.76.77 3.67a9.65 9.65 0 0 0 1.51 1.07 9.6 9.6 0 0 1 1.27.88c.69.6 1.2 1.63.78 2.36a2.88 2.88 0 0 1-.35.44 3.63 3.63 0 0 0-.47.6 4.87 4.87 0 0 0-.4 1c-.22.66-.35.94-.59 1a1.39 1.39 0 0 1-.35 0 1.42 1.42 0 0 0-1.07.08 1 1 0 0 0-.48.75 1.75 1.75 0 0 0 .53 1.36l.25.23c.25.23.49.44.5.65a1.26 1.26 0 0 1 0 .24 1.58 1.58 0 0 0 0 .66 1.67 1.67 0 0 0 .64.85c.92.77 1.84 2.06 1.41 3.19-.32.85-1.26 1.33-2.25 1.84-1.22.63-2.47 1.27-2.73 2.69a4.22 4.22 0 0 0 .58 2.54c.13.29.26.57.37.86a2 2 0 0 1-.17 1.67.55.55 0 0 1-.48.25c-.35 0-.65-.33-1-.71a4 4 0 0 0-1-.87 2.13 2.13 0 0 0-1.73-.24 1.49 1.49 0 0 0-.94-1.21 1.91 1.91 0 0 0-.48-.08h-.18c-.51-.09-.77-.64-1.13-1.54s-.79-2-1.91-2.15a2.41 2.41 0 0 0-2.36 1.62c-.11.25-.2.51-.3.78a4.11 4.11 0 0 1-.64 1.32 4.33 4.33 0 0 1-.88.71 3.65 3.65 0 0 0-1.39 1.39 4 4 0 0 0-.29 1.34 1.75 1.75 0 0 1-.34 1.16.66.66 0 0 1-.49.13 1.28 1.28 0 0 1-.82-.43 4 4 0 0 1-.66-1.88l-.46-2.61c-.11-.64-.38-2.14-1.59-2.55a3 3 0 0 0-.84-.13 1.83 1.83 0 0 1-.61-.09 1.8 1.8 0 0 1-.68-.82 3.07 3.07 0 0 0-.93-1.13 2.91 2.91 0 0 0-2-.26 3.69 3.69 0 0 1-1.08 0 3.43 3.43 0 0 1-1.49-1 4 4 0 0 0-2-1.2 2 2 0 0 0-1.55.42 1.45 1.45 0 0 0-.55 1.09 2 2 0 0 0 1.36 1.74l.45.19a2.77 2.77 0 0 1 1 .51 1.68 1.68 0 0 1 0 2 6 6 0 0 1-1.92 1.67c-.84.54-2.37 1.34-3.17.58a2.76 2.76 0 0 1-.61-1.23l-1.72-6c-.28-1-.91-1.54-1.6-1.37a.5.5 0 0 0-.36.34 19.51 19.51 0 0 0-.8 5 3.13 3.13 0 0 0 .27 1.61 3.3 3.3 0 0 0 .93 1 3.58 3.58 0 0 1 .57.52 4 4 0 0 1 .49 1 2.66 2.66 0 0 0 1.4 1.72 2.68 2.68 0 0 0 1.16.09 2.76 2.76 0 0 1 .62 0 1.13 1.13 0 0 1 .74.51 2 2 0 0 1 .28 1.5 5.68 5.68 0 0 1-1.69 2.51l-4.31 4.5a.5.5 0 0 0-.11.52 10 10 0 0 0 1.26 2.32 2.9 2.9 0 0 1 .73 2 3.63 3.63 0 0 1-1 1.71 9.76 9.76 0 0 0-.71.92 1.35 1.35 0 0 0-.26.81 1.43 1.43 0 0 0 .43.85l.16-.06c.66.81.29 2.13 0 2.84-.17.43-.36.68-.54.7a1.23 1.23 0 0 1-.46-.14 32.06 32.06 0 0 1-4.29-2.78zm50.89 6.11l-.11-1.13a2.42 2.42 0 0 0-.34-1.17 1.91 1.91 0 0 0-2.1-.63 4.76 4.76 0 0 0-1.43.79l-.2.14a1 1 0 0 1-.28.15c-.11 0-.41-.31-.62-.92l-1.22-3.61a3.43 3.43 0 0 1-.22-2.35 3.55 3.55 0 0 1 1.54-1.35 68 68 0 0 0 6.94-4.74c.38-.3 1.07-.75 1.42-.49a1.78 1.78 0 0 1 .38.58c.22.45.53 1.06 1.26 1.07a1.52 1.52 0 0 0 1.18-.68l.12-.13c.11-.12.26-.17.26-.22a1.28 1.28 0 0 1 0 .21v.26c.05.9.78 1.38 1.42 1.8.44.29.85.57 1 .92a35.24 35.24 0 0 1-9 11.5zm8.55-13.3c-.59-.39-.95-.65-1-1v-.17a1.23 1.23 0 0 0-.19-.83.9.9 0 0 0-.68-.36 1.51 1.51 0 0 0-1.11.48l-.14.15c-.14.16-.32.36-.43.36-.11 0-.22-.21-.37-.52a2.49 2.49 0 0 0-.68-.93c-.46-.35-1.3-.54-2.63.5a66.93 66.93 0 0 1-6.83 4.67 4.4 4.4 0 0 0-1.95 1.8 4.25 4.25 0 0 0 .2 3.11l1.22 3.63c.3.89.93 1.77 1.79 1.57a1.76 1.76 0 0 0 .63-.31l.21-.15a3.94 3.94 0 0 1 1.13-.64.94.94 0 0 1 1 .23 1.66 1.66 0 0 1 .17.71l.18 1.78a34.94 34.94 0 0 1-47.76-4.14c.53.32 1.06.63 1.58.92a1.92 1.92 0 0 0 .95.31h.1c.6 0 1.07-.5 1.39-1.33.61-1.58.55-2.94-.17-3.83l-.11-.13a1 1 0 0 1-.18-.26s0-.06.1-.21a8.67 8.67 0 0 1 .63-.84 4.41 4.41 0 0 0 1.21-2.23 3.81 3.81 0 0 0-.91-2.7 8.92 8.92 0 0 1-1-1.8l4.06-4.27a6.64 6.64 0 0 0 1.94-3 3 3 0 0 0-.42-2.28 2.12 2.12 0 0 0-1.41-.94 3.61 3.61 0 0 0-.86 0 1.92 1.92 0 0 1-.75 0c-.4-.14-.59-.62-.82-1.16a4.81 4.81 0 0 0-.64-1.19 4.36 4.36 0 0 0-.73-.68 2.48 2.48 0 0 1-.67-.75 2.27 2.27 0 0 1-.15-1.11 18.48 18.48 0 0 1 .6-4.17 1.85 1.85 0 0 1 .19.46l1.72 6a3.56 3.56 0 0 0 .85 1.7c.68.65 2 1.09 4.41-.47a6.71 6.71 0 0 0 2.23-2 2.64 2.64 0 0 0-.18-3.2 3.59 3.59 0 0 0-1.29-.73l-.41-.17c-.36-.16-.77-.47-.77-.81a.45.45 0 0 1 .19-.34 1 1 0 0 1 .75-.2 3.16 3.16 0 0 1 1.49.95 4.29 4.29 0 0 0 2 1.23 4.45 4.45 0 0 0 1.39 0 2.11 2.11 0 0 1 1.35.11 2.28 2.28 0 0 1 .61.79 2.6 2.6 0 0 0 1.15 1.23 2.63 2.63 0 0 0 1 .17 2.15 2.15 0 0 1 .56.07c.58.2.8 1.06.93 1.78l.38 2.71a4.83 4.83 0 0 0 .88 2.35 2.26 2.26 0 0 0 1.5.79 1.66 1.66 0 0 0 1.22-.36 2.54 2.54 0 0 0 .72-1.86 3.2 3.2 0 0 1 .2-1 2.83 2.83 0 0 1 1-1 5.12 5.12 0 0 0 1.08-.9 4.92 4.92 0 0 0 .82-1.63c.08-.24.17-.47.27-.7.25-.57.77-1.14 1.29-1.06s.77.63 1.13 1.53.79 2 1.89 2.15h.27a1.14 1.14 0 0 1 .24 0c.21.07.34.45.35 1.07a.5.5 0 0 0 .83.37 1.15 1.15 0 0 1 1.24-.15 3.19 3.19 0 0 1 .75.67 2.47 2.47 0 0 0 1.71 1 1.62 1.62 0 0 0 1.41-.55 3 3 0 0 0 .31-2.59c-.11-.32-.26-.63-.4-.95a3.46 3.46 0 0 1-.5-1.95c.17-.93 1.11-1.42 2.2-2a5 5 0 0 0 2.73-2.38c.61-1.62-.48-3.29-1.72-4.33-.12-.1-.27-.23-.29-.31a.85.85 0 0 1 0-.26 1.65 1.65 0 0 0-.8-1.79l-.22-.2a.74.74 0 0 1-.24-.54.92.92 0 0 1 .35 0 2.07 2.07 0 0 0 .65.06c.94-.09 1.22-1 1.45-1.65a4.16 4.16 0 0 1 .31-.78 2.82 2.82 0 0 1 .35-.44 3.71 3.71 0 0 0 .47-.6c.7-1.21 0-2.73-1-3.62a10.47 10.47 0 0 0-1.4-1 8.79 8.79 0 0 1-1.36-1c-.68-.63-1.11-1.68-.63-2.36a2.78 2.78 0 0 1 .28-.32 2 2 0 0 0 .64-1 2.12 2.12 0 0 0-.49-1.55 4 4 0 0 0-2.09-1.85 4 4 0 0 0-3 .78l-.6.33a6.18 6.18 0 0 1-4 .57c-.4-.08-.8-.19-1.2-.31a6.75 6.75 0 0 0-2.8-.28 6.82 6.82 0 0 0-2.7 1.2 5.82 5.82 0 0 1-2.3 1.06 5.9 5.9 0 0 1-1.67-.14 5.56 5.56 0 0 0-2.34-.08 6.59 6.59 0 0 0-1.54.67 3 3 0 0 1-1.73.57 4 4 0 0 1 0-.43 1.88 1.88 0 0 0-.21-1.49c-.31-.41-1-.79-2.33-.3a6.31 6.31 0 0 1-1.75.26 7.09 7.09 0 0 0-2 .31 2.05 2.05 0 0 0-1.08 1.14 2.15 2.15 0 0 0-.14 1.61.5.5 0 0 0 .14.19c.59.5 1.25 0 1.64-.23a3.13 3.13 0 0 0 .43-.33.71.71 0 0 1-.22.43 3.59 3.59 0 0 1-3.09 1l-.29-.06a4.29 4.29 0 0 0-.82-.1 4 4 0 0 0-1.33.31 8.36 8.36 0 0 0-4.1 2.52l-.76-.73a35 35 0 0 1 58.19 37.34 5.52 5.52 0 0 0-.85-.69zm-17.87-4.78l-.34-.34c-.91-.93-2.31-2.32-3.5-2.14a.5.5 0 0 0-.42.54 5.13 5.13 0 0 0 .58 1.55c.13.27.26.53.35.77a1.76 1.76 0 0 0 .67.67l.29.22a1.34 1.34 0 0 0 1.25.72 3.24 3.24 0 0 0 .78-.12 1.06 1.06 0 0 0 .8-.65 1.22 1.22 0 0 0-.46-1.22zm-.59.91c-.68.17-.8.07-.91-.13a2 2 0 0 0-.57-.53 3.55 3.55 0 0 1-.34-.27c-.1-.25-.24-.53-.37-.81l-.23-.48a10.2 10.2 0 0 1 2 1.67l.35.35.17.17zm10-22.43a1.78 1.78 0 0 0-1.27.05 1.29 1.29 0 0 0-.66.84 4 4 0 0 0 .19 1.98 3.56 3.56 0 0 1 .17 1.87 17.27 17.27 0 0 1-1.54 2.9c-.22.28-.89 1.24-.56 2a1.12 1.12 0 0 0 1.05.62h.06c1.59 0 3.39-3.37 3.64-4.07.31-.86.65-4.19-.18-5.5a1.29 1.29 0 0 0-.9-.69zm.15 5.79c-.41 1.15-2 3.41-2.69 3.41a.76.76 0 0 1-.2 0 1.65 1.65 0 0 1 .43-1 17.69 17.69 0 0 0 1.62-3.1 4.1 4.1 0 0 0-.12-2.51 3.69 3.69 0 0 1-.2-1.42c0-.17.12-.2.15-.22a.82.82 0 0 1 .53 0h.13s.12 0 .23.18c.65 1 .37 3.96.12 4.67zm8.46 12.83c-.2-.08-.4-.14-.6-.2a3.22 3.22 0 0 1-.88-.35 1.69 1.69 0 0 0-1.61-.12 1.42 1.42 0 0 0-.84 1.13c-.08.56.42 1.32 1.2 2.27l.43-.26-.39.32a1.52 1.52 0 0 0 1.11.6.94.94 0 0 0 .58-.2 1.31 1.31 0 0 0 .43-.78.94.94 0 0 1 .09-.26s.15-.07.38 0h.16a2 2 0 0 0 .92 0 .5.5 0 0 0 .37-.48 1.91 1.91 0 0 0-1.35-1.67zm-1.22 1.5a1.53 1.53 0 0 0-.3.67 1.21 1.21 0 0 0 0 .22.59.59 0 0 1-.34-.23v-.06c-.88-1.08-1-1.42-1-1.51a.42.42 0 0 1 .26-.35.68.68 0 0 1 .28-.06.66.66 0 0 1 .36.1 4 4 0 0 0 1.16.48c.18.05.35.1.52.17a1.77 1.77 0 0 1 .35.18 1.29 1.29 0 0 0-1.29.39zm-9.06-2a1.09 1.09 0 0 0 .22-1.23.5.5 0 0 0-.33-.24 2.22 2.22 0 0 0-1.61.27 3.85 3.85 0 0 0-.77.66 3.35 3.35 0 0 1-.52.47 4.82 4.82 0 0 1-.68.35c-.68.31-1.62.74-1.59 2a2.1 2.1 0 0 0 .94 1.87 1.82 1.82 0 0 0 .94.25 2.59 2.59 0 0 0 1.19-.32l.76-.4c.47-.25 1.35-.71 1.5-1.61a2.52 2.52 0 0 0-.14-1.11 1.17 1.17 0 0 1-.08-.72 1.6 1.6 0 0 1 .15-.2zm-1 1.22a1.74 1.74 0 0 1 .11.67c-.06.36-.5.63-1 .88l-.76.4a1.21 1.21 0 0 1-1.16.09 1.15 1.15 0 0 1-.45-1c0-.54.25-.7 1-1a5.73 5.73 0 0 0 .82-.43 4.22 4.22 0 0 0 .68-.61 3 3 0 0 1 .56-.5 1.19 1.19 0 0 1 .31-.13 2.17 2.17 0 0 0-.17.28 2 2 0 0 0 .04 1.4z"/></svg>