<svg data-name="Layer 2" xmlns="http://www.w3.org/2000/svg" viewBox="0 0 75.55 75.89"><title>Icon_RH_Miscellanious_Math-Equations_RGB_Black</title><path d="M46.77 46.82h-3.14a.5.5 0 0 0 0 1h3.14a.5.5 0 0 0 0-1zm-3.92-9.51a.5.5 0 1 0 0 1c2.28 0 3.17-.86 3.17-3.08v-9.17a.5.5 0 0 0-1 0v4.4a1.79 1.79 0 0 1-.47 1.17 2.32 2.32 0 0 1-1.73.58c-.91 0-2.13-.28-2.13-2.71v-3.28a.5.5 0 0 0-1 0v3.29c0 2.39 1.11 3.71 3.13 3.71a3.41 3.41 0 0 0 2.21-.68v2.69c.01 1.56-.26 2.08-2.15 2.08zm3.92 7.09h-3.14a.5.5 0 0 0 0 1h3.14a.5.5 0 0 0 0-1zM60.9 19.14c6.53 0 13.14 3.06 13.14 8.92 0 7.35-6.13 7.92-8 7.92-4.21 0-11.33-1.39-11.33-6.58 0-6 4.85-7.25 8.91-7.25a.75.75 0 0 0 0-1.5c-6.62 0-10.41 3.19-10.41 8.75s6.44 8.08 12.83 8.08c4.6 0 9.51-2.47 9.51-9.42s-7.36-10.42-14.64-10.42a.75.75 0 0 0 0 1.5zM69.14 49a.502.502 0 0 0-.71-.71 3.21 3.21 0 1 1-.11-4.64.5.5 0 0 0 .67-.74 4.21 4.21 0 1 0 .15 6.09zM49.88 20.81a.75.75 0 0 0-.75-.75h-28a.75.75 0 0 0-.73.58l-2.79 12.23-1.84-3.57a.75.75 0 1 0-1.34.68l2.75 5.42a.75.75 0 0 0 .67.41h.09a.75.75 0 0 0 .64-.58l3.19-13.67h27.4a.75.75 0 0 0 .71-.75zm17.56 9.27c-1.2.73-2.56 1.55-2.56 3a.5.5 0 0 0 .5.5h5a.5.5 0 0 0 0-1H66a5 5 0 0 1 2-1.63c1.19-.72 2.54-1.53 2.59-2.94a2.49 2.49 0 0 0-.65-1.84 2.71 2.71 0 0 0-2-.76 2.58 2.58 0 0 0-2.75 2.29.5.5 0 1 0 1 0 1.62 1.62 0 0 1 1.75-1.29 1.75 1.75 0 0 1 1.29.45 1.5 1.5 0 0 1 .37 1.11c-.09.86-1.1 1.46-2.16 2.11zm-21-23.73a.5.5 0 0 0 .31-.11 5.74 5.74 0 0 1 2.19-.89v7.27a.5.5 0 0 0 1 0V5.24h.15a5 5 0 0 1 1.92.49 7.8 7.8 0 0 0 1.44.47v6.44a.5.5 0 0 0 1 0V6.25a5.27 5.27 0 0 0 2.23-.68.5.5 0 1 0-.47-.88 3.78 3.78 0 0 1-3.83.09 5.85 5.85 0 0 0-2.29-.56 6.75 6.75 0 0 0-4 1.23.5.5 0 0 0 .31.89zm15.85 27.54a.5.5 0 0 0 .5-.5v-3.5h1.33a.5.5 0 1 0 0-1h-1.35v-2.66a.5.5 0 0 0-1 0v2.67h-2.83l1.17-4.37a.517.517 0 0 0-1-.26l-1.33 5a.5.5 0 0 0 .48.63h3.51v3.5a.5.5 0 0 0 .52.49zm-1.12 20.76a2.45 2.45 0 1 0 2.45 2.45 2.45 2.45 0 0 0-2.45-2.45zm0 3.9a1.45 1.45 0 1 1 1.45-1.45 1.45 1.45 0 0 1-1.45 1.45zm12.27-14.89h-1.15a3.59 3.59 0 0 0 1.56-2.34 1.55 1.55 0 0 0-1.6-1.62 1.65 1.65 0 0 0-1.79 1.49.5.5 0 0 0 .47.53.49.49 0 0 0 .53-.47c0-.06.06-.55.8-.55a.57.57 0 0 1 .6.63c0 .68-1.4 1.82-2.4 2.41a.5.5 0 0 0 .25.93h2.73a.5.5 0 0 0 0-1zm-13.31 2.53v3.29a.5.5 0 0 0 1 0v-3.29c0-2.39-1.11-3.71-3.13-3.71a3.27 3.27 0 0 0-2.45.89 2.48 2.48 0 0 0-.32.43 2.79 2.79 0 0 0-2.56-1.31 3.41 3.41 0 0 0-2.21.68v-.52a.5.5 0 0 0-1 0v7a.5.5 0 0 0 1 0v-4.42a1.8 1.8 0 0 1 .47-1.17 2.32 2.32 0 0 1 1.73-.58c.91 0 2.13.28 2.13 2.71v3.29a.5.5 0 0 0 1 0v-3.29a6.59 6.59 0 0 0 0-.74.5.5 0 0 0 0-.21 1.82 1.82 0 0 1 .48-1.18 2.33 2.33 0 0 1 1.73-.57c.91-.01 2.13.27 2.13 2.7zm-9.36 11.42a.5.5 0 0 0-.37-.17.5.5 0 0 0-.37.16l-2.26 2.41a.5.5 0 0 0 .74.67l1.31-1.43c-.5 10.1-10.77 11.45-14 11.62V57.31a.75.75 0 0 0-1.5 0v17.84a.75.75 0 0 0 .75.75h16.77a.75.75 0 1 0 0-1.5h-16v-2.52a21.61 21.61 0 0 0 7.93-1.93 11.88 11.88 0 0 0 7.09-10.71l1.28 1.44a.5.5 0 0 0 .75-.66zm-12-8.61a.502.502 0 0 0-.71-.71 3.21 3.21 0 0 1-5.44-1.77h6.88a.5.5 0 0 0 .5-.5 4.21 4.21 0 1 0-1.23 3zm-3-6.18a3.21 3.21 0 0 1 3.17 2.71h-6.27a3.21 3.21 0 0 1 3.16-2.71zm32.76 11.8l-9.9 9.9a.778.778 0 1 0 1.14 1.06l9.9-9.9a.75.75 0 0 0-1.06-1.06zm-1.42 6a2.45 2.45 0 1 0 2.45 2.45 2.45 2.45 0 0 0-2.38-2.42zm0 3.9a1.45 1.45 0 1 1 1.45-1.45 1.45 1.45 0 0 1-1.38 1.48zM9.33 31.95v-2.49a.5.5 0 0 0-1 0v1.94H1.5l3.27-4.37a.5.5 0 0 0 0-.6l-3.26-4.22h6.82v1.37a.5.5 0 0 0 1 0V21.7a.5.5 0 0 0-.5-.5H.5a.5.5 0 0 0-.4.81l3.67 4.72L.12 31.6a.5.5 0 0 0 .4.8h8.33a.5.5 0 0 0 .48-.45zm3.78-20.47l23.32 5.3h.17a.75.75 0 0 0 .73-.58L40.96.95a.75.75 0 0 0-1-.88L13.02 9.95a.75.75 0 0 0 .09 1.44zm22.93 3.67l-3.27-.78a3.21 3.21 0 0 1 1.31-2.07 4.23 4.23 0 0 1 2.72-.5zm3.14-13.2l-2.12 8.88a5.27 5.27 0 0 0-3.49.64 4.17 4.17 0 0 0-1.75 2.69l-15.91-3.63zM34.5 31.19a.5.5 0 0 0 .5-.5v-1.38h1.38a.5.5 0 0 0 0-1H35v-1.36a.5.5 0 0 0-1 0v1.38h-1.37a.5.5 0 0 0 0 1h1.38v1.37a.5.5 0 0 0 .49.49zm-10 20.21a11.08 11.08 0 1 0-11.12 11.08 11.1 11.1 0 0 0 11.08-11.09zm-1.5 0a9.54 9.54 0 0 1-2.55 6.49l-6.28-6.25 6.48-6.48a9.54 9.54 0 0 1 2.31 6.23zm-9.08-9.56A9.54 9.54 0 0 1 20 44.45l-6.08 6.08zM3.77 51.39a9.59 9.59 0 0 1 9.08-9.56v9.89a.5.5 0 0 0 .31.46h.14l6.37 6.37a9.57 9.57 0 0 1-15.9-7.16zm23.11 16c-1.8-1-4.47.7-7.33 2.63-2.84-2.15-5.47-4-7.31-3.09-1.1.54-1.63 1.93-1.63 4.24 0 1.88.47 3 1.43 3.55 1.79.95 4.41-.79 7.46-2.85 2.49 1.89 4.7 3.54 6.42 3.54a2.25 2.25 0 0 0 1-.23c1-.5 1.51-1.76 1.51-3.84s-.48-3.39-1.53-3.98zm-14.14 6c-.41-.22-.63-1-.63-2.22 0-1.61.28-2.64.8-2.89a.94.94 0 0 1 .43-.09c1.11 0 3.07 1.35 4.9 2.72-2.12 1.42-4.54 2.95-5.47 2.46zm13.52.44c-.94.46-3.41-1.31-5.45-2.85 2.12-1.41 4.39-2.78 5.37-2.26.49.26.76 1.19.76 2.62s-.23 2.25-.66 2.46zm3.14-48.14a.5.5 0 0 0-.7.1l-2 2.6-2-2.6a.503.503 0 0 0-.8.61l2.14 2.82-2.14 2.82a.503.503 0 0 0 .8.61l2-2.6 2 2.6a.503.503 0 0 0 .8-.61l-2.14-2.82 2.14-2.82a.5.5 0 0 0-.07-.74z"/></svg>