<svg data-name="Layer 2" xmlns="http://www.w3.org/2000/svg" viewBox="0 0 73.42 73.4"><title>Icon_RH_Miscellanious_GlobeA_RGB_Black</title><path d="M52.69 14.55a2.45 2.45 0 0 0 1.59.48.83.83 0 0 0 .66.34h.09a1.29 1.29 0 0 0 .56-.23 3.14 3.14 0 0 1 .68-.26 2.29 2.29 0 0 0 1.57-1.06 1.24 1.24 0 0 0-.58-1.67c-.45-.3-.64-.44-.75-.82 0-.14-.07-.29-.1-.43a4.36 4.36 0 0 0-.23-.83c-.4-1-1-1-1.32-1a1.91 1.91 0 0 0-1.37 1.44 2.47 2.47 0 0 0-1.28.83 2.36 2.36 0 0 0 .48 3.21zm.58-2.91a1.82 1.82 0 0 1 .7-.28.5.5 0 0 0 .43-.41 1.27 1.27 0 0 1 .58-1s.14.07.28.4a3.59 3.59 0 0 1 .18.64c0 .17.07.34.12.51a2.34 2.34 0 0 0 1.13 1.47c.32.22.31.25.23.41s-.53.4-1 .53a3.86 3.86 0 0 0-.94.39.5.5 0 0 0-.46-.3h-.08a1.58 1.58 0 0 1-1.2-.26 1.23 1.23 0 0 1-.5-.84 1.16 1.16 0 0 1 .53-1.26zm19.42 17.81a36.75 36.75 0 0 0-70.5-5.39 37.28 37.28 0 0 0 11 40.95 36.91 36.91 0 0 0 23.58 8.39 36.44 36.44 0 0 0 18.92-5.22 36.91 36.91 0 0 0 17-38.73zM60.81 12.33a2 2 0 0 1 0-.25v.08a2.83 2.83 0 0 0 0 .29 1.83 1.83 0 0 0 1.68 1.34 35.15 35.15 0 0 1 6.38 10.22.57.57 0 0 1-.2-.23c-.27-.55-.87-.3-1.06-.21a1.88 1.88 0 0 1-.91.2.46.46 0 0 1-.23-.13 1.88 1.88 0 0 1-.67-1.53v-.25a2.1 2.1 0 0 0-.06-1A5 5 0 0 0 63.91 19a.74.74 0 0 0-.84 0c-.42.28-.37.88-.28 1.43a6.57 6.57 0 0 0 .21.82 3.17 3.17 0 0 1 .21 1.12.65.65 0 0 1 0 .13 6.45 6.45 0 0 1-1.78-1.44l-.1-.1a3.59 3.59 0 0 1-.38-.47 2.51 2.51 0 0 0-1.2-1.05c-.93-.31-1.55.4-2 .87l-.06.13-.25.27a14 14 0 0 1-1.6 1.55 1.77 1.77 0 0 1-.92.24h-.22a2.19 2.19 0 0 1-1.51-.22.65.65 0 0 1-.23-.49 2.76 2.76 0 0 1 .48-2.15.6.6 0 0 1 .25 0 1 1 0 0 1 .4 0 1.91 1.91 0 0 1 .46.32 1.51 1.51 0 0 0 1.76.44 1.18 1.18 0 0 0 .52-1.7 2.92 2.92 0 0 0-.62-.73l-.69-.65h.21a1.24 1.24 0 0 0 .79-.58 1.08 1.08 0 0 1 .14-.18 2.15 2.15 0 0 1 .54-.25 4.51 4.51 0 0 0 .48-.2 5.52 5.52 0 0 0 1.53-1.28l.33-.35a3.8 3.8 0 0 1 .32-.28 2.14 2.14 0 0 0 .91-1.27 2.21 2.21 0 0 0 .04-.6zM50.59 5.19a.87.87 0 0 0 .17-.13.73.73 0 0 1 .15.14c.12.14.23.25-.24.85a1.69 1.69 0 0 1-2.14.41 1.62 1.62 0 0 1-.94-1.45 1.17 1.17 0 0 1 .38.17l.39.22a2 2 0 0 0 1.65.11 2.51 2.51 0 0 0 .58-.32zm-14.26-2a.93.93 0 0 0 .41-.57.71.71 0 0 0-.2-.65h.15a34.88 34.88 0 0 1 5.45.43c1 .16 2.06.39 3.07.65-.55.14-1.09.29-1.63.48a6.83 6.83 0 0 0-3.29 2.25 9.43 9.43 0 0 0-.69 1.15 5.79 5.79 0 0 1-.91 1.41.87.87 0 0 1-.68.33 1.07 1.07 0 0 1-.44-.31 7 7 0 0 1-1.52-2.26c-.41-.97-.5-2.28.28-2.88zm-7.64-.26a3.27 3.27 0 0 0 .57.44 5.86 5.86 0 0 0 .9.42l.5.21c.35.16.32.49-.11 1.47-.32.72-.57.86-.64.89a.15.15 0 0 1-.13 0 2.28 2.28 0 0 1-.57-.46 3.37 3.37 0 0 0-.76-.62l-.29-.14a.81.81 0 0 1-.4-.29 6 6 0 0 1-.43-.73l-.23-.41a2.12 2.12 0 0 0-.18-.27c.62-.19 1.2-.37 1.77-.51zm-14.2 60.54A35.26 35.26 0 0 1 3.81 25.54a8.76 8.76 0 0 0 .33 2.1c.09.29.17.59.24.9a5.09 5.09 0 0 0 1.75 3.25.55.55 0 0 0 .65 0 4.07 4.07 0 0 0 .19-3.18 1.32 1.32 0 0 1 0-1l.07-.16a13.13 13.13 0 0 0 6.73 8.58c.52.27 1.06.49 1.6.72a16 16 0 0 1 2.24 1.09 4.22 4.22 0 0 1 2.14 3 5.75 5.75 0 0 1-.43 2.12 8.55 8.55 0 0 0-.48 1.92c-.2 2.24 1.19 4 2.55 5.71a15.59 15.59 0 0 1 2 2.93c1.06 2.27.75 4.82.42 7.52s-.64 5.33.37 7.8c0 .11.1.22.15.33a34 34 0 0 1-9.84-5.7zm12.09 6.26c-.58.1-1.17-.6-1.46-1.29-.92-2.23-.62-4.69-.3-7.3s.67-5.54-.51-8.07a16.26 16.26 0 0 0-2.11-3.13c-1.29-1.62-2.5-3.15-2.33-5a7.7 7.7 0 0 1 .43-1.7 6.58 6.58 0 0 0 .48-2.5 5 5 0 0 0-2.61-3.78 17.05 17.05 0 0 0-2.38-1.16c-.52-.22-1-.44-1.54-.69a12.09 12.09 0 0 1-6.37-8.78.5.5 0 0 0-.25-.36.49.49 0 0 0-.44 0 2.18 2.18 0 0 0-1.12 1.29 2.31 2.31 0 0 0 0 1.79 3.14 3.14 0 0 1 .09 1.43 6.33 6.33 0 0 1-.82-2.15c-.08-.33-.16-.65-.26-1a11.56 11.56 0 0 1-.33-3.16v-1.08a34.93 34.93 0 0 1 19.8-18.86c-.64.73-1.27 1.49-1.85 2.28-.08.12-.21.29-.3.32a1 1 0 0 1-.46-.14l-.22-.1a2.66 2.66 0 0 0-3.53 3.26 5 5 0 0 0 2.29 2.43 3.43 3.43 0 0 1 1.71 1.95.5.5 0 0 0 .43.41.51.51 0 0 0 .52-.29 7.83 7.83 0 0 1 1.46-2.16 1.2 1.2 0 0 0 .3-.45 1.24 1.24 0 0 0 0-.68 3.18 3.18 0 0 1 0-1.7 1.77 1.77 0 0 1 1-1.09 1.14 1.14 0 0 1 1.24.31 3 3 0 0 1 .23.38 1.35 1.35 0 0 0 1.94.87h.13c.12 0 .43-.15 1 .81l2.25 3.66a3.42 3.42 0 0 1 .68 1.85 1.07 1.07 0 0 1-.44.76.48.48 0 0 1-.43.09 3.11 3.11 0 0 1-1.13-.9 3 3 0 0 0-1.46-1h-.18a1.56 1.56 0 0 0-1.36.13c-.62.46-.23 1.18 0 1.71a2.18 2.18 0 0 1 .36 2c-.21.44-.64.5-1.38.57a4.15 4.15 0 0 0-1.43.32 6.65 6.65 0 0 0-2.38 2.43 8.2 8.2 0 0 1-1.38 1.68c-1.21 1-2.57 2.42-2.36 4.38a5.91 5.91 0 0 1-.08 1.12 1.35 1.35 0 0 1-.59-.61c-.42-1.47-1.09-2.34-2-2.59-1.4-.38-2.89.83-4 1.94a3.36 3.36 0 0 0-1 3.25 2.54 2.54 0 0 0 1.31 1.54 2.1 2.1 0 0 0 1.71.1c.18-.07.35-.15.51-.23a3.23 3.23 0 0 1 .76-.3c.55-.1.79.23 1.2 1l.14.26a9.28 9.28 0 0 0 1.93 2.25 4.57 4.57 0 0 0 4.31 1c2.08-.45 4.14 1.33 6 2.9l.57.49c.49.42 1 .85 1.44 1.28a19 19 0 0 0 4.89 3.57l.72.3a8.15 8.15 0 0 1 1.38.64l.2.14a1.75 1.75 0 0 1 .8 1.74 2.65 2.65 0 0 1-.69 1 4.93 4.93 0 0 0-.72.89 4.71 4.71 0 0 0-.48 2.3 4.73 4.73 0 0 1-.25 1.66 4.59 4.59 0 0 1-1.76 1.68 7.52 7.52 0 0 0-1.67 1.48 7.2 7.2 0 0 0-.91 1.78 9.92 9.92 0 0 1-.48 1.09c-.4.74-1.2 1.4-1.91 1.19a.5.5 0 0 0-.61.66c.18.46-.27 1-.76 1.4l-.5.33a4.1 4.1 0 0 0-1.47 1.3 4.18 4.18 0 0 0-.36 2.49v.59c.05.69-.18 1.69-.85 1.78zm28.11-3.26a35 35 0 0 1-27 3.73 3.24 3.24 0 0 0 .77-2.28v-.63a3.35 3.35 0 0 1 .23-1.91 3.31 3.31 0 0 1 1.15-1l.55-.36a2.74 2.74 0 0 0 1.22-1.83 3.18 3.18 0 0 0 2.36-1.75 10.91 10.91 0 0 0 .53-1.2 6.34 6.34 0 0 1 .77-1.54 6.68 6.68 0 0 1 1.42-1.23 5.38 5.38 0 0 0 2-2.15 5.57 5.57 0 0 0 .33-2 3.91 3.91 0 0 1 .35-1.84 4.09 4.09 0 0 1 .58-.7 3.47 3.47 0 0 0 .92-1.35 2.71 2.71 0 0 0-1.18-2.84l-.25-.17a9 9 0 0 0-1.51-.78l-.68-.28a18 18 0 0 1-4.62-3.4c-.49-.44-1-.88-1.47-1.3l-.57-.49c-1.89-1.64-4.25-3.67-6.82-3.12a3.59 3.59 0 0 1-3.42-.78 8.07 8.07 0 0 1-1.66-2l-.13-.25c-.37-.72-.94-1.81-2.28-1.55a4 4 0 0 0-1 .38l-.44.2a1.11 1.11 0 0 1-.9-.07 1.55 1.55 0 0 1-.79-.92 2.4 2.4 0 0 1 .75-2.26c.5-.49 2-2 3.07-1.69.54.15 1 .78 1.29 1.9a2.21 2.21 0 0 0 1.37 1.32.88.88 0 0 0 .88-.22c.44-.45.37-2 .37-2-.16-1.48.93-2.6 2-3.51a9.06 9.06 0 0 0 1.56-1.88 5.84 5.84 0 0 1 2-2.1 3.29 3.29 0 0 1 1.09-.23 2.35 2.35 0 0 0 2.16-1.08 3.08 3.08 0 0 0-.37-2.93c-.08-.15-.18-.33-.23-.46a2.16 2.16 0 0 1 .43.07h.21a2.36 2.36 0 0 1 .92.75 3.87 3.87 0 0 0 1.56 1.17 1.48 1.48 0 0 0 1.3-.21 2.08 2.08 0 0 0 .88-1.52 4.32 4.32 0 0 0-.82-2.42l-2.23-3.73c-.66-1.1-1.4-1.52-2.2-1.24l-.16.06a.83.83 0 0 1-.3.09c-.13 0-.27-.26-.4-.51a4 4 0 0 0-.31-.5 2.15 2.15 0 0 0-2.36-.65 2.74 2.74 0 0 0-1.63 1.71 4.14 4.14 0 0 0-.08 2.26v.12l-.09.1a8.83 8.83 0 0 0-1.12 1.5 6.11 6.11 0 0 0-1.72-1.54 4.18 4.18 0 0 1-1.87-1.89 1.66 1.66 0 0 1 2.2-2l.18.08a1.62 1.62 0 0 0 1.16.19 1.65 1.65 0 0 0 .83-.68 34.67 34.67 0 0 1 2.27-2.76 1.28 1.28 0 0 1 .38-.31.91.91 0 0 1 .11.17l.21.38a6.74 6.74 0 0 0 .51.85 1.75 1.75 0 0 0 .77.6l.24.12a2.54 2.54 0 0 1 .53.44 3.1 3.1 0 0 0 .85.66 1.14 1.14 0 0 0 .91 0 2.43 2.43 0 0 0 1.21-1.43c.31-.69.94-2.14-.38-2.77l-.57-.24c-.16-.06-.3-.14-.44-.2a34.35 34.35 0 0 1 5-.6 1.38 1.38 0 0 0 .46.45h.06c-1.06.93-1 2.63-.46 3.94a8 8 0 0 0 1.74 2.59 1.94 1.94 0 0 0 .94.58h.28a1.9 1.9 0 0 0 1.32-.64 6.67 6.67 0 0 0 1.07-1.6 8.41 8.41 0 0 1 .62-1 5.87 5.87 0 0 1 2.82-1.91 22.48 22.48 0 0 1 2.23-.63l1-.25c.88.28 1.75.6 2.6 1a1 1 0 0 1-.83-.07l-.32-.18a2.11 2.11 0 0 0-1.32-.35h-.06a.5.5 0 0 0-.36.22.51.51 0 0 0-.06.13 2.57 2.57 0 0 0 1.4 3 3 3 0 0 0 1.33.32 2.54 2.54 0 0 0 2-1 2.47 2.47 0 0 0 .53-1 35.72 35.72 0 0 1 8.12 5.65 1.23 1.23 0 0 0-.33.72 3 3 0 0 0 0 .4 1.37 1.37 0 0 1 0 .31c0 .24-.28.44-.56.66a4.85 4.85 0 0 0-.4.36l-.35.37a4.67 4.67 0 0 1-1.25 1.07 3.52 3.52 0 0 1-.37.15 2.92 2.92 0 0 0-.81.41 1.76 1.76 0 0 0-.33.37 1 1 0 0 1-.15.18h-.17a1.1 1.1 0 0 0-1 .38.81.81 0 0 0 0 .82 1.54 1.54 0 0 0 .37.46l.77.72a2.11 2.11 0 0 1 .42.47c.09.16.1.23-.12.36s-.24 0-.64-.33a2.47 2.47 0 0 0-.79-.5 1.9 1.9 0 0 0-.88-.03 1.54 1.54 0 0 0-.76.28c-1 .76-.92 2.49-.88 3a1.64 1.64 0 0 0 .58 1.18 3 3 0 0 0 2.25.45h.21a2.6 2.6 0 0 0 1.44-.44 14.73 14.73 0 0 0 1.73-1.67l.25-.27.21-.24c.42-.48.63-.66.88-.58a1.7 1.7 0 0 1 .71.69 4.46 4.46 0 0 0 .48.6l.1.1c1.37 1.35 2.42 2.14 3.09 1.56a1.25 1.25 0 0 0 .4-.89 3.94 3.94 0 0 0-.25-1.5 5.66 5.66 0 0 1-.18-.69v-.12a3.33 3.33 0 0 1 1 1.1 1.35 1.35 0 0 1 0 .54v.3a2.9 2.9 0 0 0 1 2.36 1.39 1.39 0 0 0 .81.36 2.85 2.85 0 0 0 1.31-.26 2 2 0 0 0 1.38.68c.17.47.32 1 .47 1.43a1.83 1.83 0 0 0-.34 0 3.78 3.78 0 0 0-.74.12 2.32 2.32 0 0 1-.67.1 2.28 2.28 0 0 1-.81-.39c-.54-.34-1.28-.81-2-.22a1.57 1.57 0 0 0-.47.78 1.24 1.24 0 0 1-.14-.18 1.37 1.37 0 0 0-.82-.65 3.34 3.34 0 0 0-.41-.07h-.29a1.43 1.43 0 0 1-.82-.88 2.43 2.43 0 0 1-.11-.46 1.87 1.87 0 0 0-.7-1.33 1.83 1.83 0 0 0-.81-.39 8.73 8.73 0 0 0-4.32.72 3.26 3.26 0 0 1-1.15.2 4.18 4.18 0 0 0-1.31.22 4.09 4.09 0 0 0-1.89 2.21 6.88 6.88 0 0 0-.24.7 1.13 1.13 0 0 1-.72.93 3.91 3.91 0 0 0-1.69 1.86 8 8 0 0 0-.61 3.37v1s-.06.61-.1.91a11.4 11.4 0 0 0-.12 1.34c0 2.3 1.84 4.33 3.7 5.15a5.42 5.42 0 0 0 3.77 0 5.82 5.82 0 0 1 2.49-.27c.83.15 2 .77 1.88 1.59a4.31 4.31 0 0 1-.1.45 3.05 3.05 0 0 0 .67 3c.11.18.23.37.33.55a4.87 4.87 0 0 1 .57 2.75 4.57 4.57 0 0 1-.37 1.26 3.92 3.92 0 0 0-.39 2.3 4.54 4.54 0 0 0 .54 1.29 5.67 5.67 0 0 1 .35.71 5.57 5.57 0 0 1 .24 1.9v.9a7.51 7.51 0 0 0 .39 1.77 34.67 34.67 0 0 1-7.92 6.62zm8.7-7.55a5.4 5.4 0 0 1-.17-.93v-.84a6.42 6.42 0 0 0-.31-2.24 6.73 6.73 0 0 0-.41-.84 3.71 3.71 0 0 1-.44-1 3 3 0 0 1 .34-1.73 5.41 5.41 0 0 0 .44-1.55 5.87 5.87 0 0 0-.69-3.32c-.11-.2-.24-.4-.36-.6a3.08 3.08 0 0 1-.66-1.61 3 3 0 0 1 .11-.62 5.64 5.64 0 0 0 .12-.56c.22-1.58-1.53-2.5-2.68-2.72a6.61 6.61 0 0 0-2.99.28 4.57 4.57 0 0 1-3.12.06c-1.52-.67-3.13-2.38-3.1-4.22a10.37 10.37 0 0 1 .11-1.22c0-.32.08-.65.11-1s0-.68 0-1a7.11 7.11 0 0 1 .52-3 2.92 2.92 0 0 1 1.23-1.39 2.09 2.09 0 0 0 1.23-1.54 5.77 5.77 0 0 1 .2-.6 3.21 3.21 0 0 1 1.33-1.66 3.37 3.37 0 0 1 1-.15 4.13 4.13 0 0 0 1.58-.28 7.81 7.81 0 0 1 3.82-.63 1 1 0 0 1 .42.1c.15.1.2.33.27.69a3.49 3.49 0 0 0 .17.65 2.33 2.33 0 0 0 1.49 1.47 3.35 3.35 0 0 0 .42.08h.29c.08 0 .12.07.24.24a1.51 1.51 0 0 0 .59.57.84.84 0 0 0 1.32-.61.78.78 0 0 1 .16-.34c.13-.1.29 0 .82.29a3 3 0 0 0 1.24.54 3 3 0 0 0 1-.12 3 3 0 0 1 .54-.1 3.39 3.39 0 0 1 .46.05h.17c.2.73.39 1.47.54 2.22a34.85 34.85 0 0 1-7.38 29.19z"/></svg>