<svg xmlns="http://www.w3.org/2000/svg" viewBox="0 0 108 108"><defs><style>.a{fill:#fff;}</style></defs><title>Icon_RH_Miscellaneous_MapPin_RGB_White</title><path class="a" d="M55 82.11v-46a9.64 9.64 0 1 0-2 0v46c-4.78.19-9.32 1.7-9.32 4.43C43.68 89.47 48.87 91 54 91s10.32-1.53 10.32-4.46c0-2.73-4.54-4.25-9.32-4.43zm-8.64-55.62A7.64 7.64 0 1 1 54 34.13a7.65 7.65 0 0 1-7.64-7.64zM54 89c-5.16 0-8.32-1.59-8.32-2.46s2.75-2.24 7.32-2.43v2.57a1 1 0 0 0 2 0v-2.57c4.57.19 7.32 1.63 7.32 2.43S59.16 89 54 89z"/></svg>