<?xml version="1.0" encoding="utf-8"?>
<!-- Generator: Adobe Illustrator 17.1.0, SVG Export Plug-In . SVG Version: 6.00 Build 0)  -->
<!DOCTYPE svg PUBLIC "-//W3C//DTD SVG 1.1//EN" "http://www.w3.org/Graphics/SVG/1.1/DTD/svg11.dtd">
<svg version="1.1" id="Layer_1" xmlns="http://www.w3.org/2000/svg" xmlns:xlink="http://www.w3.org/1999/xlink" x="0px" y="0px"
	 viewBox="0 0 144 144" enable-background="new 0 0 144 144" xml:space="preserve">
<g>
	<g>
		<g>
			<path fill="#FFFFFF" d="M92.366,96.178h-2.119c-8.397,0-10.91-4.871-11.604-7.002H42.298c-2.174,0-3.942-1.768-3.942-3.941
				V56.807c0-2.176,1.769-3.945,3.942-3.945H101.7c2.174,0,3.944,1.769,3.944,3.945v28.428c0,2.174-1.771,3.941-3.944,3.941H91.355
				c-0.623,0.397-1.002,0.889-1.149,1.499c-0.403,1.673,0.955,3.73,0.97,3.751L92.366,96.178z M42.298,55.104
				c-0.937,0-1.701,0.764-1.701,1.703v28.428c0,0.938,0.765,1.701,1.701,1.701h38.193l0.127,0.977
				c0.032,0.221,0.826,5.171,7.774,5.928c-0.387-1.034-0.683-2.376-0.365-3.69c0.317-1.313,1.154-2.349,2.488-3.077l0.252-0.137
				H101.7c0.938,0,1.702-0.764,1.702-1.701V56.807c0-0.939-0.764-1.703-1.702-1.703H42.298z"/>
		</g>
	</g>
</g>
</svg>
