<?xml version="1.0" encoding="utf-8"?>
<!-- Generator: Adobe Illustrator 17.1.0, SVG Export Plug-In . SVG Version: 6.00 Build 0)  -->
<!DOCTYPE svg PUBLIC "-//W3C//DTD SVG 1.1//EN" "http://www.w3.org/Graphics/SVG/1.1/DTD/svg11.dtd">
<svg version="1.1" id="Layer_1" xmlns="http://www.w3.org/2000/svg" xmlns:xlink="http://www.w3.org/1999/xlink" x="0px" y="0px"
	 viewBox="0 0 216 216" enable-background="new 0 0 216 216" xml:space="preserve">
<g>
	<path fill="#231F20" d="M139.035,103.931c-2.93-9.574-11.861-16.211-21.923-16.211c-10.089,0-18.944,6.576-21.901,16.121
		c-1.644-0.586-3.361-0.883-5.119-0.883c-7.135,0-13.273,4.908-14.89,11.783c-6.375,0.234-11.747,4.662-13.167,10.932
		c-0.062,0.281,0.004,0.578,0.186,0.805c0.181,0.225,0.453,0.357,0.743,0.357h32.792c-0.147,1.019-0.227,2.058-0.227,3.116
		c0,11.957,9.728,21.686,21.686,21.686c11.957,0,21.686-9.729,21.686-21.686c0-1.059-0.08-2.098-0.227-3.116h14.323
		c0.463,0,0.859-0.334,0.938-0.791c0.201-1.164,0.299-2.236,0.299-3.277C154.232,113.665,147.875,105.837,139.035,103.931z
		 M117.215,149.637c-10.854,0-19.686-8.831-19.686-19.686c0-10.855,8.831-19.687,19.686-19.687c10.854,0,19.686,8.831,19.686,19.687
		C136.9,140.806,128.069,149.637,117.215,149.637z M152.18,124.933h-13.872c-2.271-9.545-10.863-16.668-21.093-16.668
		c-10.23,0-18.822,7.123-21.093,16.668H64.214c1.636-4.941,6.215-8.295,11.585-8.295h0.008l0.146,0.006
		c0.482,0.045,0.875-0.32,0.959-0.781c1.155-6.375,6.698-11.002,13.18-11.002c1.736,0,3.423,0.344,5.027,0.996
		c0.992,0.483,3.113,1.709,4.423,3.908c0.156,0.26,0.451,0.387,0.737,0.336c0.083-0.016,0.165-0.043,0.24-0.09
		c0.338-0.201,0.449-0.639,0.248-0.977c-1.127-1.891-2.729-3.137-3.949-3.877c2.471-9.156,10.782-15.535,20.294-15.535
		c9.14,0,17.202,5.844,19.966,14.49c-2.455-0.016-4.279,0.871-4.389,0.916c-0.361,0.15-0.537,0.566-0.385,0.932
		c0.15,0.363,0.566,0.537,0.93,0.387c0.027-0.012,2.541-1.012,5.4-0.539c7.965,1.721,13.695,8.76,13.695,16.959
		C152.33,123.462,152.281,124.175,152.18,124.933z"/>
	<path fill="#231F20" d="M128.742,128.832c-0.987,0-1.838,0.559-2.28,1.37l-3.462-1c0.003-0.075,0.012-0.148,0.012-0.224
		c0-2.01-0.957-3.795-2.436-4.938l1.879-2.802c0.083,0.011,0.166,0.025,0.252,0.025c1.137,0,2.061-0.925,2.061-2.062
		c0-1.136-0.924-2.06-2.061-2.06c-1.138,0-2.062,0.924-2.062,2.06c0,0.614,0.274,1.159,0.701,1.538l-1.785,2.662
		c-0.841-0.423-1.786-0.666-2.789-0.666c-1.896,0-3.596,0.853-4.741,2.192l-2.565-2.121c0.182-0.355,0.295-0.751,0.295-1.177
		c0-1.429-1.162-2.59-2.592-2.59c-1.429,0-2.592,1.161-2.592,2.59c0,1.43,1.163,2.592,2.592,2.592c0.569,0,1.091-0.189,1.519-0.501
		l2.652,2.192c-0.513,0.906-0.81,1.95-0.81,3.064c0,1.489,0.525,2.857,1.399,3.931l-1.731,1.44c-0.349-0.233-0.766-0.37-1.215-0.37
		c-1.206,0-2.186,0.981-2.186,2.188c0,1.206,0.98,2.188,2.186,2.188c1.206,0,2.188-0.982,2.188-2.188c0-0.322-0.074-0.625-0.199-0.9
		l1.804-1.5c1.084,0.906,2.478,1.453,3.997,1.453c0.747,0,1.461-0.139,2.125-0.381l1.466,3.914c-1.1,0.598-1.857,1.75-1.857,3.088
		c0,1.945,1.583,3.527,3.528,3.527c1.944,0,3.525-1.582,3.525-3.527c0-1.945-1.581-3.527-3.525-3.527
		c-0.184,0-0.359,0.027-0.535,0.054l-1.516-4.047c1.419-0.856,2.469-2.258,2.858-3.915l3.302,0.954
		c-0.001,0.028-0.009,0.056-0.009,0.085c0,1.438,1.17,2.608,2.608,2.608c1.439,0,2.609-1.17,2.609-2.608
		C131.352,130.004,130.182,128.832,128.742,128.832z M122.707,118.342c0.475,0,0.861,0.386,0.861,0.86
		c0,0.476-0.387,0.863-0.861,0.863c-0.476,0-0.863-0.388-0.863-0.863C121.844,118.728,122.231,118.342,122.707,118.342z
		 M107.168,123.023c-0.768,0-1.392-0.625-1.392-1.393c0-0.767,0.625-1.391,1.392-1.391c0.767,0,1.392,0.624,1.392,1.391
		C108.56,122.398,107.935,123.023,107.168,123.023z M108.982,137.155c-0.544,0-0.986-0.443-0.986-0.988
		c0-0.545,0.442-0.988,0.986-0.988c0.545,0,0.988,0.443,0.988,0.988C109.971,136.712,109.527,137.155,108.982,137.155z
		 M122.033,139.513c1.282,0,2.326,1.045,2.326,2.328c0,1.283-1.044,2.328-2.326,2.328c-1.284,0-2.329-1.045-2.329-2.328
		C119.704,140.558,120.749,139.513,122.033,139.513z M116.771,134.02c-2.78,0-5.043-2.262-5.043-5.042s2.263-5.043,5.043-5.043
		c2.779,0,5.041,2.263,5.041,5.043S119.551,134.02,116.771,134.02z M128.742,132.854c-0.776,0-1.409-0.633-1.409-1.409
		c0-0.779,0.633-1.413,1.409-1.413c0.777,0,1.41,0.634,1.41,1.413C130.152,132.221,129.52,132.854,128.742,132.854z"/>
</g>
</svg>
