<?xml version="1.0" encoding="utf-8"?>
<!-- Generator: Adobe Illustrator 17.1.0, SVG Export Plug-In . SVG Version: 6.00 Build 0)  -->
<!DOCTYPE svg PUBLIC "-//W3C//DTD SVG 1.1//EN" "http://www.w3.org/Graphics/SVG/1.1/DTD/svg11.dtd">
<svg version="1.1" id="Layer_1" xmlns="http://www.w3.org/2000/svg" xmlns:xlink="http://www.w3.org/1999/xlink" x="0px" y="0px"
	 viewBox="0 0 216 216" enable-background="new 0 0 216 216" xml:space="preserve">
<path fill="#FFFFFF" d="M149.826,94.519l-4.969-2.894c-0.113-0.065-0.251-0.085-0.379-0.051c-0.129,0.034-0.238,0.117-0.304,0.231
	l-0.991,1.702l-3.628,6.228c-1.171-1.447-1.153-1.427-2.593-3.228c-4.26-4.989-10.569-8.079-17.42-8.079
	c-10.086,0-18.943,6.575-21.9,16.121c-1.643-0.587-3.361-0.884-5.119-0.884c-7.135,0-13.273,4.91-14.891,11.785
	c-6.375,0.234-11.746,4.662-13.166,10.932c-0.062,0.281,0.004,0.576,0.186,0.805c0.18,0.225,0.455,0.355,0.742,0.355h61.399
	c0.001-0.001,0.002-0.003,0.003-0.004c0.098,0.02,0.274,0.029,0.38,0.022c0.025-0.002,0.045-0.019,0.069-0.022
	c0.021,0.005,0.038,0.018,0.059,0.021c0.108,0.013,0.219-0.009,0.315-0.066l5.35-3.163c0.007-0.004,0.01-0.013,0.017-0.018
	c0.064-0.042,0.122-0.094,0.16-0.161l0.003-0.004c0,0,0.001,0,0.001-0.002l4.479-7.69l4.744-8.146l7.634-13.106
	C150.145,94.964,150.065,94.659,149.826,94.519z M66.645,125.643c1.637-4.941,6.217-8.295,11.586-8.295h0.01l0.145,0.006
	c0.482,0.045,0.873-0.32,0.957-0.781c1.158-6.375,6.699-11.003,13.182-11.003c1.734,0,3.424,0.345,5.027,0.996
	c0.99,0.481,3.113,1.709,4.422,3.909c0.156,0.26,0.453,0.387,0.736,0.336c0.084-0.018,0.166-0.043,0.242-0.09
	c0.338-0.201,0.449-0.639,0.248-0.977c-1.127-1.892-2.729-3.138-3.949-3.877c2.471-9.158,10.783-15.535,20.293-15.535
	c6.646,0,12.713,3.094,16.595,8.103c1.408,1.626,2.298,3.218,2.3,3.221l-4.805,8.248l-4.055,6.962l-2.264,3.888
	c-0.038,0.064-0.057,0.136-0.062,0.207c-0.001,0.004-0.004,0.008-0.005,0.014l-0.294,4.668H66.645z M130.196,124.809l-2.184-0.073
	l0.182-2.89l3.252,1.894l0.28,0.163L130.196,124.809z M132.534,123.216l-2.49-1.45l-1.614-0.94l5.089-8.736l0.272-0.469
	l10.051-17.257l0.009-0.004l-0.003-0.005l0.938-1.613l4.104,2.391L132.534,123.216z"/>
</svg>
