<?xml version="1.0" encoding="utf-8"?>
<!-- Generator: Adobe Illustrator 17.1.0, SVG Export Plug-In . SVG Version: 6.00 Build 0)  -->
<!DOCTYPE svg PUBLIC "-//W3C//DTD SVG 1.1//EN" "http://www.w3.org/Graphics/SVG/1.1/DTD/svg11.dtd">
<svg version="1.1" id="Layer_1" xmlns="http://www.w3.org/2000/svg" xmlns:xlink="http://www.w3.org/1999/xlink" x="0px" y="0px"
	 viewBox="0 0 108 108" enable-background="new 0 0 108 108" xml:space="preserve">
<g>
	<g>
		<g>
			<path fill="#FFFFFF" d="M62.832,30.003c-4.665,0-8.46,3.794-8.46,8.458c0,4.664,3.795,8.458,8.46,8.458
				c4.664,0,8.458-3.795,8.458-8.458C71.29,33.797,67.497,30.003,62.832,30.003z M69.856,38.461c0,3.874-3.15,7.024-7.023,7.024
				c-3.873,0-7.025-3.151-7.025-7.024c0-3.873,3.152-7.024,7.025-7.024C66.705,31.437,69.856,34.588,69.856,38.461z"/>
			<path fill="#FFFFFF" d="M70.34,59.368h-5.228c-0.128,0-0.251,0.05-0.34,0.141c-0.091,0.091-0.139,0.214-0.138,0.341l0.008,4.264
				c0.002,0.184,0.108,0.351,0.275,0.43l2.609,1.216c0.064,0.029,0.133,0.045,0.202,0.045c0.067,0,0.134-0.014,0.196-0.042
				l2.61-1.175c0.172-0.076,0.282-0.246,0.282-0.435v-4.307C70.819,59.582,70.606,59.368,70.34,59.368z M65.596,60.324h4.267v3.519
				L67.734,64.8l-2.138-0.997V60.324z"/>
			<path fill="#FFFFFF" d="M83.274,39.773c-2.802-9.154-11.341-15.499-20.961-15.499c-9.645,0-18.111,6.288-20.939,15.413
				c-1.571-0.56-3.214-0.844-4.894-0.844c-6.822,0-12.69,4.694-14.235,11.267c-6.096,0.224-11.232,4.458-12.59,10.452
				c-0.061,0.269,0.003,0.553,0.177,0.769c0.173,0.214,0.434,0.341,0.71,0.341c0,0,29.181,0.005,34.415,0.001
				c-0.045,1.543,0.016,3.018,0.069,4.293c0.025,0.619,0.05,1.194,0.059,1.706c0.097,5.531,2.026,7.498,6.009,10.383v2.479
				c0,0.139,0.039,0.275,0.116,0.392c0.2,0.306,2.224,2.984,11.951,3.226c0.343,0.007,0.674,0.011,0.997,0.011
				c8.715,0,10.304-2.985,10.46-3.336c0.04-0.093,0.062-0.192,0.062-0.292v-1.979c4.287-3.064,5.929-4.873,6.032-10.884
				c0.009-0.538,0.036-1.146,0.066-1.803c0.056-1.249,0.118-2.689,0.083-4.197h15.76c0.443,0,0.822-0.318,0.896-0.756
				c0.191-1.113,0.285-2.138,0.285-3.134C97.803,49.08,91.727,41.595,83.274,39.773z M95.841,59.853H80.766
				c-0.258-3.032-1.062-6.145-3.243-8.426c-2.15-2.249-5.377-3.389-9.589-3.389h-9.946c-4.224,0-7.465,1.146-9.632,3.407
				c-2.188,2.282-3.014,5.383-3.29,8.409H11.739c1.563-4.724,5.942-7.931,11.076-7.931h0.008l0.139,0.005
				c0.461,0.043,0.836-0.306,0.916-0.746c1.104-6.095,6.405-10.519,12.602-10.519c1.659,0,3.272,0.328,4.807,0.952
				c0.948,0.461,2.977,1.634,4.229,3.737c0.149,0.248,0.432,0.37,0.704,0.321c0.081-0.016,0.159-0.041,0.23-0.086
				c0.323-0.192,0.43-0.611,0.236-0.934c-1.077-1.807-2.607-2.999-3.775-3.706c2.362-8.755,10.307-14.854,19.401-14.854
				c8.74,0,16.448,5.588,19.09,13.855c-2.346-0.016-4.092,0.833-4.195,0.876c-0.346,0.143-0.513,0.541-0.369,0.89
				c0.143,0.348,0.543,0.514,0.891,0.37c0.025-0.012,2.429-0.968,5.163-0.515c7.612,1.646,13.092,8.375,13.092,16.214
				C95.984,58.447,95.937,59.129,95.841,59.853z M79.345,65.804c-0.03,0.673-0.057,1.293-0.066,1.844
				c-0.085,5.01-1.229,6.635-4.598,9.133V60.469c0-0.396-0.322-0.717-0.717-0.717c-0.396,0-0.717,0.321-0.717,0.717v19.858
				c-0.377,0.496-2.4,2.591-10.05,2.389c-7.726-0.191-10.149-1.971-10.668-2.455V60.817c0-0.396-0.321-0.718-0.717-0.718
				s-0.717,0.321-0.717,0.718v15.455c-3.16-2.38-4.497-4.115-4.575-8.624c-0.009-0.523-0.034-1.109-0.06-1.744
				c-0.167-3.973-0.419-9.975,2.93-13.467c1.887-1.967,4.779-2.965,8.597-2.965h9.946c3.806,0,6.683,0.992,8.551,2.946
				C79.793,55.879,79.525,61.852,79.345,65.804z"/>
		</g>
	</g>
</g>
</svg>
