<?xml version="1.0" encoding="utf-8"?>
<!-- Generator: Adobe Illustrator 17.1.0, SVG Export Plug-In . SVG Version: 6.00 Build 0)  -->
<!DOCTYPE svg PUBLIC "-//W3C//DTD SVG 1.1//EN" "http://www.w3.org/Graphics/SVG/1.1/DTD/svg11.dtd">
<svg version="1.1" id="Layer_1" xmlns="http://www.w3.org/2000/svg" xmlns:xlink="http://www.w3.org/1999/xlink" x="0px" y="0px"
	 viewBox="0 0 216 216" enable-background="new 0 0 216 216" xml:space="preserve">
<g>
	<path d="M138.764,104.067c-2.93-9.574-11.86-16.211-21.922-16.211c-10.088,0-18.944,6.576-21.901,16.121
		c-1.644-0.586-3.361-0.883-5.119-0.883c-7.135,0-13.273,4.908-14.89,11.783c-6.375,0.234-11.747,4.662-13.167,10.932
		c-0.062,0.281,0.004,0.578,0.186,0.805c0.181,0.225,0.454,0.357,0.743,0.357h90.032c0.463,0,0.859-0.334,0.938-0.791
		c0.2-1.164,0.298-2.236,0.298-3.277C153.961,113.802,147.604,105.974,138.764,104.067z M151.909,125.069H63.943
		c1.636-4.941,6.215-8.295,11.585-8.295h0.009l0.146,0.006c0.482,0.045,0.875-0.32,0.959-0.781
		c1.155-6.375,6.698-11.002,13.18-11.002c1.736,0,3.423,0.344,5.027,0.996c0.992,0.482,3.113,1.709,4.423,3.908
		c0.156,0.26,0.452,0.387,0.737,0.336c0.083-0.016,0.165-0.043,0.24-0.09c0.338-0.201,0.449-0.639,0.248-0.977
		c-1.127-1.891-2.729-3.137-3.949-3.877c2.471-9.156,10.782-15.535,20.294-15.535c9.14,0,17.202,5.844,19.965,14.49
		c-2.454-0.016-4.279,0.871-4.388,0.916c-0.361,0.15-0.537,0.566-0.386,0.932c0.15,0.363,0.567,0.537,0.931,0.387
		c0.027-0.012,2.541-1.012,5.4-0.539c7.964,1.721,13.694,8.76,13.694,16.959C152.059,123.599,152.01,124.312,151.909,125.069z"/>
</g>
</svg>
