<?xml version="1.0" encoding="utf-8"?>
<!-- Generator: Adobe Illustrator 19.1.0, SVG Export Plug-In . SVG Version: 6.00 Build 0)  -->
<svg version="1.1" id="Layer_1" xmlns="http://www.w3.org/2000/svg" xmlns:xlink="http://www.w3.org/1999/xlink" x="0px" y="0px"
	 viewBox="0 0 216 216" enable-background="new 0 0 216 216" xml:space="preserve">
<path fill="none" d="M125.231,90.16c-20.571,0-37.306,16.738-37.306,37.31c0,20.572,16.735,37.31,37.306,37.31
	c20.574,0,37.313-16.737,37.313-37.31C162.544,106.898,145.805,90.16,125.231,90.16z"/>
<g>
	<g>
		<path fill="none" d="M165.828,81.711c-5.419-0.896-10.184,0.999-10.235,1.022c-0.689,0.285-1.477-0.044-1.762-0.733
			c-0.289-0.692,0.044-1.481,0.729-1.766c0.207-0.085,3.665-1.766,8.318-1.736c-5.238-16.388-20.515-27.463-37.839-27.463
			c-18.027,0-33.778,12.09-38.461,29.443c2.314,1.403,5.349,3.765,7.485,7.348c0.381,0.64,0.17,1.47-0.47,1.851
			c-0.144,0.089-0.3,0.141-0.455,0.17c-0.544,0.096-1.103-0.144-1.399-0.637c-2.48-4.168-6.5-6.493-8.381-7.407
			c-3.043-1.236-6.237-1.888-9.528-1.888c-12.286,0-22.791,8.769-24.979,20.852c-0.159,0.874-0.903,1.566-1.817,1.481l-0.278-0.011
			H46.74c-10.18,0-18.857,6.356-21.959,15.721h60.477c4.303-18.09,20.586-31.589,39.973-31.589
			c19.392,0,35.676,13.498,39.981,31.589h26.288c0.193-1.436,0.285-2.787,0.285-4.105C191.785,98.314,180.924,84.973,165.828,81.711
			z"/>
		<path d="M166.587,78.154c-5.553-18.146-22.477-30.724-41.548-30.724c-19.119,0-35.903,12.464-41.508,30.554
			c-3.117-1.11-6.371-1.673-9.702-1.673c-13.522,0-25.157,9.302-28.222,22.332c-12.083,0.444-22.262,8.836-24.953,20.719
			c-0.118,0.533,0.007,1.096,0.352,1.525c0.34,0.426,0.859,0.677,1.406,0.677h62.153c-0.279,1.93-0.43,3.9-0.43,5.906
			c0,22.662,18.435,41.1,41.096,41.1c22.666,0,41.104-18.438,41.104-41.1c0-2.006-0.152-3.976-0.431-5.906h27.143
			c0.877,0,1.629-0.633,1.777-1.499c0.381-2.206,0.566-4.239,0.566-6.212C195.39,96.604,183.341,81.767,166.587,78.154z
			 M125.231,164.78c-20.571,0-37.306-16.737-37.306-37.31c0-20.572,16.735-37.31,37.306-37.31c20.574,0,37.313,16.738,37.313,37.31
			C162.544,148.043,145.805,164.78,125.231,164.78z M191.499,117.959h-26.288c-4.305-18.09-20.589-31.589-39.981-31.589
			c-19.387,0-35.67,13.498-39.973,31.589H24.781c3.102-9.365,11.779-15.721,21.959-15.721h0.015l0.278,0.011
			c0.914,0.085,1.658-0.607,1.817-1.481c2.188-12.082,12.693-20.852,24.979-20.852c3.291,0,6.485,0.652,9.528,1.888
			c1.881,0.914,5.901,3.239,8.381,7.407c0.296,0.492,0.855,0.733,1.399,0.637c0.155-0.03,0.311-0.081,0.455-0.17
			c0.64-0.381,0.851-1.211,0.47-1.851c-2.136-3.583-5.171-5.945-7.485-7.348c4.683-17.354,20.434-29.443,38.461-29.443
			c17.324,0,32.601,11.076,37.839,27.463c-4.653-0.03-8.111,1.651-8.318,1.736c-0.685,0.285-1.018,1.074-0.729,1.766
			c0.285,0.689,1.074,1.018,1.762,0.733c0.052-0.022,4.816-1.917,10.235-1.022c15.096,3.261,25.956,16.602,25.956,32.142
			C191.785,115.171,191.692,116.522,191.499,117.959z"/>
	</g>
	<path fill="#231F20" d="M150.903,126.734l-9.064-7.498c-0.471-0.352-0.985-0.401-1.37-0.145c-0.46,0.307-0.618,0.799-0.412,1.266
		l1.111,3.611l-12.782,0.773c-0.114-0.142-0.24-0.275-0.374-0.398l0.772-12.757l3.611,1.111c0.463,0.204,0.962,0.043,1.267-0.413
		c0.123-0.187,0.357-0.694-0.164-1.393l-7.48-9.04c-0.11-0.133-0.274-0.21-0.446-0.21c-0.172,0-0.336,0.077-0.447,0.21l-7.498,9.063
		c-0.506,0.677-0.27,1.185-0.146,1.371c0.303,0.454,0.803,0.616,1.265,0.412l3.61-1.111l0.757,12.772
		c-0.128,0.12-0.248,0.246-0.357,0.383l-12.78-0.773l1.11-3.611c0.207-0.467,0.049-0.959-0.413-1.267
		c-0.383-0.253-0.879-0.219-1.393,0.164l-9.04,7.48c-0.133,0.11-0.21,0.274-0.21,0.446s0.077,0.336,0.21,0.446l9.063,7.498
		c0.275,0.206,0.553,0.31,0.825,0.31c0.197,0,0.385-0.056,0.546-0.164c0.46-0.307,0.618-0.799,0.411-1.265l-1.11-3.61l13.131-0.778
		c0.01,0.009,0.019,0.017,0.029,0.026l-0.782,13.711l-3.608-1.109c-0.462-0.205-0.962-0.043-1.265,0.411
		c-0.124,0.187-0.361,0.695,0.163,1.395l7.48,9.04c0.111,0.133,0.274,0.21,0.447,0.21c0.172,0,0.336-0.077,0.446-0.21l7.498-9.064
		c0.503-0.675,0.27-1.182,0.145-1.37c-0.302-0.454-0.802-0.617-1.265-0.412l-3.609,1.11l-0.798-13.696
		c0.016-0.014,0.031-0.028,0.046-0.042l13.133,0.778l-1.11,3.61c-0.206,0.466-0.048,0.958,0.411,1.264
		c0.161,0.108,0.35,0.164,0.547,0.164c0.272,0,0.55-0.104,0.847-0.327l9.041-7.481c0.133-0.11,0.21-0.274,0.21-0.446
		S151.036,126.844,150.903,126.734z M128.309,126.99c0,0.537-0.161,1.035-0.429,1.458c-0.006,0.009-0.01,0.019-0.015,0.028
		c-0.26,0.4-0.624,0.72-1.051,0.94c-0.011,0.005-0.02,0.011-0.03,0.016c-0.367,0.184-0.775,0.296-1.213,0.296
		s-0.846-0.113-1.213-0.296c-0.016-0.009-0.032-0.018-0.049-0.027c-0.424-0.222-0.784-0.545-1.042-0.946
		c-0.002-0.004-0.004-0.008-0.006-0.012c-0.269-0.423-0.43-0.921-0.43-1.458c0-0.381,0.079-0.743,0.218-1.072
		c0.04-0.09,0.093-0.172,0.141-0.258c0.186-0.332,0.436-0.621,0.738-0.849c0.112-0.085,0.232-0.158,0.357-0.226
		c0.384-0.207,0.818-0.335,1.285-0.335c0.459,0,0.886,0.124,1.267,0.326c0.132,0.069,0.257,0.146,0.375,0.235
		c0.293,0.222,0.535,0.5,0.721,0.818c0.055,0.095,0.113,0.187,0.157,0.288C128.23,126.248,128.309,126.61,128.309,126.99z
		 M123.468,110.781c-0.01-0.177-0.102-0.34-0.248-0.441c-0.146-0.101-0.33-0.13-0.5-0.077l-4.096,1.26l6.947-8.396l6.948,8.396
		l-4.098-1.26c-0.171-0.053-0.354-0.024-0.5,0.077c-0.146,0.101-0.237,0.263-0.248,0.44l-0.779,12.858
		c-0.411-0.162-0.856-0.255-1.323-0.255c-0.474,0-0.927,0.094-1.341,0.261L123.468,110.781z M109.171,129.283
		c-0.177,0.011-0.34,0.102-0.441,0.248c-0.102,0.146-0.13,0.33-0.078,0.5l1.261,4.096l-8.396-6.947l8.396-6.948l-1.261,4.098
		c-0.052,0.169-0.024,0.354,0.077,0.5c0.101,0.146,0.263,0.238,0.441,0.248l12.976,0.786c-0.117,0.355-0.183,0.733-0.183,1.127
		c0,0.542,0.124,1.054,0.339,1.515L109.171,129.283z M127.673,144.159c0.01,0.178,0.101,0.34,0.247,0.441
		c0.146,0.102,0.33,0.131,0.501,0.078l4.096-1.26l-6.946,8.396l-6.948-8.396l4.097,1.261c0.17,0.053,0.354,0.024,0.501-0.078
		c0.146-0.102,0.237-0.265,0.247-0.442l0.787-13.813c0.409,0.161,0.851,0.252,1.316,0.252c0.458,0,0.894-0.089,1.298-0.245
		L127.673,144.159z M141.23,134.128l1.26-4.097c0.052-0.17,0.023-0.354-0.078-0.5c-0.101-0.146-0.264-0.237-0.441-0.248
		l-13.132-0.778c0.215-0.461,0.338-0.973,0.338-1.515c0-0.393-0.066-0.772-0.183-1.126l12.977-0.786
		c0.177-0.011,0.34-0.102,0.44-0.248c0.102-0.146,0.13-0.33,0.078-0.5l-1.26-4.096l8.396,6.946L141.23,134.128z"/>
</g>
</svg>
