<?xml version="1.0" encoding="utf-8"?>
<!-- Generator: Adobe Illustrator 17.1.0, SVG Export Plug-In . SVG Version: 6.00 Build 0)  -->
<!DOCTYPE svg PUBLIC "-//W3C//DTD SVG 1.1//EN" "http://www.w3.org/Graphics/SVG/1.1/DTD/svg11.dtd">
<svg version="1.1" id="Layer_1" xmlns="http://www.w3.org/2000/svg" xmlns:xlink="http://www.w3.org/1999/xlink" x="0px" y="0px"
	 viewBox="0 0 216 216" enable-background="new 0 0 216 216" xml:space="preserve">
<g>
	<g>
		<path fill="#FFFFFF" d="M139.035,103.882c-2.93-9.574-11.859-16.211-21.922-16.211c-10.088,0-18.943,6.576-21.9,16.121
			c-1.645-0.586-3.361-0.883-5.119-0.883c-7.135,0-13.274,4.908-14.891,11.783c-6.375,0.234-11.746,4.662-13.166,10.932
			c-0.062,0.281,0.004,0.578,0.186,0.805c0.18,0.225,0.453,0.357,0.742,0.357h32.793c-0.147,1.019-0.227,2.058-0.227,3.116
			c0,11.957,9.727,21.686,21.683,21.686c11.959,0,21.688-9.729,21.688-21.686c0-1.059-0.08-2.098-0.228-3.116h14.321
			c0.463,0,0.859-0.334,0.938-0.791c0.201-1.164,0.299-2.236,0.299-3.277C154.232,113.616,147.875,105.788,139.035,103.882z
			 M117.215,149.588c-10.854,0-19.683-8.831-19.683-19.686c0-10.854,8.83-19.685,19.683-19.685c10.855,0,19.688,8.831,19.688,19.685
			C136.902,140.757,128.07,149.588,117.215,149.588z M152.18,124.884h-13.87c-2.271-9.545-10.863-16.667-21.095-16.667
			c-10.229,0-18.82,7.122-21.091,16.667H64.215c1.637-4.941,6.215-8.295,11.586-8.295h0.008l0.146,0.006
			c0.482,0.045,0.875-0.32,0.959-0.781c1.154-6.375,6.697-11.002,13.18-11.002c1.736,0,3.422,0.344,5.027,0.996
			c0.992,0.482,3.113,1.709,4.422,3.908c0.156,0.26,0.451,0.387,0.738,0.336c0.082-0.016,0.164-0.043,0.24-0.09
			c0.338-0.201,0.449-0.639,0.248-0.977c-1.127-1.891-2.729-3.137-3.949-3.877c2.471-9.156,10.781-15.535,20.293-15.535
			c9.141,0,17.201,5.844,19.965,14.49c-2.455-0.016-4.279,0.871-4.389,0.916c-0.361,0.15-0.537,0.566-0.385,0.932
			c0.15,0.363,0.566,0.537,0.93,0.387c0.027-0.012,2.541-1.012,5.4-0.539c7.965,1.721,13.695,8.76,13.695,16.959
			C152.33,123.413,152.281,124.126,152.18,124.884z"/>
	</g>
	<g>
		<path fill="#FFFFFF" d="M127.545,137.31v-6.059c1.085-0.232,1.902-1.196,1.902-2.349c0-1.324-1.078-2.402-2.402-2.402
			c-1.152,0-2.117,0.817-2.349,1.902h-5.131c-0.197-0.924-0.925-1.651-1.849-1.849v-5.93c1.085-0.231,1.902-1.196,1.902-2.349
			c0-1.324-1.078-2.402-2.402-2.402s-2.402,1.078-2.402,2.402c0,1.152,0.817,2.117,1.902,2.349v5.93
			c-0.924,0.197-1.651,0.925-1.849,1.849h-5.396c-0.231-1.085-1.196-1.902-2.349-1.902c-1.325,0-2.402,1.078-2.402,2.402
			c0,1.152,0.817,2.117,1.902,2.349v6.059c-1.085,0.231-1.902,1.196-1.902,2.349c0,1.324,1.078,2.402,2.402,2.402
			c1.324,0,2.402-1.078,2.402-2.402c0-1.152-0.817-2.117-1.902-2.349v-6.059c0.924-0.197,1.651-0.925,1.849-1.849h5.396
			c0.197,0.924,0.925,1.651,1.849,1.849v6.059c-1.085,0.231-1.902,1.196-1.902,2.349c0,1.324,1.078,2.402,2.402,2.402
			s2.402-1.078,2.402-2.402c0-1.152-0.817-2.117-1.902-2.349v-6.059c0.924-0.197,1.651-0.925,1.849-1.849h5.131
			c0.197,0.924,0.925,1.651,1.849,1.849v6.059c-1.085,0.231-1.902,1.196-1.902,2.349c0,1.324,1.078,2.402,2.402,2.402
			c1.324,0,2.402-1.078,2.402-2.402C129.447,138.506,128.63,137.541,127.545,137.31z M108.525,139.658
			c0,0.773-0.629,1.402-1.402,1.402c-0.773,0-1.402-0.629-1.402-1.402c0-0.773,0.629-1.402,1.402-1.402
			C107.896,138.256,108.525,138.885,108.525,139.658z M107.123,130.305c-0.773,0-1.402-0.629-1.402-1.402
			c0-0.773,0.629-1.402,1.402-1.402c0.773,0,1.402,0.629,1.402,1.402C108.525,129.676,107.896,130.305,107.123,130.305z
			 M115.814,118.275c0-0.773,0.629-1.402,1.402-1.402s1.402,0.629,1.402,1.402s-0.629,1.402-1.402,1.402
			S115.814,119.049,115.814,118.275z M118.619,139.658c0,0.773-0.629,1.402-1.402,1.402s-1.402-0.629-1.402-1.402
			c0-0.773,0.629-1.402,1.402-1.402S118.619,138.885,118.619,139.658z M117.217,130.305c-0.773,0-1.402-0.629-1.402-1.402
			c0-0.773,0.629-1.402,1.402-1.402s1.402,0.629,1.402,1.402C118.619,129.676,117.99,130.305,117.217,130.305z M125.643,128.902
			c0-0.773,0.629-1.402,1.402-1.402c0.773,0,1.402,0.629,1.402,1.402c0,0.773-0.629,1.402-1.402,1.402
			C126.271,130.305,125.643,129.676,125.643,128.902z M127.045,141.061c-0.773,0-1.402-0.629-1.402-1.402
			c0-0.773,0.629-1.402,1.402-1.402c0.773,0,1.402,0.629,1.402,1.402C128.447,140.432,127.818,141.061,127.045,141.061z"/>
	</g>
</g>
</svg>
