<?xml version="1.0" encoding="utf-8"?>
<!-- Generator: Adobe Illustrator 17.1.0, SVG Export Plug-In . SVG Version: 6.00 Build 0)  -->
<!DOCTYPE svg PUBLIC "-//W3C//DTD SVG 1.1//EN" "http://www.w3.org/Graphics/SVG/1.1/DTD/svg11.dtd">
<svg version="1.1" id="Layer_1" xmlns="http://www.w3.org/2000/svg" xmlns:xlink="http://www.w3.org/1999/xlink" x="0px" y="0px"
	 viewBox="0 0 216 216" enable-background="new 0 0 216 216" xml:space="preserve">
<g>
	<path fill="#231F20" d="M138.949,104.237c-2.93-9.573-11.861-16.21-21.924-16.21c-10.087,0-18.943,6.576-21.9,16.12
		c-1.645-0.586-3.361-0.883-5.119-0.883c-7.135,0-13.273,4.908-14.891,11.783c-6.375,0.234-11.746,4.662-13.166,10.932
		c-0.062,0.281,0.004,0.578,0.186,0.805c0.18,0.225,0.453,0.357,0.742,0.357h32.793c-0.147,1.019-0.227,2.059-0.227,3.117
		c0,11.957,9.728,21.686,21.685,21.686s21.686-9.729,21.686-21.686c0-1.059-0.08-2.099-0.228-3.117h14.323
		c0.463,0,0.859-0.334,0.938-0.791c0.201-1.164,0.299-2.236,0.299-3.277C154.146,113.972,147.789,106.144,138.949,104.237z
		 M117.129,149.944c-10.854,0-19.685-8.831-19.685-19.686c0-10.856,8.831-19.687,19.685-19.687s19.686,8.831,19.686,19.687
		C136.814,141.113,127.983,149.944,117.129,149.944z M152.094,125.239h-13.872c-2.271-9.545-10.863-16.667-21.093-16.667
		c-10.229,0-18.821,7.122-21.092,16.667H64.127c1.637-4.941,6.215-8.295,11.586-8.295h0.008l0.146,0.006
		c0.482,0.045,0.875-0.32,0.959-0.781c1.154-6.375,6.697-11.002,13.18-11.002c1.736,0,3.422,0.344,5.027,0.996
		c0.992,0.482,3.113,1.709,4.422,3.908c0.156,0.26,0.451,0.387,0.738,0.336c0.082-0.016,0.164-0.043,0.24-0.09
		c0.338-0.201,0.449-0.639,0.248-0.977c-1.127-1.891-2.729-3.137-3.949-3.877c2.471-9.155,10.781-15.534,20.292-15.534
		c9.141,0,17.203,5.844,19.967,14.489c-2.455-0.016-4.279,0.871-4.389,0.916c-0.361,0.15-0.537,0.566-0.385,0.932
		c0.15,0.363,0.566,0.537,0.93,0.387c0.027-0.012,2.541-1.012,5.4-0.539c7.965,1.721,13.695,8.76,13.695,16.959
		C152.244,123.769,152.195,124.481,152.094,125.239z"/>
	<path fill="#231F20" d="M111.4,120.267c-0.608-0.458-1.098-0.68-1.498-0.68c-0.452,0-0.673,0.287-0.733,0.458
		c-0.025,0.075-0.024,0.153,0.003,0.227l0.882,2.411l-0.137,1.082l-1.082,0.505l-0.833-0.726c-0.031-0.084-0.083-0.227-0.147-0.4
		c-0.158-0.43-0.385-1.048-0.52-1.433c-0.179-0.503-0.379-0.746-0.646-0.787c-0.16-0.026-0.311,0.031-0.407,0.136
		c-1.979,1.72-0.364,4.795-0.297,4.92c0.037,0.079,0.168,0.339,0.36,0.655l-0.045,0.021c-0.185,0.088-0.317,0.233-0.384,0.419
		c-0.079,0.222-0.056,0.484,0.065,0.738c0.211,0.449,0.648,0.625,1.069,0.431l0.404-0.191c0.055,0.053,0.112,0.104,0.169,0.153
		c0.387,0.328,0.52,0.52,0.485,1.401l-0.356,10.389c-0.013,0.173-0.052,1.068,0.503,1.68c0.33,0.362,0.791,0.546,1.371,0.546
		c0.55,0,0.987-0.177,1.301-0.525c0.599-0.665,0.487-1.681,0.486-1.681l-0.334-10.382c0-0.118-0.004-0.23-0.008-0.342
		c-0.022-0.732-0.037-1.175,1.095-2.069c1.521-1.2,1.244-3.302,1.207-3.542C113.023,121.53,111.467,120.317,111.4,120.267z
		 M106.596,121.688c0.035,0.068,0.069,0.151,0.103,0.249c0.227,0.638,0.702,1.921,0.702,1.922c0.021,0.053,0.052,0.099,0.094,0.135
		l0.673,0.588l-1.719,0.804C106.15,124.693,105.495,122.816,106.596,121.688z M106.815,127.742
		c-0.188,0.086-0.278-0.051-0.334-0.166c-0.006-0.014-0.147-0.322,0.057-0.419l0.113-0.055c0.131,0.188,0.267,0.365,0.404,0.526
		L106.815,127.742z M111.751,126.696c-1.399,1.106-1.376,1.84-1.351,2.619c0.004,0.103,0.008,0.207,0.008,0.327l0.336,10.42
		c0.001,0.007,0.063,0.763-0.316,1.185c-0.184,0.204-0.445,0.304-0.801,0.304c-0.382,0-0.675-0.11-0.871-0.326
		c-0.348-0.38-0.342-0.998-0.332-1.189l0.357-10.401c0.04-0.998-0.122-1.434-0.722-1.941c-0.606-0.511-1.09-1.306-1.311-1.705
		l3.623-1.691c0.104-0.05,0.175-0.148,0.189-0.263l0.171-1.345c0.008-0.05,0.003-0.103-0.017-0.16l-0.83-2.268
		c0.006,0,0.012-0.001,0.018-0.001c0.111,0,0.441,0.054,1.092,0.545c0.015,0.011,1.408,1.096,1.716,2.989
		C112.738,123.991,112.952,125.745,111.751,126.696z"/>
	<path fill="#231F20" d="M110.914,124.837c-0.09-0.119-0.273-0.145-0.388-0.057c-0.06,0.045-0.098,0.109-0.108,0.183
		c-0.01,0.073,0.009,0.146,0.053,0.205l0.689,0.922c0.053,0.07,0.134,0.11,0.223,0.11c0.06,0,0.116-0.019,0.165-0.055
		c0.122-0.092,0.147-0.266,0.056-0.387L110.914,124.837z"/>
	<path fill="#231F20" d="M110.276,125.145c-0.092-0.117-0.27-0.143-0.389-0.054c-0.06,0.045-0.098,0.109-0.108,0.183
		c-0.01,0.073,0.009,0.146,0.053,0.205l0.69,0.924c0.054,0.068,0.136,0.108,0.22,0.108c0.062,0,0.119-0.018,0.167-0.055
		c0.123-0.092,0.148-0.267,0.058-0.388L110.276,125.145z"/>
	<path fill="#231F20" d="M109.883,126.711c0.052,0.069,0.135,0.11,0.223,0.11c0.061,0,0.117-0.019,0.165-0.055
		c0.123-0.092,0.148-0.267,0.058-0.388l-0.69-0.921c-0.085-0.117-0.264-0.147-0.39-0.056c-0.121,0.093-0.146,0.267-0.055,0.387
		L109.883,126.711z"/>
	<path fill="#231F20" d="M109.469,127.13c0.061,0,0.12-0.019,0.165-0.053c0.122-0.092,0.147-0.266,0.056-0.389L109,125.768
		c-0.088-0.12-0.267-0.146-0.388-0.057c-0.06,0.045-0.098,0.109-0.108,0.183c-0.01,0.073,0.009,0.146,0.053,0.205l0.688,0.919
		C109.295,127.088,109.378,127.13,109.469,127.13z"/>
	<path fill="#231F20" d="M109.613,139.351c-0.181,0-0.358,0.052-0.515,0.15c-0.216,0.137-0.365,0.351-0.421,0.601
		c-0.056,0.25-0.011,0.507,0.126,0.724c0.178,0.279,0.48,0.446,0.812,0.446c0.183,0,0.361-0.052,0.517-0.15
		c0.447-0.285,0.579-0.881,0.294-1.328C110.25,139.517,109.945,139.351,109.613,139.351z M110.013,140.398
		c-0.024,0.106-0.088,0.196-0.181,0.255c-0.176,0.114-0.45,0.052-0.56-0.123c-0.12-0.191-0.063-0.442,0.125-0.562
		c0.065-0.042,0.141-0.064,0.216-0.064c0.141,0,0.27,0.07,0.346,0.188C110.017,140.184,110.036,140.292,110.013,140.398z"/>
	<path fill="#231F20" d="M118.865,133.837c0.011-0.31,0.21-0.526,0.271-0.586l0.002-0.002c0.074-0.063,0.117-0.156,0.117-0.254
		v-1.514c0-0.186-0.15-0.336-0.336-0.336h-1.145v-6.369l0.424-1.174c0.019-0.052,0.023-0.11,0.015-0.173l-0.551-3.142
		c-0.031-0.161-0.171-0.277-0.333-0.277h-1.125c-0.164,0-0.303,0.117-0.331,0.278l-0.553,3.144c-0.009,0.057-0.003,0.117,0.017,0.17
		l0.422,1.174v6.369h-1.143c-0.187,0-0.338,0.15-0.338,0.336v1.514c0,0.099,0.043,0.191,0.118,0.255l0.001,0.001
		c0.043,0.041,0.259,0.261,0.273,0.582c0.013,0.31-0.156,0.64-0.504,0.985c-0.062,0.064-0.096,0.15-0.096,0.237v6.111
		c-0.002,0.109,0.023,0.394,0.286,0.676c0.422,0.45,1.232,0.679,2.409,0.679c1.179,0,1.989-0.229,2.409-0.679
		c0.313-0.336,0.287-0.662,0.286-0.662v-6.125c0-0.089-0.036-0.176-0.1-0.238C119.021,134.474,118.854,134.145,118.865,133.837z
		 M116.486,120.683h0.561l0.49,2.776l-0.414,1.143c-0.013,0.035-0.02,0.074-0.02,0.116v6.428h-0.672v-6.428
		c0-0.042-0.007-0.081-0.02-0.114L116,123.459L116.486,120.683z M115.719,141.764c-0.06-0.012-0.116-0.024-0.172-0.038v-5.137
		c0-0.201,0-0.391,0.036-0.494c0-0.001,0.015-0.009,0.067-0.009l0.022,0.002c0.03,0.028,0.046,0.2,0.046,0.509V141.764z
		 M118.014,141.72c-0.059,0.016-0.115,0.028-0.172,0.04v-5.163c0-0.309,0.016-0.48,0.046-0.508c0,0,0.005-0.003,0.022-0.003
		c0.045,0,0.056,0.008,0.056,0.008s0.005,0.005,0.014,0.031c0.034,0.099,0.034,0.28,0.034,0.472V141.72z M118.791,141.185
		c-0.001,0.007-0.016,0.146-0.225,0.297v-4.893c0-0.235,0-0.457-0.062-0.641c-0.09-0.268-0.301-0.416-0.595-0.416
		c-0.621,0-0.621,0.641-0.621,1.064v5.233c-0.335,0.024-0.673,0.026-1.018,0.002v-5.235c0-0.424,0-1.064-0.621-1.064
		c-0.296,0-0.501,0.135-0.595,0.392c-0.062,0.18-0.062,0.398-0.062,0.673v4.9c-0.235-0.16-0.249-0.316-0.25-0.316v-5.99
		c0.417-0.449,0.618-0.916,0.6-1.388c-0.022-0.468-0.264-0.799-0.393-0.944v-1.041h3.633v1.041
		c-0.129,0.146-0.371,0.478-0.391,0.945c-0.021,0.47,0.181,0.937,0.598,1.387V141.185z"/>
	<path fill="#231F20" d="M128.221,120.011l-0.945,0.016c-0.042,0-0.084,0.008-0.125,0.024l-0.017,0.007
		c-0.068,0.025-0.412,0.147-0.798,0.147c-0.362,0-0.65-0.105-0.857-0.312c-0.063-0.062-0.149-0.097-0.236-0.097h-1.868
		c-0.029,0.002-2.964,0.232-3.717,3.339c-0.054,0.214-0.039,0.626,0.23,0.821c0.072,0.05,0.157,0.076,0.245,0.076
		c0.335,0,0.625-0.359,0.662-0.408c0.007-0.01,0.659-0.989,1.172-1.377c0.089-0.068,0.319-0.209,0.465-0.209
		c0.034,0,0.059,0,0.093,0.086c0.143,0.354,0.281,1.106,0.392,1.711l0.024,0.145c0.024,0.121,0.11,0.217,0.224,0.256v6.365
		c-0.25,0.166-0.397,0.428-0.397,0.711l-0.027,10.041c0,0.581,0.866,0.885,1.33,0.885h0.512c0.472,0,1.352-0.304,1.352-0.885
		l-0.025-10.041c0-0.285-0.147-0.547-0.398-0.711v-6.385c0.102-0.05,0.172-0.146,0.186-0.256l0.171-1.363
		c0.138-0.108,0.288-0.162,0.456-0.162c0.39,0,0.741,0.273,0.75,0.28c0.061,0.044,0.132,0.069,0.201,0.07l0.956,0.017
		c0.127-0.009,0.235-0.073,0.291-0.171c0.024-0.043,0.237-0.439,0.237-1.241c0-0.685-0.177-1.092-0.235-1.207
		C128.464,120.076,128.349,120.011,128.221,120.011z M124.582,141.565h-0.512c-0.273,0-0.599-0.163-0.658-0.235l0.027-10.019
		c0-0.112,0.147-0.211,0.314-0.211h1.166c0.171,0,0.316,0.098,0.316,0.213l0.025,10.011
		C125.198,141.399,124.854,141.565,124.582,141.565z M123.836,130.429v-6.175h1.004v6.175H123.836z M126.898,121.867
		c-0.605-0.219-1.16-0.101-1.589,0.327c-0.05,0.05-0.081,0.113-0.097,0.194l-0.148,1.193h-1.511
		c-0.12-0.661-0.252-1.326-0.406-1.711c-0.134-0.325-0.388-0.504-0.716-0.504c-0.389,0-0.767,0.266-0.875,0.347
		c-0.452,0.341-0.947,1.002-1.178,1.329c0.696-2.298,2.783-2.554,3.018-2.576h1.715c0.323,0.273,0.735,0.411,1.225,0.411
		c0.203,0,0.391-0.024,0.535-0.052c0.021,0.171,0.043,0.406,0.043,0.677C126.914,121.638,126.908,121.76,126.898,121.867z
		 M127.997,122.125l-0.57-0.01c0.027-0.181,0.04-0.387,0.04-0.612c0-0.259-0.018-0.529-0.053-0.806l0.583-0.011
		c0.04,0.141,0.089,0.378,0.089,0.703C128.086,121.726,128.041,121.968,127.997,122.125z"/>
</g>
</svg>
