<?xml version="1.0" encoding="utf-8"?>
<!-- Generator: Adobe Illustrator 17.1.0, SVG Export Plug-In . SVG Version: 6.00 Build 0)  -->
<!DOCTYPE svg PUBLIC "-//W3C//DTD SVG 1.1//EN" "http://www.w3.org/Graphics/SVG/1.1/DTD/svg11.dtd">
<svg version="1.1" id="Layer_1" xmlns="http://www.w3.org/2000/svg" xmlns:xlink="http://www.w3.org/1999/xlink" x="0px" y="0px"
	 viewBox="0 0 216 216" enable-background="new 0 0 216 216" xml:space="preserve">
<g>
	<path fill="#FFFFFF" d="M138.449,103.956c-2.93-9.574-11.861-16.211-21.922-16.211c-10.09,0-18.946,6.576-21.903,16.121
		c-1.643-0.586-3.361-0.883-5.119-0.883c-7.135,0-13.273,4.908-14.889,11.783c-6.375,0.234-11.747,4.662-13.167,10.932
		c-0.062,0.281,0.004,0.578,0.186,0.805c0.181,0.225,0.453,0.357,0.743,0.357h32.836c-0.147,1.019-0.227,2.058-0.227,3.116
		c0,11.957,9.728,21.686,21.686,21.686c11.957,0,21.685-9.729,21.685-21.686c0-1.059-0.08-2.098-0.227-3.116h14.28
		c0.463,0,0.859-0.334,0.938-0.791c0.201-1.164,0.299-2.236,0.299-3.277C153.646,113.69,147.289,105.862,138.449,103.956z
		 M116.672,149.662c-10.854,0-19.686-8.831-19.686-19.686c0-10.855,8.831-19.687,19.686-19.687s19.685,8.831,19.685,19.687
		C136.357,140.831,127.526,149.662,116.672,149.662z M151.594,124.958h-13.829c-2.271-9.545-10.863-16.668-21.093-16.668
		c-10.23,0-18.822,7.123-21.093,16.668H63.628c1.636-4.941,6.215-8.295,11.585-8.295h0.008l0.146,0.006
		c0.482,0.045,0.875-0.32,0.959-0.781c1.155-6.375,6.699-11.002,13.179-11.002c1.736,0,3.424,0.344,5.027,0.996
		c0.992,0.482,3.113,1.709,4.424,3.908c0.156,0.26,0.451,0.387,0.736,0.336c0.084-0.016,0.166-0.043,0.24-0.09
		c0.338-0.201,0.449-0.639,0.248-0.977c-1.127-1.891-2.729-3.137-3.949-3.877c2.471-9.156,10.784-15.535,20.295-15.535
		c9.139,0,17.201,5.844,19.965,14.49c-2.455-0.016-4.279,0.871-4.389,0.916c-0.361,0.15-0.537,0.566-0.385,0.932
		c0.15,0.363,0.566,0.537,0.93,0.387c0.027-0.012,2.541-1.012,5.4-0.539c7.965,1.721,13.695,8.76,13.695,16.959
		C151.744,123.487,151.695,124.2,151.594,124.958z"/>
	<g>
		<polygon fill="#FFFFFF" points="116.627,120.28 116.628,120.268 116.623,120.269 		"/>
		<path fill="#FFFFFF" d="M127.209,121.467c-7.967-1.865-9.955-2.066-10.441-2.066c-0.059,0-0.111,0.002-0.115,0.008
			c-0.049-0.006-0.102-0.008-0.16-0.008c-0.486,0-2.477,0.201-10.443,2.066c-0.243,0.056-0.413,0.27-0.413,0.52l0.001,11.005
			c0.003,0.097,0.368,9.712,10.894,11.576c0.039,0.008,0.074,0.009,0.098,0.009l0.066-0.004
			c10.801-1.33,10.926-11.492,10.926-11.595v-10.991C127.621,121.736,127.451,121.523,127.209,121.467z M116.762,120.467
			c0.227,0,1.656,0.082,8.375,1.617c0.448,0.102,0.92,0.211,1.416,0.326v10.567c0,0.093-0.135,9.274-9.91,10.526
			c-9.564-1.741-9.928-10.174-9.938-10.526V122.41c0.967-0.226,1.84-0.425,2.628-0.602c5.515-1.234,6.854-1.342,7.149-1.342
			l0.004-0.006C116.58,120.487,116.691,120.48,116.762,120.467z M116.627,120.28l-0.004-0.012c0.002,0,0.004-0.001,0.005-0.001
			L116.627,120.28z"/>
		<path fill="#FFFFFF" d="M115.921,123.038c-0.891,0.116-3.077,0.49-8.241,1.681c-0.203,0.046-0.352,0.229-0.352,0.439l0.002,7.812
			c0.031,0.823,0.56,8.091,9.217,9.749c0.027,0.006,0.057,0.009,0.082,0.009l0.062-0.005c6.154-0.853,8.184-4.954,8.848-7.327
			c0.371-1.32,0.389-2.308,0.391-2.417v-5.439l0.086-0.187l-0.086-0.024v-2.17c0-0.208-0.148-0.393-0.35-0.439
			c-5.535-1.274-7.654-1.613-8.447-1.703l-0.496-0.002h-0.001h-0.001l-0.553,0.005C116.033,123.024,115.98,123.031,115.921,123.038z
			 M125.027,128.868v4.1c0,0.024-0.107,2.468-1.172,4.214l-0.34,0.571c-0.008,0.01-0.652,0.999-1.299,1.569l-0.465,0.402
			c-1.348,1.096-3.067,1.801-5.111,2.095c-1.357-0.267-2.582-0.705-3.648-1.304C119.357,135.996,123.16,131.465,125.027,128.868z
			 M108.23,125.517l2.01-0.453c0.053-0.011,5.293-1.069,5.906-1.148l0.932-0.002c0.482,0.056,1.703,0.239,4.52,0.841
			c-1.506,2.148-5.408,7.106-12.299,11.978c-0.947-1.82-1.057-3.467-1.068-3.78l0.006-3.183L108.23,125.517z M125.027,125.516v1.453
			l-0.033,0.064c-1.035,1.616-5.017,7.302-12.971,12.861c-0.061-0.042-0.119-0.085-0.174-0.126l-0.523-0.431
			c-0.465-0.412-0.887-0.874-1.254-1.367l-0.223-0.321c7.576-5.344,11.684-10.893,12.875-12.649l0.215,0.047
			C123.572,125.185,124.266,125.341,125.027,125.516z"/>
	</g>
</g>
</svg>
