<?xml version="1.0" encoding="utf-8"?>
<!-- Generator: Adobe Illustrator 17.1.0, SVG Export Plug-In . SVG Version: 6.00 Build 0)  -->
<!DOCTYPE svg PUBLIC "-//W3C//DTD SVG 1.1//EN" "http://www.w3.org/Graphics/SVG/1.1/DTD/svg11.dtd">
<svg version="1.1" id="Layer_1" xmlns="http://www.w3.org/2000/svg" xmlns:xlink="http://www.w3.org/1999/xlink" x="0px" y="0px"
	 viewBox="0 0 216 216" enable-background="new 0 0 216 216" xml:space="preserve">
<g>
	<g>
		<path d="M139.669,128.669V79.192c0-2.428-1.895-4.4-4.28-4.566V72.56c0-2.846-2.313-5.158-5.157-5.158h-39.8
			c-2.844,0-5.157,2.312-5.157,5.158v2.066c-2.387,0.166-4.281,2.139-4.281,4.566v49.477c0,2.537,2.062,4.6,4.6,4.6h3.579
			l-7.722,10.744c-0.322,0.449-0.22,1.074,0.228,1.398c0.178,0.127,0.381,0.186,0.583,0.186c0.312,0,0.618-0.143,0.813-0.416
			l2.512-3.494h49.491l2.511,3.494c0.195,0.273,0.502,0.416,0.814,0.416c0.201,0,0.405-0.059,0.583-0.186
			c0.447-0.324,0.55-0.949,0.228-1.398l-7.722-10.744h3.58C137.606,133.268,139.669,131.206,139.669,128.669 M87.274,72.56
			c0-1.742,1.417-3.158,3.157-3.158h39.8c1.74,0,3.157,1.416,3.157,3.158v2.033h-12.506v-2.096c0-0.771-0.628-1.4-1.399-1.4h-18.305
			c-0.771,0-1.398,0.629-1.398,1.4v2.096H87.274V72.56z M119.883,72.497v2.096H100.78v-2.096c0-0.221,0.179-0.4,0.398-0.4h18.305
			C119.704,72.097,119.883,72.276,119.883,72.497 M82.993,79.192c0-1.434,1.166-2.6,2.6-2.6h49.478c1.433,0,2.599,1.166,2.599,2.6
			v34.551l-22.784-5.221c-2.511-0.574-6.597-0.574-9.106,0l-22.785,5.221V79.192z M89.555,136.165l2.081-2.896h37.392l2.081,2.896
			H89.555z M85.593,131.268c-1.434,0-2.6-1.166-2.6-2.6v-13.387l23.12-5.297c2.287-0.525,6.149-0.525,8.437,0l23.119,5.297v13.387
			c0,1.434-1.166,2.6-2.599,2.6H85.593z"/>
		<path d="M94.878,116.485c-3.133,0-5.682,2.549-5.682,5.682s2.549,5.68,5.682,5.68c3.133,0,5.682-2.547,5.682-5.68
			S98.011,116.485,94.878,116.485 M94.878,126.347c-2.306,0-4.182-1.875-4.182-4.18s1.876-4.182,4.182-4.182
			c2.307,0,4.182,1.877,4.182,4.182S97.185,126.347,94.878,126.347"/>
		<path d="M125.784,116.485c-3.133,0-5.682,2.549-5.682,5.682s2.549,5.68,5.682,5.68c3.133,0,5.682-2.547,5.682-5.68
			S128.917,116.485,125.784,116.485 M125.784,126.347c-2.306,0-4.182-1.875-4.182-4.18s1.876-4.182,4.182-4.182
			c2.307,0,4.182,1.877,4.182,4.182S128.091,126.347,125.784,126.347"/>
		<path d="M91.843,99.991h12.576c2.4,0,4.35-1.951,4.35-4.35v-7.891c0-2.396-1.95-4.35-4.35-4.35H91.843
			c-2.397,0-4.35,1.953-4.35,4.35v7.891C87.493,98.04,89.445,99.991,91.843,99.991 M88.993,87.751c0-1.57,1.277-2.85,2.85-2.85
			h12.576c1.572,0,2.85,1.279,2.85,2.85v7.891c0,1.57-1.277,2.85-2.85,2.85H91.843c-1.572,0-2.85-1.279-2.85-2.85V87.751z"/>
		<path d="M116.243,99.991h12.576c2.398,0,4.35-1.951,4.35-4.35v-7.891c0-2.396-1.951-4.35-4.35-4.35h-12.576
			c-2.399,0-4.35,1.953-4.35,4.35v7.891C111.894,98.04,113.844,99.991,116.243,99.991 M113.394,87.751c0-1.57,1.277-2.85,2.85-2.85
			h12.576c1.572,0,2.85,1.279,2.85,2.85v7.891c0,1.57-1.277,2.85-2.85,2.85h-12.576c-1.572,0-2.85-1.279-2.85-2.85V87.751z"/>
		<path d="M125.496,108.241c-0.062,0.269,0.105,0.537,0.375,0.6l8.266,1.893c0.038,0.01,0.075,0.014,0.112,0.014
			c0.228,0,0.434-0.156,0.486-0.389c0.062-0.268-0.105-0.537-0.375-0.598l-8.266-1.894
			C125.827,107.806,125.558,107.974,125.496,108.241"/>
		<path d="M115.286,106.413l7.02,1.609c0.267,0.064,0.537-0.105,0.599-0.375c0.062-0.27-0.106-0.537-0.376-0.6l-7.02-1.609
			c-2.856-0.652-7.502-0.652-10.355,0l-18.852,4.322c-0.269,0.061-0.437,0.328-0.376,0.598c0.053,0.232,0.259,0.389,0.487,0.389
			c0.037,0,0.074-0.004,0.111-0.014l18.853-4.32C108.106,105.79,112.553,105.79,115.286,106.413"/>
	</g>
</g>
</svg>
