<?xml version="1.0" encoding="utf-8"?>
<!-- Generator: Adobe Illustrator 17.1.0, SVG Export Plug-In . SVG Version: 6.00 Build 0)  -->
<!DOCTYPE svg PUBLIC "-//W3C//DTD SVG 1.1//EN" "http://www.w3.org/Graphics/SVG/1.1/DTD/svg11.dtd">
<svg version="1.1" id="Layer_1" xmlns="http://www.w3.org/2000/svg" xmlns:xlink="http://www.w3.org/1999/xlink" x="0px" y="0px"
	 viewBox="0 0 144 144" enable-background="new 0 0 144 144" xml:space="preserve">
<g>
	<path fill="#FFFFFF" d="M47.897,87.465c-1.929,0-3.498,1.57-3.498,3.5c0,1.928,1.569,3.498,3.498,3.498
		c1.93,0,3.498-1.57,3.498-3.498C51.396,89.035,49.827,87.465,47.897,87.465z M47.897,93.387c-1.336,0-2.422-1.088-2.422-2.422
		c0-1.336,1.086-2.422,2.422-2.422c1.336,0,2.422,1.086,2.422,2.422C50.319,92.299,49.233,93.387,47.897,93.387z"/>
	<path fill="#FFFFFF" d="M102.655,87.465c-1.93,0-3.498,1.57-3.498,3.5c0,1.928,1.568,3.498,3.498,3.498
		c1.929,0,3.498-1.57,3.498-3.498C106.153,89.035,104.584,87.465,102.655,87.465z M102.655,93.387c-1.336,0-2.422-1.088-2.422-2.422
		c0-1.336,1.086-2.422,2.422-2.422c1.336,0,2.422,1.086,2.422,2.422C105.077,92.299,103.991,93.387,102.655,93.387z"/>
	<g>
		<g>
			<path fill="#FFFFFF" d="M121.456,73.588l-0.687-1.029c-1.496-5.248-3.256-8.823-3.308-8.923c-1.172-2.873-3.185-3.5-3.997-3.637
				l-1.454-1.585c-3.1-3.472-9.289-4.079-9.557-4.079c-0.414,0-0.75,0.336-0.75,0.75v24.117h-1.353V47.118
				c0-0.414-0.336-0.75-0.75-0.75h-69c-0.414,0-0.75,0.336-0.75,0.75v34.298h-1.167c-1.007,0-1.827,0.818-1.827,1.826v0.861
				c0,1.109,0.717,1.826,1.827,1.826h13.594c-1.2,1.339-1.937,3.1-1.937,5.035c0,4.166,3.39,7.557,7.557,7.557
				s7.557-3.391,7.557-7.557c0-0.816-0.134-1.602-0.375-2.338h17.941v1.219c0,1.417,1.152,2.569,2.569,2.569h14.847
				c1.416,0,2.568-1.152,2.568-2.569v-1.219h2.469c-0.241,0.736-0.375,1.521-0.375,2.338c0,4.166,3.39,7.557,7.557,7.557
				s7.557-3.391,7.557-7.557c0-0.816-0.134-1.602-0.375-2.338h1.898c0.303,1.241,0.264,2.188,0.263,2.207
				c-0.015,0.209,0.058,0.414,0.199,0.566c0.142,0.152,0.341,0.24,0.549,0.24h6.688c1.926,0,2.625-1.654,2.625-2.766V75.438
				C122.059,74.379,121.659,73.811,121.456,73.588z M31.351,47.868h67.5v33.334h-67.5V47.868z M47.897,96.906
				c-3.276,0-5.942-2.666-5.942-5.942c0-3.277,2.666-5.943,5.942-5.943c3.276,0,5.942,2.666,5.942,5.943
				C53.84,94.24,51.174,96.906,47.897,96.906z M91.755,87.127v1.5v1.219c0,0.727-0.592,1.319-1.318,1.319H75.59
				c-0.728,0-1.319-0.592-1.319-1.319v-1.219v-1.5v-0.221c0-0.727,0.592-1.318,1.319-1.318h14.847c0.727,0,1.318,0.592,1.318,1.318
				V87.127z M102.655,96.906c-3.276,0-5.942-2.666-5.942-5.942c0-3.277,2.666-5.943,5.942-5.943c3.276,0,5.942,2.666,5.942,5.943
				C108.598,94.24,105.932,96.906,102.655,96.906z M109.153,87.127c-1.316-2.223-3.732-3.721-6.498-3.721
				c-2.766,0-5.182,1.498-6.498,3.721h-3.152v-0.221c0-1.416-1.152-2.568-2.568-2.568H75.59c-1.417,0-2.569,1.152-2.569,2.568v0.221
				H54.396c-1.316-2.223-3.732-3.721-6.498-3.721c-1.549,0-2.99,0.471-4.19,1.273H28.684c-0.507,0-0.577-0.277-0.577-0.576v-0.861
				c0-0.318,0.259-0.576,0.577-0.576h1.743c0.057,0.014,0.111,0.035,0.174,0.035h69c0.414,0,0.75-0.336,0.75-0.75v-1.25h1.353v1.133
				c0,0.414,0.336,0.75,0.75,0.75h1.75c2.525,0,4.384,1.121,5.707,2.543c0.588,0.631,1.008,1.322,1.312,2H109.153z M120.559,81.697
				l-1.438-0.498v-1.748h1.438V81.697z M120.559,78.451h-1.938c-0.277,0-0.5,0.223-0.5,0.5v2.416c0,0.033,0.012,0.06,0.018,0.092
				c-0.047,0.242,0.08,0.486,0.319,0.568l2.102,0.729v6.118c0,0.211-0.054,1.266-1.125,1.266h-5.93
				c-0.042-1.385-0.463-4.016-2.468-6.178c-1.619-1.746-3.867-2.879-6.832-2.879h-1v-25.22c1.677,0.101,5.734,1.554,7.718,3.581
				l1.626,1.772c0.139,0.151,0.334,0.239,0.539,0.243c0.02,0,1.893,0.063,3.008,2.791c0.018,0.036,1.801,3.663,3.264,8.829
				c0.021,0.076,0.055,0.146,0.098,0.213l0.791,1.186c0.038,0.059,0.053,0.08,0.105,0.125c0.009,0.01,0.207,0.234,0.207,0.834
				V78.451z"/>
		</g>
	</g>
	<path fill="#FFFFFF" d="M118.453,87.377h-3.25c-0.276,0-0.5,0.223-0.5,0.5c0,0.275,0.224,0.5,0.5,0.5h3.25
		c0.276,0,0.5-0.225,0.5-0.5C118.953,87.6,118.729,87.377,118.453,87.377z"/>
	<path fill="#FFFFFF" d="M115.203,85.127c-0.276,0-0.5,0.223-0.5,0.5c0,0.275,0.224,0.5,0.5,0.5h3.25c0.276,0,0.5-0.225,0.5-0.5
		c0-0.277-0.224-0.5-0.5-0.5H115.203z"/>
	<path fill="#FFFFFF" d="M117.417,73.859v-2.275c0-0.064-0.013-0.129-0.037-0.188l-0.515-1.236v-1.683
		c0-1.509-0.94-1.672-1.346-1.672l-0.052-0.001l-1.473-3.535c-0.074-0.183-0.249-0.304-0.445-0.312l-5.975,0.007
		c-0.021-0.003-0.102-0.007-0.121-0.007c-0.553,0-1.109,0.361-1.109,1.169v6.985c0,0.172,0.09,0.334,0.237,0.424l7.667,2.75
		c0.079,0.049,0.17,0.074,0.264,0.074h2.404C117.193,74.359,117.417,74.137,117.417,73.859z M115.865,68.478v1.745
		c0,0.047-0.003,0.084-0.005,0.123c-0.027,0.543-0.221,0.55-0.341,0.55l-0.673,0.009c0-0.011,0-0.021,0-0.033v-2.953V67.83
		c0-0.012,0-0.023,0-0.033l0.673,0.008C115.649,67.805,115.865,67.805,115.865,68.478z M116.417,73.359h-1.763l-7.31-2.527v-6.705
		c0-0.117,0.026-0.152,0.026-0.152l0.123-0.014l5.696-0.015l1.199,2.873c-0.542,0.123-0.543,0.628-0.543,1.011v3.041
		c0,0.295,0,0.488,0.096,0.673c0.188,0.365,0.574,0.365,0.719,0.365l0.858-0.014c0.211,0,0.565-0.05,0.858-0.306l0.039,0.092V73.359
		z"/>
	<path fill="#FFFFFF" d="M31.315,60.179h47.044c0.39,0,0.705-0.316,0.705-0.706c0-0.018-0.009-0.034-0.01-0.052
		c0.012-0.07,0.021-0.142,0.01-0.216L78.3,54.617c-0.007-0.05-0.023-0.107-0.045-0.158c0.031,0.005,0.12,0.026,0.256,0.127
		L91.034,64.95L78.537,75.292c-0.164,0.122-0.26,0.144-0.261,0.156c-0.006-0.005-0.014-0.009-0.02-0.014
		c0.023-0.056,0.039-0.114,0.047-0.175l0.773-4.331c0.025-0.19-0.035-0.383-0.163-0.526c-0.128-0.145-0.312-0.265-0.503-0.265
		H31.332c0,0-0.188,0-0.296,0v1.343c0,0,0.188,0,0.296,0h46.319l-0.67,3.518c-0.117,0.928-0.025,1.188,0.562,1.576
		c0.24,0.162,0.898,0.464,1.824-0.226l13.149-10.881c0.153-0.128,0.243-0.317,0.243-0.518c0-0.2-0.09-0.391-0.243-0.518
		L79.343,53.531c-0.895-0.671-1.555-0.37-1.799-0.209c-0.592,0.395-0.645,0.938-0.558,1.589l0.643,3.857H31.315
		c-0.39,0-0.706,0.316-0.706,0.705C30.608,59.863,30.925,60.179,31.315,60.179z"/>
</g>
</svg>
