<?xml version="1.0" encoding="utf-8"?>
<!-- Generator: Adobe Illustrator 17.1.0, SVG Export Plug-In . SVG Version: 6.00 Build 0)  -->
<!DOCTYPE svg PUBLIC "-//W3C//DTD SVG 1.1//EN" "http://www.w3.org/Graphics/SVG/1.1/DTD/svg11.dtd">
<svg version="1.1" id="Layer_1" xmlns="http://www.w3.org/2000/svg" xmlns:xlink="http://www.w3.org/1999/xlink" x="0px" y="0px"
	 viewBox="0 0 216 216" enable-background="new 0 0 216 216" xml:space="preserve">
<g>
	<g>
		<circle cx="84.201" cy="115.021" r="1.248"/>
		<path d="M131.461,99.438c-1.923,0-3.757,0.367-5.458,1.007l-2.571-8.862c-0.025-0.084-0.054-0.225-0.062-0.316l-0.405-3.664
			l3.764-1.87c0.108,0.126,0.23,0.241,0.379,0.332c1.771,1.083,2.367,1.959,2.333,2.417c-0.049,0.646-1.264,1.504-2.085,1.85
			c-0.813,0.338-1.201,1.271-0.864,2.087c0.254,0.617,0.851,0.99,1.479,0.99c0.203,0,0.409-0.039,0.609-0.121
			c0.391-0.162,3.823-1.658,4.05-4.553c0.152-1.928-1.145-3.746-3.855-5.4c-0.753-0.461-1.738-0.223-2.198,0.531
			c-0.041,0.067-0.069,0.138-0.1,0.208l-4.517,2.243c-0.414,0.206-0.67,0.671-0.621,1.135l0.394,3.558H96.313l-1.569-4.06
			c0.339-0.107,0.7-0.233,1.107-0.384c1.118-0.413,2.386-0.88,3.444-0.88c1.241,0,2.111-0.896,2.206-1.728
			c0.111-1.004-0.902-1.373-1.645-1.644c-0.345-0.124-1.155-0.164-3.061-0.231c-1.651-0.058-3.706-0.13-4.508-0.342
			c-0.072-0.014-0.168-0.038-0.281-0.066c-0.442-0.11-1.111-0.277-1.826-0.277c-0.872,0-1.576,0.253-2.09,0.752
			c-0.143,0.138-1.063,1.227-0.953,2.005c0.09,0.634,0.703,0.939,2.523,1.845c0.431,0.215,0.928,0.462,1.521,0.765
			c0.512,0.228,1.033,0.372,1.548,0.427l0.047,0.005l0.34-0.017l1.604,4.152l-4.55,9.466c-1.8-0.742-3.769-1.157-5.833-1.157
			c-8.471,0-15.362,6.891-15.362,15.36c0,8.471,6.892,15.362,15.362,15.362c7.438,0,13.655-5.315,15.061-12.347l3.085,0.451
			c0.155,1.786,1.641,3.197,3.467,3.197c1.928,0,3.498-1.568,3.498-3.496c0-0.816-0.293-1.559-0.764-2.154l14.778-18.58l1.061,3.656
			c-5.105,2.556-8.626,7.823-8.626,13.91c0,8.581,6.98,15.562,15.562,15.562c8.581,0,15.562-6.981,15.562-15.562
			C147.023,106.419,140.042,99.438,131.461,99.438z M127.513,84.439c0.145-0.236,0.453-0.311,0.688-0.166
			c2.327,1.421,3.448,2.894,3.332,4.376c-0.18,2.28-3.242,3.569-3.373,3.623c-0.062,0.025-0.127,0.038-0.19,0.038
			c-0.196,0-0.382-0.116-0.462-0.309c-0.105-0.255,0.016-0.547,0.271-0.653c0.73-0.303,2.65-1.394,2.758-2.779
			c0.083-1.06-0.905-2.251-2.857-3.442C127.443,84.982,127.369,84.675,127.513,84.439z M93.941,85.937l-1.128,0.056
			c-0.38-0.045-0.753-0.151-1.113-0.311c-0.568-0.291-1.069-0.54-1.504-0.757c-0.817-0.407-1.594-0.794-1.848-0.999
			c0.086-0.256,0.415-0.76,0.576-0.915c0.289-0.279,0.7-0.415,1.257-0.415c0.567,0,1.15,0.145,1.536,0.242
			c0.138,0.034,0.254,0.062,0.303,0.071c0.893,0.237,2.934,0.309,4.734,0.372c1.089,0.038,2.445,0.086,2.695,0.16
			c0.276,0.101,0.789,0.288,0.861,0.382c-0.026,0.231-0.397,0.661-1.013,0.661c-1.272,0-2.647,0.507-3.859,0.955
			C94.871,85.649,94.336,85.847,93.941,85.937z M90.237,104.324c3.755,2.083,6.306,6.086,6.306,10.676
			c0,0.328-0.023,0.651-0.049,0.974l-10.257-1.502c-0.085-0.32-0.243-0.608-0.458-0.849L90.237,104.324z M84.339,112.932
			c-0.036-0.002-0.07-0.011-0.107-0.011c-1.146,0-2.079,0.933-2.079,2.079s0.933,2.079,2.079,2.079c0.76,0,1.42-0.414,1.783-1.023
			l10.254,1.501c-1.179,5.506-6.078,9.648-11.93,9.648c-6.73,0-12.205-5.476-12.205-12.205c0-6.729,5.475-12.203,12.205-12.203
			c1.575,0,3.077,0.31,4.46,0.856L84.339,112.932z M85.449,115.021c0,0.689-0.559,1.248-1.248,1.248
			c-0.689,0-1.248-0.559-1.248-1.248c0-0.688,0.559-1.248,1.248-1.248C84.891,113.773,85.449,114.333,85.449,115.021z
			 M84.339,129.162c-7.81,0-14.163-6.352-14.163-14.162c0-7.808,6.353-14.16,14.163-14.16c1.879,0,3.669,0.375,5.311,1.043
			l-0.503,1.046c-1.489-0.595-3.109-0.932-4.808-0.932c-7.171,0-13.005,5.834-13.005,13.003c0,7.171,5.834,13.005,13.005,13.005
			c6.254,0,11.488-4.439,12.725-10.331l1.15,0.168C96.894,124.294,91.174,129.162,84.339,129.162z M98.437,116.258l-1.149-0.168
			c0.03-0.36,0.055-0.722,0.055-1.09c0-4.907-2.734-9.187-6.759-11.399l0.502-1.047c4.413,2.401,7.415,7.081,7.415,12.447
			C98.501,115.425,98.474,115.843,98.437,116.258z M99.627,116.433c0.044-0.473,0.073-0.949,0.073-1.433
			c0-5.843-3.281-10.932-8.096-13.528l3.77-7.864l8.451,21.803c-0.493,0.381-0.885,0.884-1.119,1.472L99.627,116.433z
			 M105.966,120.864c-1.489,0-2.695-1.207-2.695-2.695c0-1.488,1.207-2.694,2.695-2.694c1.488,0,2.695,1.206,2.695,2.694
			C108.661,119.657,107.454,120.864,105.966,120.864z M122.764,95.745l-15.449,19.203c-0.419-0.179-0.88-0.277-1.364-0.277
			c-0.163,0-0.318,0.026-0.475,0.048l-8.545-22.11h24.968l0.874,3.125L122.764,95.745z M125.592,104.77
			c0.046,0.158,0.143,0.409,0.217,0.559l4.934,10.025c0.139,0.282,0.424,0.446,0.719,0.446c0.118,0,0.239-0.026,0.353-0.082
			c0.397-0.195,0.559-0.675,0.364-1.07l-4.934-10.023c-0.038-0.08-0.091-0.214-0.116-0.3l-0.188-0.649
			c1.4-0.561,2.924-0.878,4.521-0.878c6.73,0,12.204,5.475,12.204,12.203c0,6.729-5.475,12.205-12.204,12.205
			c-6.729,0-12.205-5.476-12.205-12.205c0-4.555,2.514-8.528,6.222-10.624L125.592,104.77z M131.461,128.963
			c-7.699,0-13.963-6.264-13.963-13.963c0-5.357,3.037-10.014,7.478-12.354l0.271,0.935c-4.042,2.208-6.791,6.498-6.791,11.419
			c0,7.171,5.834,13.005,13.005,13.005c7.17,0,13.004-5.834,13.004-13.005c0-7.169-5.834-13.003-13.004-13.003
			c-1.676,0-3.272,0.329-4.744,0.909l-0.268-0.922c1.558-0.602,3.244-0.946,5.012-0.946c7.699,0,13.962,6.263,13.962,13.962
			C145.423,122.699,139.16,128.963,131.461,128.963z"/>
	</g>
</g>
</svg>
