<?xml version="1.0" encoding="utf-8"?>
<!-- Generator: Adobe Illustrator 17.1.0, SVG Export Plug-In . SVG Version: 6.00 Build 0)  -->
<!DOCTYPE svg PUBLIC "-//W3C//DTD SVG 1.1//EN" "http://www.w3.org/Graphics/SVG/1.1/DTD/svg11.dtd">
<svg version="1.1" id="Layer_1" xmlns="http://www.w3.org/2000/svg" xmlns:xlink="http://www.w3.org/1999/xlink" x="0px" y="0px"
	 viewBox="0 0 144 144" enable-background="new 0 0 144 144" xml:space="preserve">
<path d="M104.199,37.192c-0.238,0.003-5.951,0.112-13.773,3.177c-7.156,2.802-17.467,8.72-26.062,21.008
	c-1.617,0.424-3.368,0.818-5.218,1.235c-6.917,1.559-14.759,3.326-18.955,7.523l-1.16,1.16l17.955,1.293l-17.059,22.79L54.824,83.68
	l-2.19,5.662l4.16-1.24l-15.168,18.717l27.946-21.617l1.291,17.926l1.16-1.16c4.198-4.195,5.965-12.037,7.524-18.955
	c0.416-1.85,0.811-3.6,1.234-5.217C93.07,69.2,98.986,58.886,101.787,51.728c3.061-7.824,3.17-13.537,3.172-13.776l0.01-0.77
	L104.199,37.192z M100.365,51.247c-2.73,6.948-8.498,16.961-20.459,25.324c-2.963-0.156-7.515,2.234-10.013,5.818L59.762,72.257
	c3.579-2.495,5.967-7.041,5.819-9.998c14.325-20.495,33.674-23.178,37.833-23.519C103.271,40.57,102.689,45.327,100.365,51.247z
	 M59.476,64.075c1.619-0.364,3.143-0.718,4.599-1.086c-0.223,2.594-2.439,6.264-5.444,8.216l-16.046-1.157
	C46.719,66.95,53.458,65.431,59.476,64.075z M79.17,78.078c-0.367,1.457-0.721,2.982-1.086,4.604
	c-1.357,6.02-2.875,12.758-5.973,16.893l-1.158-16.062C72.909,80.51,76.582,78.301,79.17,78.078z M61.01,85.281l-5.875,1.75
	l3.06-7.906L47.937,87.18L58.48,73.096l10.595,10.596L50.918,97.734L61.01,85.281z"/>
<path d="M83.969,63.542c1.43,0,2.773-0.557,3.783-1.567c2.082-2.089,2.082-5.484-0.002-7.567c-1.008-1.012-2.352-1.568-3.781-1.568
	c-1.43,0-2.774,0.557-3.785,1.567c-1.01,1.012-1.568,2.355-1.568,3.783c0,1.429,0.557,2.774,1.568,3.784
	C81.195,62.986,82.539,63.542,83.969,63.542z M83.969,54.339c1.029,0,1.994,0.4,2.721,1.128c1.5,1.5,1.5,3.944,0,5.448
	c-1.451,1.455-3.99,1.455-5.445-0.002c-0.729-0.729-1.129-1.695-1.129-2.724c0-1.027,0.402-1.994,1.129-2.723
	C81.973,54.74,82.939,54.339,83.969,54.339z"/>
</svg>
