<?xml version="1.0" encoding="utf-8"?>
<!-- Generator: Adobe Illustrator 17.1.0, SVG Export Plug-In . SVG Version: 6.00 Build 0)  -->
<!DOCTYPE svg PUBLIC "-//W3C//DTD SVG 1.1//EN" "http://www.w3.org/Graphics/SVG/1.1/DTD/svg11.dtd">
<svg version="1.1" id="Layer_1" xmlns="http://www.w3.org/2000/svg" xmlns:xlink="http://www.w3.org/1999/xlink" x="0px" y="0px"
	 viewBox="0 0 216 216" enable-background="new 0 0 216 216" xml:space="preserve">
<g>
	<path d="M146.863,101.12l-0.986-3.941c-0.636-2.6-3.286-4.636-6.031-4.636H73.158c-2.833,0-5.052,2.133-5.052,4.857l0.024,18.414
		c0.003,0.111,0.035,0.692,0.325,1.167c0.369,0.603,0.925,0.877,1.802,0.887c0.908,0.012,2.178,0.016,3.564,0.016
		c0,0,0.001,0,0.002,0c3.026,0,6.612-0.019,8.235-0.03l2.226-0.001c-0.009,0.127-0.038,0.249-0.038,0.378
		c0,2.882,2.344,5.227,5.226,5.227c2.881,0,5.226-2.345,5.226-5.227c0-0.13-0.029-0.253-0.039-0.381h1.75h27.506l2.198-0.002
		c-0.007,0.106-0.032,0.208-0.032,0.315c0,2.881,2.346,5.225,5.227,5.225c2.882,0,5.225-2.344,5.225-5.225
		c0-0.11-0.025-0.214-0.032-0.322l1.665-0.001l1.052,0.004c0,0,2.865,0.058,5.396,0.058c2.336,0,2.364-0.023,2.632-0.254
		c0.598-0.512,0.646-2.493,0.646-2.513v-5.488C147.894,107.268,147.433,103.444,146.863,101.12z M89.474,121.8
		c-1.968,0-3.569-1.601-3.569-3.569c-0.014-1.23,0.645-2.035,0.645-2.035c0.646-0.924,1.714-1.532,2.924-1.532
		c1.21,0,2.276,0.608,2.922,1.53c0,0,0.683,0.932,0.646,2.037C93.042,120.199,91.441,121.8,89.474,121.8z M131.31,121.73
		c-1.968,0-3.569-1.6-3.569-3.567c0-0.108,0.022-0.21,0.032-0.316c0.101-1.06,0.566-1.656,0.566-1.656
		c0.641-0.961,1.732-1.597,2.971-1.597c1.237,0,2.328,0.634,2.968,1.593c0,0,0.551,0.688,0.601,1.977
		C134.878,120.131,133.277,121.73,131.31,121.73z M144.615,116.246c-2.132,0-5.248-0.046-6.207-0.062l-2.268,0.001
		c-0.781-1.903-2.649-3.249-4.831-3.249c-2.183,0-4.053,1.349-4.834,3.255l-2.559,0.001H96.6l-2.315,0.001
		c-0.796-1.871-2.653-3.188-4.811-3.188c-2.16,0-4.017,1.317-4.813,3.19l-2.611,0.001c-1.621,0.01-5.203,0.029-8.226,0.029
		c-0.001,0-0.001,0-0.001,0c-1.38,0-2.642-0.003-3.546-0.015c-0.298-0.003-0.376-0.05-0.408-0.096
		c-0.04-0.067-0.077-0.244-0.082-0.327l-0.001-0.441h13.62c0.229,0,0.414-0.186,0.414-0.415c0-0.229-0.186-0.413-0.414-0.413H69.785
		l-0.023-17.121c0-1.823,1.46-3.198,3.396-3.198h66.688c1.983,0,3.967,1.513,4.423,3.377l0.987,3.941
		c0.541,2.213,0.98,5.858,0.98,8.129v4.768h-9.086c-0.229,0-0.414,0.186-0.414,0.415c0,0.229,0.185,0.414,0.414,0.414h9.081
		c-0.012,0.296-0.068,0.692-0.13,0.989C145.819,116.24,145.358,116.246,144.615,116.246z"/>
	<path d="M72.386,109.071c-0.162-0.161-0.424-0.161-0.586,0c-0.161,0.162-0.161,0.424,0,0.586l3.952,3.951
		c0.081,0.081,0.188,0.121,0.293,0.121c0.106,0,0.212-0.04,0.293-0.121c0.162-0.162,0.162-0.425,0-0.586L72.386,109.071z"/>
	<path d="M71.92,111.401c-0.162-0.161-0.424-0.161-0.586,0c-0.162,0.162-0.162,0.424,0,0.586l0.933,0.932
		c0.08,0.081,0.187,0.121,0.292,0.121c0.106,0,0.212-0.04,0.293-0.121c0.162-0.161,0.162-0.424,0-0.586L71.92,111.401z"/>
	<path d="M125.276,114.45H95.522c-0.229,0-0.414,0.185-0.414,0.413c0,0.229,0.185,0.415,0.414,0.415h29.754
		c0.229,0,0.414-0.186,0.414-0.415C125.69,114.635,125.505,114.45,125.276,114.45z"/>
	<path d="M83.376,95.875h-9.435c-0.673,0-1.22,0.547-1.22,1.22v9.435c0,0.673,0.547,1.22,1.22,1.22h9.435
		c0.673,0,1.22-0.547,1.22-1.22v-9.435C84.596,96.422,84.049,95.875,83.376,95.875z M83.596,106.53c0,0.119-0.101,0.22-0.22,0.22
		h-9.435c-0.119,0-0.22-0.101-0.22-0.22v-9.435c0-0.119,0.101-0.22,0.22-0.22h9.435c0.119,0,0.22,0.101,0.22,0.22V106.53z"/>
	<path d="M98.685,106.53v-9.435c0-0.673-0.547-1.22-1.22-1.22h-9.434c-0.673,0-1.22,0.547-1.22,1.22v9.435
		c0,0.673,0.547,1.22,1.22,1.22h9.434C98.138,107.75,98.685,107.203,98.685,106.53z M87.81,106.53v-9.435
		c0-0.119,0.101-0.22,0.22-0.22h9.434c0.119,0,0.22,0.101,0.22,0.22v9.435c0,0.119-0.101,0.22-0.22,0.22h-9.434
		C87.912,106.75,87.81,106.649,87.81,106.53z"/>
	<path d="M102.031,107.75h9.434c0.673,0,1.221-0.547,1.221-1.22v-9.435c0-0.673-0.548-1.22-1.221-1.22h-9.434
		c-0.673,0-1.22,0.547-1.22,1.22v9.435C100.81,107.203,101.358,107.75,102.031,107.75z M101.81,97.095c0-0.119,0.101-0.22,0.22-0.22
		h9.434c0.12,0,0.221,0.101,0.221,0.22v9.435c0,0.119-0.1,0.22-0.221,0.22h-9.434c-0.119,0-0.22-0.101-0.22-0.22V97.095z"/>
	<path d="M125.466,95.844h-9.436c-0.673,0-1.22,0.547-1.22,1.22v9.434c0,0.673,0.547,1.22,1.22,1.22h9.436
		c0.673,0,1.22-0.547,1.22-1.22v-9.434C126.685,96.391,126.139,95.844,125.466,95.844z M125.685,106.498c0,0.119-0.1,0.22-0.22,0.22
		h-9.436c-0.119,0-0.22-0.101-0.22-0.22v-9.434c0-0.119,0.101-0.22,0.22-0.22h9.436c0.119,0,0.22,0.101,0.22,0.22V106.498z"/>
	<path d="M142.655,107.655c0.422-0.134,0.642-0.396,0.814-0.631c0.169-0.228,0.196-0.555,0.213-0.977
		c0.014-0.255-0.002-0.519-0.05-0.854c-0.109-0.779-0.265-1.803-0.503-2.816l-0.062-0.264c-0.087-0.374-0.173-0.748-0.269-1.102
		c-0.788-3.37-1.606-4.361-1.697-4.462c-0.357-0.402-1.034-0.705-1.572-0.705h-9.436c-0.673,0-1.22,0.547-1.22,1.22v9.434
		c0,0.673,0.538,1.22,1.2,1.22l11.215,0.01C142.425,107.729,142.586,107.677,142.655,107.655z M130.075,106.719
		c-0.108,0-0.2-0.101-0.2-0.22v-9.434c0-0.119,0.101-0.22,0.22-0.22h9.436c0.255,0,0.656,0.18,0.82,0.364
		c0.008,0.009,0.748,0.919,1.479,4.047c0.097,0.358,0.18,0.721,0.264,1.082l0.062,0.268c0.229,0.974,0.38,1.968,0.486,2.728
		c0.039,0.269,0.052,0.473,0.037,0.752c-0.003,0.087-0.013,0.315-0.014,0.344c-0.132,0.179-0.196,0.235-0.284,0.265
		c-0.092,0.017-0.524,0.034-1.091,0.034l-1.042-0.009L130.075,106.719z"/>
</g>
</svg>
