<?xml version="1.0" encoding="utf-8"?>
<!-- Generator: Adobe Illustrator 17.1.0, SVG Export Plug-In . SVG Version: 6.00 Build 0)  -->
<!DOCTYPE svg PUBLIC "-//W3C//DTD SVG 1.1//EN" "http://www.w3.org/Graphics/SVG/1.1/DTD/svg11.dtd">
<svg version="1.1" id="Layer_1" xmlns="http://www.w3.org/2000/svg" xmlns:xlink="http://www.w3.org/1999/xlink" x="0px" y="0px"
	 viewBox="0 0 216 216" enable-background="new 0 0 216 216" xml:space="preserve">
<g>
	<path fill="#FFFFFF" d="M124.965,92.717v-2.445c0-0.246-0.198-0.444-0.444-0.444c-0.244,0-0.444,0.198-0.444,0.444v2.445
		c0,0.245,0.2,0.444,0.444,0.444C124.767,93.161,124.965,92.962,124.965,92.717z"/>
	<path fill="#FFFFFF" d="M129.133,91.352c0.112,0,0.228-0.043,0.313-0.13c0.174-0.173,0.174-0.455,0-0.628l-1.729-1.728
		c-0.173-0.173-0.454-0.173-0.628,0c-0.173,0.173-0.173,0.454,0,0.628l1.729,1.729C128.905,91.309,129.019,91.352,129.133,91.352z"
		/>
	<path fill="#FFFFFF" d="M119.891,91.424c0.114,0,0.228-0.043,0.315-0.13l1.729-1.729c0.173-0.174,0.173-0.455,0-0.628
		c-0.174-0.173-0.454-0.173-0.628,0l-1.729,1.729c-0.174,0.173-0.174,0.454,0,0.627C119.664,91.381,119.778,91.424,119.891,91.424z"
		/>
	<path fill="#FFFFFF" d="M79.979,82.924c0.107,0.043,2.636,1.059,5.304,1.059h5.595l-0.643,0.714
		c-0.176,0.195-0.22,0.476-0.114,0.716c0.107,0.24,0.346,0.395,0.609,0.395h4.339c0.107,0,0.211-0.025,0.305-0.074l3.403-1.757
		c0.009,0,0.018,0.005,0.027,0.005h8.132c2.446,0,5.698-0.247,5.698-2.381c0-1.25-1.337-2.74-7.712-2.74H87.255l-3.55-3.185
		c-0.122-0.109-0.281-0.17-0.445-0.17h-2.382c-0.219,0-0.426,0.108-0.55,0.29c-0.124,0.181-0.151,0.413-0.071,0.617l1.287,3.316
		l-1.561,0.621c-0.253,0.102-0.419,0.346-0.419,0.619v1.337C79.563,82.578,79.727,82.821,79.979,82.924z M80.894,81.421l1.756-0.698
		c0.34-0.135,0.507-0.519,0.375-0.86l-1.175-3.025h1.155l3.55,3.185c0.122,0.109,0.281,0.17,0.445,0.17h17.92
		c2.679,0,4.285,0.276,5.218,0.594h-0.543c-0.245,0-0.444,0.199-0.444,0.444c0,0.246,0.199,0.444,0.444,0.444h1.685
		c-0.111,0.466-1.282,0.977-4.345,0.977h-5.8c0.125-0.193,0.155-0.442,0.042-0.663c-0.168-0.327-0.57-0.458-0.897-0.286
		l-5.374,2.774h-2.681l1.565-1.737c0.246-0.273,0.224-0.694-0.049-0.941c-0.272-0.244-0.694-0.223-0.941,0.049l-0.723,0.803h-6.795
		c-1.806,0-3.6-0.539-4.388-0.81V81.421z"/>
	<polygon fill="#FFFFFF" points="105.067,127.659 106.067,127.659 106.163,124.826 105.163,124.826 	"/>
	<polygon fill="#FFFFFF" points="105.215,123.243 106.215,123.243 106.308,120.493 105.308,120.493 	"/>
	<polygon fill="#FFFFFF" points="105.355,119.076 106.355,119.076 106.447,116.327 105.447,116.327 	"/>
	<polygon fill="#FFFFFF" points="105.829,104.941 106.829,104.941 106.885,103.253 105.885,103.253 	"/>
	<polygon fill="#FFFFFF" points="104.903,132.576 105.903,132.576 106.015,129.242 105.015,129.242 	"/>
	<polygon fill="#FFFFFF" points="105.619,111.201 106.619,111.201 106.704,108.676 105.704,108.676 	"/>
	<polygon fill="#FFFFFF" points="105.492,114.993 106.492,114.993 106.583,112.285 105.583,112.285 	"/>
	<polygon fill="#FFFFFF" points="105.735,107.727 106.735,107.727 106.803,105.712 105.803,105.712 	"/>
	<polygon fill="#FFFFFF" points="109.266,112.285 108.265,112.285 108.355,114.993 109.356,114.993 	"/>
	<polygon fill="#FFFFFF" points="109.046,105.712 108.045,105.712 108.112,107.727 109.113,107.727 	"/>
	<polygon fill="#FFFFFF" points="109.541,120.493 108.54,120.493 108.632,123.243 109.633,123.243 	"/>
	<polygon fill="#FFFFFF" points="109.685,124.826 108.685,124.826 108.779,127.659 109.781,127.659 	"/>
	<polygon fill="#FFFFFF" points="109.401,116.327 108.4,116.327 108.492,119.076 109.493,119.076 	"/>
	<polygon fill="#FFFFFF" points="108.964,103.253 107.962,103.253 108.019,104.941 109.019,104.941 	"/>
	<polygon fill="#FFFFFF" points="109.146,108.676 108.144,108.676 108.229,111.201 109.229,111.201 	"/>
	<polygon fill="#FFFFFF" points="108.832,129.242 108.944,132.576 109.945,132.576 109.834,129.242 	"/>
	<path fill="#FFFFFF" d="M140.593,95.338h-3.181c-0.312-7.221-3.761-10.332-11.405-10.332h-4.692c-0.367,0-0.666,0.298-0.666,0.666
		c0,0.367,0.299,0.666,0.666,0.666h0.219c0.126,1.546,1.409,2.77,2.987,2.77c1.562,0,2.833-1.198,2.982-2.721
		c5.822,0.363,8.315,2.989,8.579,8.951h-22.39h-12.539h-26.9c-0.491,0-0.888,0.398-0.888,0.888v5.365
		c0,0.491,0.397,0.888,0.888,0.888h9v5.108c0,0.49,0.397,0.888,0.888,0.888h3.577c0.389,0,0.732-0.253,0.848-0.625l1.664-5.371
		h7.271L78.81,139.019c-0.141,0.274-0.128,0.604,0.033,0.867c0.162,0.265,0.448,0.425,0.758,0.425h25.315h5.012h25.315
		c0.309,0,0.595-0.16,0.758-0.425c0.161-0.264,0.174-0.593,0.033-0.867l-18.69-36.541h7.272l1.664,5.371
		c0.114,0.372,0.458,0.625,0.848,0.625h3.577c0.491,0,0.889-0.398,0.889-0.888v-5.108h4.519v28.519c0,0.367,0.299,0.666,0.666,0.666
		c0.368,0,0.666-0.299,0.666-0.666v-28.519h3.147c0.49,0,0.888-0.397,0.888-0.888v-5.365
		C141.48,95.735,141.083,95.338,140.593,95.338z M124.521,87.776c-0.843,0-1.536-0.627-1.656-1.438h3.142
		c0.059,0,0.11,0.003,0.17,0.004C126.055,87.151,125.363,87.776,124.521,87.776z M133.792,138.536h-10.291h-0.924h-11.785
		l-0.648-0.017l-0.138-4.11h-1.001l0.138,4.127h-3.441l0.138-4.127h-1l-0.138,4.11l-0.651,0.017H92.571h-0.923H81.052l18.444-36.058
		h15.853L133.792,138.536z M136.113,100.703h-5.408c-0.49,0-0.888,0.397-0.888,0.888v5.108h-2.035l-1.665-5.371
		c-0.114-0.372-0.457-0.625-0.848-0.625h-16.226h-3.241H89.575c-0.389,0-0.732,0.253-0.848,0.625l-1.664,5.371h-2.035v-5.108
		c0-0.491-0.397-0.888-0.888-0.888h-9v-3.589h30.783h3h27.19V100.703z M139.705,100.703h-2.26v-3.589h2.26V100.703z"/>
</g>
</svg>
