<svg id="Layer_1" data-name="Layer 1" xmlns="http://www.w3.org/2000/svg" viewBox="0 0 108 108"><defs><style>.cls-1{fill:none;}.cls-2{fill:#fff;}</style></defs><title>Icon_RH_Transportation_Shipping-container_RGB_White</title><path class="cls-1" d="M21.28,78.33H86.72V29.67H21.28V78.33Zm54.13-43.5a0.5,0.5,0,1,1,1,0v37a0.5,0.5,0,0,1-1,0v-37Zm-14.76,0a0.5,0.5,0,1,1,1,0v37a0.5,0.5,0,1,1-1,0v-37Zm-14.05,0a0.5,0.5,0,1,1,1,0v37a0.5,0.5,0,0,1-1,0v-37Zm-14.05,0a0.5,0.5,0,1,1,1,0v37a0.5,0.5,0,0,1-1,0v-37Z"/><path class="cls-2" d="M87.72,27.67H20.28a1,1,0,0,0-1,1V79.33a1,1,0,0,0,1,1H87.72a1,1,0,0,0,1-1V28.67A1,1,0,0,0,87.72,27.67Zm-1,50.66H21.28V29.67H86.72V78.33Z"/><path class="cls-2" d="M61.15,72.35a0.5,0.5,0,0,0,.5-0.5v-37a0.5,0.5,0,1,0-1,0v37A0.5,0.5,0,0,0,61.15,72.35Z"/><path class="cls-2" d="M75.91,72.35a0.5,0.5,0,0,0,.5-0.5v-37a0.5,0.5,0,1,0-1,0v37A0.5,0.5,0,0,0,75.91,72.35Z"/><path class="cls-2" d="M47.09,72.35a0.5,0.5,0,0,0,.5-0.5v-37a0.5,0.5,0,1,0-1,0v37A0.5,0.5,0,0,0,47.09,72.35Z"/><path class="cls-2" d="M33,72.35a0.5,0.5,0,0,0,.5-0.5v-37a0.5,0.5,0,1,0-1,0v37A0.5,0.5,0,0,0,33,72.35Z"/></svg>