<svg id="Layer_1" data-name="Layer 1" xmlns="http://www.w3.org/2000/svg" viewBox="0 0 108 108"><defs><style>.cls-1{fill:none;}.cls-2{fill:#fff;}</style></defs><title>Icon_RH_People_Mustache_RGB_White</title><rect class="cls-1" x="39.45" y="40.84" width="9.41" height="9.4" rx="0.85" ry="0.85"/><path class="cls-1" d="M73.62,46.86H61.75a0.14,0.14,0,0,0-.14.14V68.19l12.15,0.06V47A0.14,0.14,0,0,0,73.62,46.86Z"/><path class="cls-1" d="M45.72,64.31H45.66a4.91,4.91,0,0,0-3.46,1.4,5,5,0,0,0-1.5,3.58,5,5,0,0,0,5,5h0a5,5,0,0,0,5-4.94A4.91,4.91,0,0,0,45.72,64.31Z"/><path class="cls-1" d="M81,59V42.88c0-2.7-.14-5.74-2.16-7.53-1.73-1.55-4.29-1.63-6.61-1.63H36.56a17.85,17.85,0,0,0-4.68.41,6,6,0,0,0-3.75,2.65,9,9,0,0,0-.79,4.33l-0.2,14a6.85,6.85,0,0,0-2-1.63,2.43,2.43,0,0,0-2-.07,1.08,1.08,0,0,0-.3,1.15c0,2.22,0,4.44-.06,6.66a2.07,2.07,0,0,0,.51,1.69,1.65,1.65,0,0,0,2-.33,10.49,10.49,0,0,1,1.62-1.51A7.31,7.31,0,0,0,35,68.3a11.35,11.35,0,0,1,10.84-9.91,11.35,11.35,0,0,1,11,9.79l3.32,0V47a1.64,1.64,0,0,1,1.64-1.64H73.62A1.64,1.64,0,0,1,75.26,47V68.21a6.9,6.9,0,0,0,1.81-.32l0.42-.17a5.91,5.91,0,0,0,3-3.8A17.52,17.52,0,0,0,81,59ZM50.35,49.4A2.35,2.35,0,0,1,48,51.75H40.29a2.35,2.35,0,0,1-2.35-2.35V41.69a2.35,2.35,0,0,1,2.35-2.35H48a2.35,2.35,0,0,1,2.35,2.35V49.4Z"/><path class="cls-2" d="M45.74,62.31a6.89,6.89,0,0,0-4.95,2,7,7,0,0,0-2.1,5,7,7,0,0,0,7,7h0a7,7,0,0,0,7-6.93A6.87,6.87,0,0,0,45.74,62.31Zm-0.05,12h0a5,5,0,0,1-5-5,5,5,0,0,1,1.5-3.58,4.91,4.91,0,0,1,3.46-1.4h0.06a4.91,4.91,0,0,1,4.95,5.06A5,5,0,0,1,45.69,74.31Z"/><path class="cls-2" d="M48,39.34H40.29a2.35,2.35,0,0,0-2.35,2.35V49.4a2.35,2.35,0,0,0,2.35,2.35H48a2.35,2.35,0,0,0,2.35-2.35V41.69A2.35,2.35,0,0,0,48,39.34ZM48.85,49.4a0.85,0.85,0,0,1-.85.85H40.29a0.85,0.85,0,0,1-.85-0.85V41.69a0.85,0.85,0,0,1,.85-0.85H48a0.85,0.85,0,0,1,.85.85V49.4Z"/><path class="cls-2" d="M87.22,64.21a0.29,0.29,0,0,0-.29-0.29H85.4a0.29,0.29,0,0,0-.29.28l-0.09,4H80.17c2.57-2.37,2.77-6.29,2.78-9.79L83,43.87c0-3.52-.15-7.48-2.73-9.89-2.35-2.18-5.88-2.3-9.09-2.3l-35,0c-2.5,0-5.16.05-7.25,1.43-2.69,1.77-3.68,5.27-3.77,8.5s0.51,6.46.07,9.66a3.27,3.27,0,0,0-1.06-.18,3.56,3.56,0,0,0-1.08.18,3.73,3.73,0,0,0-1.79,1.25,2.58,2.58,0,0,0-.51,1,3.93,3.93,0,0,0,0,.75q0,0.42,0,.84,0,1.68,0,3.37v2.86a4.36,4.36,0,0,0,.54,2.58c0.92,1.28,2.84,1.19,4.36.79A9.91,9.91,0,0,0,36.87,70a9,9,0,1,1,18,.17h32a0.35,0.35,0,0,0,.35-0.35V64.21Zm-13.46,4-12.15-.06V47a0.14,0.14,0,0,1,.14-0.14H73.62a0.14,0.14,0,0,1,.14.14V68.25Zm3.73-.52-0.42.17a6.9,6.9,0,0,1-1.81.32V47a1.64,1.64,0,0,0-1.64-1.64H61.75A1.64,1.64,0,0,0,60.11,47V68.18l-3.32,0a11.35,11.35,0,0,0-11-9.79A11.35,11.35,0,0,0,35,68.3a7.31,7.31,0,0,1-8.08-7.24,10.49,10.49,0,0,0-1.62,1.51,1.65,1.65,0,0,1-2,.33,2.07,2.07,0,0,1-.51-1.69c0-2.22.11-4.44,0.06-6.66a1.08,1.08,0,0,1,.3-1.15,2.43,2.43,0,0,1,2,.07,6.85,6.85,0,0,1,2,1.63l0.2-14a9,9,0,0,1,.79-4.33,6,6,0,0,1,3.75-2.65,17.85,17.85,0,0,1,4.68-.41H72.21c2.32,0,4.88.08,6.61,1.63,2,1.79,2.16,4.84,2.16,7.53V59a17.52,17.52,0,0,1-.48,5A5.91,5.91,0,0,1,77.49,67.73Z"/></svg>