<svg id="Layer_1" data-name="Layer 1" xmlns="http://www.w3.org/2000/svg" viewBox="0 0 108 108"><defs><style>.cls-1{fill:none;}.cls-2{fill:#fff;}</style></defs><title>Icon_RH_Transportation_Shipping-container_ship_RGB_White</title><circle class="cls-1" cx="38.64" cy="77.5" r="4.01"/><circle class="cls-1" cx="26.13" cy="77.5" r="4.01"/><circle class="cls-1" cx="69.36" cy="77.5" r="4.01"/><path class="cls-1" d="M75.83,27.3H32.17V59.59H75.83V27.3ZM40.31,55.53a0.5,0.5,0,1,1-1,0V30.47a0.5,0.5,0,1,1,1,0V55.53Zm9.51,0a0.5,0.5,0,0,1-1,0V30.47a0.5,0.5,0,0,1,1,0V55.53Zm9.51,0a0.5,0.5,0,0,1-1,0V30.47a0.5,0.5,0,0,1,1,0V55.53Zm10,0a0.5,0.5,0,0,1-1,0V30.47a0.5,0.5,0,0,1,1,0V55.53Z"/><circle class="cls-1" cx="81.87" cy="77.5" r="4.01"/><rect class="cls-1" x="18.27" y="66.29" width="71.46" height="2.75"/><path class="cls-2" d="M26.13,72a5.51,5.51,0,1,0,5.51,5.51A5.52,5.52,0,0,0,26.13,72Zm0,9.53a4,4,0,1,1,4-4A4,4,0,0,1,26.13,81.51Z"/><path class="cls-2" d="M38.64,72a5.51,5.51,0,1,0,5.51,5.51A5.52,5.52,0,0,0,38.64,72Zm0,9.53a4,4,0,1,1,4-4A4,4,0,0,1,38.64,81.51Z"/><path class="cls-2" d="M69.36,72a5.51,5.51,0,1,0,5.51,5.51A5.52,5.52,0,0,0,69.36,72Zm0,9.53a4,4,0,1,1,4-4A4,4,0,0,1,69.36,81.51Z"/><path class="cls-2" d="M81.87,72a5.51,5.51,0,1,0,5.51,5.51A5.52,5.52,0,0,0,81.87,72Zm0,9.53a4,4,0,1,1,4-4A4,4,0,0,1,81.87,81.51Z"/><path class="cls-2" d="M95,67.08H91.23V65.54a0.75,0.75,0,0,0-.75-0.75h-73a0.75,0.75,0,0,0-.75.75v1.54H13a0.5,0.5,0,0,0,0,1h3.76v1.71a0.75,0.75,0,0,0,.75.75h73a0.75,0.75,0,0,0,.75-0.75V68.08H95A0.5,0.5,0,0,0,95,67.08Zm-5.26,2H18.27V66.29H89.73V69Z"/><path class="cls-2" d="M31.17,61.59H76.83a1,1,0,0,0,1-1V26.3a1,1,0,0,0-1-1H31.17a1,1,0,0,0-1,1V60.59A1,1,0,0,0,31.17,61.59Zm1-34.29H75.83V59.59H32.17V27.3Z"/><path class="cls-2" d="M58.84,30a0.5,0.5,0,0,0-.5.5V55.53a0.5,0.5,0,0,0,1,0V30.47A0.5,0.5,0,0,0,58.84,30Z"/><path class="cls-2" d="M68.83,30a0.5,0.5,0,0,0-.5.5V55.53a0.5,0.5,0,0,0,1,0V30.47A0.5,0.5,0,0,0,68.83,30Z"/><path class="cls-2" d="M49.33,30a0.5,0.5,0,0,0-.5.5V55.53a0.5,0.5,0,0,0,1,0V30.47A0.5,0.5,0,0,0,49.33,30Z"/><path class="cls-2" d="M39.81,30a0.5,0.5,0,0,0-.5.5V55.53a0.5,0.5,0,1,0,1,0V30.47A0.5,0.5,0,0,0,39.81,30Z"/></svg>