<svg data-name="Layer 1" xmlns="http://www.w3.org/2000/svg" viewBox="0 0 83.5 50.37"><title>Icon_RH_Transportation_Boat_RGB_Black</title><path d="M82.5 44.45h-1.39l.55-4.1a1 1 0 0 0-1-1.13h-1.24v-1.49a.5.5 0 0 0-.5-.5h-25l-.38-.36-5-5a.5.5 0 0 0-.35-.15h-3.73V.5a.5.5 0 1 0-1 0v29l-7.05-2 1.77-18.36a.5.5 0 0 0-.45-.55.51.51 0 0 0-.55.45l-1.74 18a8.28 8.28 0 0 0-6-2.31 1 1 0 0 0-.81 1.23l.52 1.66-2.94 3.92-.16.16H1.31a.5.5 0 0 0-.47.66l2.3 6.8H1a1 1 0 0 0-.69 1.8c1.68 1.59 6.19 6.21 6.81 8.38a1 1 0 0 0 .94.73c.31 0 16.86.33 34.72.33 15.58 0 32.17-.25 39.84-1.17a1 1 0 0 0 .88-1v-2.78a1 1 0 0 0-1-1zm-4.08-6.21v1h-.75v-.92a.47.47 0 0 0 0-.06zm-5.42 0h3.68a.47.47 0 0 0 0 .06v.92H73zm-4.74 0H72v1h-3.75zm-5.08 0h4.08v1h-4.09zm-1 0v1h-1v-.92a.47.47 0 0 0 0-.06zm-2 0a.47.47 0 0 0 0 .06v.92h-4.16l-1-1zm-12-5.3l3.21 3.21h-2.57l-.66-.66zm0 5.16a1 1 0 0 0 .24 0h3.54l1.15 1.08h-4.94zm-1-5.33v1.72l-1.72-1.72zm0 4.55v1.91h-7.47v-.47h4.25a.5.5 0 0 0 .35-.85l-4-4a.5.5 0 0 0-.35-.15h-.25v-.54h3.41zm-7.46.46v-3h.08l3 3zm-8.66-9.3a1 1 0 0 0 .16-.9l-.23-.73a7.77 7.77 0 0 1 3.57 2.11 1 1 0 0 0 .42.24l7.19 2H28.96zm2.44 10.31h5.2v.45h-7.45v-.43zm-2.23-1v-3h1.83v3zm2.83 0v-3h4.61v3zm-2.83-4v-.54h7.44v.54zm-3.88-.54h2.88v.54h-2.1a.5.5 0 0 0-.35.15l-4 4a.5.5 0 0 0 .35.85h6.08v.43h-8.83zm2.88 1.54v3h-4.89l3-3zm-9.25-2h4l-4 4zm-6.67 0h5.67v5l-1.41 1.41h-4.3zm-6.92 0h5.88v6.46H7.42zm-5.39 0h4.39v6.46h-2.2zM81.5 47.32c-16.36 1.72-66.32.86-72.72.74-1-2.13-3.56-5-5.35-6.85h76.1l-.55 4.1a1 1 0 0 0 1 1.13h1.53z"/></svg>