<?xml version="1.0" encoding="utf-8"?>
<!-- Generator: Adobe Illustrator 17.1.0, SVG Export Plug-In . SVG Version: 6.00 Build 0)  -->
<!DOCTYPE svg PUBLIC "-//W3C//DTD SVG 1.1//EN" "http://www.w3.org/Graphics/SVG/1.1/DTD/svg11.dtd">
<svg version="1.1" id="Layer_1" xmlns="http://www.w3.org/2000/svg" xmlns:xlink="http://www.w3.org/1999/xlink" x="0px" y="0px"
	 viewBox="0 0 144 144" enable-background="new 0 0 144 144" xml:space="preserve">
<g>
	<path d="M72,42.133c-22.442,0-40.7,18.258-40.7,40.701c0,3.629,0.488,7.251,1.45,10.764c0.119,0.435,0.514,0.736,0.964,0.736
		h23.141c3.596,4.727,9.218,7.533,15.146,7.533c5.928,0,11.55-2.807,15.144-7.533h23.142c0.451,0,0.846-0.302,0.965-0.736
		c0.962-3.517,1.449-7.138,1.449-10.764C112.7,60.392,94.442,42.133,72,42.133z M102.563,75.066c0.02,0.023,0.039,0.047,0.045,0.078
		l0.369,2.088l-23.758,4.56l-0.062,0.549c-0.401,3.541-3.392,6.212-6.957,6.212c-2.578,0-4.943-1.416-6.171-3.695l-0.261-0.485
		l-4.875,0.937l-0.599-3.395l4.902-0.794l0.077-0.548c0.482-3.437,3.46-6.028,6.927-6.028c2.666,0,5.066,1.491,6.266,3.893
		l0.246,0.493L102.563,75.066z M79.544,77.276c-1.525-2.625-4.29-4.232-7.343-4.232c-4.022,0-7.503,2.873-8.316,6.769l-3.903,0.633
		c-0.374,0.06-0.714,0.271-0.935,0.58c-0.22,0.309-0.309,0.7-0.243,1.072l0.626,3.547c0.066,0.376,0.285,0.714,0.595,0.925
		c0.312,0.216,0.681,0.302,1.077,0.227l3.887-0.746c1.552,2.482,4.267,4.003,7.212,4.003c4.142,0,7.646-2.969,8.367-6.992
		l8.913-1.711c0.007,0.142,0.019,0.282,0.019,0.426c0,9.668-7.864,17.533-17.532,17.533c-9.668,0-17.533-7.865-17.533-17.533
		c0-9.668,7.865-17.534,17.533-17.534c7.356,0,13.985,4.724,16.472,11.594L79.544,77.276z M109.516,92.334H87.179
		c2.088-2.999,3.322-6.635,3.322-10.559c0-0.207-0.012-0.412-0.024-0.617l13.024-2.5c0.762-0.146,1.271-0.885,1.135-1.647
		l-0.41-2.312c-0.134-0.76-0.89-1.281-1.631-1.158l-13.149,2.13c-2.579-7.358-9.639-12.431-17.477-12.431
		c-10.219,0-18.533,8.314-18.533,18.534c0,3.923,1.234,7.56,3.322,10.559H34.484c-0.786-3.109-1.185-6.302-1.185-9.5
		c0-21.34,17.361-38.701,38.7-38.701c21.34,0,38.7,17.361,38.7,38.701C110.7,86.029,110.302,89.221,109.516,92.334z"/>
	<path d="M103.313,82.748c0,0.414,0.336,0.75,0.75,0.75h3.08c0.414,0,0.75-0.336,0.75-0.75c0-0.414-0.336-0.75-0.75-0.75h-3.08
		C103.649,81.998,103.313,82.334,103.313,82.748z"/>
	<path d="M99.128,67.133c0.139,0.241,0.391,0.375,0.65,0.375c0.127,0,0.256-0.032,0.374-0.101l2.667-1.539
		c0.358-0.207,0.482-0.666,0.275-1.024c-0.206-0.358-0.664-0.482-1.025-0.274l-2.667,1.54
		C99.044,66.315,98.921,66.774,99.128,67.133z"/>
	<path d="M89.985,51.737c-0.359-0.208-0.818-0.084-1.025,0.274l-1.54,2.667c-0.207,0.358-0.084,0.817,0.274,1.024
		c0.118,0.068,0.247,0.101,0.374,0.101c0.26,0,0.512-0.134,0.65-0.375l1.54-2.667C90.467,52.403,90.344,51.944,89.985,51.737z"/>
	<path d="M72.08,46.941c-0.414,0-0.75,0.336-0.75,0.75l-0.001,3.08c0,0.414,0.336,0.75,0.75,0.75c0.414,0,0.75-0.335,0.75-0.75
		l0.001-3.08C72.83,47.277,72.495,46.941,72.08,46.941z"/>
	<path d="M55.2,52.015c-0.207-0.36-0.667-0.482-1.024-0.274c-0.358,0.207-0.482,0.666-0.274,1.024l1.539,2.667
		c0.139,0.241,0.391,0.375,0.65,0.375c0.128,0,0.256-0.032,0.375-0.101c0.358-0.207,0.482-0.666,0.275-1.024L55.2,52.015z"/>
	<path d="M44.761,66.115l-2.666-1.541c-0.358-0.207-0.817-0.084-1.025,0.274c-0.207,0.359-0.085,0.817,0.274,1.025l2.666,1.541
		c0.118,0.068,0.247,0.101,0.375,0.101c0.259,0,0.511-0.134,0.65-0.375C45.242,66.781,45.12,66.322,44.761,66.115z"/>
	<path d="M40.521,82.504l-3.079-0.002h0c-0.414,0-0.75,0.336-0.75,0.75c0,0.414,0.336,0.75,0.75,0.75l3.079,0.002h0
		c0.414,0,0.75-0.336,0.75-0.75C41.271,82.84,40.935,82.504,40.521,82.504z"/>
</g>
</svg>
