<?xml version="1.0" encoding="utf-8"?>
<!-- Generator: Adobe Illustrator 17.1.0, SVG Export Plug-In . SVG Version: 6.00 Build 0)  -->
<!DOCTYPE svg PUBLIC "-//W3C//DTD SVG 1.1//EN" "http://www.w3.org/Graphics/SVG/1.1/DTD/svg11.dtd">
<svg version="1.1" id="Layer_1" xmlns="http://www.w3.org/2000/svg" xmlns:xlink="http://www.w3.org/1999/xlink" x="0px" y="0px"
	 viewBox="0 0 216 216" enable-background="new 0 0 216 216" xml:space="preserve">
<g>
	<path fill="#FFFFFF" d="M121.514,137.924c1.753-0.172,3.069-0.774,4.054-1.553c-0.986,0.778-2.302,1.379-4.054,1.55V137.924z"/>
	<path fill="#FFFFFF" d="M128.598,129.761c0,0.099-0.01,0.575-0.115,1.247c0.107-0.672,0.117-1.148,0.117-1.241v-8.771h-0.002v1.498
		V129.761z"/>
	<path fill="#FFFFFF" d="M128.598,106.268c0,0.117-0.015,0.773-0.192,1.663c0.178-0.89,0.194-1.548,0.194-1.665v-8.762h-0.002v1.496
		V106.268z"/>
	<path fill="#FFFFFF" d="M94.052,66.483c0-2.139,1.741-3.879,3.881-3.879h-0.004c-2.141,0-3.881,1.74-3.881,3.881v0.016h0.004
		V66.483z"/>
	<path fill="#FFFFFF" d="M83.179,86.794c0,0.001,0.001,0.002,0.002,0.003c-0.443-0.906-0.681-1.792-0.812-2.507
		C82.499,85.003,82.735,85.888,83.179,86.794z"/>
	<path fill="#FFFFFF" d="M117.634,149.501H93.169c-2.14,0-3.88-1.74-3.88-3.881v-7.699c-3.486-0.34-5.25-2.381-6.108-4.137
		c-0.403-0.823-0.634-1.627-0.773-2.305c0.138,0.678,0.368,1.482,0.771,2.305c0.86,1.76,2.619,3.801,6.109,4.141v7.699
		c0,2.143,1.74,3.881,3.88,3.881h24.471c1.274,0,2.399-0.629,3.105-1.588C120.037,148.873,118.912,149.501,117.634,149.501z"/>
	<path fill="#FFFFFF" d="M89.29,74.007V70.38c0-0.266,0.027-0.526,0.079-0.778c-0.052,0.253-0.08,0.515-0.08,0.784v3.619h-7.08
		v0.002h1.497H89.29z"/>
	<rect x="89.289" y="114.429" fill="#FFFFFF" width="0.001" height="6.565"/>
	<path fill="#FFFFFF" d="M83.181,110.292c-0.482-0.986-0.725-1.953-0.848-2.696c0.122,0.744,0.363,1.712,0.846,2.698
		c0.43,0.876,1.086,1.824,2.07,2.596C84.266,112.117,83.61,111.169,83.181,110.292z"/>
	<path fill="#FFFFFF" d="M89.29,90.934c-3.382-0.33-5.135-2.259-6.021-3.977c0.888,1.723,2.636,3.648,6.02,3.977v6.566h0.001V90.934
		z"/>
	<path fill="#FFFFFF" d="M121.514,74.007h5.584h1.5v1.5v7.268c0,0.105-0.008,0.643-0.139,1.399c0.132-0.754,0.141-1.291,0.141-1.397
		v-8.771h-7.086V74.007z"/>
	<path fill="#FFFFFF" d="M63.581,107.999c0-7.592,2.135-14.961,6.174-21.307c0.222-0.35,0.119-0.812-0.23-1.035
		c-0.347-0.221-0.813-0.119-1.035,0.23c-4.192,6.588-6.408,14.232-6.408,22.111s2.215,15.523,6.405,22.111
		c0.143,0.225,0.386,0.348,0.634,0.348c0.138,0,0.275-0.037,0.4-0.117c0.351-0.223,0.453-0.686,0.231-1.035
		C65.715,122.96,63.581,115.593,63.581,107.999z"/>
	<path fill="#FFFFFF" d="M69.623,107.999c0-6.246,1.663-12.354,4.81-17.662c0.21-0.356,0.092-0.816-0.263-1.027
		c-0.358-0.209-0.817-0.094-1.028,0.262c-3.285,5.541-5.019,11.914-5.019,18.428c0,6.519,1.736,12.893,5.02,18.434
		c0.141,0.234,0.39,0.365,0.647,0.365c0.13,0,0.262-0.033,0.382-0.103c0.356-0.211,0.473-0.672,0.263-1.029
		C71.287,120.358,69.623,114.247,69.623,107.999z"/>
	<path fill="#FFFFFF" d="M78.844,92.995c-0.364-0.195-0.819-0.057-1.014,0.309c-2.4,4.49-3.667,9.572-3.667,14.697
		c0,5.123,1.267,10.203,3.665,14.695c0.135,0.252,0.393,0.395,0.662,0.395c0.119,0,0.24-0.027,0.353-0.088
		c0.365-0.193,0.502-0.648,0.308-1.016c-2.281-4.273-3.487-9.109-3.487-13.986c0-4.881,1.207-9.717,3.489-13.99
		C79.347,93.645,79.21,93.19,78.844,92.995z"/>
	<path fill="#FFFFFF" d="M142.314,85.888c-0.222-0.35-0.688-0.451-1.035-0.23c-0.35,0.223-0.453,0.685-0.231,1.035
		c4.039,6.346,6.174,13.715,6.174,21.307c0,7.596-2.134,14.963-6.171,21.307c-0.223,0.35-0.119,0.812,0.23,1.035
		c0.125,0.08,0.264,0.117,0.401,0.117c0.248,0,0.491-0.123,0.634-0.348c4.19-6.586,6.405-14.23,6.405-22.111
		C148.722,100.12,146.506,92.476,142.314,85.888z"/>
	<path fill="#FFFFFF" d="M137.661,89.571c-0.211-0.355-0.67-0.471-1.027-0.262c-0.356,0.211-0.474,0.672-0.264,1.027
		c3.148,5.309,4.812,11.416,4.812,17.662c0,6.248-1.663,12.357-4.812,17.666c-0.21,0.357-0.092,0.818,0.264,1.029
		c0.12,0.07,0.252,0.103,0.382,0.103c0.257,0,0.506-0.131,0.646-0.365c3.285-5.543,5.021-11.916,5.021-18.434
		C142.681,101.485,140.945,95.112,137.661,89.571z"/>
	<path fill="#FFFFFF" d="M132.974,93.304c-0.194-0.365-0.648-0.504-1.016-0.309c-0.364,0.195-0.502,0.65-0.307,1.016
		c2.282,4.273,3.488,9.111,3.488,13.99c0,4.877-1.206,9.713-3.487,13.986c-0.195,0.367-0.058,0.822,0.307,1.016
		c0.113,0.06,0.234,0.088,0.354,0.088c0.268,0,0.526-0.143,0.662-0.395c2.398-4.492,3.665-9.572,3.665-14.695
		C136.64,102.876,135.373,97.794,132.974,93.304z"/>
	<path fill="#FFFFFF" d="M105.402,74.007c-5.79,0-10.5,4.711-10.5,10.5c0,5.791,4.71,10.5,10.5,10.5c5.79,0,10.5-4.709,10.5-10.5
		C115.902,78.718,111.192,74.007,105.402,74.007z M105.402,93.507c-4.971,0-9-4.029-9-9s4.029-9,9-9s9,4.029,9,9
		S110.373,93.507,105.402,93.507z"/>
	<path fill="#FFFFFF" d="M105.402,77.167c-4.047,0-7.34,3.293-7.34,7.34c0,4.047,3.293,7.342,7.34,7.342
		c4.047,0,7.34-3.295,7.34-7.342C112.742,80.46,109.449,77.167,105.402,77.167z"/>
	<path fill="#FFFFFF" d="M105.402,97.501c-5.79,0-10.5,4.709-10.5,10.5c0,5.789,4.71,10.5,10.5,10.5c5.79,0,10.5-4.711,10.5-10.5
		C115.902,102.21,111.192,97.501,105.402,97.501z M105.402,117.001c-4.971,0-9-4.029-9-9c0-4.971,4.029-9,9-9s9,4.029,9,9
		C114.402,112.972,110.373,117.001,105.402,117.001z"/>
	<path fill="#FFFFFF" d="M104.573,100.706c-0.275,0.031-0.472,0.279-0.442,0.553c0.03,0.273,0.265,0.471,0.553,0.441
		c1.568-0.178,3.215,0.252,4.511,1.225c0.09,0.066,0.195,0.1,0.3,0.1c0.151,0,0.302-0.07,0.4-0.201
		c0.165-0.221,0.12-0.533-0.101-0.699C108.295,100.999,106.399,100.505,104.573,100.706z"/>
	<path fill="#FFFFFF" d="M103.107,113.911c-2.419-0.943-4.045-3.318-4.045-5.91c0-2.359,1.302-4.512,3.396-5.613
		c0.244-0.131,0.338-0.432,0.209-0.678c-0.129-0.244-0.43-0.338-0.676-0.209c-2.424,1.277-3.93,3.768-3.93,6.5
		c0,3,1.882,5.75,4.682,6.842c0.06,0.023,0.121,0.033,0.182,0.033c0.2,0,0.389-0.121,0.466-0.318
		C103.492,114.302,103.364,114.013,103.107,113.911z"/>
	<path fill="#FFFFFF" d="M105.402,120.995c-5.79,0-10.5,4.709-10.5,10.5c0,5.789,4.71,10.5,10.5,10.5c5.79,0,10.5-4.711,10.5-10.5
		C115.902,125.704,111.192,120.995,105.402,120.995z M105.402,140.495c-4.971,0-9-4.029-9-9c0-4.973,4.029-9,9-9s9,4.027,9,9
		C114.402,136.466,110.373,140.495,105.402,140.495z"/>
	<path fill="#FFFFFF" d="M104.571,124.2c-0.274,0.033-0.471,0.281-0.44,0.557c0.031,0.273,0.286,0.461,0.555,0.438
		c1.567-0.184,3.213,0.25,4.509,1.223c0.09,0.068,0.195,0.1,0.3,0.1c0.151,0,0.302-0.068,0.4-0.199
		c0.165-0.221,0.12-0.535-0.101-0.701C108.292,124.491,106.394,123.991,104.571,124.2z"/>
	<path fill="#FFFFFF" d="M103.107,137.403c-2.419-0.941-4.045-3.316-4.045-5.91c0-2.359,1.302-4.51,3.396-5.613
		c0.244-0.129,0.338-0.432,0.209-0.676c-0.129-0.246-0.43-0.338-0.676-0.209c-2.424,1.275-3.93,3.766-3.93,6.498
		c0,3.002,1.882,5.75,4.682,6.844c0.06,0.021,0.121,0.033,0.182,0.033c0.2,0,0.389-0.121,0.466-0.318
		C103.492,137.794,103.364,137.505,103.107,137.403z"/>
	<path fill="#FFFFFF" d="M116.748,66.485v0.02h0.891c2.131,0,3.87,1.74,3.87,3.881v3.619h0.005V70.38c0-2.139-1.74-3.879-3.88-3.879
		h-0.883v-0.018c0-2.139-1.741-3.879-3.881-3.879h-0.002C115.009,62.604,116.748,64.345,116.748,66.485z"/>
	<path fill="#FFFFFF" d="M93.169,66.505h0.88v-0.004h-0.879c-1.873,0-3.44,1.334-3.801,3.101
		C89.732,67.836,91.297,66.505,93.169,66.505z"/>
	<path fill="#FFFFFF" d="M83.181,86.798c0.026,0.052,0.06,0.107,0.087,0.16c-0.027-0.053-0.062-0.108-0.088-0.161
		C83.181,86.797,83.181,86.797,83.181,86.798z"/>
	<path fill="#FFFFFF" d="M121.509,114.425v6.57h7.089v-0.002h-1.5h-5.584v-6.564c3.486-0.34,5.25-2.383,6.108-4.137
		c0.414-0.846,0.646-1.671,0.783-2.36c-0.138,0.69-0.372,1.516-0.787,2.362C126.759,112.046,124.998,114.085,121.509,114.425z"/>
	<path fill="#FFFFFF" d="M125.568,136.371c0.976-0.77,1.628-1.713,2.055-2.587c0.501-1.024,0.742-2.024,0.86-2.777
		c-0.12,0.752-0.362,1.753-0.864,2.777C127.192,134.658,126.541,135.601,125.568,136.371z"/>
	<path fill="#FFFFFF" d="M121.509,145.624c0,0.861-0.29,1.649-0.765,2.293c0.477-0.645,0.77-1.435,0.77-2.297v-7.696
		c-0.002,0-0.003,0.001-0.005,0.001V145.624z"/>
	<path fill="#FFFFFF" d="M121.509,90.934v6.57h7.089v-0.004h-1.5h-5.584v-6.566c3.486-0.34,5.25-2.381,6.108-4.137
		c0.467-0.954,0.709-1.891,0.836-2.624c-0.128,0.731-0.372,1.667-0.84,2.62C126.759,88.556,124.998,90.595,121.509,90.934z"/>
	<path fill="#FFFFFF" d="M82.208,120.995h7.08v-0.002h-5.583h-1.5v1.5v7.268c0,0.12,0.015,0.801,0.203,1.719
		c-0.187-0.919-0.2-1.599-0.2-1.713V120.995z"/>
	<path fill="#FFFFFF" d="M82.208,74.007h-0.003v1.5v7.268c0,0.11,0.012,0.701,0.163,1.515c-0.149-0.813-0.16-1.402-0.16-1.513
		V74.007z"/>
	<path fill="#FFFFFF" d="M82.208,97.505h7.08v-0.004h-5.583h-1.5v1.5v7.268c0,0.102,0.008,0.61,0.127,1.328
		c-0.118-0.718-0.124-1.227-0.124-1.329V97.505z"/>
	<path fill="#FFFFFF" d="M85.249,112.89c0.984,0.773,2.296,1.369,4.04,1.539v-0.004C87.544,114.255,86.232,113.66,85.249,112.89z"/>
	<path fill="#FFFFFF" d="M128.598,75.507v-1.5h-1.5h-5.584v-0.002h-0.005v-3.619c0-2.141-1.739-3.881-3.87-3.881h-0.891v-0.02
		c0-2.141-1.739-3.881-3.88-3.881H97.933c-2.14,0-3.881,1.74-3.881,3.879v0.018h-0.004v0.004h-0.88c-1.871,0-3.437,1.331-3.8,3.097
		c-0.051,0.251-0.079,0.512-0.079,0.778v3.627h-5.584h-1.497v8.769c0,0.111,0.011,0.701,0.16,1.513
		c0.132,0.715,0.369,1.601,0.812,2.507c0.026,0.053,0.06,0.107,0.088,0.161c0.886,1.718,2.639,3.647,6.021,3.977v6.566h-0.001v0.004
		h-7.08v8.762c0,0.103,0.007,0.612,0.124,1.329c0.123,0.743,0.366,1.71,0.848,2.696c0.429,0.877,1.084,1.825,2.068,2.598
		c0.983,0.771,2.295,1.365,4.04,1.535v0.004c0,0,0.001,0,0.001,0v6.564h-0.001v0.002h-7.08v8.771c0,0.114,0.013,0.793,0.2,1.713
		c0.139,0.678,0.37,1.482,0.773,2.305c0.858,1.756,2.622,3.797,6.108,4.137v7.699c0,2.141,1.74,3.881,3.88,3.881h24.465
		c1.277,0,2.403-0.628,3.11-1.584c0.474-0.644,0.765-1.432,0.765-2.293v-7.699c0.002,0,0.003-0.001,0.005-0.001v-0.003
		c1.752-0.171,3.068-0.772,4.054-1.55c0.973-0.77,1.624-1.713,2.051-2.587c0.502-1.024,0.744-2.025,0.864-2.777
		c0.106-0.671,0.115-1.148,0.115-1.247v-7.268v-1.498h-7.089v-6.57c3.489-0.34,5.25-2.379,6.109-4.131
		c0.415-0.846,0.649-1.672,0.787-2.362c0.177-0.89,0.192-1.547,0.192-1.663v-7.268v-1.496h-7.089v-6.57
		c3.489-0.34,5.25-2.379,6.109-4.141c0.468-0.954,0.712-1.889,0.84-2.62c0.131-0.756,0.139-1.294,0.139-1.399V75.507z
		 M89.29,136.427c-5.575-0.65-5.584-6.666-5.584-6.666v-7.268h5.584V136.427z M89.29,112.933c-5.575-0.65-5.584-6.664-5.584-6.664
		v-7.268h5.584V112.933z M89.29,89.438c-5.575-0.65-5.584-6.664-5.584-6.664v-7.268h5.584V89.438z M96.052,66.483
		c0-1.035,0.844-1.879,1.881-1.879h14.938c1.037,0,1.881,0.844,1.881,1.879v0.018H96.052V66.483z M119.514,145.62
		c0,1.037-0.844,1.881-1.88,1.881H93.169c-1.036,0-1.88-0.844-1.88-1.881V70.38c0-1.035,0.844-1.879,1.88-1.879h24.465
		c1.036,0,1.88,0.844,1.88,1.879V145.62z M121.514,122.493h5.584v7.268c0,0-0.009,6.016-5.584,6.666V122.493z M121.514,99.001h5.584
		v7.268c0,0-0.009,6.014-5.584,6.664V99.001z M127.098,82.774c0,0-0.009,6.014-5.584,6.664V75.507h5.584V82.774z"/>
</g>
</svg>
