<?xml version="1.0" encoding="utf-8"?>
<!-- Generator: Adobe Illustrator 17.1.0, SVG Export Plug-In . SVG Version: 6.00 Build 0)  -->
<!DOCTYPE svg PUBLIC "-//W3C//DTD SVG 1.1//EN" "http://www.w3.org/Graphics/SVG/1.1/DTD/svg11.dtd">
<svg version="1.1" id="Layer_1" xmlns="http://www.w3.org/2000/svg" xmlns:xlink="http://www.w3.org/1999/xlink" x="0px" y="0px"
	 viewBox="0 0 144 144" enable-background="new 0 0 144 144" xml:space="preserve">
<g>
	<g>
		<path fill="#FFFFFF" d="M85.158,37.228c-0.188-0.194-0.447-0.304-0.718-0.304H47.702c-0.553,0-1,0.447-1,1v66.641
			c0,0.553,0.447,1,1,1h48.597c0.553,0,1-0.447,1-1V50.146c0-0.26-0.101-0.51-0.282-0.696L85.158,37.228z M85.44,40.391l9.028,9.306
			H85.44V40.391z M48.702,38.924H83.44v11.342c0,0.076,0.027,0.144,0.043,0.216c-0.016,0.071-0.043,0.139-0.043,0.215
			c0,0.553,0.447,1,1,1h10.858v51.868H48.702V38.924z"/>
		<path fill="#FFFFFF" d="M81.982,68.53c-0.049-0.09-0.132-0.155-0.23-0.183c-0.099-0.027-0.204-0.014-0.292,0.039l-5.144,3.046
			c-0.176,0.104-0.236,0.329-0.137,0.508l2.695,4.818h-2.911l0.013-1.159c0-0.186,0-0.36-0.235-0.516
			c-0.195-0.131-0.455-0.113-0.682,0.055c-0.033,0.024-0.062,0.055-0.085,0.088l-2.97,4.281c-0.09,0.13-0.09,0.301,0,0.43
			l2.97,4.282c0.022,0.034,0.052,0.063,0.085,0.088c0.127,0.095,0.26,0.143,0.394,0.143c0.103,0,0.202-0.03,0.288-0.087
			c0.235-0.157,0.235-0.332,0.235-0.521l-0.014-1.155h2.134c2.251,0,2.986-1.274,3.022-1.339l2.683-5.159
			c0.002-0.003,0.001-0.007,0.003-0.011c0.002-0.003,0.005-0.005,0.006-0.008c1.063-2.339,0.162-3.986,0.126-4.051L81.982,68.53z
			 M78.097,81.935h-2.515c-0.101,0-0.197,0.04-0.268,0.111c-0.071,0.071-0.11,0.169-0.108,0.27l0.01,0.932l-2.443-3.524l2.444-3.523
			l-0.011,0.932c-0.001,0.101,0.038,0.197,0.108,0.27c0.071,0.071,0.167,0.111,0.268,0.111h5.205c0.216,0,0.915-0.02,1.608-0.25
			l-1.939,3.73C80.45,81.001,79.881,81.935,78.097,81.935z M77.017,71.894l4.491-2.66l1.77,3.25c0.03,0.057,0.741,1.396-0.146,3.363
			c-0.383,0.721-1.698,0.912-2.357,0.912h-1.034L77.017,71.894z"/>
		<path fill="#FFFFFF" d="M70.017,76.059l-5.592-0.009l1.534-2.643l1.011,0.618c0.113,0.067,0.203,0.12,0.335,0.12
			c0.106,0,0.185-0.038,0.228-0.06c0.216-0.104,0.328-0.333,0.301-0.613c-0.004-0.042-0.016-0.083-0.033-0.121l-2.181-4.732
			c-0.065-0.142-0.216-0.229-0.37-0.218l-5.197,0.384c-0.04,0.003-0.08,0.013-0.118,0.028c-0.259,0.109-0.407,0.317-0.395,0.561
			c0.017,0.282,0.166,0.371,0.331,0.468l0.983,0.557l-1.066,1.855c-0.296,0.503-0.493,1.009-0.584,1.504
			c0,0.002,0,0.004-0.001,0.005v0.001c-0.002,0.009-0.001,0.019-0.002,0.027c-0.002,0.011-0.003,0.021-0.003,0.031
			c0,0.001-0.001,0.001-0.001,0.001v0.008v0.001c-0.153,1.058,0.531,2.218,0.564,2.273l2.738,4.379
			c1.475,2.104,3.352,2.164,3.425,2.166l4.079,0.139c0.005,0.001,0.009,0.001,0.013,0.001c0.098,0,0.191-0.038,0.263-0.106
			c0.072-0.07,0.114-0.168,0.114-0.271v-5.978C70.393,76.228,70.225,76.059,70.017,76.059z M69.64,82.022l-3.693-0.126
			c-0.064-0.002-1.585-0.069-2.819-1.828l-2.393-3.827c0.021,0.01,0.042,0.015,0.062,0.024c0.207,0.1,0.421,0.183,0.638,0.249
			c0.027,0.009,0.054,0.02,0.081,0.027c0.227,0.065,0.452,0.113,0.673,0.151c0.044,0.008,0.086,0.016,0.13,0.021
			c0.213,0.033,0.417,0.056,0.608,0.07c0.036,0.002,0.067,0.004,0.103,0.006c0.189,0.011,0.368,0.018,0.517,0.018
			c0.102,0,0.183-0.002,0.237-0.004l0.063-0.004l5.793,0.01V82.022z M61.696,70.443c0.05-0.087,0.062-0.19,0.036-0.287
			c-0.026-0.097-0.09-0.179-0.178-0.228l-0.781-0.442l4.271-0.315l1.793,3.89l-0.812-0.498c-0.087-0.053-0.191-0.069-0.289-0.044
			c-0.099,0.025-0.183,0.088-0.234,0.176l-1.95,3.361c-0.002,0-0.003,0-0.005,0c-0.557,0-1.948-0.068-2.832-0.703
			c-0.509-0.365-0.759-0.852-0.765-1.488c0.078-0.4,0.241-0.814,0.488-1.233L61.696,70.443z"/>
		<path fill="#FFFFFF" d="M63.542,65.725l5.077,3.153c0.062,0.038,0.13,0.057,0.198,0.057c0.123,0,0.243-0.06,0.315-0.17l3.018-4.6
			l1.304,2.56l-0.982,0.53c-0.157,0.082-0.32,0.167-0.349,0.447c-0.026,0.239,0.11,0.456,0.365,0.579
			c0.036,0.017,0.076,0.029,0.116,0.034l5.17,0.655c0.016,0.002,0.031,0.003,0.047,0.003c0.139,0,0.268-0.076,0.334-0.201
			l2.425-4.611c0.019-0.036,0.032-0.074,0.038-0.114c0.046-0.279-0.053-0.515-0.265-0.633c-0.05-0.027-0.133-0.072-0.25-0.072
			c-0.12,0-0.206,0.045-0.312,0.1l-1.076,0.542L77.779,62.1c-1.041-1.996-2.512-2.061-2.585-2.062l-5.814,0.004
			c-0.001,0-0.002,0-0.002,0h-0.001h-0.001h-0.001h-0.003c-0.001,0-0.001,0-0.001,0H69.37c-0.001,0-0.001,0-0.001,0h-0.001
			c0,0,0,0-0.001,0l-0.003,0.001c-0.002,0-0.003-0.001-0.005-0.001c-2.565,0.138-3.61,1.698-3.65,1.76l-2.281,3.392
			c-0.057,0.085-0.077,0.189-0.056,0.289C63.394,65.584,63.455,65.67,63.542,65.725z M78.427,64.848
			c0.096,0.031,0.199,0.024,0.289-0.021l0.902-0.454l-2.009,3.819l-4.281-0.543l0.807-0.436c0.18-0.098,0.25-0.32,0.157-0.503
			l-1.734-3.405c-0.014-0.048-0.035-0.091-0.066-0.13l-0.536-1.053c-0.025-0.05-0.385-0.753-0.981-1.328l4.207-0.004
			c0.044,0.003,1.106,0.077,1.927,1.65l1.102,2.218C78.253,64.748,78.332,64.816,78.427,64.848z M66.336,62.22
			c0.036-0.054,0.896-1.305,3.054-1.424c0.864,0.008,1.659,1.203,1.894,1.666l0.474,0.93l-3.052,4.652l-4.435-2.754L66.336,62.22z"
			/>
	</g>
</g>
</svg>
