<?xml version="1.0" encoding="utf-8"?>
<!-- Generator: Adobe Illustrator 17.1.0, SVG Export Plug-In . SVG Version: 6.00 Build 0)  -->
<!DOCTYPE svg PUBLIC "-//W3C//DTD SVG 1.1//EN" "http://www.w3.org/Graphics/SVG/1.1/DTD/svg11.dtd">
<svg version="1.1" id="Layer_1" xmlns="http://www.w3.org/2000/svg" xmlns:xlink="http://www.w3.org/1999/xlink" x="0px" y="0px"
	 viewBox="0 0 144 144" enable-background="new 0 0 144 144" xml:space="preserve">
<g>
	<g>
		<path d="M53.429,95.889c0,0.99,0.836,1.883,2.219,2.652v1.24c0,2.938,8.617,4.986,16.352,4.986s16.351-2.049,16.351-4.986v-1.238
			c1.384-0.771,2.222-1.664,2.222-2.654V48.584c0-0.686-0.686-1.969-2.021-3.809c-0.576-2.404-6.418-3.478-11.791-3.855
			c-0.473-0.994-1.477-1.688-2.648-1.688H69.89c-1.172,0-2.176,0.693-2.646,1.688c-5.66,0.396-11.846,1.565-11.846,4.248
			c0,0.004,0.002,0.008,0.002,0.012c-1.965,2.41-1.971,3.148-1.971,3.404V95.889z M71.999,103.268
			c-8.934,0-14.852-2.48-14.852-3.486V99.25c3.615,1.447,9.348,2.307,14.852,2.307s11.236-0.859,14.851-2.305v0.529
			C86.85,100.787,80.931,103.268,71.999,103.268 M87.583,46.891c0.531,0.801,0.939,1.498,0.988,1.693l0.002,47.285
			c-0.123,0.492-1.443,1.26-3.705,1.967c-2.912,0.91-7.385,1.721-12.869,1.721c-5.49,0-9.967-0.812-12.879-1.721
			c-2.254-0.703-3.57-1.465-3.691-1.947V48.656c0.006-0.02,0.021-0.049,0.033-0.072c0.131-0.301,0.545-0.916,1.074-1.609
			c1.014,0.715,2.609,1.232,4.402,1.609c4.668,0.979,10.65,1,11.061,1c0.41,0,6.395-0.021,11.062-1 M69.89,40.732h4.221
			c0.707,0,1.299,0.514,1.414,1.19l-0.625,0.754c-0.111,0.135-0.175,0.305-0.175,0.479c0,0.346,0,0.617-1.435,0.617h-2.58
			c-1.436,0-1.436-0.271-1.436-0.617c0-0.174-0.062-0.344-0.174-0.479l-0.625-0.754C68.591,41.246,69.183,40.732,69.89,40.732
			 M67.788,43.443c0.068,0.676,0.385,1.101,0.791,1.369c-1.191,0.223-1.969,0.557-1.969,0.936c0,0.668,2.371,1.211,5.299,1.211
			c2.924,0,5.295-0.543,5.295-1.211c0-0.363-0.715-0.686-1.826-0.908c0.428-0.268,0.765-0.695,0.834-1.396l0.445-0.535
			c5.896,0.408,9.385,1.531,9.912,2.26c-0.656,0.904-5.857,2.416-14.57,2.416c-8.711,0-13.914-1.512-14.57-2.416
			c0.529-0.729,4.016-1.852,9.914-2.26L67.788,43.443z"/>
		<path d="M62.405,53.607c0.367,0,0.689-0.27,0.742-0.645c0.059-0.41-0.227-0.789-0.637-0.848c-1.701-0.242-3.184-0.547-4.408-0.906
			c-0.398-0.115-0.814,0.111-0.93,0.51c-0.117,0.396,0.111,0.812,0.508,0.93c1.293,0.379,2.846,0.699,4.619,0.951
			C62.335,53.605,62.37,53.607,62.405,53.607"/>
		<path d="M85.897,51.209c-3.24,0.955-8.436,1.523-13.898,1.523c-1.221,0-2.453-0.027-3.664-0.084
			c-0.367-0.027-0.764,0.299-0.783,0.713c-0.02,0.414,0.299,0.766,0.713,0.785c1.234,0.057,2.49,0.086,3.734,0.086
			c5.682,0,10.902-0.578,14.322-1.584c0.396-0.117,0.625-0.535,0.508-0.932C86.712,51.32,86.29,51.094,85.897,51.209"/>
	</g>
</g>
</svg>
