<?xml version="1.0" encoding="utf-8"?>
<!-- Generator: Adobe Illustrator 17.1.0, SVG Export Plug-In . SVG Version: 6.00 Build 0)  -->
<!DOCTYPE svg PUBLIC "-//W3C//DTD SVG 1.1//EN" "http://www.w3.org/Graphics/SVG/1.1/DTD/svg11.dtd">
<svg version="1.1" id="Layer_1" xmlns="http://www.w3.org/2000/svg" xmlns:xlink="http://www.w3.org/1999/xlink" x="0px" y="0px"
	 viewBox="0 0 144 144" enable-background="new 0 0 144 144" xml:space="preserve">
<g>
	<g>
		<path d="M77.881,39.23c0-0.195-0.01-0.388-0.029-0.578c0.614-0.373,0.992-0.875,0.992-1.547v-5.673
			c0-2.112-3.721-2.558-6.843-2.558c-3.121,0-6.845,0.445-6.845,2.558v5.673c0,0.672,0.379,1.174,0.992,1.547
			c-0.017,0.19-0.029,0.383-0.029,0.578v3.645c-6.371,2.429-11.094,9.593-11.094,17.004v3.768c0,0.12,0.024,0.241,0.067,0.356
			l0.821,2.157v28.922l-0.788,1.629c-0.066,0.137-0.101,0.285-0.101,0.436c0,14.113,4.105,16.787,12.233,16.965
			c0.854,0,1.778-0.471,2.756-0.973c0.692-0.354,1.552-0.793,1.986-0.793c0.383,0,1.235,0.456,1.856,0.787
			c0.947,0.506,1.842,0.984,2.672,0.984h0.039c8.229-0.148,12.406-2.812,12.406-16.971c0-0.158-0.037-0.314-0.109-0.455
			l-0.828-1.619l0.051-28.914l0.824-2.198c0.041-0.113,0.062-0.231,0.062-0.351v-3.731c0-7.411-4.721-14.575-11.094-17.002V39.23z
			 M72.001,30.875c3.132,0,4.491,0.498,4.843,0.742v5.305c-0.352,0.244-1.711,0.74-4.843,0.74c-3.134,0-4.492-0.496-4.845-0.74
			v-5.305C67.509,31.373,68.869,30.875,72.001,30.875 M76.529,113.113v-0.996c-0.33,0-1.139-0.432-1.729-0.748
			c-0.94-0.504-1.914-1.023-2.799-1.023c-0.916,0-1.923,0.516-2.898,1.014c-0.655,0.336-1.469,0.752-1.85,0.752
			c-6.328-0.139-10.184-1.205-10.228-14.736l0.789-1.627c0.065-0.137,0.1-0.285,0.1-0.436V65.976c0-0.12-0.025-0.241-0.067-0.354
			l-0.821-2.157v-3.585c0-6.848,4.473-13.443,10.403-15.344c0.424-0.137,0.703-0.621,0.69-1.065v-4.127
			c1.193,0.241,2.588,0.319,3.882,0.319c1.294,0,2.688-0.078,3.88-0.319v4.243c0,0.434,0.281,0.818,0.695,0.951
			c5.928,1.902,10.398,8.498,10.398,15.342v3.548l-0.824,2.201c-0.041,0.11-0.062,0.228-0.062,0.346l-0.051,29.337
			c0,0.158,0.037,0.314,0.109,0.457l0.828,1.619c-0.045,13.561-3.982,14.615-10.441,14.73L76.529,113.113v0.004V113.113z"/>
		<path d="M68.705,32.98c0.758,0.086,1.554,0.143,2.364,0.166c0.287,0.008,0.574,0.012,0.854,0.012c1.238,0,2.399-0.078,3.395-0.229
			c0.273-0.041,0.461-0.298,0.418-0.57c-0.041-0.273-0.301-0.459-0.568-0.418c-1.164,0.176-2.573,0.248-4.069,0.205
			c-0.783-0.023-1.55-0.076-2.281-0.16c-0.272-0.027-0.521,0.166-0.551,0.441C68.233,32.701,68.433,32.949,68.705,32.98"/>
		<path d="M68.096,67.553c1.217,0.037,2.528,0.062,3.903,0.062c5.171,0,9.29-0.33,11.284-0.526c0.412-0.039,0.713-0.406,0.672-0.818
			c-0.039-0.411-0.408-0.715-0.818-0.674c-1.969,0.192-6.029,0.521-11.138,0.521c-1.358,0-2.655-0.026-3.856-0.064
			c-0.426,0.017-0.76,0.314-0.774,0.728C67.355,67.194,67.682,67.54,68.096,67.553"/>
		<path d="M60.623,67.098c0.658,0.062,1.638,0.146,2.862,0.229c0.018,0,0.035,0.002,0.054,0.002c0.392,0,0.722-0.301,0.746-0.698
			c0.028-0.414-0.283-0.771-0.697-0.8c-1.209-0.084-2.174-0.166-2.821-0.228c-0.412-0.03-0.781,0.265-0.819,0.677
			C59.908,66.692,60.211,67.059,60.623,67.098"/>
		<path d="M83.955,94.979c-0.039-0.412-0.393-0.715-0.82-0.672c-1.57,0.154-5.801,0.518-11.135,0.518
			c-1.358,0-2.653-0.023-3.858-0.062c-0.42,0.008-0.761,0.312-0.772,0.727c-0.015,0.414,0.313,0.76,0.728,0.773
			c1.215,0.039,2.526,0.062,3.903,0.062c5.4,0,9.689-0.367,11.283-0.525C83.695,95.758,83.996,95.391,83.955,94.979"/>
		<path d="M63.588,94.541c-1.209-0.082-2.174-0.166-2.822-0.229c-0.409-0.034-0.78,0.265-0.819,0.677
			c-0.039,0.412,0.265,0.779,0.677,0.818c0.657,0.062,1.637,0.148,2.862,0.23c0.018,0,0.037,0.002,0.054,0.002
			c0.391,0,0.721-0.305,0.745-0.699C64.315,94.926,64.002,94.568,63.588,94.541"/>
	</g>
</g>
</svg>
