<?xml version="1.0" encoding="utf-8"?>
<!-- Generator: Adobe Illustrator 17.1.0, SVG Export Plug-In . SVG Version: 6.00 Build 0)  -->
<!DOCTYPE svg PUBLIC "-//W3C//DTD SVG 1.1//EN" "http://www.w3.org/Graphics/SVG/1.1/DTD/svg11.dtd">
<svg version="1.1" id="Layer_1" xmlns="http://www.w3.org/2000/svg" xmlns:xlink="http://www.w3.org/1999/xlink" x="0px" y="0px"
	 viewBox="0 0 144 144" enable-background="new 0 0 144 144" xml:space="preserve">
<g>
	<g>
		<g>
			<ellipse cx="72.167" cy="31.292" rx="3.19" ry="0.522"/>
			<path d="M78.389,51.241l-1.111-13.098c0-0.175-0.01-0.348-0.026-0.518c0.552-0.335,0.891-0.787,0.891-1.39v-5.646
				c0-1.898-3.341-2.297-6.143-2.297c-2.803,0-6.143,0.398-6.143,2.297v5.646c0,0.603,0.339,1.055,0.891,1.39
				c-0.017,0.17-0.026,0.343-0.026,0.518L65.608,51.24c-7.242,4.396-8.754,11.972-8.843,20.447
				c-0.036,0.142,0.518,39.375,0.518,39.375c0,0.812,0.685,1.543,1.817,2.174l1.229,0.58c2.005,0.803,4.806,1.383,7.806,1.676
				c1.431,0.139,2.351,0.215,3.808,0.215c1.474,0,2.413-0.078,3.862-0.221c0.705-0.07,1.398-0.154,2.073-0.256
				c1.344-0.201,2.612-0.461,3.745-0.773c0.699-0.193,1.35-0.406,1.931-0.639l1.228-0.58c1.135-0.633,1.821-1.363,1.821-2.176
				l0.078-9.133c0.05-1.09,0.556-26.412,0.556-26.52v-3.35C87.236,62.443,84.882,54.942,78.389,51.241z M67.65,30.753
				c0.316-0.22,1.537-0.666,4.349-0.666c2.811,0,4.031,0.446,4.347,0.666v5.317c-0.316,0.22-1.535,0.666-4.347,0.666
				c-2.812,0-4.032-0.446-4.349-0.666V30.753z M81.93,112.329c-2.387,0.746-5.494,1.41-9.987,1.41c-4.499,0-7.61-0.666-9.997-1.41
				c-0.697-0.217-1.284-0.441-1.751-0.656c-0.77-0.357-0.949-0.691-1.011-0.938l-0.623-39.059c0.015-1.154,0.012,1.225,0,0
				c-0.072-7.52,1.617-15.156,8.224-18.947c0.347-0.198,0.63-0.558,0.618-0.956l1.111-13.527c1.07,0.215,2.323,0.286,3.484,0.286
				c1.161,0,2.413-0.071,3.483-0.286l1.111,13.631c0,0.391,0.274,0.682,0.624,0.854c5.72,2.836,8.268,9.48,8.268,19.267
				l-0.759,38.739C84.625,111.144,83.783,111.751,81.93,112.329z"/>
		</g>
		<g>
			<path d="M78.985,89.073l2.001-3.848c0.002-0.002-0.001-0.006,0.001-0.008c0.001-0.002,0.004-0.004,0.005-0.006
				c0.794-1.744,0.121-2.973,0.095-3.021l-1.458-2.676c-0.036-0.068-0.099-0.117-0.172-0.137c-0.073-0.021-0.152-0.01-0.218,0.029
				l-3.836,2.271c-0.131,0.076-0.177,0.246-0.103,0.379l2.011,3.594h-2.171l0.009-0.865c0-0.139,0-0.27-0.175-0.385
				c-0.146-0.098-0.34-0.084-0.509,0.041c-0.024,0.018-0.047,0.041-0.063,0.066L72.188,87.7c-0.067,0.098-0.067,0.225,0,0.322
				l2.214,3.193c0.017,0.025,0.039,0.047,0.063,0.064c0.095,0.07,0.193,0.107,0.294,0.107c0.076,0,0.15-0.023,0.215-0.065
				c0.175-0.117,0.175-0.248,0.175-0.389l-0.01-0.861h1.592C78.41,90.073,78.958,89.122,78.985,89.073z M74.582,90.489L72.76,87.86
				l1.823-2.627l-0.008,0.695c-0.001,0.074,0.028,0.146,0.081,0.201c0.053,0.053,0.124,0.082,0.199,0.082h3.882
				c0.161,0,0.683-0.014,1.2-0.186l-1.447,2.781c-0.004,0.008-0.429,0.703-1.759,0.703h-1.876c-0.075,0-0.147,0.029-0.199,0.084
				c-0.054,0.053-0.083,0.125-0.081,0.201L74.582,90.489z M75.926,82.022l3.35-1.984l1.319,2.424
				c0.022,0.043,0.552,1.041-0.109,2.508c-0.285,0.539-1.266,0.682-1.758,0.682h-0.771L75.926,82.022z"/>
			<path d="M70.695,90.147c0.004,0,0.007,0,0.01,0c0.072,0,0.143-0.027,0.195-0.078c0.055-0.053,0.086-0.125,0.086-0.203v-4.457
				c0-0.154-0.126-0.281-0.28-0.281l-4.17-0.006l1.144-1.971l0.754,0.461c0.084,0.049,0.151,0.088,0.249,0.088
				c0.08,0,0.138-0.027,0.17-0.043c0.161-0.078,0.245-0.248,0.225-0.459c-0.003-0.031-0.012-0.06-0.024-0.09l-1.627-3.529
				c-0.049-0.105-0.161-0.17-0.276-0.162l-3.876,0.287c-0.029,0.002-0.059,0.008-0.088,0.02c-0.193,0.082-0.304,0.238-0.294,0.418
				c0.012,0.211,0.123,0.277,0.247,0.35l0.732,0.416l-0.795,1.383c-0.221,0.375-0.368,0.752-0.436,1.121c0,0.002,0,0.004,0,0.004
				c-0.001,0.002-0.001,0.002-0.001,0.002c-0.003,0.014-0.001,0.029-0.004,0.043v0.002v0.002c-0.115,0.791,0.396,1.658,0.421,1.699
				l2.034,3.254h0.001l0,0l0.007,0.012c1.1,1.57,2.5,1.613,2.555,1.615L70.695,90.147z M64.499,80.94
				c0.037-0.064,0.047-0.143,0.027-0.215c-0.02-0.07-0.067-0.133-0.133-0.168l-0.583-0.33l3.186-0.236l1.337,2.9l-0.606-0.371
				c-0.065-0.039-0.143-0.051-0.216-0.031c-0.073,0.017-0.137,0.064-0.175,0.131l-1.455,2.506h-0.003
				c-0.415,0-1.453-0.051-2.112-0.523c-0.38-0.273-0.566-0.635-0.57-1.111c0.059-0.297,0.18-0.606,0.364-0.918L64.499,80.94z
				 M65.567,88.12l-1.784-2.855c0.057,0.029,0.119,0.045,0.178,0.07c0.078,0.033,0.154,0.064,0.234,0.092
				c0.136,0.045,0.268,0.084,0.403,0.115c0.075,0.018,0.146,0.035,0.22,0.049c0.146,0.027,0.284,0.045,0.421,0.059
				c0.055,0.006,0.11,0.016,0.162,0.02c0.179,0.014,0.344,0.02,0.479,0.02c0.075,0,0.136-0.002,0.177-0.004l0.047-0.002l4.321,0.006
				v3.889l-2.755-0.094C67.622,89.481,66.488,89.431,65.567,88.12z"/>
			<path d="M69.663,79.772c0.046,0.029,0.097,0.043,0.148,0.043c0.092,0,0.181-0.045,0.235-0.127l2.251-3.43l0.971,1.908
				l-0.732,0.396c-0.117,0.061-0.239,0.123-0.261,0.332c-0.02,0.18,0.083,0.34,0.272,0.432c0.027,0.014,0.057,0.023,0.087,0.027
				l3.855,0.488c0.012,0,0.024,0.002,0.035,0.002c0.104,0,0.2-0.057,0.249-0.15l1.809-3.439c0.014-0.027,0.024-0.055,0.028-0.084
				c0.034-0.209-0.039-0.385-0.197-0.473c-0.037-0.021-0.099-0.055-0.187-0.055c-0.09,0-0.153,0.033-0.232,0.074l-0.803,0.404
				l-0.698-1.404c-0.776-1.488-1.873-1.537-1.928-1.537l-4.336,0.002h-0.001h-0.001h-0.001h-0.003h-0.001h-0.001h-0.001
				l-0.003,0.002l-0.003-0.002c-1.914,0.104-2.693,1.268-2.723,1.312l-1.702,2.531c-0.042,0.062-0.057,0.141-0.041,0.215
				c0.016,0.074,0.062,0.139,0.127,0.18L69.663,79.772z M76.978,76.767c0.071,0.023,0.148,0.02,0.215-0.016l0.674-0.338
				l-1.499,2.848l-3.192-0.404l0.602-0.324c0.134-0.074,0.187-0.24,0.117-0.377l-1.743-3.42c-0.019-0.037-0.287-0.562-0.732-0.992
				l3.137-0.002c0.033,0.002,0.826,0.057,1.438,1.23l0.821,1.654C76.848,76.692,76.906,76.743,76.978,76.767z M67.96,74.808
				c0.026-0.041,0.668-0.973,2.276-1.062c0.646,0.006,1.238,0.896,1.413,1.242l0.354,0.693l-2.276,3.471l-3.308-2.055L67.96,74.808z
				"/>
		</g>
	</g>
</g>
</svg>
