<?xml version="1.0" encoding="utf-8"?>
<!-- Generator: Adobe Illustrator 17.1.0, SVG Export Plug-In . SVG Version: 6.00 Build 0)  -->
<!DOCTYPE svg PUBLIC "-//W3C//DTD SVG 1.1//EN" "http://www.w3.org/Graphics/SVG/1.1/DTD/svg11.dtd">
<svg version="1.1" id="Layer_1" xmlns="http://www.w3.org/2000/svg" xmlns:xlink="http://www.w3.org/1999/xlink" x="0px" y="0px"
	 viewBox="0 0 144 144" enable-background="new 0 0 144 144" xml:space="preserve">
<g>
	<g>
		<polygon points="76.531,113.114 76.531,113.117 76.531,113.114 		"/>
		<path d="M77.883,39.23c0-0.194-0.01-0.387-0.029-0.577c0.615-0.373,0.992-0.876,0.992-1.548v-5.671
			c0-2.114-3.721-2.559-6.843-2.559c-3.122,0-6.844,0.444-6.844,2.559v5.671c0,0.672,0.378,1.175,0.992,1.548
			c-0.019,0.19-0.029,0.383-0.029,0.577v3.646c-6.372,2.429-11.094,9.593-11.094,17.003v3.768c0,0.122,0.022,0.242,0.065,0.355
			l0.822,2.159v28.922l-0.788,1.629c-0.065,0.136-0.1,0.285-0.1,0.436c0,14.113,4.103,16.786,12.232,16.965
			c0.855,0,1.779-0.472,2.757-0.973c0.691-0.354,1.552-0.794,1.985-0.794c0.385,0,1.236,0.455,1.857,0.787
			c0.947,0.507,1.842,0.984,2.672,0.984c0.006,0,0.033,0,0.039,0c8.229-0.147,12.406-2.812,12.406-16.97
			c0-0.158-0.037-0.314-0.109-0.455l-0.828-1.62l0.051-28.913l0.824-2.199c0.041-0.112,0.062-0.23,0.062-0.351v-3.731
			c0-7.409-4.721-14.574-11.094-17.002V39.23z M72.002,30.876c3.132,0,4.492,0.497,4.843,0.742v5.304
			c-0.352,0.245-1.711,0.741-4.843,0.741c-3.133,0-4.491-0.496-4.844-0.741v-5.304C67.511,31.373,68.871,30.876,72.002,30.876z
			 M76.531,113.114v-0.997c-0.33,0-1.139-0.432-1.729-0.748c-0.941-0.503-1.914-1.023-2.8-1.023c-0.916,0-1.923,0.516-2.896,1.014
			c-0.656,0.336-1.472,0.753-1.852,0.753c-6.328-0.14-10.184-1.205-10.227-14.736l0.788-1.628c0.065-0.136,0.1-0.285,0.1-0.436
			V65.978c0-0.122-0.022-0.242-0.065-0.355l-0.822-2.159v-3.584c0-6.847,4.473-13.443,10.404-15.344
			c0.424-0.136,0.701-0.62,0.689-1.064v-4.126c1.192,0.239,2.587,0.318,3.881,0.318c1.294,0,2.689-0.079,3.88-0.318v4.241
			c0,0.435,0.281,0.819,0.695,0.952c5.928,1.901,10.398,8.497,10.398,15.341v3.549l-0.824,2.199
			c-0.041,0.111-0.062,0.229-0.062,0.349l-0.051,29.335c0,0.159,0.037,0.315,0.109,0.457l0.828,1.62
			c-0.045,13.56-3.982,14.614-10.441,14.729L76.531,113.114v0.003V113.114z"/>
		<path d="M68.707,32.981c0.758,0.086,1.553,0.142,2.364,0.166c0.288,0.008,0.573,0.012,0.854,0.012
			c1.239,0,2.399-0.078,3.395-0.229c0.274-0.041,0.461-0.296,0.418-0.569c-0.041-0.273-0.301-0.459-0.568-0.419
			c-1.164,0.177-2.574,0.248-4.07,0.206c-0.782-0.023-1.55-0.077-2.279-0.16c-0.273-0.027-0.521,0.166-0.554,0.44
			C68.236,32.702,68.433,32.95,68.707,32.981z"/>
		<path d="M68.097,67.554c1.218,0.037,2.529,0.061,3.905,0.061c5.169,0,9.289-0.33,11.283-0.526c0.412-0.04,0.713-0.407,0.672-0.819
			c-0.039-0.412-0.408-0.715-0.818-0.673c-1.969,0.193-6.029,0.518-11.136,0.518c-1.36,0-2.656-0.024-3.858-0.061
			c-0.426,0.015-0.76,0.313-0.773,0.727C67.358,67.194,67.684,67.541,68.097,67.554z"/>
		<path d="M60.625,67.099c0.659,0.062,1.638,0.146,2.864,0.229c0.018,0.001,0.034,0.002,0.052,0.002
			c0.391,0,0.721-0.303,0.747-0.699c0.028-0.413-0.284-0.771-0.697-0.799c-1.209-0.083-2.174-0.165-2.823-0.228
			c-0.409-0.032-0.779,0.263-0.818,0.676C59.91,66.692,60.212,67.059,60.625,67.099z"/>
		<path d="M83.957,94.979c-0.039-0.411-0.393-0.714-0.82-0.672c-1.57,0.155-5.801,0.518-11.134,0.518
			c-1.359,0-2.655-0.023-3.858-0.062c-0.422,0.008-0.761,0.312-0.773,0.727c-0.013,0.414,0.312,0.76,0.727,0.773
			c1.217,0.038,2.528,0.062,3.905,0.062c5.4,0,9.689-0.367,11.283-0.525C83.697,95.758,83.998,95.391,83.957,94.979z"/>
		<path d="M63.59,94.541c-1.209-0.082-2.174-0.165-2.823-0.228c-0.409-0.035-0.779,0.264-0.818,0.676
			c-0.039,0.412,0.264,0.778,0.676,0.818c0.659,0.062,1.638,0.147,2.864,0.229c0.018,0.001,0.034,0.002,0.052,0.002
			c0.391,0,0.721-0.304,0.747-0.699C64.316,94.926,64.003,94.568,63.59,94.541z"/>
		<path d="M79.238,88.179l2-3.848c0.002-0.003,0-0.006,0.002-0.009c0-0.002,0.004-0.003,0.004-0.005
			c0.795-1.744,0.121-2.974,0.096-3.021l-1.459-2.677c-0.035-0.067-0.098-0.116-0.172-0.137c-0.072-0.021-0.152-0.01-0.217,0.029
			l-3.836,2.271c-0.131,0.077-0.178,0.246-0.104,0.379l2.012,3.594h-2.172l0.01-0.864c0-0.139,0-0.27-0.176-0.385
			c-0.146-0.098-0.34-0.085-0.508,0.041c-0.025,0.018-0.047,0.04-0.065,0.065l-2.214,3.192c-0.067,0.098-0.067,0.225,0,0.321
			l2.214,3.193c0.018,0.025,0.039,0.047,0.065,0.065c0.094,0.07,0.193,0.107,0.293,0.107c0.076,0,0.15-0.022,0.215-0.065
			c0.176-0.117,0.176-0.248,0.176-0.389l-0.01-0.861h1.592C78.662,89.178,79.211,88.227,79.238,88.179z M74.834,89.595l-1.822-2.629
			l1.824-2.627l-0.008,0.694c-0.002,0.075,0.027,0.147,0.08,0.201c0.053,0.053,0.125,0.083,0.199,0.083h3.883
			c0.16,0,0.682-0.015,1.199-0.187l-1.447,2.782c-0.004,0.007-0.428,0.703-1.758,0.703h-1.877c-0.074,0-0.146,0.029-0.199,0.083
			c-0.053,0.053-0.082,0.126-0.08,0.201L74.834,89.595z M76.178,81.127l3.35-1.983l1.32,2.424c0.021,0.042,0.551,1.041-0.109,2.508
			c-0.285,0.538-1.266,0.681-1.758,0.681h-0.771L76.178,81.127z"/>
		<path d="M70.947,89.253c0.004,0,0.007,0,0.01,0c0.072,0,0.143-0.028,0.195-0.079c0.055-0.053,0.086-0.125,0.086-0.202v-4.458
			c0-0.154-0.126-0.28-0.28-0.28l-4.17-0.006l1.144-1.972l0.754,0.461c0.084,0.05,0.151,0.089,0.249,0.089
			c0.08,0,0.138-0.028,0.17-0.044c0.161-0.077,0.245-0.248,0.225-0.458c-0.003-0.031-0.012-0.062-0.024-0.09l-1.627-3.529
			c-0.049-0.105-0.161-0.171-0.276-0.163l-3.876,0.287c-0.029,0.002-0.06,0.009-0.088,0.021c-0.193,0.082-0.304,0.237-0.294,0.418
			c0.012,0.211,0.123,0.277,0.247,0.349l0.732,0.416l-0.795,1.384c-0.221,0.375-0.368,0.752-0.435,1.121
			c0,0.002,0,0.003-0.001,0.004c0,0.001,0,0.001,0,0.001c-0.003,0.015-0.001,0.029-0.004,0.044v0.001v0.003
			c-0.115,0.79,0.396,1.657,0.421,1.698l2.034,3.254l0.001,0.001l0,0l0.007,0.011c1.1,1.57,2.5,1.614,2.555,1.616L70.947,89.253z
			 M64.752,80.046c0.037-0.065,0.047-0.143,0.027-0.215c-0.02-0.071-0.067-0.133-0.133-0.169l-0.583-0.33l3.185-0.235l1.337,2.9
			l-0.605-0.371c-0.065-0.039-0.144-0.052-0.216-0.032c-0.073,0.018-0.137,0.065-0.175,0.131l-1.455,2.507c-0.001,0-0.002,0-0.003,0
			c-0.415,0-1.453-0.051-2.112-0.524c-0.38-0.272-0.566-0.635-0.57-1.11c0.059-0.298,0.18-0.607,0.364-0.919L64.752,80.046z
			 M65.819,87.225l-1.784-2.854c0.057,0.028,0.119,0.044,0.178,0.069c0.078,0.033,0.154,0.064,0.234,0.092
			c0.136,0.046,0.268,0.084,0.403,0.115c0.075,0.018,0.146,0.036,0.22,0.05c0.146,0.026,0.284,0.045,0.421,0.059
			c0.055,0.006,0.11,0.015,0.162,0.019c0.179,0.014,0.344,0.02,0.479,0.02c0.075,0,0.136-0.002,0.177-0.003l0.047-0.003l4.321,0.007
			v3.888l-2.755-0.094C67.873,88.586,66.74,88.536,65.819,87.225z"/>
		<path d="M69.915,78.878c0.046,0.028,0.097,0.042,0.148,0.042c0.092,0,0.181-0.044,0.235-0.126l2.251-3.431l0.972,1.909
			l-0.733,0.396c-0.117,0.061-0.239,0.124-0.261,0.333c-0.02,0.179,0.083,0.34,0.272,0.432c0.027,0.014,0.057,0.022,0.087,0.026
			l3.855,0.488c0.012,0.001,0.023,0.002,0.035,0.002c0.104,0,0.201-0.057,0.25-0.149l1.809-3.439
			c0.014-0.027,0.023-0.056,0.027-0.085c0.035-0.209-0.039-0.385-0.197-0.473c-0.037-0.02-0.098-0.054-0.186-0.054
			c-0.09,0-0.154,0.033-0.232,0.074l-0.803,0.404l-0.699-1.405c-0.775-1.488-1.873-1.536-1.928-1.537l-4.336,0.003h-0.001H70.48
			h-0.001h-0.003c0,0,0,0-0.001,0h-0.001c-0.001,0-0.001,0-0.001,0l-0.003,0.001c-0.001,0-0.002-0.001-0.003-0.001
			c-1.914,0.103-2.693,1.267-2.723,1.312l-1.702,2.53c-0.042,0.063-0.057,0.142-0.041,0.216c0.016,0.074,0.062,0.139,0.127,0.18
			L69.915,78.878z M77.23,75.872c0.07,0.023,0.148,0.019,0.215-0.016l0.674-0.339l-1.5,2.849l-3.191-0.405l0.602-0.324
			c0.133-0.073,0.186-0.239,0.117-0.376l-1.744-3.421c-0.019-0.037-0.287-0.562-0.732-0.991l3.138-0.003
			c0.033,0.002,0.826,0.058,1.438,1.231l0.82,1.653C77.1,75.798,77.158,75.849,77.23,75.872z M68.212,73.912
			c0.026-0.04,0.668-0.973,2.276-1.062c0.646,0.006,1.238,0.896,1.413,1.242l0.354,0.693l-2.276,3.47l-3.308-2.054L68.212,73.912z"
			/>
	</g>
</g>
</svg>
