<?xml version="1.0" encoding="utf-8"?>
<!-- Generator: Adobe Illustrator 17.1.0, SVG Export Plug-In . SVG Version: 6.00 Build 0)  -->
<!DOCTYPE svg PUBLIC "-//W3C//DTD SVG 1.1//EN" "http://www.w3.org/Graphics/SVG/1.1/DTD/svg11.dtd">
<svg version="1.1" id="Layer_1" xmlns="http://www.w3.org/2000/svg" xmlns:xlink="http://www.w3.org/1999/xlink" x="0px" y="0px"
	 viewBox="0 0 144 144" enable-background="new 0 0 144 144" xml:space="preserve">
<g>
	<g>
		<g>
			<path fill="#FFFFFF" d="M53.429,95.89c0,0.99,0.836,1.882,2.219,2.652v1.24c0,2.938,8.617,4.985,16.352,4.985
				s16.352-2.048,16.352-4.985v-1.238c1.384-0.771,2.221-1.664,2.221-2.654V48.584c0-0.685-0.685-1.969-2.021-3.808
				c-0.575-2.405-6.417-3.479-11.791-3.856c-0.472-0.994-1.477-1.688-2.648-1.688h-4.22c-1.172,0-2.177,0.694-2.647,1.688
				c-5.66,0.396-11.845,1.565-11.845,4.248c0,0.004,0.001,0.008,0.001,0.012c-1.965,2.409-1.971,3.148-1.971,3.403V95.89z
				 M71.999,103.268c-8.933,0-14.852-2.48-14.852-3.485v-0.531c3.615,1.446,9.349,2.307,14.853,2.307
				c5.503,0,11.235-0.86,14.851-2.306v0.53C86.851,100.787,80.932,103.268,71.999,103.268z M84.868,97.836
				c-2.912,0.91-7.384,1.722-12.868,1.722c-5.491,0-9.967-0.813-12.879-1.722c-2.255-0.703-3.571-1.464-3.692-1.946V48.657
				c0.007-0.02,0.022-0.049,0.033-0.073c0.131-0.301,0.546-0.916,1.075-1.608c1.014,0.714,2.608,1.232,4.401,1.608
				c4.668,0.979,10.651,1,11.062,1s6.394-0.021,11.062-1c1.864-0.392,3.518-0.936,4.522-1.693c0.531,0.801,0.938,1.499,0.987,1.693
				l0.002,47.285C88.451,96.362,87.13,97.129,84.868,97.836z M69.891,40.732h4.22c0.708,0,1.299,0.515,1.415,1.191l-0.626,0.753
				c-0.111,0.135-0.173,0.305-0.173,0.479c0,0.345,0,0.616-1.437,0.616h-2.579c-1.437,0-1.437-0.271-1.437-0.616
				c0-0.175-0.062-0.345-0.173-0.479l-0.626-0.753C68.592,41.247,69.183,40.732,69.891,40.732z M67.788,43.443
				c0.069,0.677,0.385,1.101,0.791,1.369c-1.191,0.223-1.969,0.558-1.969,0.937c0,0.667,2.372,1.211,5.299,1.211
				c2.925,0,5.296-0.544,5.296-1.211c0-0.364-0.716-0.687-1.826-0.909c0.427-0.267,0.763-0.695,0.834-1.396l0.444-0.535
				c5.897,0.408,9.385,1.531,9.913,2.261c-0.656,0.903-5.858,2.415-14.57,2.415s-13.914-1.512-14.57-2.415
				c0.528-0.729,4.016-1.853,9.914-2.261L67.788,43.443z"/>
			<path fill="#FFFFFF" d="M62.406,53.608c0.367,0,0.688-0.271,0.741-0.644c0.059-0.41-0.227-0.79-0.637-0.848
				c-1.701-0.242-3.184-0.547-4.407-0.906c-0.399-0.116-0.814,0.111-0.931,0.509c-0.116,0.397,0.111,0.813,0.509,0.931
				c1.292,0.379,2.846,0.699,4.618,0.951C62.336,53.606,62.371,53.608,62.406,53.608z"/>
			<path fill="#FFFFFF" d="M85.897,51.209c-3.239,0.955-8.435,1.524-13.897,1.524c-1.222,0-2.454-0.028-3.664-0.085
				c-0.367-0.027-0.765,0.3-0.784,0.714c-0.02,0.414,0.3,0.765,0.714,0.784c1.233,0.058,2.489,0.087,3.734,0.087
				c5.682,0,10.901-0.578,14.321-1.585c0.398-0.117,0.625-0.534,0.508-0.932C86.712,51.32,86.291,51.094,85.897,51.209z"/>
			<path fill="#FFFFFF" d="M82.143,73.579c-0.049-0.09-0.132-0.155-0.23-0.183c-0.099-0.027-0.204-0.014-0.292,0.039l-5.144,3.046
				c-0.176,0.104-0.236,0.329-0.137,0.508l2.695,4.818h-2.911l0.013-1.159c0-0.186,0-0.36-0.235-0.516
				c-0.195-0.131-0.455-0.113-0.682,0.055c-0.033,0.024-0.062,0.055-0.085,0.088l-2.97,4.281c-0.09,0.13-0.09,0.301,0,0.43
				l2.97,4.282c0.022,0.034,0.052,0.063,0.085,0.088c0.127,0.095,0.26,0.143,0.394,0.143c0.103,0,0.202-0.03,0.288-0.087
				c0.235-0.157,0.235-0.332,0.235-0.521l-0.014-1.155h2.134c2.251,0,2.986-1.274,3.022-1.339l2.683-5.159
				c0.002-0.003,0.001-0.007,0.003-0.011c0.002-0.003,0.005-0.005,0.006-0.008c1.063-2.339,0.162-3.986,0.126-4.051L82.143,73.579z
				 M78.257,86.983h-2.515c-0.101,0-0.197,0.04-0.268,0.111c-0.071,0.071-0.11,0.169-0.108,0.27l0.01,0.932l-2.443-3.524
				l2.444-3.523l-0.011,0.932c-0.001,0.101,0.038,0.197,0.108,0.27c0.071,0.071,0.167,0.111,0.268,0.111h5.205
				c0.216,0,0.915-0.02,1.608-0.25l-1.939,3.73C80.61,86.05,80.041,86.983,78.257,86.983z M77.177,76.942l4.491-2.66l1.77,3.25
				c0.03,0.057,0.741,1.396-0.146,3.363c-0.383,0.721-1.698,0.912-2.357,0.912h-1.034L77.177,76.942z"/>
			<path fill="#FFFFFF" d="M70.177,81.107l-5.592-0.009l1.534-2.644l1.011,0.618c0.113,0.067,0.203,0.12,0.335,0.12
				c0.106,0,0.185-0.038,0.228-0.06c0.216-0.104,0.328-0.333,0.301-0.613c-0.004-0.042-0.016-0.083-0.033-0.121l-2.181-4.732
				c-0.065-0.142-0.216-0.229-0.37-0.218l-5.197,0.384c-0.04,0.003-0.08,0.013-0.118,0.028c-0.259,0.109-0.407,0.317-0.395,0.561
				c0.017,0.282,0.166,0.371,0.331,0.468l0.983,0.557l-1.066,1.856c-0.296,0.503-0.493,1.009-0.584,1.504
				c0,0.002,0,0.004-0.001,0.005c0,0.001,0,0.001,0,0.001c-0.002,0.009-0.001,0.019-0.002,0.027
				c-0.002,0.011-0.003,0.021-0.003,0.031c0,0.001-0.001,0.001-0.001,0.002v0.007v0.001c-0.153,1.058,0.531,2.218,0.564,2.273
				l2.738,4.379c1.475,2.104,3.351,2.164,3.425,2.166l4.079,0.139c0.005,0.001,0.009,0.001,0.013,0.001
				c0.098,0,0.191-0.038,0.263-0.106c0.072-0.07,0.114-0.168,0.114-0.271v-5.978C70.553,81.276,70.385,81.107,70.177,81.107z
				 M69.8,87.071l-3.693-0.126c-0.064-0.002-1.585-0.069-2.819-1.828l-2.393-3.827c0.021,0.01,0.042,0.015,0.062,0.024
				c0.207,0.1,0.421,0.183,0.638,0.249c0.027,0.009,0.054,0.02,0.081,0.027c0.227,0.066,0.452,0.113,0.673,0.151
				c0.044,0.008,0.086,0.016,0.13,0.021c0.213,0.033,0.417,0.056,0.608,0.07c0.036,0.002,0.067,0.004,0.103,0.006
				c0.189,0.011,0.368,0.018,0.517,0.018c0.101,0,0.183-0.002,0.237-0.004l0.063-0.004l5.793,0.01V87.071z M61.856,75.492
				c0.05-0.087,0.062-0.19,0.036-0.287c-0.026-0.097-0.09-0.179-0.178-0.228l-0.781-0.442l4.271-0.315l1.793,3.89l-0.812-0.498
				c-0.087-0.053-0.191-0.069-0.289-0.044c-0.099,0.025-0.183,0.088-0.234,0.176l-1.95,3.361c-0.002,0-0.003,0-0.005,0
				c-0.557,0-1.948-0.068-2.832-0.703c-0.509-0.365-0.759-0.852-0.765-1.488c0.078-0.399,0.241-0.813,0.488-1.232L61.856,75.492z"/>
			<path fill="#FFFFFF" d="M63.702,70.773l5.077,3.153c0.062,0.038,0.13,0.057,0.198,0.057c0.123,0,0.243-0.06,0.315-0.17l3.018-4.6
				l1.304,2.56l-0.983,0.53c-0.157,0.082-0.32,0.167-0.349,0.447c-0.026,0.239,0.11,0.456,0.365,0.579
				c0.036,0.018,0.076,0.029,0.116,0.034l5.17,0.655c0.016,0.002,0.031,0.003,0.047,0.003c0.139,0,0.268-0.076,0.334-0.201
				l2.425-4.611c0.019-0.036,0.032-0.074,0.038-0.114c0.046-0.279-0.053-0.515-0.265-0.633c-0.05-0.027-0.133-0.072-0.25-0.072
				c-0.12,0-0.206,0.045-0.312,0.1l-1.076,0.542l-0.936-1.884c-1.041-1.996-2.512-2.061-2.585-2.062l-5.814,0.004
				c-0.001,0-0.002,0-0.002,0h-0.001h-0.001h-0.001h-0.003c-0.001,0-0.001,0-0.001,0H69.53c-0.001,0-0.001,0-0.001,0h-0.001
				c0,0,0,0-0.001,0l-0.003,0.001c-0.002,0-0.003-0.001-0.005-0.001c-2.565,0.138-3.61,1.698-3.65,1.76l-2.281,3.393
				c-0.057,0.085-0.077,0.189-0.056,0.289C63.554,70.633,63.615,70.719,63.702,70.773z M78.587,69.896
				c0.096,0.031,0.199,0.024,0.289-0.021l0.902-0.454L77.77,73.24l-4.281-0.543l0.807-0.436c0.18-0.098,0.25-0.32,0.157-0.503
				l-1.734-3.405c-0.014-0.048-0.035-0.091-0.066-0.13l-0.536-1.053c-0.025-0.05-0.385-0.753-0.981-1.328l4.207-0.004
				c0.044,0.003,1.107,0.077,1.927,1.65l1.102,2.218C78.413,69.797,78.492,69.865,78.587,69.896z M66.496,67.269
				c0.036-0.054,0.896-1.305,3.054-1.424c0.864,0.008,1.659,1.203,1.894,1.666l0.474,0.93l-3.052,4.652l-4.434-2.754L66.496,67.269z
				"/>
		</g>
	</g>
</g>
</svg>
