<?xml version="1.0" encoding="utf-8"?>
<!-- Generator: Adobe Illustrator 17.1.0, SVG Export Plug-In . SVG Version: 6.00 Build 0)  -->
<!DOCTYPE svg PUBLIC "-//W3C//DTD SVG 1.1//EN" "http://www.w3.org/Graphics/SVG/1.1/DTD/svg11.dtd">
<svg version="1.1" id="Layer_1" xmlns="http://www.w3.org/2000/svg" xmlns:xlink="http://www.w3.org/1999/xlink" x="0px" y="0px"
	 viewBox="0 0 144 144" enable-background="new 0 0 144 144" xml:space="preserve">
<g>
	<g>
		<g>
			<path d="M96.578,48.197h-0.145L75.689,36.763c-0.01-0.006-0.023-0.006-0.035-0.011l-0.185-0.104
				c-0.109-0.062-0.233-0.076-0.346-0.054h-0.002l0,0c-0.023,0.005-0.049,0.012-0.072,0.021c-0.101,0.039-0.193,0.11-0.254,0.211
				v0.001c0,0,0,0,0,0.001c-0.004,0.008-0.01,0.016-0.014,0.024c0,0,0,0,0,0.001c-0.037,0.071-0.057,0.147-0.057,0.223l-0.109,2.939
				c-0.045,0.316,0.022,0.883,0.436,1.233c0.039,0.053,0.09,0.099,0.15,0.133l11.979,6.816H56.855l11.974-6.813
				c0.001-0.001,0.001-0.001,0.002-0.001l0.001-0.001l0.002-0.001c0.06-0.034,0.111-0.08,0.15-0.132
				c0.414-0.351,0.482-0.912,0.44-1.181l-0.113-2.993c-0.001-0.08-0.022-0.161-0.064-0.236v-0.001
				c-0.062-0.108-0.157-0.185-0.267-0.225c-0.021-0.008-0.044-0.014-0.065-0.019h-0.001h-0.001
				c-0.113-0.022-0.236-0.008-0.347,0.054l-0.186,0.104c-0.012,0.005-0.024,0.005-0.035,0.011L47.602,48.197h-0.18
				c-0.553,0-1,0.447-1,1v49.156c0,0.553,0.447,1,1,1h49.156c0.553,0,1-0.447,1-1V49.197C97.578,48.644,97.131,48.197,96.578,48.197
				z M94.363,48.197h-1.148l0.049-0.541c0.004-0.019,0.004-0.041,0.008-0.062L94.363,48.197z M92.074,47.199
				c0.199,0.112,0.211,0.23,0.201,0.31l-0.062,0.688h-1.76l1.416-1.044C91.875,47.149,91.939,47.124,92.074,47.199z M91.164,46.433
				l-1.924,1.416c-0.051,0.039-0.236,0.152-0.461,0.027c-0.086-0.049-0.1-0.263-0.084-0.382l0.205-2.292
				c0.002-0.005,0.002-0.011,0.002-0.016L91.164,46.433z M86.764,44.008l-1.895,1.394c-0.002,0.001-0.201,0.159-0.453,0.017
				c-0.086-0.047-0.098-0.257-0.082-0.377l0.203-2.262L86.764,44.008z M82.363,41.583l-1.846,1.357
				c-0.035,0.027-0.229,0.158-0.463,0.026c-0.084-0.049-0.098-0.26-0.084-0.379l0.199-2.214L82.363,41.583z M77.963,39.157
				l-1.816,1.336c-0.002,0.001-0.203,0.159-0.453,0.017c-0.082-0.045-0.1-0.252-0.082-0.404l0.082-2.199L77.963,39.157z
				 M76.887,41.188l1.898-1.4c0.006-0.003,0.07-0.027,0.201,0.047c0.002,0,0.002,0.001,0.004,0.002
				c0.199,0.111,0.209,0.229,0.201,0.308l-0.205,2.239L76.887,41.188z M81.227,43.659l1.924-1.416
				c0.008-0.002,0.068-0.027,0.201,0.047c0.199,0.112,0.209,0.229,0.201,0.308l-0.207,2.268L81.227,43.659z M85.566,46.128
				l1.943-1.432c0.006-0.002,0.07-0.026,0.203,0.048c0,0,0,0,0.002,0.001c0.197,0.111,0.209,0.228,0.199,0.309l-0.209,2.29
				L85.566,46.128z M56.331,47.344l-0.218-2.347c0-0.001-0.004-0.133,0.208-0.252c0.001-0.001,0.001-0.001,0.001-0.001
				c0.127-0.071,0.19-0.053,0.171-0.068l1.976,1.452L56.331,47.344z M51.75,47.453c0-0.002-0.004-0.133,0.211-0.254
				c0.125-0.07,0.191-0.052,0.171-0.068l1.45,1.066H51.82L51.75,47.453z M60.69,44.864l-0.216-2.324c0-0.001,0-0.132,0.21-0.25
				c0.125-0.07,0.188-0.052,0.169-0.067l1.955,1.437L60.69,44.864z M65.049,42.383l-0.21-2.273
				c-0.004-0.045,0.007-0.162,0.206-0.274c0.001-0.001,0.002-0.002,0.002-0.002c0.125-0.07,0.188-0.052,0.169-0.068l1.934,1.422
				L65.049,42.383z M68.342,37.906l0.087,2.253c0.01,0.067,0.003,0.301-0.088,0.352c-0.226,0.129-0.41,0.015-0.474-0.033
				l-1.794-1.321L68.342,37.906z M63.861,40.375l0.206,2.238c0.011,0.067,0.003,0.302-0.086,0.352
				c-0.234,0.131-0.427,0.002-0.476-0.035l-1.834-1.348L63.861,40.375z M59.496,42.782l0.209,2.283c0.013,0.097,0,0.307-0.087,0.354
				c-0.226,0.129-0.408,0.015-0.474-0.034l-1.872-1.378L59.496,42.782z M55.129,45.188l0.214,2.328
				c0.012,0.098-0.001,0.311-0.086,0.359c-0.226,0.126-0.413,0.012-0.476-0.036l-1.91-1.406L55.129,45.188z M50.762,47.595
				c0.001,0.002,0.001,0.004,0.001,0.005l0.056,0.597h-1.147L50.762,47.595z M95.578,97.353H48.422V50.197h47.156V97.353z"/>
			<path d="M77.232,74.058l2.695,4.818h-2.91l0.012-1.159c0-0.185,0-0.36-0.234-0.516c-0.195-0.131-0.455-0.113-0.682,0.055
				c-0.033,0.024-0.062,0.055-0.086,0.088l-2.969,4.281c-0.09,0.13-0.09,0.301,0,0.43l2.969,4.282
				c0.023,0.034,0.053,0.063,0.086,0.088c0.127,0.095,0.26,0.143,0.393,0.143c0.104,0,0.203-0.03,0.289-0.087
				c0.234-0.157,0.234-0.332,0.234-0.521l-0.014-1.155h2.135c2.25,0,2.986-1.274,3.021-1.339l2.684-5.159
				c0.002-0.003,0-0.007,0.002-0.011c0.002-0.003,0.006-0.005,0.006-0.008c1.064-2.339,0.162-3.986,0.127-4.051l-1.955-3.59
				c-0.049-0.09-0.131-0.155-0.23-0.183c-0.098-0.027-0.203-0.014-0.291,0.039l-5.145,3.046
				C77.193,73.653,77.133,73.879,77.232,74.058z M81.51,83.109c-0.006,0.009-0.576,0.942-2.359,0.942h-2.516
				c-0.1,0-0.197,0.04-0.268,0.111c-0.07,0.071-0.109,0.169-0.107,0.27l0.01,0.932l-2.443-3.525l2.443-3.523l-0.01,0.932
				c-0.002,0.101,0.037,0.197,0.107,0.27c0.072,0.071,0.168,0.111,0.268,0.111h5.205c0.217,0,0.916-0.02,1.609-0.25L81.51,83.109z
				 M82.561,71.35l1.77,3.251c0.031,0.057,0.742,1.396-0.146,3.363c-0.383,0.721-1.697,0.912-2.357,0.912h-1.033l-2.723-4.865
				L82.561,71.35z"/>
			<path d="M63.552,82.601c1.475,2.104,3.352,2.164,3.425,2.166l4.079,0.139c0.005,0.001,0.009,0.001,0.013,0.001
				c0.098,0,0.191-0.038,0.263-0.107c0.072-0.07,0.114-0.168,0.114-0.271v-5.977c0-0.207-0.168-0.376-0.376-0.376l-5.592-0.009
				l1.534-2.644l1.011,0.618c0.113,0.067,0.203,0.12,0.335,0.12c0.106,0,0.185-0.038,0.228-0.06
				c0.216-0.104,0.328-0.333,0.301-0.613c-0.004-0.042-0.016-0.083-0.033-0.121l-2.181-4.733c-0.065-0.142-0.216-0.229-0.37-0.218
				l-5.197,0.384c-0.04,0.003-0.08,0.013-0.118,0.028c-0.259,0.109-0.407,0.317-0.395,0.561c0.017,0.282,0.166,0.371,0.331,0.468
				l0.983,0.557L60.84,74.37c-0.296,0.503-0.493,1.009-0.584,1.504c0,0.002,0,0.004,0,0.005l-0.001,0.001
				c-0.002,0.009-0.001,0.019-0.002,0.027c-0.002,0.011-0.003,0.02-0.003,0.031L60.25,75.94v0.007v0.001
				c-0.153,1.058,0.531,2.218,0.564,2.274L63.552,82.601z M70.693,78.928v5.212l-3.693-0.126c-0.064-0.002-1.585-0.069-2.819-1.828
				l-2.393-3.827c0.021,0.01,0.042,0.015,0.062,0.024c0.207,0.1,0.421,0.183,0.638,0.249c0.027,0.009,0.054,0.02,0.081,0.027
				c0.227,0.065,0.452,0.113,0.673,0.151c0.044,0.008,0.086,0.016,0.13,0.021c0.213,0.033,0.417,0.056,0.608,0.07
				c0.036,0.002,0.067,0.004,0.102,0.006c0.19,0.011,0.368,0.018,0.517,0.018c0.102,0,0.183-0.002,0.237-0.004l0.063-0.004
				L70.693,78.928z M61.491,74.749l1.259-2.188c0.05-0.087,0.062-0.19,0.036-0.287c-0.026-0.097-0.09-0.179-0.178-0.228
				l-0.781-0.442l4.271-0.316l1.793,3.89l-0.812-0.498c-0.087-0.053-0.191-0.069-0.289-0.044c-0.099,0.025-0.183,0.088-0.234,0.176
				l-1.95,3.361c-0.002,0-0.003,0-0.005,0c-0.557,0-1.948-0.068-2.832-0.703c-0.509-0.365-0.759-0.852-0.765-1.488
				C61.081,75.582,61.244,75.168,61.491,74.749z"/>
			<path d="M64.595,67.841l5.077,3.153c0.062,0.038,0.13,0.057,0.198,0.057c0.123,0,0.243-0.06,0.315-0.17l3.017-4.6l1.305,2.56
				l-0.982,0.53c-0.158,0.082-0.32,0.167-0.35,0.447c-0.025,0.239,0.111,0.456,0.365,0.579c0.037,0.018,0.076,0.029,0.117,0.034
				l5.17,0.655c0.016,0.002,0.031,0.003,0.047,0.003c0.139,0,0.268-0.076,0.334-0.201l2.424-4.611
				c0.02-0.036,0.033-0.074,0.039-0.114c0.045-0.279-0.053-0.515-0.266-0.633c-0.049-0.027-0.133-0.072-0.25-0.072
				c-0.119,0-0.205,0.045-0.312,0.1L79.768,66.1l-0.936-1.884c-1.041-1.996-2.512-2.061-2.584-2.062l-5.815,0.004h-0.002H70.43
				h-0.001h-0.001h-0.003c-0.001,0-0.001,0-0.001,0h-0.001c-0.001,0-0.001,0-0.001,0h-0.001c0,0,0,0-0.001,0l-0.003,0.001
				c-0.002,0-0.003-0.001-0.005-0.001c-2.565,0.138-3.61,1.698-3.65,1.76l-2.281,3.392c-0.057,0.085-0.077,0.19-0.056,0.289
				C64.447,67.701,64.508,67.787,64.595,67.841z M76.234,62.907c0.043,0.003,1.105,0.077,1.926,1.65l1.102,2.218
				c0.045,0.09,0.123,0.158,0.219,0.189c0.096,0.031,0.199,0.024,0.289-0.021l0.902-0.454l-2.01,3.819l-4.281-0.543l0.807-0.436
				c0.18-0.098,0.25-0.32,0.158-0.503l-1.734-3.405c-0.014-0.048-0.035-0.091-0.066-0.13l-0.537-1.053
				c-0.025-0.05-0.384-0.753-0.981-1.328L76.234,62.907z M67.389,64.336c0.036-0.054,0.896-1.305,3.054-1.424
				c0.864,0.008,1.659,1.203,1.894,1.666l0.474,0.93l-3.052,4.652l-4.435-2.754L67.389,64.336z"/>
		</g>
	</g>
</g>
</svg>
