<?xml version="1.0" encoding="utf-8"?>
<!-- Generator: Adobe Illustrator 17.1.0, SVG Export Plug-In . SVG Version: 6.00 Build 0)  -->
<!DOCTYPE svg PUBLIC "-//W3C//DTD SVG 1.1//EN" "http://www.w3.org/Graphics/SVG/1.1/DTD/svg11.dtd">
<svg version="1.1" id="Layer_1" xmlns="http://www.w3.org/2000/svg" xmlns:xlink="http://www.w3.org/1999/xlink" x="0px" y="0px"
	 viewBox="0 0 144 144" enable-background="new 0 0 144 144" xml:space="preserve">
<g>
	<g>
		<path fill="#FFFFFF" d="M75.358,31.294c0-0.289-1.428-0.521-3.191-0.521c-1.762,0-3.189,0.232-3.189,0.521
			c0,0.287,1.428,0.52,3.189,0.52C73.931,31.814,75.358,31.581,75.358,31.294"/>
		<path fill="#FFFFFF" d="M78.39,51.241l-1.111-13.098c0-0.173-0.01-0.347-0.027-0.517c0.553-0.334,0.891-0.787,0.891-1.389v-5.646
			c0-1.899-3.34-2.297-6.143-2.297c-2.803,0-6.145,0.398-6.145,2.297v5.646c0,0.602,0.34,1.055,0.891,1.389
			c-0.016,0.17-0.025,0.344-0.025,0.517l-1.111,13.098c-7.242,4.397-8.754,11.971-8.844,20.446
			c-0.035,0.142,0.518,39.376,0.518,39.376c0,0.811,0.686,1.541,1.818,2.172l1.229,0.582c2.006,0.801,4.807,1.383,7.807,1.676
			c1.43,0.139,2.35,0.213,3.807,0.213c1.475,0,2.414-0.076,3.863-0.219c0.705-0.07,1.398-0.156,2.072-0.256
			c1.344-0.201,2.613-0.461,3.746-0.775c0.699-0.193,1.35-0.406,1.93-0.639l1.229-0.58c1.135-0.631,1.82-1.363,1.82-2.174
			l0.078-9.135c0.051-1.088,0.557-26.411,0.557-26.52v-3.349C87.237,62.444,84.882,54.942,78.39,51.241 M67.649,30.755
			c0.316-0.221,1.537-0.666,4.35-0.666c2.811,0,4.031,0.445,4.348,0.666v5.316c-0.316,0.221-1.535,0.666-4.348,0.666
			s-4.033-0.445-4.35-0.666V30.755z M81.931,112.331c-2.387,0.744-5.494,1.41-9.988,1.41c-4.498,0-7.609-0.668-9.996-1.41
			c-0.697-0.217-1.285-0.441-1.752-0.658c-0.77-0.357-0.949-0.691-1.01-0.938l-0.623-39.058c0.014-1.156,0.012,1.223,0,0
			c-0.072-7.52,1.617-15.158,8.223-18.949c0.348-0.197,0.631-0.556,0.619-0.955l1.111-13.527c1.07,0.215,2.322,0.285,3.484,0.285
			c1.161,0,2.412-0.07,3.482-0.285l1.111,13.631c0,0.39,0.276,0.682,0.625,0.853c5.719,2.836,8.268,9.481,8.268,19.268l-0.76,38.74
			C84.626,111.145,83.785,111.751,81.931,112.331"/>
	</g>
</g>
</svg>
