<?xml version="1.0" encoding="utf-8"?>
<!-- Generator: Adobe Illustrator 17.1.0, SVG Export Plug-In . SVG Version: 6.00 Build 0)  -->
<!DOCTYPE svg PUBLIC "-//W3C//DTD SVG 1.1//EN" "http://www.w3.org/Graphics/SVG/1.1/DTD/svg11.dtd">
<svg version="1.1" id="Layer_1" xmlns="http://www.w3.org/2000/svg" xmlns:xlink="http://www.w3.org/1999/xlink" x="0px" y="0px"
	 viewBox="0 0 144 144" enable-background="new 0 0 144 144" xml:space="preserve">
<g>
	<g>
		<path d="M84.551,41.26c-0.296-2.727-2.612-4.857-5.416-4.857H64.301c-2.825,0-5.153,2.162-5.423,4.918
			c-7.933,0.835-15.861,2.45-15.861,5.243v3.631c0,0.807,0.694,1.558,1.88,2.245l4.029,48.324c0,4.088,11.93,6.834,23.074,6.834
			c11.144,0,23.073-2.746,23.071-6.764l4.029-48.393c1.188-0.688,1.883-1.439,1.883-2.247v-3.631
			C100.983,43.704,92.671,42.077,84.551,41.26z M64.301,38.092h14.834c1.815,0,3.335,1.293,3.684,3.007
			c0.05,0.243,0.077,0.495,0.077,0.753v0.913v1.913v1.329c0,0.146-0.008,0.254-0.197,0.325c-0.167,0.063-0.478,0.097-1.069,0.097
			c-1.063,0-1.231-0.106-1.259-0.302c-0.006-0.037-0.008-0.076-0.008-0.12v-1.546v-1.902v-0.707c0-0.402-0.197-0.757-0.498-0.982
			c-0.204-0.152-0.456-0.246-0.73-0.246h-4.226c-1.093-0.034-2.081-0.053-2.909-0.053s-1.817,0.019-2.909,0.053h-4.79
			c-0.3,0-0.57,0.111-0.784,0.289c-0.269,0.226-0.443,0.56-0.443,0.938v0.747v1.907v1.501c0,0.062-0.002,0.116-0.018,0.164
			c-0.051,0.168-0.27,0.258-1.25,0.258c-0.442,0-0.723-0.019-0.911-0.054c-0.349-0.066-0.354-0.19-0.354-0.368v-1.271v-1.919v-0.966
			c0-0.24,0.028-0.475,0.07-0.703C60.942,39.411,62.469,38.092,64.301,38.092z M93.386,100.764c0,1.768-8.327,5.146-21.386,5.146
			s-21.386-3.379-21.39-5.217l-3.953-47.417c6.016,2.42,18.087,3.857,25.343,3.857c7.254,0,19.325-1.438,25.34-3.856L93.386,100.764
			z M99.286,50.205c-0.092,0.351-0.727,0.78-1.793,1.241c-4.096,1.769-14.58,3.998-25.493,3.998c-10.915,0-21.402-2.23-25.494-3.994
			c-1.073-0.463-1.71-0.893-1.796-1.243c0-0.004-0.005-0.009-0.005-0.013l-0.002-3.618c0.294-1.116,6.087-2.675,14.149-3.582v1.93
			v1.083c0,0.223,0.026,0.417,0.069,0.595c0.359,1.511,2.095,1.516,2.885,1.516c0.879,0,2.926-0.002,2.953-2.07
			c0-0.014,0.002-0.025,0.002-0.04v-1.625v-1.896c1.25-0.077,2.527-0.136,3.827-0.173h6.823c1.105,0.032,2.195,0.078,3.264,0.139
			v1.894v1.662c0,0.001,0,0.001,0,0.003c0.002,2.107,2.071,2.107,2.955,2.107c0.803,0,2.578-0.005,2.9-1.586
			c0.031-0.159,0.054-0.33,0.054-0.524v-1.153v-1.923c8.356,0.896,14.412,2.5,14.71,3.633l0.002,3.621
			C99.294,50.19,99.288,50.198,99.286,50.205z"/>
		<path d="M97.376,47.822c-0.126-0.217-0.359-0.333-0.609-0.305c-0.053,0.006-0.105,0.007-0.157,0.027
			c-0.655,0.254-1.492,0.515-2.467,0.775c-7.329,1.953-22.78,3.844-32.855,2.188c-0.353-0.058-0.671,0.177-0.729,0.522
			c-0.056,0.345,0.178,0.671,0.522,0.728c2.752,0.452,5.897,0.644,9.175,0.644c9.938,0,21.064-1.765,25.964-3.377
			c0.306-0.101,0.593-0.201,0.848-0.3c0.327-0.127,0.488-0.493,0.362-0.819C97.417,47.874,97.394,47.852,97.376,47.822z"/>
		<path d="M57.161,49.928c-2.867-0.431-5.451-1.027-7.344-1.575c-1.08-0.313-1.928-0.609-2.477-0.851
			c-0.167-0.073-0.313-0.144-0.422-0.205c-0.304-0.176-0.689-0.07-0.864,0.232c-0.123,0.215-0.103,0.469,0.026,0.662
			c0.053,0.08,0.118,0.151,0.206,0.202c0.331,0.19,0.855,0.413,1.53,0.65c2.046,0.721,5.481,1.584,9.156,2.136
			c0.031,0.005,0.064,0.007,0.094,0.007c0.309,0,0.578-0.225,0.625-0.539C57.745,50.302,57.507,49.979,57.161,49.928z"/>
		<path d="M69.085,64.418v37.037c0,0.35,0.283,0.633,0.633,0.633c0.351,0,0.633-0.283,0.633-0.633V64.418
			c0-0.989,0.805-1.794,1.794-1.794c0.99,0,1.794,0.805,1.794,1.794v37.037c0,0.35,0.284,0.633,0.634,0.633
			c0.35,0,0.633-0.283,0.633-0.633V64.418c0-1.688-1.372-3.061-3.061-3.061C70.458,61.357,69.085,62.73,69.085,64.418z"/>
		<path d="M82.801,101.244c0.01,0,0.019,0,0.029,0c0.336,0,0.616-0.266,0.631-0.604l1.69-37.066c0-0.99,0.804-1.794,1.793-1.794
			c0.989,0,1.795,0.804,1.795,1.764l-1.689,36.192c-0.016,0.35,0.254,0.646,0.603,0.662c0.351,0.031,0.646-0.254,0.663-0.602
			l1.688-36.223c0-1.688-1.373-3.061-3.061-3.061s-3.061,1.372-3.059,3.031l-1.688,37.037
			C82.181,100.932,82.451,101.227,82.801,101.244z"/>
		<path d="M57.346,60.514c-1.688,0-3.061,1.372-3.06,3.09l1.689,36.193c0.017,0.348,0.307,0.633,0.661,0.602
			c0.35-0.016,0.619-0.312,0.603-0.662l-1.688-36.162c0-0.99,0.805-1.794,1.795-1.794c0.989,0,1.793,0.804,1.794,1.822l1.69,37.038
			c0.015,0.338,0.295,0.604,0.631,0.604c0.01,0,0.02,0,0.03,0c0.349-0.018,0.62-0.312,0.604-0.662l-1.688-37.008
			C60.405,61.886,59.033,60.514,57.346,60.514z"/>
	</g>
</g>
</svg>
