<?xml version="1.0" encoding="utf-8"?>
<!-- Generator: Adobe Illustrator 17.1.0, SVG Export Plug-In . SVG Version: 6.00 Build 0)  -->
<!DOCTYPE svg PUBLIC "-//W3C//DTD SVG 1.1//EN" "http://www.w3.org/Graphics/SVG/1.1/DTD/svg11.dtd">
<svg version="1.1" id="Layer_1" xmlns="http://www.w3.org/2000/svg" xmlns:xlink="http://www.w3.org/1999/xlink" x="0px" y="0px"
	 viewBox="0 0 144 144" enable-background="new 0 0 144 144" xml:space="preserve">
<g>
	<g>
		<g>
			<path d="M99.188,60.883c-0.13-0.238-0.351-0.413-0.612-0.485c-0.261-0.073-0.542-0.036-0.775,0.104l-13.658,8.088
				c-0.467,0.276-0.628,0.875-0.363,1.349l7.158,12.797H83.2l0.037-4.079c0-0.492,0-0.957-0.624-1.37
				c-0.518-0.346-1.209-0.3-1.811,0.147c-0.098,0.072-0.182,0.162-0.247,0.266l-7.885,12.37c-0.209,0.327-0.21,0.747-0.001,1.074
				l7.885,12.372c0.066,0.104,0.15,0.193,0.248,0.266c0.339,0.252,0.69,0.379,1.046,0.379c0.273,0,0.537-0.079,0.766-0.23
				c0.624-0.417,0.624-0.881,0.624-1.381l-0.038-4.07h5.669c5.978,0,7.932-3.385,8.025-3.555l7.126-13.702
				c0.004-0.008,0.003-0.017,0.007-0.023c0.004-0.01,0.013-0.015,0.017-0.024c2.823-6.213,0.431-10.587,0.334-10.758L99.188,60.883z
				 M88.868,96.478H82.19c-0.267,0-0.522,0.106-0.71,0.296c-0.188,0.189-0.292,0.446-0.29,0.713l0.031,3.354l-6.524-10.235
				l6.524-10.234l-0.03,3.354c-0.002,0.267,0.102,0.523,0.29,0.713c0.188,0.189,0.443,0.296,0.71,0.296h13.822
				c0.571,0,2.43-0.052,4.271-0.665l-5.152,9.906C95.119,94,93.607,96.478,88.868,96.478z M86,69.812l11.927-7.062l4.698,8.631
				c0.082,0.149,1.972,3.708-0.39,8.934c-1.015,1.913-4.508,2.42-6.259,2.42h-0.001h-2.747L86,69.812z"/>
			<path d="M67.412,80.874l-14.85-0.022l4.043-6.967l3.714,2.589c0.302,0.178,0.54,0.318,0.89,0.318
				c0.283,0,0.491-0.103,0.606-0.159c0.572-0.274,0.87-0.883,0.797-1.629c-0.012-0.122-0.046-0.24-0.101-0.35l-6.792-13.566
				c-0.182-0.361-0.562-0.567-0.963-0.551l-14.802,1.019c-0.11,0.008-0.218,0.033-0.319,0.076c-0.688,0.29-1.081,0.843-1.049,1.487
				c0.044,0.749,0.442,0.984,0.864,1.232c0.034,0.021,0.069,0.038,0.105,0.054l3.47,1.525l-2.781,4.836
				c-0.786,1.335-1.308,2.68-1.549,3.995c-0.001,0.004-0.001,0.007-0.002,0.011c0,0.001-0.001,0.002-0.001,0.003
				c-0.518,2.856,1.392,6.069,1.482,6.219l7.24,11.58c0.002,0.003,0.003,0.006,0.005,0.009c0,0,0.003,0.004,0.005,0.006l0.022,0.036
				c3.917,5.588,8.9,5.747,9.096,5.75l10.832,0.37c0.012,0.001,0.022,0.001,0.034,0.001c0.259,0,0.508-0.101,0.695-0.281
				c0.194-0.188,0.305-0.447,0.305-0.719V81.874C68.41,81.322,67.963,80.875,67.412,80.874z M66.41,96.712l-9.808-0.335
				c-0.17-0.005-4.21-0.183-7.487-4.855l-6.354-10.162c0.322,0.162,0.654,0.308,0.99,0.438c0.003,0.002,0.006,0.002,0.009,0.003
				c0.363,0.141,0.732,0.261,1.104,0.367c0.123,0.035,0.244,0.062,0.367,0.095c0.252,0.066,0.504,0.129,0.755,0.182
				c0.141,0.029,0.278,0.055,0.418,0.08c0.23,0.043,0.458,0.082,0.684,0.115c0.14,0.021,0.275,0.039,0.412,0.057
				c0.223,0.027,0.438,0.051,0.65,0.07c0.124,0.012,0.246,0.023,0.366,0.033c0.223,0.017,0.433,0.028,0.641,0.038
				c0.093,0.005,0.188,0.011,0.277,0.015c0.285,0.01,0.554,0.015,0.794,0.015c0.271,0,0.485-0.005,0.631-0.011l0.168-0.009
				l15.383,0.025V96.712z M45.315,65.964c0.142-0.247,0.172-0.541,0.083-0.812c-0.089-0.27-0.288-0.488-0.548-0.603l-2.606-1.145
				l11.984-0.826l5.548,11.081l-2.919-2.036c-0.229-0.16-0.516-0.215-0.788-0.156c-0.273,0.061-0.509,0.232-0.649,0.475
				l-5.181,8.925c-0.004,0-0.008,0-0.012,0c-1.479,0-5.174-0.182-7.522-1.867c-1.35-0.969-2.014-2.261-2.028-3.953
				c0.206-1.061,0.64-2.158,1.296-3.271L45.315,65.964z"/>
			<path d="M72.932,57.494c-0.419,0.218-0.853,0.444-0.927,1.188c-0.069,0.636,0.293,1.211,0.969,1.538
				c0.1,0.048,0.208,0.08,0.318,0.093l14.729,1.74c0.039,0.005,0.078,0.007,0.117,0.007c0.347,0,0.672-0.18,0.854-0.48l7.44-12.247
				c0.066-0.109,0.111-0.23,0.132-0.357c0.122-0.74-0.14-1.367-0.702-1.68c-0.132-0.072-0.352-0.192-0.664-0.192
				c-0.318,0-0.549,0.119-0.751,0.229l-3.899,1.552l-2.523-5.08c-2.764-5.302-6.669-5.471-6.862-5.476l-15.443,0.012h-0.001
				c0,0-0.002,0-0.004,0h-0.001h-0.001H65.71h-0.001c-0.001,0-0.002,0-0.002,0c-0.002,0-0.004,0-0.006,0H65.7h-0.001
				c-0.001,0-0.002,0-0.002,0h-0.001h-0.001c0,0,0,0-0.001,0h-0.001c0,0,0,0-0.001,0h-0.001c-0.002,0-0.004,0.001-0.004,0.001
				c-0.003,0-0.005,0.002-0.008,0.002c-0.005,0-0.009-0.002-0.013-0.002c-6.813,0.365-9.588,4.509-9.694,4.673l-6.058,9.009
				c-0.151,0.225-0.205,0.502-0.147,0.768c0.057,0.266,0.22,0.496,0.45,0.64l13.483,8.375c0.164,0.102,0.346,0.15,0.526,0.15
				c0.326,0,0.646-0.159,0.837-0.451l8.012-12.216l3.417,6.709L72.932,57.494z M90.432,51.083l3.429-1.368l-6.243,10.277
				L75.54,58.565l2.719-1.141c0.257-0.107,0.456-0.316,0.552-0.578c0.096-0.261,0.079-0.55-0.047-0.798l-4.604-9.042
				c-0.034-0.126-0.095-0.242-0.177-0.347l-1.423-2.797c-0.066-0.132-1.021-1.999-2.606-3.526l11.17-0.009
				c0.119,0.007,2.94,0.203,5.119,4.383l2.924,5.888C89.398,51.065,89.951,51.279,90.432,51.083z M63.927,59.592l-11.774-7.313
				l5.484-8.155c0.095-0.142,2.379-3.463,8.106-3.78c2.298,0.019,4.408,3.194,5.03,4.424l1.258,2.47L63.927,59.592z"/>
			<path d="M76.193,75.247c-1.074,0.798-2.148,1.289-3.5,1.289c-1.965,0-3.715-1.32-4.053-4.421h10.653
				c0.031-0.338,0.093-0.859,0.093-1.442c0-4.36-2.211-8.075-6.785-8.075c-4.176,0-7.062,2.947-7.062,8.412
				c0,5.342,3.193,8.382,6.97,8.382c2.455,0,4.144-0.768,5.556-2.118L76.193,75.247z M72.387,65.453
				c2.609,0,3.653,1.842,3.806,4.053h-7.491C68.979,66.927,70.269,65.453,72.387,65.453z"/>
		</g>
	</g>
</g>
</svg>
