<svg id="Layer_1" data-name="Layer 1" xmlns="http://www.w3.org/2000/svg" viewBox="0 0 74.44 98.67"><defs><style>.cls-1{fill:#fff;}</style></defs><title>Icon_RH_People_Rockstar_RGB_White</title><path class="cls-1" d="M27.44 64.24a1.26 1.26 0 0 0-.87-.43 1.3 1.3 0 0 0-.92.31l-.24.21a1.28 1.28 0 0 0-.12 1.8l6.65 7.55a1.27 1.27 0 0 0 .87.43h.08a1.26 1.26 0 0 0 .84-.32l.24-.21a1.27 1.27 0 0 0 .11-1.8zm5.87 8.6l-.24.21a.28.28 0 0 1-.39 0l-6.65-7.55a.28.28 0 0 1 0-.39l.24-.21a.27.27 0 0 1 .18-.07.27.27 0 0 1 .21.09l6.65 7.56a.27.27 0 0 1 0 .36zm3.16-15.51a5.44 5.44 0 1 0 5.44 5.44 5.44 5.44 0 0 0-5.44-5.44zm0 9.37a3.94 3.94 0 1 1 3.94-3.94 3.94 3.94 0 0 1-3.94 3.98zm36.34-31.54a3.94 3.94 0 0 0 1.62-2.6c.15-1.55-1-2.85-2.21-4.17s-2.38-2.28-3.89-2.21a4.17 4.17 0 0 0-2.88 1.6l-1.23-.92a.808.808 0 1 0-1 1.27l1.18.9c-.25.32-.5.64-.74 1l-1.25-1a.808.808 0 1 0-1 1.27l1.27 1c-.59.84-1.17 1.68-1.78 2.5-.46.62-.93 1.22-1.42 1.8-.33.39-2.43 2.5-5 5.09a16.59 16.59 0 0 0-6.62-3.46c-1-1.56-1.01-7.2-.64-11.9.31.78.62 1.6.92 2.47a.75.75 0 0 0 .71.5.75.75 0 0 0 .7-.54c.14-.46 3.28-11.39-2.19-18.81a1.74 1.74 0 0 1 .1-1.27c.4-.79 1.46-1.41 3.08-1.78a.75.75 0 0 0 .2-1.38 8.55 8.55 0 0 0-8 .2l1-3.82a.75.75 0 0 0-1.19-.77l-4.98 3.88C36 3.62 30.15 2.5 26.79 6.6c-4.16 1.95-6.77 5.86-7.57 11.33a26.25 26.25 0 0 0 .09 7.75.75.75 0 0 0 1.44.13c.13-.32.29-.71.47-1.13-.87 3.59-1.95 7.47-2.58 8.3a.75.75 0 0 0 .86 1.16c1.13-.42 2.44-.87 3.26-1.11a12.11 12.11 0 0 1-2.78 4.88v.05a14.64 14.64 0 0 0-7.76 6.62c-2.06 3.72-2.51 8-2.91 11.83-.24 2.29-.4 4.61-.54 6.65L.52 67.62a1 1 0 0 0 .25 1.85l7.67 1.79c.45 1.76 2.26 6.64 8.74 10.25l-.27 4.65.33.32c.1.1 2.52 2.35 8 3.23l1 8.08a1 1 0 0 0 .75.85h.24a1 1 0 0 0 .82-.43l5.44-7.83c1 0 2 .07 2.88.07 11.85 0 15.89-3.7 16.08-3.87l.33-.32-.25-4.77a19.8 19.8 0 0 0 7.62-7.31c1.68-3.07 1.44-6.62 1.23-9.76 0-.57-.08-1.13-.1-1.68a89.25 89.25 0 0 0-1-10.24 27.23 27.23 0 0 0-1.44-5.38c3.93-3.84 7.88-7.68 8.47-8.14s1.27-.93 1.92-1.37a.75.75 0 0 0 .08.12l1.11 1.15a.8.8 0 1 0 1.15-1.11l-1-1.05 1-.64 1.11 1.15a.8.8 0 0 0 1.15-1.11zm-13.65 1.47a.46.46 0 0 1 .15-.1.46.46 0 0 0-.25.25.46.46 0 0 1 .1-.15zm-2.14 9.6a1 1 0 0 0-.26.38l-2.05 2-2.83-2.82 2.34-2.32zm-8.05 8l-2.75-2.67 1.77-1.72a.93.93 0 0 0 .07-.1 1 1 0 0 0 .12-.17v-.09l.13-.13 2.91 2.83-1.47 1.45a1 1 0 0 0-.36.23zm.37 4.53l-.1-.13-.07-.08-.84-.84.92-.92zm-.32-10.1l2.2-2.17-.66-.66a.45.45 0 0 1-.13-.24.45.45 0 0 0 .13.24l.66.66 2.85 2.84-2.21 2.2zm0-9a13.91 13.91 0 0 1 4.14 2.41l-5.18 5.15a12.14 12.14 0 0 1 1.04-7.53zm-1.93-.62a14.74 14.74 0 0 0-.87 9.74l-3.07 3-4.35-4.35a1 1 0 0 0-1.19-.17l-16.84 9.23.07-1.16c.23-.38 5.24-8.84 1.92-16.25a27.26 27.26 0 0 1 5.46-.75 6.81 6.81 0 0 0 13.47 0c1.09.05 2.1.13 2.93.23a19.91 19.91 0 0 1 2.47.51zm-16.87-.71h9.44a4.82 4.82 0 0 1-9.44 0zm-9.68-15.69c-.17-4.14.47-11.79 7-14.74a.76.76 0 0 0 .28-.22c3.16-4 9.6-2.14 9.66-2.12a.75.75 0 0 0 .74-.13l3.43-2.72-.94 3.75a.75.75 0 0 0 1.25.72 6.81 6.81 0 0 1 6.09-2A4.23 4.23 0 0 0 46.1 7a3.22 3.22 0 0 0-.11 2.6.72.72 0 0 0 .09.15c3.6 4.8 3.14 11.52 2.55 15.1-3.48-8.89-7.16-12.35-7.33-12.5a.75.75 0 0 0-1 0c-1.46 1.13-.73 4.13.13 6.42a13.6 13.6 0 0 1-3.47-4.44.74.74 0 0 0-.74-.5.75.75 0 0 0-.65.62l-.63 3.72-4.32-5.06a.73.73 0 0 0-.62-.26c-4.2.25-7.72 6.21-9.46 9.79zM32 22.43l-2.58-1.36a.5.5 0 0 0-.46 0l-2.58 1.36.49-2.87a.5.5 0 0 0-.14-.44l-1.43-1.4q.34-.44.7-.84l1.53-.22a.5.5 0 0 0 .38-.27l.82-1.66a4.25 4.25 0 0 1 .8-.28l1 1.94a.5.5 0 0 0 .38.27l.91.13 1 1.21-1.14 1.11a.5.5 0 0 0-.14.44zm-6.16-2.78l-.62 3.6a.5.5 0 0 0 .73.53l3.27-1.7 3.24 1.71a.5.5 0 0 0 .73-.53l-.62-3.61.9-.88 1.33 1.56a.75.75 0 0 0 1.31-.36l.55-3.24a15.18 15.18 0 0 0 5.14 4.75.75.75 0 0 0 1-1c-1.1-2.25-2-5-1.87-6.29a34.81 34.81 0 0 1 4.59 7.36 10.87 10.87 0 0 1-21.72-.51v-1.37c.26-.41.54-.82.82-1.22zm-1.53 12.4a.8.8 0 0 0-.36-.58c-.28-.17-.49-.31-3.26.66a71.47 71.47 0 0 0 2-7 12.69 12.69 0 0 0 22.87 2.55c-.13 3.16-.07 6.83.64 9.1-.49-.09-1-.17-1.34-.22-1.17-.1-2.64-.23-4.11-.23h-.11c-4.05-.15-8.51 0-8.73 0a34.24 34.24 0 0 0-9.42.87c.98-1.52 1.99-3.53 1.82-5.15zm-13 24.58c.38-3.61.8-7.7 2.67-11.07a12.7 12.7 0 0 1 6.84-5.82c3.08 6.5-1.6 14.5-1.68 14.59a7.09 7.09 0 0 1-.29.71l-.17 2.61-7.8 4.28c.12-1.7.26-3.52.45-5.31zm6 22.64a15.41 15.41 0 0 1-6.61-7.48l7 1.62zm1.65 6l.67-11.43 3.72.87 1.61 12.9a15.06 15.06 0 0 1-6-2.28zm8.93 9.65l-2.67-21.16a1 1 0 0 0-.76-.82L3.77 68.11l34.16-18.78 4.52 4.52a1 1 0 0 0 1.4 0l1.74-1.68 2.74 2.73-2.11 2.15a1 1 0 0 0 0 1.41l1.51 1.51 2.4 3zm6.94-6.49l14.93-21.5 1 18.46c-1.22.85-5.66 3.34-15.93 3.07zm24.44-25.56c0 .56.07 1.14.11 1.72.2 3 .41 6.11-1 8.67a17.11 17.11 0 0 1-6 6l-.77-15 .56-.81a1 1 0 0 0 0-1.2l-.66-.82-.33-6.4a1 1 0 0 0-.08-.3c1.07-1 3.52-3.44 6.21-6.07a26.66 26.66 0 0 1 1 4.18 87.39 87.39 0 0 1 .96 10.03zm1.07-19l-.43-.42-2.18 2.17-2.84-2.82 2.17-2.18-.51-.51a.45.45 0 0 1-.13-.24.45.45 0 0 0 .13.24l.51.51 2.85 2.84.43.42a.46.46 0 0 0 .15.1.46.46 0 0 1-.15-.08zm.23-1.07l-2.86-2.84 2.07-2.1 2.89 2.87zm2.39-1.78a.46.46 0 0 0 .32.13.46.46 0 0 1-.33-.1zm2.82-2.82l-.18-.18-.48.37c-.26.22-.9.83-1.79 1.7l-2.91-2.86.64-.68c.46-.55.9-1.11 1.33-1.68l3.19 3.18.18.18a.46.46 0 0 0 .15.1.46.46 0 0 1-.14-.1zm6.87-5.85c-.05.52-.53 1.1-1.41 1.73-1.63 1.15-3.32 2.18-4.92 3.37l-3.37-3.36c1.15-1.58 2.24-3.2 3.48-4.72.75-.93 1.42-1.41 2-1.43 1 0 2.14.95 2.84 1.62a3.69 3.69 0 0 1 1.37 2.82z"/></svg>