<?xml version="1.0" encoding="utf-8"?>
<!-- Generator: Adobe Illustrator 18.0.0, SVG Export Plug-In . SVG Version: 6.00 Build 0)  -->
<!DOCTYPE svg PUBLIC "-//W3C//DTD SVG 1.1//EN" "http://www.w3.org/Graphics/SVG/1.1/DTD/svg11.dtd">
<svg version="1.1" id="Layer_1" xmlns="http://www.w3.org/2000/svg" xmlns:xlink="http://www.w3.org/1999/xlink" x="0px" y="0px"
	 width="216px" height="216px" viewBox="0 0 216 216" enable-background="new 0 0 216 216" xml:space="preserve">
<g>
	<g>
		<polygon fill="none" points="95.147,149.688 97.624,146.539 94.195,148.949 		"/>
		<polygon fill="none" points="56.949,120.115 70.146,130.331 60.005,116.229 		"/>
		<polygon fill="none" points="75.809,96.149 69.002,104.797 78.425,98.175 		"/>
		<path fill="none" d="M85.73,130.434v-0.581l-0.403,0.283C85.461,130.234,85.595,130.333,85.73,130.434z"/>
		<path fill="none" d="M102.564,85.16c5.808,0,10.532-4.725,10.532-10.533c0-5.806-4.724-10.53-10.532-10.53
			c-5.807,0-10.531,4.724-10.531,10.53C92.033,80.435,96.757,85.16,102.564,85.16z"/>
		<path fill="none" d="M99.274,112.052l16.501,12.827c0.186,0.143,0.305,0.354,0.332,0.584c0.029,0.231-0.035,0.465-0.18,0.648
			l-3.418,4.345l2.303,3.203c0.102,0.14,0.141,0.316,0.113,0.487c-0.029,0.17-0.127,0.322-0.268,0.422l-6.344,4.459
			c5.877-0.586,8.454-2.004,9.448-2.785v-29.209c0-0.43,0.346-0.776,0.775-0.776c0.428,0,0.775,0.347,0.775,0.776v23.462
			c4.121-3.028,7.678-5.646,7.678-10.893V108.77c0-8.065-3.066-17.679-17.678-17.679H95.815c-4.356,0-7.68,0.859-10.209,2.272
			c0.16,0.028,0.311,0.116,0.414,0.258L99.274,112.052z"/>
		<polygon fill="none" points="114.008,125.724 102.948,117.161 111.445,128.979 		"/>
		<path d="M102.564,86.932c6.784,0,12.303-5.521,12.303-12.305c0-6.784-5.52-12.303-12.303-12.303
			c-6.784,0-12.304,5.519-12.304,12.303C90.26,81.412,95.78,86.932,102.564,86.932z M102.564,64.097
			c5.808,0,10.532,4.724,10.532,10.53c0,5.808-4.724,10.533-10.532,10.533c-5.807,0-10.531-4.725-10.531-10.533
			C92.033,68.821,96.757,64.097,102.564,64.097z"/>
		<path d="M85.73,129.852l0.432-0.304l1.119,1.558l2.845,3.957c0.111,0.156,0.281,0.247,0.458,0.266
			c0.15,0.017,0.307-0.021,0.44-0.114l8.603-6.047c0.142-0.1,0.237-0.251,0.267-0.421c0.028-0.171-0.013-0.349-0.113-0.488
			l-12.5-17.382l-1.065-1.481c-0.118-0.165-0.299-0.247-0.486-0.26c-0.142-0.008-0.287,0.02-0.413,0.108l-7.181,5.046l-1.772,1.245
			l-2.948,2.071c-0.141,0.1-0.237,0.252-0.267,0.422c-0.028,0.171,0.012,0.347,0.113,0.486l3.951,5.497l3.152,4.386l2.12,2.949
			c0.207,0.29,0.609,0.357,0.899,0.153l0.413-0.29l1.529-1.074L85.73,129.852z M74.698,118.29l1.666-1.17l1.772-1.246l7.401-5.2
			l0.192,0.268l1.551,2.157l11.064,15.387l-7.541,5.3l-3.523-4.9l-0.44-0.612c-0.112-0.158-0.281-0.25-0.459-0.269
			c-0.151-0.015-0.307,0.021-0.44,0.115l-0.212,0.148l-1.498,1.053l-1.067,0.75l-6.756-9.399L74.698,118.29z"/>
		<path d="M103.355,134.186c0.056,0.078,0.14,0.124,0.228,0.134c0.077,0.008,0.156-0.013,0.223-0.062
			c0.146-0.102,0.18-0.304,0.074-0.451l-3.096-4.304c-0.102-0.146-0.306-0.18-0.452-0.074c-0.144,0.104-0.179,0.305-0.072,0.451
			L103.355,134.186z"/>
		<path d="M101.207,128.092c0.075,0.009,0.153-0.01,0.221-0.057l2.696-1.896c0.146-0.103,0.182-0.306,0.078-0.452
			c-0.103-0.144-0.303-0.181-0.451-0.078l-2.697,1.896c-0.146,0.103-0.182,0.305-0.078,0.452
			C101.032,128.036,101.118,128.083,101.207,128.092z"/>
		<path d="M85.09,108.787c0.056,0.077,0.14,0.123,0.229,0.132c0.076,0.008,0.156-0.011,0.223-0.06
			c0.146-0.104,0.179-0.307,0.074-0.451l-3.098-4.307c-0.104-0.146-0.307-0.18-0.452-0.074c-0.146,0.105-0.179,0.307-0.074,0.453
			L85.09,108.787z"/>
		<path d="M73.377,117.011l-3.099-4.308c-0.103-0.146-0.307-0.18-0.452-0.073c-0.146,0.104-0.179,0.307-0.074,0.451l3.099,4.309
			c0.056,0.078,0.14,0.124,0.229,0.134c0.076,0.008,0.156-0.012,0.223-0.06C73.449,117.359,73.482,117.156,73.377,117.011z"/>
		<path d="M87.157,108.743c0.033,0.047,0.077,0.077,0.125,0.101c0.034,0.017,0.069,0.03,0.106,0.034
			c0.076,0.009,0.153-0.01,0.221-0.058l2.699-1.897c0.145-0.102,0.181-0.304,0.078-0.451c-0.103-0.146-0.305-0.181-0.452-0.078
			l-2.652,1.864l-0.046,0.033C87.089,108.394,87.053,108.596,87.157,108.743z"/>
		<path d="M91.053,135.95c-0.145,0.105-0.178,0.308-0.074,0.453l1.377,1.916l1.504,2.09l0.216,0.3
			c0.057,0.078,0.14,0.123,0.23,0.132c0.075,0.008,0.155-0.009,0.222-0.058c0.082-0.06,0.117-0.148,0.124-0.242
			c0.005-0.072-0.005-0.147-0.051-0.211l-1.301-1.809l-1.795-2.497C91.403,135.881,91.199,135.847,91.053,135.95z"/>
		<path d="M88.632,137.03l1.177-0.827c0.146-0.102,0.182-0.304,0.078-0.45c-0.102-0.145-0.304-0.182-0.45-0.078l-1.432,1.004
			l-1.27,0.891c-0.106,0.074-0.13,0.197-0.11,0.317c0.008,0.046,0.001,0.094,0.031,0.135c0.055,0.079,0.142,0.126,0.231,0.135
			c0.038,0.004,0.073-0.02,0.111-0.028c0.037-0.01,0.076-0.005,0.109-0.028L88.632,137.03z"/>
		<path d="M81.561,131.595l-2.7,1.896c-0.146,0.104-0.183,0.307-0.079,0.452c0.056,0.08,0.142,0.126,0.231,0.136
			c0.076,0.008,0.153-0.011,0.22-0.058l2.7-1.895c0.146-0.102,0.183-0.305,0.079-0.451
			C81.911,131.527,81.707,131.492,81.561,131.595z"/>
		<path d="M72.329,118.762l-2.696,1.899c-0.146,0.102-0.182,0.305-0.079,0.452c0.057,0.078,0.141,0.125,0.231,0.135
			c0.076,0.008,0.153-0.01,0.22-0.057l2.697-1.899c0.146-0.103,0.182-0.306,0.078-0.452
			C72.678,118.694,72.478,118.659,72.329,118.762z"/>
		<g>
			<path fill="#010101" d="M102.555,86.992c6.802,0,12.336-5.532,12.336-12.332c0-6.802-5.534-12.335-12.336-12.335
				c-6.802,0-12.335,5.533-12.335,12.335C90.219,81.459,95.753,86.992,102.555,86.992z M102.555,64.101
				c5.823,0,10.559,4.738,10.559,10.559c0,5.818-4.736,10.556-10.559,10.556c-5.821,0-10.559-4.738-10.559-10.556
				C91.996,68.833,96.733,64.101,102.555,64.101z"/>
			<path fill="#010101" d="M127.214,108.71c-0.666-6.756-1.907-19.332-18.743-19.332H96.649c-8.329,0-12.854,2.968-15.375,6.794
				l-1.352,0.95l-0.472-0.365l-3.258-2.523c-0.379-0.295-0.925-0.227-1.223,0.151l-11.02,13.961l-5.85,4.112
				c-0.141,0.098-0.238,0.251-0.267,0.421c-0.028,0.171,0.013,0.347,0.113,0.486l0.997,1.385l-3.915,4.975
				c-0.144,0.183-0.209,0.417-0.18,0.648c0.028,0.232,0.147,0.442,0.333,0.584l18.456,14.228l13.102,18.219
				c0.113,0.157,0.282,0.248,0.459,0.267c0.15,0.016,0.307-0.021,0.44-0.114l5.059-3.556l2.065,1.6
				c0.133,0.104,0.288,0.162,0.444,0.179c0.289,0.029,0.586-0.084,0.778-0.329l6.686-8.46l2.542-1.786
				c8.464-0.332,12.177-2.213,13.673-3.379l0.735-0.573l-0.256-4.409l1.03-0.756c4.206-3.086,7.687-6.145,7.687-12.35
				L127.214,108.71z M75.809,96.149l2.617,2.026l-9.423,6.622L75.809,96.149z M56.949,120.115l3.056-3.887l10.142,14.103
				L56.949,120.115z M95.147,149.688l-0.952-0.738l3.43-2.41L95.147,149.688z M87.417,152.128l-13.639-18.967l-0.006-0.023
				l-0.024-0.018l-14.367-19.979l18.33-12.881l2.9-2.038l4.729-3.324L99.3,114.31l0.01,0.035l0.034,0.026l14.033,19.514
				l-7.583,5.329l-2.623,1.843L87.417,152.128z M102.948,117.161l11.06,8.562l-2.562,3.255L102.948,117.161z M119.345,130.655
				l-1.693-23.512c0-0.435-0.354-0.78-0.784-0.78c-0.425,0-0.773,0.345-0.773,0.78l1.698,29.281
				c-1.022,0.797-3.668,2.261-9.799,2.826l0.319-0.224l6.344-4.459c0.141-0.1,0.238-0.252,0.268-0.422
				c0.027-0.171-0.012-0.348-0.113-0.487l-2.303-3.203l3.418-4.345c0.145-0.184,0.209-0.417,0.18-0.648
				c-0.027-0.23-0.146-0.441-0.332-0.584l-16.501-12.827L86.139,93.787c2.425-1.624,5.784-2.632,10.51-2.632h11.821
				c14.646,0,16.219,10.064,16.975,17.729l0.849,10.853h0.011C126.306,124.995,123.476,127.624,119.345,130.655z"/>
		</g>
	</g>
</g>
</svg>
