<svg id="Layer_1" data-name="Layer 1" xmlns="http://www.w3.org/2000/svg" viewBox="0 0 74 74"><defs><style>.cls-1{fill:#fff;}</style></defs><title>Icon_RH_People_Face-frown_RGB_White</title><path class="cls-1" d="M37 74a37 37 0 1 1 37-37 37 37 0 0 1-37 37zm0-72a35 35 0 1 0 35 35A35 35 0 0 0 37 2z"/><path class="cls-1" d="M23.75 40.29A3.29 3.29 0 1 1 27 37a3.29 3.29 0 0 1-3.25 3.29zm0-5.57A2.29 2.29 0 1 0 26 37a2.29 2.29 0 0 0-2.25-2.29zM50.25 40.29A3.29 3.29 0 1 1 53.54 37a3.29 3.29 0 0 1-3.29 3.29zm0-5.57A2.29 2.29 0 1 0 52.54 37a2.29 2.29 0 0 0-2.29-2.29zM50.67 61.25H23.33a.75.75 0 0 1-.75-.75 14.42 14.42 0 0 1 28.83 0 .75.75 0 0 1-.74.75zm-26.57-1.5h25.8a12.92 12.92 0 0 0-25.79 0z"/></svg>