<?xml version="1.0" encoding="utf-8"?>
<!-- Generator: Adobe Illustrator 18.0.0, SVG Export Plug-In . SVG Version: 6.00 Build 0)  -->
<!DOCTYPE svg PUBLIC "-//W3C//DTD SVG 1.1//EN" "http://www.w3.org/Graphics/SVG/1.1/DTD/svg11.dtd">
<svg version="1.1" id="Layer_1" xmlns="http://www.w3.org/2000/svg" xmlns:xlink="http://www.w3.org/1999/xlink" x="0px" y="0px"
	 width="144px" height="144px" viewBox="0 0 144 144" enable-background="new 0 0 144 144" xml:space="preserve">
<g>
	<path fill="#010101" d="M72,116.2c-12.2,0-17-2.6-18.8-4.1l-0.8-0.6l0.3-4.9l-1.2-0.8c-4.6-3.3-8.7-6.9-8.7-14v-0.1l1-12.4
		c0.6-7.7,1.8-22,21.3-22h13.5c19.2,0,20.6,14.3,21.3,22l1,12.5c0,7.1-4,10.5-8.7,14.1l-1.2,0.9l0.3,5l-0.8,0.7
		C88.7,113.7,83.8,116.2,72,116.2z M72,54.4c-7.7,0-14-6.3-14-14c0-7.7,6.3-14,14-14c7.7,0,14,6.3,14,14C86,48.1,79.7,54.4,72,54.4z
		 M60,40.4c0,6.6,5.4,12,12,12c6.6,0,12-5.4,12-12c0-6.6-5.4-12-12-12C65.4,28.3,60,33.7,60,40.4z M99,91.7l-1-12.4
		c-0.9-8.7-2.7-20.2-19.3-20.2H65.3C48.6,59.1,46.7,70,46,79.3l-1,12.4c0,5.9,3.2,8.9,7.8,12.4l1.9-26.7c0-0.5,0.4-0.9,0.9-0.9
		c0.5,0,0.9,0.4,0.9,0.9l-1.9,33c0,0.1,0,0.2,0,0.2c1.3,1.1,5.6,3.6,17.5,3.6c11.5,0,15.9-2.3,17.3-3.5l-1.9-33.3
		c0-0.5,0.4-0.9,0.9-0.9c0.5,0,0.9,0.4,0.9,0.9l1.9,26.8C95.8,100.6,99,97.6,99,91.7L99,91.7L99,91.7z"/>
	<g>
		<path fill="#010101" d="M72.2,64.7C72.2,64.7,72.2,64.7,72.2,64.7l-1.2,0c-0.3,0-0.5-0.1-0.7-0.3c-1.6-1.8-2.8-5.7-2.8-5.9
			c-0.2-0.5,0.2-1.1,0.7-1.2c0.5-0.2,1.1,0.2,1.2,0.7c0.3,0.9,1.1,3.4,2.1,4.8l0.7,0l0.6-0.1c0.6-1.2,1.7-3.5,1.9-4.7
			c0.1-0.5,0.6-0.9,1.2-0.8c0.5,0.1,0.9,0.6,0.8,1.2c-0.4,1.8-2.3,5.5-2.3,5.6c-0.2,0.3-0.5,0.5-0.8,0.5L72.2,64.7
			C72.2,64.7,72.2,64.7,72.2,64.7z"/>
		<path fill="#010101" d="M72,111.5c-0.2,0-0.5-0.1-0.7-0.2l-4.5-3.9c-0.2-0.2-0.4-0.5-0.3-0.8l2.9-42.9c0-0.6,0.5-1,1.1-0.9
			c0.5,0,1,0.5,0.9,1.1l-2.9,42.4l3.5,3l3.5-3l-2.9-42.9c0-0.6,0.4-1,0.9-1.1c0.6,0,1,0.4,1.1,0.9l2.9,43.4c0,0.3-0.1,0.6-0.3,0.8
			l-4.5,3.9C72.5,111.4,72.2,111.5,72,111.5z"/>
	</g>
</g>
</svg>
