<?xml version="1.0" encoding="utf-8"?>
<!-- Generator: Adobe Illustrator 18.0.0, SVG Export Plug-In . SVG Version: 6.00 Build 0)  -->
<!DOCTYPE svg PUBLIC "-//W3C//DTD SVG 1.1//EN" "http://www.w3.org/Graphics/SVG/1.1/DTD/svg11.dtd">
<svg version="1.1" id="Layer_1" xmlns="http://www.w3.org/2000/svg" xmlns:xlink="http://www.w3.org/1999/xlink" x="0px" y="0px"
	 width="216px" height="216px" viewBox="0 0 216 216" enable-background="new 0 0 216 216" xml:space="preserve">
<g>
	<g>
		<path fill="#FFFFFF" d="M108.983,152.415c-12.023,0-16.802-2.531-18.581-4.04l-0.743-0.639l0.296-4.873l-1.143-0.839
			c-4.508-3.311-8.555-6.86-8.555-13.831v-0.08l0.98-12.292c0.623-7.619,1.782-21.793,21.1-21.793h13.303
			c18.948,0,20.344,14.152,21.094,21.756l0.815,10.41h0.15l0.013,1.999c0,6.984-3.918,10.426-8.651,13.899l-1.159,0.851l0.288,4.962
			l-0.828,0.645C125.511,149.994,120.661,152.415,108.983,152.415z M108.983,91.342c-7.655,0-13.882-6.226-13.882-13.879
			c0-7.655,6.227-13.882,13.882-13.882c7.655,0,13.882,6.227,13.882,13.882C122.865,85.116,116.638,91.342,108.983,91.342z
			 M97.1,77.464c0,6.548,5.332,11.879,11.883,11.879c6.553,0,11.883-5.332,11.883-11.879c0-6.551-5.329-11.883-11.883-11.883
			C102.432,65.581,97.101,70.906,97.1,77.464z M135.7,128.193l-0.956-12.213c-0.851-8.627-2.621-19.952-19.104-19.952h-13.303
			c-16.488,0-18.357,10.783-19.107,19.952l-0.974,12.213c0,5.88,3.127,8.833,7.739,12.219L91.9,114.02
			c0-0.49,0.392-0.878,0.873-0.878c0.481,0,0.879,0.388,0.879,0.878l-1.914,32.585c0,0.092-0.018,0.166-0.043,0.245
			c1.271,1.078,5.494,3.565,17.288,3.565c11.38,0,15.705-2.315,17.15-3.442l-1.911-32.953c0-0.49,0.392-0.878,0.87-0.878
			c0.483,0,0.882,0.389,0.882,0.878l1.905,26.46c4.649-3.411,7.834-6.37,7.834-12.287H135.7L135.7,128.193z"/>
		<path fill="#FFFFFF" d="M120.275,110.755h-8.667c-0.428,0-0.776,0.348-0.776,0.775v7.626c0,0.315,0.193,0.601,0.485,0.718
			l4.333,1.754c0.094,0.037,0.192,0.057,0.291,0.057c0.099,0,0.197-0.019,0.291-0.057l4.334-1.754
			c0.292-0.117,0.484-0.402,0.484-0.718v-7.626C121.05,111.103,120.703,110.755,120.275,110.755z M119.5,118.634l-3.559,1.439
			l-3.557-1.439v-6.328h7.115V118.634z"/>
	</g>
</g>
</svg>
