<svg xmlns="http://www.w3.org/2000/svg" viewBox="0 0 78.77 91.72"><title>Icon_RH_People_Adult-glasses-scoring_RGB_Black</title><path d="M29.66 28.66a14.33 14.33 0 1 0-14.33-14.33 14.35 14.35 0 0 0 14.33 14.33zm0-26.6a12.27 12.27 0 1 1-12.27 12.27A12.28 12.28 0 0 1 29.66 2.06zm6.87 29.37H22.8c-19.95 0-21.14 14.63-21.79 22.5l-1 12.69v.08c0 7.2 4.18 10.86 8.83 14.28l1.18.87-.31 5 .77.66c1.84 1.56 6.77 4.17 19.19 4.17 12.06 0 17.07-2.5 19-4l.85-.67-.3-5.12 1.2-.88c4.89-3.59 8.93-7.14 8.93-14.35l-1.03-12.8c-.78-7.81-2.22-22.42-21.78-22.42zm-.33 2.06a6.81 6.81 0 0 1-13.08 0zM10.06 79.33c-4.76-3.5-8-6.55-8-12.62l.57-7.1h8.85zm37.33 6.77c-1.49 1.16-6 3.55-17.71 3.55-12.18 0-16.54-2.57-17.85-3.68a.81.81 0 0 0 0-.25l2-33.64a.905.905 0 1 0-1.81 0l-.4 5.55H2.79l.28-3.53c.75-9.19 2.6-20 18.3-20.57a8.52 8.52 0 0 0 16.59 0c15.69.64 17.45 11.92 18.3 20.57l.28 3.53h-8.93l-.4-5.55a.905.905 0 1 0-1.81 0zm1.8-6.7l-1.44-19.79h8.94l.56 7.1c.01 6.15-3.28 9.15-8.08 12.69zm29.1-36.91a1 1 0 0 0-1.37.35l-1.62 2.73h-8.83a.75.75 0 0 0-.75.75v10.06a.75.75 0 0 0 .75.75h10.07a.75.75 0 0 0 .75-.75V46.32a.75.75 0 0 0 0-.14l1.35-2.32a1 1 0 0 0-.35-1.37zm-2.5 13.14h-8.57v-8.56h7.17l-2.84 4.79-.93-1.75a1 1 0 0 0-1.76.94l1.77 3.31.05.07.06.08a1 1 0 0 0 .25.22h.1a1 1 0 0 0 .4.1 1 1 0 0 0 .25 0h.09l.14-.05a1 1 0 0 0 .27-.22l.06-.07.06-.08 3.42-5.75zm-9.32-18h10.07a.75.75 0 0 0 .75-.75V26.86a.75.75 0 0 0 0-.14l1.38-2.31a1 1 0 1 0-1.72-1l-1.62 2.73h-8.86a.75.75 0 0 0-.75.75v9.97a.75.75 0 0 0 .75.79zm.75-10.06h7.17l-2.85 4.79-.93-1.75a1 1 0 0 0-1.76.94l1.77 3.31.05.07.06.08a1 1 0 0 0 .25.22h.1a1 1 0 0 0 .4.1 1 1 0 0 0 .25 0h.09l.14-.05a1 1 0 0 0 .27-.22l.06-.07.06-.08 3.42-5.75v7h-8.55zm-38.92-14a4.49 4.49 0 0 0-.06-.56 1.43 1.43 0 0 1 1.29-.69h.24a1.42 1.42 0 0 1 1.3.72 4.49 4.49 0 0 0-.05.53 4.63 4.63 0 1 0 .53-2.09 3 3 0 0 0-1.78-.58h-.24a3 3 0 0 0-1.77.57 4.53 4.53 0 1 0 .53 2.1zm7.3-2.87a2.87 2.87 0 1 1-2.87 2.87 2.87 2.87 0 0 1 2.87-2.85zm-14.74 2.89a2.87 2.87 0 1 1 2.87 2.87 2.87 2.87 0 0 1-2.87-2.87zm57.43 48.39a1 1 0 0 0-1.37.35l-1.62 2.73h-8.83a.75.75 0 0 0-.75.75v10.05a.75.75 0 0 0 .75.75h10.07a.75.75 0 0 0 .75-.75V65.8a.75.75 0 0 0 0-.14l1.38-2.31a1 1 0 0 0-.38-1.37zm-2.5 13.14h-8.57v-8.57h7.17l-2.85 4.79-.93-1.75a1 1 0 0 0-1.76.94l1.77 3.31.05.07.06.08a1 1 0 0 0 .25.22h.1a1 1 0 0 0 .4.1 1 1 0 0 0 .25 0h.09l.14-.05a1 1 0 0 0 .27-.22l.06-.07.1-.11 3.42-5.75z"/></svg>