<?xml version="1.0" encoding="utf-8"?>
<!-- Generator: Adobe Illustrator 17.1.0, SVG Export Plug-In . SVG Version: 6.00 Build 0)  -->
<!DOCTYPE svg PUBLIC "-//W3C//DTD SVG 1.1//EN" "http://www.w3.org/Graphics/SVG/1.1/DTD/svg11.dtd">
<svg version="1.1" id="Layer_1" xmlns="http://www.w3.org/2000/svg" xmlns:xlink="http://www.w3.org/1999/xlink" x="0px" y="0px"
	 viewBox="0 0 144 144" enable-background="new 0 0 144 144" xml:space="preserve">
<g>
	<g>
		<g>
			<path d="M70.457,61.967c5.802,0,10.521-4.72,10.521-10.521s-4.72-10.521-10.521-10.521c-5.799,0-10.518,4.72-10.518,10.521
				S64.658,61.967,70.457,61.967z M70.457,42.926c4.699,0,8.521,3.822,8.521,8.521c0,4.698-3.822,8.521-8.521,8.521
				c-4.697,0-8.518-3.822-8.518-8.521C61.939,46.748,65.76,42.926,70.457,42.926z"/>
			<path d="M94.236,77.719c-4.818-11.434-9.027-12.396-20.792-12.396h-5.974c-11.323,0-17.362,4.887-19.585,15.875
				c-2.455,14.31,1.404,18.48,8.357,20.543c0.095,0.037,2.398,0.883,9.767,1.238c0.185,0.025,0.758,0.096,1.515,0.096
				c1.388,0,3.398-0.236,4.782-1.422c1.026-0.879,1.546-2.098,1.543-3.619c0.001-0.16-0.033-1.6-1.316-2.857
				c-1.241-1.215-3.163-1.816-5.735-1.744c-0.044-0.004-2.794,0.025-5.727-0.756l5.107-2.83c0.177-0.098,0.307-0.264,0.36-0.457
				c0.053-0.195,0.025-0.404-0.076-0.578c-0.882-1.5-3.008-5.85-2.279-7.93c0.16-0.455,0.445-0.748,0.895-0.92
				c0.006-0.002,0.568-0.189,1.109,0.1c0.507,0.271,0.894,0.914,1.102,1.773c0.012,0.098,1.199,9.092,13.514,9.76
				c-0.443,0.291-0.889,0.576-1.313,0.842c-4.011,2.508-2.847,5.469-2.427,6.25c0.537,1.223,2.678,3.133,6.931,1.613
				c2.453-0.879,6.636-3.01,10.349-6.125C99.954,89.465,94.449,78.145,94.236,77.719z M93.057,92.643
				c-3.756,3.15-7.888,5.111-9.738,5.773c-3.491,1.248-4.398-0.482-4.459-0.605c-0.696-1.305-0.127-2.543,1.689-3.68
				c2.289-1.43,5.167-3.455,5.173-3.459l2.36-1.568c0.46-0.305,0.586-0.926,0.279-1.385c-0.305-0.461-0.924-0.586-1.386-0.281
				l-2.383,1.584c-0.014,0.01-0.67,0.471-1.593,1.1c-1.021,0.027-1.979,0.004-2.859-0.07c2.472-0.797,4.266-3.117,4.266-5.852
				c0-3.391-2.759-6.15-6.15-6.15c-3.391,0-6.148,2.76-6.148,6.15c0,1.514,0.552,2.898,1.461,3.971
				c-4.223-2.434-4.765-6.293-4.804-6.594c-0.331-1.396-0.96-2.352-1.87-2.838c-1.133-0.605-2.221-0.228-2.348-0.18
				c-0.859,0.328-1.475,0.959-1.778,1.826c-0.907,2.588,1.12,6.826,2.025,8.514l-5.659,3.135c-0.775-0.316-1.526-0.703-2.2-1.18
				c-0.45-0.32-1.075-0.213-1.394,0.238c-0.319,0.451-0.213,1.074,0.238,1.395c4.281,3.029,10.783,2.943,11.059,2.945
				c4.777-0.139,5.004,2.334,5.012,2.6c0.002,0.926-0.273,1.611-0.84,2.1c-1.292,1.107-3.867,0.998-4.749,0.863
				c-0.034-0.006-0.071-0.01-0.106-0.012c-6.977-0.332-9.187-1.105-9.271-1.135c-5.293-1.572-9.475-4.037-7.031-18.283
				c2.02-9.982,7.289-14.242,17.619-14.242h5.974c11.542,0,14.675,1.031,18.975,11.228C92.47,78.654,97.47,88.939,93.057,92.643z
				 M73.607,84.199c0-2.564,2.086-4.65,4.648-4.65c2.564,0,4.65,2.086,4.65,4.65c0,2.564-2.086,4.65-4.65,4.65
				C75.693,88.85,73.607,86.764,73.607,84.199z"/>
		</g>
	</g>
</g>
</svg>
