<svg xmlns="http://www.w3.org/2000/svg" viewBox="0 0 108 108"><title>Icon_RH_People_Walking_RGB_Black</title><path d="M54 27.6a6.78 6.78 0 1 0-6.78-6.78A6.79 6.79 0 0 0 54 27.6zm0-12.07a5.28 5.28 0 1 1-5.28 5.28A5.29 5.29 0 0 1 54 15.54zm21.52 29.33a2 2 0 0 0-1.44-1l-10.83-1.07a1.05 1.05 0 0 1-.68-.44l-4.7-6.27a6 6 0 0 0-1.65-4.21 5.84 5.84 0 0 0-4.37-1.8l-3 .09c-3 .12-4.92 3.47-5.42 4.47l-9.14 17a5.47 5.47 0 0 0 .58 6.29 2.18 2.18 0 0 0 1.62.72h.22a2.32 2.32 0 0 0 1.75-1.08l6.06-9.33c0 1.74.1 3.23.22 4.64a11.35 11.35 0 0 0 2.05 5.82c-2.94 5.17-10.64 14.86-15 19.3a4.57 4.57 0 0 0-1.28 3.54 4.62 4.62 0 0 0 1.86 3.37 4.45 4.45 0 0 0 2.69.92 4.36 4.36 0 0 0 3.15-1.36c5.24-5.47 12.15-13.71 16-20 1.45.9 2.8 1.79 4.06 2.67s2.71 2 4 3l-1.96 13.14a4.24 4.24 0 0 0 8.4 1.23l2.52-17.28c.26-1.77-.92-3.19-1.84-4.12a72.72 72.72 0 0 0-11.69-9.27 33.71 33.71 0 0 1-.53-7.88l.88 1a5.1 5.1 0 0 0 3.38 2.2l8 .64a7.36 7.36 0 0 0 .93.06 5.47 5.47 0 0 0 5.25-3.33 1.94 1.94 0 0 0-.09-1.66zm-38.4 38.55a2.9 2.9 0 0 1-3.93.23 3.11 3.11 0 0 1-.34-4.64 130.14 130.14 0 0 0 14.92-19.05A13 13 0 0 0 50.19 62c1 .54 1.86 1.07 2.73 1.6-3.79 6.26-10.61 14.4-15.8 19.81zm31.22-19.25c.68.69 1.57 1.73 1.4 2.83l-2.52 17.29a2.74 2.74 0 0 1-5.43-.79l2-13.6a.71.71 0 0 0 0-.11.61.61 0 0 0-.05-.28l-.05-.11a.73.73 0 0 0-.1-.13l-.05-.07c-1.4-1.16-2.83-2.25-4.39-3.34-2.42-1.68-5.15-3.36-8.15-5.1a10.3 10.3 0 0 1-4.76-7.95c-.16-2-.22-4.08-.26-6.82l3.49-5.37a.75.75 0 1 0-1.26-.82l-11 17a.82.82 0 0 1-.62.38.7.7 0 0 1-.59-.22 3.94 3.94 0 0 1-.37-4.57l9.15-17c.86-1.72 2.4-3.59 4.15-3.66l3-.09a4.34 4.34 0 0 1 3.25 1.34 4.47 4.47 0 0 1 1.23 3.37c-.09 1.39-.2 2.74-.32 4.07s-.2 2.4-.28 3.59a40.63 40.63 0 0 0 .19 8.79l-.8-.47a.75.75 0 0 0-.75 1.3 69.49 69.49 0 0 1 13.89 10.54zM74.23 46a4.18 4.18 0 0 1-4.64 2.37l-8-.64a3.64 3.64 0 0 1-2.38-1.61l-2-2.34c.07-1.08.17-2.18.26-3.28q.09-1 .17-2.09l3.64 4.85a2.54 2.54 0 0 0 1.69 1l10.84 1.07a.46.46 0 0 1 .34.63z"/></svg>