<svg data-name="Layer 1" xmlns="http://www.w3.org/2000/svg" viewBox="0 0 91.95 70.48"><title>Icon_RH_People_YogaGuru_RGB_Black</title><path d="M36.24 18.44a9.22 9.22 0 1 0-9.26-9.2 9.23 9.23 0 0 0 9.26 9.2zm0-16.44a7.22 7.22 0 1 1-7.26 7.24A7.23 7.23 0 0 1 36.24 2zm55.64 48.93a1 1 0 0 0-.92-.62H65.98a6.47 6.47 0 0 0-4.63-1.92l-15.37 1.32v-5.47l1.66-.21.91-.11c.68-.08 1.38-.16 2.08-.29h.16a4.75 4.75 0 0 0 2.79-1.21 4.33 4.33 0 0 0 1-2.59c.09-.59.16-1.19.23-1.79l.31-2.58c.09-.72.18-1.44.27-2.19l.06-.45a3.79 3.79 0 0 0-7.47-.75l-.3 2.17-1.7-.52v-3.28a9.33 9.33 0 0 0-18.65 0v19.8h-8.1a1 1 0 0 0-.71.29L.3 68.78a1 1 0 0 0 .68 1.7h71.81a1 1 0 0 0 .71-.29l18.16-18.17a1 1 0 0 0 .22-1.09zM29.37 30.44a7.33 7.33 0 0 1 14.61 0v5.16l-2 .26a1.002 1.002 0 0 0 .13 2h.13l6.29-.8h.05a1 1 0 0 0 .86-.84l.54-3.92a1.79 1.79 0 0 1 3.56.3l-.06.45q-.14 1.09-.27 2.18l-.31 2.59c-.07.57-.13 1.15-.22 1.72v.1a2.42 2.42 0 0 1-.47 1.41 3.12 3.12 0 0 1-1.7.63h-.17c-.63.12-1.27.19-1.95.27l-.94.11-1.94.25-2.36.31-3.37.45a2.39 2.39 0 0 1-2.74-2l-1.58-9.35a1.014 1.014 0 0 0-2 .33l1.58 9.35a4.4 4.4 0 0 0 4.31 3.66 4.26 4.26 0 0 0 .7-.06l3.34-.44.59-.02v6.26a1 1 0 0 0 .32.74 1 1 0 0 0 .76.26l16.34-1.41a4.39 4.39 0 1 1-.06 8.77l-23.69 1.4h-1a7.33 7.33 0 0 1-7.28-7.32zm30.31 30.8a2 2 0 0 1-1 .69 3.6 3.6 0 0 1-2.43-.48zm12.69 7.22h-69l16.28-16.22H27.38v1a9.34 9.34 0 0 0 9.33 9.33h.72a2.62 2.62 0 0 0 .41 0l15.53-.93a1 1 0 0 0 .3.52 7.84 7.84 0 0 0 4.48 1.86 4.07 4.07 0 0 0 1.06-.14 4.45 4.45 0 0 0 2.89-2.76 6.39 6.39 0 0 0 5.76-6.35 6.33 6.33 0 0 0-.5-2.46h21.2z"/></svg>