<svg id="ICON" xmlns="http://www.w3.org/2000/svg" viewBox="0 0 108 108"><defs><style>.cls-1{fill:#fff;}</style></defs><title>Icon_RH_people_userprofile_RGB_White</title><path class="cls-1" d="M78.13 24.34a38.23 38.23 0 1 0-48.25 59.33l.45.35q1.23 1 2.5 1.82a38.33 38.33 0 0 0 42.35 0c.85-.57 1.68-1.18 2.5-1.82a38.22 38.22 0 0 0 .45-59.67zM74.62 83.6c-.95.66-1.92 1.27-2.91 1.83q-1 .57-2.07 1.08l-1-13.24a.76.76 0 1 0-1.51 0l.81 14A36.32 36.32 0 0 1 51.66 90l-1.07-.08a35.77 35.77 0 0 1-10.66-2.69l.82-13.95a.76.76 0 1 0-1.51 0l-1 13.2c-.67-.32-1.33-.67-2-1-1-.56-2-1.16-2.94-1.83q-1.09-.76-2.13-1.6l.56-7C32.4 67 34 57.72 48.26 57.72h11.49C74 57.72 75.52 67.51 76.26 75l.55 7q-1.08.82-2.19 1.6zm13.27-17.23a35.87 35.87 0 0 1-9.46 14.18L78 74.79C77.33 68.22 76.12 56 59.75 56H48.26C31.57 56 30.57 68.24 30 74.82l-.46 5.74a36.16 36.16 0 0 1-8.76-40.71l.43-1a36.08 36.08 0 0 1 67 26.48zM54 29.69a12 12 0 1 0 12 12 12 12 0 0 0-12-12zm0 22.25a10.26 10.26 0 1 1 10.27-10.25A10.28 10.28 0 0 1 54 51.95z"/></svg>