<svg data-name="Layer 2" xmlns="http://www.w3.org/2000/svg" viewBox="0 0 45.82 65.45"><title>Icon_RH_People_Hacker_RGB_Black</title><path d="M22.8 49.87a3 3 0 1 0 2.95 3 3 3 0 0 0-2.95-3zm0 4.9a2 2 0 1 1 1.95-2 2 2 0 0 1-1.95 2zm-8.78-37.24h.07l.8-.11a10.75 10.75 0 0 0 18.76-3.3 2.21 2.21 0 0 0 .73-.36 1.94 1.94 0 0 0 .42-.93 6.25 6.25 0 0 0 2.9.66 13 13 0 0 0 4.51-.94.5.5 0 0 0 .24-.75 6 6 0 0 0-2.56-2.27 6.71 6.71 0 0 0 .89-3.92.5.5 0 0 0-.71-.4 45.82 45.82 0 0 0-5.82 3.25 1.7 1.7 0 0 0-.47-.47 10.77 10.77 0 0 0-20.76-.28h-.8a.5.5 0 0 0-.48.42c0 .23-.92 5.63 1.85 9.18a.5.5 0 0 0 .43.22zm27.2-5.7c-2.68.9-4.8.87-6.29-.06v-.38a8.78 8.78 0 0 0 1 .08 4.71 4.71 0 0 0 3.28-1.13 4.19 4.19 0 0 1 2 1.48zm-1.45-5.37a4.64 4.64 0 0 1-1.21 3.1 4.3 4.3 0 0 1-3.69.83 6.18 6.18 0 0 0-.19-1 38.18 38.18 0 0 1 5.09-2.93zm-16.4 13.58a9.2 9.2 0 0 1-6.68-2.88c4.33-.62 11.33-1.7 15.09-2.54a9.24 9.24 0 0 1-8.41 5.42zm0-18.48a9.25 9.25 0 0 1 8.65 6.12c-3.72-.29-12.35-.14-17.38 0a9.25 9.25 0 0 1 8.73-6.12zM12.7 8.72c7.58-.21 19.52-.37 20.54.1a2.28 2.28 0 0 1 .61 1.47 5.57 5.57 0 0 1-.18 2.74c-.83.63-10.57 2.24-19.43 3.45-1.91-2.66-1.68-6.51-1.54-7.76zm5 1.94l1.75 1.08a.5.5 0 0 0 .53-.85l-1.75-1.08a.5.5 0 0 0-.53.85zm27.98 47.47a1.65 1.65 0 0 0-1.52-1h-.9a10.43 10.43 0 0 0 2.3-6.82l-.76-9.65c-.58-5.91-1.67-16.92-16.41-16.92H18.02c-15 0-15.93 11-16.41 17L.85 50.3v.06a10.53 10.53 0 0 0 2.3 6.82h-1.5a1.66 1.66 0 0 0-1.23 2.78l4 4.38a2.44 2.44 0 0 0 2.06 1.12h33a2.44 2.44 0 0 0 2.22-1.43l3.71-4.09a1.65 1.65 0 0 0 .27-1.81zM28.02 25.3a4.56 4.56 0 0 1-9.08 0zm-10.1 0a5.58 5.58 0 0 0 11.12 0c.59 0 1.15 0 1.69.1 0 2.4.16 9 2.45 11.37a2.83 2.83 0 0 0 1.79.9l.17 2.51H11.82l.14-2.52a2.85 2.85 0 0 0 1.71-.89c2.31-2.4 2.47-9 2.45-11.41.59-.03 1.2-.06 1.84-.06zM4.02 61.66l-2.48-2.74a.17.17 0 0 1 .12-.28h2.36zm0-19v13a8.93 8.93 0 0 1-1.61-5.36l.76-9.5c.55-6.53 1.85-14.13 11.96-15.34 0 2.34-.17 8.54-2.17 10.62a1.94 1.94 0 0 1-.93.57v-.72a.78.78 0 1 0-1.56 0l-.31 4.26H6.47a2.44 2.44 0 0 0-2.45 2.44zm35.12 21.3H6.79a1.21 1.21 0 0 1-1.21-1.21V42.92a1.21 1.21 0 0 1 1.21-1.21h32.36a1.22 1.22 0 0 1 1.12.74 1.2 1.2 0 0 1 .1.47v19.81a1.21 1.21 0 0 1-1.21 1.21zm.3-23.75h-2.62l-.36-4.26a.78.78 0 1 0-1.56 0v.74a1.92 1.92 0 0 1-1-.59c-2-2.06-2.17-8.17-2.17-10.55 9.7 1.44 10.88 9.22 11.48 15.29l.74 9.5a8.91 8.91 0 0 1-2.11 6V42.63a2.45 2.45 0 0 0-2.38-2.44zm4.82 18.73l-2.38 2.62v-2.9h2.26a.17.17 0 0 1 .12.28zM24.51 11.46a.5.5 0 0 0 .26-.07l1.75-1.08a.5.5 0 0 0-.5-.85l-1.77 1.1a.5.5 0 0 0 .26.93zm1 .67a.83.83 0 1 0 .83.83.83.83 0 0 0-.83-.81zm-6.33.25a.83.83 0 1 0 .83.83.83.83 0 0 0-.83-.81z"/></svg>