<?xml version="1.0" encoding="utf-8"?>
<!-- Generator: Adobe Illustrator 18.0.0, SVG Export Plug-In . SVG Version: 6.00 Build 0)  -->
<!DOCTYPE svg PUBLIC "-//W3C//DTD SVG 1.1 Tiny//EN" "http://www.w3.org/Graphics/SVG/1.1/DTD/svg11-tiny.dtd">
<svg version="1.1" baseProfile="tiny" id="Layer_1" xmlns="http://www.w3.org/2000/svg" xmlns:xlink="http://www.w3.org/1999/xlink"
	 x="0px" y="0px" width="144px" height="144px" viewBox="0 0 144 144" xml:space="preserve">
<g>
	<g>
		<path fill="#FFFFFF" d="M71.998,116.056c-12.158,0-16.992-2.56-18.791-4.085l-0.752-0.646l0.3-4.928l-1.156-0.849
			c-4.559-3.348-8.651-6.937-8.651-13.987v-0.08L43.94,79.05c0.63-7.705,1.803-22.038,21.338-22.038h13.453
			c19.161,0,20.573,14.312,21.331,22.001l0.989,12.549c0,7.062-3.962,10.544-8.748,14.056l-1.172,0.86l0.291,5.018l-0.837,0.652
			C88.712,113.607,83.808,116.056,71.998,116.056z M71.998,54.295c-7.741,0-14.038-6.296-14.038-14.035
			c0-7.741,6.298-14.038,14.038-14.038c7.741,0,14.039,6.297,14.039,14.038C86.037,47.999,79.739,54.295,71.998,54.295z
			 M59.982,40.26c0,6.621,5.392,12.013,12.017,12.013c6.627,0,12.017-5.392,12.017-12.013c0-6.625-5.389-12.017-12.017-12.017
			C65.373,28.243,59.982,33.629,59.982,40.26z M99.017,91.562L98.05,79.211c-0.861-8.724-2.651-20.177-19.319-20.177H65.277
			c-16.674,0-18.564,10.905-19.322,20.177l-0.985,12.351c0,5.947,3.162,8.932,7.826,12.357l1.926-26.69
			c0-0.495,0.396-0.888,0.882-0.888c0.486,0,0.889,0.393,0.889,0.888l-1.935,32.952c0,0.093-0.018,0.168-0.043,0.248
			c1.286,1.09,5.556,3.605,17.483,3.605c11.508,0,15.882-2.341,17.343-3.481l-1.932-33.324c0-0.495,0.396-0.888,0.88-0.888
			c0.489,0,0.892,0.393,0.892,0.888l1.926,26.758c4.701-3.45,7.922-6.442,7.922-12.425H99.017L99.017,91.562z"/>
	</g>
</g>
</svg>
