<svg xmlns="http://www.w3.org/2000/svg" viewBox="0 0 108 108"><title>Icon_RH_people_handsonhips_RGB_Black</title><path d="M71.66 37.33l-5.46-6.91c-2.74-3-5.07-3.16-8.59-3.16H50.4c-3.52 0-5.86.21-8.63 3.21l-5.43 6.87a4.69 4.69 0 0 0-.34 5.34l5.22 7.48-1.58 2.56a2 2 0 0 0 1.74 3 8.43 8.43 0 0 0 2.94-.65L42 89.11a4.94 4.94 0 0 0 4.59 5.25H47a4.93 4.93 0 0 0 4.91-4.6l2-30.06h.22l2 30.06A4.93 4.93 0 0 0 61 94.38h.34A4.94 4.94 0 0 0 66 89.11l-2.3-34.06a8.44 8.44 0 0 0 2.94.65h.08a2 2 0 0 0 1.67-3l-1.58-2.56L72 42.63a4.67 4.67 0 0 0-.34-5.3zm-.9 4.49l-5.5 7.88a.75.75 0 0 0 0 .82l1.84 3a.46.46 0 0 1 0 .48.45.45 0 0 1-.39.23 6.92 6.92 0 0 1-3.11-.88l-.42-6.2 2.73-5.95a.75.75 0 0 0-.11-.8l-3.5-4.06a.75.75 0 0 0-1.32.54L61.63 47a.69.69 0 0 0 0 .09l.44 6.45a.73.73 0 0 0 0 .52l2.38 35.15a3.43 3.43 0 1 1-6.85.46l-2.04-30.76a.75.75 0 0 0-.75-.7h-1.62a.75.75 0 0 0-.75.7l-2.07 30.76A3.41 3.41 0 0 1 49.2 92a3.43 3.43 0 0 1-5.68-2.81l2.38-35.13a.73.73 0 0 0 0-.52l.44-6.45a.69.69 0 0 0 0-.09l.69-10.14a.75.75 0 0 0-1.32-.54l-3.5 4.06a.75.75 0 0 0-.11.8l2.73 5.95-.42 6.2a6.92 6.92 0 0 1-3.11.88.49.49 0 0 1-.41-.23.46.46 0 0 1 0-.48l1.84-3a.75.75 0 0 0 0-.82l-5.47-7.83a3.22 3.22 0 0 1 .25-3.6l5.39-6.82c2.38-2.56 4.3-2.68 7.5-2.68h7.2c3.2 0 5.12.12 7.46 2.64l5.43 6.87a3.21 3.21 0 0 1 .27 3.56zM62.93 44l-.34-5 1.72 2zm-17.86 0l-1.37-3 1.72-2zM54 26.36a6.78 6.78 0 1 0-6.78-6.78A6.79 6.79 0 0 0 54 26.36zm0-12.07a5.28 5.28 0 1 1-5.28 5.28A5.29 5.29 0 0 1 54 14.29z"/></svg>