<?xml version="1.0" encoding="utf-8"?>
<!-- Generator: Adobe Illustrator 18.0.0, SVG Export Plug-In . SVG Version: 6.00 Build 0)  -->
<!DOCTYPE svg PUBLIC "-//W3C//DTD SVG 1.1//EN" "http://www.w3.org/Graphics/SVG/1.1/DTD/svg11.dtd">
<svg version="1.1" id="Layer_1" xmlns="http://www.w3.org/2000/svg" xmlns:xlink="http://www.w3.org/1999/xlink" x="0px" y="0px"
	 width="144px" height="144px" viewBox="0 0 144 144" enable-background="new 0 0 144 144" xml:space="preserve">
<g>
	<path fill="#FFFFFF" d="M83.629,82.775l-8.92,5.989c-0.145,0.096-0.182,0.289-0.086,0.43c0.062,0.089,0.158,0.136,0.26,0.136
		c0.059,0,0.117-0.017,0.172-0.051l8.922-5.991c0.141-0.098,0.178-0.289,0.082-0.432C83.965,82.715,83.771,82.679,83.629,82.775z
		 M79.123,88.117l-7.066,4.774c-0.143,0.096-0.179,0.288-0.083,0.429c0.059,0.089,0.156,0.137,0.258,0.137
		c0.061,0,0.119-0.016,0.172-0.052l7.069-4.773c0.141-0.098,0.176-0.292,0.082-0.433C79.459,88.059,79.264,88.021,79.123,88.117z
		 M72.212,52c6.999,0,12.694-5.693,12.694-12.69c0-6.999-5.694-12.693-12.694-12.693c-6.999,0-12.693,5.694-12.693,12.693
		C59.519,46.307,65.213,52,72.212,52z M72.212,28.445c5.992,0,10.865,4.875,10.865,10.865c0,5.987-4.873,10.862-10.865,10.862
		c-5.99,0-10.865-4.875-10.865-10.862C61.347,33.314,66.222,28.445,72.212,28.445z M55.291,102.735h33.881
		c0.172,0,0.311-0.139,0.311-0.309c0-0.174-0.139-0.311-0.311-0.311H55.291c-0.174,0-0.312,0.137-0.312,0.311
		C54.979,102.597,55.117,102.735,55.291,102.735z M52.053,106.61c0,0.172,0.14,0.309,0.312,0.309H91.32
		c0.172,0,0.309-0.137,0.309-0.309c0-0.173-0.137-0.312-0.309-0.312H52.365C52.193,106.298,52.053,106.438,52.053,106.61z
		 M87.471,77.431H73.164c0.006-0.043,0.012-0.085,0.012-0.129c0-0.538-0.436-0.976-0.975-0.976l0,0l-0.001,0
		c-0.401,0-0.748,0.246-0.896,0.596c-0.049,0.117-0.077,0.245-0.077,0.38c0,0.044,0.009,0.086,0.013,0.129H56.932
		c-0.852,0-1.548,0.741-1.548,1.652V96.79c0,0.915,0.695,1.656,1.548,1.656h30.539c0.854,0,1.545-0.741,1.545-1.656V79.083
		C89.016,78.172,88.324,77.431,87.471,77.431z M88.088,96.79c0,0.398-0.277,0.726-0.617,0.726H56.932
		c-0.34,0-0.616-0.327-0.616-0.726V79.083c0-0.099,0.017-0.194,0.049-0.28c0.012-0.033,0.035-0.057,0.05-0.088
		c0.026-0.049,0.047-0.102,0.082-0.143c0.014-0.017,0.034-0.024,0.049-0.039c0.046-0.045,0.092-0.09,0.147-0.117
		c0.074-0.037,0.155-0.058,0.24-0.058h30.539c0.34,0,0.617,0.33,0.617,0.726V96.79z M92.004,102.086
		c-0.062-0.676-0.391-1.27-0.877-1.69c0.541-0.47,0.887-1.153,0.887-1.922v-1.156c3.653-2.846,6.467-5.962,6.467-11.622
		l-0.012-1.828h-0.138l-0.745-9.519c-0.686-6.952-1.963-19.893-19.287-19.893H66.135c-17.663,0-18.723,12.96-19.293,19.927
		l-0.896,11.24v0.073c0,5.652,2.911,8.844,6.444,11.605v1.173c0,0.769,0.348,1.452,0.886,1.922
		c-0.485,0.416-0.812,1.009-0.874,1.678l-5.311,6.133c-0.1,0.115-0.153,0.265-0.153,0.414c0,1.695,0.647,2.556,1.927,2.556h46.27
		c1.279,0,1.926-0.86,1.926-2.556c0-0.143-0.045-0.279-0.137-0.393L92.004,102.086z M52.39,76.97v17.963
		c-2.823-2.419-4.616-4.994-4.616-9.237l0.89-11.168c0.686-8.384,2.394-18.244,17.471-18.244h12.164
		c15.071,0,16.69,10.356,17.468,18.244l0.874,11.168h0.012c0,4.249-1.81,6.827-4.639,9.25V76.97c0-1.41-1.146-2.557-2.557-2.557
		h-1.596l-0.259-3.58c0-0.448-0.365-0.803-0.807-0.803c-0.437,0-0.795,0.355-0.795,0.803l0.212,3.58H58.116l0.218-3.663
		c0-0.448-0.364-0.803-0.804-0.803c-0.439,0-0.798,0.355-0.798,0.803l-0.264,3.663h-1.525C53.533,74.413,52.39,75.56,52.39,76.97z
		 M90.4,77.265v21.103c0,0.699-0.57,1.268-1.27,1.268H55.263c-0.698,0-1.271-0.568-1.271-1.268V77.265
		c0-0.699,0.572-1.267,1.271-1.267h33.868C89.83,75.998,90.4,76.565,90.4,77.265z M94.701,109.592H49.296
		c-0.27,0-0.604,0-0.644-1.042l5.193-6c0.095-0.113,0.147-0.256,0.147-0.403c0-0.703,0.572-1.272,1.271-1.272h33.868
		c0.699,0,1.27,0.569,1.27,1.272c0,0.138,0.049,0.276,0.135,0.386l4.814,6.004C95.309,109.592,94.975,109.592,94.701,109.592z
		 M54.182,104.827h35.941c0.168,0,0.307-0.139,0.307-0.311c0-0.17-0.139-0.309-0.307-0.309H54.182c-0.173,0-0.311,0.139-0.311,0.309
		C53.871,104.688,54.009,104.827,54.182,104.827z"/>
</g>
</svg>
