<svg data-name="Layer 1" xmlns="http://www.w3.org/2000/svg" viewBox="0 0 58.1 89.83"><title>Icon_RH_People_NobelPrizeWinner_RGB_Black</title><path d="M27.71 13.32a4.4 4.4 0 0 0-.06-.55 1.41 1.41 0 0 1 1.27-.68h.24a1.39 1.39 0 0 1 1.28.71 4.4 4.4 0 0 0-.05.52 4.54 4.54 0 1 0 .52-2 2.94 2.94 0 0 0-1.74-.57h-.24a2.94 2.94 0 0 0-1.73.56 4.44 4.44 0 1 0 .52 2.06zm7.15-2.81a2.81 2.81 0 1 1-2.81 2.81 2.81 2.81 0 0 1 2.81-2.82zm-14.43 2.81a2.81 2.81 0 1 1 2.81 2.81 2.81 2.81 0 0 1-2.81-2.81zm6 41.06a.5.5 0 0 0-1 0 3.39 3.39 0 0 0 3.39 3.39.5.5 0 0 0 0-1 2.39 2.39 0 0 1-2.36-2.39zm2.62-26.3a14 14 0 1 0-14-14 14.05 14.05 0 0 0 14 14zm0-26.06a12 12 0 1 1-12 12 12 12 0 0 1 12-12zm28.06 50.77c-.76-7.69-2.17-22-21.33-22H22.33c-19.54 0-20.71 14.33-21.34 22l-1 12.43v.08c0 7 4.09 10.64 8.65 14l1.16.85-.3 4.93.75.65c1.8 1.55 6.64 4.11 18.8 4.11 11.81 0 16.71-2.45 18.59-3.91l.84-.65-.29-5 1.17-.86c4.79-3.51 8.75-7 8.75-14.06zm-20.94-20c.71 0 1.39 0 2 .09l-8 16.42a4 4 0 0 0-2-.15zm-3 21.61a4.31 4.31 0 1 1-4.32-4.28 4.31 4.31 0 0 1 4.3 4.31zm1.88-21.59l-6 12.39-6-12.39zm-13.07 0l6.54 13.53-1.06 2.19-7.58-15.61c.68-.06 1.38-.09 2.11-.1zM9.85 77.7c-4.67-3.43-7.8-6.41-7.8-12.36l.55-7h8.67zm36.54 6.63c-1.46 1.14-5.83 3.49-17.34 3.49-11.93 0-16.2-2.51-17.48-3.61a.79.79 0 0 0 0-.25l1.94-33a.89.89 0 1 0-1.77 0l-.39 5.44H2.73l.32-3.41c.7-8.57 2.38-18.54 15.81-20l8 16.52a5.33 5.33 0 1 0 4.34.16l8.1-16.68c13.43 1.52 15 11.91 15.82 20l.27 3.45h-8.77L46.23 51a.89.89 0 1 0-1.77 0zm1.77-6.57l-1.4-19.38h8.76l.54 7c-.01 5.95-3.2 8.94-7.9 12.39z"/></svg>