<svg data-name="Layer 1" xmlns="http://www.w3.org/2000/svg" viewBox="0 0 74.83 53.26"><title>Icon_RH_People_Handshake_RGB_Black</title><path d="M74.42 21L69.31 7.82a5.78 5.78 0 0 0-7.49-3.29L56.9 6.45c-1.89-1.08-3.88-2.16-5.92-3.21l-1.13-.61a21.85 21.85 0 0 0-6.1-2.48 17.55 17.55 0 0 0-6.64.5l-1.48.29c-.4.07-.81.13-1.21.19-1.84.26-4 .58-5.18 2.51a56.16 56.16 0 0 1-11.1 2.88l-5.12-2a5.78 5.78 0 0 0-7.48 3.29L.42 21a5.79 5.79 0 0 0 3.29 7.48l5.18 2c.48.46 2 1.92 3.91 3.65l-1 1.71a4.21 4.21 0 0 0 3.62 6.34 4.25 4.25 0 0 0 1.1-.15 4.18 4.18 0 0 0 2.56-2l.17-.29c.49.4 1 .75 1.37 1.05l-1.36 2.36a4.21 4.21 0 0 0 3.64 6.31 4.23 4.23 0 0 0 2.61-.83 4.16 4.16 0 0 0 4 2.84 4.23 4.23 0 0 0 2.73-1 4.15 4.15 0 0 0 3.92 2.77 4.25 4.25 0 0 0 1.1-.15 4.18 4.18 0 0 0 2.56-2l.05-.09 1.26 1.15a4.21 4.21 0 0 0 5.94-.28l.25-.27a4.17 4.17 0 0 0 1.07-2.59 4.81 4.81 0 0 0 5.14-1.33l.3-.33a4.83 4.83 0 0 0 1.25-3.19 4.83 4.83 0 0 0 5.56-1.17l.3-.33a4.84 4.84 0 0 0 .7-5.53 5 5 0 0 0 3.11-1.5l.3-.33a5.3 5.3 0 0 0 1-4.82l5.08-2A5.78 5.78 0 0 0 74.42 21zM17.35 39.08a2.21 2.21 0 0 1-3.82-2.21l.77-1.34c1.12 1 2.29 2 3.39 3zm7.47 7.33a2.21 2.21 0 0 1-3 .81 2.22 2.22 0 0 1-.81-3l2.75-4.77a2.21 2.21 0 1 1 3.81 2.18zm6.6 1.93a2.21 2.21 0 1 1-3.82-2.21l2.75-4.77a2.19 2.19 0 0 1 1.34-1 2.27 2.27 0 0 1 .58-.08 2.21 2.21 0 0 1 1.9 3.31zm8.31-1.11l-1.66 2.88a2.21 2.21 0 0 1-3.82-2.21l1.66-2.88a2.19 2.19 0 0 1 1.34-1 2.27 2.27 0 0 1 .58-.08 2.21 2.21 0 0 1 1.9 3.31zm23.84-13.29l-.3.33a3.07 3.07 0 0 1-4.21.2L52 28.12a1.01 1.01 0 0 0-1.34 1.51l8.54 7.69a2.88 2.88 0 0 1 .22 4.03l-.3.33a2.88 2.88 0 0 1-4.06.19l-2.64-2.41a1 1 0 0 0-.22-.13l-4.25-3.86a1.002 1.002 0 1 0-1.35 1.48l5.52 5a2.88 2.88 0 0 1 .19 4.06l-.3.33a2.85 2.85 0 0 1-2 .93 2.89 2.89 0 0 1-2.07-.74l-.91-.83-4.61-4.19a1.002 1.002 0 1 0-1.35 1.48l2.87 2.64 1.73 1.57a2.21 2.21 0 0 1 .11 3.07l-.25.27a2.21 2.21 0 0 1-3.12.15l-1.59-1.44.59-1a4.2 4.2 0 0 0-4.73-6.17c-.1 0-.18.07-.28.1a4.27 4.27 0 0 0-.13-.79 4.2 4.2 0 0 0-6.67-2.21 4.19 4.19 0 0 0-7.6-.74l-.38.66C17.87 36.33 10.19 29 10.11 28.92a1 1 0 0 0-.33-.21l-5.36-2.08a3.79 3.79 0 0 1-2.15-4.9L7.42 8.54a3.78 3.78 0 0 1 4.9-2.15l5.37 2.09a1 1 0 0 0 .5.06A61 61 0 0 0 28.42 6.1a9 9 0 0 1-2.08 3.38 12.16 12.16 0 0 1-1 .88c-1.11.89-2.37 1.89-2.61 3.58a3.13 3.13 0 0 0 .89 2.74c1.51 1.53 4.55 1.79 6.1 1.58 2.86-.37 5.47-2.25 7.34-5.3a2 2 0 0 1 1.57-1c4.09-.52 12.71 6.77 15.72 9.67l9.07 7.67c.92 1.33 1.21 3.47.15 4.64zm8.94-9.31a3.76 3.76 0 0 1-2.09 2L65.6 28.5l-9.92-8.36c-1.12-1.08-10.77-10.2-16.72-10.2a5.24 5.24 0 0 0-.66 0 4 4 0 0 0-3 1.94c-.9 1.46-2.86 4-5.89 4.36-1.24.16-3.53-.1-4.42-1a1.14 1.14 0 0 1-.33-1c.13-.9 1-1.58 1.88-2.3a13.75 13.75 0 0 0 1.2-1 11 11 0 0 0 2.87-5.31c.41-1.87 1.69-2.14 4.09-2.48.42-.06.85-.12 1.28-.2l1.53-.3a15.91 15.91 0 0 1 5.91-.53 20.36 20.36 0 0 1 5.54 2.28l1.15.61c2.17 1.11 4.27 2.26 6.26 3.4a1 1 0 0 0 .86.07l5.37-2.09a3.78 3.78 0 0 1 4.82 2.15l5.16 13.19a3.75 3.75 0 0 1-.07 2.9z"/></svg>