<svg id="ICON" xmlns="http://www.w3.org/2000/svg" viewBox="0 0 108 108"><defs><style>.cls-1{fill:#fff;}</style></defs><title>Icon_RH_people_leaping_RGB_White</title><path class="cls-1" d="M23.11 32.48c3.18.94 13.63 4 14.39 4A.49.49 0 0 0 38 36a.51.51 0 0 0-.47-.52c-.68-.05-9-2.47-14.12-4a.5.5 0 1 0-.28 1zm9.13 7.79a.51.51 0 0 0-.47-.52c-.68-.05-9-2.47-14.12-4a.5.5 0 1 0-.28 1c3.18.94 13.63 4 14.39 4a.49.49 0 0 0 .48-.48zM45.5 55.5a.5.5 0 0 0 .14-1l-16.75-4.73a.49.49 0 0 0-.62.34.5.5 0 0 0 .34.62l16.75 4.75zm18.3 3.38c.64-4.62 2.38-8.54 4.22-12.69.54-1.22 1.1-2.47 1.64-3.77a6 6 0 0 0-.08-4.79 5.78 5.78 0 0 0-2.21-2.49l-.24-.14a6 6 0 0 0-1.13-.5l-18.1-5.67A5.6 5.6 0 0 0 41.27 31a2 2 0 0 0 1 2.9l10.06 3.58-9.8 2.52a5.47 5.47 0 0 0-4.22 4.69 2.19 2.19 0 0 0 .69 1.87 2.32 2.32 0 0 0 2 .55l13.71-2.72c-.77 2.29-2.18 6.55-2.9 9.33a10.74 10.74 0 0 0-.34 4.19L52.11 72l-6.51-.7a4.4 4.4 0 0 0-1 8.74l10.26 1.18a5.77 5.77 0 0 0 .66 0 5.68 5.68 0 0 0 5.65-6.15v-1.89a68.17 68.17 0 0 1 7.65 14.94 4.69 4.69 0 0 0 6.75 2.43h.08a4.79 4.79 0 0 0 2.1-5.91C73.5 73.75 69 65.48 63.8 58.88zm-21-26.37a.46.46 0 0 1-.23-.67 4.16 4.16 0 0 1 4.93-1.57l14.86 4.65c-.35.08-.71.17-1.09.28l-6.37 1.63h-.06zm15.63 46.06A4.17 4.17 0 0 1 55 79.73l-10.23-1.18a2.9 2.9 0 0 1 .66-5.76l7.38.83a.76.76 0 0 0 .6-.2.75.75 0 0 0 .24-.58L53.22 63a13.48 13.48 0 0 0 .8 1.19c2.11 2.39 3.94 4.66 5.58 6.89l.08 4.14a4.16 4.16 0 0 1-1.25 3.35zm16.44 10.68h-.08a3.2 3.2 0 0 1-4.59-1.66c-3.46-9.24-7.69-16.1-15-24.43a10.73 10.73 0 0 1-2.2-5.29v-.17-.06a9.36 9.36 0 0 1 .3-3.49c.82-3.17 2.51-8.2 3.16-10.1l5.25-1a.75.75 0 0 0-.29-1.47l-20.65 4.1a.81.81 0 0 1-.7-.19.69.69 0 0 1-.24-.58 3.94 3.94 0 0 1 3.11-3.37l18.71-4.85a8.18 8.18 0 0 1 4.85-.3 4.31 4.31 0 0 1 1.75 1.93 4.47 4.47 0 0 1 .06 3.59c-.54 1.29-1.09 2.52-1.63 3.73a51.66 51.66 0 0 0-4.11 11.76l-.6-.71a.75.75 0 0 0-1.13 1c5.93 6.81 10.86 15.57 15.51 27.56a3.3 3.3 0 0 1-1.48 4zm-1-66a6.78 6.78 0 1 0 6.78 6.78 6.79 6.79 0 0 0-6.81-6.74zm0 12.07a5.28 5.28 0 1 1 5.28-5.28 5.29 5.29 0 0 1-5.31 5.32z"/></svg>