<svg data-name="Layer 1" xmlns="http://www.w3.org/2000/svg" viewBox="0 0 52.93 90.62"><title>Icon_RH_People_PublicSpeaker_RGB_Black</title><path d="M14.54 84.81H38.4a.75.75 0 0 0 .75-.71l1.86-31a.75.75 0 0 0-.75-.79H12.69a.75.75 0 0 0-.75.79l1.86 31a.75.75 0 0 0 .74.71zM39.47 53.8l-1.78 29.51H15.25L13.47 53.8zM26.58 19.08a9.54 9.54 0 1 0-9.54-9.54 9.55 9.55 0 0 0 9.54 9.54zm0-17.08a7.54 7.54 0 1 1-7.54 7.54A7.55 7.55 0 0 1 26.58 2zm25.36 38.46h-6.68a60.15 60.15 0 0 0-.69-7 15 15 0 0 0-3.39-7.8 12.52 12.52 0 0 0-7.71-3.62 83.32 83.32 0 0 0-9.09-.23c-7.12-.22-11.72 1.75-14.07 6-1.48 2.67-1.79 5.72-2.08 8.42-.15 1.42-.25 2.83-.35 4.25H1a1 1 0 0 0-1 1v5.83a1 1 0 0 0 1 1h4.47L8.11 89.7a1 1 0 0 0 1 .94h34.73a1 1 0 0 0 1-.94l2.63-41.39h4.46a1 1 0 0 0 1-1v-5.85a1 1 0 0 0-.99-1zm-41.72-4c.27-2.63.56-5.35 1.83-7.65 2-3.57 5.88-5.15 12.32-5a84.28 84.28 0 0 1 8.85.22 10.52 10.52 0 0 1 6.47 3 13.07 13.07 0 0 1 2.91 6.79 56.93 56.93 0 0 1 .66 6.67h-4.79l-.35-5.21a1.002 1.002 0 0 0-2 .13l.35 5.05h-8c1.25-1.48 3.75-5.3.75-9.74a1.51 1.51 0 0 0-.18-2.13l-1.57-1.38a1.51 1.51 0 0 0-2.13.18l-.32.38a1.51 1.51 0 0 0 .18 2.13l1.62 1.41a1.49 1.49 0 0 0 1 .35h.13a1.51 1.51 0 0 0 .59-.18c3.15 4.86-1.11 8.77-1.29 8.93a.48.48 0 0 0-.07.09H16.57l.34-5.08a1 1 0 0 0-.94-1.11 1 1 0 0 0-1.06.93l-.35 5.21H9.89c.09-1.34.19-2.69.33-4.03zm18.41-6.73a.5.5 0 0 1-.12.37l-.32.38a.51.51 0 0 1-.35.18.49.49 0 0 1-.37-.15l-1.63-1.37a.51.51 0 0 1-.06-.72l.32-.38a.51.51 0 0 1 .72-.06l1.65 1.33a.5.5 0 0 1 .15.38zM42.9 88.62H10.04L7.47 48.31h38zm8-42.33H2v-3.83h48.94z"/></svg>