<svg id="Layer_2" data-name="Layer 2" xmlns="http://www.w3.org/2000/svg" viewBox="0 0 59.46 56.72"><defs><style>.cls-1{fill:#fff;}</style></defs><title>Icon_RH_People_AsleepAtDesk_RGB_White</title><path class="cls-1" d="M30.14 11.19h-2.77l.23-.25.28-.32.3-.34.29-.34 1.64-2V6.86H25.7v1.26h2.58l-.23.25-.28.32-.3.34-.28.34-1.64 2v1.09h4.59zm-8.95-3.73h-5l.22-.23.28-.31.29-.34.25-.3 3.87-4.67V0h-6.82v1.66h4.7l-.22.23-.28.31-.29.34-.25.3-3.96 4.62v1.61h7.18zm37.44 19.63h-6.76a3.63 3.63 0 0 0 .53-1.9c0-2.65-1.78-10.35-7.23-10.35h-1.33a6.46 6.46 0 0 0-10.58 0c-3.47.45-13 7.35-14.1 8.16a.73.73 0 0 0-.15.16 4.38 4.38 0 0 0-2.45 3.88H.82a.83.83 0 0 0-.83.83v3.48a.83.83 0 0 0 .83.83h4.16V55.9a.83.83 0 0 0 .83.83h52.82a.83.83 0 0 0 .83-.83v-28a.83.83 0 0 0-.83-.81zm-13.59-8.52a6.43 6.43 0 0 0-.41-2.24h.53c4.36 0 5.73 6.9 5.73 8.85a1.88 1.88 0 0 1-1.34 1.9h-17v-.49a2.26 2.26 0 0 1 2.26-2.26h12.11a.75.75 0 0 0 0-1.5h-3.49a6.45 6.45 0 0 0 1.61-4.26zm-6.47-4.82a4.82 4.82 0 0 1 4 2.09.73.73 0 0 0 .12.21 4.76 4.76 0 0 1-1.88 6.79h-4.46a4.81 4.81 0 0 1 2.21-9.08zm-6.18 2.89a6.44 6.44 0 0 0 1.45 6.34 3.76 3.76 0 0 0-2.79 3.62v.49h-5.7a4.39 4.39 0 0 0-3.37-4.22c3.5-2.41 8-5.32 10.41-6.23zm-11.41 7.59a2.9 2.9 0 0 1 2.89 2.86h-5.8a2.9 2.9 0 0 1 2.91-2.86zM57.8 55.07H6.59V32.22H57.8zm0-24.51H1.65v-1.82H57.8z"/></svg>