<?xml version="1.0" encoding="utf-8"?>
<!-- Generator: Adobe Illustrator 18.0.0, SVG Export Plug-In . SVG Version: 6.00 Build 0)  -->
<!DOCTYPE svg PUBLIC "-//W3C//DTD SVG 1.1//EN" "http://www.w3.org/Graphics/SVG/1.1/DTD/svg11.dtd">
<svg version="1.1" id="Layer_1" xmlns="http://www.w3.org/2000/svg" xmlns:xlink="http://www.w3.org/1999/xlink" x="0px" y="0px"
	 width="144px" height="144px" viewBox="0 0 144 144" enable-background="new 0 0 144 144" xml:space="preserve">
<g>
	<path fill="#010101" d="M72,116.2c-12.2,0-17-2.6-18.8-4.1l-0.8-0.6l0.3-4.9l-1.2-0.8c-4.6-3.3-8.7-6.9-8.7-14v-0.1l1-12.4
		c0.6-7.7,1.8-22,21.3-22h13.5c19.2,0,20.6,14.3,21.3,22l0.8,10.5h0.2l0,2c0,7.1-4,10.5-8.7,14.1l-1.2,0.9l0.3,5l-0.8,0.7
		C88.7,113.8,83.8,116.2,72,116.2z M72,54.5c-7.7,0-14-6.3-14-14c0-7.7,6.3-14,14-14c7.7,0,14,6.3,14,14C86,48.2,79.7,54.5,72,54.5z
		 M60,40.4c0,6.6,5.4,12,12,12c6.6,0,12-5.4,12-12c0-6.6-5.4-12-12-12C65.4,28.4,60,33.8,60,40.4z M99,91.7l-1-12.4
		c-0.9-8.7-2.7-20.2-19.3-20.2H65.3c-16.7,0-18.6,10.9-19.3,20.2l-1,12.4c0,5.9,3.2,8.9,7.8,12.4l1.9-26.7c0-0.5,0.4-0.9,0.9-0.9
		c0.5,0,0.9,0.4,0.9,0.9l-1.9,33c0,0.1,0,0.2,0,0.2c1.3,1.1,5.6,3.6,17.5,3.6c11.5,0,15.9-2.3,17.3-3.5l-1.9-33.3
		c0-0.5,0.4-0.9,0.9-0.9c0.5,0,0.9,0.4,0.9,0.9l1.9,26.8C95.8,100.7,99,97.7,99,91.7L99,91.7L99,91.7z"/>
	<g>
		<circle fill="#010101" cx="71.9" cy="71.8" r="1.4"/>
		<circle fill="#010101" cx="67.3" cy="70.5" r="1.4"/>
		<circle fill="#010101" cx="76.3" cy="70.5" r="1.4"/>
		<circle fill="#010101" cx="79" cy="67" r="1.4"/>
		<circle fill="#010101" cx="80.8" cy="63" r="1.4"/>
		<circle fill="#010101" cx="64.6" cy="67" r="1.4"/>
		<circle fill="#010101" cx="63.2" cy="63" r="1.4"/>
	</g>
</g>
</svg>
