<?xml version="1.0" encoding="utf-8"?>
<!-- Generator: Adobe Illustrator 18.0.0, SVG Export Plug-In . SVG Version: 6.00 Build 0)  -->
<!DOCTYPE svg PUBLIC "-//W3C//DTD SVG 1.1//EN" "http://www.w3.org/Graphics/SVG/1.1/DTD/svg11.dtd">
<svg version="1.1" id="Layer_1" xmlns="http://www.w3.org/2000/svg" xmlns:xlink="http://www.w3.org/1999/xlink" x="0px" y="0px"
	 width="144px" height="144px" viewBox="0 0 144 144" enable-background="new 0 0 144 144" xml:space="preserve">
<g>
	<g>
		<path d="M71.999,54.088c7.655,0,13.882-6.227,13.882-13.882c0-7.653-6.227-13.88-13.882-13.88c-7.653,0-13.88,6.226-13.88,13.88
			C58.119,47.86,64.346,54.088,71.999,54.088z M71.999,28.326c6.552,0,11.882,5.329,11.882,11.88c0,6.552-5.33,11.882-11.882,11.882
			c-6.551,0-11.88-5.33-11.88-11.882C60.119,33.655,65.449,28.326,71.999,28.326z"/>
	</g>
	<g>
		<path fill="#010101" d="M100.97,89.573h-0.152l-0.823-10.516c-0.758-7.68-2.168-21.976-21.307-21.976H65.25
			c-19.513,0-20.684,14.318-21.314,22.014l-0.99,12.417v0.08c0,7.042,4.088,10.627,8.642,13.971l1.154,0.848l-0.299,4.922
			l0.751,0.645c1.797,1.524,6.625,4.081,18.769,4.081c11.796,0,16.695-2.446,18.565-3.904l0.836-0.652l-0.291-5.013l1.171-0.859
			c4.781-3.508,8.739-6.985,8.739-14.04L100.97,89.573z M76.736,59.101c-1.519,3.633-4.292,6.557-5.475,7.682
			c-1.959-1.537-3.956-5.166-5.145-7.682H76.736z M91.05,104.004l-1.924-26.728c0-0.495-0.403-0.887-0.891-0.887
			c-0.483,0-0.879,0.392-0.879,0.887l1.93,33.287c-1.46,1.138-5.829,3.477-17.324,3.477c-11.913,0-16.179-2.512-17.463-3.601
			c0.025-0.08,0.043-0.154,0.043-0.248l1.933-32.915c0-0.495-0.402-0.887-0.888-0.887c-0.486,0-0.881,0.392-0.881,0.887
			l-1.924,26.66c-4.659-3.421-7.818-6.403-7.818-12.343l0.984-12.337c0.737-9.01,2.547-19.559,17.976-20.127
			c1.073,2.392,3.873,8.076,6.941,9.793c0.152,0.085,0.32,0.127,0.488,0.127c0.231,0,0.461-0.08,0.645-0.235
			c0.213-0.179,4.902-4.2,6.898-9.708c16.451,0.098,18.232,11.473,19.088,20.15l0.966,12.337h0.013
			C98.964,97.57,95.747,100.559,91.05,104.004z"/>
		<path fill="#010101" d="M71.963,54.368c7.732,0,14.023-6.289,14.023-14.019c0-7.732-6.291-14.023-14.023-14.023
			c-7.732,0-14.023,6.29-14.023,14.023C57.94,48.079,64.231,54.368,71.963,54.368z M71.963,28.346
			c6.62,0,12.003,5.386,12.003,12.003c0,6.614-5.383,12-12.003,12c-6.617,0-12.003-5.386-12.003-12
			C59.96,33.725,65.345,28.346,71.963,28.346z"/>
	</g>
</g>
</svg>
