<?xml version="1.0" encoding="utf-8"?>
<!-- Generator: Adobe Illustrator 18.0.0, SVG Export Plug-In . SVG Version: 6.00 Build 0)  -->
<!DOCTYPE svg PUBLIC "-//W3C//DTD SVG 1.1//EN" "http://www.w3.org/Graphics/SVG/1.1/DTD/svg11.dtd">
<svg version="1.1" id="Layer_1" xmlns="http://www.w3.org/2000/svg" xmlns:xlink="http://www.w3.org/1999/xlink" x="0px" y="0px"
	 width="144px" height="144px" viewBox="0 0 144 144" enable-background="new 0 0 144 144" xml:space="preserve">
<g>
	<path fill="#010101" d="M105.467,67.438h-7.704c0.061-0.43,0.101-0.88,0.101-1.366l-0.489-6.214
		c-0.377-3.816-1.162-11.756-11.521-11.756h-6.639c-10.562,0-11.213,7.965-11.526,11.795l-0.489,6.134l-0.003,0.12
		c0,0.456,0.039,0.88,0.097,1.288H35.51c-0.553,0-1,0.447-1,1v4.209c0,0.553,0.447,1,1,1h4.98v28.658c0,0.553,0.447,1,1,1h63.976
		c0.551,0,1-0.447,1-1V68.438C106.467,67.886,106.018,67.438,105.467,67.438z M69.682,60.059c0.304-3.724,0.813-9.957,9.532-9.957
		h6.639c8.548,0,9.163,6.23,9.529,9.935l0.484,6.114c0,0.464-0.041,0.89-0.116,1.288h-3.181l-0.562-8.426
		c-0.036-0.551-0.515-0.974-1.064-0.931c-0.551,0.037-0.968,0.513-0.932,1.064l0.553,8.293H74.451l0.553-8.293
		c0.037-0.551-0.38-1.028-0.931-1.065c-0.562-0.048-1.027,0.379-1.065,0.93l-0.568,8.428h-3.127c-0.075-0.388-0.12-0.8-0.12-1.248
		L69.682,60.059z M104.467,101.306H42.491V73.647h61.976V101.306z M104.467,71.647H36.51v-2.209h67.956V71.647z M82.549,46.288
		c4.322,0,7.836-3.516,7.836-7.838c0-4.32-3.514-7.834-7.836-7.834c-4.32,0-7.834,3.514-7.834,7.834
		C74.715,42.772,78.229,46.288,82.549,46.288z M82.549,32.616c3.219,0,5.836,2.617,5.836,5.834c0,3.219-2.617,5.838-5.836,5.838
		c-3.217,0-5.834-2.619-5.834-5.838C76.715,35.233,79.332,32.616,82.549,32.616z"/>
</g>
</svg>
