<?xml version="1.0" encoding="utf-8"?>
<!-- Generator: Adobe Illustrator 18.0.0, SVG Export Plug-In . SVG Version: 6.00 Build 0)  -->
<!DOCTYPE svg PUBLIC "-//W3C//DTD SVG 1.1//EN" "http://www.w3.org/Graphics/SVG/1.1/DTD/svg11.dtd">
<svg version="1.1" id="Layer_1" xmlns="http://www.w3.org/2000/svg" xmlns:xlink="http://www.w3.org/1999/xlink" x="0px" y="0px"
	 width="144px" height="144px" viewBox="0 0 144 144" enable-background="new 0 0 144 144" xml:space="preserve">
<g>
	<path fill="#FFFFFF" d="M90.594,42.522c2.96,0,5.367-2.407,5.367-5.365c0-2.959-2.407-5.366-5.367-5.366
		c-2.959,0-5.366,2.407-5.366,5.366C85.228,40.116,87.635,42.522,90.594,42.522z M90.594,33.291c2.133,0,3.867,1.734,3.867,3.866
		c0,2.131-1.734,3.865-3.867,3.865c-2.132,0-3.866-1.734-3.866-3.865C86.728,35.025,88.462,33.291,90.594,33.291z M101.354,55.982
		l-0.344-4.339c-0.264-2.681-0.812-8.258-8.097-8.258h-4.636c-7.425,0-7.882,5.595-8.101,8.285l-0.344,4.371
		c0,0.407,0.044,0.777,0.108,1.129L51.692,67.595c-1.086-1.711-3.039-3.085-6.653-3.085h-4.636c-7.425,0-7.882,5.595-8.102,8.285
		l-0.344,4.371c0,2.778,1.624,4.203,3.293,5.428l0.068,0.049l-0.083,1.284c-0.016,0.236,0.081,0.465,0.26,0.618l0.263,0.225
		c0.852,0.724,2.751,1.586,6.96,1.586c4.078,0,5.985-0.818,6.866-1.505l0.288-0.225c0.194-0.151,0.302-0.389,0.288-0.634
		l-0.042-0.726l18.108,12.861c-1.478,1.84-1.677,4.276-1.801,5.792l-0.344,4.371c0,2.778,1.624,4.203,3.293,5.428l0.068,0.049
		l-0.083,1.284c-0.016,0.236,0.081,0.465,0.26,0.618l0.263,0.225c0.852,0.724,2.751,1.586,6.96,1.586
		c4.078,0,5.985-0.818,6.866-1.505l0.288-0.225c0.194-0.151,0.302-0.389,0.288-0.634l-0.076-1.323l0.074-0.055
		c1.751-1.285,3.322-2.668,3.32-5.507l-0.344-4.339c-0.185-1.878-0.519-5.173-3.202-6.98l7.571-29.707
		c3.36-0.128,5.03-0.854,5.831-1.479l0.288-0.225c0.194-0.151,0.302-0.389,0.288-0.634l-0.076-1.323l0.074-0.055
		C99.785,60.205,101.356,58.822,101.354,55.982z M90.101,44.885h1.439l-0.63,1.589l1.097,13.865l-1.13,0.914l-1.133-0.916
		l0.978-13.864L90.101,44.885z M40.403,66.01h4.636c0.147,0,0.276,0.014,0.416,0.019c-0.577,0.687-1.404,1.493-2.468,1.959
		c-1.096-0.426-2.042-1.258-2.724-1.972C40.312,66.016,40.354,66.01,40.403,66.01z M49.969,80.876l-0.58-8.699
		c-0.027-0.413-0.392-0.721-0.798-0.699c-0.413,0.028-0.727,0.385-0.698,0.798l0.671,10.076l0.077,1.334
		c-0.483,0.366-1.996,1.171-5.922,1.171c-4.023,0-5.5-0.829-5.962-1.207l0.086-1.32v-0.002l0.671-10.052
		c0.028-0.413-0.285-0.771-0.698-0.798c-0.413-0.022-0.771,0.286-0.798,0.699l-0.579,8.673c-1.134-0.917-1.98-1.938-1.982-3.652
		l0.341-4.282c0.205-2.514,0.521-6.193,5.188-6.808c0.75,0.888,2.149,2.304,3.852,2.89l0.174,0.061l0.172-0.068
		c1.641-0.646,2.831-1.975,3.476-2.848c4.373,0.704,4.742,4.3,4.983,6.759l0.34,4.266C51.981,78.935,51.178,79.912,49.969,80.876z
		 M85.767,102.026l0.34,4.266c0,1.768-0.804,2.746-2.013,3.71l-0.58-8.699c-0.027-0.413-0.392-0.721-0.798-0.699
		c-0.413,0.028-0.726,0.385-0.698,0.798l0.671,10.076l0.077,1.334c-0.483,0.366-1.996,1.171-5.922,1.171
		c-4.024,0-5.5-0.829-5.962-1.207l0.086-1.32v-0.002l0.671-10.052c0.028-0.413-0.285-0.771-0.698-0.798
		c-0.413-0.022-0.771,0.286-0.798,0.699l-0.579,8.673c-1.134-0.917-1.98-1.938-1.982-3.652l0.341-4.282
		c0.225-2.75,0.564-6.906,6.606-6.906h4.636C85.089,95.135,85.498,99.29,85.767,102.026z M82.212,94.058
		c-0.86-0.262-1.855-0.423-3.048-0.423h-4.636c-2.086,0-3.608,0.451-4.743,1.146L51.336,81.679c1.219-1.077,2.145-2.396,2.143-4.572
		l-0.344-4.339c-0.088-0.898-0.215-2.121-0.61-3.351l28.141-10.384c0.629,1.002,1.532,1.755,2.459,2.436l0.068,0.049l-0.083,1.284
		c-0.016,0.236,0.081,0.465,0.26,0.618l0.263,0.225c0.777,0.66,2.449,1.429,5.931,1.559L82.212,94.058z M97.844,59.751l-0.58-8.699
		c-0.027-0.413-0.392-0.721-0.798-0.699c-0.413,0.028-0.726,0.385-0.698,0.798l0.671,10.076l0.077,1.333
		c-0.483,0.366-1.996,1.171-5.922,1.171c-4.024,0-5.5-0.829-5.962-1.207l0.086-1.32v-0.002l0.671-10.052
		c0.028-0.413-0.285-0.77-0.698-0.798c-0.413-0.022-0.771,0.286-0.798,0.699l-0.579,8.673c-1.134-0.917-1.98-1.938-1.982-3.652
		l0.341-4.282c0.225-2.75,0.564-6.906,6.606-6.906h0.749l0.682,1.743l-0.999,14.16l2.168,1.752l2.169-1.754l-1.12-14.159l0.69-1.742
		h0.297c5.925,0,6.334,4.155,6.603,6.891l0.34,4.266C99.856,57.81,99.053,58.787,97.844,59.751z M42.719,63.647
		c2.96,0,5.367-2.407,5.367-5.365c0-2.959-2.407-5.366-5.367-5.366c-2.959,0-5.366,2.407-5.366,5.366
		C37.353,61.241,39.76,63.647,42.719,63.647z M42.719,54.416c2.133,0,3.867,1.734,3.867,3.866c0,2.131-1.734,3.865-3.867,3.865
		c-2.132,0-3.866-1.734-3.866-3.865C38.853,56.15,40.587,54.416,42.719,54.416z M76.844,82.041c-2.959,0-5.366,2.407-5.366,5.366
		c0,2.958,2.407,5.365,5.366,5.365c2.96,0,5.367-2.407,5.367-5.365C82.211,84.448,79.804,82.041,76.844,82.041z M76.844,91.272
		c-2.132,0-3.866-1.734-3.866-3.865c0-2.132,1.734-3.866,3.866-3.866c2.133,0,3.867,1.734,3.867,3.866
		C80.711,89.538,78.977,91.272,76.844,91.272z M73.654,96.285c0-0.424-0.344-0.766-0.769-0.766c-0.422,0-0.768,0.342-0.768,0.766
		c0,0.424,0.346,0.766,0.768,0.766C73.311,97.051,73.654,96.709,73.654,96.285z M74.043,97.1c-0.425,0-0.769,0.344-0.769,0.766
		c0,0.424,0.344,0.768,0.769,0.768c0.423,0,0.768-0.344,0.768-0.768C74.811,97.443,74.466,97.1,74.043,97.1z M75.851,97.832
		c-0.424,0-0.768,0.344-0.768,0.768c0,0.424,0.344,0.766,0.768,0.766s0.768-0.342,0.768-0.766
		C76.618,98.176,76.274,97.832,75.851,97.832z M80.777,95.52c-0.425,0-0.769,0.342-0.769,0.766c0,0.424,0.344,0.766,0.769,0.766
		c0.424,0,0.768-0.342,0.768-0.766C81.545,95.861,81.201,95.52,80.777,95.52z M79.62,97.1c-0.423,0-0.768,0.344-0.768,0.766
		c0,0.424,0.345,0.768,0.768,0.768c0.425,0,0.769-0.344,0.769-0.768C80.389,97.443,80.045,97.1,79.62,97.1z M77.812,97.832
		c-0.424,0-0.768,0.344-0.768,0.768c0,0.424,0.344,0.766,0.768,0.766c0.423,0,0.768-0.342,0.768-0.766
		C78.58,98.176,78.235,97.832,77.812,97.832z"/>
</g>
</svg>
