<svg data-name="Layer 1" xmlns="http://www.w3.org/2000/svg" viewBox="0 0 60.51 83.15"><title>Icon_RH_People_Kiosk_RGB_Black</title><path d="M58.17 44.7h-2.41c-.93-6.06-5.05-18.13-7.5-21.75a1 1 0 0 0-1-.42l-1.4.26a.94.94 0 0 0 0-.12c-.08-.17-8-17.22-9.27-19.8S32.84 0 30.59 0h-4.61a1 1 0 0 0 0 2h4.52c2.45 0 3.64.49 4.25 1.75 1.15 2.36 8 17 9.09 19.42l-6 1.13v-3.94a1 1 0 0 0-1-1h-4a1 1 0 0 0-1 1v16.81a1 1 0 0 0 1 1h3v6.53H31.1a4.88 4.88 0 0 0 .35-1.86c0-2.13-2-3.8-4.66-3.8h-6.9v-4.46a7.8 7.8 0 0 0-15.59 0v5.32a3.13 3.13 0 0 0-4.29 2.92v11.3a12.65 12.65 0 0 0 2.39 7.32 8.14 8.14 0 0 1 1.67 4.51v16.2a1 1 0 0 0 1 1h3.78a1 1 0 0 0 1-1V66.54a.35.35 0 0 1 .35-.34h12v14.6a2.35 2.35 0 0 0 2.34 2.34h33.63a2.35 2.35 0 0 0 2.34-2.34V47.04a2.35 2.35 0 0 0-2.34-2.34zM37.82 26.34l9.13-1.7c2.29 3.89 5.87 14.51 6.8 20.08H37.82zm-4 9.83V21.36h2v14.81zm-11.67 28h-12a2.35 2.35 0 0 0-2.35 2.34v14.64H6.06v-15.2a10 10 0 0 0-2-5.57 10.68 10.68 0 0 1-2.09-6.27v-11.3a1.15 1.15 0 0 1 2.29 0v11.3a7.87 7.87 0 0 0 8 7.8h9.9zm0-17.15v4.27h-1.89a.35.35 0 0 1-.35-.34v-4.31h2.31a2.33 2.33 0 0 0-.06.4zm-8.52-2.38a3.49 3.49 0 0 1-3.48-3.48v-6.3a1 1 0 1 0-2 0v6.3a5.49 5.49 0 0 0 5.48 5.48h4.25v4.33a2.35 2.35 0 0 0 2.38 2.34h1.9v6.59h-9.9a5.94 5.94 0 0 1-6-5.79V34.58a5.8 5.8 0 0 1 11.59 0v4.46h-2.26a1 1 0 0 0 0 2h11.19c1.49 0 2.66.79 2.66 1.8 0 1.8-.9 1.8-1.19 1.8zM58.52 80.8a.34.34 0 0 1-.34.34H24.5a.34.34 0 0 1-.34-.34V47.04a.34.34 0 0 1 .34-.34h33.67a.34.34 0 0 1 .34.34zM11.6 24.72a7.79 7.79 0 1 0-7.8-7.79 7.8 7.8 0 0 0 7.8 7.79zm0-13.59a5.79 5.79 0 1 1-5.8 5.79 5.8 5.8 0 0 1 5.8-5.78z"/></svg>