<svg id="Layer_1" data-name="Layer 1" xmlns="http://www.w3.org/2000/svg" viewBox="0 0 86.86 56.03"><defs><style>.cls-1{fill:#010202;}</style></defs><title>Icon_RH_People_Instructor_RGB_Black</title><path class="cls-1" d="M16.79 20.51a7.82 7.82 0 1 0-7.82-7.82 7.83 7.83 0 0 0 7.82 7.82zm0-13.64a5.82 5.82 0 1 1-5.82 5.82 5.83 5.83 0 0 1 5.82-5.82zM84.51.02H39.17a2.35 2.35 0 0 0-2.35 2.35v20.22H15.28C4.74 22.59.04 26.45.04 35.12V41.1c-.1 1.33-.37 5.35 5.63 9.07v1.6a1 1 0 0 0 .66.94 30.5 30.5 0 0 0 20.87 0 1 1 0 0 0 .66-.94V35.89a3.05 3.05 0 0 1 2.81-3.28c.85-.11 3.24-.46 6.12-.88v22a2.35 2.35 0 0 0 2.38 2.29h45.34a2.35 2.35 0 0 0 2.35-2.35V2.35A2.35 2.35 0 0 0 84.51.02zM17.74 24.59L17 26.18h-.63l-.7-1.59zm.67 22.73l-1.74 1.43-1.71-1.43 1.44-20.14h.57zm12-16.69a5.07 5.07 0 0 0-4.6 5.26v15.13a28.16 28.16 0 0 1-9.06 1.5 27.64 27.64 0 0 1-9.08-1.5v-16a1 1 0 0 0-2 0v12.73c-3.85-2.82-3.7-5.47-3.64-6.53v-6.1c0-7.28 3.65-10.35 12.51-10.52l.9 1.94a.49.49 0 0 0 0 .14.48.48 0 0 0 0 .1L13.95 47.5a.5.5 0 0 0 .18.42l2.24 1.85a.5.5 0 0 0 .64 0l2.24-1.85a.5.5 0 0 0 .18-.42l-1.5-20.95.91-2h32a1.53 1.53 0 0 1 1.53 1.53c0 1.16-1 1.46-1.67 1.54-1.16.16-5.16.75-9.33 1.37-4.7.74-9.64 1.47-10.92 1.64zm54.45 23.06a.35.35 0 0 1-.35.35H39.17a.35.35 0 0 1-.35-.35V31.43l2.85-.41c4.16-.62 8.15-1.21 9.3-1.36a3.53 3.53 0 0 0-.12-7.05H38.82V2.35a.35.35 0 0 1 .35-.33h45.34a.35.35 0 0 1 .35.35zm-1.19-2.62h-43.6a.5.5 0 0 0 0 1h43.6a.5.5 0 0 0 0-1z"/></svg>