<svg id="ICON" xmlns="http://www.w3.org/2000/svg" viewBox="0 0 108 108"><defs><style>.cls-1{fill:#fff;}</style></defs><title>Icon_RH_people_standing_RGB_White</title><path class="cls-1" d="M68.86 54.66c-.15-1.71-.36-4.88-.58-8.24-.31-4.57-.62-9.29-.8-10.65-.33-2.56-2-8.53-9.77-8.53H50.4c-7.82 0-9.44 6-9.77 8.53-.19 1.43-.55 6.5-.91 11.4-.22 3.06-.43 5.94-.57 7.53-.33 3.84 3.43 6.38 4.71 7.12L42 89.11a4.94 4.94 0 0 0 4.59 5.25 4.93 4.93 0 0 0 5.25-4.59l2-30.06h.43l2 30.06a4.93 4.93 0 0 0 4.91 4.6h.34a4.94 4.94 0 0 0 4.59-5.25l-2-27.35c1.06-.54 5.1-3.03 4.75-7.11zm-4.77 5.41l-1.67-23.12a.76.76 0 0 0-.8-.69.75.75 0 0 0-.69.8l3.77 52.16a3.43 3.43 0 1 1-6.85.46l-2.08-30.77a.75.75 0 0 0-.75-.7h-1.83a.75.75 0 0 0-.75.7l-2.07 30.76A3.41 3.41 0 0 1 49.2 92a3.43 3.43 0 0 1-5.68-2.82L47 37.3a.75.75 0 0 0-.7-.8.76.76 0 0 0-.8.7L44 60.13c-1.33-.91-3.54-2.81-3.33-5.29.14-1.59.35-4.48.57-7.55.34-4.66.72-9.94.9-11.32.43-3.29 2.21-7.22 8.28-7.22h7.31c6.07 0 7.86 3.93 8.28 7.22.17 1.31.49 6 .79 10.55.23 3.36.44 6.54.59 8.26.2 2.6-2.07 4.47-3.3 5.29zM54 26.36a6.78 6.78 0 1 0-6.78-6.78A6.79 6.79 0 0 0 54 26.36zm0-12.07a5.28 5.28 0 1 1-5.28 5.28A5.29 5.29 0 0 1 54 14.29z"/></svg>