<?xml version="1.0" encoding="utf-8"?>
<!-- Generator: Adobe Illustrator 17.1.0, SVG Export Plug-In . SVG Version: 6.00 Build 0)  -->
<!DOCTYPE svg PUBLIC "-//W3C//DTD SVG 1.1//EN" "http://www.w3.org/Graphics/SVG/1.1/DTD/svg11.dtd">
<svg version="1.1" id="Layer_1" xmlns="http://www.w3.org/2000/svg" xmlns:xlink="http://www.w3.org/1999/xlink" x="0px" y="0px"
	 viewBox="0 0 108 108" enable-background="new 0 0 108 108" xml:space="preserve">
<g>
	<path d="M83.022,82.754L70.896,57.282c-0.031-0.065-0.082-0.11-0.124-0.166l0.201-0.941c0.111-0.519,0.692-1.164,1.196-1.329
		l4.701-1.534c1.364-0.445,2.115-1.92,1.674-3.286l-1.521-4.707c-0.162-0.504,0.019-1.356,0.372-1.75l3.303-3.681
		c0.957-1.068,0.87-2.721-0.195-3.683l-3.671-3.312c-0.394-0.355-0.662-1.183-0.553-1.701l1.02-4.836
		c0.297-1.405-0.604-2.793-2.009-3.093l-4.836-1.034c-0.519-0.111-1.164-0.692-1.329-1.196l-1.535-4.701
		c-0.352-1.076-1.35-1.8-2.486-1.8c-0.271,0-0.541,0.043-0.8,0.127l-4.706,1.522c-0.472,0.153-1.371-0.033-1.749-0.371l-3.68-3.304
		c-1.025-0.92-2.759-0.828-3.683,0.195l-3.312,3.669c-0.344,0.381-1.216,0.656-1.701,0.554l-4.841-1.02
		c-1.385-0.291-2.801,0.638-3.092,2.01l-1.032,4.836c-0.111,0.519-0.692,1.164-1.196,1.329l-4.702,1.536
		c-1.365,0.445-2.116,1.92-1.673,3.286l1.521,4.703c0.163,0.504-0.018,1.354-0.371,1.749l-3.302,3.681
		c-0.959,1.068-0.872,2.721,0.194,3.684l3.668,3.312c0.394,0.355,0.662,1.183,0.553,1.701l-1.02,4.838
		c-0.296,1.405,0.606,2.792,2.01,3.092l4.837,1.035c0.244,0.053,0.515,0.214,0.752,0.418L25.336,82.744
		c-0.442,0.902-0.899,1.836-0.308,2.566c0.59,0.73,1.627,0.468,2.302,0.294l9.5-1.584c0.32-0.054,0.709-0.118,0.885-0.121
		c0.098,0.127,0.265,0.419,0.349,0.565l5.544,9.345c0.443,0.907,1.03,1.836,2.029,1.836h0.001c1.101,0,1.684-1.189,1.901-1.635
		l6.662-13.491l6.611,13.488c0.354,0.724,0.839,1.716,1.786,1.716h0.003c0.924-0.002,1.393-0.932,1.768-1.701l5.855-9.32
		c0.135-0.188,0.385-0.538,0.391-0.571c0.096-0.023,0.454,0.042,0.792,0.098l9.94,0.96c0.718,0.11,1.461,0.226,1.916-0.41
		C83.736,84.119,83.349,83.376,83.022,82.754z M37.446,54.74l-4.837-1.035c-0.323-0.069-0.539-0.401-0.471-0.725l1.02-4.837
		c0.257-1.217-0.246-2.764-1.17-3.599l-3.668-3.312c-0.245-0.222-0.267-0.617-0.046-0.863l3.303-3.682
		c0.83-0.927,1.168-2.518,0.784-3.7l-1.522-4.703c-0.101-0.315,0.077-0.667,0.392-0.77l4.702-1.536
		c1.183-0.386,2.271-1.595,2.53-2.812l1.032-4.836c0.069-0.32,0.406-0.541,0.725-0.471l4.841,1.021
		c1.195,0.252,2.788-0.273,3.598-1.171l3.312-3.669c0.157-0.174,0.354-0.199,0.456-0.199c0.152,0,0.297,0.055,0.407,0.153
		l3.68,3.304c0.647,0.58,1.662,0.941,2.647,0.941c0.378,0,0.733-0.053,1.053-0.157l4.706-1.521c0.311-0.103,0.669,0.085,0.77,0.392
		l1.535,4.701c0.386,1.183,1.595,2.271,2.812,2.53l4.836,1.034c0.323,0.069,0.538,0.4,0.47,0.725l-1.019,4.836
		c-0.257,1.217,0.246,2.764,1.17,3.599l3.671,3.312c0.245,0.222,0.267,0.617,0.046,0.863l-3.303,3.681
		c-0.83,0.926-1.168,2.517-0.785,3.7l1.521,4.707c0.102,0.315-0.078,0.667-0.393,0.771l-4.701,1.534
		c-1.183,0.386-2.271,1.595-2.53,2.812l-1.033,4.836c-0.07,0.321-0.394,0.537-0.725,0.47l-4.838-1.02
		c-1.197-0.25-2.789,0.271-3.599,1.17l-3.312,3.671c-0.157,0.174-0.353,0.199-0.455,0.199c-0.152,0-0.297-0.055-0.407-0.153
		l-3.683-3.304c-0.647-0.58-1.662-0.941-2.647-0.941c-0.378,0-0.732,0.053-1.053,0.157l-4.704,1.521
		c-0.312,0.102-0.669-0.084-0.77-0.392l-1.535-4.701c-0.073-0.224-0.184-0.442-0.311-0.654c-0.058-0.212-0.188-0.392-0.373-0.527
		C39.015,55.426,38.234,54.908,37.446,54.74z M45.757,93.135c-0.047,0.096-0.09,0.177-0.128,0.245
		c-0.074-0.124-0.165-0.29-0.275-0.513l-5.574-9.401c-0.918-1.606-1.476-1.706-3.275-1.404l-9.392,1.569
		c0.003-0.006,0.006-0.011,0.009-0.017l11.74-24.18l1.031,3.158c0.351,1.076,1.351,1.8,2.486,1.8c0.271,0,0.541-0.043,0.8-0.127
		l4.704-1.522c0.469-0.156,1.371,0.032,1.749,0.371l3.683,3.304c0.479,0.429,1.097,0.664,1.742,0.664c0.74,0,1.447-0.313,1.94-0.859
		l3.312-3.671c0.163-0.181,0.445-0.333,0.746-0.437L45.757,93.135z M71.988,82.311l-0.265-0.043
		c-1.715-0.273-2.123-0.108-3.147,1.329l-5.917,9.415c-0.02,0.03-0.037,0.062-0.053,0.095c-0.004,0.009-0.008,0.018-0.012,0.025
		l-7.284-14.86l7.893-16.021l3.645,0.769c1.374,0.288,2.801-0.636,3.093-2.009l0.165-0.771L81.02,83.164L71.988,82.311z"/>
	<path d="M54.204,56.665c9.782,0,17.74-7.957,17.74-17.738c0-9.782-7.958-17.74-17.74-17.74c-9.781,0-17.738,7.958-17.738,17.74
		C36.466,48.708,44.423,56.665,54.204,56.665z M54.204,22.687c8.955,0,16.24,7.285,16.24,16.24c0,8.954-7.285,16.238-16.24,16.238
		c-8.954,0-16.238-7.284-16.238-16.238C37.966,29.972,45.25,22.687,54.204,22.687z"/>
	<path d="M54.204,53.741c8.17,0,14.816-6.646,14.816-14.814c0-8.17-6.646-14.816-14.816-14.816s-14.816,6.646-14.816,14.816
		C39.388,47.096,46.034,53.741,54.204,53.741z M54.204,25.36c7.48,0,13.566,6.086,13.566,13.566c0,7.479-6.086,13.564-13.566,13.564
		s-13.566-6.085-13.566-13.564C40.638,31.446,46.724,25.36,54.204,25.36z"/>
</g>
</svg>
