<?xml version="1.0" encoding="utf-8"?>
<!-- Generator: Adobe Illustrator 17.1.0, SVG Export Plug-In . SVG Version: 6.00 Build 0)  -->
<!DOCTYPE svg PUBLIC "-//W3C//DTD SVG 1.1//EN" "http://www.w3.org/Graphics/SVG/1.1/DTD/svg11.dtd">
<svg version="1.1" id="Layer_1" xmlns="http://www.w3.org/2000/svg" xmlns:xlink="http://www.w3.org/1999/xlink" x="0px" y="0px"
	 viewBox="0 0 216 216" enable-background="new 0 0 216 216" xml:space="preserve">
<g>
	<path d="M104.249,135.217h10.599c0.414,0,0.75-0.336,0.75-0.75c0-0.414-0.336-0.75-0.75-0.75h-10.599
		c-0.414,0-0.75,0.336-0.75,0.75C103.499,134.881,103.835,135.217,104.249,135.217z"/>
	<path d="M101.259,138.064c0,0.414,0.336,0.75,0.75,0.75h15.078c0.414,0,0.75-0.336,0.75-0.75c0-0.414-0.336-0.75-0.75-0.75h-15.078
		C101.595,137.314,101.259,137.65,101.259,138.064z"/>
	<path d="M113.73,140.911h-8.364c-0.414,0-0.75,0.336-0.75,0.75c0,0.414,0.336,0.75,0.75,0.75h8.364c0.414,0,0.75-0.336,0.75-0.75
		C114.48,141.247,114.145,140.911,113.73,140.911z"/>
	<path d="M133.434,83.069c-0.516-1.795-2.178-3.049-4.041-3.049c-0.392,0-0.783,0.055-1.162,0.164L88.544,91.562
		c-2.224,0.64-3.518,2.975-2.883,5.206c0.516,1.795,2.181,3.048,4.049,3.048c0.389,0,0.778-0.054,1.156-0.162l39.683-11.378
		c1.081-0.31,1.977-1.022,2.521-2.006C133.615,85.286,133.744,84.149,133.434,83.069z M131.759,85.543
		c-0.351,0.633-0.927,1.092-1.623,1.291L90.455,98.211c-1.413,0.402-2.951-0.462-3.352-1.856c-0.408-1.437,0.424-2.94,1.856-3.352
		l39.686-11.377c0.245-0.07,0.496-0.106,0.748-0.106c1.198,0,2.268,0.807,2.6,1.963C132.191,84.178,132.109,84.91,131.759,85.543z"
		/>
	<path d="M128.171,90.991c-0.321,0-0.642,0.045-0.948,0.134l-34.683,9.942c-0.896,0.257-1.652,0.87-2.127,1.728
		c-0.546,0.986-0.67,2.209-0.34,3.356c0.522,1.819,2.063,3.092,3.765,3.13v0.008h2.788c3.604,0,4.302,6.268,4.436,8.628
		c-3.087,0.563-5.436,3.268-5.436,6.515c0,2.218,1.097,4.18,2.771,5.385c-0.657,0.6-1.085,1.498-1.085,2.516v0.37
		c0,0.599,0.137,1.168,0.394,1.662c-0.257,0.492-0.394,1.077-0.394,1.711v0.37c0,0.61,0.138,1.187,0.397,1.681
		c-0.259,0.493-0.397,1.052-0.397,1.63v0.371c0,0.857,0.292,1.663,0.823,2.267c0.086,0.099,0.191,0.18,0.309,0.237
		c1.192,0.588,1.996,1.267,2.775,1.923c1.747,1.473,3.397,2.864,8.324,2.864c4.934,0,6.585-1.393,8.333-2.866
		c0.777-0.655,1.581-1.334,2.771-1.921c0.116-0.058,0.221-0.137,0.307-0.233c0.537-0.608,0.833-1.414,0.833-2.271v-0.371
		c0-0.574-0.14-1.133-0.401-1.628c0.262-0.497,0.401-1.073,0.401-1.683v-0.37c0-0.634-0.138-1.219-0.396-1.711
		c0.258-0.494,0.396-1.064,0.396-1.662v-0.37c0-1.07-0.472-2.014-1.188-2.609c1.604-1.212,2.648-3.13,2.648-5.291
		c0-3.244-2.347-5.947-5.434-6.514c0.135-2.359,0.83-8.629,4.434-8.629h4.318c1.823-0.014,3.353-2.049,3.339-4.447
		c-0.018-2.31-1.531-4.179-3.371-4.179c-0.007,0-0.014,0-0.021,0h-2.021l5.052-1.448c0.986-0.283,1.784-0.981,2.246-1.967
		c0.445-0.951,0.523-2.059,0.218-3.12C131.479,92.281,129.901,90.991,128.171,90.991z M104.378,109.991
		c1.606,1.634,1.609,5.65,1.576,7.812h-3.389c-0.101-2.005-0.562-6.248-2.621-8.515h2.69
		C103.343,109.289,103.914,109.519,104.378,109.991z M105.714,109.289h7.439c-1.749,2.171-1.775,6.132-1.737,8.515h-3.962
		C107.491,115.42,107.464,111.46,105.714,109.289z M118.852,131.065c0.497,0,0.934,0.592,0.934,1.267v0.37
		c0,0.397-0.123,0.75-0.348,0.992c-0.365,0.395-0.353,1.007,0.028,1.387c0.206,0.205,0.319,0.559,0.319,0.994v0.37
		c0,0.404-0.122,0.757-0.343,0.993c-0.354,0.377-0.361,0.96-0.019,1.347c0.229,0.26,0.361,0.613,0.361,0.971v0.371
		c0,0.302-0.083,0.59-0.232,0.815c-1.293,0.669-2.181,1.417-2.968,2.081c-1.587,1.338-2.84,2.395-7.043,2.395
		c-4.196,0-5.449-1.056-7.035-2.394c-0.787-0.663-1.674-1.411-2.969-2.081c-0.146-0.224-0.227-0.513-0.227-0.816v-0.371
		c0-0.363,0.129-0.716,0.354-0.968c0.345-0.386,0.338-0.972-0.016-1.35c-0.218-0.232-0.338-0.586-0.338-0.993v-0.37
		c0-0.438,0.113-0.791,0.317-0.997c0.377-0.379,0.389-0.987,0.028-1.382c-0.223-0.242-0.345-0.595-0.345-0.994v-0.37
		c0-0.687,0.427-1.267,0.932-1.267h2.011h14.357H118.852z M121.245,124.432c0,2.555-2.079,4.634-4.634,4.634h-14.357
		c-2.552,0-4.629-2.079-4.629-4.634c0-2.552,2.077-4.628,4.629-4.628h14.357C119.166,119.804,121.245,121.88,121.245,124.432z
		 M116.308,117.804h-3.393c-0.033-2.159-0.032-6.177,1.574-7.812c0.465-0.473,1.036-0.703,1.746-0.703h2.691
		C116.869,111.556,116.408,115.799,116.308,117.804z M126.517,102.163c0.003,0,0.006,0,0.009,0c1.007,0,1.865,1.229,1.877,2.69
		c0.009,1.529-0.873,2.929-1.845,2.937H99.625l19.857-5.691v0.065H126.517z M130.43,96.611c-0.275,0.587-0.737,1-1.302,1.162
		l-34.684,9.941c-1.197,0.344-2.526-0.566-2.931-1.977c-0.221-0.767-0.144-1.575,0.211-2.215c0.28-0.506,0.716-0.866,1.228-1.012
		l34.686-9.943c0.173-0.05,0.352-0.076,0.532-0.076c1.064,0,2.048,0.843,2.394,2.05C130.77,95.254,130.722,95.989,130.43,96.611z"/>
	<path d="M90.724,88.97c0.32,0,0.638-0.045,0.945-0.133l34.683-9.943c0.897-0.257,1.652-0.871,2.127-1.729
		c0.545-0.985,0.668-2.209,0.337-3.355c-0.528-1.847-2.107-3.137-3.84-3.137c-0.041,0-0.081,0.007-0.121,0.008v-0.01l-32.032,0.044
		c-1.882,0.017-3.521,2.074-3.505,4.402c0.009,1.29,0.476,2.486,1.282,3.279c0.591,0.582,1.333,0.901,2.086,0.901
		c0.008,0,0.016,0,0.023,0h1.707l-5.063,1.452c-0.896,0.255-1.651,0.866-2.126,1.721c-0.548,0.986-0.674,2.211-0.344,3.364
		C87.414,87.681,88.993,88.97,90.724,88.97z M92.703,77.798c-0.004,0-0.008,0-0.011,0c-0.464,0-0.821-0.255-1.039-0.47
		c-0.517-0.509-0.829-1.339-0.835-2.22c-0.011-1.592,1.096-2.884,2.013-2.892l26.411-0.037l-19.594,5.619H92.703z M88.538,83.2
		c0.28-0.504,0.716-0.862,1.227-1.008l34.68-9.945c0.173-0.049,0.351-0.074,0.53-0.074c1.066,0,2.053,0.843,2.398,2.051
		c0.222,0.768,0.145,1.575-0.208,2.215c-0.28,0.506-0.716,0.866-1.229,1.012l-34.683,9.944c-1.199,0.343-2.524-0.565-2.93-1.973
		C88.104,84.65,88.182,83.841,88.538,83.2z"/>
</g>
</svg>
