<svg id="template" xmlns="http://www.w3.org/2000/svg" viewBox="0 0 58.95 51.03"><defs><style>.cls-1{fill:#fff;}</style></defs><title>Icon_RH_Objects_Envelope-Arrow_RGB_White</title><path class="cls-1" d="M56.13 0H2.82A2.82 2.82 0 0 0 0 2.82v36.69a2.83 2.83 0 0 0 2.82 2.82h23.53a1 1 0 0 0 .26 0 76.29 76.29 0 0 0 3.53 8.18 1 1 0 0 0 .86.54 1 1 0 0 0 .86-.49l2.62-4.33c2.41 1 9.46 3.57 15.74 1.13 3.84-1.49 6.67-4.58 8.42-9.16a4.2 4.2 0 0 0 .36-1.68V2.82A2.83 2.83 0 0 0 56.13 0zm-.72 2L29.48 23.6 3.54 2zM2 38.7V3.32L21.3 19.4zm47.48 6.81c-6.72 2.62-14.89-1.4-15-1.44a1 1 0 0 0-1.31.38l-2.05 3.46a74.16 74.16 0 0 1-5.51-16.62 30.9 30.9 0 0 0 15.55 3.28l-2.13 2.78a1 1 0 0 0 .25 1.45c.42.28 8.64 5.55 14.93 3.2a11.37 11.37 0 0 1-4.73 3.51zm-8.16-7.83l2.77-3.62a1 1 0 0 0-.88-1.6c-11.73.99-18.26-3.95-18.32-3.95a1 1 0 0 0-1.61.92 60 60 0 0 0 2.64 10.88H3.23l19.62-19.63 6 5a1.06 1.06 0 0 0 .66.23 1 1 0 0 0 .64-.23l6.12-5.17 18.72 18.77c-4.35 3.05-11.21-.23-13.69-1.61zm15.64-1.17a2.25 2.25 0 0 1-.48 1.33L37.81 19.26l19.15-16z"/></svg>