<svg id="Layer_1" data-name="Layer 1" xmlns="http://www.w3.org/2000/svg" viewBox="0 0 80.4 16.02"><defs><style>.cls-1{fill:#fff;}</style></defs><title>Icon_RH_Objects_Skateboard_RGB_White</title><path class="cls-1" d="M80.33 2.22c-.66-2.69-4-2.27-5.61-2.07h-.31c-1.42.17-2.84.42-4.21.67-.91.16-1.82.33-2.73.46a43.47 43.47 0 0 1-6.71.32H19.64a43.33 43.33 0 0 1-6.71-.32c-.91-.14-1.82-.3-2.73-.46C8.83.57 7.41.32 5.99.15h-.31C4.07-.05.74-.47.07 2.22a2.45 2.45 0 0 0 .13 1.5c.89 2.26 3.87 3.62 6 4.46a25.46 25.46 0 0 0 8.59 1.45 4 4 0 0 0-.78 2.38 4 4 0 0 0 8 0 4 4 0 0 0-.8-2.39h37.53a4 4 0 0 0-.8 2.38 4 4 0 1 0 8 0 4 4 0 0 0-.74-2.37 26 26 0 0 0 9-1.45c2.17-.83 5.14-2.2 6-4.46a2.45 2.45 0 0 0 .13-1.5zm-62.3 11.79a2 2 0 1 1 2-2 2 2 0 0 1-2 2zm43.93 0a2 2 0 1 1 2-2 2 2 0 0 1-2 2zm16.4-11c-.67 1.7-3.84 2.92-4.89 3.32a24.94 24.94 0 0 1-8.76 1.33H25.23c-3.18 0-6.36.05-9.55 0a24.94 24.94 0 0 1-8.76-1.33c-1-.4-4.22-1.62-4.89-3.32a.47.47 0 0 1 0-.3c.21-.84 1.76-.77 3.42-.56h.32c1.36.16 2.75.41 4.09.65.93.17 1.85.33 2.78.47a44.53 44.53 0 0 0 7 .35h41.12a44.65 44.65 0 0 0 7-.35c.93-.14 1.86-.31 2.78-.47 1.34-.24 2.73-.49 4.09-.65h.32c1.65-.21 3.21-.28 3.42.56a.47.47 0 0 1-.02.3zm-63.94 3c-5.37.17-10.33-3-10.38-3a.5.5 0 0 0-.54.84 22 22 0 0 0 10.54 3.16h.4a.5.5 0 0 0 0-1z"/></svg>