<?xml version="1.0" encoding="utf-8"?>
<!-- Generator: Adobe Illustrator 17.1.0, SVG Export Plug-In . SVG Version: 6.00 Build 0)  -->
<!DOCTYPE svg PUBLIC "-//W3C//DTD SVG 1.1//EN" "http://www.w3.org/Graphics/SVG/1.1/DTD/svg11.dtd">
<svg version="1.1" id="Layer_1" xmlns="http://www.w3.org/2000/svg" xmlns:xlink="http://www.w3.org/1999/xlink" x="0px" y="0px"
	 viewBox="0 0 216 216" enable-background="new 0 0 216 216" xml:space="preserve">
<g>
	<path d="M107.865,66.792c-22.653,0-41.083,18.43-41.083,41.083s18.43,41.083,41.083,41.083s41.083-18.43,41.083-41.083
		S130.518,66.792,107.865,66.792z M107.865,146.958c-21.55,0-39.083-17.532-39.083-39.083c0-21.551,17.533-39.083,39.083-39.083
		s39.083,17.532,39.083,39.083C146.948,129.426,129.415,146.958,107.865,146.958z"/>
	<path d="M108.032,71.792c-19.741,0-35.8,16.06-35.8,35.8c0,19.741,16.06,35.802,35.8,35.802s35.801-16.061,35.801-35.802
		C143.833,87.852,127.772,71.792,108.032,71.792z M138.364,123.588l-3.11-1.799c-0.627-0.363-1.431-0.147-1.792,0.479
		c-0.364,0.629-0.149,1.433,0.479,1.793l3.106,1.798c-2.741,4.332-6.42,8.01-10.753,10.747l-1.786-3.106
		c-0.362-0.63-1.165-0.844-1.793-0.481c-0.628,0.36-0.845,1.163-0.482,1.792l1.791,3.113c-4.414,2.337-9.394,3.736-14.678,3.937
		v-3.591c0-0.727-0.588-1.313-1.314-1.313c-0.723,0-1.311,0.587-1.311,1.313v3.591c-5.286-0.2-10.268-1.6-14.682-3.938l1.793-3.109
		c0.364-0.63,0.147-1.434-0.48-1.795c-0.628-0.362-1.431-0.148-1.793,0.479l-1.792,3.105c-4.331-2.737-8.006-6.413-10.743-10.743
		l3.104-1.787c0.627-0.362,0.843-1.165,0.482-1.792c-0.364-0.629-1.167-0.846-1.794-0.483l-3.111,1.791
		c-2.338-4.415-3.738-9.396-3.938-14.683h3.594c0.723,0,1.312-0.589,1.312-1.313c0-0.726-0.589-1.314-1.312-1.314h-3.594
		c0.2-5.285,1.6-10.267,3.938-14.681l3.116,1.8c0.209,0.119,0.433,0.175,0.656,0.175c0.452,0,0.895-0.234,1.137-0.656
		c0.364-0.628,0.147-1.431-0.481-1.793l-3.11-1.796c2.737-4.331,6.413-8.008,10.744-10.745l1.792,3.105
		c0.245,0.42,0.687,0.656,1.139,0.656c0.225,0,0.448-0.056,0.656-0.175c0.628-0.364,0.843-1.167,0.48-1.795l-1.796-3.11
		c4.416-2.339,9.399-3.739,14.686-3.939c0,0.001-0.001,0.002-0.001,0.004v3.6c0,0.725,0.588,1.313,1.311,1.313
		c0.727,0,1.314-0.588,1.314-1.313v-3.6c0-0.001-0.001-0.002-0.001-0.004c5.286,0.2,10.269,1.6,14.684,3.938
		c-0.001,0.001-0.002,0.002-0.003,0.003l-1.795,3.107c-0.361,0.628-0.146,1.431,0.481,1.795c0.207,0.119,0.434,0.175,0.655,0.175
		c0.453,0,0.896-0.235,1.139-0.656l1.794-3.106c4.332,2.738,8.01,6.417,10.747,10.75l-3.103,1.792
		c-0.628,0.363-0.845,1.166-0.48,1.793c0.243,0.421,0.684,0.656,1.137,0.656c0.224,0,0.448-0.056,0.655-0.175l3.108-1.794h0.001
		c2.336,4.414,3.734,9.393,3.935,14.676h-3.593c-0.726,0-1.313,0.588-1.313,1.314c0,0.724,0.588,1.313,1.313,1.313h3.593
		C142.101,114.191,140.701,119.174,138.364,123.588z"/>
	<path d="M121.069,113.948l-11.279-6.637V87.375c0-1.104-0.896-2-2-2c-1.104,0-2,0.896-2,2v21.108c0,0.842,0.521,1.56,1.257,1.855
		l11.993,7.057c0.321,0.187,0.668,0.275,1.014,0.275c0.685,0,1.351-0.352,1.724-0.984
		C122.339,115.733,122.02,114.507,121.069,113.948z"/>
</g>
</svg>
