<svg xmlns="http://www.w3.org/2000/svg" viewBox="0 0 51.72 53.04"><title>Icon_RH_Objects_MagnifyingGlass-simple_RGB_Black</title><path d="M51.69 48.7c-.24-2.08-1.71-3.5-3-4.75l-.62-.6q-4-4-7.9-8l-1.45-1.48c-1.79-1.83-4.78-4.89-6.75-6.88a17.26 17.26 0 0 0 2.89-9.57 17.41 17.41 0 1 0-9.46 15.5c.2.18.4.37.58.55q7.08 7.1 14.1 14.25l2.13 2.17c1.16 1.21 2.61 2.71 4.57 3.08a4.5 4.5 0 0 0 .84.08 4.25 4.25 0 0 0 2.9-1.11 3.77 3.77 0 0 0 1.17-3.24zm-2.54 1.77a2.31 2.31 0 0 1-2 .53c-1.34-.25-2.44-1.4-3.5-2.5l-2.15-2.19q-7-7.14-14.11-14.26c-.21-.21-.43-.41-.67-.62l-.49-.45-.54-.52-.78.45a15.48 15.48 0 1 1 4.95-4.39l-.5.69.6.61c1.91 1.93 5.35 5.44 7.33 7.47l1.45 1.49q3.94 4 7.91 8l.65.63c1.15 1.11 2.24 2.11 2.4 3.52a1.77 1.77 0 0 1-.55 1.53zM17.28 5.58A11.72 11.72 0 1 0 29 17.3 11.74 11.74 0 0 0 17.28 5.58zm0 21.45A9.72 9.72 0 1 1 27 17.3a9.74 9.74 0 0 1-9.72 9.73z"/></svg>