<svg xmlns="http://www.w3.org/2000/svg" viewBox="0 0 55.27 68.48"><title>Icon_RH_Objects_Headphones_RGB_Black</title><path d="M13.76 63.41h.09a.5.5 0 0 0 .4-.58 52.37 52.37 0 0 1 0-19.16.5.5 0 0 0-.37-.6.49.49 0 0 0-.6.37 53.39 53.39 0 0 0 0 19.57.5.5 0 0 0 .48.4zm33.9-13.3a1.92 1.92 0 0 1-2.72-2.71.5.5 0 0 0-.71-.7 2.92 2.92 0 0 0 4.13 4.12.5.5 0 1 0-.71-.7zm-36-1.63a2.89 2.89 0 0 0-.85-2.06.5.5 0 0 0-.7.71 1.92 1.92 0 1 1-2.71 2.72.5.5 0 0 0-.7.71 2.92 2.92 0 0 0 5-2.06zm29.75-6.09a.5.5 0 0 0-.4.58 52.37 52.37 0 0 1 0 19.16.5.5 0 0 0 .37.6h.11a.5.5 0 0 0 .48-.38 53.39 53.39 0 0 0 0-19.57.5.5 0 0 0-.56-.38zm7.5-29.83l.16-.19a3.46 3.46 0 0 0-.48-4.92C43.97 3.75 27.33-7.2 6.93 7.27a3.47 3.47 0 0 0-.83 4.79l.21.31c-4.67 6.16-8.33 16.09-5.07 25.87a27.23 27.23 0 0 0 3.54 6.87 31.09 31.09 0 0 0-.61 6.42v.38a29.69 29.69 0 0 0 1.52 10.33 7.27 7.27 0 0 0 1.86 3.08 4.92 4.92 0 0 0 1.4.9 7.65 7.65 0 0 0 2.73.47c.29 0 .59 0 .88.06a1.08 1.08 0 0 1 .44.14 2.3 2.3 0 0 0 1 1.27 2.91 2.91 0 0 0 1.52.35h1.12a2 2 0 0 0 2-2 2.74 2.74 0 0 0 2.32-1c1.6-2 1.62-4.61 1.64-6.94v-1.44c.1-2.49.11-5 0-7.5v-1.78a23.24 23.24 0 0 0-.46-5.43 3.66 3.66 0 0 0-3.07-3.07 3.51 3.51 0 0 0-1.13.08 2 2 0 0 0-2-2.08c-1.51 0-2.17.11-3.16 1.16l-.27.28a2.35 2.35 0 0 1-1 .27c-2 .22-4.18.72-5.46 2.69a8.59 8.59 0 0 0-.53 1 24.11 24.11 0 0 1-2.47-5.12c-3-8.86.34-17.93 4.55-23.7a3.48 3.48 0 0 0 3.81 0c4-2.69 18-10.65 32.13-.1a3.49 3.49 0 0 0 2.1.7 3.44 3.44 0 0 0 1.73-.48c4.28 5.75 7.69 14.92 4.71 23.88a24.39 24.39 0 0 1-2.69 5.48 6.94 6.94 0 0 0-1.75-2.81 4.83 4.83 0 0 0-1.4-.9 7.7 7.7 0 0 0-2.77-.47c-.29 0-.57 0-.85-.05a1.1 1.1 0 0 1-.45-.14 2.3 2.3 0 0 0-1-1.27 3.91 3.91 0 0 0-2.4-.31h-.13a2 2 0 0 0-2 2 3.33 3.33 0 0 0-.78 0 3.66 3.66 0 0 0-3.07 3.07 23.24 23.24 0 0 0-.47 5.43v1.78c-.08 2.49-.07 5 0 7.5v1.44c0 2.33 0 5 1.64 6.94a2.74 2.74 0 0 0 2.32 1 4.28 4.28 0 0 0 .92-.14 2 2 0 0 0 .5 1.49 2.06 2.06 0 0 0 1.51.66 3.45 3.45 0 0 0 3.12-1.14l.28-.29a2.35 2.35 0 0 1 1-.27c2-.22 4.18-.72 5.46-2.69 1.82-2.8 1.9-6.83 2-9.78v-.38a30.49 30.49 0 0 0-.89-8.13 27.54 27.54 0 0 0 3.84-7.31c3.29-9.96-.46-19.92-5.12-26.07zm-31 27.89a2.81 2.81 0 0 1 1.12-.14 2.76 2.76 0 0 1 2.21 2.32 22.48 22.48 0 0 1 .44 5.2v1.81c.08 2.47.07 5 0 7.43v1.47c0 2.27 0 4.61-1.42 6.32a1.76 1.76 0 0 1-1.51.6h-.3c-2.2-8.14-1.42-16.69-.56-25zM6.17 51.54a40.69 40.69 0 0 1 .25-4.3 24.77 24.77 0 0 0 1.8 2 1.022 1.022 0 1 0 1.42-1.47A27.06 27.06 0 0 1 7 44.69a7.74 7.74 0 0 1 .85-1.87c.78-1.2 2.16-1.58 4-1.79a3.87 3.87 0 0 0 2.12-.79l.35-.36c.45-.47.47-.5 1.68-.5-.93 8.94-1.9 18.19.59 27.1h-.38a2.83 2.83 0 0 1-1.14 0c-.09-.05-.14-.14-.18-.34l-.06-.29-.22-.21a3 3 0 0 0-1.77-.83c-.35 0-.7-.06-1.06-.07a5.9 5.9 0 0 1-2-.32 2.92 2.92 0 0 1-.83-.53 5.41 5.41 0 0 1-1.31-2.25A27.7 27.7 0 0 1 6.21 52zM47.87 10a1.47 1.47 0 0 1-.34 1.09l-.68.82a1.45 1.45 0 0 1-1.12.52 1.5 1.5 0 0 1-.9-.3 27 27 0 0 0-16.5-5.72 33.4 33.4 0 0 0-17.95 5.77 1.47 1.47 0 0 1-2-.39l-.6-.87a1.46 1.46 0 0 1 .34-2c19.25-13.66 34.91-3.37 39.25.11a1.44 1.44 0 0 1 .53 1zM37.38 65.24a3.57 3.57 0 0 1-1.06.22 1.76 1.76 0 0 1-1.51-.6c-1.38-1.7-1.4-4-1.42-6.32v-1.47c-.1-2.46-.11-5 0-7.43v-1.81a22.47 22.47 0 0 1 .44-5.2 2.46 2.46 0 0 1 3.07-2.26c2.1 8.09 1.34 16.6.48 24.87zm11.72-11c-.06 2.7-.13 6.4-1.64 8.72-.78 1.2-2.16 1.58-4 1.79a3.9 3.9 0 0 0-2.15.82l-.35.36c-.44.47-.48.51-1.68.51.93-8.95 1.9-18.2-.57-27.11h1.01a1.13 1.13 0 0 1 .51.08c.09.05.14.14.18.34l.06.29.17.2a3 3 0 0 0 1.77.83c.33 0 .68.06 1.05.07a5.85 5.85 0 0 1 2 .32 2.88 2.88 0 0 1 .83.53 5.44 5.44 0 0 1 1.35 2.25c.13.37.22.76.33 1.14a26.55 26.55 0 0 1-2.31 2.65 1 1 0 0 0 .69 1.72 1 1 0 0 0 .69-.27c.07-.06.67-.65 1.52-1.64a29 29 0 0 1 .51 6z"/></svg>