<?xml version="1.0" encoding="utf-8"?>
<!-- Generator: Adobe Illustrator 17.1.0, SVG Export Plug-In . SVG Version: 6.00 Build 0)  -->
<!DOCTYPE svg PUBLIC "-//W3C//DTD SVG 1.1//EN" "http://www.w3.org/Graphics/SVG/1.1/DTD/svg11.dtd">
<svg version="1.1" id="Layer_1" xmlns="http://www.w3.org/2000/svg" xmlns:xlink="http://www.w3.org/1999/xlink" x="0px" y="0px"
	 viewBox="0 0 144 144" enable-background="new 0 0 144 144" xml:space="preserve">
<g>
	<path fill="#FFFFFF" d="M101.34,59.295c0-0.021-0.006-0.039-0.008-0.06c-0.009-0.081-0.03-0.157-0.062-0.229
		c-0.006-0.013-0.005-0.027-0.011-0.039c-0.004-0.008-0.012-0.012-0.015-0.02c-0.047-0.083-0.103-0.159-0.174-0.223
		c-0.015-0.013-0.033-0.021-0.049-0.033c-0.039-0.03-0.077-0.062-0.123-0.084l-25.53-12.768c-0.228-0.112-0.495-0.112-0.722,0
		L49.115,58.605c-0.045,0.022-0.083,0.054-0.123,0.084c-0.016,0.013-0.034,0.021-0.049,0.034c-0.071,0.063-0.128,0.138-0.172,0.22
		c-0.005,0.009-0.012,0.014-0.018,0.022c-0.007,0.013-0.006,0.028-0.011,0.043c-0.031,0.07-0.05,0.143-0.06,0.22
		c-0.003,0.023-0.009,0.045-0.009,0.068c-0.002,0.01-0.005,0.019-0.005,0.03V91.24c0,0.305,0.173,0.586,0.446,0.722l25.532,12.767
		c0.007,0.004,0.015,0.002,0.021,0.005c0.101,0.047,0.21,0.076,0.327,0.078c0.005,0,0.008,0.002,0.012,0.002
		s0.007-0.002,0.012-0.002c0.117-0.002,0.228-0.031,0.326-0.078c0.008-0.003,0.016-0.001,0.023-0.005l25.53-12.767
		c0.273-0.136,0.446-0.417,0.446-0.722V59.327C101.345,59.316,101.34,59.306,101.34,59.295z M75.007,71.188l-10.964-5.481
		L87.77,53.845l10.965,5.481L75.007,71.188z M75.007,47.463l11.86,5.93L63.14,65.256l-11.86-5.929L75.007,47.463z M50.283,60.633
		L74.2,72.59v30.109L50.283,90.741V60.633z M75.813,102.699V72.59L99.73,60.633v30.108L75.813,102.699z"/>
	<path fill="#FFFFFF" d="M98.277,83.316c-0.224,0-0.404,0.181-0.404,0.403v5.726l-8.637,4.318c-0.199,0.1-0.28,0.342-0.181,0.542
		c0.071,0.141,0.214,0.223,0.362,0.223l0.18-0.043l8.859-4.43c0.138-0.068,0.224-0.208,0.224-0.36V83.72
		C98.681,83.497,98.499,83.316,98.277,83.316z"/>
	<path fill="#FFFFFF" d="M72.483,86.425c-0.223,0-0.404,0.182-0.404,0.404v11.646c0,0.224,0.181,0.403,0.404,0.403
		c0.223,0,0.403-0.18,0.403-0.403V86.829C72.887,86.606,72.706,86.425,72.483,86.425z"/>
</g>
</svg>
