<?xml version="1.0" encoding="utf-8"?>
<!-- Generator: Adobe Illustrator 17.1.0, SVG Export Plug-In . SVG Version: 6.00 Build 0)  -->
<!DOCTYPE svg PUBLIC "-//W3C//DTD SVG 1.1//EN" "http://www.w3.org/Graphics/SVG/1.1/DTD/svg11.dtd">
<svg version="1.1" id="Layer_1" xmlns="http://www.w3.org/2000/svg" xmlns:xlink="http://www.w3.org/1999/xlink" x="0px" y="0px"
	 viewBox="0 0 144 144" enable-background="new 0 0 144 144" xml:space="preserve">
<g>
	<g>
		<path d="M72.904,103.549c1.003,0,2.055-0.094,3.126-0.279l0.177-0.03l4.478-2.597c1.238-0.719,1.237-2.253,1.041-3.046
			l-2.791-11.278c-0.225-0.757-1.006-2.057-2.543-2.125l-7.67-0.1c-0.14-0.009-0.607-0.077-0.76-0.623
			c-0.04-0.135-3.946-13.601,0.579-23.374l0.038-0.094c0.002-0.005,0.176-0.487,0.806-0.487l5.226,0.052
			c0.384,0.031,1.978,0.059,3.049-2.105l5.065-9.819c0.81-1.534,0.184-2.774-0.31-3.274l-3.069-3.713l-0.176-0.167
			c-0.086-0.063-2.136-1.551-5.296-1.551c-1.709,0-3.423,0.433-5.082,1.28c-0.242,0.12-5.985,3.031-9.231,10.966
			c-0.325,0.624-7.89,15.546-1.953,37.682C57.634,89.014,60.283,103.549,72.904,103.549z M76.334,86.192
			c0.445,0.021,0.668,0.653,0.671,0.653v-0.001l2.779,11.232c0.049,0.196,0.072,0.733-0.104,0.835l-3.559,2.064l-2.804-14.823
			L76.334,86.192z M80.909,45.686l0.098,0.104c0.003,0.002,0.28,0.295-0.055,0.929l-5.077,9.843
			c-0.479,0.966-0.986,1.015-1.037,1.021l-2.773-0.031l6.423-14.794L80.909,45.686z M61.374,52.026
			c2.982-7.281,8.255-9.988,8.317-10.02c1.386-0.708,2.794-1.067,4.184-1.067c1.937,0,3.343,0.701,3.871,1.012l-6.768,15.588
			l-1.359-0.016c-1.755-0.121-2.639,1.052-2.91,1.771c-4.82,10.462-0.837,24.166-0.669,24.729c0.449,1.604,1.913,2.054,2.631,2.068
			l3.627,0.048l2.881,15.229c-0.78,0.111-1.545,0.179-2.274,0.179c-10.929,0-13.232-12.49-13.345-13.11
			C53.816,67.007,61.26,52.255,61.374,52.026z"/>
	</g>
</g>
</svg>
