<?xml version="1.0" encoding="utf-8"?>
<!-- Generator: Adobe Illustrator 17.1.0, SVG Export Plug-In . SVG Version: 6.00 Build 0)  -->
<!DOCTYPE svg PUBLIC "-//W3C//DTD SVG 1.1//EN" "http://www.w3.org/Graphics/SVG/1.1/DTD/svg11.dtd">
<svg version="1.1" id="Layer_1" xmlns="http://www.w3.org/2000/svg" xmlns:xlink="http://www.w3.org/1999/xlink" x="0px" y="0px"
	 viewBox="0 0 216 216" enable-background="new 0 0 216 216" xml:space="preserve">
<g>
	<path fill="#FFFFFF" d="M137.71,142.252H80.085c-0.553,0-1-0.447-1-1v-66c0-0.552,0.447-1,1-1h57.625c0.553,0,1,0.448,1,1v66
		C138.71,141.805,138.263,142.252,137.71,142.252z M81.085,140.252h55.625v-64H81.085V140.252z"/>
	<g>
		<path fill="#FFFFFF" d="M126.021,94.044c-3.885,0-7.047-3.162-7.047-7.048c0-3.886,3.162-7.047,7.047-7.047
			c3.887,0,7.047,3.161,7.047,7.047C133.067,90.883,129.907,94.044,126.021,94.044z M126.021,81.45
			c-3.059,0-5.547,2.488-5.547,5.547c0,3.059,2.488,5.548,5.547,5.548s5.547-2.489,5.547-5.548
			C131.567,83.938,129.079,81.45,126.021,81.45z"/>
		<path fill="#FFFFFF" d="M126.021,88.325c-0.723,0-1.405-0.683-1.405-1.405c0-2.333,0.903-4.617,0.94-4.713
			c0.152-0.38,0.777-0.38,0.93,0c0.037,0.096,0.94,2.38,0.94,4.713C127.426,87.642,126.743,88.325,126.021,88.325z M126.021,84.056
			c-0.207,0.803-0.405,1.838-0.405,2.863c0,0.178,0.228,0.405,0.405,0.405c0.178,0,0.405-0.227,0.405-0.405
			C126.426,85.895,126.227,84.859,126.021,84.056z"/>
		<g>
			<path fill="#FFFFFF" d="M130.391,87.498h-0.593c-0.275,0-0.5-0.224-0.5-0.5c0-0.276,0.225-0.5,0.5-0.5h0.593
				c0.276,0,0.5,0.224,0.5,0.5C130.891,87.274,130.667,87.498,130.391,87.498z"/>
			<path fill="#FFFFFF" d="M122.243,87.498h-0.593c-0.276,0-0.5-0.224-0.5-0.5c0-0.276,0.224-0.5,0.5-0.5h0.593
				c0.275,0,0.5,0.224,0.5,0.5C122.743,87.274,122.519,87.498,122.243,87.498z"/>
		</g>
		<g>
			<path fill="#FFFFFF" d="M129.11,90.587c-0.129,0-0.256-0.049-0.354-0.146l-0.419-0.417c-0.195-0.195-0.195-0.512,0-0.708
				c0.194-0.195,0.512-0.195,0.707,0l0.419,0.418c0.195,0.195,0.195,0.512,0,0.707C129.366,90.539,129.237,90.587,129.11,90.587z"/>
			<path fill="#FFFFFF" d="M123.349,84.827c-0.128,0-0.256-0.049-0.354-0.146l-0.419-0.419c-0.195-0.195-0.195-0.512,0-0.707
				c0.195-0.195,0.512-0.195,0.707,0l0.419,0.419c0.195,0.195,0.195,0.512,0,0.707C123.604,84.778,123.477,84.827,123.349,84.827z"
				/>
		</g>
		<g>
			<path fill="#FFFFFF" d="M126.019,91.868c-0.276,0-0.5-0.224-0.5-0.5v-0.592c0-0.276,0.224-0.5,0.5-0.5c0.276,0,0.5,0.224,0.5,0.5
				v0.592C126.519,91.644,126.296,91.868,126.019,91.868z"/>
		</g>
		<g>
			<path fill="#FFFFFF" d="M122.929,90.587c-0.128,0-0.256-0.049-0.354-0.146c-0.195-0.195-0.195-0.512,0-0.707l0.418-0.418
				c0.195-0.195,0.512-0.195,0.707,0c0.195,0.195,0.195,0.512,0,0.708l-0.418,0.417C123.185,90.539,123.057,90.587,122.929,90.587z"
				/>
			<path fill="#FFFFFF" d="M128.69,84.826c-0.129,0-0.256-0.049-0.354-0.146c-0.195-0.195-0.195-0.512,0-0.708l0.418-0.417
				c0.195-0.195,0.512-0.195,0.707,0c0.195,0.195,0.195,0.512,0,0.707l-0.418,0.418C128.946,84.777,128.817,84.826,128.69,84.826z"
				/>
		</g>
	</g>
	<g>
		<path fill="#FFFFFF" d="M108.679,94.044c-1.882,0-3.651-0.733-4.982-2.063c-2.747-2.748-2.747-7.219,0-9.967
			c1.332-1.331,3.102-2.064,4.983-2.064c1.882,0,3.652,0.733,4.983,2.064c2.748,2.747,2.748,7.218,0,9.966
			C112.332,93.312,110.562,94.044,108.679,94.044z M108.68,81.45c-1.481,0-2.874,0.577-3.923,1.625
			c-2.162,2.163-2.162,5.683,0,7.846c1.048,1.047,2.44,1.624,3.922,1.624c1.482,0,2.876-0.577,3.924-1.625
			c2.162-2.163,2.162-5.682,0-7.845C111.555,82.027,110.161,81.45,108.68,81.45z"/>
		<path fill="#FFFFFF" d="M108.734,88.322c-0.386,0-0.748-0.141-0.993-0.387c-0.246-0.245-0.387-0.607-0.387-0.993
			s0.141-0.748,0.387-0.994c1.648-1.65,3.902-2.626,3.998-2.667c0.188-0.08,0.405-0.038,0.55,0.106
			c0.144,0.144,0.186,0.363,0.106,0.55c-0.041,0.095-1.018,2.349-2.668,3.998C109.483,88.181,109.12,88.322,108.734,88.322z
			 M110.761,84.917c-0.715,0.421-1.588,1.014-2.312,1.739c-0.057,0.057-0.094,0.169-0.094,0.286c0,0.117,0.037,0.229,0.094,0.286
			c0.113,0.115,0.459,0.115,0.572,0C109.747,86.502,110.34,85.63,110.761,84.917z"/>
		<g>
			<path fill="#FFFFFF" d="M111.77,90.587c-0.128,0-0.256-0.049-0.354-0.146l-0.419-0.419c-0.195-0.195-0.195-0.512,0-0.707
				c0.195-0.195,0.512-0.195,0.707,0l0.419,0.419c0.195,0.195,0.195,0.512,0,0.707C112.025,90.539,111.897,90.587,111.77,90.587z"/>
			<path fill="#FFFFFF" d="M106.008,84.826c-0.128,0-0.256-0.049-0.354-0.146l-0.419-0.418c-0.195-0.195-0.195-0.512,0-0.707
				c0.195-0.195,0.512-0.195,0.707,0l0.419,0.417c0.195,0.195,0.195,0.512,0,0.708C106.265,84.777,106.136,84.826,106.008,84.826z"
				/>
		</g>
		<g>
			<path fill="#FFFFFF" d="M108.679,91.867c-0.276,0-0.5-0.224-0.5-0.5v-0.592c0-0.276,0.224-0.5,0.5-0.5c0.276,0,0.5,0.224,0.5,0.5
				v0.592C109.179,91.643,108.955,91.867,108.679,91.867z"/>
			<path fill="#FFFFFF" d="M108.679,83.719c-0.275,0-0.5-0.224-0.5-0.499v-0.593c0-0.276,0.223-0.5,0.499-0.5h0.001
				c0.275,0,0.5,0.224,0.5,0.499v0.593C109.179,83.495,108.955,83.719,108.679,83.719L108.679,83.719z"/>
		</g>
		<g>
			<path fill="#FFFFFF" d="M105.589,90.587c-0.129,0-0.256-0.049-0.354-0.146c-0.195-0.195-0.195-0.512,0-0.707l0.418-0.419
				c0.195-0.195,0.512-0.195,0.707,0c0.195,0.195,0.195,0.512,0,0.707l-0.418,0.419C105.845,90.539,105.716,90.587,105.589,90.587z"
				/>
		</g>
		<g>
			<path fill="#FFFFFF" d="M104.899,87.496h-0.592c-0.275,0-0.5-0.224-0.5-0.5c0-0.276,0.225-0.5,0.5-0.5h0.592
				c0.277,0,0.5,0.224,0.5,0.5C105.399,87.272,105.177,87.496,104.899,87.496z"/>
			<path fill="#FFFFFF" d="M113.048,87.496h-0.592c-0.276,0-0.5-0.224-0.5-0.5c0-0.276,0.224-0.5,0.5-0.5h0.592
				c0.275,0,0.5,0.224,0.5,0.5C113.548,87.272,113.323,87.496,113.048,87.496z"/>
		</g>
	</g>
	<g>
		<path fill="#FFFFFF" d="M91.339,94.045c-1.882,0-3.651-0.733-4.982-2.064c-1.331-1.331-2.064-3.101-2.064-4.983
			c0-1.883,0.732-3.652,2.063-4.983c1.331-1.331,3.102-2.064,4.983-2.064c1.883,0,3.652,0.733,4.983,2.064
			c2.748,2.748,2.748,7.219,0,9.967C94.991,93.312,93.222,94.045,91.339,94.045z M91.339,81.45c-1.481,0-2.875,0.577-3.923,1.625
			c-2.163,2.163-2.162,5.682,0.001,7.846c1.048,1.047,2.44,1.625,3.922,1.625c1.482,0,2.875-0.577,3.923-1.625
			c2.163-2.163,2.163-5.683,0-7.846C94.214,82.027,92.821,81.45,91.339,81.45z"/>
		<path fill="#FFFFFF" d="M94.596,90.753c-0.066,0-0.134-0.013-0.197-0.04c-0.095-0.041-2.349-1.018-3.997-2.667
			c-0.246-0.246-0.387-0.608-0.387-0.994c0-0.386,0.141-0.748,0.387-0.994c0.49-0.49,1.496-0.49,1.986,0
			c1.65,1.651,2.627,3.903,2.668,3.998c0.08,0.188,0.038,0.406-0.106,0.55C94.854,90.703,94.726,90.753,94.596,90.753z
			 M91.395,86.672c-0.117,0-0.229,0.036-0.286,0.093c-0.057,0.057-0.094,0.17-0.094,0.287c0,0.117,0.037,0.23,0.094,0.287
			c0.727,0.726,1.598,1.318,2.312,1.739c-0.421-0.714-1.014-1.587-1.739-2.313C91.624,86.709,91.512,86.672,91.395,86.672z"/>
		<g>
			<path fill="#FFFFFF" d="M88.249,90.587c-0.128,0-0.256-0.049-0.354-0.146c-0.195-0.195-0.195-0.512,0-0.707l0.419-0.419
				c0.195-0.195,0.512-0.195,0.707,0c0.195,0.195,0.195,0.512,0,0.707l-0.419,0.419C88.505,90.539,88.377,90.587,88.249,90.587z"/>
			<path fill="#FFFFFF" d="M94.011,84.826c-0.128,0-0.256-0.049-0.353-0.146c-0.195-0.195-0.195-0.512,0-0.707l0.418-0.418
				c0.195-0.195,0.512-0.195,0.707,0c0.195,0.195,0.195,0.512,0,0.707l-0.418,0.418C94.267,84.777,94.139,84.826,94.011,84.826z"/>
		</g>
		<g>
			<path fill="#FFFFFF" d="M87.562,87.497H86.97c-0.276,0-0.5-0.224-0.5-0.5c0-0.276,0.224-0.5,0.5-0.5h0.592
				c0.276,0,0.5,0.224,0.5,0.5C88.062,87.273,87.838,87.497,87.562,87.497z"/>
			<path fill="#FFFFFF" d="M95.117,87.497c-0.276,0-0.499-0.223-0.5-0.499c-0.001-0.276,0.224-0.501,0.499-0.501l0.593-0.001
				c0.001,0,0.001,0,0.001,0c0.275,0,0.5,0.223,0.5,0.499c0,0.276-0.223,0.5-0.499,0.501L95.117,87.497
				C95.118,87.497,95.118,87.497,95.117,87.497z"/>
		</g>
		<g>
			<path fill="#FFFFFF" d="M88.668,84.825c-0.128,0-0.256-0.049-0.354-0.147l-0.419-0.419c-0.195-0.195-0.195-0.512,0-0.707
				c0.195-0.195,0.512-0.195,0.707,0l0.419,0.419c0.195,0.195,0.195,0.512,0,0.707C88.924,84.776,88.796,84.825,88.668,84.825z"/>
		</g>
		<g>
			<path fill="#FFFFFF" d="M91.341,83.718c-0.276,0-0.5-0.224-0.5-0.5v-0.592c0-0.276,0.224-0.5,0.5-0.5c0.276,0,0.5,0.224,0.5,0.5
				v0.592C91.841,83.495,91.617,83.718,91.341,83.718z"/>
			<path fill="#FFFFFF" d="M91.341,91.865c-0.276,0-0.5-0.224-0.5-0.5v-0.591c0-0.276,0.224-0.5,0.5-0.5c0.276,0,0.5,0.224,0.5,0.5
				v0.591C91.841,91.641,91.617,91.865,91.341,91.865z"/>
		</g>
	</g>
	<g>
		<g>
			<path fill="#FFFFFF" d="M122.825,123.529c-0.414,0-0.75-0.336-0.75-0.75v-11.455c0-0.414,0.336-0.75,0.75-0.75
				s0.75,0.336,0.75,0.75v11.455C123.575,123.193,123.239,123.529,122.825,123.529z"/>
			<path fill="#FFFFFF" d="M122.825,109.643c-0.414,0-0.75-0.336-0.75-0.75v-6.212c0-0.414,0.336-0.75,0.75-0.75
				s0.75,0.336,0.75,0.75v6.212C123.575,109.307,123.239,109.643,122.825,109.643z"/>
			<path fill="#FFFFFF" d="M124.521,111.377h-3.389c-0.276,0-0.5-0.225-0.5-0.5v-1.535c0-0.275,0.224-0.5,0.5-0.5h3.389
				c0.277,0,0.5,0.225,0.5,0.5v1.535C125.021,111.152,124.798,111.377,124.521,111.377z M121.632,110.377h2.389v-0.535h-2.389
				V110.377z"/>
		</g>
		<g>
			<path fill="#FFFFFF" d="M114.976,123.529c-0.414,0-0.75-0.336-0.75-0.75v-6.504c0-0.414,0.336-0.75,0.75-0.75
				c0.414,0,0.75,0.336,0.75,0.75v6.504C115.726,123.193,115.39,123.529,114.976,123.529z"/>
			<path fill="#FFFFFF" d="M114.976,114.594c-0.414,0-0.75-0.336-0.75-0.75V102.68c0-0.414,0.336-0.75,0.75-0.75
				c0.414,0,0.75,0.336,0.75,0.75v11.163C115.726,114.258,115.39,114.594,114.976,114.594z"/>
			<path fill="#FFFFFF" d="M116.671,116.326h-3.389c-0.277,0-0.5-0.223-0.5-0.5v-1.533c0-0.277,0.223-0.5,0.5-0.5h3.389
				c0.277,0,0.5,0.223,0.5,0.5v1.533C117.171,116.104,116.948,116.326,116.671,116.326z M113.782,115.326h2.389v-0.533h-2.389
				V115.326z"/>
		</g>
		<g>
			<path fill="#FFFFFF" d="M107.126,123.529c-0.414,0-0.75-0.336-0.75-0.75v-7.721c0-0.414,0.336-0.75,0.75-0.75
				c0.414,0,0.75,0.336,0.75,0.75v7.721C107.876,123.193,107.54,123.529,107.126,123.529z"/>
			<path fill="#FFFFFF" d="M107.126,113.377c-0.414,0-0.75-0.336-0.75-0.75v-9.947c0-0.414,0.336-0.75,0.75-0.75
				c0.414,0,0.75,0.336,0.75,0.75v9.947C107.876,113.041,107.54,113.377,107.126,113.377z"/>
			<path fill="#FFFFFF" d="M108.821,115.111h-3.389c-0.277,0-0.5-0.225-0.5-0.5v-1.535c0-0.275,0.223-0.5,0.5-0.5h3.389
				c0.276,0,0.5,0.225,0.5,0.5v1.535C109.321,114.887,109.098,115.111,108.821,115.111z M105.933,114.111h2.389v-0.535h-2.389
				V114.111z"/>
		</g>
	</g>
	<g>
		<g>
			<path fill="#FFFFFF" d="M98.058,108.051c-0.275,0-0.5-0.223-0.5-0.5v-0.563c0-0.276,0.225-0.5,0.5-0.5c0.277,0,0.5,0.224,0.5,0.5
				v0.563C98.558,107.828,98.335,108.051,98.058,108.051z"/>
			<path fill="#FFFFFF" d="M98.058,102.989c-0.275,0-0.5-0.224-0.5-0.5v-0.562c0-0.276,0.225-0.5,0.5-0.5c0.277,0,0.5,0.224,0.5,0.5
				v0.562C98.558,102.765,98.335,102.989,98.058,102.989z"/>
			<path fill="#FFFFFF" d="M95.808,105.239h-0.562c-0.275,0-0.5-0.224-0.5-0.5c0-0.276,0.225-0.5,0.5-0.5h0.562
				c0.277,0,0.5,0.224,0.5,0.5C96.308,105.015,96.085,105.239,95.808,105.239z"/>
			<path fill="#FFFFFF" d="M100.87,105.239h-0.562c-0.276,0-0.5-0.224-0.5-0.5c0-0.276,0.224-0.5,0.5-0.5h0.562
				c0.277,0,0.5,0.224,0.5,0.5C101.37,105.015,101.147,105.239,100.87,105.239z"/>
			<path fill="#FFFFFF" d="M96.069,107.227c-0.129,0-0.257-0.049-0.354-0.146c-0.194-0.196-0.194-0.513,0.001-0.708l0.399-0.398
				c0.195-0.193,0.512-0.194,0.707,0.001c0.195,0.196,0.195,0.513,0,0.708l-0.398,0.398
				C96.325,107.178,96.196,107.227,96.069,107.227z"/>
			<path fill="#FFFFFF" d="M99.647,103.648c-0.127,0-0.256-0.049-0.354-0.146c-0.195-0.195-0.195-0.512,0-0.707l0.398-0.398
				c0.195-0.195,0.512-0.195,0.707,0c0.195,0.195,0.195,0.512,0,0.707l-0.398,0.399C99.903,103.599,99.776,103.648,99.647,103.648z"
				/>
			<path fill="#FFFFFF" d="M96.468,103.649c-0.127,0-0.256-0.049-0.353-0.146l-0.399-0.399c-0.195-0.195-0.195-0.512,0-0.707
				c0.195-0.195,0.512-0.195,0.707,0l0.398,0.399c0.195,0.195,0.195,0.512,0,0.707C96.724,103.6,96.597,103.649,96.468,103.649z"/>
			<path fill="#FFFFFF" d="M100.046,107.227c-0.127,0-0.256-0.049-0.354-0.146l-0.396-0.396c-0.195-0.195-0.195-0.512,0-0.707
				c0.195-0.195,0.512-0.195,0.707,0l0.396,0.396c0.195,0.195,0.195,0.512,0,0.707C100.302,107.178,100.175,107.227,100.046,107.227
				z"/>
			<path fill="#FFFFFF" d="M98.058,107.489c-1.516,0-2.75-1.233-2.75-2.75c0-1.517,1.234-2.75,2.75-2.75
				c1.518,0,2.75,1.233,2.75,2.75C100.808,106.255,99.575,107.489,98.058,107.489z M98.058,102.989c-0.965,0-1.75,0.785-1.75,1.75
				c0,0.965,0.785,1.75,1.75,1.75c0.965,0,1.75-0.785,1.75-1.75C99.808,103.774,99.022,102.989,98.058,102.989z"/>
		</g>
		<g>
			<path fill="#FFFFFF" d="M88.273,108.051c-0.276,0-0.5-0.223-0.5-0.5v-0.563c0-0.276,0.224-0.5,0.5-0.5c0.276,0,0.5,0.224,0.5,0.5
				v0.563C88.773,107.828,88.55,108.051,88.273,108.051z"/>
			<path fill="#FFFFFF" d="M88.273,102.989c-0.276,0-0.5-0.224-0.5-0.5v-0.562c0-0.276,0.224-0.5,0.5-0.5c0.276,0,0.5,0.224,0.5,0.5
				v0.562C88.773,102.765,88.55,102.989,88.273,102.989z"/>
			<path fill="#FFFFFF" d="M86.023,105.239h-0.562c-0.276,0-0.5-0.224-0.5-0.5c0-0.276,0.224-0.5,0.5-0.5h0.562
				c0.276,0,0.5,0.224,0.5,0.5C86.523,105.015,86.3,105.239,86.023,105.239z"/>
			<path fill="#FFFFFF" d="M91.086,105.239h-0.563c-0.275,0-0.5-0.224-0.5-0.5c0-0.276,0.225-0.5,0.5-0.5h0.563
				c0.276,0,0.5,0.224,0.5,0.5C91.586,105.015,91.362,105.239,91.086,105.239z"/>
			<path fill="#FFFFFF" d="M86.284,107.227c-0.128,0-0.256-0.049-0.354-0.146c-0.195-0.196-0.195-0.513,0-0.708l0.398-0.398
				c0.195-0.193,0.513-0.194,0.708,0.001c0.194,0.196,0.194,0.513-0.001,0.708l-0.398,0.398
				C86.54,107.178,86.412,107.227,86.284,107.227z"/>
			<path fill="#FFFFFF" d="M89.863,103.648c-0.128,0-0.256-0.049-0.353-0.146c-0.195-0.195-0.195-0.512,0-0.707l0.398-0.398
				c0.195-0.195,0.512-0.195,0.707,0c0.195,0.195,0.195,0.512,0,0.707l-0.398,0.399C90.119,103.599,89.991,103.648,89.863,103.648z"
				/>
			<path fill="#FFFFFF" d="M86.684,103.649c-0.128,0-0.256-0.049-0.354-0.146l-0.399-0.399c-0.195-0.195-0.195-0.512,0-0.707
				c0.195-0.195,0.512-0.195,0.707,0l0.399,0.399c0.195,0.195,0.195,0.512,0,0.707C86.939,103.6,86.812,103.649,86.684,103.649z"/>
			<path fill="#FFFFFF" d="M90.262,107.227c-0.128,0-0.256-0.049-0.354-0.146l-0.396-0.396c-0.195-0.195-0.195-0.512,0-0.707
				c0.195-0.195,0.512-0.195,0.707,0l0.396,0.396c0.195,0.195,0.195,0.512,0,0.707C90.518,107.178,90.39,107.227,90.262,107.227z"/>
			<path fill="#FFFFFF" d="M88.273,107.489c-1.517,0-2.75-1.233-2.75-2.75c0-1.517,1.233-2.75,2.75-2.75s2.75,1.233,2.75,2.75
				C91.023,106.255,89.79,107.489,88.273,107.489z M88.273,102.989c-0.965,0-1.75,0.785-1.75,1.75c0,0.965,0.785,1.75,1.75,1.75
				c0.965,0,1.75-0.785,1.75-1.75C90.023,103.774,89.238,102.989,88.273,102.989z"/>
		</g>
	</g>
	<g>
		<g>
			<path fill="#FFFFFF" d="M98.058,117.885c-0.275,0-0.5-0.225-0.5-0.5v-0.562c0-0.277,0.225-0.5,0.5-0.5c0.277,0,0.5,0.223,0.5,0.5
				v0.562C98.558,117.66,98.335,117.885,98.058,117.885z"/>
			<path fill="#FFFFFF" d="M98.058,112.822c-0.275,0-0.5-0.225-0.5-0.5v-0.562c0-0.277,0.225-0.5,0.5-0.5c0.277,0,0.5,0.223,0.5,0.5
				v0.562C98.558,112.598,98.335,112.822,98.058,112.822z"/>
			<path fill="#FFFFFF" d="M95.808,115.072h-0.562c-0.275,0-0.5-0.225-0.5-0.5c0-0.277,0.225-0.5,0.5-0.5h0.562
				c0.277,0,0.5,0.223,0.5,0.5C96.308,114.848,96.085,115.072,95.808,115.072z"/>
			<path fill="#FFFFFF" d="M100.87,115.072h-0.562c-0.276,0-0.5-0.225-0.5-0.5c0-0.277,0.224-0.5,0.5-0.5h0.562
				c0.277,0,0.5,0.223,0.5,0.5C101.37,114.848,101.147,115.072,100.87,115.072z"/>
			<path fill="#FFFFFF" d="M96.069,117.061c-0.129,0-0.257-0.049-0.354-0.146c-0.194-0.195-0.194-0.512,0.001-0.707l0.399-0.398
				c0.195-0.195,0.512-0.195,0.707,0c0.195,0.195,0.195,0.512,0,0.707l-0.398,0.398C96.325,117.012,96.196,117.061,96.069,117.061z"
				/>
			<path fill="#FFFFFF" d="M99.647,113.482c-0.127,0-0.256-0.049-0.354-0.146c-0.195-0.195-0.195-0.512,0-0.707l0.398-0.398
				c0.195-0.195,0.512-0.195,0.707,0c0.195,0.195,0.195,0.512,0,0.707l-0.398,0.398C99.903,113.434,99.776,113.482,99.647,113.482z"
				/>
			<path fill="#FFFFFF" d="M96.468,113.482c-0.127,0-0.255-0.049-0.353-0.146l-0.399-0.398c-0.195-0.195-0.195-0.512-0.001-0.707
				c0.195-0.195,0.512-0.195,0.707,0l0.399,0.398c0.195,0.193,0.195,0.512,0.001,0.707
				C96.725,113.434,96.597,113.482,96.468,113.482z"/>
			<path fill="#FFFFFF" d="M100.046,117.061c-0.127,0-0.256-0.049-0.354-0.146l-0.396-0.396c-0.195-0.195-0.195-0.512,0-0.707
				c0.195-0.195,0.512-0.195,0.707,0l0.396,0.396c0.195,0.195,0.195,0.512,0,0.707C100.302,117.012,100.175,117.061,100.046,117.061
				z"/>
			<path fill="#FFFFFF" d="M98.058,117.322c-1.516,0-2.75-1.234-2.75-2.75c0-1.518,1.234-2.75,2.75-2.75
				c1.518,0,2.75,1.232,2.75,2.75C100.808,116.088,99.575,117.322,98.058,117.322z M98.058,112.822c-0.965,0-1.75,0.785-1.75,1.75
				c0,0.965,0.785,1.75,1.75,1.75c0.965,0,1.75-0.785,1.75-1.75C99.808,113.607,99.022,112.822,98.058,112.822z"/>
		</g>
		<g>
			<path fill="#FFFFFF" d="M88.273,117.885c-0.276,0-0.5-0.225-0.5-0.5v-0.562c0-0.277,0.224-0.5,0.5-0.5c0.276,0,0.5,0.223,0.5,0.5
				v0.562C88.773,117.66,88.55,117.885,88.273,117.885z"/>
			<path fill="#FFFFFF" d="M88.273,112.822c-0.276,0-0.5-0.225-0.5-0.5v-0.562c0-0.277,0.224-0.5,0.5-0.5c0.276,0,0.5,0.223,0.5,0.5
				v0.562C88.773,112.598,88.55,112.822,88.273,112.822z"/>
			<path fill="#FFFFFF" d="M86.023,115.072h-0.562c-0.276,0-0.5-0.225-0.5-0.5c0-0.277,0.224-0.5,0.5-0.5h0.562
				c0.276,0,0.5,0.223,0.5,0.5C86.523,114.848,86.3,115.072,86.023,115.072z"/>
			<path fill="#FFFFFF" d="M91.086,115.072h-0.563c-0.275,0-0.5-0.225-0.5-0.5c0-0.277,0.225-0.5,0.5-0.5h0.563
				c0.276,0,0.5,0.223,0.5,0.5C91.586,114.848,91.362,115.072,91.086,115.072z"/>
			<path fill="#FFFFFF" d="M86.284,117.061c-0.128,0-0.256-0.049-0.354-0.146c-0.195-0.195-0.195-0.512,0-0.707l0.398-0.398
				c0.195-0.195,0.513-0.195,0.708,0c0.194,0.195,0.194,0.512-0.001,0.707l-0.398,0.398
				C86.54,117.012,86.412,117.061,86.284,117.061z"/>
			<path fill="#FFFFFF" d="M89.863,113.482c-0.128,0-0.256-0.049-0.353-0.146c-0.195-0.195-0.195-0.512,0-0.707l0.398-0.398
				c0.195-0.195,0.512-0.195,0.707,0c0.195,0.195,0.195,0.512,0,0.707l-0.398,0.398C90.119,113.434,89.991,113.482,89.863,113.482z"
				/>
			<path fill="#FFFFFF" d="M86.684,113.482c-0.128,0-0.255-0.049-0.353-0.146l-0.4-0.398c-0.195-0.195-0.195-0.512,0-0.707
				c0.195-0.195,0.512-0.195,0.707,0l0.398,0.398c0.196,0.193,0.196,0.512,0.002,0.707C86.94,113.434,86.812,113.482,86.684,113.482
				z"/>
			<path fill="#FFFFFF" d="M90.262,117.061c-0.128,0-0.256-0.049-0.354-0.146l-0.396-0.396c-0.195-0.195-0.195-0.512,0-0.707
				c0.195-0.195,0.512-0.195,0.707,0l0.396,0.396c0.195,0.195,0.195,0.512,0,0.707C90.518,117.012,90.39,117.061,90.262,117.061z"/>
			<path fill="#FFFFFF" d="M88.273,117.322c-1.517,0-2.75-1.234-2.75-2.75c0-1.518,1.233-2.75,2.75-2.75s2.75,1.232,2.75,2.75
				C91.023,116.088,89.79,117.322,88.273,117.322z M88.273,112.822c-0.965,0-1.75,0.785-1.75,1.75c0,0.965,0.785,1.75,1.75,1.75
				c0.965,0,1.75-0.785,1.75-1.75C90.023,113.607,89.238,112.822,88.273,112.822z"/>
		</g>
	</g>
	<g>
		<g>
			<path fill="#FFFFFF" d="M98.058,127.719c-0.275,0-0.5-0.225-0.5-0.5v-0.564c0-0.275,0.225-0.5,0.5-0.5c0.277,0,0.5,0.225,0.5,0.5
				v0.564C98.558,127.494,98.335,127.719,98.058,127.719z"/>
			<path fill="#FFFFFF" d="M98.058,122.656c-0.275,0-0.5-0.225-0.5-0.5v-0.562c0-0.277,0.225-0.5,0.5-0.5c0.277,0,0.5,0.223,0.5,0.5
				v0.562C98.558,122.432,98.335,122.656,98.058,122.656z"/>
			<path fill="#FFFFFF" d="M95.808,124.906h-0.562c-0.275,0-0.5-0.225-0.5-0.5c0-0.277,0.225-0.5,0.5-0.5h0.562
				c0.277,0,0.5,0.223,0.5,0.5C96.308,124.682,96.085,124.906,95.808,124.906z"/>
			<path fill="#FFFFFF" d="M100.87,124.906h-0.562c-0.276,0-0.5-0.225-0.5-0.5c0-0.277,0.224-0.5,0.5-0.5h0.562
				c0.277,0,0.5,0.223,0.5,0.5C101.37,124.682,101.147,124.906,100.87,124.906z"/>
			<path fill="#FFFFFF" d="M96.069,126.895c-0.129,0-0.257-0.049-0.354-0.146c-0.194-0.195-0.194-0.512,0.001-0.707l0.399-0.398
				c0.195-0.195,0.512-0.195,0.707,0c0.195,0.195,0.195,0.512,0,0.707l-0.398,0.398C96.325,126.846,96.196,126.895,96.069,126.895z"
				/>
			<path fill="#FFFFFF" d="M99.647,123.314c-0.127,0-0.256-0.049-0.354-0.146c-0.195-0.195-0.195-0.512,0-0.707l0.398-0.398
				c0.195-0.195,0.512-0.195,0.707,0c0.195,0.195,0.195,0.512,0,0.707l-0.398,0.398C99.903,123.266,99.776,123.314,99.647,123.314z"
				/>
			<path fill="#FFFFFF" d="M96.468,123.316c-0.127,0-0.256-0.049-0.353-0.146l-0.399-0.4c-0.195-0.195-0.195-0.512,0-0.707
				c0.195-0.195,0.512-0.195,0.707,0l0.398,0.4c0.195,0.195,0.195,0.512,0,0.707C96.724,123.268,96.597,123.316,96.468,123.316z"/>
			<path fill="#FFFFFF" d="M100.046,126.895c-0.127,0-0.256-0.049-0.354-0.146l-0.396-0.396c-0.195-0.195-0.195-0.512,0-0.707
				c0.195-0.195,0.512-0.195,0.707,0l0.396,0.396c0.195,0.195,0.195,0.512,0,0.707C100.302,126.846,100.175,126.895,100.046,126.895
				z"/>
			<path fill="#FFFFFF" d="M98.058,127.156c-1.516,0-2.75-1.234-2.75-2.75c0-1.517,1.234-2.75,2.75-2.75
				c1.518,0,2.75,1.233,2.75,2.75C100.808,125.922,99.575,127.156,98.058,127.156z M98.058,122.656c-0.965,0-1.75,0.785-1.75,1.75
				c0,0.965,0.785,1.75,1.75,1.75c0.965,0,1.75-0.785,1.75-1.75C99.808,123.441,99.022,122.656,98.058,122.656z"/>
		</g>
		<g>
			<path fill="#FFFFFF" d="M88.273,127.719c-0.276,0-0.5-0.225-0.5-0.5v-0.564c0-0.275,0.224-0.5,0.5-0.5c0.276,0,0.5,0.225,0.5,0.5
				v0.564C88.773,127.494,88.55,127.719,88.273,127.719z"/>
			<path fill="#FFFFFF" d="M88.273,122.656c-0.276,0-0.5-0.225-0.5-0.5v-0.562c0-0.277,0.224-0.5,0.5-0.5c0.276,0,0.5,0.223,0.5,0.5
				v0.562C88.773,122.432,88.55,122.656,88.273,122.656z"/>
			<path fill="#FFFFFF" d="M86.023,124.906h-0.562c-0.276,0-0.5-0.225-0.5-0.5c0-0.277,0.224-0.5,0.5-0.5h0.562
				c0.276,0,0.5,0.223,0.5,0.5C86.523,124.682,86.3,124.906,86.023,124.906z"/>
			<path fill="#FFFFFF" d="M91.086,124.906h-0.563c-0.275,0-0.5-0.225-0.5-0.5c0-0.277,0.225-0.5,0.5-0.5h0.563
				c0.276,0,0.5,0.223,0.5,0.5C91.586,124.682,91.362,124.906,91.086,124.906z"/>
			<path fill="#FFFFFF" d="M86.284,126.895c-0.128,0-0.256-0.049-0.354-0.146c-0.195-0.195-0.195-0.512,0-0.707l0.398-0.398
				c0.195-0.195,0.513-0.195,0.708,0c0.194,0.195,0.194,0.512-0.001,0.707l-0.398,0.398
				C86.54,126.846,86.412,126.895,86.284,126.895z"/>
			<path fill="#FFFFFF" d="M89.863,123.314c-0.128,0-0.256-0.049-0.353-0.146c-0.195-0.195-0.195-0.512,0-0.707l0.398-0.398
				c0.195-0.195,0.512-0.195,0.707,0c0.195,0.195,0.195,0.512,0,0.707l-0.398,0.398C90.119,123.266,89.991,123.314,89.863,123.314z"
				/>
			<path fill="#FFFFFF" d="M86.684,123.316c-0.128,0-0.256-0.049-0.354-0.146l-0.399-0.4c-0.195-0.195-0.195-0.512,0-0.707
				c0.195-0.195,0.512-0.195,0.707,0l0.399,0.4c0.195,0.195,0.195,0.512,0,0.707C86.939,123.268,86.812,123.316,86.684,123.316z"/>
			<path fill="#FFFFFF" d="M90.262,126.895c-0.128,0-0.256-0.049-0.354-0.146l-0.396-0.396c-0.195-0.195-0.195-0.512,0-0.707
				c0.195-0.195,0.512-0.195,0.707,0l0.396,0.396c0.195,0.195,0.195,0.512,0,0.707C90.518,126.846,90.39,126.895,90.262,126.895z"/>
			<path fill="#FFFFFF" d="M88.273,127.156c-1.517,0-2.75-1.234-2.75-2.75c0-1.517,1.233-2.75,2.75-2.75s2.75,1.233,2.75,2.75
				C91.023,125.922,89.79,127.156,88.273,127.156z M88.273,122.656c-0.965,0-1.75,0.785-1.75,1.75c0,0.965,0.785,1.75,1.75,1.75
				c0.965,0,1.75-0.785,1.75-1.75C90.023,123.441,89.238,122.656,88.273,122.656z"/>
		</g>
	</g>
	<path fill="#FFFFFF" d="M130.095,105.993c-1.051,0-1.906-0.854-1.906-1.906c0-1.052,0.855-1.906,1.906-1.906
		s1.906,0.854,1.906,1.906C132.001,105.138,131.145,105.993,130.095,105.993z M130.095,103.18c-0.5,0-0.906,0.407-0.906,0.906
		s0.406,0.906,0.906,0.906s0.906-0.407,0.906-0.906S130.595,103.18,130.095,103.18z"/>
	<path fill="#FFFFFF" d="M130.095,111.754c-1.051,0-1.906-0.854-1.906-1.906c0-1.051,0.855-1.906,1.906-1.906
		s1.906,0.855,1.906,1.906C132.001,110.9,131.145,111.754,130.095,111.754z M130.095,108.941c-0.5,0-0.906,0.408-0.906,0.906
		c0,0.5,0.406,0.906,0.906,0.906s0.906-0.406,0.906-0.906C131.001,109.35,130.595,108.941,130.095,108.941z"/>
	<path fill="#FFFFFF" d="M130.095,117.518c-1.051,0-1.906-0.855-1.906-1.906c0-1.051,0.855-1.906,1.906-1.906
		s1.906,0.855,1.906,1.906C132.001,116.662,131.145,117.518,130.095,117.518z M130.095,114.705c-0.5,0-0.906,0.406-0.906,0.906
		c0,0.5,0.406,0.906,0.906,0.906s0.906-0.406,0.906-0.906C131.001,115.111,130.595,114.705,130.095,114.705z"/>
	<path fill="#FFFFFF" d="M130.095,123.279c-1.051,0-1.906-0.855-1.906-1.906c0-1.051,0.855-1.906,1.906-1.906
		s1.906,0.856,1.906,1.906C132.001,122.424,131.145,123.279,130.095,123.279z M130.095,120.467c-0.5,0-0.906,0.406-0.906,0.906
		s0.406,0.906,0.906,0.906s0.906-0.406,0.906-0.906S130.595,120.467,130.095,120.467z"/>
	<path fill="#FFFFFF" d="M130.845,98.723H86.503c-0.275,0-0.5-0.224-0.5-0.5c0-0.276,0.225-0.5,0.5-0.5h44.342
		c0.276,0,0.5,0.224,0.5,0.5C131.345,98.5,131.121,98.723,130.845,98.723z"/>
	<g>
		<path fill="#FFFFFF" d="M86.498,132.789c-0.13,0-0.25-0.061-0.351-0.15c-0.09-0.09-0.14-0.221-0.14-0.35
			c0-0.131,0.05-0.26,0.14-0.35c0.2-0.201,0.53-0.191,0.711-0.012c0.09,0.102,0.149,0.221,0.149,0.361c0,0.129-0.06,0.26-0.149,0.35
			C86.769,132.729,86.638,132.789,86.498,132.789z"/>
		<path fill="#FFFFFF" d="M127.388,132.289c0-0.281,0.221-0.5,0.5-0.5l0,0c0.28,0,0.5,0.219,0.5,0.5l0,0c0,0.27-0.22,0.5-0.5,0.5
			l0,0C127.608,132.789,127.388,132.559,127.388,132.289z M124.428,132.289c0-0.281,0.229-0.5,0.5-0.5l0,0c0.28,0,0.5,0.219,0.5,0.5
			l0,0c0,0.27-0.22,0.5-0.5,0.5l0,0C124.657,132.789,124.428,132.559,124.428,132.289z M121.477,132.289c0-0.281,0.221-0.5,0.5-0.5
			l0,0c0.271,0,0.5,0.219,0.5,0.5l0,0c0,0.27-0.229,0.5-0.5,0.5l0,0C121.698,132.789,121.477,132.559,121.477,132.289z
			 M118.519,132.289c0-0.281,0.229-0.5,0.5-0.5l0,0c0.279,0,0.5,0.219,0.5,0.5l0,0c0,0.27-0.221,0.5-0.5,0.5l0,0
			C118.748,132.789,118.519,132.559,118.519,132.289z M115.567,132.289c0-0.281,0.221-0.5,0.5-0.5l0,0c0.271,0,0.5,0.219,0.5,0.5
			l0,0c0,0.27-0.229,0.5-0.5,0.5l0,0C115.788,132.789,115.567,132.559,115.567,132.289z M112.608,132.289c0-0.281,0.219-0.5,0.5-0.5
			l0,0c0.279,0,0.5,0.219,0.5,0.5l0,0c0,0.27-0.221,0.5-0.5,0.5l0,0C112.827,132.789,112.608,132.559,112.608,132.289z
			 M109.647,132.289c0-0.281,0.23-0.5,0.5-0.5l0,0c0.28,0,0.5,0.219,0.5,0.5l0,0c0,0.27-0.22,0.5-0.5,0.5l0,0
			C109.878,132.789,109.647,132.559,109.647,132.289z M106.698,132.289c0-0.281,0.22-0.5,0.5-0.5l0,0c0.27,0,0.5,0.219,0.5,0.5l0,0
			c0,0.27-0.23,0.5-0.5,0.5l0,0C106.918,132.789,106.698,132.559,106.698,132.289z M103.737,132.289c0-0.281,0.23-0.5,0.5-0.5l0,0
			c0.281,0,0.5,0.219,0.5,0.5l0,0c0,0.27-0.219,0.5-0.5,0.5l0,0C103.968,132.789,103.737,132.559,103.737,132.289z M100.788,132.289
			c0-0.281,0.22-0.5,0.5-0.5l0,0c0.269,0,0.5,0.219,0.5,0.5l0,0c0,0.27-0.231,0.5-0.5,0.5l0,0
			C101.008,132.789,100.788,132.559,100.788,132.289z M97.827,132.289c0-0.281,0.221-0.5,0.5-0.5l0,0c0.281,0,0.5,0.219,0.5,0.5l0,0
			c0,0.27-0.219,0.5-0.5,0.5l0,0C98.048,132.789,97.827,132.559,97.827,132.289z M94.868,132.289c0-0.281,0.229-0.5,0.5-0.5l0,0
			c0.279,0,0.5,0.219,0.5,0.5l0,0c0,0.27-0.221,0.5-0.5,0.5l0,0C95.098,132.789,94.868,132.559,94.868,132.289z M91.918,132.289
			c0-0.281,0.22-0.5,0.5-0.5l0,0c0.271,0,0.5,0.219,0.5,0.5l0,0c0,0.27-0.229,0.5-0.5,0.5l0,0
			C92.138,132.789,91.918,132.559,91.918,132.289z M88.958,132.289c0-0.281,0.23-0.5,0.5-0.5l0,0c0.279,0,0.5,0.219,0.5,0.5l0,0
			c0,0.27-0.221,0.5-0.5,0.5l0,0C89.188,132.789,88.958,132.559,88.958,132.289z"/>
		<path fill="#FFFFFF" d="M130.848,132.789c-0.14,0-0.26-0.061-0.36-0.15c-0.09-0.09-0.14-0.221-0.14-0.35
			c0-0.131,0.05-0.26,0.14-0.35c0.211-0.201,0.521-0.191,0.711-0.012c0.09,0.102,0.15,0.221,0.15,0.361c0,0.129-0.06,0.26-0.15,0.35
			C131.108,132.729,130.977,132.789,130.848,132.789z"/>
	</g>
	<g>
		<path fill="#FFFFFF" d="M86.498,135.779c-0.12,0-0.25-0.051-0.351-0.141c-0.09-0.1-0.14-0.23-0.14-0.359
			c0-0.131,0.05-0.26,0.14-0.352c0.19-0.189,0.53-0.18,0.711,0c0.09,0.092,0.149,0.221,0.149,0.352c0,0.129-0.06,0.26-0.149,0.359
			C86.769,135.729,86.638,135.779,86.498,135.779z"/>
		<path fill="#FFFFFF" d="M127.388,135.279c0-0.271,0.221-0.5,0.5-0.5l0,0c0.28,0,0.5,0.229,0.5,0.5l0,0c0,0.279-0.22,0.5-0.5,0.5
			l0,0C127.608,135.779,127.388,135.559,127.388,135.279z M124.428,135.279c0-0.271,0.229-0.5,0.5-0.5l0,0c0.28,0,0.5,0.229,0.5,0.5
			l0,0c0,0.279-0.22,0.5-0.5,0.5l0,0C124.657,135.779,124.428,135.559,124.428,135.279z M121.477,135.279c0-0.271,0.221-0.5,0.5-0.5
			l0,0c0.271,0,0.5,0.229,0.5,0.5l0,0c0,0.279-0.229,0.5-0.5,0.5l0,0C121.698,135.779,121.477,135.559,121.477,135.279z
			 M118.519,135.279c0-0.271,0.229-0.5,0.5-0.5l0,0c0.279,0,0.5,0.229,0.5,0.5l0,0c0,0.279-0.221,0.5-0.5,0.5l0,0
			C118.748,135.779,118.519,135.559,118.519,135.279z M115.567,135.279c0-0.271,0.221-0.5,0.5-0.5l0,0c0.271,0,0.5,0.229,0.5,0.5
			l0,0c0,0.279-0.229,0.5-0.5,0.5l0,0C115.788,135.779,115.567,135.559,115.567,135.279z M112.608,135.279
			c0-0.271,0.219-0.5,0.5-0.5l0,0c0.279,0,0.5,0.229,0.5,0.5l0,0c0,0.279-0.221,0.5-0.5,0.5l0,0
			C112.827,135.779,112.608,135.559,112.608,135.279z M109.647,135.279c0-0.271,0.23-0.5,0.5-0.5l0,0c0.28,0,0.5,0.229,0.5,0.5l0,0
			c0,0.279-0.22,0.5-0.5,0.5l0,0C109.878,135.779,109.647,135.559,109.647,135.279z M106.698,135.279c0-0.271,0.22-0.5,0.5-0.5l0,0
			c0.27,0,0.5,0.229,0.5,0.5l0,0c0,0.279-0.23,0.5-0.5,0.5l0,0C106.918,135.779,106.698,135.559,106.698,135.279z M103.737,135.279
			c0-0.271,0.23-0.5,0.5-0.5l0,0c0.281,0,0.5,0.229,0.5,0.5l0,0c0,0.279-0.219,0.5-0.5,0.5l0,0
			C103.968,135.779,103.737,135.559,103.737,135.279z M100.788,135.279c0-0.271,0.22-0.5,0.5-0.5l0,0c0.269,0,0.5,0.229,0.5,0.5l0,0
			c0,0.279-0.231,0.5-0.5,0.5l0,0C101.008,135.779,100.788,135.559,100.788,135.279z M97.827,135.279c0-0.271,0.221-0.5,0.5-0.5l0,0
			c0.281,0,0.5,0.229,0.5,0.5l0,0c0,0.279-0.219,0.5-0.5,0.5l0,0C98.048,135.779,97.827,135.559,97.827,135.279z M94.868,135.279
			c0-0.271,0.229-0.5,0.5-0.5l0,0c0.279,0,0.5,0.229,0.5,0.5l0,0c0,0.279-0.221,0.5-0.5,0.5l0,0
			C95.098,135.779,94.868,135.559,94.868,135.279z M91.918,135.279c0-0.271,0.22-0.5,0.5-0.5l0,0c0.271,0,0.5,0.229,0.5,0.5l0,0
			c0,0.279-0.229,0.5-0.5,0.5l0,0C92.138,135.779,91.918,135.559,91.918,135.279z M88.958,135.279c0-0.271,0.23-0.5,0.5-0.5l0,0
			c0.279,0,0.5,0.229,0.5,0.5l0,0c0,0.279-0.221,0.5-0.5,0.5l0,0C89.188,135.779,88.958,135.559,88.958,135.279z"/>
		<path fill="#FFFFFF" d="M130.848,135.779c-0.14,0-0.26-0.051-0.36-0.141c-0.09-0.1-0.14-0.23-0.14-0.359
			c0-0.131,0.05-0.25,0.14-0.352c0.201-0.189,0.531-0.189,0.711,0c0.09,0.092,0.15,0.221,0.15,0.352c0,0.129-0.06,0.26-0.15,0.359
			C131.108,135.729,130.977,135.779,130.848,135.779z"/>
	</g>
	<path fill="#FFFFFF" d="M130.845,128.025h-25.736c-0.277,0-0.5-0.225-0.5-0.5c0-0.277,0.223-0.5,0.5-0.5h25.736
		c0.276,0,0.5,0.223,0.5,0.5C131.345,127.801,131.121,128.025,130.845,128.025z"/>
</g>
</svg>
