<?xml version="1.0" encoding="utf-8"?>
<!-- Generator: Adobe Illustrator 17.1.0, SVG Export Plug-In . SVG Version: 6.00 Build 0)  -->
<!DOCTYPE svg PUBLIC "-//W3C//DTD SVG 1.1//EN" "http://www.w3.org/Graphics/SVG/1.1/DTD/svg11.dtd">
<svg version="1.1" id="Layer_1" xmlns="http://www.w3.org/2000/svg" xmlns:xlink="http://www.w3.org/1999/xlink" x="0px" y="0px"
	 viewBox="0 0 144 144" enable-background="new 0 0 144 144" xml:space="preserve">
<path d="M102,71.999c0-1.802-0.814-4.412-1.85-5.942c-0.021-0.031-2.156-3.242-2.156-6.802c0-3.593,2.262-7.314,2.285-7.35
	c0.965-1.56,1.721-4.185,1.721-5.975c0-2.167-1.701-3.93-3.795-3.93c-1.66,0-4.256,0.533-5.904,1.214
	c-0.037,0.015-3.545,1.439-6.961,1.439c-3.416,0-6.922-1.424-6.955-1.438C76.734,42.533,74.043,42,72.256,42h-0.174
	c-1.78,0-4.474,0.509-6.131,1.158c-0.037,0.016-3.863,1.495-7.292,1.495c-3.413,0-6.92-1.424-6.954-1.438
	C50.056,42.533,47.459,42,45.795,42C43.703,42,42,43.763,42,45.93c0,1.801,0.807,4.414,1.835,5.946
	c0.024,0.037,2.408,3.654,2.408,7.379c0,3.689-2.25,6.806-2.271,6.836C42.866,67.589,42,70.184,42,71.999
	c0,1.814,0.855,4.412,1.949,5.915c0.023,0.032,2.294,3.204,2.294,6.922c0,3.716-2.366,7.257-2.39,7.291
	C42.814,93.656,42,96.266,42,98.069c0,2.167,1.764,3.931,3.932,3.931c1.762,0,4.408-0.636,6.023-1.449
	c0.031-0.016,3.087-1.533,6.705-1.533c3.626,0,7.27,1.636,7.304,1.652c1.634,0.746,4.322,1.33,6.119,1.33h0.174
	c1.802,0,4.488-0.612,6.113-1.394c0.033-0.017,3.342-1.589,6.971-1.589c3.596,0,6.674,1.518,6.705,1.533
	c1.615,0.814,4.262,1.449,6.023,1.449c2.168,0,3.932-1.764,3.932-3.931c0-1.791-0.764-4.413-1.74-5.971
	c-0.021-0.035-2.266-3.657-2.266-7.263c0-3.57,2.156-6.857,2.178-6.888C101.197,76.413,102,73.8,102,71.999 M98.451,76.799
	c-0.105,0.153-2.525,3.827-2.525,8.037c0,4.193,2.477,8.193,2.582,8.362c0.771,1.232,1.422,3.462,1.422,4.871
	c0,1.025-0.834,1.861-1.861,1.861c-1.436,0-3.77-0.563-5.094-1.229c-0.143-0.071-3.531-1.752-7.635-1.752
	c-4.096,0-7.715,1.719-7.869,1.792c-1.338,0.644-3.729,1.189-5.214,1.189h-0.174c-1.493,0-3.901-0.522-5.26-1.144
	c-0.165-0.074-4.078-1.838-8.163-1.838c-4.104,0-7.492,1.681-7.635,1.752c-1.323,0.666-3.657,1.229-5.094,1.229
	c-1.027,0-1.863-0.836-1.863-1.861c0-1.398,0.685-3.586,1.496-4.779c0.113-0.165,2.748-4.091,2.748-8.454
	c0-4.381-2.58-7.985-2.69-8.137c-0.827-1.139-1.554-3.335-1.554-4.7c0-1.362,0.733-3.549,1.568-4.681
	c0.109-0.148,2.676-3.679,2.676-8.063c0-4.366-2.646-8.362-2.758-8.53c-0.806-1.198-1.486-3.395-1.486-4.795
	c0-1.026,0.775-1.861,1.727-1.861c1.386,0,3.732,0.484,5.12,1.058c0.158,0.066,3.912,1.595,7.744,1.595
	c3.826,0,7.877-1.57,8.048-1.636c1.405-0.552,3.867-1.017,5.375-1.017h0.174c1.504,0,3.949,0.485,5.339,1.059
	c0.156,0.065,3.908,1.594,7.744,1.594c3.834,0,7.59-1.53,7.748-1.596c1.389-0.573,3.734-1.057,5.117-1.057
	c0.953,0,1.725,0.835,1.725,1.861c0,1.412-0.645,3.65-1.412,4.888c-0.104,0.171-2.592,4.247-2.592,8.437
	c0,4.209,2.41,7.811,2.51,7.961c0.811,1.196,1.494,3.386,1.494,4.783C99.93,73.4,99.252,75.597,98.451,76.799z"/>
<path d="M87.131,51.119H57.212c-2.484,0-4.505,2.02-4.505,4.504v32.426c0,2.483,2.021,4.504,4.505,4.504h29.918
	c2.484,0,4.506-2.02,4.506-4.504V55.623C91.637,53.139,89.615,51.119,87.131,51.119 M90.084,88.049c0,1.628-1.324,2.952-2.953,2.952
	H57.212c-1.628,0-2.953-1.324-2.953-2.952V55.623c0-1.627,1.325-2.953,2.953-2.953h29.918c1.629,0,2.953,1.326,2.953,2.953V88.049z"
	/>
<path d="M85.748,63.431l-14.891,10c-0.235,0.16-0.297,0.481-0.137,0.718c0.102,0.147,0.262,0.229,0.426,0.229
	c0.103,0,0.205-0.031,0.293-0.089L86.33,64.288c0.236-0.16,0.299-0.481,0.139-0.717C86.307,63.334,85.986,63.271,85.748,63.431"/>
<path d="M78.23,72.352l-11.795,7.968c-0.238,0.161-0.302,0.481-0.141,0.719c0.1,0.147,0.264,0.228,0.43,0.228
	c0.099,0,0.201-0.029,0.291-0.089l11.792-7.969c0.238-0.159,0.303-0.482,0.141-0.718C78.787,72.253,78.463,72.192,78.23,72.352"/>
</svg>
