<svg id="Icon" xmlns="http://www.w3.org/2000/svg" viewBox="0 0 62.4 60.46"><defs><style>.cls-1{fill:#fff;}</style></defs><title>Icon_RH_Objects_Hat_RGB_White</title><path class="cls-1" d="M57.11 15.5c-5-8.39-14-12.24-22.87-13a3.06 3.06 0 0 0-.73-1.5 3.56 3.56 0 0 0-2.8-1 3.42 3.42 0 0 0-2.74 1.11 2.91 2.91 0 0 0-.63 1.49 37.58 37.58 0 0 0-5.49.94 27.28 27.28 0 0 0-16 10.56C.85 21.27.39 30.67-.01 38.22a.91.91 0 0 0 .29.71.89.89 0 0 0 .73.23l.52-.06c0 3 .06 6.07.25 9 0 .4 0 .84.06 1.3.17 3.86.42 9.7 5.16 10.84 2.46.59 4.92-.7 6.89-1.73l.57-.3a33.41 33.41 0 0 1 16-3.8 44.18 44.18 0 0 1 18.47 4l.57.29a12.76 12.76 0 0 0 5.58 1.77 5.54 5.54 0 0 0 1.34-.17c4.72-1.23 4.86-7.07 5-10.94v-1.29a58.68 58.68 0 0 0-.42-9.46h.52a.9.9 0 0 0 .89-1c-.59-7.16-1.25-15.33-5.3-22.11zM29.37 2.26a1.76 1.76 0 0 1 1.36-.45 1.88 1.88 0 0 1 1.43.44 1.06 1.06 0 0 1 .13.18h-3.05a.93.93 0 0 1 .13-.17zm30.22 45.72v1.33c-.09 3.52-.2 8.35-3.6 9.23-1.79.47-3.85-.56-5.66-1.47l-.59-.29c-5.32-2.62-13.83-4.46-19.29-4.2a35.23 35.23 0 0 0-16.8 4.02l-.58.3c-1.79.94-3.82 2-5.62 1.57-3.41-.82-3.62-5.64-3.78-9.16 0-.47 0-.92-.07-1.33-.18-2.88-.26-5.86-.24-8.87a.87.87 0 0 0 0-.22l3.69-.41c0 3.41 0 6.9.31 10.33.23 2.48 1.45 4.16 3.35 4.61s4.07-.58 5.7-1.44l.47-.25a28.11 28.11 0 0 1 13.38-3.18 37.12 37.12 0 0 1 15.39 3.35l.77.4a9.38 9.38 0 0 0 4.18 1.4 3.68 3.68 0 0 0 1.33-.25c4.88-1.93 4-10.87 3.47-15.39l3.68.34a56.31 56.31 0 0 1 .52 9.58zM8.35 38.34a259 259 0 0 1 45.72-.4c.45 4.1 1.4 12.63-2.6 14.21-1.31.52-2.95-.34-4.39-1.09l-.8-.41a38.63 38.63 0 0 0-16.09-3.5 29.27 29.27 0 0 0-14 3.33l-.48.25c-1.51.79-3.22 1.69-4.76 1.32-1.77-.42-2.21-2.32-2.31-3.42-.3-3.36-.31-6.87-.29-10.29zm22.61-3a260.56 260.56 0 0 0-29.1 1.91c.38-7.12 1-15.68 5.48-22.11a25.48 25.48 0 0 1 14.95-9.83C33.44 2.5 48.65 4.8 55.56 16.43c3.63 6.08 4.4 13.55 4.95 20.29a260.5 260.5 0 0 0-29.55-1.4z"/></svg>