<svg id="Layer_1" data-name="Layer 1" xmlns="http://www.w3.org/2000/svg" viewBox="0 0 108 108"><defs><style>.cls-1{fill:none;}</style></defs><title>Icon_RH_Object_Drone_RGB_Flat</title><path class="cls-1" d="M25.36,57.1a5,5,0,0,0,5.1-4.2H20.26A5,5,0,0,0,25.36,57.1Z"/><path class="cls-1" d="M54,45A14.8,14.8,0,0,0,42.44,50.5H65.6A14.8,14.8,0,0,0,54,45Z"/><path class="cls-1" d="M32.47,52.9a7.41,7.41,0,0,1-.41,1.72c9.5-.23,14.64,2.06,15.3,6.82A15.06,15.06,0,0,0,54.47,63a15.37,15.37,0,0,0,7.19-1.59c0.9-6.7,10.08-7,14.74-6.83A7.57,7.57,0,0,1,76,52.9H32.47Z"/><path class="cls-1" d="M31,46.9a1.21,1.21,0,0,0-.56-0.78,10.39,10.39,0,0,1-3.2,1.48,14.25,14.25,0,0,0,3.18.43A1.68,1.68,0,0,0,31,46.9Z"/><path class="cls-1" d="M19.48,47.08a2.55,2.55,0,0,0,.63.12q1.1-.06,2.05-0.15a14.4,14.4,0,0,1-1.41-1A5.2,5.2,0,0,0,19.48,47.08Z"/><path class="cls-1" d="M88.52,47.08a5.22,5.22,0,0,0-1.27-1,14.48,14.48,0,0,1-1.4,1c0.65,0.07,1.36.12,2.12,0.16A2.4,2.4,0,0,0,88.52,47.08Z"/><path class="cls-1" d="M77,46.9A1.68,1.68,0,0,0,77.54,48a14.24,14.24,0,0,0,3.19-.43,10.42,10.42,0,0,1-3.21-1.47A1.21,1.21,0,0,0,77,46.9Z"/><path class="cls-1" d="M83.13,57.09a4.72,4.72,0,0,0,4.7-4.19H78A4.7,4.7,0,0,0,83.13,57.09Z"/><path d="M88,48.69c0.43,0,1.84-.16,2.11-1.21s-0.52-1.82-2.5-3a0.75,0.75,0,0,0-.91.1,13.44,13.44,0,0,1-3.32,2.11c-3.94-.74-5.14-1.94-5.18-2a0.75,0.75,0,0,0-.92-0.16,2.92,2.92,0,0,0-1.77,2.25,3.33,3.33,0,0,0,1.34,2.59,0.75,0.75,0,0,0,.46.16,15.83,15.83,0,0,0,5.59-1v2.41H68.33a16.87,16.87,0,0,0-28.62,0H25.34V48.57a15.82,15.82,0,0,0,5.39,1,0.75,0.75,0,0,0,.46-0.16,3.33,3.33,0,0,0,1.34-2.59,2.92,2.92,0,0,0-1.77-2.25,0.77,0.77,0,0,0-.92.16s-1.2,1.24-5.17,2a13.44,13.44,0,0,1-3.33-2.11,0.75,0.75,0,0,0-.91-0.1c-2,1.2-2.74,2.1-2.5,3s1.68,1.19,2.18,1.21c1.42-.07,2.65-0.2,3.74-0.36v2.57H19.19a1,1,0,0,0-1,1,7,7,0,0,0,2.26,5.39,7.52,7.52,0,0,0,10.43-.63c9.4-.43,14.29,1.41,14.54,5.46a1,1,0,0,0,.46.78A16.59,16.59,0,0,0,54.49,65h0.44a16.52,16.52,0,0,0,8.2-2.13,1,1,0,0,0,.46-0.78c0.25-4.08,4.81-5.87,13.92-5.47a6.92,6.92,0,0,0,5.69,2.43,6.72,6.72,0,0,0,6.64-7.22,1,1,0,0,0-1-1H84.34V48.36C85.4,48.51,86.6,48.63,88,48.69ZM30.48,46.12a1.21,1.21,0,0,1,.56.78A1.68,1.68,0,0,1,30.46,48a14.25,14.25,0,0,1-3.18-.43A10.39,10.39,0,0,0,30.48,46.12ZM20.11,47.19a2.55,2.55,0,0,1-.63-0.12,5.2,5.2,0,0,1,1.27-1,14.4,14.4,0,0,0,1.41,1Q21.21,47.14,20.11,47.19Zm5.25,9.9a5,5,0,0,1-5.1-4.2h10.2A5,5,0,0,1,25.36,57.1ZM54,45A14.8,14.8,0,0,1,65.6,50.5H42.44A14.8,14.8,0,0,1,54,45Zm7.64,16.48A15.37,15.37,0,0,1,54.47,63a15.06,15.06,0,0,1-7.11-1.59c-0.65-4.76-5.8-7-15.3-6.82a7.41,7.41,0,0,0,.41-1.72H76a7.57,7.57,0,0,0,.37,1.71C71.73,54.46,62.55,54.74,61.66,61.44ZM87.25,46a5.22,5.22,0,0,1,1.27,1,2.4,2.4,0,0,1-.56.12c-0.76,0-1.46-.09-2.12-0.16A14.48,14.48,0,0,0,87.25,46Zm-9.71,2A1.68,1.68,0,0,1,77,46.9a1.21,1.21,0,0,1,.56-0.78,10.42,10.42,0,0,0,3.21,1.47A14.24,14.24,0,0,1,77.54,48ZM87.82,52.9a5,5,0,0,1-9.79,0h9.79Z"/></svg>