<?xml version="1.0" encoding="utf-8"?>
<!-- Generator: Adobe Illustrator 17.1.0, SVG Export Plug-In . SVG Version: 6.00 Build 0)  -->
<!DOCTYPE svg PUBLIC "-//W3C//DTD SVG 1.1//EN" "http://www.w3.org/Graphics/SVG/1.1/DTD/svg11.dtd">
<svg version="1.1" id="Layer_1" xmlns="http://www.w3.org/2000/svg" xmlns:xlink="http://www.w3.org/1999/xlink" x="0px" y="0px"
	 viewBox="0 0 612 792" enable-background="new 0 0 612 792" xml:space="preserve">
<g>
	<g>
		<path fill="#FFFFFF" d="M323.197,358.457h-34.49c-2.14,0-3.881,1.741-3.881,3.881v66.49c0,2.14,1.741,3.881,3.881,3.881h34.49
			c2.139,0,3.879-1.741,3.879-3.881v-66.49C327.076,360.198,325.336,358.457,323.197,358.457z M288.707,360.457h34.49
			c1.036,0,1.879,0.844,1.879,1.881v8.496h-38.25v-8.496C286.826,361.301,287.67,360.457,288.707,360.457z M322.174,371.834v0.91
			c0,1.312-1.068,2.381-2.381,2.381h-1.842c-0.276,0-0.5,0.224-0.5,0.5v2.565l-2.918-2.918c-0.094-0.094-0.221-0.147-0.354-0.147
			h-13.127c-1.312,0-2.379-1.068-2.379-2.381v-0.91H322.174z M301.053,376.125h12.92l3.625,3.625
			c0.096,0.096,0.224,0.147,0.354,0.147c0.064,0,0.13-0.013,0.191-0.038c0.187-0.077,0.309-0.26,0.309-0.462v-3.272h1.342
			c1.864,0,3.381-1.517,3.381-3.381v-0.91h1.902v47.496h-38.25v-47.496h10.848v0.91
			C297.674,374.608,299.189,376.125,301.053,376.125z M323.197,430.709h-34.49c-1.037,0-1.881-0.844-1.881-1.881v-8.498h38.25v8.498
			C325.076,429.865,324.233,430.709,323.197,430.709z"/>
		<path fill="#FFFFFF" d="M302.564,366.375h6.775c0.414,0,0.75-0.336,0.75-0.75s-0.336-0.75-0.75-0.75h-6.775
			c-0.414,0-0.75,0.336-0.75,0.75S302.15,366.375,302.564,366.375z"/>
		<path fill="#FFFFFF" d="M299.18,366.62c0.271,0,0.53-0.101,0.71-0.29c0.19-0.181,0.29-0.441,0.29-0.71c0-0.261-0.1-0.52-0.29-0.7
			c-0.36-0.37-1.03-0.38-1.41,0c-0.189,0.19-0.3,0.44-0.3,0.7c0,0.27,0.11,0.529,0.3,0.71
			C298.66,366.52,298.92,366.62,299.18,366.62z"/>
		<path fill="#FFFFFF" d="M288.728,383.205v10.678c0,1.864,1.517,3.381,3.381,3.381h1.342v3.271c0,0.202,0.122,0.385,0.309,0.462
			c0.061,0.025,0.127,0.038,0.191,0.038c0.13,0,0.258-0.051,0.353-0.146l3.625-3.625h12.92c1.863,0,3.379-1.517,3.379-3.381v-10.678
			c0-1.864-1.516-3.381-3.379-3.381h-18.74C290.245,379.824,288.728,381.341,288.728,383.205z M313.228,383.205v10.678
			c0,1.312-1.067,2.381-2.379,2.381h-13.127c-0.133,0-0.26,0.053-0.354,0.146l-2.918,2.918v-2.564c0-0.276-0.224-0.5-0.5-0.5h-1.842
			c-1.312,0-2.381-1.068-2.381-2.381v-10.678c0-1.312,1.068-2.381,2.381-2.381h18.74
			C312.161,380.824,313.228,381.893,313.228,383.205z"/>
		<path fill="#FFFFFF" d="M301.478,394.408c3.234,0,5.865-2.63,5.865-5.862c0-3.234-2.631-5.865-5.865-5.865
			c-3.232,0-5.862,2.631-5.862,5.865C295.616,391.778,298.246,394.408,301.478,394.408z M301.478,384.181
			c2.407,0,4.365,1.958,4.365,4.365c0,2.405-1.958,4.362-4.365,4.362c-2.405,0-4.362-1.957-4.362-4.362
			C297.116,386.139,299.073,384.181,301.478,384.181z"/>
		<path fill="#FFFFFF" d="M300.016,391.354c0.107,0.056,0.226,0.083,0.343,0.083c0.153,0,0.307-0.047,0.436-0.14l2.997-2.142
			c0.196-0.141,0.314-0.368,0.314-0.61s-0.116-0.469-0.314-0.61l-2.997-2.145c-0.229-0.164-0.529-0.185-0.779-0.057
			s-0.407,0.386-0.407,0.667v4.286C299.608,390.969,299.766,391.226,300.016,391.354z M301.108,387.86l0.958,0.685l-0.958,0.684
			V387.86z"/>
		<path fill="#FFFFFF" d="M291.646,403.834h-1.25c-0.414,0-0.75,0.336-0.75,0.75c0,0.414,0.336,0.75,0.75,0.75h1.25
			c0.414,0,0.75-0.336,0.75-0.75C292.396,404.17,292.06,403.834,291.646,403.834z"/>
		<path fill="#FFFFFF" d="M304.006,403.834h-2.289c-0.414,0-0.75,0.336-0.75,0.75c0,0.414,0.336,0.75,0.75,0.75h2.289
			c0.414,0,0.75-0.336,0.75-0.75C304.756,404.17,304.42,403.834,304.006,403.834z"/>
		<path fill="#FFFFFF" d="M310.186,403.834h-2.289c-0.414,0-0.75,0.336-0.75,0.75c0,0.414,0.336,0.75,0.75,0.75h2.289
			c0.414,0,0.75-0.336,0.75-0.75C310.936,404.17,310.601,403.834,310.186,403.834z"/>
		<path fill="#FFFFFF" d="M313.327,404.584c0,0.414,0.336,0.75,0.75,0.75h2.289c0.414,0,0.75-0.336,0.75-0.75
			c0-0.414-0.336-0.75-0.75-0.75h-2.289C313.663,403.834,313.327,404.17,313.327,404.584z"/>
		<path fill="#FFFFFF" d="M297.826,403.834h-2.289c-0.414,0-0.75,0.336-0.75,0.75c0,0.414,0.336,0.75,0.75,0.75h2.289
			c0.414,0,0.75-0.336,0.75-0.75C298.576,404.17,298.24,403.834,297.826,403.834z"/>
		<path fill="#FFFFFF" d="M320.258,405.334h1.25c0.414,0,0.75-0.336,0.75-0.75c0-0.414-0.336-0.75-0.75-0.75h-1.25
			c-0.414,0-0.75,0.336-0.75,0.75C319.508,404.998,319.844,405.334,320.258,405.334z"/>
		<path fill="#FFFFFF" d="M293.406,407.609c-0.414,0-0.75,0.336-0.75,0.75c0,0.414,0.336,0.75,0.75,0.75h1.25
			c0.414,0,0.75-0.336,0.75-0.75c0-0.414-0.336-0.75-0.75-0.75H293.406z"/>
		<path fill="#FFFFFF" d="M313.328,409.109c0.414,0,0.75-0.336,0.75-0.75c0-0.414-0.336-0.75-0.75-0.75h-2.306
			c-0.414,0-0.75,0.336-0.75,0.75c0,0.414,0.336,0.75,0.75,0.75H313.328z"/>
		<path fill="#FFFFFF" d="M304.799,407.609c-0.414,0-0.75,0.336-0.75,0.75c0,0.414,0.336,0.75,0.75,0.75h2.306
			c0.414,0,0.75-0.336,0.75-0.75c0-0.414-0.336-0.75-0.75-0.75H304.799z"/>
		<path fill="#FFFFFF" d="M298.575,407.609c-0.414,0-0.75,0.336-0.75,0.75c0,0.414,0.336,0.75,0.75,0.75h2.305
			c0.414,0,0.75-0.336,0.75-0.75c0-0.414-0.336-0.75-0.75-0.75H298.575z"/>
		<path fill="#FFFFFF" d="M316.496,408.359c0,0.414,0.336,0.75,0.75,0.75h1.25c0.414,0,0.75-0.336,0.75-0.75
			c0-0.414-0.336-0.75-0.75-0.75h-1.25C316.832,407.609,316.496,407.945,316.496,408.359z"/>
		<path fill="#FFFFFF" d="M294.656,415.164h-1.25c-0.414,0-0.75,0.336-0.75,0.75c0,0.414,0.336,0.75,0.75,0.75h1.25
			c0.414,0,0.75-0.336,0.75-0.75C295.406,415.5,295.07,415.164,294.656,415.164z"/>
		<path fill="#FFFFFF" d="M313.326,415.164h-14.752c-0.414,0-0.75,0.336-0.75,0.75c0,0.414,0.336,0.75,0.75,0.75h14.752
			c0.414,0,0.75-0.336,0.75-0.75C314.076,415.5,313.74,415.164,313.326,415.164z"/>
		<path fill="#FFFFFF" d="M318.496,415.164h-1.25c-0.414,0-0.75,0.336-0.75,0.75c0,0.414,0.336,0.75,0.75,0.75h1.25
			c0.414,0,0.75-0.336,0.75-0.75C319.246,415.5,318.91,415.164,318.496,415.164z"/>
		<path fill="#FFFFFF" d="M291.646,411.387h-1.25c-0.414,0-0.75,0.336-0.75,0.75c0,0.414,0.336,0.75,0.75,0.75h1.25
			c0.414,0,0.75-0.336,0.75-0.75C292.396,411.723,292.06,411.387,291.646,411.387z"/>
		<path fill="#FFFFFF" d="M298.576,412.137c0-0.414-0.336-0.75-0.75-0.75h-2.289c-0.414,0-0.75,0.336-0.75,0.75
			c0,0.414,0.336,0.75,0.75,0.75h2.289C298.24,412.887,298.576,412.551,298.576,412.137z"/>
		<path fill="#FFFFFF" d="M317.116,412.137c0-0.414-0.336-0.75-0.75-0.75h-2.289c-0.414,0-0.75,0.336-0.75,0.75
			c0,0.414,0.336,0.75,0.75,0.75h2.289C316.78,412.887,317.116,412.551,317.116,412.137z"/>
		<path fill="#FFFFFF" d="M301.717,411.387c-0.414,0-0.75,0.336-0.75,0.75c0,0.414,0.336,0.75,0.75,0.75h2.289
			c0.414,0,0.75-0.336,0.75-0.75c0-0.414-0.336-0.75-0.75-0.75H301.717z"/>
		<path fill="#FFFFFF" d="M307.897,411.387c-0.414,0-0.75,0.336-0.75,0.75c0,0.414,0.336,0.75,0.75,0.75h2.289
			c0.414,0,0.75-0.336,0.75-0.75c0-0.414-0.336-0.75-0.75-0.75H307.897z"/>
		<path fill="#FFFFFF" d="M320.258,412.887h1.25c0.414,0,0.75-0.336,0.75-0.75c0-0.414-0.336-0.75-0.75-0.75h-1.25
			c-0.414,0-0.75,0.336-0.75,0.75C319.508,412.551,319.844,412.887,320.258,412.887z"/>
		<path fill="#FFFFFF" d="M307.895,421.824h-3.887c-1.45,0-2.631,1.18-2.631,2.629v1.9c0,1.45,1.181,2.631,2.631,2.631h3.887
			c1.45,0,2.631-1.181,2.631-2.631v-1.9C310.525,423.004,309.345,421.824,307.895,421.824z M309.025,426.353
			c0,0.624-0.507,1.131-1.131,1.131h-3.887c-0.624,0-1.131-0.507-1.131-1.131v-1.9c0-0.622,0.507-1.129,1.131-1.129h3.887
			c0.624,0,1.131,0.507,1.131,1.129V426.353z"/>
	</g>
</g>
</svg>
