<?xml version="1.0" encoding="utf-8"?>
<!-- Generator: Adobe Illustrator 17.1.0, SVG Export Plug-In . SVG Version: 6.00 Build 0)  -->
<!DOCTYPE svg PUBLIC "-//W3C//DTD SVG 1.1//EN" "http://www.w3.org/Graphics/SVG/1.1/DTD/svg11.dtd">
<svg version="1.1" id="Layer_1" xmlns="http://www.w3.org/2000/svg" xmlns:xlink="http://www.w3.org/1999/xlink" x="0px" y="0px"
	 viewBox="0 0 144 144" enable-background="new 0 0 144 144" xml:space="preserve">
<g>
	<g>
		<path d="M78.706,35.493c-1.994-1.502-3.586-2.233-4.865-2.233c-1.345,0-1.993,0.831-2.164,1.323
			c-0.06,0.174-0.058,0.364,0.005,0.536l3.02,8.243l-0.501,3.933l-4.034,1.884l-3.05-2.662c-0.317-0.859-1.626-4.409-2.294-6.291
			c-0.558-1.57-1.149-2.324-1.92-2.445c-0.479-0.075-0.875,0.142-1.1,0.379c-6.463,5.622-1.239,15.666-0.919,16.265
			c0.067,0.143,0.565,1.171,1.397,2.506l-0.497,0.234c-1.229,0.583-1.606,2.01-0.917,3.467c0.462,0.979,1.241,1.541,2.137,1.541
			c0.342,0,0.689-0.083,1.035-0.245l1.578-0.746c0.235,0.229,0.477,0.453,0.727,0.666c1.377,1.164,1.887,1.898,1.762,5.018
			l-1.205,35.177c-0.014,0.136-0.296,3.342,1.613,5.445c1.051,1.155,2.527,1.741,4.391,1.741c1.758,0,3.156-0.562,4.154-1.669
			c1.892-2.098,1.574-5.377,1.563-5.458l-1.136-35.164c0-0.396-0.012-0.774-0.023-1.142c-0.078-2.499-0.131-4.149,3.838-7.286
			c5.201-4.11,4.008-11.372,3.956-11.671C84.097,39.699,78.931,35.665,78.706,35.493z M61.976,53.005
			c-1.013-2.229-3.755-9.407,0.738-13.512c0.132,0.178,0.346,0.545,0.601,1.269c0.764,2.155,2.371,6.501,2.371,6.501
			c0.047,0.126,0.123,0.237,0.225,0.325l2.67,2.332L61.976,53.005z M63.527,60.84c-0.184,0.088-0.359,0.132-0.521,0.132
			c-0.565,0-0.9-0.535-1.052-0.854c-0.245-0.518-0.448-1.493,0.347-1.869l0.645-0.306c0.52,0.76,1.123,1.56,1.799,2.321
			L63.527,60.84z M80.31,57.255c-4.602,3.637-4.529,5.933-4.445,8.593c0.012,0.35,0.023,0.711,0.023,1.114l1.14,35.249
			c0.003,0.026,0.241,2.728-1.155,4.276c-0.692,0.767-1.662,1.141-2.966,1.141c-1.389,0-2.466-0.408-3.201-1.211
			c-1.434-1.572-1.213-4.197-1.206-4.271l1.206-35.222c0.133-3.29-0.367-4.643-2.326-6.301c-2.234-1.89-3.966-4.839-4.688-6.188
			l12.587-5.877c0.248-0.117,0.42-0.354,0.455-0.625l0.58-4.565c0.017-0.126,0.002-0.256-0.043-0.375l-2.937-8.018
			c0.102-0.062,0.259-0.117,0.507-0.117c0.511,0,1.695,0.248,3.895,1.906c0.049,0.038,4.887,3.834,5.943,10.336
			C83.69,47.169,84.755,53.741,80.31,57.255z"/>
		<path d="M76.993,50.899c-0.199-0.266-0.574-0.318-0.84-0.12c-0.266,0.198-0.319,0.573-0.121,0.839l2.334,3.12
			c0.117,0.157,0.299,0.24,0.482,0.24c0.125,0,0.25-0.039,0.358-0.118c0.265-0.199,0.319-0.575,0.121-0.841L76.993,50.899z"/>
		<path d="M74.833,51.95c-0.199-0.266-0.574-0.321-0.84-0.122c-0.266,0.198-0.32,0.575-0.121,0.841l2.334,3.119
			c0.119,0.156,0.299,0.241,0.482,0.241c0.125,0,0.25-0.039,0.358-0.12c0.266-0.199,0.319-0.575,0.121-0.84L74.833,51.95z"/>
		<path d="M74.047,56.839c0.118,0.158,0.298,0.24,0.481,0.24c0.125,0,0.25-0.039,0.358-0.118c0.265-0.198,0.319-0.575,0.121-0.841
			L72.673,53c-0.199-0.266-0.575-0.318-0.84-0.122c-0.266,0.199-0.32,0.575-0.121,0.841L74.047,56.839z"/>
		<path d="M72.367,58.128c0.125,0,0.252-0.039,0.359-0.118c0.266-0.199,0.32-0.575,0.121-0.841l-2.334-3.12
			c-0.198-0.264-0.574-0.317-0.84-0.12c-0.266,0.198-0.32,0.573-0.121,0.839l2.334,3.12C72.004,58.046,72.185,58.128,72.367,58.128z
			"/>
		<path d="M72.867,100.176c-0.555,0-1.094,0.157-1.564,0.456c-1.355,0.863-1.756,2.668-0.895,4.025
			c0.537,0.846,1.457,1.352,2.463,1.352c0.552,0,1.093-0.158,1.562-0.456c1.357-0.863,1.758-2.67,0.896-4.026
			C74.789,100.681,73.868,100.176,72.867,100.176z M73.788,104.539c-0.775,0.496-1.877,0.246-2.368-0.526
			c-0.507-0.799-0.271-1.86,0.526-2.368c0.276-0.177,0.594-0.269,0.92-0.269c0.589,0,1.131,0.297,1.449,0.794
			C74.823,102.969,74.586,104.031,73.788,104.539z"/>
	</g>
</g>
</svg>
