<svg id="Layer_1" data-name="Layer 1" xmlns="http://www.w3.org/2000/svg" viewBox="0 0 59.23 62.14"><defs><style>.cls-1{fill:#fff;}</style></defs><title>Icon_RH_Objects_PingPongPaddle_RGB_White</title><path class="cls-1" d="M58.81 51.29L45.4 37.91c-1.45-1.45-2.08-6.24-.11-9.41a2.31 2.31 0 0 0 .12-.38c.51-7-2.48-14.5-8-20-9.57-9.57-24-10.76-32.06-2.65S-1.57 27.96 8 37.53c5.51 5.51 13 8.49 20 8h.15a1 1 0 0 0 .21-.08h.05c3.17-2 8-1.34 9.41.11l13.45 13.19a1 1 0 0 0 1 .46 11.62 11.62 0 0 0 6.93-6.92 1 1 0 0 0-.39-1zm-30.61-8.1l-.46.25c-6.39.39-13.2-2.37-18.25-7.41C.7 27.24-.51 14.13 6.84 6.8S27.2.65 36.04 9.44c5 5.05 7.81 11.86 7.41 18.25-.09.15-.18.3-.25.45zm27 11.92a9.49 9.49 0 0 1-2.68 2l-13.1-13.1c-1.53-1.53-4.86-2.3-8.06-1.78L42.2 31.29c-.53 3.21.25 6.53 1.78 8.06l13.1 13.1a9.51 9.51 0 0 1-1.97 2.66zm-14-32.93a.5.5 0 0 0-.41.57 18.53 18.53 0 0 1 .22 4.12l-1.81 1.82a.502.502 0 0 0 .71.71l1.94-1.94a.49.49 0 0 0 .14-.32 19.44 19.44 0 0 0-.21-4.54.5.5 0 0 0-.58-.42zM28.42 50.59a6.77 6.77 0 1 0 9.57 0 6.78 6.78 0 0 0-9.57 0zm8.51 8.51a5.27 5.27 0 1 1 0-7.45 5.27 5.27 0 0 1 0 7.45zm-2.16-8.13a4.7 4.7 0 0 0-4.51.78.5.5 0 1 0 .63.78 3.7 3.7 0 0 1 3.55-.61.5.5 0 0 0 .33-.94zM19.2 3.05a17 17 0 0 0-8 2 15.26 15.26 0 0 0-3.51 2.62.502.502 0 1 0 .71.71 14.24 14.24 0 0 1 3.28-2.45 16 16 0 0 1 7.52-1.88.5.5 0 1 0 0-1zM4.32 22.39a.507.507 0 0 0-1 .17 22.11 22.11 0 0 0 2.15 6.41.5.5 0 0 0 .67.22.52.52 0 0 0 .13-.09.5.5 0 0 0 .09-.58 21.07 21.07 0 0 1-2.04-6.13z"/></svg>