<svg data-name="Layer 1" xmlns="http://www.w3.org/2000/svg" viewBox="0 0 65.37 61.45"><title>Icon_RH_Objects_Money_RGB_Black</title><path d="M65.3 29.83l-10-22.59a.75.75 0 0 0-1-.38l-1.31.58-2.71-4.32a.75.75 0 0 0-1-.24l-1.08.67L45.56.29a.75.75 0 0 0-1.05-.11L14.62 24.32l-.91.56-11.39 5.07a.75.75 0 0 0-.38 1l.45 1-1.45.89a.75.75 0 0 0-.25 1l.7 1.14-1.12.9a.75.75 0 0 0-.11 1.05l10 12.47 1.82 4.13a.75.75 0 0 0 1 .38l.14-.06.81 1.27a.75.75 0 0 0 .47.33h.16a.75.75 0 0 0 .41-.12l.71.88a.75.75 0 0 0 1.05.11l11.21-9.07 36.98-16.43a.75.75 0 0 0 .38-1zm-20.46-28l2 2.53L24.8 18.01zm4.56 2.74l2.18 3.51-27.8 12.33zM1.8 36.61l.39-.31 2.08 3.43zm.56-2.88l.64-.39 2.3 5.18zm14 20.94l-.14-.17 1.74-1.13zm-3.32-2.44L3.61 31.01 54.19 8.53l9.43 21.2zm27.44-2.5a5.86 5.86 0 1 0 5.86 5.86 5.86 5.86 0 0 0-5.86-5.86zm0 10.22a4.36 4.36 0 1 1 4.36-4.36 4.36 4.36 0 0 1-4.36 4.37zM29.77 21.73c-3.22 1.43-4 6.36-1.89 11.21 1.77 4 4.91 6.5 7.76 6.5a4.48 4.48 0 0 0 1.83-.38c3.22-1.43 4-6.36 1.89-11.22s-6.37-7.55-9.59-6.11zm7.09 16c-2.37 1.06-5.85-1.4-7.61-5.35s-1.24-8.18 1.13-9.23a2.9 2.9 0 0 1 1.19-.24c2.23 0 4.94 2.27 6.42 5.6 1.75 3.89 1.24 8.12-1.13 9.17zm20.82 2a5.86 5.86 0 1 0 5.86 5.86 5.87 5.87 0 0 0-5.86-5.86zm0 10.22a4.36 4.36 0 1 1 4.36-4.36 4.36 4.36 0 0 1-4.36 4.37zm-1.27 2.27a4.27 4.27 0 1 0 4.27 4.28 4.28 4.28 0 0 0-4.26-4.28zm0 7a2.77 2.77 0 1 1 2.77-2.77 2.78 2.78 0 0 1-2.76 2.82z"/></svg>