<svg id="Layer_1" data-name="Layer 1" xmlns="http://www.w3.org/2000/svg" viewBox="0 0 52.17 29.18"><defs><style>.cls-1{fill:#fff;}</style></defs><title>Icon_RH_Objects_Dumbbell_RGB_White</title><path class="cls-1" d="M52.18 6.83v-.07-.06L51.4.87a1 1 0 0 0-1-.87h-7.31a1 1 0 0 0-1 .87L41.3 6.7v2.61l-5 1.28a40.26 40.26 0 0 0-10.1-1.2h-.11a40.29 40.29 0 0 0-10.25 1.2l-5-1.18V6.83v-.07-.06L10.06.87a1 1 0 0 0-1-.87H1.79a1 1 0 0 0-1 .87L0 6.7V22.48l.78 5.83a1 1 0 0 0 1 .87h7.31a1 1 0 0 0 1-.87l.79-5.83v-.06V19.78l5.05-1.26a40.23 40.23 0 0 0 10.1 1.17h.06a40.26 40.26 0 0 0 10.25-1.19l5 1.18v2.78l.78 5.83a1 1 0 0 0 1 .87h7.27a1 1 0 0 0 1-.87l.79-5.83v-.06-.07zM2.66 2h5.5l.51 3.83H2.15zm5.5 25.18h-5.5l-.51-3.83h6.54zm.66-5.83H2V7.83h6.82zm32.53-3.71l-4.81-1.13a1 1 0 0 0-.51 0 37.52 37.52 0 0 1-9.84 1.18h-.1a37.74 37.74 0 0 1-9.92-1.17 1 1 0 0 0-.52 0l-4.83 1.2v-6.28l4.81 1.15a1 1 0 0 0 .46 0 37.54 37.54 0 0 1 9.9-1.2h.1a37.75 37.75 0 0 1 9.92 1.2 1 1 0 0 0 .52 0l4.83-1.2zm2.66-15.65h5.5l.51 3.83H43.5zm5.5 25.18h-5.5l-.51-3.83h6.54zm.66-5.83h-6.82V7.83h6.82z"/></svg>