<?xml version="1.0" encoding="utf-8"?>
<!-- Generator: Adobe Illustrator 17.1.0, SVG Export Plug-In . SVG Version: 6.00 Build 0)  -->
<!DOCTYPE svg PUBLIC "-//W3C//DTD SVG 1.1//EN" "http://www.w3.org/Graphics/SVG/1.1/DTD/svg11.dtd">
<svg version="1.1" id="Layer_1" xmlns="http://www.w3.org/2000/svg" xmlns:xlink="http://www.w3.org/1999/xlink" x="0px" y="0px"
	 viewBox="0 0 144 144" enable-background="new 0 0 144 144" xml:space="preserve">
<g>
	<g>
		<g>
			<path d="M47.626,102.168h48.747c0.553,0,1-0.447,1-1V41.32c0-0.552-0.447-1-1-1H47.626c-0.553,0-1,0.448-1,1v59.848
				C46.626,101.721,47.074,102.168,47.626,102.168z M48.626,42.32h46.747v57.848H48.626V42.32z"/>
			<path d="M87.668,49.401H56.333c-0.345,0-0.625,0.279-0.625,0.625v42.436c0,0.346,0.28,0.625,0.625,0.625h31.335
				c0.344,0,0.625-0.279,0.625-0.625V50.026C88.293,49.681,88.012,49.401,87.668,49.401z M73.441,82.863
				c0-2.62,2.131-4.751,4.75-4.751c2.621,0,4.752,2.131,4.752,4.751c0,2.619-2.131,4.75-4.752,4.75
				C75.572,87.613,73.441,85.482,73.441,82.863z M83.943,82.863c0-3.172-2.58-5.751-5.752-5.751c-3.17,0-5.749,2.579-5.749,5.751
				c0,0.511,0.073,1.004,0.199,1.477c-1.034-0.975-2.428-1.677-3.737-1.946c0.887-1.012,1.429-2.333,1.429-3.78
				c0-3.171-2.58-5.751-5.751-5.751c-3.171,0-5.75,2.58-5.75,5.751c0,1.449,0.543,2.771,1.432,3.783
				c-1.247,0.254-2.406,0.883-3.306,1.59v-7.43c0.043-0.065,0.078-0.139,0.1-0.219c0.097-0.366,2.429-8.829,9.318-8.465
				c1.466,1.396,3.444,2.261,5.624,2.261c2.167,0,4.135-0.855,5.598-2.238c5.822,0.189,8.779,6.141,9.445,7.699v13.028
				c-1.18-0.97-2.896-1.87-4.381-2.151C83.461,85.484,83.943,84.229,83.943,82.863z M59.832,78.613c0-2.62,2.131-4.751,4.75-4.751
				c2.62,0,4.751,2.131,4.751,4.751c0,2.619-2.131,4.75-4.751,4.75C61.962,83.363,59.832,81.232,59.832,78.613z M71.999,68.634
				c-3.676,0-6.667-2.991-6.667-6.668c0-3.676,2.991-6.667,6.667-6.667c3.676,0,6.667,2.991,6.667,6.667
				C78.666,65.643,75.676,68.634,71.999,68.634z M87.043,50.651v21.863c-1.318-2.234-3.916-5.425-8.244-6.033
				c0.863-1.294,1.367-2.846,1.367-4.516c0-4.503-3.664-8.167-8.167-8.167c-4.503,0-8.167,3.664-8.167,8.167
				c0,1.627,0.483,3.141,1.306,4.414c-4.387,0.371-6.897,3.824-8.181,6.43V50.651H87.043z M56.958,85.318
				c1.055-1.027,2.691-1.985,4.277-2.039c0.944,0.679,2.098,1.084,3.347,1.084c1.247,0,2.4-0.404,3.344-1.082
				c1.868,0.069,4.444,1.525,5.116,3.361c-1.18,0.377-2.331,1.158-3.431,2.352c-0.041,0.041-0.939,0.971-1.86,2.844H56.958V85.318z
				 M68.87,91.838c0.76-1.422,1.444-2.134,1.462-2.152c1.41-1.529,2.862-2.305,4.313-2.307c0.979,0.771,2.209,1.234,3.547,1.234
				c1.344,0,2.578-0.467,3.557-1.24c0.012,0,0.021,0.006,0.033,0.006c1.641,0,4.193,1.412,5.262,2.623v1.836H68.87z"/>
		</g>
	</g>
</g>
</svg>
