<svg data-name="Layer 1" xmlns="http://www.w3.org/2000/svg" viewBox="0 0 66.31 64.9"><title>Icon_RH_Objects_ScalesofJustice_RGB_Black</title><path d="M66.16 40.88a.47.47 0 0 0 0-.07l-12-23.06v-.06a.49.49 0 0 0-.14-.11.88.88 0 0 0-.59-.22H34.1V6.99a3.57 3.57 0 1 0-2 0v10.35H12.99a.88.88 0 0 0-.59.22.49.49 0 0 0-.13.11v.06L.16 40.81a.47.47 0 0 0 0 .08 1 1 0 0 0-.09.61 13.26 13.26 0 0 0 26 0 1 1 0 0 0 0-.46.49.49 0 0 0-.05-.23L14.67 19.34H32.1v38.81H12.4a1 1 0 0 0-.71.29l-4.75 4.75a1 1 0 0 0 .71 1.71h50.91a1 1 0 0 0 .71-1.71l-4.76-4.74a1 1 0 0 0-.71-.29H34.1V19.34h17.55L40.41 40.81a.49.49 0 0 0-.05.23 1 1 0 0 0 0 .46 13.26 13.26 0 0 0 26 0 1 1 0 0 0-.2-.62zm-53.17 9.13A11.32 11.32 0 0 1 2.3 42.29h21.39a11.32 11.32 0 0 1-10.7 7.72zm11.51-9.72h-23l11-20.95h1zm28.89 19.86l2.77 2.75h-46.1l2.75-2.75zm-20.29-55a1.57 1.57 0 1 1 1.57-1.57 1.58 1.58 0 0 1-1.57 1.57zm20.22 44.86a11.32 11.32 0 0 1-10.69-7.72h21.39a11.32 11.32 0 0 1-10.7 7.72zm-11.5-9.73l11-20.95h1l11 20.95z"/></svg>