<svg xmlns="http://www.w3.org/2000/svg" viewBox="0 0 108 108"><defs><style>.a{fill:#fff;}</style></defs><title>Icon_RH_Objects_Smartwatch_RGB_White</title><path class="a" d="M47.68 54a4 4 0 1 0-4 4 4 4 0 0 0 4-4zm-4 3a3 3 0 1 1 3-3 3 3 0 0 1-3.01 3zm17.06-7.27A2.77 2.77 0 1 0 58 47a2.77 2.77 0 0 0 2.73 2.74zm0-4.54A1.77 1.77 0 1 1 59 47a1.77 1.77 0 0 1 1.73-1.79zm-14.07 13A2.77 2.77 0 1 0 49.43 61a2.77 2.77 0 0 0-2.77-2.74zm0 4.54A1.77 1.77 0 1 1 48.43 61a1.77 1.77 0 0 1-1.77 1.79zm14.07-4.54A2.77 2.77 0 1 0 63.5 61a2.77 2.77 0 0 0-2.77-2.74zm0 4.54A1.77 1.77 0 1 1 62.5 61a1.77 1.77 0 0 1-1.77 1.79zM46.66 44.21A2.77 2.77 0 1 0 49.43 47a2.77 2.77 0 0 0-2.77-2.79zm0 4.54A1.77 1.77 0 1 1 48.43 47a1.77 1.77 0 0 1-1.77 1.74zm31.51-10.12v-3.16a9.8 9.8 0 0 0-7.82-9.58c-1.87-1.76-2.18-6.12-2.13-7.81v-1.54a7.9 7.9 0 0 0-7.89-7.89H46.95a7.89 7.89 0 0 0-7.89 7.89v1.53c.05 1.7-.26 6.11-2.16 7.85a9.8 9.8 0 0 0-7.68 9.55v37.06a9.8 9.8 0 0 0 7.68 9.55c1.9 1.74 2.22 6.15 2.16 7.85v1.53a7.9 7.9 0 0 0 7.89 7.89h13.39a7.9 7.9 0 0 0 7.89-7.89v-1.53c-.05-1.69.26-6.06 2.13-7.81a9.8 9.8 0 0 0 7.82-9.58v-23a2.38 2.38 0 0 0 2.36-2.37V41a2.38 2.38 0 0 0-2.37-2.37zM40.56 18v-1.5a6.39 6.39 0 0 1 6.39-6.39h13.39a6.39 6.39 0 0 1 6.39 6.39v2.25a15.56 15.56 0 0 0 1.59 6.89H39c1.68-2.88 1.57-7.37 1.56-7.64zm26.17 72v1.5a6.39 6.39 0 0 1-6.39 6.39H46.95a6.39 6.39 0 0 1-6.39-6.39v-1.67V89.2A15.55 15.55 0 0 0 39 82.31h29.33c-1.72 2.93-1.61 7.42-1.6 7.69zm9.44-50.77A2.24 2.24 0 0 0 74.78 41v6.18A2.24 2.24 0 0 0 76.17 49v23.53a7.79 7.79 0 0 1-7.78 7.78H39a7.79 7.79 0 0 1-7.78-7.78V35.47A7.79 7.79 0 0 1 39 27.69h29.39a7.79 7.79 0 0 1 7.78 7.78zm2.86 8a.88.88 0 0 1-.88.88 2.7 2.7 0 0 1-1.88-.88V41a2.68 2.68 0 0 1 1.88-.88.88.88 0 0 1 .85.88zM63.72 50a4 4 0 1 0 4 4 4 4 0 0 0-4-4zm0 7a3 3 0 1 1 3-3 3 3 0 0 1-3 3zm4.1-26.56H39.58a5.7 5.7 0 0 0-5.7 5.7v35.7a5.7 5.7 0 0 0 5.7 5.7h28.23a5.7 5.7 0 0 0 5.7-5.7V36.15a5.7 5.7 0 0 0-5.7-5.7zM72 71.85a4.2 4.2 0 0 1-4.2 4.2H39.58a4.2 4.2 0 0 1-4.2-4.2v-35.7a4.2 4.2 0 0 1 4.2-4.2h28.23a4.2 4.2 0 0 1 4.2 4.2zM53.69 60a4 4 0 1 0 4 4 4 4 0 0 0-4-4zm0 7a3 3 0 1 1 3-3 3 3 0 0 1-3 3zm0-27.07a4 4 0 1 0 4 4 4 4 0 0 0-4-3.93zm0 7a3 3 0 1 1 3-3 3 3 0 0 1-3 3.07zm0 3a4 4 0 1 0 4 4 4 4 0 0 0-4-3.93zm0 7a3 3 0 1 1 3-3 3 3 0 0 1-3 3.07z"/></svg>