<svg id="Layer_1" data-name="Layer 1" xmlns="http://www.w3.org/2000/svg" viewBox="0 0 46.42 31.61"><defs><style>.cls-1{fill:#fff;}</style></defs><title>Icon_RH_Objects_Camera_RGB_White</title><path class="cls-1" d="M44.29 0H28.48a2.13 2.13 0 0 0-2.13 2.13v.73H11.48a3.1 3.1 0 0 0-.45 0H3.39a3.1 3.1 0 0 0-.45 0h-.05A2.89 2.89 0 0 0 .01 5.74v23a2.89 2.89 0 0 0 2.88 2.88h40.64a2.89 2.89 0 0 0 2.88-2.88V2.12A2.13 2.13 0 0 0 44.29 0zM2.95 3.85h8.52a2.14 2.14 0 0 1-.44 4.23H3.39a2.14 2.14 0 0 1-.44-4.23zM2.89 30.6a1.89 1.89 0 0 1-1.88-1.88V11.64h17.81a10.45 10.45 0 0 0 0 19zm10.85-9.48a9.47 9.47 0 1 1 9.47 9.47 9.48 9.48 0 0 1-9.47-9.46zm31.68 7.59a1.89 1.89 0 0 1-1.88 1.88H27.62a10.45 10.45 0 0 0 0-19h17.8zm0-18.08H1V7.96a3.12 3.12 0 0 0 2.39 1.12h7.65a3.12 3.12 0 0 0 2.32-5.23h13v3.17a2.13 2.13 0 0 0 2.13 2.13h15.8a2.11 2.11 0 0 0 1.13-.35zm0-3.61a1.13 1.13 0 0 1-1.13 1.13H28.48a1.13 1.13 0 0 1-1.13-1.13v-4.9A1.13 1.13 0 0 1 28.48.99h15.81a1.13 1.13 0 0 1 1.13 1.13zm-22.21 8.04a6.06 6.06 0 1 0 6.06 6.06 6.07 6.07 0 0 0-6.06-6.06zm0 11.12a5.06 5.06 0 1 1 5.06-5.06 5.07 5.07 0 0 1-5.06 5.07z"/></svg>