<?xml version="1.0" encoding="utf-8"?>
<!-- Generator: Adobe Illustrator 17.1.0, SVG Export Plug-In . SVG Version: 6.00 Build 0)  -->
<!DOCTYPE svg PUBLIC "-//W3C//DTD SVG 1.1//EN" "http://www.w3.org/Graphics/SVG/1.1/DTD/svg11.dtd">
<svg version="1.1" id="Layer_1" xmlns="http://www.w3.org/2000/svg" xmlns:xlink="http://www.w3.org/1999/xlink" x="0px" y="0px"
	 viewBox="0 0 216 216" enable-background="new 0 0 216 216" xml:space="preserve">
<g>
	<path d="M145.11,95.428c-0.007-0.069-0.02-0.133-0.04-0.2c-0.02-0.061-0.044-0.116-0.073-0.171
		c-0.031-0.056-0.064-0.107-0.105-0.157c-0.045-0.053-0.092-0.097-0.145-0.14c-0.027-0.022-0.045-0.053-0.075-0.073l-11-7.072
		c-0.161-0.103-0.349-0.159-0.541-0.159H123.5v-2.545c0-3.56-2.896-6.455-6.455-6.455H99.473c-3.56,0-6.455,2.896-6.455,6.455v2.545
		H82.842c-0.192,0-0.38,0.055-0.541,0.159l-11,7.072c-0.03,0.02-0.048,0.05-0.075,0.073c-0.053,0.043-0.1,0.087-0.145,0.14
		c-0.041,0.05-0.074,0.101-0.105,0.157c-0.029,0.055-0.054,0.11-0.073,0.171c-0.021,0.066-0.033,0.131-0.04,0.2
		c-0.004,0.035-0.021,0.066-0.021,0.101v39.178c0,0.553,0.448,1,1,1h72.289c0.552,0,1-0.447,1-1V95.529
		C145.131,95.494,145.114,95.463,145.11,95.428z M95.018,84.912c0-2.456,1.999-4.455,4.455-4.455h17.572
		c2.456,0,4.455,1.999,4.455,4.455v4.922c0,0.322,0,0.5-1.5,0.5s-1.5-0.178-1.5-0.5v-4.922c0-0.802-0.653-1.455-1.455-1.455H99.473
		c-0.802,0-1.455,0.653-1.455,1.455v4.922c0,0.322,0,0.5-1.5,0.5s-1.5-0.178-1.5-0.5V84.912z M116.5,85.457v2h-16.482v-2H116.5z
		 M83.136,89.457h9.882v0.377c0,2.5,2.452,2.5,3.5,2.5c1.048,0,3.5,0,3.5-2.5v-0.377H116.5v0.377c0,2.5,2.452,2.5,3.5,2.5
		c1.048,0,3.5,0,3.5-2.5v-0.377h9.337l7.889,5.072H75.247L83.136,89.457z M143.131,133.707H72.842v-26.5h9.38v3.086
		c0,1.098,0.53,2.066,1.338,2.691c-0.035,0.125-0.057,0.255-0.057,0.39v1.494c0,1.14,1.318,2,3.065,2c1.747,0,3.065-0.86,3.065-2
		v-1.494c0-0.134-0.021-0.264-0.057-0.39c0.809-0.625,1.339-1.594,1.339-2.691v-3.086h34.306v3.086c0,1.098,0.53,2.066,1.338,2.691
		c-0.035,0.125-0.057,0.255-0.057,0.39v1.494c0,1.14,1.318,2,3.065,2c1.747,0,3.065-0.86,3.065-2v-1.494
		c0-0.134-0.021-0.264-0.057-0.39c0.809-0.625,1.339-1.594,1.339-2.691v-3.086h9.215V133.707z M87.502,112.207h-1.866
		c-1.056,0-1.914-0.858-1.914-1.914v-4.672c0-1.056,0.858-1.914,1.914-1.914h1.866c1.056,0,1.914,0.858,1.914,1.914v4.672
		C89.416,111.349,88.558,112.207,87.502,112.207z M88.136,114.854c-0.047,0.143-0.6,0.515-1.567,0.515
		c-0.968,0-1.521-0.372-1.565-0.5l-0.002-1.226c0.207,0.039,0.418,0.064,0.635,0.064h1.866c0.216,0,0.427-0.025,0.632-0.064
		L88.136,114.854z M130.502,112.207h-1.866c-1.056,0-1.914-0.858-1.914-1.914v-4.672c0-1.056,0.858-1.914,1.914-1.914h1.866
		c1.056,0,1.914,0.858,1.914,1.914v4.672C132.416,111.349,131.558,112.207,130.502,112.207z M131.136,114.854
		c-0.047,0.143-0.6,0.515-1.567,0.515c-0.968,0-1.52-0.372-1.565-0.5l-0.002-1.226c0.207,0.039,0.418,0.064,0.635,0.064h1.866
		c0.216,0,0.427-0.025,0.632-0.064L131.136,114.854z M143.131,105.707h-9.215v-0.086c0-1.883-1.532-3.414-3.414-3.414h-1.866
		c-1.883,0-3.414,1.531-3.414,3.414v0.086H90.916v-0.086c0-1.883-1.532-3.414-3.414-3.414h-1.866c-1.883,0-3.414,1.531-3.414,3.414
		v0.086h-9.38v-9.178h70.289V105.707z"/>
</g>
</svg>
