<?xml version="1.0" encoding="utf-8"?>
<!-- Generator: Adobe Illustrator 17.1.0, SVG Export Plug-In . SVG Version: 6.00 Build 0)  -->
<!DOCTYPE svg PUBLIC "-//W3C//DTD SVG 1.1//EN" "http://www.w3.org/Graphics/SVG/1.1/DTD/svg11.dtd">
<svg version="1.1" id="Layer_1" xmlns="http://www.w3.org/2000/svg" xmlns:xlink="http://www.w3.org/1999/xlink" x="0px" y="0px"
	 viewBox="0 0 216 216" enable-background="new 0 0 216 216" xml:space="preserve">
<g>
	<path fill="#FFFFFF" d="M115.889,91.235c0-0.552-0.447-1-1-1h-13.777c-0.552,0-1,0.448-1,1v0.998v2v41.679h-3.565
		c-0.506,0-0.933,0.379-0.993,0.882l-1.099,9.213c-0.034,0.283,0.056,0.568,0.246,0.782c0.189,0.214,0.462,0.336,0.747,0.336h25.104
		c0.286,0,0.558-0.122,0.748-0.336c0.189-0.214,0.278-0.499,0.245-0.782l-1.099-9.213c-0.061-0.503-0.486-0.882-0.993-0.882h-3.564
		V94.233v-2V91.235z M102.112,92.235h11.777v47.902h-11.777V92.235z M118.565,137.912l0.86,7.213H96.575l0.86-7.213h2.677v3.226
		c0,0.553,0.448,1,1,1h13.777c0.553,0,1-0.447,1-1v-3.226H118.565z"/>
	<path fill="#FFFFFF" d="M112.104,123.335c-0.414,0-0.75,0.336-0.75,0.75v12.75c0,0.414,0.336,0.75,0.75,0.75
		c0.414,0,0.75-0.336,0.75-0.75v-12.75C112.854,123.671,112.518,123.335,112.104,123.335z"/>
	<path fill="#FFFFFF" d="M107.833,93.67h-3.5c-0.414,0-0.75,0.336-0.75,0.75v12.75c0,0.414,0.336,0.75,0.75,0.75
		s0.75-0.336,0.75-0.75v-12h2.75c0.414,0,0.75-0.336,0.75-0.75C108.583,94.006,108.247,93.67,107.833,93.67z"/>
	<path fill="#FFFFFF" d="M117.974,78.9c0.265-0.464,0.35-1.053,0.231-1.688c-0.145-0.769-0.567-1.554-1.191-2.21
		c-1.326-1.394-3.3-1.788-4.296-0.843c-0.521,0.495-0.728,1.268-0.567,2.123c0.144,0.769,0.566,1.553,1.19,2.21
		c0.826,0.869,1.889,1.388,2.842,1.388c0.299,0,0.576-0.053,0.828-0.151c0.407,0.777,0.767,1.858,0.848,3.312h1.252
		C119.019,81.2,118.522,79.852,117.974,78.9z M116.339,77.016c-0.287-0.185-0.671-0.105-0.859,0.184
		c-0.188,0.287-0.107,0.673,0.178,0.864c0.03,0.02,0.278,0.192,0.598,0.554c-0.581,0.024-1.398-0.346-2.008-0.986
		c-0.453-0.477-0.77-1.053-0.868-1.579c-0.048-0.252-0.084-0.717,0.2-0.987c0.14-0.133,0.339-0.2,0.593-0.2
		c0.608,0,1.351,0.383,1.936,0.999c0.453,0.477,0.771,1.052,0.869,1.579c0.008,0.04,0.013,0.092,0.017,0.141
		C116.641,77.22,116.373,77.039,116.339,77.016z"/>
	<path fill="#FFFFFF" d="M129.697,83.468c-0.188-0.268-0.493-0.428-0.82-0.428h-9.767h-1.252H87.123c-0.327,0-0.633,0.16-0.82,0.428
		c-0.187,0.268-0.231,0.611-0.118,0.917l3.381,9.193c0.145,0.394,0.52,0.655,0.938,0.655h9.608v-2h-8.91l-2.646-7.193h38.887
		l-2.645,7.193h-8.91v2h9.607c0.419,0,0.794-0.261,0.938-0.655l3.381-9.193C129.929,84.079,129.884,83.736,129.697,83.468z"/>
</g>
</svg>
