<?xml version="1.0" encoding="utf-8"?>
<!-- Generator: Adobe Illustrator 17.1.0, SVG Export Plug-In . SVG Version: 6.00 Build 0)  -->
<!DOCTYPE svg PUBLIC "-//W3C//DTD SVG 1.1//EN" "http://www.w3.org/Graphics/SVG/1.1/DTD/svg11.dtd">
<svg version="1.1" id="Layer_1" xmlns="http://www.w3.org/2000/svg" xmlns:xlink="http://www.w3.org/1999/xlink" x="0px" y="0px"
	 viewBox="0 0 216 216" enable-background="new 0 0 216 216" xml:space="preserve">
<path d="M111.852,128.995c0.023,0,0.045,0.012,0.068,0.014c-1.204,0.02-2.432,0.033-3.685,0.033c-1.442,0-2.854-0.016-4.23-0.043
	c0.007,0,0.014-0.004,0.014-0.004H111.852z M133.235,96.792v32c0,0.508-0.38,0.935-0.885,0.993
	c-0.095,0.011-8.514,0.975-19.499,1.207v2.712c3.074,1.711,5.027,4.991,5.027,8.528c0,5.383-4.378,9.762-9.761,9.762
	c-5.383,0-9.763-4.379-9.763-9.762c0-3.419,1.774-6.556,4.67-8.326v-2.928c-10.693-0.252-18.812-1.183-18.905-1.193
	c-0.506-0.059-0.885-0.485-0.885-0.993v-32c0-0.51,0.385-0.939,0.892-0.994c0.039-0.004,1.711-0.182,4.697-0.386V81.278
	c0-10.703,8.708-19.41,19.411-19.41c10.703,0,19.411,8.707,19.411,19.41v6.972c0,0.553-0.448,1-1,1h-8c-0.553,0-1-0.447-1-1v-6.972
	c0-5.189-4.222-9.41-9.411-9.41c-5.189,0-9.411,4.221-9.411,9.41v13.654c2.811-0.084,5.955-0.141,9.411-0.141
	c14.701,0,24.016,0.996,24.108,1.006C132.851,95.853,133.235,96.282,133.235,96.792z M131.235,97.7
	c-2.645-0.242-11.008-0.908-23-0.908c-3.46,0-6.606,0.057-9.411,0.141c-0.336,0.01-0.675,0.021-1,0.031
	c-0.34,0.012-0.672,0.023-1,0.035c-2.287,0.086-4.298,0.187-6,0.289c-0.348,0.021-0.68,0.041-1,0.062
	c-0.35,0.022-0.682,0.045-1,0.067c-1.618,0.111-2.84,0.214-3.589,0.283v30.193c2.456,0.252,9.771,0.93,18.77,1.105
	c1.376,0.027,2.788,0.043,4.23,0.043c1.253,0,2.48-0.013,3.685-0.033c9.248-0.158,16.811-0.858,19.315-1.115V97.7z M110.852,134.314
	v-3.288c-0.86,0.011-1.733,0.017-2.616,0.017c-0.273,0-0.544-0.001-0.815-0.002v2.624c0,0.414-0.336,0.75-0.75,0.75
	c-0.414,0-0.75-0.336-0.75-0.75v-2.635c-0.3-0.004-0.598-0.008-0.895-0.012v3.47c0,0.37-0.205,0.711-0.532,0.884
	c-2.552,1.352-4.138,3.98-4.138,6.861c0,4.28,3.482,7.762,7.763,7.762c4.279,0,7.761-3.481,7.761-7.762
	c0-2.981-1.748-5.735-4.455-7.015C111.074,135.053,110.852,134.7,110.852,134.314z M90.824,95.284c1.707-0.102,3.726-0.201,6-0.285
	V81.278c0-6.292,5.119-11.41,11.411-11.41c6.292,0,11.411,5.118,11.411,11.41V83.5h2.86c0.414,0,0.75,0.336,0.75,0.75
	c0,0.414-0.336,0.75-0.75,0.75h-2.86v2.25h6v-5.972c0-9.6-7.812-17.41-17.411-17.41c-9.601,0-17.411,7.811-17.411,17.41V95.284z
	 M98.596,102.249c0,0.414,0.337,0.75,0.751,0.75h28.364c0.415,0,0.751-0.336,0.751-0.75c0-0.414-0.336-0.75-0.751-0.75H99.347
	C98.933,101.499,98.596,101.835,98.596,102.249z M94.536,101.749H91.55h-1.465h-1.533c-0.276,0-0.5,0.225-0.5,0.5
	c0,0.277,0.224,0.5,0.5,0.5h2.737h3.247c0.272,0,0.493-0.219,0.498-0.491c0-0.003,0.002-0.005,0.002-0.009
	C95.036,101.974,94.812,101.749,94.536,101.749z M127.711,117.501H99.347c-0.414,0-0.751,0.336-0.751,0.75
	c0,0.414,0.337,0.75,0.751,0.75h28.364c0.415,0,0.751-0.336,0.751-0.75C128.462,117.837,128.126,117.501,127.711,117.501z
	 M94.536,117.751h-5.984c-0.276,0-0.5,0.224-0.5,0.5c0,0.276,0.224,0.5,0.5,0.5h5.984c0.276,0,0.5-0.224,0.5-0.5
	C95.036,117.975,94.812,117.751,94.536,117.751z M127.711,122.835H99.347c-0.414,0-0.751,0.336-0.751,0.75
	c0,0.414,0.337,0.75,0.751,0.75h28.364c0.415,0,0.751-0.336,0.751-0.75C128.462,123.171,128.126,122.835,127.711,122.835z
	 M94.536,123.085h-5.984c-0.276,0-0.5,0.223-0.5,0.5c0,0.275,0.224,0.5,0.5,0.5h5.984c0.276,0,0.5-0.225,0.5-0.5
	C95.036,123.308,94.812,123.085,94.536,123.085z M127.711,112.167H99.347c-0.414,0-0.751,0.336-0.751,0.75s0.337,0.75,0.751,0.75
	h28.364c0.415,0,0.751-0.336,0.751-0.75S128.126,112.167,127.711,112.167z M94.536,112.417h-5.984c-0.276,0-0.5,0.224-0.5,0.5
	c0,0.276,0.224,0.5,0.5,0.5h5.984c0.276,0,0.5-0.224,0.5-0.5C95.036,112.641,94.812,112.417,94.536,112.417z M127.711,106.833
	H99.347c-0.414,0-0.751,0.336-0.751,0.75s0.337,0.75,0.751,0.75h28.364c0.415,0,0.751-0.336,0.751-0.75
	S128.126,106.833,127.711,106.833z M94.536,107.083h-5.984c-0.276,0-0.5,0.224-0.5,0.5c0,0.276,0.224,0.5,0.5,0.5h5.984
	c0.276,0,0.5-0.224,0.5-0.5C95.036,107.307,94.812,107.083,94.536,107.083z M110.065,146.113c0,1.073-0.873,1.947-1.947,1.947
	c-1.075,0-1.948-0.874-1.948-1.947c0-1.075,0.873-1.949,1.948-1.949C109.192,144.164,110.065,145.038,110.065,146.113z
	 M109.065,146.113c0-0.523-0.425-0.949-0.947-0.949c-0.522,0-0.948,0.426-0.948,0.949c0,0.522,0.426,0.947,0.948,0.947
	C108.641,147.061,109.065,146.636,109.065,146.113z"/>
</svg>
