<?xml version="1.0" encoding="utf-8"?>
<!-- Generator: Adobe Illustrator 17.1.0, SVG Export Plug-In . SVG Version: 6.00 Build 0)  -->
<!DOCTYPE svg PUBLIC "-//W3C//DTD SVG 1.1//EN" "http://www.w3.org/Graphics/SVG/1.1/DTD/svg11.dtd">
<svg version="1.1" id="Layer_1" xmlns="http://www.w3.org/2000/svg" xmlns:xlink="http://www.w3.org/1999/xlink" x="0px" y="0px"
	 viewBox="0 0 216 216" enable-background="new 0 0 216 216" xml:space="preserve">
<g>
	<path fill="#FFFFFF" d="M136.004,78.269H79.996c-0.552,0-1,0.448-1,1v57.463c0,0.553,0.448,1,1,1h56.008c0.553,0,1-0.447,1-1
		V79.269C137.004,78.716,136.557,78.269,136.004,78.269z M135.004,135.731H80.996V80.269h54.008V135.731z"/>
	<path fill="#FFFFFF" d="M83.797,133.068h48.031c0.414,0,0.75-0.336,0.75-0.75V84.287c0-0.414-0.336-0.75-0.75-0.75h-6.704
		c-0.116-0.461-0.432-1.382-1.184-1.827c-0.449-0.265-0.981-0.315-1.498-0.141c-0.827,0.279-1.422,0.839-1.719,1.62
		c-0.043,0.113-0.075,0.23-0.104,0.348H95.222c-0.116-0.461-0.431-1.382-1.183-1.827c-0.45-0.265-0.981-0.315-1.499-0.141
		c-0.827,0.279-1.421,0.839-1.718,1.62c-0.043,0.113-0.075,0.23-0.104,0.348h-6.921c-0.414,0-0.75,0.336-0.75,0.75v48.032
		C83.047,132.732,83.383,133.068,83.797,133.068z M84.547,85.037h6.097c0.193,1.797,1.196,3.617,1.347,3.882
		c0.185,0.324,0.522,0.505,0.87,0.505c0.168,0,0.338-0.042,0.494-0.131c0.48-0.273,0.647-0.884,0.374-1.364
		c-0.354-0.62-0.902-1.86-1.07-2.892h27.887c0.193,1.797,1.195,3.617,1.347,3.882c0.185,0.324,0.522,0.505,0.87,0.505
		c0.168,0,0.338-0.042,0.494-0.131c0.479-0.273,0.648-0.884,0.374-1.364c-0.354-0.62-0.902-1.86-1.07-2.892h8.518v7.078H84.547
		V85.037z M84.547,93.615h46.531v37.954H84.547V93.615z"/>
	<path fill="#FFFFFF" d="M94.567,86.22c-0.219-0.17-0.533-0.13-0.702,0.087c-0.169,0.218-0.131,0.532,0.087,0.702
		c0.245,0.191,0.428,0.417,0.544,0.673c0.199,0.438,0.215,0.927,0.045,1.378c-0.169,0.449-0.502,0.805-0.939,1.002
		c-0.437,0.197-0.925,0.214-1.374,0.044c-0.45-0.169-0.806-0.504-1.003-0.941c-0.117-0.26-0.167-0.547-0.148-0.854
		c0.017-0.276-0.193-0.513-0.468-0.53c-0.287-0.004-0.513,0.193-0.53,0.468c-0.029,0.47,0.05,0.917,0.235,1.326
		c0.307,0.682,0.862,1.202,1.562,1.466c0.321,0.121,0.655,0.181,0.987,0.181c0.393,0,0.784-0.084,1.152-0.251
		c0.679-0.307,1.198-0.861,1.462-1.561c0.264-0.701,0.239-1.461-0.07-2.143C95.224,86.865,94.942,86.512,94.567,86.22z"/>
	<path fill="#FFFFFF" d="M124.47,86.221c-0.219-0.17-0.532-0.133-0.702,0.086c-0.17,0.218-0.131,0.532,0.087,0.702
		c0.245,0.191,0.428,0.418,0.544,0.673c0.198,0.438,0.214,0.927,0.045,1.377c-0.169,0.45-0.502,0.806-0.94,1.003
		c-0.435,0.197-0.923,0.215-1.374,0.044c-0.45-0.169-0.807-0.504-1.004-0.941c-0.116-0.258-0.166-0.546-0.148-0.855
		c0.017-0.276-0.194-0.512-0.47-0.528c-0.271-0.022-0.512,0.194-0.528,0.47c-0.027,0.472,0.051,0.917,0.234,1.325
		c0.308,0.682,0.863,1.202,1.563,1.466c0.321,0.121,0.654,0.181,0.987,0.181c0.393,0,0.784-0.084,1.152-0.251
		c0.68-0.307,1.199-0.862,1.463-1.562c0.263-0.7,0.237-1.46-0.071-2.141C125.126,86.866,124.844,86.513,124.47,86.221z"/>
	<path fill="#FFFFFF" d="M109.648,112.574c-0.408-0.456-0.892-0.828-1.438-1.105c-0.184-0.093-0.368-0.178-0.551-0.255
		c0.074-0.048,0.147-0.096,0.221-0.146c0.419-0.284,0.789-0.635,1.1-1.043c0.303-0.402,0.555-0.867,0.751-1.389
		c0.195-0.533,0.294-1.154,0.294-1.845c0-1.292-0.242-2.414-0.72-3.333c-0.481-0.922-1.174-1.683-2.062-2.261
		c-0.867-0.561-1.913-0.97-3.107-1.215c-1.161-0.237-2.472-0.357-3.898-0.357c-1.047,0-2.025,0.081-2.905,0.24
		c-0.885,0.157-1.718,0.384-2.476,0.672c-0.747,0.281-1.458,0.615-2.115,0.994c-0.637,0.369-1.242,0.778-1.799,1.217
		c-0.211,0.167-0.253,0.47-0.094,0.688l3.051,4.18c0.162,0.221,0.471,0.272,0.693,0.113c0.863-0.612,1.74-1.088,2.607-1.415
		c0.849-0.321,1.815-0.484,2.874-0.484c1.304,0,1.915,0.219,2.202,0.405c0.352,0.224,0.515,0.537,0.515,0.987
		c0,0.409-0.063,0.94-0.362,1.145c-0.171,0.117-0.634,0.312-1.825,0.312H97.62c-0.276,0-0.5,0.224-0.5,0.5v5.005
		c0,0.276,0.224,0.5,0.5,0.5h3.348c1.351,0,1.975,0.226,2.259,0.414c0.352,0.236,0.522,0.665,0.522,1.311
		c0,0.631-0.211,1.061-0.666,1.352c-0.514,0.332-1.404,0.5-2.648,0.5c-1.211,0-2.341-0.211-3.36-0.626
		c-1.032-0.421-2.02-0.99-2.934-1.691c-0.216-0.165-0.526-0.129-0.696,0.086l-3.315,4.178c-0.166,0.208-0.139,0.51,0.061,0.687
		c1.296,1.139,2.808,2.045,4.495,2.694c1.689,0.649,3.579,0.979,5.617,0.979c1.607,0,3.075-0.155,4.36-0.461
		c1.319-0.311,2.456-0.807,3.379-1.474c0.936-0.676,1.668-1.548,2.177-2.59c0.507-1.039,0.764-2.284,0.764-3.702
		c0-0.791-0.123-1.51-0.366-2.136C110.374,113.573,110.048,113.025,109.648,112.574z M109.322,119.602
		c-0.436,0.894-1.063,1.641-1.864,2.219c-0.816,0.59-1.833,1.031-3.024,1.312c-1.211,0.288-2.6,0.434-4.13,0.434
		c-1.915,0-3.684-0.307-5.258-0.912c-1.42-0.547-2.707-1.287-3.831-2.205l2.714-3.42c0.873,0.623,1.802,1.138,2.769,1.531
		c1.139,0.465,2.397,0.7,3.737,0.7c1.459,0,2.503-0.216,3.19-0.659c0.735-0.473,1.124-1.232,1.124-2.193
		c0-0.99-0.325-1.71-0.967-2.143c-0.59-0.392-1.511-0.582-2.814-0.582H98.12v-4.005h2.481c1.129,0,1.911-0.159,2.391-0.487
		c0.528-0.363,0.796-1.026,0.796-1.97c0-0.79-0.338-1.423-0.975-1.828c-0.585-0.379-1.482-0.563-2.742-0.563
		c-1.18,0-2.266,0.185-3.228,0.548c-0.809,0.305-1.622,0.727-2.424,1.256l-2.476-3.392c0.411-0.301,0.845-0.584,1.297-0.845
		c0.609-0.352,1.27-0.662,1.969-0.924c0.701-0.267,1.474-0.477,2.298-0.623c0.823-0.149,1.741-0.225,2.729-0.225
		c1.359,0,2.603,0.113,3.698,0.336c1.072,0.22,2.002,0.581,2.763,1.074c0.741,0.482,1.319,1.117,1.719,1.884
		c0.403,0.776,0.607,1.742,0.607,2.872c0,0.574-0.079,1.079-0.231,1.497c-0.164,0.434-0.364,0.805-0.611,1.133
		c-0.243,0.32-0.534,0.596-0.863,0.818c-0.356,0.241-0.727,0.458-1.104,0.646c-0.187,0.094-0.296,0.294-0.273,0.502
		c0.023,0.208,0.173,0.38,0.376,0.431c0.491,0.122,0.962,0.3,1.44,0.541c0.434,0.222,0.82,0.517,1.144,0.88
		c0.319,0.36,0.584,0.806,0.785,1.325c0.197,0.511,0.298,1.108,0.298,1.774C109.984,117.604,109.762,118.702,109.322,119.602z"/>
	<path fill="#FFFFFF" d="M123.184,99.988h-5.369c-0.215,0-0.406,0.138-0.475,0.342c-0.164,0.492-0.359,0.917-0.582,1.269
		c-0.201,0.322-0.463,0.589-0.776,0.794c-0.324,0.21-0.73,0.377-1.209,0.497c-0.487,0.122-1.104,0.208-1.831,0.253
		c-0.264,0.017-0.469,0.235-0.469,0.499v4.078c0,0.276,0.224,0.5,0.5,0.5h3.412v15.483c0,0.276,0.224,0.5,0.5,0.5h6.299
		c0.276,0,0.5-0.224,0.5-0.5v-23.214C123.684,100.212,123.46,99.988,123.184,99.988z M122.684,123.202h-5.299v-15.483
		c0-0.276-0.224-0.5-0.5-0.5h-3.412v-3.115c0.593-0.054,1.1-0.134,1.543-0.245c0.584-0.146,1.093-0.357,1.511-0.628
		c0.438-0.285,0.801-0.655,1.077-1.099c0.211-0.331,0.399-0.715,0.563-1.143h4.517V123.202z"/>
</g>
</svg>
