<?xml version="1.0" encoding="utf-8"?>
<!-- Generator: Adobe Illustrator 17.1.0, SVG Export Plug-In . SVG Version: 6.00 Build 0)  -->
<!DOCTYPE svg PUBLIC "-//W3C//DTD SVG 1.1//EN" "http://www.w3.org/Graphics/SVG/1.1/DTD/svg11.dtd">
<svg version="1.1" id="Layer_1" xmlns="http://www.w3.org/2000/svg" xmlns:xlink="http://www.w3.org/1999/xlink" x="0px" y="0px"
	 viewBox="0 0 216 216" enable-background="new 0 0 216 216" xml:space="preserve">
<g>
	<path d="M112.481,90.406c0-9.44-7.681-17.121-17.121-17.121c-9.44,0-17.121,7.681-17.121,17.121c0,9.44,7.681,17.12,17.121,17.12
		C104.801,107.526,112.481,99.846,112.481,90.406z M79.739,90.406c0-8.613,7.008-15.621,15.621-15.621
		c8.613,0,15.621,7.008,15.621,15.621c0,8.613-7.008,15.62-15.621,15.62C86.747,106.026,79.739,99.019,79.739,90.406z"/>
	<path d="M106.425,85.156c0.128,0.271,0.397,0.428,0.678,0.428c0.108,0,0.218-0.024,0.321-0.073
		c0.375-0.178,0.533-0.625,0.356-0.999c-2.267-4.77-7.142-7.851-12.419-7.851c-0.414,0-0.75,0.336-0.75,0.75
		c0,0.414,0.336,0.75,0.75,0.75C100.062,78.162,104.406,80.907,106.425,85.156z"/>
	<path d="M140.806,138.581l-22.97-28.564c-0.625-0.776-1.077-0.866-1.363-0.866c-0.229,0-0.484,0.089-0.662,0.231l-0.2,0.161
		l-4.533-5.635c3.126-3.633,5.029-8.345,5.029-13.502c0-11.439-9.307-20.746-20.746-20.746c-11.439,0-20.745,9.307-20.745,20.746
		c0,11.438,9.306,20.745,20.745,20.745c3.356,0,6.518-0.819,9.326-2.24l4.599,5.719l-0.21,0.169
		c-0.275,0.224-0.809,0.876,0.188,2.112l22.971,28.565c0.625,0.774,1.076,0.864,1.362,0.864c0.228,0,0.483-0.089,0.661-0.231
		l6.732-5.412c0.207-0.166,0.36-0.45,0.389-0.715C141.395,139.831,141.444,139.373,140.806,138.581z M76.615,90.406
		c0-10.336,8.409-18.746,18.745-18.746c10.336,0,18.746,8.41,18.746,18.746c0,4.951-1.944,9.448-5.091,12.802l-4.095,3.293
		c-2.804,1.672-6.066,2.65-9.56,2.65C85.024,109.15,76.615,100.742,76.615,90.406z M109.688,105.372l4.071,5.062l-3.207,2.579
		l-4.104-5.103C107.611,107.17,108.696,106.322,109.688,105.372z M133.644,144.036l-22.673-28.195l5.454-4.387l22.674,28.195
		L133.644,144.036z"/>
	<path d="M135.005,137.969c0.147,0.185,0.365,0.28,0.584,0.28c0.165,0,0.331-0.054,0.47-0.166c0.323-0.259,0.374-0.731,0.114-1.054
		l-8.549-10.63c-0.258-0.323-0.73-0.375-1.054-0.114c-0.323,0.259-0.374,0.731-0.114,1.054L135.005,137.969z"/>
</g>
</svg>
