<svg id="ICON" xmlns="http://www.w3.org/2000/svg" viewBox="0 0 108 108"><defs><style>.cls-1{fill:#fff;}</style></defs><title>Icon_RH_objects_pencil_RGB_White</title><path class="cls-1" d="M84.63 32.53l-9.12-9.13a1.76 1.76 0 0 0-2.49 0L54.83 41.58l-9.93 9.93-13.28 13.28a1.73 1.73 0 0 0-.42.68l-4.7 13.82a1.76 1.76 0 0 0 2.23 2.24l13.82-4.7a1.78 1.78 0 0 0 .68-.42l13.29-13.28 1.25-1.25 7.39-7.39 1.29-1.29L84.63 35a1.76 1.76 0 0 0 0-2.47zm-3.83-1.35l-38 38c-1.67 1.67-4 2.19-5 1.14a2.36 2.36 0 0 1-.48-2.19 5.74 5.74 0 0 1 1.62-2.85l38-38zm-6.54-6.54l2 2-38 38a5.73 5.73 0 0 1-2.85 1.62 2.35 2.35 0 0 1-2.19-.48zM33.74 78a5.84 5.84 0 0 0-3.68-3.68l2.64-7.78a3.33 3.33 0 0 0 2.88.61 5.63 5.63 0 0 0 1.13-.36 5.53 5.53 0 0 0-.36 1.13 3.27 3.27 0 0 0 .76 3.08 3.76 3.76 0 0 0 4.21.38 3.89 3.89 0 0 0 .2 4zm22.09-16.67L42.35 74.81c-1-1.08-.48-3.34 1.17-5l38-38 1.91 1.91z"/></svg>