<?xml version="1.0" encoding="utf-8"?>
<!-- Generator: Adobe Illustrator 17.1.0, SVG Export Plug-In . SVG Version: 6.00 Build 0)  -->
<!DOCTYPE svg PUBLIC "-//W3C//DTD SVG 1.1//EN" "http://www.w3.org/Graphics/SVG/1.1/DTD/svg11.dtd">
<svg version="1.1" id="Layer_1" xmlns="http://www.w3.org/2000/svg" xmlns:xlink="http://www.w3.org/1999/xlink" x="0px" y="0px"
	 viewBox="0 0 144 144" enable-background="new 0 0 144 144" xml:space="preserve">
<g>
	<g>
		<path d="M37.904,61.043c0.157-0.621,0.349-1.238,0.569-1.835c0.145-0.389-0.055-0.82-0.442-0.964
			c-0.389-0.146-0.819,0.054-0.964,0.442c-0.239,0.646-0.447,1.315-0.617,1.987c-0.207,0.812-0.367,1.642-0.477,2.466
			c-0.127,0.945-0.192,1.925-0.195,2.911c-0.002,1.109,0.074,2.226,0.227,3.315c0.166,1.209,0.43,2.448,0.785,3.683
			c0.095,0.329,0.395,0.543,0.721,0.543c0.068,0,0.138-0.01,0.207-0.029c0.398-0.114,0.628-0.53,0.514-0.928
			c-0.336-1.166-0.585-2.334-0.74-3.474c-0.144-1.022-0.215-2.068-0.213-3.107c0.003-0.92,0.063-1.834,0.182-2.716
			C37.562,62.571,37.711,61.8,37.904,61.043z"/>
		<path d="M38.567,57.099c0.079,0.046,0.166,0.068,0.253,0.068c0.171,0,0.338-0.088,0.432-0.247
			c0.104-0.177,0.165-0.271,0.169-0.277c0.151-0.23,0.087-0.54-0.144-0.691c-0.23-0.152-0.539-0.088-0.692,0.143
			c0,0-0.072,0.109-0.196,0.32C38.249,56.652,38.329,56.958,38.567,57.099z"/>
		<path d="M39.189,62.137c-0.037,0.114-0.903,2.849,0.144,7.359c0.054,0.23,0.26,0.387,0.487,0.387c0.037,0,0.075-0.004,0.113-0.013
			c0.268-0.062,0.436-0.331,0.374-0.601c-0.978-4.215-0.175-6.798-0.167-6.823c0.084-0.263-0.059-0.544-0.321-0.629
			C39.556,61.732,39.276,61.873,39.189,62.137z"/>
		<path d="M91.655,99.687c-0.841,0.876-1.727,1.675-2.635,2.377c-0.819,0.639-1.689,1.224-2.589,1.739
			c-0.78,0.45-1.602,0.855-2.44,1.201c-0.718,0.297-1.439,0.547-2.206,0.763c-0.615,0.172-1.248,0.315-1.88,0.425
			c-0.407,0.071-0.681,0.46-0.61,0.868c0.063,0.364,0.381,0.621,0.738,0.621c0.043,0,0.086-0.004,0.13-0.011
			c0.681-0.119,1.362-0.272,2.028-0.459c0.825-0.232,1.602-0.502,2.373-0.821c0.898-0.371,1.779-0.805,2.615-1.287
			c0.958-0.55,1.888-1.174,2.761-1.854c0.964-0.746,1.904-1.595,2.797-2.523c0.287-0.299,0.277-0.773-0.021-1.061
			C92.416,99.377,91.942,99.388,91.655,99.687z"/>
		<path d="M77.534,106.661c-0.198,0-0.31-0.006-0.318-0.007c-0.28-0.033-0.512,0.192-0.529,0.468
			c-0.018,0.274,0.191,0.512,0.467,0.53c0,0,0.134,0.009,0.381,0.009c0.276,0,0.5-0.224,0.5-0.5
			C78.034,106.885,77.811,106.661,77.534,106.661z"/>
		<path d="M81.983,104.116c0.033,0,0.068-0.003,0.103-0.011c0.118-0.024,2.92-0.642,6.302-3.806
			c0.201-0.188,0.212-0.505,0.023-0.707c-0.188-0.202-0.505-0.212-0.707-0.023c-3.159,2.957-5.799,3.552-5.825,3.558
			c-0.269,0.059-0.441,0.323-0.384,0.593C81.545,103.955,81.752,104.116,81.983,104.116z"/>
		<path d="M88.372,39.895c1.171,0.289,2.307,0.656,3.377,1.093c0.966,0.392,1.907,0.853,2.798,1.371
			c0.801,0.463,1.56,0.972,2.262,1.517c0.624,0.479,1.218,0.993,1.766,1.527c0.462,0.453,0.902,0.93,1.308,1.416
			c0.148,0.178,0.361,0.269,0.576,0.269c0.17,0,0.34-0.057,0.48-0.174c0.318-0.266,0.361-0.738,0.096-1.057
			c-0.438-0.524-0.912-1.038-1.412-1.528c-0.59-0.576-1.229-1.129-1.897-1.641c-0.751-0.584-1.567-1.132-2.425-1.628
			c-0.95-0.553-1.956-1.046-2.986-1.463c-1.136-0.463-2.341-0.854-3.582-1.16c-0.401-0.096-0.808,0.147-0.908,0.549
			C87.725,39.389,87.97,39.795,88.372,39.895z"/>
		<path d="M101.626,48.916c0.088,0.175,0.265,0.275,0.447,0.275c0.075,0,0.151-0.017,0.224-0.053
			c0.246-0.123,0.347-0.423,0.224-0.67c0,0-0.059-0.118-0.182-0.332c-0.139-0.241-0.446-0.322-0.683-0.185
			c-0.239,0.138-0.322,0.443-0.185,0.683C101.572,48.81,101.623,48.909,101.626,48.916z"/>
		<path d="M90.539,42.417c-0.267-0.079-0.544,0.069-0.624,0.333c-0.08,0.265,0.068,0.544,0.333,0.624
			c4.14,1.259,5.973,3.246,5.99,3.267c0.1,0.108,0.235,0.164,0.372,0.164c0.119,0,0.238-0.042,0.334-0.128
			c0.205-0.185,0.223-0.499,0.038-0.705C96.902,45.883,94.97,43.765,90.539,42.417z"/>
		<path d="M96.942,59.774c-4.298-0.46-8.423,3.089-8.597,3.24c-0.208,0.183-0.229,0.498-0.048,0.706
			c0.1,0.113,0.238,0.171,0.377,0.171c0.117,0,0.234-0.041,0.329-0.123c0.039-0.035,3.955-3.419,7.831-3
			c1.689,0.183,3.141,1.082,4.312,2.67c0.165,0.222,0.479,0.269,0.699,0.105c0.223-0.164,0.27-0.478,0.105-0.699
			C100.606,61.022,98.922,59.99,96.942,59.774z"/>
		<path d="M71.368,88.473c-0.275,0.021-0.481,0.261-0.462,0.536c0.004,0.052,0.351,5.221-2.309,8.06
			c-1.146,1.224-2.709,1.843-4.646,1.843c-0.026,0-0.053,0-0.08,0c-0.246-0.024-0.502,0.22-0.504,0.496
			c-0.002,0.275,0.22,0.502,0.496,0.504c0.029,0,0.06,0,0.089,0c2.224,0,4.031-0.726,5.374-2.159
			c2.957-3.155,2.594-8.587,2.577-8.817C71.884,88.659,71.636,88.452,71.368,88.473z"/>
		<path d="M107.563,68.552c-0.31-2.858-1.075-5.341-2.275-7.384c-2.72-4.612-7.34-6.496-13.138-5.316
			c-4.812,0.98-8.573,3.807-12.218,6.545l-0.858,0.641c-0.863-0.77-1.855-1.397-2.92-1.848c0.401-0.938,0.942-1.805,1.67-2.683
			c1.359-1.643,3.377-3.357,6.541-5.559c0.267-0.186,0.539-0.404,0.818-0.651c1.46-1.292,2.397-3.005,2.641-4.821
			c0.262-1.95-0.251-3.916-1.482-5.686c-0.22-0.316-0.477-0.641-0.762-0.96c-3.15-3.559-8.258-5.519-14.381-5.519
			c-3.794,0-7.79,0.736-11.558,2.131c-2.746,1.018-5.309,2.369-7.411,3.91c-2.32,1.699-4.088,3.606-5.251,5.667
			c-1.86,3.285-3.028,8.386,1.967,14.027c3.267,3.688,7.787,5.612,11.772,7.309l0.985,0.425c-0.145,0.702-0.218,1.42-0.218,2.142
			c0,0.434,0.027,0.87,0.082,1.305c-1.019,0.119-2.036,0.089-3.162-0.103c-2.104-0.354-4.599-1.243-8.093-2.885
			c-0.323-0.15-0.646-0.283-0.964-0.389c-1.854-0.616-3.793-0.569-5.494,0.129c-1.817,0.746-3.264,2.176-4.183,4.136
			c-0.174,0.373-0.326,0.754-0.451,1.13c-2.858,8.552,2.983,18.295,10.04,24.157c2.269,1.88,4.72,3.424,7.087,4.467
			c2.589,1.139,5.082,1.716,7.409,1.716h0.116c3.779-0.035,8.786-1.576,11.172-8.719c1.562-4.672,0.996-9.337,0.447-13.849
			c-0.044-0.359-0.086-0.717-0.128-1.069c1.095-0.364,2.133-0.91,3.057-1.608c0.615,0.817,1.096,1.718,1.491,2.786
			c0.738,1.983,1.214,4.588,1.542,8.444c0.027,0.324,0.078,0.676,0.152,1.039c0.389,1.907,1.402,3.574,2.854,4.694
			c1.548,1.197,3.548,1.739,5.662,1.562c0.36-0.027,0.771-0.088,1.219-0.18c8.84-1.804,14.358-11.734,15.905-20.776
			C107.739,74.03,107.848,71.139,107.563,68.552z M105.77,76.659c-1.461,8.539-6.581,17.897-14.728,19.561
			c-0.386,0.079-0.733,0.13-1.038,0.153c-1.783,0.15-3.375-0.289-4.625-1.255c-1.185-0.913-1.98-2.229-2.302-3.807
			c-0.062-0.304-0.104-0.597-0.128-0.866c-0.34-3.997-0.843-6.724-1.63-8.84c-0.515-1.392-1.2-2.576-2.075-3.624
			c0.936-1.001,2.032-2.628,2.716-5.158c0.072-0.267-0.085-0.541-0.352-0.613c-0.268-0.069-0.542,0.086-0.613,0.352
			c-0.659,2.438-1.732,3.951-2.592,4.838l-0.368,0.323c-1.056,0.929-2.328,1.607-3.679,1.963l-0.628,0.166l0.074,0.646
			c0.065,0.559,0.131,1.129,0.202,1.704c0.527,4.346,1.073,8.84-0.381,13.191c-1.667,4.989-5.044,7.65-9.763,7.694h-0.104
			c-2.118,0-4.407-0.534-6.805-1.589c-2.242-0.987-4.571-2.456-6.733-4.248c-6.664-5.536-12.209-14.648-9.576-22.528
			c0.112-0.335,0.243-0.659,0.388-0.97c0.756-1.611,1.93-2.781,3.394-3.383c0.726-0.298,1.5-0.448,2.303-0.448
			c0.714,0,1.438,0.119,2.15,0.355c0.267,0.088,0.534,0.201,0.802,0.324c3.619,1.7,6.233,2.626,8.477,3.004
			c1.481,0.252,2.812,0.253,4.176,0.02c0.373,1.17,1.036,2.559,2.214,4.01c0.1,0.121,0.243,0.185,0.389,0.185
			c0.111,0,0.223-0.036,0.315-0.111c0.214-0.175,0.247-0.489,0.073-0.704c-1.109-1.366-1.717-2.674-2.052-3.758l-0.107-0.539
			c-0.118-0.59-0.178-1.189-0.178-1.782c0-0.809,0.106-1.611,0.317-2.385l0.171-0.627l-2.166-0.936
			c-4.03-1.715-8.196-3.489-11.239-6.924c-3.49-3.941-4.107-8.192-1.784-12.295c1.059-1.874,2.685-3.622,4.832-5.195
			c1.992-1.46,4.429-2.744,7.045-3.714c3.602-1.333,7.419-2.037,11.037-2.037c5.688,0,10.396,1.78,13.26,5.015
			c0.246,0.276,0.465,0.552,0.651,0.82c1.014,1.457,1.438,3.058,1.228,4.63c-0.198,1.48-0.941,2.828-2.148,3.897
			c-0.232,0.206-0.46,0.39-0.682,0.544c-3.279,2.281-5.389,4.08-6.84,5.832c-0.945,1.144-1.629,2.324-2.102,3.597
			c-1.248-0.257-3.021-0.318-5.35,0.336c-0.266,0.075-0.42,0.351-0.346,0.617c0.075,0.266,0.35,0.423,0.617,0.346
			c2.123-0.597,3.727-0.543,4.835-0.321l0.619,0.209c1.315,0.443,2.529,1.197,3.544,2.213l0.458,0.458l1.896-1.414
			c3.505-2.633,7.128-5.355,11.608-6.268c5.192-1.062,9.136,0.519,11.546,4.606c1.092,1.857,1.79,4.141,2.077,6.786
			C106.342,71.166,106.237,73.914,105.77,76.659z"/>
		<path d="M72.062,63.675c-3.895,0-7.063,3.169-7.063,7.063c0,3.894,3.169,7.062,7.063,7.062s7.063-3.168,7.063-7.062
			C79.126,66.844,75.957,63.675,72.062,63.675z M72.062,76.8c-3.344,0-6.063-2.719-6.063-6.062c0-3.344,2.72-6.063,6.063-6.063
			c3.344,0,6.063,2.72,6.063,6.063C78.126,74.081,75.406,76.8,72.062,76.8z"/>
		<path d="M72.143,66.974c-2.029,0-3.68,1.652-3.68,3.683c0,2.03,1.65,3.682,3.68,3.682c2.03,0,3.683-1.651,3.683-3.682
			C75.825,68.626,74.173,66.974,72.143,66.974z M72.143,73.338c-1.478,0-2.68-1.203-2.68-2.682c0-1.479,1.202-2.683,2.68-2.683
			c1.479,0,2.683,1.203,2.683,2.683C74.825,72.135,73.622,73.338,72.143,73.338z"/>
		<path d="M51.172,52.223c0.001-1.699,0.738-3.238,2.19-4.574c0.203-0.188,0.216-0.504,0.029-0.707
			c-0.188-0.202-0.503-0.214-0.707-0.029c-1.666,1.533-2.512,3.32-2.513,5.311c-0.002,4.324,3.977,8.043,4.146,8.198
			c0.096,0.089,0.218,0.133,0.339,0.133c0.135,0,0.27-0.054,0.367-0.161c0.188-0.203,0.175-0.52-0.028-0.706
			C54.958,59.65,51.17,56.114,51.172,52.223z"/>
	</g>
</g>
</svg>
