<svg id="Layer_1" data-name="Layer 1" xmlns="http://www.w3.org/2000/svg" viewBox="0 0 108 108"><defs><style>.cls-1{fill:none;}.cls-2{fill:#fff;}</style></defs><title>Icon_RH_Object_Horseshoe_RGB_White</title><path class="cls-1" d="M33,64.38a0.53,0.53,0,0,0-.38.11,1.07,1.07,0,0,0-.2.73,2,2,0,0,0,1.42,1.93A0.43,0.43,0,0,0,34.23,67a1.05,1.05,0,0,0,.2-0.71A2,2,0,0,0,33,64.38Z"/><path class="cls-1" d="M42.1,75.55h0a0.48,0.48,0,0,0-.38.14,1.07,1.07,0,0,0-.15.74,2,2,0,0,0,1.57,1.81,0.49,0.49,0,0,0,.38-0.14,1,1,0,0,0,.14-0.73A2,2,0,0,0,42.1,75.55Z"/><path class="cls-1" d="M65.84,75.56a2,2,0,0,0-1.57,1.83,1,1,0,0,0,.14.73,0.49,0.49,0,0,0,.38.14h0a2,2,0,0,0,1.54-1.82,1.08,1.08,0,0,0-.15-0.74A0.49,0.49,0,0,0,65.84,75.56Z"/><path class="cls-1" d="M29.3,50.3a0.49,0.49,0,0,0-.4,0,1.08,1.08,0,0,0-.44.61,2,2,0,0,0,.67,2.3,0.49,0.49,0,0,0,.4,0,1.06,1.06,0,0,0,.43-0.6A2,2,0,0,0,29.3,50.3Z"/><path class="cls-1" d="M79,50.27a0.34,0.34,0,0,0-.14,0,0.72,0.72,0,0,0-.26.06,2,2,0,0,0-.66,2.31,1.06,1.06,0,0,0,.43.6,0.49,0.49,0,0,0,.4,0,2,2,0,0,0,.67-2.3A1.08,1.08,0,0,0,79,50.27Z"/><path class="cls-1" d="M76.41,26.11c-0.57-.94-1.82-2.41-3.78-1.67-0.56.21-2.25,0.84-1.61,4a10.56,10.56,0,0,0,.58,1.75c0.18,0.47.38,0.95,0.53,1.46,0.29,1,.6,1.93.92,2.89A44.28,44.28,0,0,1,75,41.81c1.7,11.64-.76,20.94-7.52,28.44a18.24,18.24,0,0,1-13.24,6.43,18.21,18.21,0,0,1-13.31-6,29.35,29.35,0,0,1-5.62-8.53c-4.21-9.9-4.06-20.24.45-31.61,0.12-.31.26-0.61,0.41-0.91s0.19-.39.27-0.59c0.62-1.43,1-3.33-.78-4.24s-3.41-.15-4.49,1.75c-3.8,6.68-5.41,13.74-5.41,23.6A37.7,37.7,0,0,0,36.34,75.82c9.85,10.2,24,10.55,34.31.87C83.29,64.87,85.93,41.7,76.41,26.11ZM30.93,53a2,2,0,0,1-1,1.18,1.39,1.39,0,0,1-.56.12,1.73,1.73,0,0,1-.63-0.13h0a3,3,0,0,1-1.25-3.64,2,2,0,0,1,1-1.18,1.52,1.52,0,0,1,1.19,0C30.81,49.78,31.45,51.62,30.93,53Zm4,14.8a1.51,1.51,0,0,1-1.09.41h0a3,3,0,0,1-2.43-3,2,2,0,0,1,.52-1.45A1.48,1.48,0,0,1,33,63.35c1.23,0,2.46,1.53,2.44,3A2,2,0,0,1,35,67.78Zm9.31,11a1.52,1.52,0,0,1-1.09.49H43.08a3,3,0,0,1-2.57-2.78,2,2,0,0,1,.4-1.49A1.52,1.52,0,0,1,42,74.52c1.22-.1,2.57,1.33,2.66,2.79A2,2,0,0,1,44.26,78.79Zm20.57,0.49H64.74a1.52,1.52,0,0,1-1.09-.49,2,2,0,0,1-.4-1.48c0.09-1.46,1.41-2.9,2.66-2.79A1.52,1.52,0,0,1,67,75a2,2,0,0,1,.4,1.49A3,3,0,0,1,64.83,79.29Zm9.26-11.1h0A1.51,1.51,0,0,1,73,67.78a2,2,0,0,1-.51-1.44c0-1.46,1.22-3,2.44-3a1.62,1.62,0,0,1,1.12.41,2,2,0,0,1,.52,1.46A3,3,0,0,1,74.08,68.19Zm5.07-14h0a1.73,1.73,0,0,1-.63.13A1.39,1.39,0,0,1,78,54.16,2,2,0,0,1,77,53c-0.52-1.36.11-3.2,1.25-3.65a1.52,1.52,0,0,1,1.19,0,2,2,0,0,1,1,1.19A3,3,0,0,1,79.16,54.15Z"/><path class="cls-1" d="M74.91,64.38h0a2,2,0,0,0-1.42,1.94,1.05,1.05,0,0,0,.2.71,0.62,0.62,0,0,0,.39.11,2,2,0,0,0,1.42-1.93,1.08,1.08,0,0,0-.2-0.73A0.48,0.48,0,0,0,74.91,64.38Z"/><path class="cls-2" d="M74.88,63.35c-1.22,0-2.46,1.53-2.44,3A2,2,0,0,0,73,67.78a1.51,1.51,0,0,0,1.09.41h0a3,3,0,0,0,2.43-3A2,2,0,0,0,76,63.76,1.62,1.62,0,0,0,74.88,63.35Zm-0.82,3.8A0.62,0.62,0,0,1,73.67,67a1.05,1.05,0,0,1-.2-0.71,2,2,0,0,1,1.42-1.94h0a0.48,0.48,0,0,1,.37.11,1.08,1.08,0,0,1,.2.73A2,2,0,0,1,74.06,67.15Z"/><path class="cls-2" d="M78.18,25c-1.49-2.45-3.89-3.42-6.27-2.53S68.37,25.74,69,28.83a12.27,12.27,0,0,0,.69,2.1c0.17,0.42.34,0.85,0.47,1.28,0.29,1,.61,2,0.93,2.94a42.7,42.7,0,0,1,1.85,7c1.6,11-.69,19.74-7,26.76A16.21,16.21,0,0,1,54.2,74.62a16,16,0,0,1-11.79-5.36,27.21,27.21,0,0,1-5.21-7.91c-4-9.37-3.83-19.2.47-30,0.1-.26.23-0.52,0.35-0.78s0.21-.44.3-0.66c1.34-3.08.69-5.66-1.73-6.9C34,21.63,31,22.69,29.36,25.54c-4,7-5.68,14.38-5.68,24.63h0A39.77,39.77,0,0,0,34.86,77.26c5.51,5.7,12.24,8.56,19,8.56a26.6,26.6,0,0,0,18.2-7.62C85.6,65.54,88.34,41.69,78.18,25ZM70.65,76.69C60.3,86.37,46.19,86,36.34,75.82A37.7,37.7,0,0,1,25.75,50.16c0-9.86,1.61-16.92,5.41-23.6,1.08-1.9,2.85-2.59,4.49-1.75s1.4,2.8.78,4.24c-0.09.2-.18,0.39-0.27,0.59s-0.29.6-.41,0.91c-4.51,11.37-4.66,21.71-.45,31.61a29.35,29.35,0,0,0,5.62,8.53,18.21,18.21,0,0,0,13.31,6,18.24,18.24,0,0,0,13.24-6.43c6.76-7.5,9.21-16.8,7.52-28.44A44.28,44.28,0,0,0,73,34.52c-0.31-1-.63-1.92-0.92-2.89-0.15-.51-0.34-1-0.53-1.46A10.56,10.56,0,0,1,71,28.42c-0.63-3.14,1.06-3.77,1.61-4,2-.74,3.2.73,3.78,1.67C85.93,41.7,83.29,64.87,70.65,76.69Z"/><path class="cls-2" d="M65.9,74.52c-1.25-.11-2.57,1.33-2.66,2.79a2,2,0,0,0,.4,1.48,1.52,1.52,0,0,0,1.09.49h0.09A3,3,0,0,0,67.4,76.5,2,2,0,0,0,67,75,1.52,1.52,0,0,0,65.9,74.52Zm-1.08,3.73h0a0.49,0.49,0,0,1-.38-0.14,1,1,0,0,1-.14-0.73,2,2,0,0,1,1.57-1.83,0.49,0.49,0,0,1,.37.14,1.08,1.08,0,0,1,.15.74A2,2,0,0,1,64.83,78.25Z"/><path class="cls-2" d="M80.41,50.51a2,2,0,0,0-1-1.19,1.52,1.52,0,0,0-1.19,0c-1.14.44-1.78,2.28-1.25,3.65a2,2,0,0,0,1,1.18,1.39,1.39,0,0,0,.56.12,1.73,1.73,0,0,0,.63-0.13h0A3,3,0,0,0,80.41,50.51Zm-1.63,2.67a0.49,0.49,0,0,1-.4,0,1.06,1.06,0,0,1-.43-0.6,2,2,0,0,1,.66-2.31,0.72,0.72,0,0,1,.26-0.06,0.34,0.34,0,0,1,.14,0,1.08,1.08,0,0,1,.44.61A2,2,0,0,1,78.78,53.19Z"/><path class="cls-2" d="M33,63.35a1.48,1.48,0,0,0-1.12.41,2,2,0,0,0-.52,1.45,3,3,0,0,0,2.43,3h0A1.51,1.51,0,0,0,35,67.78a2,2,0,0,0,.51-1.44C35.48,64.88,34.25,63.37,33,63.35ZM34.23,67a0.43,0.43,0,0,1-.39.11,2,2,0,0,1-1.42-1.93,1.07,1.07,0,0,1,.2-0.73A0.53,0.53,0,0,1,33,64.38a2,2,0,0,1,1.42,1.94A1.05,1.05,0,0,1,34.23,67Z"/><path class="cls-2" d="M42,74.52a1.52,1.52,0,0,0-1.09.49,2,2,0,0,0-.4,1.49,3,3,0,0,0,2.57,2.78h0.09a1.52,1.52,0,0,0,1.09-.49,2,2,0,0,0,.4-1.48C44.56,75.86,43.21,74.42,42,74.52Zm1.49,3.59a0.49,0.49,0,0,1-.38.14,2,2,0,0,1-1.57-1.81,1.07,1.07,0,0,1,.15-0.74,0.48,0.48,0,0,1,.38-0.14h0a2,2,0,0,1,1.53,1.83A1,1,0,0,1,43.48,78.11Z"/><path class="cls-2" d="M29.67,49.33a1.52,1.52,0,0,0-1.19,0,2,2,0,0,0-1,1.18,3,3,0,0,0,1.25,3.64h0a1.73,1.73,0,0,0,.63.13,1.39,1.39,0,0,0,.56-0.12,2,2,0,0,0,1-1.18C31.45,51.62,30.81,49.78,29.67,49.33ZM30,52.61a1.06,1.06,0,0,1-.43.6,0.49,0.49,0,0,1-.4,0,2,2,0,0,1-.67-2.3,1.08,1.08,0,0,1,.44-0.61,0.49,0.49,0,0,1,.4,0A2,2,0,0,1,30,52.61Z"/></svg>