<?xml version="1.0" encoding="utf-8"?>
<!-- Generator: Adobe Illustrator 17.1.0, SVG Export Plug-In . SVG Version: 6.00 Build 0)  -->
<!DOCTYPE svg PUBLIC "-//W3C//DTD SVG 1.1//EN" "http://www.w3.org/Graphics/SVG/1.1/DTD/svg11.dtd">
<svg version="1.1" id="Layer_1" xmlns="http://www.w3.org/2000/svg" xmlns:xlink="http://www.w3.org/1999/xlink" x="0px" y="0px"
	 viewBox="0 0 144 144" enable-background="new 0 0 144 144" xml:space="preserve">
<g>
	<g>
		<path fill="#FFFFFF" d="M84.68,56.796L69.79,66.798c-0.236,0.16-0.297,0.48-0.137,0.717c0.1,0.148,0.262,0.229,0.426,0.229
			c0.103,0,0.203-0.029,0.293-0.089l14.89-10.001c0.236-0.16,0.299-0.481,0.14-0.717C85.239,56.699,84.918,56.636,84.68,56.796"/>
		<path fill="#FFFFFF" d="M77.162,65.717l-11.796,7.967c-0.236,0.161-0.301,0.482-0.139,0.719c0.099,0.148,0.262,0.229,0.428,0.229
			c0.1,0,0.203-0.03,0.291-0.089l11.793-7.969c0.238-0.16,0.302-0.482,0.14-0.719C77.72,65.618,77.396,65.557,77.162,65.717"/>
		<path fill="#FFFFFF" d="M89.246,34.118H54.757c-2.141,0-3.882,1.741-3.882,3.881v66.49c0,2.14,1.741,3.881,3.882,3.881h34.489
			c2.139,0,3.879-1.741,3.879-3.881v-66.49C93.125,35.859,91.385,34.118,89.246,34.118 M54.757,36.118h34.489
			c1.036,0,1.879,0.844,1.879,1.881v8.496h-38.25v-8.496C52.875,36.962,53.72,36.118,54.757,36.118 M91.125,94.991h-38.25V47.495
			h38.25V94.991z M89.246,106.37H54.757c-1.037,0-1.882-0.844-1.882-1.881v-8.498h38.25v8.498
			C91.125,105.526,90.282,106.37,89.246,106.37"/>
		<path fill="#FFFFFF" d="M68.613,42.036h6.775c0.413,0,0.75-0.336,0.75-0.75c0-0.414-0.337-0.75-0.75-0.75h-6.775
			c-0.414,0-0.75,0.336-0.75,0.75C67.863,41.7,68.199,42.036,68.613,42.036"/>
		<path fill="#FFFFFF" d="M65.229,42.281c0.271,0,0.53-0.101,0.71-0.29c0.189-0.181,0.29-0.44,0.29-0.71
			c0-0.261-0.101-0.521-0.29-0.7c-0.359-0.37-1.029-0.38-1.41,0c-0.189,0.189-0.3,0.439-0.3,0.7c0,0.27,0.11,0.529,0.3,0.71
			C64.708,42.18,64.969,42.281,65.229,42.281"/>
		<path fill="#FFFFFF" d="M73.943,97.485h-3.888c-1.449,0-2.629,1.18-2.629,2.629v1.9c0,1.45,1.18,2.631,2.629,2.631h3.888
			c1.45,0,2.631-1.181,2.631-2.631v-1.9C76.574,98.665,75.394,97.485,73.943,97.485 M75.074,102.015
			c0,0.624-0.507,1.131-1.131,1.131h-3.888c-0.623,0-1.129-0.507-1.129-1.131v-1.9c0-0.622,0.506-1.129,1.129-1.129h3.888
			c0.624,0,1.131,0.507,1.131,1.129V102.015z"/>
	</g>
</g>
</svg>
