<svg id="Layer_1" data-name="Layer 1" xmlns="http://www.w3.org/2000/svg" viewBox="0 0 33.5 71.15"><defs><style>.cls-1{fill:#fff;}</style></defs><title>Icon_RH_Objects_PaperTowels_RGB_White</title><path class="cls-1" d="M6.84 41.69a.5.5 0 0 0-.5.5v2a.5.5 0 0 0 1 0v-2a.5.5 0 0 0-.5-.5zm0 10a.5.5 0 0 0-.5.5v2a.5.5 0 0 0 1 0v-2a.5.5 0 0 0-.5-.5zm0 5a.5.5 0 0 0-.5.5v2a.5.5 0 0 0 1 0v-2a.5.5 0 0 0-.5-.5zm0 5a.5.5 0 0 0-.5.5v2a.5.5 0 0 0 1 0v-2a.5.5 0 0 0-.5-.5zm0-25a.5.5 0 0 0-.5.5v2a.5.5 0 0 0 1 0v-2a.5.5 0 0 0-.5-.5zm0 10a.5.5 0 0 0-.5.5v2a.5.5 0 0 0 1 0v-2a.5.5 0 0 0-.5-.5zm0-15a.5.5 0 0 0-.5.5v2a.5.5 0 0 0 1 0v-2a.5.5 0 0 0-.5-.5zM16.75 0C7.2 0 0 3.28 0 7.63v56.16a1 1 0 0 0 0 .27c.08.29 2.17 7.1 16.54 7.1h.21c9 0 12.19-1.34 12.32-1.4a1 1 0 0 0 .6-1l-.05-.72c3.18-1.43 3.87-3.08 3.87-4.26V7.64C33.5 3.28 26.3 0 16.75 0zm0 69.15h-.16a26.52 26.52 0 0 1-9.25-1.39v-.58a.5.5 0 0 0-1 0v.17c-3.18-1.45-4.15-3.3-4.33-3.74V11.36a13.76 13.76 0 0 0 4.33 2.33v.49a.5.5 0 0 0 1 0v-.16a32.42 32.42 0 0 0 8.25 1.22 47 47 0 0 1 13.6 2.44c-.73 4.73-2.6 24.31-2.63 31.57 0 3.72.83 15.66 1.07 18.88a44.44 44.44 0 0 1-10.88 1.03zm14.75-5.37c0 .66-.75 1.42-2 2.1-.33-4.65-.92-13.6-.91-16.64 0-7.7 2.23-30.15 2.72-31.94a1 1 0 0 0-.56-1.17 32.28 32.28 0 0 0-5.9-1.75 16.26 16.26 0 0 0 6.68-3zM16.75 13.27C8.06 13.27 2 10.27 2 7.64S8.06 2 16.75 2 31.5 5 31.5 7.63s-6.06 5.64-14.75 5.64zm-9.92 3.42a.5.5 0 0 0-.5.5v2a.5.5 0 0 0 1 0v-2a.5.5 0 0 0-.49-.5zm9.86-11.91c-2.4 0-5 .84-5 2.4s2.55 2.4 5 2.4c2.82 0 4.95-1 4.95-2.4s-2.12-2.41-4.95-2.41zm0 3.8c-2.41 0-4-.83-4-1.4s1.54-1.4 4-1.4 3.95.83 3.95 1.4-1.53 1.4-3.95 1.4zM6.84 26.69a.5.5 0 0 0-.5.5v2a.5.5 0 0 0 1 0v-2a.5.5 0 0 0-.5-.5zm0-5a.5.5 0 0 0-.5.5v2a.5.5 0 0 0 1 0v-2a.5.5 0 0 0-.5-.5z"/></svg>