<?xml version="1.0" encoding="utf-8"?>
<!-- Generator: Adobe Illustrator 17.1.0, SVG Export Plug-In . SVG Version: 6.00 Build 0)  -->
<!DOCTYPE svg PUBLIC "-//W3C//DTD SVG 1.1//EN" "http://www.w3.org/Graphics/SVG/1.1/DTD/svg11.dtd">
<svg version="1.1" id="Layer_1" xmlns="http://www.w3.org/2000/svg" xmlns:xlink="http://www.w3.org/1999/xlink" x="0px" y="0px"
	 viewBox="0 0 216 216" enable-background="new 0 0 216 216" xml:space="preserve">
<path d="M132.03,68.045H85.106c-2.646,0-4.8,2.154-4.8,4.802v68.134c0,2.646,2.153,4.8,4.8,4.8h46.924
	c2.647,0,4.801-2.153,4.801-4.8V72.847C136.831,70.199,134.678,68.045,132.03,68.045z M134.831,140.98c0,1.544-1.256,2.8-2.801,2.8
	H85.106c-1.545,0-2.8-1.256-2.8-2.8V72.847c0-1.545,1.255-2.802,2.8-2.802h46.924c1.545,0,2.801,1.257,2.801,2.802V140.98z
	 M129.014,77h-7.393v-3.441c0-1.021-0.831-1.853-1.852-1.853H97.372c-1.023,0-1.854,0.831-1.854,1.853V77h-7.393
	c-1.599,0-2.897,1.212-2.897,2.702v58.179c0,1.49,1.299,2.702,2.897,2.702h40.889c1.597,0,2.897-1.212,2.897-2.702V79.702
	C131.911,78.212,130.61,77,129.014,77z M97.018,77v-3.441c0-0.194,0.159-0.353,0.354-0.353h22.396c0.194,0,0.352,0.158,0.352,0.353
	V77v1.5v0.681c0,0.194-0.158,0.353-0.352,0.353H97.372c-0.195,0-0.354-0.158-0.354-0.353V78.5V77z M130.411,137.881
	c0,0.663-0.628,1.202-1.397,1.202H88.125c-0.771,0-1.397-0.539-1.397-1.202V79.702c0-0.663,0.627-1.202,1.397-1.202h7.393v0.681
	c0,1.021,0.831,1.853,1.854,1.853h22.396c1.021,0,1.852-0.831,1.852-1.853V78.5h7.393c0.77,0,1.397,0.539,1.397,1.202V137.881z
	 M127.965,91.145c0,0.414-0.335,0.75-0.749,0.75h-20.527c-0.414,0-0.75-0.336-0.75-0.75c0-0.414,0.336-0.75,0.75-0.75h20.527
	C127.63,90.395,127.965,90.731,127.965,91.145z M127.965,96.177c0,0.414-0.335,0.75-0.749,0.75h-20.527
	c-0.414,0-0.75-0.336-0.75-0.75c0-0.414,0.336-0.75,0.75-0.75h20.527C127.63,95.427,127.965,95.763,127.965,96.177z
	 M127.965,107.962c0,0.414-0.335,0.75-0.749,0.75h-20.527c-0.414,0-0.75-0.336-0.75-0.75c0-0.414,0.336-0.75,0.75-0.75h20.527
	C127.63,107.212,127.965,107.548,127.965,107.962z M127.965,112.994c0,0.414-0.335,0.75-0.749,0.75h-20.527
	c-0.414,0-0.75-0.336-0.75-0.75c0-0.414,0.336-0.75,0.75-0.75h20.527C127.63,112.244,127.965,112.58,127.965,112.994z
	 M127.965,125.104c0,0.414-0.335,0.75-0.749,0.75h-20.527c-0.414,0-0.75-0.336-0.75-0.75c0-0.414,0.336-0.75,0.75-0.75h20.527
	C127.63,124.354,127.965,124.689,127.965,125.104z M127.965,130.136c0,0.414-0.335,0.75-0.749,0.75h-20.527
	c-0.414,0-0.75-0.336-0.75-0.75c0-0.414,0.336-0.75,0.75-0.75h20.527C127.63,129.386,127.965,129.722,127.965,130.136z
	 M90.729,98.927h10.066c0.414,0,0.75-0.336,0.75-0.75V88.112c0-0.05-0.02-0.094-0.028-0.141l1.376-2.314
	c0.283-0.475,0.128-1.089-0.347-1.371c-0.475-0.283-1.088-0.125-1.371,0.348l-1.624,2.729h-8.822c-0.413,0-0.749,0.336-0.749,0.75
	v10.064C89.98,98.591,90.316,98.927,90.729,98.927z M91.48,88.862h7.179l-2.849,4.786l-0.931-1.745
	c-0.26-0.487-0.867-0.672-1.354-0.411c-0.486,0.26-0.671,0.865-0.411,1.353l1.766,3.31c0.016,0.026,0.036,0.047,0.053,0.071
	c0.02,0.03,0.04,0.059,0.062,0.085c0.069,0.084,0.148,0.162,0.246,0.223c0.004,0.002,0.006,0.007,0.011,0.01
	c0.001,0.001,0.003,0.001,0.003,0.001c0.033,0.02,0.068,0.028,0.103,0.044c0.127,0.058,0.264,0.095,0.404,0.096h0.001h0.002l0,0
	c0.082,0,0.164-0.011,0.245-0.031c0.029-0.008,0.057-0.023,0.087-0.034c0.046-0.017,0.093-0.029,0.138-0.053
	c0,0,0.003-0.003,0.005-0.004c0.106-0.058,0.193-0.136,0.268-0.222c0.019-0.022,0.038-0.046,0.056-0.069
	c0.02-0.026,0.043-0.047,0.06-0.075l3.423-5.752v6.983H91.48V88.862z M102.53,101.089c-0.482-0.274-1.091-0.105-1.365,0.374
	l-1.842,3.233h-8.594c-0.413,0-0.749,0.336-0.749,0.75v10.063c0,0.414,0.336,0.75,0.749,0.75h10.066c0.414,0,0.75-0.336,0.75-0.75
	v-10.063c0-0.146-0.053-0.274-0.125-0.39l1.483-2.604C103.178,101.974,103.01,101.362,102.53,101.089z M100.046,114.76H91.48v-8.563
	h6.987l-2.639,4.631l-0.934-1.899c-0.243-0.494-0.838-0.698-1.339-0.456c-0.495,0.243-0.699,0.843-0.456,1.339l1.766,3.593
	c0.019,0.041,0.049,0.072,0.074,0.109c0.019,0.027,0.035,0.056,0.055,0.081c0.073,0.088,0.159,0.167,0.264,0.229
	c0.004,0.002,0.006,0.007,0.01,0.009c0.05,0.028,0.104,0.044,0.156,0.063c0.025,0.009,0.05,0.023,0.075,0.031
	c0.087,0.023,0.175,0.036,0.263,0.036h0.002l0,0l0.001-0.001c0.136,0,0.27-0.035,0.401-0.093c0.014-0.005,0.025-0.003,0.038-0.009
	c0.007-0.004,0.012-0.011,0.019-0.015c0.105-0.055,0.196-0.126,0.271-0.21c0.019-0.02,0.035-0.044,0.053-0.066
	c0.028-0.037,0.061-0.069,0.084-0.111l3.414-5.988V114.76z M102.53,118.089c-0.482-0.273-1.091-0.105-1.365,0.374l-1.842,3.233
	h-8.594c-0.413,0-0.749,0.336-0.749,0.75v10.063c0,0.414,0.336,0.75,0.749,0.75h10.066c0.414,0,0.75-0.336,0.75-0.75v-10.063
	c0-0.146-0.053-0.274-0.125-0.39l1.483-2.604C103.178,118.974,103.01,118.362,102.53,118.089z M100.046,131.76H91.48v-8.563h6.987
	l-2.639,4.631l-0.934-1.899c-0.243-0.494-0.838-0.698-1.339-0.456c-0.495,0.243-0.699,0.843-0.456,1.339l1.766,3.593
	c0.019,0.041,0.049,0.072,0.074,0.109c0.019,0.027,0.035,0.056,0.055,0.081c0.073,0.088,0.159,0.167,0.264,0.229
	c0.004,0.002,0.006,0.007,0.01,0.009c0.05,0.028,0.104,0.044,0.156,0.063c0.025,0.009,0.05,0.023,0.075,0.031
	c0.087,0.023,0.175,0.036,0.263,0.036h0.002l0,0l0.001-0.001c0.136,0,0.27-0.035,0.401-0.093c0.014-0.005,0.025-0.003,0.038-0.009
	c0.007-0.004,0.012-0.011,0.019-0.015c0.105-0.055,0.196-0.126,0.271-0.21c0.019-0.02,0.035-0.044,0.053-0.066
	c0.028-0.037,0.061-0.069,0.084-0.111l3.414-5.988V131.76z"/>
</svg>
