<svg data-name="Layer 1" xmlns="http://www.w3.org/2000/svg" viewBox="0 0 71.94 54.35"><title>Icon_RH_Objects_Megaphone_RGB_Black</title><path d="M61.62 13.23a.506.506 0 0 0-.7.73 15 15 0 0 1 4.71 10.95 15.14 15.14 0 0 1-5.05 11.27.503.503 0 1 0 .67.75 16.15 16.15 0 0 0 5.4-12 16 16 0 0 0-5.03-11.7zm3.74-3.74a.59.59 0 0 0-.81.85 20.07 20.07 0 0 1 6.22 14.57 20.3 20.3 0 0 1-6.56 14.9.59.59 0 0 0 .4 1 .58.58 0 0 0 .4-.15 21.47 21.47 0 0 0 6.94-15.77 21.23 21.23 0 0 0-6.59-15.4zm-17 16.77c.36 0 .54-1.42.41-3.11s-.54-3-.89-3-.54 1.42-.41 3.11.54 3.04.91 3.01zm10.57-8.1a.42.42 0 0 0-.58.61 8.39 8.39 0 0 1 2.66 6.14 8.49 8.49 0 0 1-2.84 6.32.42.42 0 0 0 .28.73.41.41 0 0 0 .28-.11 9.33 9.33 0 0 0 3.12-6.95 9.24 9.24 0 0 0-2.9-6.73zM46.54 0h-.22c-2.16.17-3.79 2.79-4.73 7.56v.22c-5.39 5.19-16.48 9.14-33 11.73-7 1.46-8.95 5.42-8.42 8.64.57 3.46 4.23 6.8 9.37 6.8a12.34 12.34 0 0 0 1.4-.08h.53l2.11 3.19a2.77 2.77 0 0 0 2.43 1.29c1.15 4 6.71 13.35 7.4 14.5a1 1 0 0 0 .86.49h.15c3.7-.57 5.75-4.7 5.84-4.88a1 1 0 0 0 0-.9l-4.4-8.28v-3a1 1 0 0 0-.1-.43l-1.06-2.19c8.72.42 15.31 2.28 19.8 5.42 1.43 3.45 3.21 5.69 5.24 5.69h.22c4.68-.37 6.22-12.08 5.31-23.45C54.39 11.23 51.11 0 46.54 0zM2.01 27.83c-.39-2.39 1.28-4.45 4.47-5.67a8.79 8.79 0 0 0-1 6.63 8 8 0 0 0 2.17 4c-3.1-.6-5.23-2.71-5.64-4.96zM15.17 37l-1.53-2.32c2.69-.15 5.22-.2 7.63-.16a30.62 30.62 0 0 1-4.26 2.56c-1.31.59-1.72 0-1.79-.08zm13 12a7.38 7.38 0 0 1-3.47 3.19c-2.51-4.26-6.07-10.75-6.81-13.3a37 37 0 0 0 5.12-3.11l.82 1.71v3a1 1 0 0 0 .12.46zm-3.68-16.36h-.09a108.18 108.18 0 0 0-12.67.18l-1 .06a10.32 10.32 0 0 1-1 .07 6.35 6.35 0 0 1-3.12-4.38 7.66 7.66 0 0 1 1.66-6.92l.76-.18c15.35-2.39 25.93-5.93 32.08-10.67a67.88 67.88 0 0 0-.1 12.65 66.53 66.53 0 0 0 2.42 13.63c-4.67-2.55-11-4-18.94-4.44zm18.52-9.35c-.13-1.69-.21-3.34-.23-4.95h3.55a5.28 5.28 0 0 0-.32 1.06 14.92 14.92 0 0 0-.16 4 12.31 12.31 0 0 0 1.28 4.93l-3.45.54c-.29-1.79-.52-3.59-.67-5.58zm4.49-5c.3.05 1.21 1.62 1.46 4.82s-.39 4.89-.67 5c-.31-.07-1.21-1.63-1.46-4.82s.39-4.87.67-4.97zm2.3 25.44h-.06c-1.74 0-4.44-5.16-5.93-13.93l4.59-.71c.65-.09 1.11-.78 1.37-2.06a14.92 14.92 0 0 0 .16-4c-.16-2.07-.84-5.52-2.39-5.72h-4.8a50 50 0 0 1 .79-9.39c.84-4.29 2.1-5.88 3-6 2.13 0 5.73 7.79 6.74 20.48s-1.38 21.2-3.47 21.37z"/></svg>