<?xml version="1.0" encoding="utf-8"?>
<!-- Generator: Adobe Illustrator 17.1.0, SVG Export Plug-In . SVG Version: 6.00 Build 0)  -->
<!DOCTYPE svg PUBLIC "-//W3C//DTD SVG 1.1//EN" "http://www.w3.org/Graphics/SVG/1.1/DTD/svg11.dtd">
<svg version="1.1" id="Layer_1" xmlns="http://www.w3.org/2000/svg" xmlns:xlink="http://www.w3.org/1999/xlink" x="0px" y="0px"
	 viewBox="0 0 216 216" enable-background="new 0 0 216 216" xml:space="preserve">
<g>
	<path fill="#FFFFFF" d="M127.65,97.313c-1.684,0-3.053,1.369-3.053,3.052c0,1.683,1.369,3.052,3.053,3.052
		c1.683,0,3.052-1.369,3.052-3.052C130.702,98.683,129.333,97.313,127.65,97.313z M127.65,101.917c-0.857,0-1.553-0.696-1.553-1.552
		c0-0.855,0.696-1.552,1.553-1.552c0.856,0,1.552,0.696,1.552,1.552C129.202,101.221,128.506,101.917,127.65,101.917z"/>
	<path fill="#FFFFFF" d="M146.531,100.742l-5.606-1.34c-0.426-0.1-1.413-0.399-1.676-1.373c-0.979-3.63-3.263-6.836-5.951-9.697
		c0.463-1.115,0.594-2.76,1.745-4.497c1.206-1.816,3.234-4.146,0.828-5.136c-0.567-0.234-1.22-0.337-1.92-0.337
		c-3.105,0-7.143,2.036-8.808,3.689c-3.185-1.766-6.753-3.1-10.569-3.942c-0.767-4.127-4.387-7.263-8.732-7.263
		c-4.27,0-7.844,3.027-8.694,7.047c-15.456,3.019-26.953,14.348-26.953,27.868c0,0.511,0.016,1.023,0.053,1.525
		c-0.04,0.033-0.084,0.068-0.126,0.103c-0.923,0.804-1.906,1.89-2.519,3.391c-0.546,1.406-0.751,2.875-0.588,4.345
		c0.266,2.963,2.38,5.44,4.324,6.045c0.649,0.234,1.218,0.323,1.687,0.323c0.928,0,1.468-0.347,1.474-0.599
		c0.058-0.489-0.999-0.92-1.803-1.926c-0.85-0.942-1.293-2.457-0.993-3.881c0.049-0.261,0.127-0.516,0.222-0.758
		c1.37,3.175,3.517,5.95,6.259,8.286c1.17,5.244,3.383,8.273,3.383,8.273s1.227,8.014,3.857,8.014h7.944
		c1.572,0,3.053-1.277,3.302-2.852c0,0-1.282-2.818-1.403-4.687c-0.019-0.333,0.058-0.709,0.169-1.096
		c3.157,0.584,6.483,0.9,9.935,0.9c1.924,0,3.809-0.099,5.651-0.28c0,0,2.503,8.014,5.131,8.014h7.944
		c1.572,0,2.849-1.277,2.849-2.852c0,0-1.732-2.818-2.146-4.687c-0.378-1.708,1.237-4.534,1.237-4.534
		c5.159-2.505,9.263-6.046,11.769-10.466l4.72,1.124c0.256,0.061,0.512,0.091,0.763,0.091c1.478,0,2.815-1.01,3.174-2.511
		l2.483-10.392C149.37,102.929,148.289,101.162,146.531,100.742z M105.842,72.346c3.395,0,6.255,2.305,7.117,5.431
		c0.172,0.625,0.271,1.279,0.271,1.958c0,0.043-0.007,0.083-0.008,0.125c-0.01,0.533-0.074,1.052-0.191,1.552
		c-0.312-0.082-0.624-0.153-0.938-0.221c0.119-0.482,0.188-0.983,0.191-1.5c0-0.012,0.002-0.024,0.002-0.037
		c0-0.712-0.12-1.395-0.335-2.036c-0.854-2.558-3.268-4.409-6.109-4.409c-2.782,0-5.151,1.776-6.051,4.251
		c-0.237,0.651-0.374,1.348-0.387,2.077c0,0.039-0.006,0.077-0.006,0.117c0,0.598,0.088,1.174,0.241,1.724
		c-0.331,0.073-0.64,0.149-0.938,0.226c-0.157-0.598-0.248-1.222-0.248-1.869c0-0.017,0.003-0.034,0.003-0.051
		c0.005-0.721,0.114-1.417,0.312-2.075C99.684,74.568,102.507,72.346,105.842,72.346z M100.399,79.654
		c0-0.087,0.009-0.172,0.013-0.258c0.035-0.735,0.214-1.432,0.514-2.063c0.873-1.843,2.746-3.124,4.918-3.124
		c2.213,0,4.119,1.33,4.968,3.23c0.288,0.643,0.454,1.352,0.47,2.098c0.001,0.039,0.006,0.077,0.006,0.117
		c0,0.461-0.064,0.907-0.173,1.335c-3.781-0.645-7.587-0.355-10.494,0.189C100.479,80.693,100.399,80.183,100.399,79.654z
		 M147.002,104.213l-2.483,10.393c-0.137,0.573-0.642,0.975-1.228,0.975c-0.099,0-0.199-0.013-0.3-0.036l-4.72-1.124
		c-0.154-0.037-0.31-0.055-0.463-0.055c-0.708,0-1.379,0.377-1.739,1.014c-2.232,3.936-6.003,7.273-10.903,9.653
		c-0.362,0.176-0.663,0.457-0.863,0.807c-0.334,0.584-1.973,3.615-1.453,5.959c0.354,1.602,1.416,3.606,2.006,4.641
		c-0.141,0.276-0.427,0.465-0.756,0.465h-7.806c-0.842-0.514-2.418-3.601-3.36-6.61c-0.021-0.068-0.065-0.122-0.094-0.187
		c1.323-0.218,2.635-0.471,3.92-0.8c0.401-0.102,0.642-0.512,0.54-0.913c-0.102-0.402-0.516-0.639-0.913-0.54
		c-1.797,0.461-3.637,0.809-5.506,1.043c-0.018,0.002-0.035,0.001-0.053,0.003c-1.821,0.18-3.657,0.271-5.455,0.271
		c-3.241,0-6.461-0.292-9.572-0.867c-0.031-0.006-0.061-0.004-0.091-0.008c-3.586-0.745-7.004-1.907-10.116-3.487
		c-0.37-0.186-0.822-0.04-1.008,0.329c-0.188,0.369-0.04,0.821,0.329,1.009c2.729,1.386,5.68,2.456,8.767,3.225
		c-0.059,0.115-0.13,0.222-0.167,0.351c-0.122,0.429-0.28,1.077-0.241,1.773c0.104,1.603,0.835,3.598,1.269,4.663
		c-0.246,0.419-0.726,0.746-1.172,0.746h-7.731c-0.687-0.657-1.678-3.621-2.094-6.316c-0.049-0.317-0.173-0.618-0.362-0.877
		c-0.02-0.027-1.979-2.748-3.045-7.529c-0.095-0.424-0.325-0.806-0.655-1.087c-2.58-2.197-4.504-4.74-5.719-7.557
		c-0.317-0.733-1.039-1.207-1.836-1.207c-0.011,0-0.023,0-0.035,0c-0.811,0.015-1.533,0.517-1.828,1.272
		c-0.147,0.376-0.256,0.752-0.316,1.074c-0.172,0.817-0.181,1.66-0.041,2.471c-0.361-0.644-0.628-1.406-0.704-2.242
		c-0.126-1.137,0.03-2.281,0.452-3.368c0.389-0.954,1.036-1.816,1.95-2.613l0.052-0.043l0.066-0.054
		c0.498-0.413,0.766-1.042,0.718-1.687c-0.031-0.426-0.047-0.89-0.047-1.379c0-12.37,10.536-22.797,24.774-25.795
		c0.02,0.71,0.118,1.401,0.294,2.062c-0.692,0.233-1.221,0.459-1.5,0.641c-0.348,0.226-0.446,0.69-0.22,1.038
		c0.144,0.221,0.384,0.341,0.629,0.341c0.14,0,0.282-0.039,0.408-0.121c0.222-0.145,0.639-0.322,1.182-0.507
		c0.412-0.141,0.896-0.285,1.458-0.425c0.309-0.078,0.637-0.153,0.984-0.226c0.334-0.07,0.682-0.137,1.047-0.2
		c2.602-0.447,5.945-0.667,9.272-0.149c0.347,0.054,0.691,0.121,1.037,0.192c0.328,0.067,0.655,0.136,0.979,0.219
		c0.49,0.125,0.975,0.27,1.453,0.435c0.411,0.142,0.82,0.29,1.22,0.463c0.377,0.164,0.82-0.01,0.986-0.391
		c0.164-0.38-0.011-0.822-0.391-0.986c-0.44-0.191-0.891-0.355-1.342-0.51c0.131-0.537,0.203-1.093,0.233-1.662
		c3.353,0.79,6.548,1.996,9.473,3.619c0.304,0.169,0.638,0.251,0.969,0.251c0.516,0,1.025-0.199,1.41-0.581
		c1.276-1.268,4.794-3.108,7.399-3.108c0.339,0,0.644,0.034,0.9,0.101c-0.239,0.477-0.713,1.159-1,1.574
		c-0.164,0.236-0.325,0.468-0.475,0.693c-0.954,1.439-1.336,2.822-1.614,3.832c-0.111,0.406-0.209,0.756-0.312,1.003
		c-0.301,0.727-0.148,1.562,0.39,2.136c2.917,3.104,4.709,5.999,5.478,8.849c0.377,1.399,1.525,2.419,3.142,2.797l5.606,1.34
		c0.33,0.079,0.609,0.281,0.786,0.57C147.028,103.545,147.082,103.882,147.002,104.213z"/>
</g>
</svg>
