<?xml version="1.0" encoding="utf-8"?>
<!-- Generator: Adobe Illustrator 17.1.0, SVG Export Plug-In . SVG Version: 6.00 Build 0)  -->
<!DOCTYPE svg PUBLIC "-//W3C//DTD SVG 1.1//EN" "http://www.w3.org/Graphics/SVG/1.1/DTD/svg11.dtd">
<svg version="1.1" id="Layer_1" xmlns="http://www.w3.org/2000/svg" xmlns:xlink="http://www.w3.org/1999/xlink" x="0px" y="0px"
	 viewBox="0 0 216 216" enable-background="new 0 0 216 216" xml:space="preserve">
<path d="M133.355,103.317c-0.041-0.005-1.758-0.187-4.824-0.396V92.513c0-10.994-8.945-19.938-19.938-19.938
	c-10.993,0-19.938,8.944-19.938,19.938v10.408c-3.067,0.21-4.785,0.392-4.824,0.396c-0.521,0.058-0.916,0.496-0.916,1.021v32.869
	c0,0.522,0.391,0.959,0.908,1.02c0.111,0.014,11.258,1.291,24.77,1.291s24.659-1.277,24.769-1.291c0.52-0.06,0.91-0.498,0.91-1.02
	v-32.869C134.271,103.813,133.875,103.375,133.355,103.317z M132.217,136.284c-2.908,0.299-12.445,1.18-23.624,1.18
	s-20.717-0.881-23.624-1.18v-31.014c0.769-0.07,2.023-0.176,3.685-0.291c0.627-0.043,1.311-0.087,2.055-0.133
	c1.748-0.104,3.813-0.208,6.162-0.295c0.662-0.024,1.349-0.047,2.055-0.067c2.881-0.089,6.113-0.146,9.667-0.146
	c3.554,0,6.784,0.059,9.667,0.146c0.705,0.021,1.391,0.044,2.054,0.067c2.349,0.087,4.413,0.191,6.163,0.297
	c0.744,0.045,1.428,0.089,2.055,0.131c1.662,0.115,2.916,0.221,3.686,0.291V136.284z M118.26,102.429
	c-2.887-0.087-6.117-0.145-9.667-0.145s-6.78,0.058-9.667,0.145v-9.916c0-5.33,4.336-9.667,9.667-9.667
	c5.33,0,9.667,4.337,9.667,9.667V102.429z M90.709,92.513c0-9.861,8.021-17.884,17.884-17.884c9.861,0,17.884,8.022,17.884,17.884
	v10.277c-1.754-0.104-3.826-0.207-6.163-0.293v-9.984c0-6.463-5.258-11.721-11.721-11.721S96.871,86.05,96.871,92.513v9.984
	c-2.336,0.086-4.408,0.188-6.162,0.293V92.513z M128.531,109.175h0.066c0.426,0,0.77,0.345,0.77,0.77
	c0,0.426-0.344,0.771-0.77,0.771h-0.122h-2.054h-6.055h-2.054H99.463c-0.227,0-0.424-0.104-0.566-0.26
	c-0.124-0.136-0.204-0.312-0.204-0.512c0-0.217,0.091-0.41,0.233-0.551c0.139-0.135,0.327-0.219,0.537-0.219h18.797h2.054h6.163
	H128.531z M95.035,109.944c0,0.283-0.23,0.514-0.514,0.514h-3.783h-2.054h-0.31c-0.284,0-0.514-0.23-0.514-0.514
	c0-0.284,0.229-0.514,0.514-0.514h0.279h2.055h3.812C94.805,109.431,95.035,109.66,95.035,109.944z M129.367,126.38
	c0,0.426-0.344,0.771-0.77,0.771H99.463c-0.424,0-0.771-0.346-0.771-0.771c0-0.425,0.347-0.77,0.771-0.77h29.135
	C129.023,125.61,129.367,125.955,129.367,126.38z M95.035,126.38c0,0.284-0.23,0.514-0.514,0.514h-6.146
	c-0.284,0-0.514-0.229-0.514-0.514c0-0.283,0.229-0.514,0.514-0.514h6.146C94.805,125.866,95.035,126.097,95.035,126.38z
	 M129.367,131.858c0,0.425-0.344,0.77-0.77,0.77H99.463c-0.424,0-0.771-0.345-0.771-0.77c0-0.426,0.347-0.77,0.771-0.77h29.135
	C129.023,131.088,129.367,131.433,129.367,131.858z M95.035,131.858c0,0.283-0.23,0.514-0.514,0.514h-6.146
	c-0.284,0-0.514-0.23-0.514-0.514c0-0.284,0.229-0.514,0.514-0.514h6.146C94.805,131.345,95.035,131.574,95.035,131.858z
	 M129.367,120.901c0,0.426-0.344,0.771-0.77,0.771H99.463c-0.424,0-0.771-0.345-0.771-0.771c0-0.426,0.347-0.77,0.771-0.77h29.135
	C129.023,120.132,129.367,120.476,129.367,120.901z M95.035,120.901c0,0.284-0.23,0.514-0.514,0.514h-6.146
	c-0.284,0-0.514-0.229-0.514-0.514c0-0.283,0.229-0.514,0.514-0.514h6.146C94.805,120.388,95.035,120.618,95.035,120.901z
	 M129.367,115.423c0,0.426-0.344,0.769-0.77,0.769H99.463c-0.424,0-0.771-0.344-0.771-0.769c0-0.426,0.347-0.771,0.771-0.771h21.486
	h4.893h2.756C129.023,114.652,129.367,114.997,129.367,115.423z M94.951,115.157c0.047,0.079,0.084,0.166,0.084,0.266
	c0,0.283-0.23,0.514-0.514,0.514h-6.146c-0.284,0-0.514-0.23-0.514-0.514c0-0.284,0.229-0.514,0.514-0.514h3.459h2.688
	C94.705,114.909,94.859,115.011,94.951,115.157z"/>
</svg>
