<?xml version="1.0" encoding="utf-8"?>
<!-- Generator: Adobe Illustrator 17.1.0, SVG Export Plug-In . SVG Version: 6.00 Build 0)  -->
<!DOCTYPE svg PUBLIC "-//W3C//DTD SVG 1.1//EN" "http://www.w3.org/Graphics/SVG/1.1/DTD/svg11.dtd">
<svg version="1.1" xmlns="http://www.w3.org/2000/svg" xmlns:xlink="http://www.w3.org/1999/xlink" x="0px" y="0px"
	 viewBox="0 0 207.021 207.021" enable-background="new 0 0 207.021 207.021" xml:space="preserve">
<g id="Layer_1">
	<g>
		<g>
			<path d="M116.12,86.192h-6.764V67.775c0-0.552-0.447-1-1-1h-6.416c-0.552,0-1,0.448-1,1v18.417h-5.834V67.775
				c0-0.552-0.448-1-1-1H87.69c-0.552,0-1,0.448-1,1v18.417H79.88c-2.14,0-3.689,1.334-3.689,3.473v9.24
				c0,2.14,1.55,4.287,3.689,4.287h1.711c0.026,5,2.547,12.106,11.75,14.841c0.054,1.065,0.667,10.099,5.973,17.056
				c0.196,0.258,0.494,0.344,0.796,0.344c0.211,0,0.425-0.092,0.605-0.23c0.439-0.335,0.523-0.975,0.188-1.414
				c-4.327-5.676-5.312-13.18-5.517-15.449c0.65,0.129,1.324,0.239,2.033,0.322c0.301,0.023,0.618,0.034,0.95,0.034
				c0.822,0,1.733-0.081,2.691-0.26c0.25,2.568,1.43,11.433,6.033,14.823c0.179,0.131,0.386,0.193,0.592,0.193
				c0.308,0,0.61-0.141,0.807-0.406c0.327-0.445,0.231-1.07-0.213-1.398c-4.097-3.016-5.093-11.706-5.255-13.508
				c4.802-1.551,10.082-5.947,11.471-14.947h1.624c2.14,0,4.07-2.147,4.07-4.287v-9.24C120.19,87.526,118.26,86.192,116.12,86.192z
				 M102.94,68.775h4.416v17.417h-4.416V68.775z M88.69,68.775h4.416v17.417H88.69V68.775z M97.616,117.074
				c-12.676-1.485-13.935-10.882-14.008-13.882h28.863C110.159,117.192,98.104,117.11,97.616,117.074z M118.19,99.312
				c0,1.038-0.842,1.88-1.88,1.88H80.07c-1.038,0-1.88-0.842-1.88-1.88v-9.24c0-1.038,0.842-1.88,1.88-1.88h36.24
				c1.038,0,1.88,0.842,1.88,1.88V99.312z"/>
			<path d="M89.049,107.192h18.375c0.276,0,0.5-0.224,0.5-0.5c0-0.276-0.224-0.5-0.5-0.5H89.049c-0.275,0-0.5,0.224-0.5,0.5
				C88.549,106.968,88.773,107.192,89.049,107.192z"/>
			<path d="M106.082,108.192H90.391c-0.277,0-0.5,0.224-0.5,0.5c0,0.276,0.223,0.5,0.5,0.5h15.691c0.276,0,0.5-0.224,0.5-0.5
				C106.582,108.415,106.358,108.192,106.082,108.192z"/>
		</g>
		<path d="M90.69,76.254c-0.276,0-0.5-0.224-0.5-0.5v-4.312c0-0.276,0.224-0.5,0.5-0.5c0.276,0,0.5,0.224,0.5,0.5v4.312
			C91.19,76.031,90.967,76.254,90.69,76.254z"/>
		<path d="M105.128,76.254c-0.276,0-0.5-0.224-0.5-0.5v-4.312c0-0.276,0.224-0.5,0.5-0.5c0.276,0,0.5,0.224,0.5,0.5v4.312
			C105.628,76.031,105.404,76.254,105.128,76.254z"/>
	</g>
</g>
<g id="Layer_2">
</g>
</svg>
