<svg xmlns="http://www.w3.org/2000/svg" viewBox="0 0 108 108"><title>Icon_RH_objects_giftbox_RGB_Black</title><path d="M90 44.69L82.84 39l-.17-5.89a.75.75 0 0 0-1.24-.55 39.16 39.16 0 0 1-8.94 5.51C76 35 78.31 31.63 79 28.27a.69.69 0 0 0 0-.07.78.78 0 0 0 0-.3v-.07c-1.88-4.75-5.63-7.91-11.48-9.66a.75.75 0 0 0-.6.07c-8.5 5-11.66 13.45-13.37 20.49a3 3 0 0 0-2.41-.13c-4.23-6.4-10.4-13.75-20.56-15.5a.74.74 0 0 0-.58.15c-4.83 3.73-7.21 8-7.27 13.13s0 0 0 .06a.73.73 0 0 0 0 .12.72.72 0 0 0 .07.18c2.34 3.57 6.75 6.22 12.67 7.8l-.92.49a1 1 0 0 0-.62-.23h-11.1a1 1 0 0 0-1 1v34.78a1 1 0 0 0 1 1h60.12a1 1 0 0 0 1-1V48a48 48 0 0 0 5.89-2 .75.75 0 0 0 .16-1.31zm-23-4.41a44.86 44.86 0 0 1-5.8 1.55c4.2-4.85 9.45-9.71 15.91-12.44-1.32 3.78-4.85 7.61-10.05 10.88zm.36-20.57c4.9 1.54 8.15 4.16 9.9 8C68.82 31 62.38 37.86 57.55 43.95A9.85 9.85 0 0 0 56 41a30.24 30.24 0 0 1 7.33-9.42.5.5 0 1 0-.65-.76 31.05 31.05 0 0 0-7.37 9.3c-.17-.2-.33-.37-.47-.52 1.65-6.74 4.55-14.99 12.58-19.9zM51.67 40c.43-.17 1-.21 1.89.41.66.56 3 3.27 2.69 5.21-2.23 1.15-4 1.29-5.83.44.98-1.41 1.39-3.38 1.25-6.06zm-27.39-4.35c.27-4.2 2.34-7.81 6.37-11 9.6 1.78 15.46 9 19.5 15.14a16.8 16.8 0 0 1 0 1.69 37.17 37.17 0 0 0-7-5.1.5.5 0 1 0-.5.87A35 35 0 0 1 50 42.77a6.58 6.58 0 0 1-.47 1.69c-7.11-4.38-15.71-8.71-25.25-8.81zm.72 1.5c8.18.27 15.64 3.76 22.07 7.54-10.38-.37-18.23-3.05-22.07-7.54zm-1.17 9.69h7.95a30.36 30.36 0 0 0-7.95 8.36zM46.7 79.58H23.83V57.73l4.35 1.22L32 66.24a.75.75 0 0 0 .66.4.75.75 0 0 0 .66-.41c4.51-8.92 8.72-14.52 13.33-17.67zm-14-15.31L29.35 58a.75.75 0 0 0-.46-.37l-4.09-1.19a28.51 28.51 0 0 1 13-11.3q1.82.37 3.79.62a18.58 18.58 0 0 0-5.48 4.16.5.5 0 0 0 .74.67A17 17 0 0 1 43.69 46c1.28.11 2.61.19 4 .23-5.36 2.88-10.04 8.54-15 18.04zm24.88 15.31H48.2V47.63c.33-.18.65-.35 1-.51a7.32 7.32 0 0 0 3.57 1 9.36 9.36 0 0 0 4.43-1.29h.39zm24.37 0H59.08V46.85h22.87zm2-33.18v-.55a1 1 0 0 0-1-1H68.74a35.08 35.08 0 0 0 7.39-2.19.5.5 0 1 0-.5-.87c-2.18 1.25-10.77 2.83-12 3.06h-4.88l1-1.26a43.73 43.73 0 0 0 7.63-1.83.74.74 0 0 0 .26-.09 48.44 48.44 0 0 0 13.57-7l.13 4.72a.75.75 0 0 0 .29.57l6.42 5.07c-1.36.55-2.74.97-4.1 1.37z"/></svg>