<svg id="Layer_1" data-name="Layer 1" xmlns="http://www.w3.org/2000/svg" viewBox="0 0 108 108"><defs><style>.cls-1{fill:none;}.cls-2{fill:#010101;}</style></defs><title>Icon_RH_Objects_Key-B_RGB_Flat</title><path class="cls-1" d="M82.28,26.2a19.1,19.1,0,1,0,0,27A19,19,0,0,0,82.28,26.2Zm-2.16,12a6.94,6.94,0,1,1,0-9.81A6.92,6.92,0,0,1,80.12,38.18Z"/><path class="cls-1" d="M75.21,28.34a4.94,4.94,0,1,0,3.49,1.44A4.93,4.93,0,0,0,75.21,28.34Z"/><path class="cls-1" d="M84.65,23.83A22.45,22.45,0,0,0,47.24,46.08a1,1,0,0,1-.25,1l-3,3,1.27,1.27a1,1,0,0,1,0,1.41L20.86,77.16l1.47,7.36,6,0.21,4.07-4.07L32,76.11a1,1,0,0,1,.29-0.79l1.48-1.49a1,1,0,0,1,.8-0.29L39,74l0.81-.82L39.6,70.72a1,1,0,0,1,.29-0.81l1.21-1.21A1,1,0,0,1,42,68.43l2.09,0.47,2.49-2.49a1,1,0,0,1,.85-0.28l4.7,0.67,3.54-3.54a1,1,0,0,1,1.41,0l1.27,1.27,3-3a1,1,0,0,1,1-.25A22.45,22.45,0,0,0,84.65,23.83ZM25.57,80.16a0.5,0.5,0,0,1-.71-0.71L48,56.29l-1.15-1.15L25,77.06a0.5,0.5,0,0,1-.71-0.71L46.52,54.08a0.5,0.5,0,0,1,.71,0l1.86,1.86a0.5,0.5,0,0,1,0,.71Zm27.72-19.3-3.71,3.71a0.5,0.5,0,1,1-.71-0.71l3.36-3.36-1.15-1.15-4.84,4.84a0.5,0.5,0,1,1-.71-0.71l5.2-5.2a0.5,0.5,0,0,1,.71,0l1.86,1.86A0.5,0.5,0,0,1,53.29,60.85ZM83,53.92A20.1,20.1,0,1,1,83,25.5,20,20,0,0,1,83,53.92Z"/><path class="cls-2" d="M86.07,22.42a24.45,24.45,0,0,0-40.9,23.65L41.84,49.4a1,1,0,0,0,0,1.41l1.27,1.27-24,24a1,1,0,0,0-.27.9l1.73,8.66a1,1,0,0,0,.95.8l7.18,0.25h0a1,1,0,0,0,.71-0.29l4.7-4.7A1,1,0,0,0,34.38,81L34,76.41l0.82-.82L39.33,76a1,1,0,0,0,.8-0.29l1.48-1.49a1,1,0,0,0,.29-0.81L41.64,71l0.48-.48L44.21,71a1,1,0,0,0,.93-0.27l2.52-2.52,4.7,0.67a1,1,0,0,0,.85-0.28l3.19-3.19,1.27,1.27a1,1,0,0,0,1.41,0l3.33-3.33A24.45,24.45,0,0,0,86.07,22.42ZM84.65,55.58a22.46,22.46,0,0,1-22.24,5.66,1,1,0,0,0-1,.25l-3,3-1.27-1.27a1,1,0,0,0-1.41,0L52.15,66.8l-4.7-.67a1,1,0,0,0-.85.28L44.11,68.9,42,68.43a1,1,0,0,0-.93.27l-1.21,1.21a1,1,0,0,0-.29.81l0.26,2.43L39,74l-4.51-.42a1,1,0,0,0-.8.29l-1.48,1.49a1,1,0,0,0-.29.79l0.39,4.55-4.07,4.07-6-.21-1.47-7.36L45.23,52.79a1,1,0,0,0,0-1.41L44,50.1l3-3a1,1,0,0,0,.25-1A22.45,22.45,0,1,1,84.65,55.58Z"/><path class="cls-2" d="M70.3,28.37a6.94,6.94,0,1,0,9.81,0A6.95,6.95,0,0,0,70.3,28.37Zm8.4,8.4a4.94,4.94,0,1,1,0-7A4.95,4.95,0,0,1,78.7,36.77Z"/><path class="cls-2" d="M83,25.5a20.09,20.09,0,1,0,0,28.43A20.12,20.12,0,0,0,83,25.5ZM82.28,53.21a19.09,19.09,0,1,1,0-27A19.12,19.12,0,0,1,82.28,53.21Z"/><path class="cls-2" d="M49.08,55.94l-1.86-1.86a0.5,0.5,0,0,0-.71,0L24.25,76.35a0.5,0.5,0,0,0,.71.71L46.87,55.14,48,56.29,24.87,79.45a0.5,0.5,0,1,0,.71.71L49.08,56.64A0.5,0.5,0,0,0,49.08,55.94Z"/><path class="cls-2" d="M51.43,58.29a0.5,0.5,0,0,0-.71,0l-5.2,5.2a0.5,0.5,0,1,0,.71.71l4.84-4.84,1.15,1.15-3.36,3.36a0.5,0.5,0,1,0,.71.71l3.71-3.71a0.5,0.5,0,0,0,0-.71Z"/></svg>