<svg data-name="Layer 1" xmlns="http://www.w3.org/2000/svg" viewBox="0 0 72.45 43.97"><title>Icon_RH_Objects_Glasses_RGB_Black</title><path d="M72.39 26.16a4.91 4.91 0 0 0-1.57-3.31c-2-4.33-4.11-8.65-6.18-12.84l-.49-1c-1.65-3.38-4.39-9-8.93-9H55a9.34 9.34 0 0 0-4.88 1.85c-1.52 1-6.48 4.66-6.7 7.84a2.81 2.81 0 0 0 1 2.35c1.87 1.69 4.17-1.53 5.21-2.66a42.74 42.74 0 0 1 4-4 3.8 3.8 0 0 1 1.6-.99c1.7-.31 2.91 3.15 3.55 5 .14.4.26.76.37 1l3.77 9.47a48.81 48.81 0 0 0-19.29 1.33 7.32 7.32 0 0 0-4.76 4h-5.28a7.31 7.31 0 0 0-4.75-4 48.56 48.56 0 0 0-19.66-1.22l3.79-9.53c.11-.28.23-.63.37-1 .64-1.85 1.85-5.3 3.55-5a3.8 3.8 0 0 1 1.61.95 42.67 42.67 0 0 1 4 4c1 1.07 2 2.69 3.55 3a2.35 2.35 0 0 0 2.62-2.69c-.21-3.18-5.18-6.8-6.7-7.84a9.34 9.34 0 0 0-4.85-1.89c-4.68-.18-7.47 5.57-9.14 9l-.51 1c-2.18 4.44-4.42 9-6.53 13.6a5 5 0 0 0-.7 1.53.7.7 0 0 0 0 .1 5.42 5.42 0 0 0-.15.94l-.06 2.84a1.23 1.23 0 0 0 .59 1.06 21.44 21.44 0 0 0 1.68 7 10.42 10.42 0 0 0 7 5.86 29.66 29.66 0 0 0 7.25.94 22.11 22.11 0 0 0 7.92-1.39 13 13 0 0 0 7.08-6.7 23.9 23.9 0 0 0 1.68-4.62 1.23 1.23 0 0 0 .93-1.16v-2.09-.21h4.16V29.98a1.23 1.23 0 0 0 .91 1.16 23.9 23.9 0 0 0 1.68 4.74 13 13 0 0 0 7.08 6.7 22.11 22.11 0 0 0 7.9 1.4 29.66 29.66 0 0 0 7.25-1 10.42 10.42 0 0 0 7-5.86 21.45 21.45 0 0 0 1.68-7 1.23 1.23 0 0 0 .59-1.06zM8.82 10.7l.51-1c1.51-3.11 4-8.3 7.74-8.16a7.92 7.92 0 0 1 4.09 1.59c2.92 2 5.92 4.84 6 6.7 0 .57-.26 1.3-1 1.1a3.23 3.23 0 0 1-1.25-1c-.46-.49-.91-1-1.37-1.48a44.51 44.51 0 0 0-4.16-4.17A5 5 0 0 0 17.07 3c-3-.54-4.39 3.55-5.23 6-.13.38-.25.71-.35 1L7.42 20.33a19.93 19.93 0 0 0-3.93 1.39c1.74-3.74 3.56-7.41 5.33-11.02zm21.41 24.54a11.45 11.45 0 0 1-6.26 5.93 23.91 23.91 0 0 1-14.27.4 8.93 8.93 0 0 1-6-5 19.93 19.93 0 0 1-1.61-6.59 1.25 1.25 0 0 0 .41-.9l.06-2.78a2.33 2.33 0 0 1 1.09-1.88c6.29-3.7 18.32-2.69 24.47-.85a4.47 4.47 0 0 1 3.55 4.29v2.12a1.22 1.22 0 0 0 .18.61 22.23 22.23 0 0 1-1.62 4.65zM60.55 9.88c-.1-.26-.22-.59-.35-1-.85-2.44-2.26-6.51-5.23-6a5 5 0 0 0-2.31 1.28 44.56 44.56 0 0 0-4.16 4.17c-.73.8-1.64 2.25-2.73 2.53a.63.63 0 0 1-.3 0c-.42-.1-.56-.77-.54-1.13.13-1.86 3.13-4.71 6-6.7a7.92 7.92 0 0 1 4.09-1.59c3.65-.14 6.22 5.06 7.74 8.17l.49 1c1.74 3.55 3.53 7.18 5.25 10.83a21 21 0 0 0-3.86-1.25zm8.26 26.67a8.93 8.93 0 0 1-6 5 23.91 23.91 0 0 1-14.27-.4 11.45 11.45 0 0 1-6.31-5.91 22.23 22.23 0 0 1-1.62-4.67 1.22 1.22 0 0 0 .18-.61v-2.08a4.47 4.47 0 0 1 3.55-4.29c6.15-1.84 18.17-2.85 24.46.85a2.31 2.31 0 0 1 1.08 1.83l.06 2.84a1.24 1.24 0 0 0 .41.89 19.94 19.94 0 0 1-1.54 6.56z"/></svg>