<svg id="Layer_1" data-name="Layer 1" xmlns="http://www.w3.org/2000/svg" viewBox="0 0 71.12 31.46"><defs><style>.cls-1{fill:#fff;}</style></defs><title>Icon_RH_Objects_Diploma_RGB_White</title><path class="cls-1" d="M71.12 9.17a1 1 0 0 0-1-1h-1C69.06 4.99 68.49 0 62.97 0H8.16C2.63 0 2.07 5 2.01 8.17h-1a1 1 0 0 0-1 1c0 5.53 3.13 9.25 7.78 9.25h19.23l-6.55 8.54a1 1 0 0 0 1.24 1.52l7.41-3.86-.51 5.74a1 1 0 0 0 1.79.7l5.58-7.19 3.17 3.17a1 1 0 0 0 .71.29h.21a1 1 0 0 0 .72-.62l2.92-7.78a1 1 0 0 0 0-.48h19.7c4.58-.07 7.65-3.77 7.65-9.25zM62.96 2c2.86 0 4 1.64 4.14 6.17h-25A51.21 51.21 0 0 0 41.52 2zM31.9 2h7.6a43.62 43.62 0 0 1 0 14.45h-7.6A43.72 43.72 0 0 1 31.91 2zM8.15 2h21.73a51.21 51.21 0 0 0-.58 6.17H4.02C4.16 3.64 5.3 2 8.16 2zm-.38 14.45c-3.87 0-5.47-3.08-5.74-6.27h27.25a36.24 36.24 0 0 0 .58 6.27zm23.16 10.72l.37-4.16a1 1 0 0 0-1.46-1l-5 2.62 4.74-6.18h8.13zm8.56-2.62l-2.25-2.25 3-3.84h1.57zm23.86-8.09H41.56a36.24 36.24 0 0 0 .58-6.29h26.94c-.27 3.19-1.87 6.27-5.74 6.27z"/></svg>