<svg id="Layer_1" data-name="Layer 1" xmlns="http://www.w3.org/2000/svg" viewBox="0 0 108 108"><defs><style>.cls-1{fill:none;}.cls-2{fill:#fff;}</style></defs><title>Icon_RH_Object_Guitar_RGB_White</title><path class="cls-1" d="M60.67,44.19l3.1,3.08,2.37-2.36L63,41.83Z"/><path class="cls-1" d="M63.74,41.12l3.09,3.08,2.42-2.42L66.16,38.7Z"/><path class="cls-1" d="M66.87,38L70,41.07l2.59-2.58-3.1-3.08Z"/><path class="cls-1" d="M59.44,45.39c-0.94.89-2.13,2-3.5,2a4.41,4.41,0,0,1-3.12-1.6,8,8,0,0,0-5.5-2.29,7.43,7.43,0,0,0-1.21.09,5.79,5.79,0,0,0-4.35,3c-3.67,6.89-9.46,9.56-14.64,11.26a12.18,12.18,0,0,0-7.93,7.75A13.68,13.68,0,0,0,21,77.78a32.34,32.34,0,0,0,4.34,4.87c0.65,0.63,1.29,1.26,1.91,1.92,4,4.23,9.23,5.86,14.23,4.48a13.2,13.2,0,0,0,9.37-10,16.43,16.43,0,0,1,9-11.28c2.68-1.41,4.36-3.46,4.73-5.76s-0.58-4.83-2.7-7c-2.39-2.51-1.69-4.14.22-6l1-1L60,44.89ZM42.62,75l-0.4.39a0.7,0.7,0,0,1-1,0l-8-8.18a0.7,0.7,0,0,1,0-1l0.4-.39a0.7,0.7,0,0,1,1,0l8,8.18A0.7,0.7,0,0,1,42.62,75ZM53,63.76a6.15,6.15,0,0,1-4.32,1.69,6,6,0,0,1-4.19-1.72,6.07,6.07,0,0,1-1.67-4.46,6.15,6.15,0,0,1,1.95-4.41,6,6,0,0,1,8.45.51A5.71,5.71,0,0,1,53,63.76Z"/><path class="cls-1" d="M70.15,34.7l3.1,3.08,2.38-2.37-3.11-3.1Z"/><path class="cls-1" d="M48.73,55.31a3.85,3.85,0,0,0-2.63,1,4.19,4.19,0,0,0-1.3,3,4.11,4.11,0,0,0,1.1,3,4.23,4.23,0,0,0,5.77,0,3.75,3.75,0,0,0,.15-5.63A4.32,4.32,0,0,0,48.73,55.31Z"/><path class="cls-1" d="M76.88,27.86c-0.09.11-.34,0.37-0.7,0.74l3.17,3.15c1-.95,1.67-1.62,2-1.86s0.35-.27.52-0.4L78.33,26C77.86,26.65,77.38,27.26,76.88,27.86Z"/><path class="cls-1" d="M73.22,31.61l3.12,3.1,2.29-2.26-3.15-3.13Z"/><path class="cls-1" d="M84.88,18.5a3.47,3.47,0,0,0-2.16,1.56c-1.34,1.66-2.54,3.43-3.79,5.15l3.68,3.66c1.74-1.3,3.59-2.42,5.36-3.68a3.13,3.13,0,0,0,1.54-1.88,4,4,0,0,0-1.53-3C87.22,19.53,86,18.45,84.88,18.5Z"/><path class="cls-2" d="M44.8,54.86a6.15,6.15,0,0,0-1.95,4.41,6.07,6.07,0,0,0,1.67,4.46,6,6,0,0,0,4.19,1.72A6.15,6.15,0,0,0,53,63.76a5.71,5.71,0,0,0,.22-8.39A6,6,0,0,0,44.8,54.86Zm6.87,7.49a4.23,4.23,0,0,1-5.77,0,4.11,4.11,0,0,1-1.1-3,4.19,4.19,0,0,1,1.3-3,3.85,3.85,0,0,1,2.63-1,4.32,4.32,0,0,1,3.09,1.4A3.75,3.75,0,0,1,51.67,62.34Z"/><rect class="cls-2" x="36.93" y="64.17" width="1.96" height="12.87" rx="0.7" ry="0.7" transform="translate(-38.63 46.85) rotate(-44.53)"/><path class="cls-2" d="M60,43.5a0.5,0.5,0,0,0-.71.71L60,44.89,63.05,48l0.35,0.35a0.5,0.5,0,1,0,.71-0.71l-0.35-.34-3.1-3.08Z"/><path class="cls-2" d="M63,40.39a0.5,0.5,0,1,0-.71.71L63,41.83l3.09,3.08,0.31,0.31a0.5,0.5,0,1,0,.71-0.71l-0.31-.3-3.09-3.08Z"/><path class="cls-2" d="M66.14,37.28a0.5,0.5,0,0,0-.71.71l0.72,0.72,3.09,3.07,0.32,0.32a0.5,0.5,0,1,0,.71-0.71L70,41.07,66.87,38Z"/><path class="cls-2" d="M69.62,34.17a0.5,0.5,0,0,0-.71.71l0.54,0.53,3.1,3.08L73,39a0.5,0.5,0,1,0,.71-0.71l-0.5-.5-3.1-3.08Z"/><path class="cls-2" d="M89.7,26.34a4.3,4.3,0,0,0,1.77-2.84c0.16-1.69-1-3.11-2.41-4.55s-2.59-2.49-4.25-2.41a4.55,4.55,0,0,0-3.14,1.75l-1.32-1a0.87,0.87,0,1,0-1.05,1.39l1.29,1c-0.27.35-.54,0.7-0.8,1.06l-1.37-1A0.87,0.87,0,1,0,77.35,21l1.39,1.06,0,0c-0.64.92-1.28,1.83-1.94,2.73-0.5.67-1,1.33-1.55,2-1,1.17-16.7,16.71-17.81,17.78a2.42,2.42,0,0,1-1.58.87,2.94,2.94,0,0,1-1.71-1,9.92,9.92,0,0,0-8.38-2.73,7.8,7.8,0,0,0-5.77,4c-2.7,5.06-6.61,8.05-13.53,10.33a14.28,14.28,0,0,0-9.17,9,15.62,15.62,0,0,0,2,13.88A34.32,34.32,0,0,0,24,84c0.63,0.62,1.26,1.24,1.87,1.87a17,17,0,0,0,12.09,5.55A14.86,14.86,0,0,0,42,90.93,15.13,15.13,0,0,0,52.75,79.45a14.57,14.57,0,0,1,8-10C64,67.76,66,65.21,66.47,62.29s-0.66-6-3.22-8.71c-0.55-.55-1.18-1.26-0.79-2.08a11.82,11.82,0,0,1,3-3.27c1.21-1.11,17-16.69,18.29-17.7,0.68-.53,1.38-1,2.09-1.5a0.82,0.82,0,0,0,.08.13l1.21,1.26a0.87,0.87,0,1,0,1.25-1.21l-1.11-1.15,1-.7,0,0,1.21,1.26a0.87,0.87,0,0,0,1.25-1.21Zm-0.18-3A3.13,3.13,0,0,1,88,25.2c-1.77,1.26-3.62,2.38-5.36,3.68L82.72,29a0.5,0.5,0,1,1-.71.71l-0.2-.2c-0.17.14-.35,0.26-0.52,0.4s-1,.91-2,1.86l0.31,0.3a0.5,0.5,0,1,1-.71.71l-0.32-.31-2.29,2.26,0.46,0.46a0.5,0.5,0,1,1-.71.71l-0.46-.46-2.38,2.37,0.5,0.5A0.5,0.5,0,1,1,73,39l-0.5-.5L70,41.07l0.32,0.32a0.5,0.5,0,1,1-.71.71l-0.32-.32L66.83,44.2l0.31,0.3a0.5,0.5,0,1,1-.71.71l-0.31-.31-2.37,2.36,0.35,0.34a0.5,0.5,0,1,1-.71.71L63.05,48l-1,1c-1.91,1.83-2.61,3.46-.22,6,2.12,2.22,3.08,4.73,2.7,7s-2.05,4.34-4.73,5.76a16.43,16.43,0,0,0-9,11.28,13.2,13.2,0,0,1-9.37,10c-5,1.38-10.19-.25-14.23-4.48-0.62-.65-1.27-1.28-1.91-1.92A32.34,32.34,0,0,1,21,77.78a13.68,13.68,0,0,1-1.8-12.15,12.18,12.18,0,0,1,7.93-7.75c5.18-1.7,11-4.38,14.64-11.26a5.79,5.79,0,0,1,4.35-3,7.43,7.43,0,0,1,1.21-.09,8,8,0,0,1,5.5,2.29,4.41,4.41,0,0,0,3.12,1.6c1.38,0,2.57-1.14,3.5-2l0.51-.5-0.68-.68A0.5,0.5,0,0,1,60,43.5l0.69,0.68L63,41.83,62.3,41.1A0.5,0.5,0,1,1,63,40.39l0.73,0.73,2.42-2.42L65.44,38a0.5,0.5,0,0,1,.71-0.71L66.87,38l2.58-2.59-0.54-.53a0.5,0.5,0,0,1,.71-0.71l0.54,0.53,2.36-2.38L72,31.77a0.5,0.5,0,0,1,.71-0.71l0.56,0.55,2.26-2.29-0.67-.67a0.5,0.5,0,0,1,.71-0.71l0.66,0.66c0.36-.37.61-0.64,0.7-0.74,0.51-.59,1-1.21,1.45-1.83l-0.45-.44a0.5,0.5,0,0,1,.71-0.71l0.34,0.34c1.25-1.72,2.45-3.49,3.79-5.15a3.47,3.47,0,0,1,2.16-1.56c1.14,0,2.33,1,3.1,1.77A4,4,0,0,1,89.51,23.31Z"/><path class="cls-2" d="M72.67,31.06a0.5,0.5,0,0,0-.71.71l0.56,0.55,3.11,3.1,0.46,0.46a0.5,0.5,0,0,0,.71-0.71l-0.46-.46-3.12-3.1Z"/><path class="cls-2" d="M75.51,27.95a0.5,0.5,0,0,0-.71.71l0.67,0.67,3.15,3.13,0.32,0.31a0.5,0.5,0,1,0,.71-0.71l-0.31-.3L76.18,28.6Z"/><path class="cls-2" d="M78.59,24.87a0.5,0.5,0,0,0-.71.71L78.33,26l3.48,3.47,0.2,0.2A0.5,0.5,0,1,0,82.72,29l-0.11-.11-3.68-3.66Z"/></svg>