<?xml version="1.0" encoding="utf-8"?>
<!-- Generator: Adobe Illustrator 17.1.0, SVG Export Plug-In . SVG Version: 6.00 Build 0)  -->
<!DOCTYPE svg PUBLIC "-//W3C//DTD SVG 1.1//EN" "http://www.w3.org/Graphics/SVG/1.1/DTD/svg11.dtd">
<svg version="1.1" id="Layer_1" xmlns="http://www.w3.org/2000/svg" xmlns:xlink="http://www.w3.org/1999/xlink" x="0px" y="0px"
	 viewBox="0 0 144 144" enable-background="new 0 0 144 144" xml:space="preserve">
<path d="M79.157,70.535H64.99V56.368h13.031l-5.959,8.47l-2.512-4.463c-0.202-0.36-0.658-0.489-1.021-0.287
	c-0.361,0.204-0.488,0.661-0.285,1.023l3.096,5.5c0.125,0.224,0.358,0.369,0.615,0.381c0.013,0.001,0.025,0.001,0.037,0.001
	c0.244,0,0.473-0.118,0.615-0.317l6.55-9.312V70.535z M82.33,51.549c-0.339-0.239-0.809-0.156-1.045,0.182l-1.855,2.637H63.99
	c-0.553,0-1,0.449-1,1v16.167c0,0.553,0.447,1,1,1h16.167c0.552,0,1-0.447,1-1V55.368c0-0.215-0.083-0.402-0.198-0.566l1.553-2.207
	C82.75,52.255,82.668,51.787,82.33,51.549"/>
<path d="M73.133,87.449l6.024-6.022v12.045L73.133,87.449z M72.072,88.51l6.023,6.023H66.051L72.072,88.51z M66.051,80.367h12.045
	l-6.023,6.021L66.051,80.367z M71.012,87.449l-6.022,6.023V81.428L71.012,87.449z M80.157,78.367H63.99c-0.553,0-1,0.447-1,1v16.166
	c0,0.553,0.447,1,1,1h16.167c0.552,0,1-0.447,1-1V79.367C81.157,78.814,80.709,78.367,80.157,78.367"/>
<path d="M95.461,33.132H48.538c-2.646,0-4.8,2.154-4.8,4.803v68.133c0,2.646,2.153,4.799,4.8,4.799h46.923
	c2.649,0,4.801-2.152,4.801-4.799V37.935C100.262,35.287,98.11,33.132,95.461,33.132 M98.262,106.068
	c0,1.543-1.255,2.799-2.801,2.799H48.538c-1.545,0-2.8-1.256-2.8-2.799V37.935c0-1.545,1.255-2.803,2.8-2.803h46.923
	c1.546,0,2.801,1.258,2.801,2.803V106.068z M92.445,42.087h-7.393v-3.44c0-1.022-0.831-1.854-1.853-1.854H60.803
	c-1.024,0-1.854,0.831-1.854,1.854v3.44h-7.392c-1.6,0-2.899,1.212-2.899,2.702v58.179c0,1.49,1.3,2.701,2.899,2.701h40.888
	c1.598,0,2.899-1.211,2.899-2.701V44.79C95.344,43.299,94.043,42.087,92.445,42.087 M60.449,42.087v-3.44
	c0-0.195,0.16-0.354,0.354-0.354h22.397c0.195,0,0.353,0.158,0.353,0.354v3.44v1.5v0.682c0,0.193-0.158,0.352-0.353,0.352H60.803
	c-0.193,0-0.354-0.158-0.354-0.352v-0.682V42.087z M93.842,102.969c0,0.662-0.626,1.201-1.396,1.201H51.558
	c-0.772,0-1.399-0.539-1.399-1.201V44.79c0-0.663,0.627-1.202,1.399-1.202h7.392v0.682c0,1.021,0.829,1.852,1.854,1.852h22.397
	c1.022,0,1.853-0.831,1.853-1.852v-0.682h7.393c0.771,0,1.396,0.539,1.396,1.202V102.969z"/>
</svg>
