<?xml version="1.0" encoding="utf-8"?>
<!-- Generator: Adobe Illustrator 17.1.0, SVG Export Plug-In . SVG Version: 6.00 Build 0)  -->
<!DOCTYPE svg PUBLIC "-//W3C//DTD SVG 1.1//EN" "http://www.w3.org/Graphics/SVG/1.1/DTD/svg11.dtd">
<svg version="1.1" id="Layer_1" xmlns="http://www.w3.org/2000/svg" xmlns:xlink="http://www.w3.org/1999/xlink" x="0px" y="0px"
	 viewBox="0 0 144 144" enable-background="new 0 0 144 144" xml:space="preserve">
<g>
	<path d="M105.106,47.406l-66.163-0.015c-0.696,0-1.262,0.565-1.262,1.26l-0.05,46.695c0,0.335,0.133,0.658,0.37,0.894
		c0.236,0.236,0.558,0.369,0.892,0.369c0.001,0,0.001,0,0.002,0l66.211-0.091c0.696,0,1.261-0.564,1.261-1.262v-46.59
		C106.368,47.97,105.804,47.406,105.106,47.406z M103.845,93.998l-63.688,0.086l0.048-44.17l63.641,0.015V93.998z"/>
	<path d="M43.204,92.17C43.204,92.17,43.204,92.17,43.204,92.17l57.595-0.074c0.521,0,0.944-0.424,0.944-0.946V52.969
		c0-0.522-0.424-0.946-0.946-0.946l-57.55-0.012c-0.522,0-0.946,0.423-0.946,0.945l-0.043,38.269c0,0.251,0.099,0.493,0.277,0.67
		C42.712,92.071,42.953,92.17,43.204,92.17z M45.094,90.275c2.557-7.725,9.809-26.201,15.148-26.201
		c3.467,0,6.252,5.45,8.711,10.259c2.18,4.266,3.902,7.634,6.109,7.634c1.78,0,2.969-0.954,4.117-1.873
		c1.234-0.988,2.398-1.922,4.379-1.922c2.987,0,11.401,8.19,15.061,12.034L45.094,90.275z M99.851,53.915v35.759
		C97.841,87.537,87.63,76.91,83.559,76.91c-2.422,0-3.881,1.168-5.167,2.198c-1.068,0.857-1.991,1.597-3.329,1.597
		c-1.437,0-3.241-3.531-4.987-6.946c-2.623-5.13-5.596-10.946-9.833-10.946c-6.696,0-14.128,20.517-16.089,26.3l0.039-35.21
		L99.851,53.915z"/>
	<path d="M87.172,69.495c2.939,0,5.33-2.391,5.33-5.33c0-2.939-2.391-5.331-5.33-5.331c-2.938,0-5.33,2.391-5.33,5.331
		C81.842,67.104,84.233,69.495,87.172,69.495z M87.172,60.096c2.243,0,4.069,1.826,4.069,4.069c0,2.244-1.826,4.068-4.069,4.068
		c-2.243,0-4.068-1.825-4.068-4.068C83.104,61.922,84.929,60.096,87.172,60.096z"/>
</g>
</svg>
