<svg id="Layer_2" data-name="Layer 2" xmlns="http://www.w3.org/2000/svg" viewBox="0 0 64.38 51.17"><defs><style>.cls-1{fill:#fff;}</style></defs><title>Icon_RH_Objects_Game-Controller_RGB_White</title><path class="cls-1" d="M25.54 18.09h-3.77v-3.77a.5.5 0 0 0-.5-.5h-4.85a.5.5 0 0 0-.5.5v3.77h-3.73a.5.5 0 0 0-.5.5v4.85a.5.5 0 0 0 .5.5h3.77v3.77a.5.5 0 0 0 .5.5h4.85a.5.5 0 0 0 .5-.5v-3.77h3.77a.5.5 0 0 0 .5-.5v-4.86a.5.5 0 0 0-.54-.49zm-.5 4.85h-3.77a.5.5 0 0 0-.5.5v3.77h-3.85v-3.77a.5.5 0 0 0-.5-.5h-3.76v-3.85h3.77a.5.5 0 0 0 .5-.5v-3.77h3.85v3.76a.5.5 0 0 0 .5.5h3.77zm39.21 19L57.54 5.26a3.48 3.48 0 0 0-3.42-2.85h-.82l-.32-2a.5.5 0 0 0-.49-.42h-6.78a.5.5 0 0 0-.41.21l-1.57 2.2h-1.72a3.69 3.69 0 0 0-3.13 1.76l-.43.7H25.93l-.42-.7a3.69 3.69 0 0 0-3.14-1.76h-1.89L18.91.2a.5.5 0 0 0-.41-.21h-6.78a.5.5 0 0 0-.49.42l-.32 2h-.64a3.48 3.48 0 0 0-3.42 2.85L.13 41.98a7.79 7.79 0 0 0 7.66 9.19h1.54a7.81 7.81 0 0 0 6.72-3.85l5.5-9.38c1.92.09 7 .08 21.3 0l5.49 9.36a7.81 7.81 0 0 0 6.72 3.85h1.53a7.79 7.79 0 0 0 7.66-9.19zM45.96.94h6.1l.23 1.41h-7.33zM12.19 1h6l1 1.41h-7.28zm48.84 46.08a5.77 5.77 0 0 1-4.45 2.08h-1.53a5.81 5.81 0 0 1-5-2.86l-5.78-9.86a1 1 0 0 0-.86-.49c-8.46 0-21.26.06-22.3 0a1 1 0 0 0-1 .48l-5.78 9.86a5.81 5.81 0 0 1-5 2.86H7.79a5.79 5.79 0 0 1-5.69-6.83L8.81 5.58a1.48 1.48 0 0 1 1.45-1.21h12.11a1.68 1.68 0 0 1 1.43.8l.72 1.18a1 1 0 0 0 .85.48h13.65a1 1 0 0 0 .85-.48l.72-1.18a1.68 1.68 0 0 1 1.42-.8h12.11a1.48 1.48 0 0 1 1.45 1.21l6.71 36.72a5.77 5.77 0 0 1-1.25 4.78zM45.19 23.29a3.05 3.05 0 1 0 3.05 3.05 3.06 3.06 0 0 0-3.05-3.05zm0 5.11a2.05 2.05 0 1 1 2.05-2.05 2.06 2.06 0 0 1-2.05 2.05zm5.24-10.35a3.05 3.05 0 1 0 3.05 3.05 3.06 3.06 0 0 0-3.02-3.05zm0 5.11a2.05 2.05 0 1 1 2.05-2.05 2.06 2.06 0 0 1-2.02 2.05zm-10.45-5.11a3.05 3.05 0 1 0 3.05 3.05 3.06 3.06 0 0 0-3.05-3.05zm0 5.11a2.05 2.05 0 1 1 2.05-2.05 2.06 2.06 0 0 1-2.05 2.05zm5.21-4.24a3.05 3.05 0 1 0-3-3.06 3.06 3.06 0 0 0 3 3.06zm0-5.11a2.05 2.05 0 1 1-2 2.05 2.06 2.06 0 0 1 2-2.05z"/></svg>