<?xml version="1.0" encoding="utf-8"?>
<!-- Generator: Adobe Illustrator 17.1.0, SVG Export Plug-In . SVG Version: 6.00 Build 0)  -->
<!DOCTYPE svg PUBLIC "-//W3C//DTD SVG 1.1//EN" "http://www.w3.org/Graphics/SVG/1.1/DTD/svg11.dtd">
<svg version="1.1" id="Layer_1" xmlns="http://www.w3.org/2000/svg" xmlns:xlink="http://www.w3.org/1999/xlink" x="0px" y="0px"
	 viewBox="0 0 216 216" enable-background="new 0 0 216 216" xml:space="preserve">
<g>
	<path d="M139.579,77.044c-23.83-5.577-29.731-6.179-31.162-6.179c-0.15,0-0.287,0.005-0.414,0.021
		c-0.125-0.016-0.263-0.021-0.414-0.021c-1.433,0-7.338,0.602-31.167,6.179c-0.452,0.105-0.772,0.509-0.772,0.974v32.977
		c0.008,0.285,1.135,28.627,32.178,34.125c0.057,0.012,0.115,0.016,0.174,0.016c0.041,0,0.082-0.002,0.122-0.008
		c31.86-3.922,32.228-33.857,32.228-34.16v-32.95C140.351,77.552,140.031,77.149,139.579,77.044z M138.351,110.967
		c0,0.285-0.346,28.375-30.323,32.158c-29.266-5.27-30.347-31.088-30.378-32.158V78.81c25.08-5.851,29.497-5.991,30.086-5.941
		c0.177,0.049,0.362,0.048,0.537-0.001c0.596-0.033,5.019,0.097,30.078,5.942V110.967z"/>
	<path d="M106.43,81.705c-2.306,0.27-8.635,1.289-25.126,5.089c-0.341,0.078-0.582,0.381-0.582,0.73l0.001,23.39
		c0.093,2.42,1.659,23.775,27.137,28.66c0.047,0.008,0.095,0.014,0.142,0.014c0.035,0,0.068-0.002,0.102-0.008
		c17.728-2.455,23.886-13.861,26.029-21.52l0.007-0.01c-0.002,0-0.003,0-0.004,0c1.073-3.842,1.141-6.742,1.145-7.084v-16.45
		c0.006-0.01,0.014-0.021,0.02-0.03l-0.02-0.009v-6.954c0-0.35-0.241-0.652-0.582-0.73c-16.509-3.804-22.816-4.819-25.192-5.091
		l-1.486-0.003L106.43,81.705z M133.779,98.639v2.479v9.842c0,0-0.289,7.482-3.602,12.914l-1.031,1.734c0,0-1.979,3.043-4.006,4.828
		l-1.402,1.219c-3.705,3.014-8.771,5.439-15.717,6.422c-4.88-0.949-8.823-2.533-12.028-4.469
		c21.167-14.867,33.074-30.04,37.787-36.848V98.639z M133.779,88.121v4.988l-0.201,0.356c-3.141,4.906-15.242,22.17-39.383,38.964
		c-0.304-0.215-0.613-0.428-0.901-0.648l-1.588-1.305c-1.512-1.342-2.783-2.762-3.852-4.203l-1.007-1.457
		c23.301-16.318,35.682-33.248,39.158-38.442l1.043,0.228C129.071,87.049,131.307,87.552,133.779,88.121z M123.898,85.917
		c-3.943,5.757-16.039,21.718-38.082,37.181c-3.168-5.752-3.551-11.109-3.594-12.213l0.018-9.54v-2.359l-0.018-10.865l6.51-1.469
		c0,0,16.076-3.248,17.785-3.452l2.898-0.002C111.113,83.395,115.076,84.018,123.898,85.917z"/>
</g>
</svg>
