<?xml version="1.0" encoding="utf-8"?>
<!-- Generator: Adobe Illustrator 17.1.0, SVG Export Plug-In . SVG Version: 6.00 Build 0)  -->
<!DOCTYPE svg PUBLIC "-//W3C//DTD SVG 1.1//EN" "http://www.w3.org/Graphics/SVG/1.1/DTD/svg11.dtd">
<svg version="1.1" id="Layer_1" xmlns="http://www.w3.org/2000/svg" xmlns:xlink="http://www.w3.org/1999/xlink" x="0px" y="0px"
	 viewBox="0 0 144 144" enable-background="new 0 0 144 144" xml:space="preserve">
<g>
	<path d="M75.987,43.528L75.987,43.528c0-2.392,0-1.588,0-2.392c3.784,0,2.536,0,3.784,0c0.337,0,0.614-0.14,0.813-0.382
		c0.218-0.241,0.316-0.562,0.316-0.903c0-4.923,0-3.275,0-4.923c0-0.342-0.099-0.623-0.316-0.864
		c-0.199-0.241-0.477-0.381-0.813-0.381c-15.277,0-10.185,0-15.277,0c-0.337,0-0.576,0.14-0.813,0.381
		c-0.238,0.242-0.317,0.522-0.317,0.864c0,4.923,0,3.275,0,4.923c0,0.341,0.079,0.663,0.317,0.903
		c0.236,0.242,0.476,0.382,0.813,0.382c3.766,0,2.516,0,3.766,0c0,2.392,0,1.607,0,2.392c-5.292,0.623-10.009,2.492-14.15,5.224
		c-1.566-1.829-1.05-1.205-1.566-1.829c0.951-0.804,0.634-0.543,0.951-0.804c0.237-0.201,0.416-0.522,0.416-0.823
		c0.06-0.322-0.04-0.664-0.277-0.905c-4.161-5.023-2.774-3.335-4.161-5.023c-0.416-0.522-1.17-0.563-1.686-0.141
		c-8.54,7.274-5.687,4.843-8.54,7.274c-0.238,0.201-0.377,0.482-0.437,0.803c-0.04,0.342,0.1,0.624,0.297,0.925
		c4.143,5.023,2.755,3.335,4.143,5.023c0.436,0.462,1.188,0.562,1.704,0.14c1.604-1.386,1.07-0.924,1.604-1.386
		c1.546,1.869,1.031,1.246,1.546,1.869c-5.549,5.967-8.957,14.064-8.957,22.965c0,18.445,14.764,33.475,33.036,33.475
		c18.249,0,33.013-15.029,33.013-33.475C105.196,59.663,92.415,45.498,75.987,43.528L75.987,43.528z M65.623,36.174L65.623,36.174
		c13.02,0,8.679,0,13.02,0c0,2.492,0,1.648,0,2.492c-3.587,0-2.398,0-3.587,0c-0.04,0-0.139,0-0.198,0c-5.43,0-3.605,0-5.43,0
		c-0.079,0-0.139,0-0.218,0c-3.587,0-2.397,0-3.587,0C65.623,37.822,65.623,36.998,65.623,36.174L65.623,36.174z M70.716,43.247
		L70.716,43.247c0-2.11,0-1.406,0-2.11c3.012,0,2.002,0,3.012,0c0,2.11,0,1.407,0,2.11c-0.851,0-0.555,0-0.851,0
		c-0.219,0-0.457,0-0.693,0c-0.238,0-0.477,0-0.714,0C71.211,43.247,70.975,43.247,70.716,43.247L70.716,43.247z M44.34,50.722
		L44.34,50.722c-2.636-3.175-1.764-2.11-2.636-3.175c6.698-5.686,4.459-3.777,6.698-5.686c2.636,3.154,1.763,2.109,2.636,3.154
		c-0.793,0.664-0.535,0.442-0.793,0.664c-0.06,0.06-0.1,0.1-0.139,0.16c-4.161,3.476-2.774,2.331-4.161,3.476
		c-0.04,0.06-0.1,0.1-0.14,0.16C45.311,49.877,44.835,50.299,44.34,50.722L44.34,50.722z M50.701,48.471L50.701,48.471
		c1.427,1.708,0.951,1.146,1.427,1.708c-0.812,0.623-1.565,1.306-2.318,1.97c-1.407-1.728-0.933-1.145-1.407-1.728
		C49.175,49.777,49.947,49.114,50.701,48.471L50.701,48.471z M93.842,98.783L93.842,98.783c-5.568,5.605-13.219,9.102-21.658,9.102
		c-8.443,0-16.152-3.496-21.661-9.102c-5.568-5.646-8.978-13.381-8.978-21.941c0-8.619,3.409-16.375,8.978-21.961
		c0.179-0.201,0.317-0.382,0.516-0.523c2.972-2.551,1.981-1.707,2.972-2.551c4.915-3.677,10.9-5.888,17.42-6.069
		c1.506,0,0.99,0,1.506,0c8.164,0.181,15.517,3.637,20.906,9.082c5.51,5.646,8.957,13.402,8.957,21.961
		C102.799,85.402,99.352,93.137,93.842,98.783L93.842,98.783z"/>
	<path d="M72.123,51.385L72.123,51.385c0.337,0,0.674-0.302,0.674-0.623c0-2.532,0-1.688,0-2.532c0-0.342-0.337-0.583-0.674-0.583
		c-0.337,0-0.653,0.241-0.653,0.583c0,2.532,0,1.688,0,2.532C71.47,51.083,71.807,51.385,72.123,51.385L72.123,51.385z"/>
	<path d="M58.549,51.767L58.549,51.767c-0.159-0.282-0.516-0.382-0.813-0.241c-0.277,0.201-0.376,0.583-0.237,0.864
		c1.269,2.149,0.852,1.447,1.269,2.149c0.158,0.302,0.535,0.382,0.812,0.242c0.277-0.181,0.376-0.522,0.237-0.864
		C59.381,53.213,58.964,52.49,58.549,51.767L58.549,51.767z"/>
	<path d="M50.146,63.239L50.146,63.239c-2.12-1.245-1.406-0.823-2.12-1.245c-0.277-0.142-0.654-0.04-0.852,0.24
		c-0.139,0.301-0.039,0.663,0.238,0.825c2.12,1.285,1.427,0.863,2.12,1.285c0.337,0.14,0.674,0.041,0.853-0.241
		C50.522,63.822,50.443,63.441,50.146,63.239L50.146,63.239z"/>
	<path d="M46.42,76.26L46.42,76.26c-2.497,0-1.664,0-2.497,0c-0.336,0-0.574,0.242-0.574,0.582c0,0.322,0.238,0.604,0.574,0.604
		c2.497,0,1.665,0,2.497,0c0.317,0,0.556-0.281,0.556-0.604C46.976,76.502,46.737,76.26,46.42,76.26L46.42,76.26z"/>
	<path d="M49.531,89.359L49.531,89.359c-2.12,1.246-1.406,0.846-2.12,1.246c-0.277,0.201-0.377,0.582-0.238,0.865
		c0.198,0.279,0.575,0.381,0.852,0.199c2.12-1.244,1.407-0.844,2.12-1.244c0.298-0.141,0.377-0.543,0.238-0.826
		C50.205,89.32,49.829,89.219,49.531,89.359L49.531,89.359z"/>
	<path d="M59.579,98.924L59.579,98.924c-0.277-0.201-0.654-0.1-0.853,0.24c-1.229,2.15-0.812,1.428-1.229,2.15
		c-0.139,0.283-0.04,0.664,0.237,0.805c0.298,0.201,0.654,0.1,0.813-0.182c1.229-2.209,0.812-1.467,1.229-2.209
		C59.955,99.447,59.856,99.064,59.579,98.924L59.579,98.924z"/>
	<path d="M72.184,102.34L72.184,102.34c-0.338,0-0.615,0.281-0.615,0.623c0,2.492,0,1.646,0,2.492c0,0.32,0.277,0.623,0.615,0.623
		c0.336,0,0.613-0.303,0.613-0.623c0-2.492,0-1.668,0-2.492C72.797,102.621,72.52,102.34,72.184,102.34L72.184,102.34z"/>
	<path d="M85.52,99.164L85.52,99.164c-0.18-0.279-0.517-0.381-0.793-0.24c-0.337,0.201-0.436,0.543-0.239,0.824
		c1.229,2.189,0.813,1.467,1.229,2.189c0.18,0.303,0.517,0.383,0.853,0.201c0.277-0.141,0.378-0.541,0.179-0.824
		C86.331,100.611,85.935,99.889,85.52,99.164L85.52,99.164z"/>
	<path d="M96.854,90.666L96.854,90.666c-2.141-1.307-1.428-0.865-2.141-1.307c-0.277-0.141-0.654-0.039-0.793,0.24
		c-0.198,0.283-0.099,0.686,0.178,0.826c2.181,1.285,1.468,0.863,2.181,1.285c0.277,0.141,0.654,0.039,0.812-0.24
		C97.271,91.188,97.171,90.807,96.854,90.666L96.854,90.666z"/>
	<path d="M100.343,76.16L100.343,76.16c-2.459,0-1.645,0-2.459,0c-0.336,0-0.613,0.342-0.613,0.662c0,0.342,0.277,0.623,0.613,0.623
		c2.459,0,1.646,0,2.459,0c0.316,0,0.613-0.281,0.613-0.623C100.956,76.502,100.659,76.16,100.343,76.16L100.343,76.16z"/>
	<path d="M96.279,62.054L96.279,62.054c-2.121,1.245-1.407,0.823-2.121,1.245c-0.336,0.142-0.436,0.523-0.237,0.804
		c0.139,0.302,0.516,0.381,0.793,0.241c2.181-1.245,1.446-0.823,2.181-1.245c0.276-0.182,0.376-0.563,0.178-0.865
		C96.934,61.954,96.557,61.853,96.279,62.054L96.279,62.054z"/>
	<path d="M86.568,51.565L86.568,51.565c-0.277-0.201-0.653-0.101-0.853,0.181c-1.229,2.21-0.812,1.467-1.229,2.21
		c-0.139,0.281-0.038,0.623,0.239,0.804c0.297,0.2,0.653,0.06,0.812-0.241c1.229-2.15,0.812-1.427,1.229-2.15
		C86.946,52.087,86.846,51.706,86.568,51.565L86.568,51.565z"/>
	<path d="M73.728,69.368L73.728,69.368C73.39,54.057,73.51,59.161,73.39,54.057c0-0.663-0.553-1.185-1.167-1.185
		c-0.238,0-0.158,0-0.238,0c-0.613,0-1.169,0.522-1.169,1.185c-0.337,15.37-0.218,10.247-0.337,15.37
		c-3.309,0.764-5.807,3.778-5.807,7.415c0,4.199,3.35,7.596,7.512,7.596c4.14,0,7.489-3.396,7.489-7.596
		C79.673,73.145,77.137,70.091,73.728,69.368L73.728,69.368z M75.77,80.479L75.77,80.479c-0.912,0.945-2.181,1.527-3.586,1.527
		c-1.428,0-2.696-0.582-3.646-1.527c-0.893-0.924-1.447-2.211-1.447-3.637c0-1.447,0.555-2.732,1.447-3.697
		c0.95-0.904,2.219-1.466,3.646-1.527c1.405,0.061,2.674,0.623,3.586,1.527c0.931,0.965,1.506,2.25,1.506,3.697
		C77.275,78.268,76.7,79.555,75.77,80.479L75.77,80.479z"/>
	<path d="M91.661,75.496L91.661,75.496c-12.166-0.281-8.124-0.201-12.166-0.281c-0.714-3.455-3.726-5.987-7.312-5.987
		c-4.162,0-7.512,3.395-7.512,7.614c0,4.199,3.35,7.596,7.512,7.596c3.586,0,6.598-2.572,7.312-5.969
		c12.166-0.342,8.104-0.221,12.166-0.342c0.655,0,1.13-0.582,1.13-1.203c0-0.242,0-0.162,0-0.242
		C92.791,76.08,92.316,75.537,91.661,75.496L91.661,75.496z M75.77,80.479L75.77,80.479c-0.912,0.945-2.181,1.527-3.586,1.527
		c-1.428,0-2.696-0.582-3.646-1.527c-0.893-0.924-1.447-2.211-1.447-3.637c0-1.447,0.555-2.732,1.447-3.697
		c0.95-0.904,2.219-1.466,3.646-1.527c1.405,0.061,2.674,0.623,3.586,1.527c0.931,0.965,1.506,2.25,1.506,3.697
		C77.275,78.268,76.7,79.555,75.77,80.479L75.77,80.479z"/>
</g>
</svg>
