<?xml version="1.0" encoding="utf-8"?>
<!-- Generator: Adobe Illustrator 17.1.0, SVG Export Plug-In . SVG Version: 6.00 Build 0)  -->
<!DOCTYPE svg PUBLIC "-//W3C//DTD SVG 1.1//EN" "http://www.w3.org/Graphics/SVG/1.1/DTD/svg11.dtd">
<svg version="1.1" id="Layer_1" xmlns="http://www.w3.org/2000/svg" xmlns:xlink="http://www.w3.org/1999/xlink" x="0px" y="0px"
	 viewBox="0 0 144 144" enable-background="new 0 0 144 144" xml:space="preserve">
<g>
	<g>
		<g>
			<path d="M50.279,82.016L41.52,97.49l-0.068,0.14c-0.404,1.078-0.61,2.195-0.61,3.321c0,5.204,4.233,9.438,9.438,9.438
				s9.438-4.233,9.438-9.438c0-1.126-0.205-2.243-0.611-3.321L50.279,82.016z M50.279,108.389c-4.102,0-7.438-3.338-7.438-7.438
				c0-0.86,0.154-1.716,0.457-2.546l6.981-12.331l6.98,12.331c0.305,0.83,0.457,1.686,0.457,2.546
				C57.717,105.051,54.381,108.389,50.279,108.389z"/>
			<path d="M102.159,51.661H91.915c-0.553,0-1,0.447-1,1v4.066h-5.578c-1.441-3.648-4.26-6.551-7.872-8.102v-8.048
				c0-0.554-0.447-1-1-1h-2.436v-2.582c0.505-0.307,0.955-0.706,1.313-1.194l11.485,0.658c0.103,0.014,0.205,0.024,0.311,0.024
				c1.858,0,3.371-1.512,3.371-3.37c0-2.067-1.826-3.73-4.013-3.307l-11.142,0.637c-0.848-1.169-2.196-1.872-3.656-1.872
				c-1.457,0-2.805,0.702-3.653,1.868l-11.569-0.656c0,0-0.483-0.041-0.742-0.041c-1.858,0-3.371,1.513-3.371,3.371
				c0,1.858,1.513,3.37,3.371,3.37c0.244,0,0.697-0.019,0.711-0.02l11.615-0.659c0.336,0.457,0.752,0.839,1.219,1.137v2.636h-2.174
				c-0.553,0-1,0.446-1,1v7.92c-3.758,1.532-6.762,4.603-8.215,8.396c-6.976,0.536-12.545,6.044-13.18,12.987h-1.182
				c-0.553,0-1,0.448-1,1v8.283c0,0.553,0.447,1,1,1h13.73c0.553,0,1-0.447,1-1v-8.283c0-0.552-0.447-1-1-1h-0.602
				c0.363-0.656,0.987-1.137,1.729-1.31c2.457,5.067,7.582,8.302,13.259,8.302c5.762,0,10.928-3.314,13.346-8.5h5.924v4.122
				c0,0.553,0.447,1,1,1h10.244c0.553,0,1-0.447,1-1V52.661C103.159,52.108,102.712,51.661,102.159,51.661z M56.345,34.468
				c0,0-0.397,0.017-0.61,0.017c-0.754,0-1.371-0.615-1.371-1.37c0-0.756,0.617-1.371,1.371-1.371c0.197,0,0.56,0.033,0.598,0.036
				l12.832,0.729l0.3-0.569c0.444-0.843,1.302-1.366,2.235-1.366c0.938,0,1.794,0.524,2.237,1.369l0.3,0.57l12.447-0.711
				l0.156-0.021c0.11-0.023,0.208-0.036,0.299-0.036c0.756,0,1.371,0.615,1.371,1.371c0,0.751-0.608,1.364-1.397,1.364h-0.013
				l-12.869-0.744l-0.301,0.564c-0.446,0.837-1.301,1.356-2.231,1.356c-0.928,0-1.781-0.519-2.229-1.354l-0.301-0.562L56.345,34.468
				z M70.279,37.418c0.452,0.151,0.929,0.237,1.42,0.237c0.459,0,0.904-0.077,1.33-0.209v2.132h-2.75V37.418z M101.159,71.495
				h-8.244v-4.122c0-0.552-0.447-1-1-1h-7.576c-0.405,0-0.77,0.244-0.925,0.619c-1.975,4.787-6.595,7.881-11.769,7.881
				c-5.122,0-9.724-3.047-11.726-7.764c-0.156-0.368-0.518-0.608-0.92-0.608c-2.445,0.002-4.449,1.849-4.664,4.292
				c-0.025,0.279,0.068,0.557,0.258,0.764c0.189,0.206,0.457,0.324,0.737,0.324h0.929v6.283h-11.73v-6.283h1.124
				c0.543,0,0.985-0.434,0.999-0.976c0.158-6.565,5.424-11.856,11.986-12.048c0.422-0.012,0.789-0.287,0.922-0.688
				c1.228-3.734,4.172-6.738,7.876-8.038c0.401-0.14,0.669-0.519,0.669-0.944v-7.609h7.359v7.723c0,0.417,0.259,0.79,0.648,0.937
				c3.587,1.346,6.349,4.193,7.578,7.813c0.139,0.405,0.519,0.678,0.947,0.678h7.276c0.553,0,1-0.447,1-1.001v-4.066h8.244V71.495z"
				/>
			<path d="M52.675,70.91H48.3c-0.276,0-0.5,0.224-0.5,0.5c0,0.276,0.224,0.5,0.5,0.5h4.375c0.276,0,0.5-0.224,0.5-0.5
				C53.175,71.134,52.951,70.91,52.675,70.91z"/>
			<path d="M73.258,49.034h-3.062c-0.275,0-0.5,0.225-0.5,0.5c0,0.276,0.225,0.5,0.5,0.5h3.062c0.276,0,0.5-0.224,0.5-0.5
				C73.758,49.259,73.534,49.034,73.258,49.034z"/>
			<path d="M92.404,60.014c-0.276,0-0.5,0.225-0.5,0.5v3.792c0,0.276,0.224,0.5,0.5,0.5c0.276,0,0.5-0.224,0.5-0.5v-3.792
				C92.904,60.238,92.681,60.014,92.404,60.014z"/>
			<path d="M55.467,99.491c-0.26,0.097-0.391,0.385-0.293,0.644c0.194,0.518,0.293,1.054,0.293,1.59
				c0,2.493-2.028,4.521-4.521,4.521c-0.276,0-0.5,0.224-0.5,0.5s0.224,0.5,0.5,0.5c3.044,0,5.521-2.477,5.521-5.521
				c0-0.656-0.121-1.311-0.357-1.941C56.012,99.523,55.723,99.392,55.467,99.491z"/>
		</g>
	</g>
</g>
</svg>
