<svg xmlns="http://www.w3.org/2000/svg" viewBox="0 0 65.33 75.67"><title>Icon_RH_Objects_WashingMachine_RGB_Black</title><path d="M22.67 5.66A3.33 3.33 0 1 0 26 8.99a3.33 3.33 0 0 0-3.33-3.33zm-12 0A3.33 3.33 0 1 0 14 8.99a3.33 3.33 0 0 0-3.33-3.33zM62.14-.01h-59A3.16 3.16 0 0 0-.02 3.15V72.5a3.16 3.16 0 0 0 3.16 3.16h59a3.16 3.16 0 0 0 3.16-3.16V3.16A3.16 3.16 0 0 0 62.18 0zM63.3 72.5a1.16 1.16 0 0 1-1.16 1.16h-59a1.16 1.16 0 0 1-1.16-1.16V17.31h34.39a1 1 0 0 0 0-2H2V3.16A1.16 1.16 0 0 1 3.16 2h59a1.16 1.16 0 0 1 1.16 1.16zM50.67 5.74a6.59 6.59 0 1 0 6.59 6.59 6.6 6.6 0 0 0-6.59-6.59zm0 11.18a4.59 4.59 0 1 1 4.59-4.59 4.6 4.6 0 0 1-4.59 4.59zm-18 6.11a19 19 0 1 0 19 19 19 19 0 0 0-19-19zm0 35.93a17 17 0 0 1-17-17v-.77c1.31-1.07 7.38-5.18 17.27 1 4 2.51 7.33 3.37 10 3.37a10.45 10.45 0 0 0 6.58-2.21 17 17 0 0 1-16.85 15.61zm1.41-18.43c-8.77-5.48-15-3.55-18-1.88a17 17 0 0 1 33.52 2c-.77.94-5.42 6.18-15.52-.12z"/></svg>