<?xml version="1.0" encoding="utf-8"?>
<!-- Generator: Adobe Illustrator 17.1.0, SVG Export Plug-In . SVG Version: 6.00 Build 0)  -->
<!DOCTYPE svg PUBLIC "-//W3C//DTD SVG 1.1//EN" "http://www.w3.org/Graphics/SVG/1.1/DTD/svg11.dtd">
<svg version="1.1" id="Layer_1" xmlns="http://www.w3.org/2000/svg" xmlns:xlink="http://www.w3.org/1999/xlink" x="0px" y="0px"
	 viewBox="0 0 144 144" enable-background="new 0 0 144 144" xml:space="preserve">
<g>
	<g>
		<path d="M62.057,110.859c-1.805,0-4.112-0.591-7.056-1.805c-7.217-2.978-8.173-7.931-6.799-11.267
			c1.145-2.771,3.042-3.62,4.568-4.303c1.12-0.501,1.77-0.82,2.077-1.568c0.236-0.572,0.21-1.122-0.084-1.73
			c-1.568-3.246-9.622-6.171-12.592-7.023c-0.787-0.224-1.41-1.014-1.444-1.837c-0.021-0.486-0.441-11.938,3.608-16.158
			c1.748-1.822,4.103-2.135,6.802-0.854c2.15,1.021,3.115,2.583,3.967,3.961c0.781,1.264,1.456,2.355,2.973,2.98
			c0.322,0.134,0.727,0.204,1.171,0.204c2.073,0,4.903-1.491,6.629-5.676c0.904-2.189,1.116-3.842,0.647-5.052
			c-0.394-1.019-1.306-1.794-2.869-2.438c-1.439-0.596-2.776-0.074-4.172,0.579c-1.002,0.468-2.038,0.952-3.218,0.952
			c-0.548,0-1.089-0.108-1.607-0.322c-1.731-0.715-2.821-1.91-3.238-3.553c-1.338-5.274,5.233-13.442,5.513-13.787
			c0.546-0.67,1.625-0.859,2.364-0.411c0.087,0.053,8.715,5.24,13.929,5.24c2.171,0,2.795-0.902,3.074-1.58
			c0.459-1.111,0.147-2.498-0.182-3.966c-0.382-1.705-0.777-3.469-0.079-5.162c1.12-2.716,3.307-4.15,6.321-4.15
			c1.846,0,4.077,0.534,6.634,1.589c3.433,1.416,5.55,3.077,6.473,5.077c0.71,1.538,0.68,3.192-0.091,5.058
			c-1.104,2.679-2.762,3.804-4.094,4.707c-0.921,0.626-1.65,1.12-2.01,1.995c-0.265,0.64-0.236,1.249,0.088,1.916
			c1.622,3.337,9.681,6.236,12.648,7.071c0.896,0.25,1.445,1.161,1.248,2.073c-0.33,1.527-3.4,14.926-9.427,14.926
			c-0.561,0-1.127-0.116-1.685-0.347c-1.876-0.773-2.863-2.13-3.734-3.326c-0.806-1.107-1.502-2.062-2.81-2.602
			c-0.521-0.215-1.028-0.324-1.508-0.324c-2.403,0-4.034,2.731-4.978,5.021c-0.865,2.096-1.03,4.024-0.478,5.576
			c0.478,1.347,1.465,2.361,2.853,2.933c1.251,0.519,2.38,0.169,3.576-0.303c0.86-0.337,1.749-0.687,2.799-0.687
			c0.616,0,1.207,0.12,1.806,0.367c1.087,0.449,1.828,1.28,2.143,2.404c1.327,4.744-5.42,14.114-6.193,15.167
			c-0.52,0.708-1.601,0.929-2.361,0.483c-0.073-0.044-7.467-4.367-12.425-4.367c-1.883,0-3.058,0.629-3.591,1.923
			c-0.305,0.737-0.005,1.743,0.343,2.907c0.476,1.598,1.015,3.408,0.225,5.324C67.071,108.483,65.673,110.859,62.057,110.859z
			 M48.041,65.533c-0.864,0-1.604,0.333-2.262,1.019c-2.874,2.992-3.18,11.619-3.055,14.691c1.18,0.337,11.603,3.444,13.839,8.073
			c0.544,1.127,0.589,2.259,0.133,3.364c-0.628,1.521-1.89,2.085-3.11,2.631c-1.387,0.62-2.696,1.205-3.536,3.239
			c-0.37,0.898-1.835,5.541,5.713,8.654c2.697,1.113,4.756,1.654,6.293,1.654c1.941,0,3.034-0.82,3.903-2.927
			c0.521-1.261,0.126-2.586-0.292-3.989c-0.418-1.401-0.85-2.85-0.274-4.241c0.594-1.441,2.021-3.16,5.439-3.16
			c5.138,0,12.112,3.88,13.282,4.552c2.007-2.769,6.659-10.124,5.772-13.296c-0.151-0.54-0.453-0.877-0.979-1.094
			c-1.026-0.425-1.972-0.115-3.11,0.332c-0.86,0.337-1.835,0.72-2.98,0.72c-0.705,0-1.389-0.141-2.09-0.431
			c-1.898-0.782-3.31-2.242-3.975-4.111c-0.721-2.024-0.543-4.448,0.513-7.008c2.134-5.174,4.891-6.26,6.828-6.26
			c0.743,0,1.507,0.16,2.271,0.476c1.829,0.754,2.804,2.092,3.664,3.272c0.818,1.125,1.526,2.097,2.881,2.656
			c0.313,0.129,0.623,0.194,0.921,0.194c3.295,0,6.273-7.965,7.425-13.135c-1.891-0.55-11.494-3.536-13.693-8.062
			c-0.576-1.184-0.622-2.38-0.139-3.553c0.591-1.431,1.682-2.171,2.736-2.887c1.226-0.832,2.492-1.691,3.368-3.816
			c0.554-1.34,0.593-2.438,0.124-3.455c-0.692-1.501-2.516-2.869-5.42-4.067c-2.313-0.954-4.289-1.438-5.871-1.438
			c-2.231,0-3.652,0.925-4.472,2.913c-0.458,1.109-0.148,2.495,0.182,3.962c0.383,1.707,0.778,3.472,0.079,5.166
			c-0.53,1.285-1.815,2.817-4.924,2.817c-5.465,0-13.66-4.753-14.835-5.451c-1.787,2.239-5.924,8.409-5.032,11.918
			c0.258,1.011,0.932,1.729,2.062,2.195c0.984,0.405,2.043-0.046,3.216-0.594c1.054-0.492,2.247-1.05,3.657-1.05
			c0.711,0,1.426,0.146,2.125,0.435c2.075,0.855,3.374,2.022,3.971,3.565c0.663,1.712,0.445,3.851-0.664,6.536
			c-2.102,5.097-5.758,6.913-8.478,6.913c-0.703,0-1.372-0.123-1.935-0.354c-2.114-0.873-3.068-2.417-3.91-3.779
			c-0.774-1.253-1.506-2.438-3.123-3.205C49.458,65.73,48.705,65.533,48.041,65.533z"/>
	</g>
</g>
</svg>
