<svg id="Layer_1" data-name="Layer 1" xmlns="http://www.w3.org/2000/svg" viewBox="0 0 108 108"><defs><style>.cls-1{fill:none;}</style></defs><title>Icon_RH_Object_Sombrero_RGB_Flat</title><polygon class="cls-1" points="46.16 58.64 51.24 63.72 55.97 63.72 50.89 58.64 46.16 58.64"/><polygon class="cls-1" points="44.2 63.72 49.91 63.72 45.17 58.98 44.2 63.72"/><polygon class="cls-1" points="52.22 58.64 57.3 63.72 62.03 63.72 56.95 58.64 52.22 58.64"/><polygon class="cls-1" points="58.28 58.64 63.37 63.72 64.11 63.72 62.8 58.64 58.28 58.64"/><path class="cls-1" d="M83.78,65.72H24.22a1.11,1.11,0,0,0-1.11,1.11v3.08a5.72,5.72,0,0,0,5.72,5.72H79.18a5.72,5.72,0,0,0,5.72-5.72V66.83A1.11,1.11,0,0,0,83.78,65.72Z"/><path class="cls-1" d="M61.94,51.56c-0.5-4.88-1-9.49-1.64-14.14C59.81,34,57.71,32.2,54,32.15H53.9c-3.5,0-5.62,1.8-6.15,5.21C47,42,46.56,46.64,46.06,51.54c-0.18,1.72-.35,3.45-0.54,5.21h17Q62.2,54.13,61.94,51.56Z"/><path d="M45.17,59l4.74,4.74h1.33l-5.08-5.08h4.73L56,63.72H57.3l-5.08-5.08h4.73L62,63.72h1.33l-5.08-5.08H62.8l1.31,5.08H66c-2.68-8.48-2.1-17.65-4-26.35-0.45-2.09-1.13-4.29-2.81-5.63a8.05,8.05,0,0,0-5.65-1.33A8.76,8.76,0,0,0,48,32.56c-2,1.95-2.3,5-2.55,7.74q-1.07,11.78-3.27,23.41h2Zm0.89-7.44c0.5-4.9,1-9.53,1.69-14.18,0.53-3.41,2.65-5.21,6.15-5.21H54c3.66,0.05,5.76,1.82,6.25,5.26,0.66,4.65,1.14,9.26,1.64,14.14q0.27,2.57.54,5.19h-17C45.71,55,45.88,53.26,46.06,51.54Z"/><path d="M83.78,63.72H24.22a3.11,3.11,0,0,0-3.11,3.11v3.08a7.72,7.72,0,0,0,7.72,7.72H79.18a7.72,7.72,0,0,0,7.72-7.72V66.83A3.11,3.11,0,0,0,83.78,63.72Zm1.11,6.18a5.72,5.72,0,0,1-5.72,5.72H28.82a5.72,5.72,0,0,1-5.72-5.72V66.83a1.11,1.11,0,0,1,1.11-1.11H83.78a1.11,1.11,0,0,1,1.11,1.11v3.08Z"/></svg>