<svg id="Layer_1" data-name="Layer 1" xmlns="http://www.w3.org/2000/svg" viewBox="0 0 108 108"><defs><style>.cls-1{fill:none;}</style></defs><title>Icon_RH_Object_Binoculars_RGB_Flat</title><path class="cls-1" d="M54,41.88h0a1.31,1.31,0,0,0-1.35,1.36,1.48,1.48,0,0,0,.45,1,1.24,1.24,0,0,0,1,.4,1.52,1.52,0,0,0,1.4-1.43,1.33,1.33,0,0,0-.4-1A1.45,1.45,0,0,0,54,41.88Z"/><path class="cls-1" d="M63.44,42.94c-3.22-3-6.57-4.51-9.93-4.38-4.32.18-7.66,3-9,4.31A15.91,15.91,0,0,1,50,54.37a18.08,18.08,0,0,1-.28,3.86,7,7,0,0,1,8.65.19A18.13,18.13,0,0,1,58,54.23,15.87,15.87,0,0,1,63.44,42.94ZM54.1,46.68H54a3.32,3.32,0,0,1-2.33-1,3.49,3.49,0,0,1-1-2.48A3.3,3.3,0,0,1,54,39.88a3.49,3.49,0,0,1,2.49,1,3.31,3.31,0,0,1,1,2.4A3.5,3.5,0,0,1,54.1,46.68Z"/><path class="cls-1" d="M33.52,40.82H33.33a14,14,0,0,0-9.9,4.28,14.4,14.4,0,0,0-4.12,10.31,14.31,14.31,0,0,0,14.21,14h0.42a14.29,14.29,0,0,0,12.63-8h0l0,0c0.11-.24.23-0.47,0.32-0.72a15.18,15.18,0,0,0,1-6.26A14.21,14.21,0,0,0,33.52,40.82Zm0.11,26.63h0A12.37,12.37,0,0,1,21.31,55.2,12.43,12.43,0,0,1,33.6,42.81h0.05A12.32,12.32,0,1,1,33.63,67.45Z"/><path class="cls-1" d="M33.65,44.31h0A10.93,10.93,0,0,0,22.81,55.19,10.86,10.86,0,0,0,33.62,66h0A10.82,10.82,0,0,0,33.65,44.31Z"/><path class="cls-1" d="M74.86,40.82H74.54a14.32,14.32,0,1,0-.27,28.63h0a14,14,0,0,0,10-4,14.23,14.23,0,0,0,4.38-10.07A14.45,14.45,0,0,0,74.86,40.82Zm-0.5,26.63h0A12.37,12.37,0,0,1,62,55.2,12.43,12.43,0,0,1,74.32,42.81h0.05A12.32,12.32,0,1,1,74.35,67.45Z"/><path class="cls-1" d="M82.06,47.54a10.81,10.81,0,0,0-7.69-3.24h0A10.93,10.93,0,0,0,63.53,55.19,10.86,10.86,0,0,0,74.34,66h0A10.8,10.8,0,0,0,82.06,47.54Z"/><path d="M74.9,38.82A16.77,16.77,0,0,0,65,41.71c-3.7-3.57-7.6-5.31-11.63-5.14-5.25.23-9.09,3.61-10.53,5.08a16.66,16.66,0,0,0-9.57-2.83A16,16,0,0,0,22,43.7a16.39,16.39,0,0,0-4.69,11.73,16.31,16.31,0,0,0,16.21,16h0.42a16.1,16.1,0,0,0,14.39-9.06c0.39-.58,2.44-3.4,5.3-3.55,2-.1,4.08,1.18,6.13,3.81a15.91,15.91,0,0,0,2.82,3.92A16.3,16.3,0,0,0,74,71.44h0.28a15.9,15.9,0,0,0,11.4-4.56,16.22,16.22,0,0,0,5-11.48A16.48,16.48,0,0,0,74.9,38.82Zm-28,21.88c-0.1.24-.21,0.48-0.32,0.72l0,0h0a14.29,14.29,0,0,1-12.63,8H33.52a14.31,14.31,0,0,1-14.21-14A14.4,14.4,0,0,1,23.43,45.1a14,14,0,0,1,9.9-4.28h0.18A14.21,14.21,0,0,1,48,54.44,15.18,15.18,0,0,1,46.91,60.7Zm11.42-2.28a7,7,0,0,0-8.65-.19A18.08,18.08,0,0,0,50,54.37a15.91,15.91,0,0,0-5.47-11.49c1.36-1.34,4.7-4.13,9-4.31,3.36-.14,6.7,1.35,9.93,4.38A15.87,15.87,0,0,0,58,54.23,18.13,18.13,0,0,0,58.33,58.42Zm26,7a14,14,0,0,1-10,4h0a14.31,14.31,0,1,1,.27-28.63h0.32A14.45,14.45,0,0,1,88.69,55.37,14.23,14.23,0,0,1,84.31,65.44Z"/><path d="M33.65,42.81H33.6A12.43,12.43,0,0,0,21.31,55.2,12.37,12.37,0,0,0,33.62,67.45h0A12.32,12.32,0,0,0,33.65,42.81Zm0,23.15h0A10.86,10.86,0,0,1,22.81,55.19,10.93,10.93,0,0,1,33.6,44.31h0A10.82,10.82,0,1,1,33.63,66Z"/><path d="M83.13,46.49a12.3,12.3,0,0,0-8.76-3.68H74.32A12.43,12.43,0,0,0,62,55.2,12.37,12.37,0,0,0,74.34,67.45h0A12.3,12.3,0,0,0,83.13,46.49ZM74.35,66h0A10.86,10.86,0,0,1,63.53,55.19,10.93,10.93,0,0,1,74.32,44.31h0A10.82,10.82,0,1,1,74.35,66Z"/><path d="M54,39.88a3.3,3.3,0,0,0-3.33,3.36,3.49,3.49,0,0,0,1,2.48,3.32,3.32,0,0,0,2.33,1H54.1a3.5,3.5,0,0,0,3.35-3.41,3.31,3.31,0,0,0-1-2.4A3.49,3.49,0,0,0,54,39.88Zm0.08,4.81a1.24,1.24,0,0,1-1-.4,1.48,1.48,0,0,1-.45-1A1.31,1.31,0,0,1,54,41.88h0a1.45,1.45,0,0,1,1,.42,1.33,1.33,0,0,1,.4,1A1.52,1.52,0,0,1,54.06,44.68Z"/></svg>