<?xml version="1.0" encoding="utf-8"?>
<!-- Generator: Adobe Illustrator 19.1.0, SVG Export Plug-In . SVG Version: 6.00 Build 0)  -->
<svg version="1.1" xmlns="http://www.w3.org/2000/svg" xmlns:xlink="http://www.w3.org/1999/xlink" x="0px" y="0px"
	 viewBox="0 0 144 144" enable-background="new 0 0 144 144" xml:space="preserve">
<g id="button" display="none">
	<circle display="inline" fill="#DCDCDC" cx="72" cy="72" r="54"/>
</g>
<g id="template" display="none">
	<circle display="inline" fill="none" stroke="#FFFFFF" stroke-width="0.25" stroke-miterlimit="10" cx="72" cy="72" r="36"/>
	<g display="inline">
		
			<circle fill="none" stroke="#FFFFFF" stroke-width="0.25" stroke-linecap="round" stroke-miterlimit="10" stroke-dasharray="1.9875,1.9875" cx="72" cy="72" r="40.5"/>
	</g>
	
		<line display="inline" fill="none" stroke="#FFFFFF" stroke-width="0.25" stroke-miterlimit="10" x1="72" y1="18" x2="72" y2="126"/>
	
		<line display="inline" fill="none" stroke="#FFFFFF" stroke-width="0.25" stroke-miterlimit="10" x1="126" y1="72" x2="18" y2="72"/>
	
		<line display="inline" fill="none" stroke="#FFFFFF" stroke-width="0.25" stroke-miterlimit="10" x1="110.184" y1="33.816" x2="33.816" y2="110.184"/>
	
		<line display="inline" fill="none" stroke="#FFFFFF" stroke-width="0.25" stroke-miterlimit="10" x1="110.184" y1="110.184" x2="33.816" y2="33.816"/>
</g>
<g id="icon">
	<g>
		<path fill="#231F20" d="M75.875,104.217c-1.006,0.142-2.033,0.239-3.053,0.287c-0.433,0.021-0.768,0.389-0.747,0.822
			c0.02,0.42,0.367,0.748,0.784,0.748c0.013,0,0.025,0,0.038-0.001c1.067-0.051,2.143-0.153,3.198-0.301
			c0.429-0.061,0.728-0.458,0.668-0.887C76.702,104.456,76.315,104.152,75.875,104.217z"/>
		<path fill="#231F20" d="M69.755,104.508c-1.018-0.045-2.046-0.139-3.053-0.278c-0.427-0.064-0.826,0.24-0.885,0.67
			c-0.059,0.429,0.241,0.826,0.671,0.885c1.056,0.146,2.132,0.244,3.198,0.291c0.012,0.001,0.024,0.001,0.036,0.001
			c0.418,0,0.765-0.329,0.784-0.75C70.524,104.895,70.189,104.527,69.755,104.508z"/>
		<path fill="#231F20" d="M81.838,102.803c-0.971,0.327-1.963,0.611-2.948,0.845c-0.423,0.1-0.683,0.523-0.583,0.945
			c0.085,0.361,0.407,0.604,0.763,0.604c0.06,0,0.121-0.007,0.182-0.021c1.033-0.245,2.072-0.542,3.088-0.885
			c0.411-0.138,0.632-0.583,0.493-0.995C82.694,102.887,82.253,102.662,81.838,102.803z"/>
		<path fill="#231F20" d="M50.038,96.957c-0.335-0.274-0.829-0.225-1.105,0.109c-0.275,0.336-0.227,0.83,0.109,1.106
			c0.825,0.676,1.691,1.323,2.575,1.921c0.135,0.091,0.288,0.135,0.439,0.135c0.252,0,0.499-0.121,0.651-0.345
			c0.243-0.359,0.149-0.847-0.21-1.09C51.653,98.221,50.826,97.603,50.038,96.957z"/>
		<path fill="#231F20" d="M63.685,103.674c-0.991-0.231-1.985-0.51-2.953-0.83c-0.414-0.137-0.856,0.087-0.992,0.498
			c-0.137,0.412,0.087,0.856,0.498,0.992c1.014,0.336,2.054,0.628,3.092,0.869c0.06,0.015,0.119,0.021,0.178,0.021
			c0.357,0,0.68-0.245,0.764-0.607C64.37,104.194,64.107,103.771,63.685,103.674z"/>
		<path fill="#231F20" d="M45.681,92.648c-0.278-0.334-0.774-0.375-1.107-0.097c-0.332,0.278-0.375,0.774-0.097,1.106
			c0.684,0.816,1.417,1.61,2.177,2.363c0.153,0.151,0.353,0.227,0.552,0.227c0.202,0,0.404-0.077,0.558-0.233
			c0.305-0.308,0.303-0.805-0.006-1.11C47.034,94.186,46.334,93.427,45.681,92.648z"/>
		<path fill="#231F20" d="M87.443,100.321c-0.404,0.224-0.814,0.442-1.232,0.651c-0.501,0.253-1.007,0.492-1.516,0.718
			c-0.396,0.176-0.575,0.64-0.4,1.036c0.13,0.293,0.417,0.467,0.719,0.467c0.106,0,0.214-0.021,0.318-0.068
			c0.532-0.236,1.062-0.486,1.586-0.75c0.436-0.22,0.864-0.447,1.287-0.682c0.379-0.21,0.516-0.688,0.305-1.067
			C88.3,100.246,87.823,100.108,87.443,100.321z"/>
		<path fill="#231F20" d="M57.868,101.748c-0.935-0.409-1.861-0.864-2.754-1.355c-0.38-0.209-0.857-0.071-1.066,0.309
			c-0.209,0.38-0.071,0.858,0.309,1.067c0.934,0.514,1.904,0.991,2.882,1.418c0.102,0.045,0.209,0.066,0.314,0.066
			c0.302,0,0.591-0.176,0.72-0.471C58.447,102.384,58.265,101.921,57.868,101.748z"/>
		<path fill="#231F20" d="M96.847,92.537c-0.651,0.782-1.347,1.544-2.07,2.264c-0.307,0.306-0.307,0.803-0.001,1.11
			c0.153,0.154,0.354,0.231,0.556,0.231c0.201,0,0.401-0.077,0.554-0.229c0.757-0.755,1.487-1.553,2.168-2.372
			c0.278-0.333,0.232-0.828-0.101-1.106C97.62,92.159,97.125,92.204,96.847,92.537z"/>
		<path fill="#231F20" d="M92.504,96.865c-0.782,0.647-1.607,1.268-2.452,1.845c-0.358,0.245-0.451,0.733-0.206,1.091
			c0.152,0.223,0.399,0.343,0.65,0.343c0.153,0,0.307-0.044,0.442-0.136c0.886-0.604,1.75-1.254,2.569-1.932
			c0.334-0.277,0.38-0.771,0.104-1.106C93.332,96.634,92.837,96.588,92.504,96.865z"/>
		<path fill="#231F20" d="M105.123,75.26c-0.431-0.071-0.827,0.235-0.889,0.664c-0.147,1.012-0.341,2.026-0.578,3.012
			c-0.101,0.422,0.159,0.846,0.58,0.947c0.061,0.015,0.124,0.021,0.184,0.021c0.354,0,0.676-0.242,0.763-0.602
			c0.248-1.033,0.451-2.094,0.604-3.153C105.85,75.72,105.553,75.322,105.123,75.26z"/>
		<path fill="#231F20" d="M101.383,87.183c-0.379-0.211-0.857-0.076-1.068,0.303c-0.495,0.886-1.039,1.763-1.618,2.606
			c-0.245,0.357-0.155,0.847,0.202,1.092c0.136,0.094,0.291,0.138,0.444,0.138c0.25,0,0.495-0.119,0.648-0.34
			c0.606-0.883,1.176-1.801,1.695-2.73C101.898,87.872,101.762,87.393,101.383,87.183z"/>
		<path fill="#231F20" d="M103.8,81.392c-0.411-0.139-0.856,0.082-0.996,0.492c-0.327,0.968-0.703,1.929-1.116,2.858
			c-0.176,0.396,0.002,0.86,0.399,1.037c0.104,0.046,0.212,0.068,0.318,0.068c0.301,0,0.588-0.173,0.719-0.466
			c0.432-0.972,0.826-1.979,1.169-2.991C104.431,81.977,104.211,81.531,103.8,81.392z"/>
		<path fill="#231F20" d="M105.369,70.832c-0.438,0-0.791,0.34-0.797,0.774c-0.006,0.422-0.019,0.845-0.041,1.266
			c-0.022,0.433,0.311,0.803,0.744,0.825c0.014,0.001,0.028,0.001,0.041,0.001c0.415,0,0.761-0.325,0.784-0.745
			c0.022-0.441,0.037-0.883,0.043-1.325C106.149,71.195,105.803,70.839,105.369,70.832z"/>
		<path fill="#231F20" d="M87.423,42.908l-1.873,2.578c-0.099,0.136-0.123,0.316-0.062,0.475c0.061,0.158,0.199,0.275,0.365,0.308
			l9.684,1.993c0.192,0.039,0.389-0.037,0.506-0.195l0.001-0.001c0.115-0.158,0.128-0.368,0.031-0.536l-4.83-8.675
			c-0.084-0.15-0.236-0.246-0.407-0.256c-0.171-0.011-0.335,0.067-0.435,0.205l-2.044,2.813
			c-13.753-6.892-30.458-3.971-41.079,7.341c-10.537,11.224-12.454,28.325-4.661,41.587c0.146,0.248,0.409,0.387,0.678,0.387
			c0.135,0,0.272-0.035,0.397-0.108c0.374-0.22,0.499-0.701,0.279-1.075c-7.442-12.664-5.611-28.997,4.452-39.716
			C58.51,39.294,74.335,36.474,87.423,42.908z"/>
		<path fill="#231F20" d="M90.775,73.374c0.01-0.17,0.077-1.361,0.077-1.998c0-0.57-0.06-1.388-0.089-1.782l-0.011-0.161
			c-0.037-0.582-0.548-1.103-1.011-1.299c-0.148-0.063-0.333-0.141-3.965-0.424c-0.35-1.266-0.868-2.47-1.547-3.59
			c2.158-2.532,2.224-2.699,2.28-2.842c0.189-0.464,0.182-1.194-0.202-1.63l-0.113-0.13c-0.262-0.303-0.79-0.915-1.191-1.316
			c-0.469-0.468-1.421-1.318-1.537-1.417c-0.119-0.088-0.547-0.375-1.092-0.375c-0.284,0-0.547,0.077-0.781,0.229
			c-0.252,0.164-1.19,0.938-2.793,2.305c-0.963-0.522-1.984-0.932-3.046-1.221c-0.126-1.605-0.282-3.435-0.361-3.808
			c-0.155-0.722-0.829-1.133-1.519-1.228c-0.17-0.01-1.361-0.077-1.998-0.077c-0.57,0-1.385,0.06-1.783,0.089l0.037,0.498h0
			l-0.195-0.487c-0.581,0.036-1.104,0.547-1.297,1.003c-0.063,0.146-0.143,0.326-0.43,4.009c-1.061,0.289-2.082,0.698-3.046,1.221
			c-1.602-1.366-2.54-2.141-2.793-2.305c-0.234-0.152-0.497-0.229-0.781-0.229c-0.545,0-0.973,0.287-1.148,0.421
			c-0.054,0.049-1.009,0.898-1.48,1.37c-0.404,0.404-0.94,1.025-1.229,1.359l-0.074,0.085c-0.386,0.438-0.394,1.167-0.206,1.627
			c0.059,0.148,0.124,0.315,2.282,2.847c-0.679,1.12-1.197,2.324-1.547,3.59c-3.639,0.284-3.82,0.362-3.967,0.424
			c-0.461,0.196-0.972,0.717-1.009,1.302l-0.012,0.16c-0.028,0.392-0.088,1.209-0.088,1.78c0,0.637,0.067,1.828,0.085,2.088
			c0.086,0.6,0.497,1.273,1.22,1.428c0.37,0.079,2.166,0.232,3.741,0.357c0.357,1.336,0.904,2.605,1.628,3.781
			c-2.204,2.583-2.272,2.753-2.332,2.903c-0.188,0.464-0.182,1.194,0.208,1.637l0.119,0.137c0.265,0.306,0.785,0.907,1.18,1.303
			c0.472,0.472,1.427,1.321,1.537,1.417c0.085,0.062,0.532,0.375,1.092,0.375c0.284,0,0.547-0.077,0.781-0.229
			c0.259-0.168,1.233-0.974,2.899-2.396c0.937,0.498,1.926,0.89,2.947,1.167c0.279,3.574,0.357,3.756,0.42,3.9
			c0.195,0.461,0.718,0.972,1.299,1.008l0.031-0.499v0l0.131,0.511c0.395,0.029,1.209,0.088,1.779,0.088
			c0.637,0,1.828-0.067,2.089-0.085c0.599-0.087,1.272-0.498,1.428-1.22c0.079-0.37,0.23-2.145,0.353-3.704
			c1.023-0.278,2.012-0.669,2.947-1.167c1.201,1.025,2.582,2.189,2.9,2.396c0.234,0.152,0.497,0.229,0.782,0.229
			c0.544,0,0.972-0.287,1.142-0.417c0.065-0.057,1.018-0.907,1.486-1.375c0.4-0.401,0.93-1.012,1.199-1.325l0.104-0.12
			c0.386-0.438,0.394-1.167,0.205-1.629c-0.061-0.152-0.129-0.322-2.333-2.906c0.724-1.176,1.271-2.445,1.628-3.781
			c1.575-0.125,3.369-0.277,3.741-0.357C90.271,74.737,90.682,74.063,90.775,73.374z M84.461,73.683l-0.132,0.602
			c-0.348,1.564-0.979,3.027-1.876,4.347l-0.356,0.526l0.413,0.483c1.563,1.824,2.31,2.738,2.437,2.953l-0.024,0.028
			c-0.234,0.271-0.735,0.851-1.095,1.21c-0.42,0.419-1.284,1.191-1.35,1.255c-0.014,0.009-0.037,0.021-0.058,0.031
			c-0.358-0.272-1.595-1.307-3.084-2.584l-0.452-0.386l-0.511,0.301c-1.118,0.656-2.327,1.134-3.593,1.42l-0.601,0.135l-0.046,0.613
			c-0.153,1.983-0.293,3.555-0.354,3.989c-0.007,0.004-0.009,0.007-0.001,0.008c-0.161,0.009-1.311,0.074-1.902,0.074
			c-0.524,0-1.292-0.057-1.66-0.084L70.186,88.6c-0.049-0.346-0.171-1.573-0.354-3.983l-0.047-0.614l-0.601-0.134
			c-1.266-0.286-2.475-0.764-3.592-1.42l-0.512-0.301l-0.452,0.386c-1.52,1.302-2.734,2.319-3.086,2.585
			c-0.009-0.003-0.016-0.004-0.008,0.004c-0.116-0.103-0.979-0.873-1.396-1.291c-0.363-0.364-0.854-0.931-1.136-1.258
			c0.22-0.293,1.03-1.276,2.45-2.934l0.416-0.483L61.51,78.63c-0.896-1.319-1.527-2.782-1.875-4.345l-0.132-0.603l-0.617-0.048
			c-1.996-0.153-3.58-0.294-4.024-0.355c-0.007-0.016-0.012-0.032-0.014-0.044c-0.015-0.262-0.072-1.306-0.072-1.86
			c0-0.522,0.057-1.289,0.085-1.658l0.002-0.034c0.395-0.057,1.849-0.193,4.048-0.36l0.61-0.046l0.137-0.596
			c0.345-1.497,0.951-2.9,1.802-4.171l0.35-0.524l-0.41-0.479c-1.623-1.897-2.268-2.695-2.381-2.889l0.005-0.005
			c0.241-0.28,0.745-0.863,1.114-1.233c0.419-0.419,1.281-1.188,1.344-1.251c0.018-0.012,0.042-0.024,0.063-0.035
			c0.261,0.199,1.095,0.881,2.981,2.495l0.455,0.391l0.514-0.308c1.142-0.683,2.38-1.179,3.682-1.474l0.598-0.136l0.05-0.613
			c0.195-2.578,0.322-3.834,0.388-4.089l0.006,0c0.368-0.027,1.136-0.084,1.66-0.084c0.591,0,1.739,0.065,1.831,0.065
			c0.024,0.005,0.05,0.013,0.072,0.021c0.057,0.41,0.189,1.851,0.36,4.087l0.047,0.613l0.6,0.136
			c1.302,0.294,2.541,0.791,3.683,1.473l0.514,0.309l0.455-0.39c1.889-1.617,2.723-2.298,2.982-2.496
			c0.014,0.005,0.023,0.009,0.025,0.009c0,0,0,0,0,0c0.168,0.15,0.979,0.875,1.38,1.277c0.369,0.37,0.887,0.969,1.119,1.239
			l0.017,0.019c-0.188,0.249-0.846,1.06-2.396,2.871l-0.411,0.48l0.352,0.524c0.851,1.272,1.456,2.675,1.801,4.171l0.137,0.596
			l0.61,0.046c2.279,0.174,3.758,0.313,4.05,0.386v0.009c0.028,0.369,0.085,1.135,0.085,1.657c0,0.554-0.058,1.599-0.064,1.828
			c-0.006,0.025-0.014,0.053-0.022,0.076c-0.443,0.062-2.027,0.202-4.024,0.355L84.461,73.683z"/>
		<path fill="#231F20" d="M71.982,66.788c-2.588,0-4.693,2.105-4.693,4.693s2.105,4.693,4.693,4.693
			c2.587,0,4.692-2.105,4.692-4.693S74.569,66.788,71.982,66.788z M71.982,74.675c-1.762,0-3.195-1.433-3.195-3.195
			s1.434-3.195,3.195-3.195s3.194,1.433,3.194,3.195S73.744,74.675,71.982,74.675z"/>
	</g>
</g>
</svg>
