<?xml version="1.0" encoding="utf-8"?>
<!-- Generator: Adobe Illustrator 17.1.0, SVG Export Plug-In . SVG Version: 6.00 Build 0)  -->
<!DOCTYPE svg PUBLIC "-//W3C//DTD SVG 1.1//EN" "http://www.w3.org/Graphics/SVG/1.1/DTD/svg11.dtd">
<svg version="1.1" id="Layer_1" xmlns="http://www.w3.org/2000/svg" xmlns:xlink="http://www.w3.org/1999/xlink" x="0px" y="0px"
	 viewBox="0 0 216 216" enable-background="new 0 0 216 216" xml:space="preserve">
<g>
	<path fill="#FFFFFF" d="M120.666,96.084c0.738,0,1.471-0.193,2.115-0.561c0.998-0.565,1.715-1.485,2.02-2.59
		c0.305-1.105,0.16-2.263-0.406-3.259c-0.76-1.34-2.19-2.173-3.734-2.173c-0.737,0-1.469,0.193-2.115,0.56
		c-2.057,1.168-2.779,3.793-1.613,5.852C117.693,95.252,119.123,96.084,120.666,96.084z M119.286,89.366
		c0.42-0.238,0.896-0.364,1.374-0.364c1.004,0,1.937,0.541,2.432,1.413c0.367,0.648,0.461,1.401,0.263,2.119
		c-0.197,0.719-0.665,1.317-1.312,1.685c-0.421,0.239-0.896,0.365-1.376,0.365c-1.004,0-1.936-0.541-2.43-1.412
		C117.477,91.833,117.947,90.126,119.286,89.366z"/>
	<path fill="#FFFFFF" d="M102.939,102.868c-2.773,2.867-3.467,7.329-1.4,10.969c0.328,0.576,0.725,1.095,1.158,1.577l-5.357,9.111
		c-0.183,0.311-0.183,0.695-0.004,1.007c0.051,0.088,0.528,0.878,1.624,1.521c1.122,0.659,2.021,0.674,2.126,0.672
		c0.354,0,0.682-0.188,0.862-0.493l5.308-9.025c0.746,0.194,1.522,0.303,2.312,0.303c1.588,0,3.16-0.417,4.548-1.205
		c2.073-1.176,3.573-3.067,4.265-5.339l7.818,0.07l1.5,0.014l1.36,0.012h0.009c0.328,0,0.635-0.161,0.822-0.431
		c0.127-0.186,0.541-0.902,0.471-2.343c-0.064-1.29-0.285-1.848-0.378-2.027c-0.169-0.331-0.509-0.541-0.882-0.544l-1.402-0.013
		l-1.5-0.014l-7.809-0.07c-0.198-0.65-0.462-1.286-0.807-1.892c-1.636-2.882-4.713-4.673-8.03-4.673c-0.653,0-1.3,0.088-1.935,0.226
		l-6.075-10.555c-0.135-0.233-0.358-0.403-0.62-0.47c-0.201-0.051-1.051-0.207-2.402,0.561c-1.325,0.752-1.646,1.551-1.713,1.778
		c-0.077,0.262-0.045,0.544,0.092,0.781L102.939,102.868z M103.727,104.234l1.841,3.196c-0.419,0.999-0.458,2.137-0.053,3.191
		l-2.017,3.432c-0.237-0.302-0.46-0.617-0.652-0.957C101.189,110.181,101.652,106.638,103.727,104.234z M100.582,125.61
		c-0.174-0.06-0.382-0.148-0.609-0.281c-0.229-0.134-0.41-0.275-0.549-0.402l7.365-12.526c0.35,0.286,0.741,0.515,1.162,0.679
		L100.582,125.61z M113.376,116c-1.162,0.66-2.479,1.01-3.808,1.01c-0.514,0-1.018-0.067-1.512-0.167l2.066-3.514
		c0.525-0.077,1.035-0.247,1.5-0.512c0.42-0.238,0.777-0.551,1.088-0.902l4.096,0.036C116.179,113.665,114.98,115.089,113.376,116z
		 M128.304,108.71c0.024,0.178,0.046,0.401,0.06,0.677c0.014,0.274,0.001,0.496-0.021,0.668l-14.647-0.132
		c0.09-0.447,0.124-0.9,0.071-1.344L128.304,108.71z M109.554,101.556c2.778,0,5.356,1.5,6.727,3.913
		c0.209,0.367,0.376,0.749,0.521,1.138l-3.826-0.034c-0.652-0.898-1.627-1.504-2.714-1.7l-1.854-3.221
		C108.787,101.594,109.168,101.556,109.554,101.556z M109.502,106.296c1.004,0,1.936,0.542,2.43,1.413
		c0.369,0.648,0.462,1.401,0.264,2.119c-0.197,0.719-0.664,1.317-1.312,1.685c-0.421,0.239-0.896,0.365-1.377,0.365
		c-1.004,0-1.934-0.541-2.429-1.412c-0.761-1.339-0.288-3.046,1.05-3.806C108.547,106.422,109.021,106.296,109.502,106.296z
		 M99.51,91.557c0.256-0.146,0.463-0.231,0.617-0.281l7.932,13.78c-0.23,0.083-0.457,0.178-0.672,0.3
		c-0.184,0.104-0.341,0.231-0.502,0.356l-7.927-13.771C99.081,91.832,99.26,91.699,99.51,91.557z"/>
	<path fill="#FFFFFF" d="M136.541,74.95l-9.194-4.5c-0.138-0.066-0.287-0.102-0.44-0.102h-37.75c-0.135,0-0.268,0.027-0.391,0.08
		l-10.584,4.5c-0.608,0.201-0.608,1.343-0.608,1.435V87.82h-0.056c-0.957,0-1.736,0.779-1.736,1.736v2.777
		c0,0.957,0.779,1.736,1.736,1.736h0.056v30.343h-0.056c-0.957,0-1.736,0.779-1.736,1.736v2.777c0,0.957,0.779,1.736,1.736,1.736
		h0.056v12.068c0,0.553,0.447,1,1,1h57.528c0.553,0,1-0.447,1-1V76.363C137.102,76.271,137.115,75.255,136.541,74.95z
		 M89.359,72.349h37.316l6.159,3.015H82.27L89.359,72.349z M77.573,92.57h-0.056c-0.13,0-0.236-0.106-0.236-0.236v-2.777
		c0-0.13,0.106-0.236,0.236-0.236h0.056h2h3.222c0.131,0,0.236,0.106,0.236,0.236v2.777c0,0.13-0.106,0.236-0.236,0.236h-3.222
		H77.573z M77.573,129.163h-0.056c-0.13,0-0.236-0.107-0.236-0.236v-2.777c0-0.13,0.106-0.236,0.236-0.236h0.056h2h3.222
		c0.131,0,0.236,0.106,0.236,0.236v2.777c0,0.13-0.106,0.236-0.236,0.236h-3.222H77.573z M135.102,141.731H79.573v-11.068h0.722h2.5
		c0.957,0,1.736-0.779,1.736-1.736v-2.777c0-0.957-0.779-1.736-1.736-1.736h-2.5h-0.722V94.07h0.722h2.5
		c0.957,0,1.736-0.779,1.736-1.736v-2.777c0-0.957-0.779-1.736-1.736-1.736h-2.5h-0.722V77.363h55.528V141.731z"/>
</g>
</svg>
