<svg data-name="Layer 1" xmlns="http://www.w3.org/2000/svg" viewBox="0 0 22.63 74.4"><title>Icon_RH_Objects_Surfboard_RGB_Black</title><path d="M22.54 34.86c-.06-1.61-.12-3.27-.22-4.94a60.87 60.87 0 0 0-4.01-18.79A38.38 38.38 0 0 0 12.69.84 1.83 1.83 0 0 0 11.31 0a1.77 1.77 0 0 0-1.33.89C4.31 8.79 1.05 18.44.31 29.58A93 93 0 0 0 .2 42.05c.24 3.82.54 7 .92 9.87A84.9 84.9 0 0 0 4 64.73a21.36 21.36 0 0 0 2 5.19 5.68 5.68 0 0 0 .62.83 9.65 9.65 0 0 0 .36 2.92 1 1 0 0 0 .86.72h.1a1 1 0 0 0 .88-.53c.27-.52.57-1 .87-1.51h2.95a4.45 4.45 0 0 0 3.55-1.87 8.79 8.79 0 0 0 1.21-2.17c.7-2.05 1.44-4.26 2.05-6.5a84.66 84.66 0 0 0 2.86-17.72c.08-1.56.14-3.12.21-4.73l.09-2.37zm-2 4.43c-.06 1.61-.12 3.15-.21 4.7a82.67 82.67 0 0 1-2.83 17.32c-.59 2.18-1.32 4.35-2 6.38a7.11 7.11 0 0 1-.95 1.67 2.45 2.45 0 0 1-2 1h-1.52c.67-.9 1.26-1.52 1.58-1.59a1.018 1.018 0 0 0-.38-2c-1.12.22-2.37 1.66-3.4 3.17l-.12-.09a16.08 16.08 0 0 1 2.6-6.57 1 1 0 0 0-1.61-1.19 18.56 18.56 0 0 0-2.65 5.58 27.8 27.8 0 0 1-1.18-3.47 82.9 82.9 0 0 1-2.81-12.5c-.38-2.87-.67-6-.91-9.74a91.18 91.18 0 0 1 .11-12.2C3.01 19.1 6.05 9.9 11.31 2.37a37.18 37.18 0 0 1 5.09 9.49 58.91 58.91 0 0 1 3.91 18.17c.1 1.65.16 3.3.22 4.9l.08 2.06zm-8.37-30a.5.5 0 0 0-.22.67c.08.16 7.89 16.21 3.42 44a.5.5 0 0 0 .42.57h.08a.5.5 0 0 0 .49-.42c4.52-28.17-3.44-44.48-3.52-44.64a.5.5 0 0 0-.68-.18z"/></svg>