<?xml version="1.0" encoding="utf-8"?>
<!-- Generator: Adobe Illustrator 17.1.0, SVG Export Plug-In . SVG Version: 6.00 Build 0)  -->
<!DOCTYPE svg PUBLIC "-//W3C//DTD SVG 1.1//EN" "http://www.w3.org/Graphics/SVG/1.1/DTD/svg11.dtd">
<svg version="1.1" id="Layer_1" xmlns="http://www.w3.org/2000/svg" xmlns:xlink="http://www.w3.org/1999/xlink" x="0px" y="0px"
	 viewBox="0 0 144 144" enable-background="new 0 0 144 144" xml:space="preserve">
<g>
	<g>
		<g>
			<path fill="#FFFFFF" d="M76.654,41.926v-1.056c0-1.481-2.531-1.791-4.654-1.791s-4.654,0.31-4.654,1.791v1.056
				c-4.325,0.796-6.861,2.65-6.861,4.402v54.789c0,3.434,8.053,3.803,11.515,3.803c3.463,0,11.517-0.369,11.517-3.803V46.329
				C83.516,44.577,80.979,42.722,76.654,41.926z M62.484,101.117V46.332c0.043-0.485,1.597-1.717,4.861-2.375v0.093
				c-1.149,0.326-2.054,0.851-2.054,1.703c0,2.125,5.588,2.233,6.708,2.233s6.708-0.108,6.708-2.233
				c0-0.853-0.904-1.377-2.054-1.703v-0.093c3.265,0.658,4.818,1.889,4.861,2.372l0.002,54.775
				c-0.141,0.486-2.658,1.816-9.519,1.816C65.14,102.92,62.623,101.59,62.484,101.117z M72,40.58c1.974,0,2.885,0.3,3.154,0.459
				v2.974C74.885,44.171,73.974,44.47,72,44.47s-2.885-0.299-3.154-0.458v-2.974C69.115,40.879,70.026,40.58,72,40.58z
				 M68.219,45.375c0.925,0.47,2.434,0.596,3.781,0.596s2.856-0.126,3.781-0.596c0.553,0.121,0.961,0.257,1.211,0.378
				c-0.653,0.316-2.378,0.733-4.992,0.733s-4.339-0.416-4.992-0.733C67.258,45.631,67.666,45.496,68.219,45.375z"/>
			<path fill="#FFFFFF" d="M70.463,42.134c0.293,0.021,0.598,0.038,0.911,0.047c0.189,0.005,0.379,0.008,0.566,0.008
				c0.626,0,1.231-0.029,1.777-0.088c0.274-0.029,0.474-0.275,0.444-0.55c-0.029-0.274-0.283-0.475-0.55-0.444
				c-0.666,0.071-1.43,0.095-2.21,0.074c-0.297-0.009-0.586-0.023-0.865-0.045c-0.264-0.022-0.515,0.187-0.536,0.462
				C69.98,41.874,70.188,42.113,70.463,42.134z"/>
			<path fill="#FFFFFF" d="M71,58.395v2.188c0,0.553,0.447,1,1,1s1-0.447,1-1v-2.188h2.188c0.553,0,1-0.447,1-1c0-0.553-0.447-1-1-1
				H73v-2.188c0-0.553-0.447-1-1-1s-1,0.447-1,1v2.188h-2.188c-0.553,0-1,0.447-1,1c0,0.553,0.447,1,1,1H71z"/>
			<path fill="#FFFFFF" d="M75.188,95.145c0-0.553-0.447-1-1-1h-4.375c-0.553,0-1,0.447-1,1c0,0.553,0.447,1,1,1h4.375
				C74.74,96.145,75.188,95.697,75.188,95.145z"/>
		</g>
	</g>
</g>
</svg>
