<svg id="ICON" xmlns="http://www.w3.org/2000/svg" viewBox="0 0 108 108"><defs><style>.cls-1{fill:#fff;}</style></defs><title>Icon_RH_objects_link-broken_RGB_White</title><path class="cls-1" d="M32.77 40.92l-9 .63a.5.5 0 0 0-.11 1l7.22 2.12h.14a.5.5 0 0 0 .14-1l-4.55-1.33 7.39-.51a.5.5 0 0 0 .29-.87l-8.54-7.48 10.38 3.66a.5.5 0 0 0 .63-.65l-4.68-12.37 7.53 9.2a.5.5 0 0 0 .88-.25l1.09-8.34 1.77 5.76a.5.5 0 1 0 1-.29l-2.45-8a.5.5 0 0 0-1 .08l-1.24 9.48L30.9 21.1a.5.5 0 0 0-.85.5l5.43 14.24-11.81-4.17a.5.5 0 0 0-.5.85zm28.67 25l-1-2.7a1 1 0 0 0-.72-.62l-5-1.06a1 1 0 0 0-1.06.45l-8 12.83a8.83 8.83 0 1 1-15-9.35l8-12.83a1 1 0 0 0-.5-1.47l-4-1.45-1.62-2a1 1 0 0 0-.84-.37 1 1 0 0 0-.79.47l-8.14 13a17.92 17.92 0 0 0 30.39 19l8.13-13a1 1 0 0 0 .14-.93zm-9.92 12.81a15.92 15.92 0 1 1-27-16.87L31.91 50l.91 1.13a1 1 0 0 0 .43.31l3.06 1.12L29 64.38a10.83 10.83 0 1 0 18.31 11.47L55 63.61l3.76.8.66 1.73zm34.22-50a17.94 17.94 0 0 0-24.45-6.65L48 29.69a1 1 0 0 0-.5.74l-.36 2.87a1 1 0 0 0 .35.89l3.88 3.29a1 1 0 0 0 1.14.11l13.13-7.52a8.83 8.83 0 1 1 8.77 15.32L61.24 52.9a1 1 0 0 0-.24 1.54l2.81 3.15.48 2.53a1 1 0 0 0 1.48.68l13.33-7.62a18 18 0 0 0 6.64-24.46zm-7.65 22.71L66 58.36l-.27-1.42a1 1 0 0 0-.24-.48L63.31 54l12.07-6.9a10.83 10.83 0 1 0-10.76-18.77L52.09 35.5 49.16 33l.23-1.83 12.89-7.37a15.92 15.92 0 1 1 15.81 27.64zm-5.52 11.39l9-.63a.5.5 0 0 0 .11-1l-7.21-2.1a.5.5 0 1 0-.28 1l4.55 1.33-7.45.52a.5.5 0 0 0-.29.88l8.54 7.48-10.37-3.7a.5.5 0 0 0-.63.65l4.72 12.37-7.53-9.2a.49.49 0 0 0-.52-.16.5.5 0 0 0-.36.42L63.75 79 62 73.27a.5.5 0 1 0-1 .29l2.45 8a.51.51 0 0 0 .52.35.5.5 0 0 0 .45-.43L65.68 72l8.75 10.69a.5.5 0 0 0 .85-.49l-5.43-14.29 11.82 4.16a.5.5 0 0 0 .5-.85z"/></svg>