<svg id="Layer_1" data-name="Layer 1" xmlns="http://www.w3.org/2000/svg" viewBox="0 0 35.8 74.01"><defs><style>.cls-1{fill:#fff;}</style></defs><title>Icon_RH_Objects_Knot_RGB_White</title><path class="cls-1" d="M35.8 29.8a14.24 14.24 0 0 0-7.72-13 27.52 27.52 0 0 1 5.35-8.33 4.92 4.92 0 0 0-6.87-7 35.61 35.61 0 0 0-8.07 13.09h-.23a88.08 88.08 0 0 0-2.17-8.91 4.92 4.92 0 0 0-9.35 3.06 68.52 68.52 0 0 1 2 7.79C2.49 19.5.05 25.59.05 31.02a17.11 17.11 0 0 0 1.34 6.8 20.44 20.44 0 0 0-1.34 7.52c0 5.93 2.82 10.52 8 13a16.88 16.88 0 0 1-4.45 7 4.92 4.92 0 0 0 6.19 7.65 26.64 26.64 0 0 0 8-12.7 48.92 48.92 0 0 0 2.89 8.08 4.92 4.92 0 0 0 8.88-4.24 43 43 0 0 1-2.09-5.73c5.43-2.66 8.41-7.68 8.41-14.23a17.27 17.27 0 0 0-1.34-6.87 20.23 20.23 0 0 0 1.26-7.5zM27.9 2.83a2.91 2.91 0 0 1 4.87 2.77c-.88.25-1.94-.22-3.39-1a12.08 12.08 0 0 0-2.29-1c.45-.37.75-.66.81-.77zm-1.58 1.73a7.9 7.9 0 0 1 2.61 1 8 8 0 0 0 3.33 1.13 2.91 2.91 0 0 1-.28.34 23.44 23.44 0 0 0-1.82 2.12 6.14 6.14 0 0 1-3.23-.51 8.74 8.74 0 0 0-3.09-.63 34.83 34.83 0 0 1 2.53-3.45zm-3.34 4.77c.82-.6 2-.29 3.64.25a10.77 10.77 0 0 0 2.74.64 29.74 29.74 0 0 0-2 3.33 7.79 7.79 0 0 1-2.87-.54 9.12 9.12 0 0 0-3-.59 33 33 0 0 1 1.54-3.09zm-2.06 4.2c.78-.28 1.83 0 3.22.43a11.15 11.15 0 0 0 2.68.59c-.21.45-.42.91-.61 1.39a21 21 0 0 0-5.7-1.33c.18-.38.32-.73.46-1.09zm-4.74 1a21.62 21.62 0 0 0-5.65 1.1c-.23-1.16-.48-2.28-.74-3.33a10 10 0 0 0 2.93.5c1.57.11 2.69.24 3.29.9zM10.49 4.32a2.92 2.92 0 0 1 3.68 1.87s.13.4.32 1.08a15.38 15.38 0 0 0-2-.29C10.63 6.8 9.4 6.6 8.88 5.63a2.89 2.89 0 0 1 1.61-1.31zM8.62 8.01a2.9 2.9 0 0 1-.12-1.24c.95.92 2.49 1.08 3.9 1.21a10.15 10.15 0 0 1 2.4.42c.28 1 .62 2.38 1 3.92a9.68 9.68 0 0 0-2.92-.5c-1.58-.11-2.71-.24-3.35-.87-.36-1.17-.63-2.19-.91-2.94zm5 18.59c1.7 1.36 2.71 2.27 2 3.72a21.34 21.34 0 0 1-2 3.14 8.68 8.68 0 0 0-1.72-2.73 6.49 6.49 0 0 1-1.6-2.72l.12-.22a4.5 4.5 0 0 1 1.87-2.19c.42.28.87.65 1.31 1zm-.35-1.59a11.87 11.87 0 0 1 3.78-.68v1.79a14.81 14.81 0 0 1-.54 2 8.49 8.49 0 0 0-2.28-2.34c-.33-.22-.66-.48-.96-.77zm-2.16 6.32c1.08 1.36 1.78 2.35 1.5 3.33l-.46.57c-.73.89-1.41 1.74-2 2.63a10.89 10.89 0 0 0-1.59-2.29c-1.07-1.29-1.78-2.23-1.61-3.17l.71-.87.69-.82c.47-.55.89-1.07 1.28-1.62a11.3 11.3 0 0 0 1.48 2.26zm-3.35 4.88a6.27 6.27 0 0 1 1.66 2.8 11.61 11.61 0 0 0-1.28 3.34 11.13 11.13 0 0 0-2.24-1.51c-1.45-.79-2.46-1.4-2.66-2.32a20.45 20.45 0 0 1 2.83-5 8.79 8.79 0 0 0 1.69 2.71zM5.38 41.7a6.47 6.47 0 0 1 2.52 1.95 15.09 15.09 0 0 0-.09 1.62 7.89 7.89 0 0 0 .31 1.84 11.92 11.92 0 0 0-2.54-.46c-2-.21-3.25-.42-3.6-1.67a18.89 18.89 0 0 1 .75-5.14 8.58 8.58 0 0 0 2.65 1.88zm-3.31 5a7.48 7.48 0 0 0 3.43.91 6.7 6.7 0 0 1 3.06.77 9.75 9.75 0 0 1 .53 2.68c-.38.2-.76.41-1.12.62-1.77 1-3 1.61-4 .68a12 12 0 0 1-1.9-5.63zm3.09 7.13a7.5 7.5 0 0 0 3.3-1.29l.6-.34a21.37 21.37 0 0 1-.55 4.11 12.41 12.41 0 0 1-3.34-2.45zm11.63 1.18v.09a25.33 25.33 0 0 1-8.32 16.25 3 3 0 0 1-4.1-.45 2.93 2.93 0 0 1 .44-4.1c.26-.22 6.33-5.41 6.33-15.53a12.12 12.12 0 0 0-.9-4.2 8.79 8.79 0 0 1-.38-1.83 10.19 10.19 0 0 1 1.84-6.13c2.08 2.39 4.42 5.11 5.09 9.61v.06zM13.1 37.72l-.2-.23.79-1a26.33 26.33 0 0 0 4.28-6.48 23.8 23.8 0 0 0 4.65 7.18l.31.37-.19.21c-.19.21-.39.43-.6.69a25.67 25.67 0 0 0-4.31 6.5 23.47 23.47 0 0 0-4.73-7.24zm14.11-2.14a11.8 11.8 0 0 0-1.54 2.11c-.47-.61-1-1.21-1.52-1.85l-.78-.92c-.49-1.06.24-2.1 1.42-3.58a11.58 11.58 0 0 0 1.48-2.2 16.1 16.1 0 0 0 1.63 2.16l.66.75.25.29c.24.98-.49 1.93-1.6 3.24zm2.56-2.11a19.62 19.62 0 0 1 2.63 4.06 1 1 0 0 0 .18.41l.13.31c-.06 1.08-1.1 1.73-2.68 2.59a11.45 11.45 0 0 0-2.23 1.47 9.35 9.35 0 0 0-1.45-3.65 7.87 7.87 0 0 1 1.62-2.42 8.37 8.37 0 0 0 1.8-2.77zM24 30.73a8.31 8.31 0 0 0-1.71 2.84 18.18 18.18 0 0 1-2-3.29c-.68-1.43.32-2.33 2-3.68a17.06 17.06 0 0 0 1.44-1.25 3.93 3.93 0 0 1 1.8 2.34v.08A6.07 6.07 0 0 1 24 30.73zm-2.33-4.91a9 9 0 0 0-2.21 2.19 15.27 15.27 0 0 1-.41-1.88v-1.81a12.27 12.27 0 0 1 3.72.57c-.35.32-.73.63-1.11.93zm6 39.11a2.92 2.92 0 0 1-5.27 2.52 46.47 46.47 0 0 1-3.63-12.06v-6.81c.79-4 3-6.59 4.89-8.9.19-.23.36-.41.53-.6a7.8 7.8 0 0 1 1.76 5.06 6.81 6.81 0 0 1-.6 3.16 9.34 9.34 0 0 0-1 4.44c-.03 5.99 3.19 12.9 3.33 13.19zm-.77-8.57a22.59 22.59 0 0 1-.55-4.1l.69.39a8 8 0 0 0 3.13 1.28 13 13 0 0 1-3.27 2.43zm4.31-3.66c-1 .57-2.08 0-3.67-.92-.39-.22-.78-.44-1.18-.64a7.26 7.26 0 0 1 .4-2c.49-1 1.73-1.27 3.63-1.46a8.36 8.36 0 0 0 3.19-.76 13.23 13.23 0 0 1-2.37 5.78zm2.56-7.41c-.47 1-1.69 1.16-3.48 1.35a11 11 0 0 0-2.72.52 9.77 9.77 0 0 0 .4-3v-.41a6.22 6.22 0 0 1 2.57-2 8.15 8.15 0 0 0 2.71-2 16 16 0 0 1 .58 4.38c-.03.38-.04.78-.07 1.16zm-.59-10.53a33.52 33.52 0 0 0-3.06-4l-.69-.75a9.45 9.45 0 0 1-2-2.94c-1.47-4.72-7-4.73-9.33-4.73h-.05c-3.25 0-7.72.5-9.42 4.56a12.07 12.07 0 0 1-1.83 2.56l-.71.85a34.34 34.34 0 0 0-3.52 4.89 15.83 15.83 0 0 1-.56-4.22c0-10.69 8.67-14.48 16.09-14.48 9.4 0 15.71 5.36 15.71 13.33a19.12 19.12 0 0 1-.64 4.93z"/></svg>