<?xml version="1.0" encoding="utf-8"?>
<!-- Generator: Adobe Illustrator 17.1.0, SVG Export Plug-In . SVG Version: 6.00 Build 0)  -->
<!DOCTYPE svg PUBLIC "-//W3C//DTD SVG 1.1//EN" "http://www.w3.org/Graphics/SVG/1.1/DTD/svg11.dtd">
<svg version="1.1" id="Layer_1" xmlns="http://www.w3.org/2000/svg" xmlns:xlink="http://www.w3.org/1999/xlink" x="0px" y="0px"
	 viewBox="0 0 104.4 104.4" enable-background="new 0 0 104.4 104.4" xml:space="preserve">
<path fill="#FFFFFF" d="M71.881,19.185H32.738c-2.68,0-4.859,2.181-4.859,4.862v56.05c0,2.68,2.18,4.86,4.859,4.86h39.143
	c2.681,0,4.861-2.181,4.861-4.86v-56.05C76.742,21.367,74.562,19.185,71.881,19.185z M74.742,80.098c0,1.577-1.283,2.86-2.861,2.86
	H32.738c-1.577,0-2.859-1.283-2.859-2.86v-56.05c0-1.578,1.282-2.862,2.859-2.862h39.143c1.578,0,2.861,1.284,2.861,2.862V80.098z"
	/>
<path fill="#FFFFFF" d="M68.662,26.722c0.602,0,1.092,0.514,1.092,1.146v10.602c0,0.632-0.49,1.146-1.092,1.146H35.957
	c-0.602,0-1.092-0.514-1.092-1.146V27.867c0-0.632,0.49-1.146,1.092-1.146H68.662 M68.662,25.222H35.957
	c-1.429,0-2.592,1.187-2.592,2.646v10.602c0,1.459,1.163,2.646,2.592,2.646h32.705c1.429,0,2.592-1.187,2.592-2.646V27.867
	C71.254,26.409,70.091,25.222,68.662,25.222L68.662,25.222z"/>
<path fill="#FFFFFF" d="M39.438,44.295h-4.322c-0.766,0-1.389,0.627-1.389,1.398v2.532c0,0.77,0.623,1.397,1.389,1.397h4.322
	c0.766,0,1.388-0.627,1.388-1.397v-2.532C40.826,44.922,40.204,44.295,39.438,44.295z M39.832,48.225
	c0,0.223-0.177,0.403-0.393,0.403h-4.322c-0.218,0-0.395-0.181-0.395-0.403v-2.532c0-0.223,0.177-0.403,0.395-0.403h4.322
	c0.217,0,0.393,0.181,0.393,0.403V48.225z"/>
<path fill="#FFFFFF" d="M69.488,44.295h-4.321c-0.767,0-1.39,0.627-1.39,1.398v2.532c0,0.77,0.623,1.397,1.39,1.397h4.321
	c0.766,0,1.388-0.627,1.388-1.397v-2.532C70.876,44.922,70.254,44.295,69.488,44.295z M69.882,48.225
	c0,0.223-0.177,0.403-0.393,0.403h-4.321c-0.218,0-0.396-0.181-0.396-0.403v-2.532c0-0.223,0.178-0.403,0.396-0.403h4.321
	c0.217,0,0.393,0.181,0.393,0.403V48.225z"/>
<path fill="#FFFFFF" d="M59.472,44.295h-4.322c-0.766,0-1.389,0.627-1.389,1.398v2.532c0,0.77,0.623,1.397,1.389,1.397h4.322
	c0.766,0,1.388-0.627,1.388-1.397v-2.532C60.859,44.922,60.237,44.295,59.472,44.295z M59.865,48.225
	c0,0.223-0.177,0.403-0.393,0.403h-4.322c-0.218,0-0.395-0.181-0.395-0.403v-2.532c0-0.223,0.177-0.403,0.395-0.403h4.322
	c0.217,0,0.393,0.181,0.393,0.403V48.225z"/>
<path fill="#FFFFFF" d="M49.455,44.295h-4.321c-0.767,0-1.39,0.627-1.39,1.398v2.532c0,0.77,0.623,1.397,1.39,1.397h4.321
	c0.766,0,1.388-0.627,1.388-1.397v-2.532C50.843,44.922,50.221,44.295,49.455,44.295z M49.849,48.225
	c0,0.223-0.177,0.403-0.393,0.403h-4.321c-0.218,0-0.396-0.181-0.396-0.403v-2.532c0-0.223,0.178-0.403,0.396-0.403h4.321
	c0.217,0,0.393,0.181,0.393,0.403V48.225z"/>
<path fill="#FFFFFF" d="M39.438,51.701h-4.322c-0.766,0-1.389,0.627-1.389,1.397v2.532c0,0.771,0.623,1.397,1.389,1.397h4.322
	c0.766,0,1.388-0.627,1.388-1.397v-2.532C40.826,52.328,40.204,51.701,39.438,51.701z M39.832,55.631
	c0,0.223-0.177,0.403-0.393,0.403h-4.322c-0.218,0-0.395-0.181-0.395-0.403v-2.532c0-0.223,0.177-0.403,0.395-0.403h4.322
	c0.217,0,0.393,0.181,0.393,0.403V55.631z"/>
<path fill="#FFFFFF" d="M69.488,51.701h-4.321c-0.767,0-1.39,0.627-1.39,1.397v2.532c0,0.771,0.623,1.397,1.39,1.397h4.321
	c0.766,0,1.388-0.627,1.388-1.397v-2.532C70.876,52.328,70.254,51.701,69.488,51.701z M69.882,55.631
	c0,0.223-0.177,0.403-0.393,0.403h-4.321c-0.218,0-0.396-0.181-0.396-0.403v-2.532c0-0.223,0.178-0.403,0.396-0.403h4.321
	c0.217,0,0.393,0.181,0.393,0.403V55.631z"/>
<path fill="#FFFFFF" d="M59.472,51.701h-4.322c-0.766,0-1.389,0.627-1.389,1.397v2.532c0,0.771,0.623,1.397,1.389,1.397h4.322
	c0.766,0,1.388-0.627,1.388-1.397v-2.532C60.859,52.328,60.237,51.701,59.472,51.701z M59.865,55.631
	c0,0.223-0.177,0.403-0.393,0.403h-4.322c-0.218,0-0.395-0.181-0.395-0.403v-2.532c0-0.223,0.177-0.403,0.395-0.403h4.322
	c0.217,0,0.393,0.181,0.393,0.403V55.631z"/>
<path fill="#FFFFFF" d="M49.455,51.701h-4.321c-0.767,0-1.39,0.627-1.39,1.397v2.532c0,0.771,0.623,1.397,1.39,1.397h4.321
	c0.766,0,1.388-0.627,1.388-1.397v-2.532C50.843,52.328,50.221,51.701,49.455,51.701z M49.849,55.631
	c0,0.223-0.177,0.403-0.393,0.403h-4.321c-0.218,0-0.396-0.181-0.396-0.403v-2.532c0-0.223,0.178-0.403,0.396-0.403h4.321
	c0.217,0,0.393,0.181,0.393,0.403V55.631z"/>
<path fill="#FFFFFF" d="M39.438,59.107h-4.322c-0.766,0-1.389,0.627-1.389,1.398v2.532c0,0.77,0.623,1.397,1.389,1.397h4.322
	c0.766,0,1.388-0.627,1.388-1.397v-2.532C40.826,59.734,40.204,59.107,39.438,59.107z M39.832,63.037
	c0,0.223-0.177,0.403-0.393,0.403h-4.322c-0.218,0-0.395-0.181-0.395-0.403v-2.532c0-0.223,0.177-0.403,0.395-0.403h4.322
	c0.217,0,0.393,0.181,0.393,0.403V63.037z"/>
<path fill="#FFFFFF" d="M69.488,59.107h-4.321c-0.767,0-1.39,0.627-1.39,1.398v2.532c0,0.77,0.623,1.397,1.39,1.397h4.321
	c0.766,0,1.388-0.627,1.388-1.397v-2.532C70.876,59.734,70.254,59.107,69.488,59.107z M69.882,63.037
	c0,0.223-0.177,0.403-0.393,0.403h-4.321c-0.218,0-0.396-0.181-0.396-0.403v-2.532c0-0.223,0.178-0.403,0.396-0.403h4.321
	c0.217,0,0.393,0.181,0.393,0.403V63.037z"/>
<path fill="#FFFFFF" d="M59.472,59.107h-4.322c-0.766,0-1.389,0.627-1.389,1.398v2.532c0,0.77,0.623,1.397,1.389,1.397h4.322
	c0.766,0,1.388-0.627,1.388-1.397v-2.532C60.859,59.734,60.237,59.107,59.472,59.107z M59.865,63.037
	c0,0.223-0.177,0.403-0.393,0.403h-4.322c-0.218,0-0.395-0.181-0.395-0.403v-2.532c0-0.223,0.177-0.403,0.395-0.403h4.322
	c0.217,0,0.393,0.181,0.393,0.403V63.037z"/>
<path fill="#FFFFFF" d="M49.455,59.107h-4.321c-0.767,0-1.39,0.627-1.39,1.398v2.532c0,0.77,0.623,1.397,1.39,1.397h4.321
	c0.766,0,1.388-0.627,1.388-1.397v-2.532C50.843,59.734,50.221,59.107,49.455,59.107z M49.849,63.037
	c0,0.223-0.177,0.403-0.393,0.403h-4.321c-0.218,0-0.396-0.181-0.396-0.403v-2.532c0-0.223,0.178-0.403,0.396-0.403h4.321
	c0.217,0,0.393,0.181,0.393,0.403V63.037z"/>
<path fill="#FFFFFF" d="M39.438,66.514h-4.322c-0.766,0-1.389,0.627-1.389,1.397v2.532c0,0.771,0.623,1.397,1.389,1.397h4.322
	c0.766,0,1.388-0.627,1.388-1.397v-2.532C40.826,67.141,40.204,66.514,39.438,66.514z M39.832,70.443
	c0,0.223-0.177,0.403-0.393,0.403h-4.322c-0.218,0-0.395-0.181-0.395-0.403v-2.532c0-0.223,0.177-0.403,0.395-0.403h4.322
	c0.217,0,0.393,0.181,0.393,0.403V70.443z"/>
<path fill="#FFFFFF" d="M59.472,66.514h-4.322c-0.766,0-1.389,0.627-1.389,1.397v2.532c0,0.771,0.623,1.397,1.389,1.397h4.322
	c0.766,0,1.388-0.627,1.388-1.397v-2.532C60.859,67.141,60.237,66.514,59.472,66.514z M59.865,70.443
	c0,0.223-0.177,0.403-0.393,0.403h-4.322c-0.218,0-0.395-0.181-0.395-0.403v-2.532c0-0.223,0.177-0.403,0.395-0.403h4.322
	c0.217,0,0.393,0.181,0.393,0.403V70.443z"/>
<path fill="#FFFFFF" d="M49.455,66.514h-4.321c-0.767,0-1.39,0.627-1.39,1.397v2.532c0,0.771,0.623,1.397,1.39,1.397h4.321
	c0.766,0,1.388-0.627,1.388-1.397v-2.532C50.843,67.141,50.221,66.514,49.455,66.514z M49.849,70.443
	c0,0.223-0.177,0.403-0.393,0.403h-4.321c-0.218,0-0.396-0.181-0.396-0.403v-2.532c0-0.223,0.178-0.403,0.396-0.403h4.321
	c0.217,0,0.393,0.181,0.393,0.403V70.443z"/>
<path fill="#FFFFFF" d="M39.438,73.92h-4.322c-0.766,0-1.389,0.627-1.389,1.398v2.532c0,0.77,0.623,1.397,1.389,1.397h4.322
	c0.766,0,1.388-0.627,1.388-1.397v-2.532C40.826,74.547,40.204,73.92,39.438,73.92z M39.832,77.85c0,0.223-0.177,0.403-0.393,0.403
	h-4.322c-0.218,0-0.395-0.181-0.395-0.403v-2.532c0-0.223,0.177-0.403,0.395-0.403h4.322c0.217,0,0.393,0.181,0.393,0.403V77.85z"/>
<path fill="#FFFFFF" d="M69.488,66.514h-4.321c-0.767,0-1.39,0.627-1.39,1.397v9.939c0,0.77,0.623,1.397,1.39,1.397h4.321
	c0.766,0,1.388-0.627,1.388-1.397v-9.939C70.876,67.141,70.254,66.514,69.488,66.514z M69.882,77.85
	c0,0.223-0.177,0.403-0.393,0.403h-4.321c-0.218,0-0.396-0.181-0.396-0.403v-9.939c0-0.223,0.178-0.403,0.396-0.403h4.321
	c0.217,0,0.393,0.181,0.393,0.403V77.85z"/>
<path fill="#FFFFFF" d="M59.472,73.92h-4.322c-0.766,0-1.389,0.627-1.389,1.398v2.532c0,0.77,0.623,1.397,1.389,1.397h4.322
	c0.766,0,1.388-0.627,1.388-1.397v-2.532C60.859,74.547,60.237,73.92,59.472,73.92z M59.865,77.85c0,0.223-0.177,0.403-0.393,0.403
	h-4.322c-0.218,0-0.395-0.181-0.395-0.403v-2.532c0-0.223,0.177-0.403,0.395-0.403h4.322c0.217,0,0.393,0.181,0.393,0.403V77.85z"/>
<path fill="#FFFFFF" d="M49.455,73.92h-4.321c-0.767,0-1.39,0.627-1.39,1.398v2.532c0,0.77,0.623,1.397,1.39,1.397h4.321
	c0.766,0,1.388-0.627,1.388-1.397v-2.532C50.843,74.547,50.221,73.92,49.455,73.92z M49.849,77.85c0,0.223-0.177,0.403-0.393,0.403
	h-4.321c-0.218,0-0.396-0.181-0.396-0.403v-2.532c0-0.223,0.178-0.403,0.396-0.403h4.321c0.217,0,0.393,0.181,0.393,0.403V77.85z"/>
</svg>
