<?xml version="1.0" encoding="utf-8"?>
<!-- Generator: Adobe Illustrator 17.1.0, SVG Export Plug-In . SVG Version: 6.00 Build 0)  -->
<!DOCTYPE svg PUBLIC "-//W3C//DTD SVG 1.1//EN" "http://www.w3.org/Graphics/SVG/1.1/DTD/svg11.dtd">
<svg version="1.1" id="Layer_1" xmlns="http://www.w3.org/2000/svg" xmlns:xlink="http://www.w3.org/1999/xlink" x="0px" y="0px"
	 viewBox="0 0 104.4 104.398" enable-background="new 0 0 104.4 104.398" xml:space="preserve">
<g id="Layer_2">
</g>
<path fill="#FFFFFF" d="M90.242,19.19c-1.538-2.036-5.503-2.005-11.46,0.093c-7.788,2.743-8.522,5.302-9.167,7.561
	c-0.1,0.351-0.201,0.691-0.324,1.024l-2.09-2.278c-0.725-0.791-2.115-1.367-3.206-1.3L51.242,25.03
	c-1.022,0.059-2.362,0.626-3.118,1.318L14.302,57.361c-0.991,0.909-1.058,2.456-0.149,3.448l23.028,25.112
	c0.408,0.446,0.966,0.723,1.569,0.779c0.688,0.065,1.372-0.164,1.878-0.628L74.452,55.06c0.763-0.698,1.43-1.997,1.551-3.021
	l1.56-13.02c0.127-1.076-0.327-2.488-1.06-3.286l-0.458-0.499c4.428-1.312,9.269-3.588,12.05-7.525
	C90.847,23.813,91.569,20.946,90.242,19.19z M75.03,37.086c0.34,0.371,0.605,1.196,0.545,1.696l-1.559,13.02
	c-0.064,0.545-0.51,1.411-0.915,1.783L39.277,84.598c-0.123,0.113-0.265,0.118-0.339,0.111c-0.077-0.007-0.189-0.037-0.282-0.139
	L15.627,59.458c-0.161-0.176-0.149-0.461,0.027-0.622l33.821-31.013c0.412-0.377,1.326-0.764,1.883-0.796l12.752-0.74
	c0.06-0.003,0.122-0.001,0.187,0.004c0.502,0.047,1.144,0.339,1.431,0.651l6.951,7.58c-1.271,0.279-2.447,0.481-3.439,0.625
	c-0.49-1.381-1.873-2.344-3.431-2.188c-1.805,0.184-3.125,1.804-2.941,3.611c0.16,1.558,1.407,2.794,2.964,2.941
	c0.211,0.02,0.429,0.02,0.647-0.002c0.875-0.089,1.663-0.514,2.218-1.196c0.395-0.484,0.63-1.057,0.705-1.66
	c1.257-0.176,2.793-0.442,4.462-0.84L75.03,37.086z M66.07,36.981c0.035,0.003,0.071,0.004,0.108,0.002
	c0.118-0.005,0.716-0.039,1.643-0.136c-0.068,0.185-0.159,0.362-0.288,0.519c-0.302,0.372-0.73,0.602-1.207,0.651
	c-1.004,0.102-1.867-0.638-1.967-1.6c-0.1-0.984,0.619-1.865,1.603-1.966c0.118-0.013,0.237-0.013,0.354-0.002
	c0.591,0.055,1.094,0.403,1.376,0.894c-0.966,0.106-1.557,0.139-1.586,0.141c-0.414,0.02-0.732,0.371-0.713,0.785
	C65.411,36.649,65.705,36.947,66.07,36.981z M86.87,26.843c-2.674,3.785-7.597,5.926-11.979,7.132l-4.492-4.899
	c0.31-0.618,0.489-1.226,0.658-1.818c0.572-2.003,1.166-4.075,8.224-6.56c5.055-1.78,8.704-2.005,9.765-0.603
	C89.896,21.221,89.103,23.681,86.87,26.843z"/>
</svg>
