<svg data-name="Layer 1" xmlns="http://www.w3.org/2000/svg" viewBox="0 0 64.84 36.11"><title>Icon_RH_Objects_Mortarboard_RGB_Black</title><path d="M64.12 9.18L32.7.06a1 1 0 0 0-.56 0L.72 9.18a1 1 0 0 0-.05 1.9l14.75 5.24v9a1 1 0 0 0 .6.92l11.83 5.23a11.25 11.25 0 0 0 9.08 0l11.83-5.23a1 1 0 0 0 .6-.92v-9l4.93-1.75v5.2a2.14 2.14 0 0 0-1.64 2.07V35.62a.5.5 0 0 0 1 0V23.47h.58v12.15a.5.5 0 0 0 1 0V23.47h.58v12.15a.5.5 0 0 0 1 0V23.14a.49.49 0 0 0 0-.06c0-.2.05-1.22.05-1.23a2.14 2.14 0 0 0-1.64-2.07v-5.56l8.95-3.16a1 1 0 0 0-.05-1.9zm-16.7 15.45l-11.24 5a9.25 9.25 0 0 1-7.46 0l-11.3-5v-7.57l14.63 5.19a1 1 0 0 0 .67 0l14.7-5.19zm8.57-2.78v.63h-2.3v-.63a1.14 1.14 0 0 1 2.28 0zm-2.64-9l-18.38-2c-.31-.63-1.48-.87-2.52-.87-1.2 0-2.6.32-2.6 1.2s1.4 1.2 2.6 1.2a3.86 3.86 0 0 0 2.26-.56l16.47 1.79-18.76 6.61-28.16-10 28.16-8.16 28.16 8.19zm-19.6-1.73a4.18 4.18 0 0 1-1.32.18 4.07 4.07 0 0 1-1.39-.2 4.07 4.07 0 0 1 1.39-.2 4.15 4.15 0 0 1 1.32.22z"/></svg>