<?xml version="1.0" encoding="utf-8"?>
<!-- Generator: Adobe Illustrator 17.1.0, SVG Export Plug-In . SVG Version: 6.00 Build 0)  -->
<!DOCTYPE svg PUBLIC "-//W3C//DTD SVG 1.1//EN" "http://www.w3.org/Graphics/SVG/1.1/DTD/svg11.dtd">
<svg version="1.1" id="Layer_1" xmlns="http://www.w3.org/2000/svg" xmlns:xlink="http://www.w3.org/1999/xlink" x="0px" y="0px"
	 viewBox="0 0 216 216" enable-background="new 0 0 216 216" xml:space="preserve">
<g>
	<path d="M122.091,87.819c-7.554-1.596-11.101-2.151-12.676-2.334l-2.899,0.002c-1.709,0.205-17.785,3.453-17.785,3.453
		l-6.509,1.469l0.018,10.865v2.36l-0.018,9.539c0.042,1.103,0.426,6.46,3.594,12.212l1.031,1.719l1.007,1.457
		c1.069,1.441,2.34,2.861,3.852,4.203l1.588,1.305c0.288,0.221,0.597,0.434,0.901,0.648l1.797,1.18
		c3.206,1.936,7.148,3.52,12.028,4.469c6.946-0.982,12.012-3.408,15.717-6.422l1.402-1.219c2.027-1.785,4.006-4.828,4.006-4.828
		l1.031-1.734c3.313-5.432,3.602-12.914,3.602-12.914v-9.842v-2.48v-1.877V96.58l1.5-2.647v2.833l0.021,0.008
		c-0.006,0.01-0.015,0.021-0.021,0.031v16.45c-0.004,0.341-0.07,3.241-1.143,7.084h0.003l-0.006,0.009
		c-2.145,7.658-8.303,19.064-26.03,21.52c-0.033,0.006-0.066,0.008-0.101,0.008c-0.048,0-0.096-0.006-0.143-0.014
		c-25.477-4.885-27.044-26.24-27.137-28.66V89.811c0-0.35,0.241-0.652,0.582-0.73c16.491-3.799,22.82-4.819,25.125-5.088
		l1.589-0.006l1.487,0.004c1.695,0.194,5.412,0.771,13.393,2.466L122.091,87.819z"/>
	<path d="M108.002,73.172c0.127-0.016,0.264-0.02,0.414-0.02c0.518,0,1.624,0.08,3.95,0.445l-0.067-0.016
		c-2.279-0.35-3.37-0.431-3.88-0.431c-0.15,0-0.29,0.01-0.421,0.02c-0.119-0.01-0.26-0.02-0.409-0.02
		c-1.407,0-7.086,0.577-29.587,5.812c22.503-5.232,28.186-5.81,29.585-5.81C107.74,73.152,107.877,73.156,108.002,73.172z"/>
	<path d="M122.501,75.515c0.252,0.053,0.512,0.107,0.772,0.162C123.01,75.622,122.755,75.568,122.501,75.515z"/>
	<path d="M112.889,73.681c2.125,0.345,5.162,0.907,9.496,1.81C118.055,74.587,115.015,74.022,112.889,73.681z"/>
	<path d="M76.82,120.048c2.372,8.816,9.522,23.556,31.009,27.362c0.035,0.007,0.077,0.006,0.118,0.007
		c-0.04-0.002-0.081-0.003-0.119-0.011C86.346,143.602,79.193,128.864,76.82,120.048z"/>
	<path d="M76.42,79.331l-0.001,0c-0.45,0.1-0.77,0.509-0.77,0.97v0.001C75.651,79.839,75.969,79.436,76.42,79.331z"/>
	<path d="M131.053,76.641l-22.866,38.511c-0.451,0.75-1.17,0.802-1.73,0.142l-10.78-13.123c-0.705-0.828-1.719-1.305-2.781-1.305
		c-0.969,0-1.888,0.387-2.59,1.09l-2.052,2.051c-1.465,1.467-1.626,3.994-0.356,5.634l15.108,19.508
		c1.158,1.494,3.46,2.665,5.242,2.665c1.834,0,4.019-1.324,4.977-3.014l25.475-44.967l0,0l1.141-2.021
		c1.05-1.849,0.42-4.24-1.421-5.32l-2.039-1.199c-0.59-0.351-1.281-0.54-1.969-0.54C133.04,74.752,131.754,75.476,131.053,76.641z
		 M135.368,77.011l2.037,1.202c0.9,0.53,1.214,1.702,0.698,2.613l-26.619,46.988c-0.603,1.066-2.115,1.999-3.236,1.999
		c-1.17,0-2.881-0.883-3.661-1.891l-15.108-19.508c-0.663-0.855-0.577-2.227,0.19-2.994l2.052-2.051
		c0.324-0.324,0.742-0.504,1.176-0.504c0.481,0,0.928,0.213,1.258,0.602l10.779,13.121c0.649,0.764,1.49,1.184,2.373,1.184
		c1.042,0,1.988-0.579,2.596-1.59l22.866-38.51C133.278,76.82,134.504,76.502,135.368,77.011z"/>
	<path d="M138.418,76.49c1.841,1.08,2.471,3.471,1.421,5.32l-1.141,2.021l0,0l1.145-2.02c1.051-1.854,0.412-4.242-1.424-5.322
		l-2.038-1.202c-0.596-0.351-1.276-0.536-1.971-0.536c0,0,0,0-0.001,0c0.688,0,1.38,0.189,1.969,0.54L138.418,76.49z"/>
	<path d="M140.349,84.983v28.269c0,0.309-0.369,30.239-32.229,34.158c-0.041,0.01-0.08,0.01-0.121,0.01
		c-0.018,0-0.034-0.003-0.052-0.003c0.018,0.001,0.036,0.005,0.055,0.005c0.04,0,0.081-0.002,0.122-0.008
		c31.859-3.922,32.227-33.857,32.227-34.16L140.349,84.983L140.349,84.983z"/>
	<path d="M122.385,75.491c0.039,0.008,0.077,0.016,0.116,0.024C122.462,75.507,122.423,75.499,122.385,75.491z"/>
	<path d="M76.422,79.33C76.421,79.331,76.421,79.331,76.422,79.33c0.539-0.126,1.059-0.247,1.581-0.368
		C77.481,79.083,76.961,79.204,76.422,79.33z"/>
	<path d="M108.12,147.41c31.86-3.919,32.229-33.85,32.229-34.158V84.983l-1.999,3.529v24.742c0,0.285-0.346,28.375-30.323,32.158
		c-29.266-5.27-30.347-31.088-30.378-32.158V81.099c25.08-5.852,29.497-5.992,30.087-5.942c0.177,0.049,0.361,0.047,0.536-0.002
		c0.497-0.027,3.668,0.061,19.269,3.489l1.074-1.808l-0.005-0.004c-1.96-0.433-3.729-0.815-5.336-1.154
		c-0.26-0.055-0.52-0.109-0.772-0.162c-0.039-0.008-0.077-0.016-0.116-0.024c-4.334-0.903-7.371-1.465-9.496-1.81
		c-0.175-0.028-0.347-0.055-0.509-0.081l-0.013-0.003c-2.327-0.365-3.433-0.445-3.95-0.445c-0.15,0-0.287,0.004-0.414,0.02
		c-0.125-0.016-0.262-0.02-0.414-0.02c-1.4,0-7.082,0.578-29.585,5.81c-0.522,0.121-1.042,0.242-1.582,0.369
		c-0.451,0.105-0.77,0.508-0.771,0.971v32.979c0.003,0.089,0.115,2.843,1.17,6.767c2.373,8.816,9.526,23.554,31.007,27.358
		c0.038,0.008,0.079,0.009,0.119,0.011c0.018,0,0.034,0.003,0.052,0.003C108.04,147.42,108.079,147.42,108.12,147.41z"/>
	<path d="M128.614,76.835l0.002-0.004c-1.963-0.434-3.735-0.815-5.343-1.154c1.607,0.339,3.376,0.721,5.336,1.154L128.614,76.835z"
		/>
	<path d="M112.889,73.681c-0.181-0.029-0.355-0.057-0.522-0.084l0.013,0.003C112.542,73.625,112.714,73.652,112.889,73.681z"/>
	<path d="M75.649,80.302c0,0.001-0.001,0.002-0.001,0.003v32.976c0.002,0.088,0.115,2.842,1.171,6.767
		c-1.055-3.924-1.167-6.678-1.17-6.767V80.302z"/>
	<path d="M108.018,83.987l-1.589,0.006c-2.305,0.269-8.634,1.289-25.125,5.088c-0.341,0.078-0.582,0.38-0.582,0.73v23.391
		c0.093,2.42,1.66,23.775,27.137,28.66c0.047,0.008,0.095,0.014,0.143,0.014c0.034,0,0.067-0.002,0.101-0.008
		c17.728-2.455,23.886-13.861,26.03-21.52l0.006-0.009h-0.003c1.073-3.843,1.14-6.743,1.143-7.084v-16.45
		c0.006-0.01,0.015-0.021,0.021-0.031l-0.021-0.008v-2.833l-1.5,2.647v2.469v1.877v2.48v9.842c0,0-0.289,7.482-3.602,12.914
		l-1.031,1.734c0,0-1.979,3.043-4.006,4.828l-1.402,1.219c-3.705,3.014-8.771,5.439-15.717,6.422
		c-4.88-0.949-8.822-2.533-12.028-4.469l-1.797-1.18c-0.304-0.215-0.613-0.428-0.901-0.648l-1.588-1.305
		c-1.512-1.342-2.783-2.762-3.852-4.203l-1.007-1.457l-1.031-1.719c-3.168-5.752-3.552-11.109-3.594-12.212l0.018-9.539v-2.36
		l-0.018-10.865l6.509-1.469c0,0,16.076-3.248,17.785-3.453l2.899-0.002c1.575,0.183,5.122,0.738,12.676,2.334l0.808-1.362
		c-7.981-1.695-11.698-2.272-13.393-2.466L108.018,83.987z"/>
</g>
</svg>
