<svg id="Layer_1" data-name="Layer 1" xmlns="http://www.w3.org/2000/svg" viewBox="0 0 71.8 71.66"><defs><style>.cls-1{fill:#fff;}</style></defs><title>Icon_RH_Objects_Stopwatch-TimePass_RGB_White</title><path class="cls-1" d="M44.26 24.97l.76-1.33a.35.35 0 0 0-.12-.5.38.38 0 0 0-.53.11l-.76 1.37a.39.39 0 0 0 .15.5.34.34 0 0 0 .5-.15zm5.3 22.23l1.35.8a.39.39 0 0 0 .5-.15.34.34 0 0 0-.15-.5l-1.36-.81a.37.37 0 0 0-.49.15.36.36 0 0 0 .15.51zm-13.6-24.17a.43.43 0 0 0 .42-.39v-1.57a.4.4 0 0 0-.42-.36.39.39 0 0 0-.4.36v1.57a.43.43 0 0 0 .4.39zm-8.27 2a.38.38 0 0 0 .5.15.42.42 0 0 0 .15-.54c-.27-.44-.53-.88-.78-1.33a.39.39 0 0 0-.5-.15.44.44 0 0 0-.15.53zM36 43.54a4.56 4.56 0 0 0 .88-.09l.3-.08a4.56 4.56 0 0 0 .52-.16l.33-.16a4.58 4.58 0 0 0 .42-.23l.31-.22c.12-.09.24-.19.36-.3l.27-.26a4.66 4.66 0 0 0 .31-.38c.07-.09.14-.18.2-.28a4.68 4.68 0 0 0 .27-.51c0-.08.09-.16.12-.25a4.62 4.62 0 0 0 .24-.79l7.53-.21a.73.73 0 0 0 .7-.74v-.15a.74.74 0 0 0-.7-.73l-7.54-.17c0-.06 0-.11-.05-.17a4.78 4.78 0 0 0-.16-.55c0-.09-.08-.17-.11-.25a4.74 4.74 0 0 0-.23-.46l-.15-.23a4.7 4.7 0 0 0-.3-.42l-.15-.16a4.64 4.64 0 0 0-.41-.4l-.12-.09a4.6 4.6 0 0 0-.53-.37h-.06a4.55 4.55 0 0 0-1.29-.5c-.21-9.48-.13-6.32-.21-9.48a.74.74 0 0 0-.72-.73h-.13a.74.74 0 0 0-.72.73c-.21 9.52-.13 6.34-.21 9.52a4.52 4.52 0 0 0-.74.24l-.16.08a4.58 4.58 0 0 0-.58.32l-.26.2a4.65 4.65 0 0 0-.39.33l-.25.26a4.67 4.67 0 0 0-.3.37l-.2.3a4.7 4.7 0 0 0-.24.44c-.05.11-.1.21-.14.32a4.73 4.73 0 0 0-.17.54c0 .1-.06.19-.08.29a4.8 4.8 0 0 0-.09.89 4.67 4.67 0 0 0 4.62 4.64zm-2.26-7a3.46 3.46 0 0 1 2.26-.95 3.35 3.35 0 0 1 2.22.95 3.27 3.27 0 0 1 .93 2.29 3.16 3.16 0 0 1-.93 2.25 3.07 3.07 0 0 1-2.22.95 3.18 3.18 0 0 1-2.26-.95 3.23 3.23 0 0 1-.9-2.25 3.35 3.35 0 0 1 .9-2.33zm-25.51 21a.83.83 0 0 0-1.26 1.06c.72.86 1.49 1.69 2.29 2.48a.83.83 0 0 0 1.16-1.17c-.77-.75-1.52-1.55-2.19-2.37zM49.9 31.05l1.35-.77a.39.39 0 0 0 .11-.54.33.33 0 0 0-.46-.11l-1.31.77a.33.33 0 0 0-.15.5.36.36 0 0 0 .46.15zM27.55 54.33l.76-1.37a.35.35 0 0 0-.12-.5.36.36 0 0 0-.53.15l-.76 1.33a.38.38 0 0 0 .15.5.34.34 0 0 0 .5-.11zm8.44.25a.39.39 0 0 0-.38.39v1.54a.38.38 0 1 0 .76 0v-1.55a.38.38 0 0 0-.38-.38zM52.12 5.24l-2 2.71a.53.53 0 0 0-.07.5.52.52 0 0 0 .38.32l10.22 2.06a.53.53 0 0 0 .53-.2.52.52 0 0 0 0-.56L56.1.95a.53.53 0 0 0-.89-.05l-2.15 3A36.73 36.73 0 0 0 5.01 55.33a.83.83 0 1 0 1.42-.84A35.08 35.08 0 0 1 52.12 5.24zm-7.87 47.37a.38.38 0 0 0-.49-.15.35.35 0 0 0-.15.51c.76 1.36.5.91.76 1.36a.37.37 0 0 0 .53.12.35.35 0 0 0 .11-.51c-.26-.43-.5-.88-.76-1.33zm7.65-13.45h1.52a.39.39 0 0 0 .38-.39.43.43 0 0 0-.38-.41H51.9a.42.42 0 0 0-.38.41.38.38 0 0 0 .38.39zM33.54 70.01c-1.07 0-2.15-.15-3.21-.29a.83.83 0 1 0-.23 1.64c1.11.15 2.24.26 3.36.31a.83.83 0 0 0 0-1.65zm28.48-12.59c-.68.82-1.42 1.62-2.18 2.38a.83.83 0 1 0 1.17 1.17c.8-.79 1.56-1.63 2.28-2.49a.83.83 0 0 0-1.27-1.06zm4.77-5.59a.83.83 0 0 0-1.12.32c-.52.93-1.09 1.85-1.7 2.74a.83.83 0 0 0 1.36.94c.64-.93 1.24-1.89 1.78-2.87a.82.82 0 0 0-.32-1.13zm-9.33 10.14c-.82.68-1.69 1.33-2.58 1.94a.83.83 0 0 0 .93 1.36c.93-.64 1.84-1.32 2.7-2A.83.83 0 1 0 57.46 62zm-5.32 3.63q-.64.35-1.29.68t-1.59.75a.83.83 0 1 0 .64 1.53q.84-.37 1.67-.79t1.33-.72a.83.83 0 0 0-.8-1.44zm17.2-19.9a.83.83 0 0 0-1 .52c-.34 1-.74 2-1.17 3a.83.83 0 0 0 1.51.67c.45-1 .87-2.08 1.23-3.15a.83.83 0 0 0-.57-1.04zm1.65-11.1a.83.83 0 0 0-.84.81v1.33a.83.83 0 0 0 .78.87.83.83 0 0 0 .82-.78v-1.39a.83.83 0 0 0-.76-.84zm-.26 4.66a.82.82 0 0 0-.94.7c-.15 1.06-.36 2.13-.61 3.17a.83.83 0 0 0 .61 1h.19a.83.83 0 0 0 .8-.63c.26-1.09.47-2.2.64-3.32a.82.82 0 0 0-.69-.92zm-24.48 29c-1 .34-2.06.64-3.1.89a.83.83 0 0 0 .19 1.63h.19c1.09-.26 2.18-.57 3.25-.93a.83.83 0 1 0-.53-1.56zm-25.2-1.11c-1-.43-2-.91-2.9-1.42a.83.83 0 1 0-.8 1.45c1 .54 2 1 3 1.49a.81.81 0 0 0 .33.07.83.83 0 0 0 .33-1.58zM18.5 39.16h1.55a.36.36 0 0 0 .34-.37.34.34 0 0 0-.34-.36H18.5a.34.34 0 0 0-.36.36.36.36 0 0 0 .36.37zm2.54 8.81c1.31-.77.87-.52 1.31-.77a.39.39 0 0 0 .15-.51.42.42 0 0 0-.53-.15c-1.31.77-.87.52-1.31.77a.44.44 0 0 0-.15.54.39.39 0 0 0 .53.12zm15 11.55a20.77 20.77 0 0 0 2.36-41.35v-1.49h2.34a.63.63 0 0 0 .5-.24.82.82 0 0 0 .2-.56v-3.05a.76.76 0 0 0-.2-.54.63.63 0 0 0-.5-.24h-9.51a.67.67 0 0 0-.5.24.71.71 0 0 0-.2.54v3a.76.76 0 0 0 .2.56.67.67 0 0 0 .5.24h2.33v1.48a20 20 0 0 0-8.76 3.23c-1-1.13-.65-.75-1-1.13l.59-.5a.71.71 0 0 0 .26-.51.64.64 0 0 0-.17-.56l-2.58-3.05a.73.73 0 0 0-1-.09L15.61 20a.83.83 0 0 0-.27.5.84.84 0 0 0 .18.57l2.57 3.11a.78.78 0 0 0 1.06.09l1-.86 1 1.16a20.83 20.83 0 0 0-5.61 14.26 20.6 20.6 0 0 0 20.45 20.69zM31.9 15.15v-1.54h8.06v1.54H31.9zm5 1.53v1.31h-1.81v-1.31zm-17.2 5.06l-.09.1c-.31.25-.6.51-.91.77l-1.63-2 4.15-3.52 1.63 2-.49.41-.09.1zm3.83.53c-.5.39-1 .81-1.44 1.22l-.87-1.07 1.42-1.21zm-1 2.91a2 2 0 0 1 .37-.35l1.84-1.58a18.78 18.78 0 0 1 10.79-3.72h.93a18.76 18.76 0 0 1 12.94 5.62 19.47 19.47 0 0 1 0 27.22 18.78 18.78 0 0 1-26.82 0 19.4 19.4 0 0 1 0-27.18zm4.63 43.95c-1-.24-2.09-.54-3.1-.87a.83.83 0 0 0-.53 1.57c1.07.35 2.16.66 3.25.91h.19a.83.83 0 0 0 .19-1.63zm12.82.57c-1.06.15-2.14.25-3.21.3a.83.83 0 0 0 0 1.65c1.12-.05 2.25-.16 3.36-.32a.83.83 0 0 0 .7-.93.82.82 0 0 0-.86-.7zm-18-38.65a.41.41 0 0 0 .53-.15.43.43 0 0 0-.15-.53l-1.31-.77a.43.43 0 0 0-.53.15.4.4 0 0 0 .15.51zm-9.16 31a.83.83 0 0 0-1 1.28c.87.71 1.78 1.39 2.71 2a.83.83 0 0 0 .93-1.37c-.95-.56-1.82-1.21-2.65-1.89z"/></svg>