<svg data-name="Layer 1" xmlns="http://www.w3.org/2000/svg" viewBox="0 0 80.42 24.51"><title>Icon_RH_Objects_AirplaneB_RGB_Black</title><path d="M71.7 14.21H45.99a.5.5 0 0 0 0 1h25.72a.5.5 0 0 0 0-1zm8.63 2.55c-.93-4.08-6.89-5.45-8.41-5.45H29.81l-25 .1a.75.75 0 0 0-.61 1.18c.17.24 4.22 5.84 15.9 8.9h26.59a6.85 6.85 0 0 0 .31 1.66.75.75 0 0 0 .47.45 16.17 16.17 0 0 0 5.07.88 8.52 8.52 0 0 0 2.75-.37.75.75 0 0 0 .34-.26 5.26 5.26 0 0 0 1-2.37h15.46c2.26-.06 6.28-.44 7.76-2.36a2.77 2.77 0 0 0 .49-2.36zm-4.12-2.66l.27.15-1.13.26a4.17 4.17 0 0 1-1.12-.41zM47.3 18.22a.75.75 0 0 0-.27.37 7.44 7.44 0 0 0-.31 1.42h-4.44l-10.33-4.55h2.91l13.49 2.2a5.72 5.72 0 0 0-1.05.56zm7.24 4.57a11.94 11.94 0 0 1-6.23-.51 6.24 6.24 0 0 1 .08-3 8.53 8.53 0 0 1 6.15-.62 3.69 3.69 0 0 1 .01 4.13zm24.11-4.51c-.79 1-3.32 1.69-6.69 1.78H56.61a5.36 5.36 0 0 0-1-2.46.75.75 0 0 0-.4-.32c-.45-.11-.87-.18-1.28-.24l-18.89-3.07h-6.65a.75.75 0 0 0-.3 1.44l10.48 4.62H20.34a35.65 35.65 0 0 1-11-4.81h15.87a.5.5 0 0 0 0-1H7.96a19.83 19.83 0 0 1-1.51-1.31l16.83-.06h48.65a7.91 7.91 0 0 1 1.65.28.5.5 0 0 0-.5.5v.65a.5.5 0 0 0 .13.33 3.83 3.83 0 0 0 2 .93h.22l1.51-.38h.68a3.89 3.89 0 0 1 1.23 2 1.27 1.27 0 0 1-.2 1.12zM4.89 10.4c2.05 0 4.1-.08 6.16-.14h1a2.78 2.78 0 0 0 .54-.08l.26-.06a.75.75 0 0 0 .36-1.28l-.28-.31c-.19-.21-.35-.38-.52-.55l-6.78-6.4c-2.09-2-2.46-2-5-.66l-.23.16-.13.09a.75.75 0 0 0-.25.91l.7 1.6c.86 2 1.71 3.91 2.59 5.84a1.78 1.78 0 0 0 1.52.88zM2.14 3.08l-.44-1c1.48-.78 1.57-.7 2.95.6l6.43 6.08H11c-2 .06-4.08.12-6.12.14a.57.57 0 0 1-.19-.08c-.87-1.89-1.71-3.8-2.55-5.74z"/></svg>