<svg id="Layer_1" data-name="Layer 1" xmlns="http://www.w3.org/2000/svg" viewBox="0 0 52.71 72.75"><defs><style>.cls-1{fill:#fff;}</style></defs><title>Icon_RH_Objects_Balloon_RGB_White</title><path class="cls-1" d="M52.56 19.37a19.08 19.08 0 0 0-5.81-12.19C42.62 3.31 36.44.93 28.35.11a31.9 31.9 0 0 0-13.54 2 24.57 24.57 0 0 0-8.58 4.92A20 20 0 0 0 .05 20.74a33.93 33.93 0 0 0 1 10c1.88 8.21 11.85 19.63 16.11 24.51.59.67 1.05 1.21 1.37 1.58a14.73 14.73 0 0 1 2.82 4.88 1.56 1.56 0 0 0 0 .31 1 1 0 0 0 .71.94l.66 3.64a1.72 1.72 0 0 0-1 1.54v2.89a1.72 1.72 0 0 0 1.72 1.72h5.43a1.72 1.72 0 0 0 1.72-1.72v-2.89a1.71 1.71 0 0 0-.89-1.5l.65-3.59a5.61 5.61 0 0 0 .86-1.23 14.14 14.14 0 0 1 2.87-5c.31-.37.78-.91 1.37-1.58 4.28-4.87 14.25-16.29 16.17-24.54a34.12 34.12 0 0 0 .94-11.33zM28.18 2.1h.31c.78 2.74 5.5 21.16 1 52.36a26.66 26.66 0 0 1-6.77 0c-4.48-31.24.27-49.66 1-52.33a22.13 22.13 0 0 1 4.46-.03zM2.95 30.24a32 32 0 0 1-.9-9.37A18.06 18.06 0 0 1 7.61 8.56a20.1 20.1 0 0 1 4.14-2.86 42.27 42.27 0 0 0-2.71 10.05c-1 6.3-1.27 16.25 2.15 29.16-3.65-4.8-7.21-10.27-8.24-14.67zm15.28 23.19c-1.44-1.65-3.39-3.9-5.43-6.47-7.1-24.28-1.07-39 .39-42q1.11-.5 2.31-.92a37.48 37.48 0 0 1 7.2-1.79c-1 3.88-5.24 22.1-1 52a25.08 25.08 0 0 1-3.47-.82zm4.94 10.1a7.62 7.62 0 0 0 1.55.34l.18 2.5h-1.21zm2.95-.57a7.44 7.44 0 0 1-2.9-.48 1 1 0 0 0 .1-.27 5.29 5.29 0 0 1 2.8-.6 5.12 5.12 0 0 1 2.92.71 1 1 0 0 0 .05.13 7.17 7.17 0 0 1-2.98.51zm1 1l-.19 2.41h-1l-.18-2.47h.39c.31.06.64.04.97.02zm1.5 6.83h-4.88v-2.42h4.87zm.12-4.42h-.81l.2-2.64a6.14 6.14 0 0 0 1.16-.33zm3.83-10.87a17.94 17.94 0 0 0-2.94 4.87 8.1 8.1 0 0 0-3.51-.73 8.6 8.6 0 0 0-3.19.56 18.15 18.15 0 0 0-2.87-4.62l-.59-.69a26.82 26.82 0 0 0 2.69.55h.14a27.31 27.31 0 0 0 4 .29 26.7 26.7 0 0 0 6.89-.91zm1.87-2.13a25.35 25.35 0 0 1-3.9 1c4.25-29.91.08-48.14-1-52.08a36.65 36.65 0 0 1 9.54 2.43c1.18 2.33 7.93 17.33.4 42.66-1.88 2.37-3.69 4.45-5.04 5.99zm15.24-23.13c-1.06 4.52-4.79 10.13-8.55 15.07 5.88-21.79 1.25-35.66-.63-40a20.13 20.13 0 0 1 4.85 3.33 17.12 17.12 0 0 1 5.18 10.92 32.21 32.21 0 0 1-.85 10.68z"/></svg>