<svg xmlns="http://www.w3.org/2000/svg" viewBox="0 0 43.76 63.43"><title>Icon_RH_Objects_Pipe_RGB_Black</title><path d="M41.19 22.6h-2.61c.09-.38.16-.76.26-1.15a1 1 0 0 0-1-1.25H32.4a1 1 0 0 0-1 .78c0 .14-.25 1.15-.5 2.75H20.57V10.72l1.9-.24a1 1 0 0 0 .87-1V4.66a1 1 0 0 0-1.12-1s-.56.07-1.5.15v-2.8a1 1 0 0 0-.33-.75 1 1 0 0 0-.78-.25 80.86 80.86 0 0 1-15.86 0 1 1 0 0 0-1.11 1V3.8l-1.53-.13a1 1 0 0 0-.77.25 1 1 0 0 0-.33.74v4.86a1 1 0 0 0 .74 1c.08 0 .67.18 1.75.35v50.74a1 1 0 0 0 .77 1 40 40 0 0 0 8.53.88 34.92 34.92 0 0 0 8-.88 1 1 0 0 0 .77-1V42.24l10.53-.07c.11.5.23 1 .37 1.47a1 1 0 0 0 1 .73h5.41a1 1 0 0 0 .94-1.33s-.13-.39-.31-1.07h2.72c1.17 0 2.57-1.68 2.57-9.69s-1.43-9.68-2.61-9.68zM4.62 2.12a82.75 82.75 0 0 0 14.08 0v1.5a82.34 82.34 0 0 1-14.08 0zM3.39 8.94c-.58-.08-1.05-.16-1.4-.22v-3a114.56 114.56 0 0 0 19.33 0V8.6c-2 .25-3.9.43-5.62.55a88.88 88.88 0 0 1-12.12-.23 1 1 0 0 0-.19.02zm16.17 31.31a1 1 0 0 0-1 1v19.53a38.67 38.67 0 0 1-14.08 0V11.09a57.15 57.15 0 0 0 5.91.28c1.55 0 3.29-.05 5.21-.18 1.25-.06 2.26-.13 3-.19v13.72a1 1 0 0 0 1 1h11.08a54.18 54.18 0 0 0-.06 13.75c0 .23.05.46.09.69zm17 2.12h-3.34a30.7 30.7 0 0 1-.62-3.34 61.31 61.31 0 0 1 .28-14.15 1 1 0 0 0 0-.15c.15-1.08.3-2 .41-2.53h3.35a43.64 43.64 0 0 0-.1 20.17zm2.88-2.4h-1.36a42.92 42.92 0 0 1 .09-15.37h1.26a26.5 26.5 0 0 0-.8 7.69 26.5 26.5 0 0 0 .79 7.68zm1.77-1.11a32 32 0 0 1-.57-6.58 32 32 0 0 1 .57-6.58 31.88 31.88 0 0 1 .57 6.58 31.88 31.88 0 0 1-.59 6.59zM17.57 25.01a9.16 9.16 0 0 0-6.19 6.11.5.5 0 0 0 .3.64.48.48 0 0 0 .17 0 .5.5 0 0 0 .47-.33 8.18 8.18 0 0 1 5.46-5.47.51.51 0 0 0-.21-1zm.25 14.35a8.18 8.18 0 0 1-5.47-5.46.51.51 0 0 0-1 .21 9.17 9.17 0 0 0 6.11 6.19.48.48 0 0 0 .17 0 .507.507 0 0 0 .17-1z"/></svg>