<svg id="Layer_1" data-name="Layer 1" xmlns="http://www.w3.org/2000/svg" viewBox="0 0 108 108"><defs><style>.cls-1{fill:none;}</style></defs><title>Icon_RH_Object_Banjo_RGB_Flat</title><path class="cls-1" d="M51.65,55.36l-0.41.52-0.5.63L50,56.16a15.19,15.19,0,0,0-6.84-1.62A15.39,15.39,0,1,0,54.54,59.6l-0.47-.52,0.32-.62c0.12-.23.26-0.47,0.41-0.71l-3.14-2.4h0Zm-8.2,21.43a6.87,6.87,0,1,1,6.87-6.87A6.87,6.87,0,0,1,43.45,76.79Z"/><path class="cls-1" d="M52.26,54.55l3.09,2.36,0.2-.3,1.66-2.3-3-2.31Z"/><path class="cls-1" d="M54.78,51.19l3,2.3,1.92-2.65-3-2.27Z"/><path class="cls-1" d="M58.19,46.65l-0.85,1.13,3,2.26,1.17-1.61,0.89-1.22L59.44,45Z"/><circle class="cls-1" cx="43.45" cy="69.93" r="4.87"/><path class="cls-1" d="M79.09,26.54L74.71,23.2a4,4,0,0,0-.49-0.34c-1.54,1.59-7.63,9.61-8.44,11,0,0.17,0,.37,0,0.57a5,5,0,0,1,0,1.36A4.27,4.27,0,0,1,65,37.54l2.8,2.14a4.14,4.14,0,0,1,1.71-1.34,5.08,5.08,0,0,1,1.15-.26c0.19,0,.37-0.05.53-0.09a134.43,134.43,0,0,0,8.3-11.1A4.3,4.3,0,0,0,79.09,26.54Z"/><path class="cls-1" d="M62.57,40.8L65.42,43l1.8-2.5-2.8-2.14Z"/><path class="cls-1" d="M60,44.17l2.9,2.22,1.88-2.6L62,41.6Z"/><path d="M43.45,63.06a6.87,6.87,0,1,0,6.87,6.87A6.87,6.87,0,0,0,43.45,63.06Zm0,11.73a4.87,4.87,0,1,1,4.87-4.87A4.87,4.87,0,0,1,43.45,74.79Z"/><path d="M81.82,30.43l-1.39-1.06-0.12-.06c1.46-2.13,1.38-2.38,1.27-2.76A3.25,3.25,0,0,0,80.3,25l-4.37-3.34a3.23,3.23,0,0,0-2-.83h0c-0.38,0-.66,0-2.29,2a0.84,0.84,0,0,0-.18-0.2L70.1,21.47a0.87,0.87,0,0,0-1.05,1.39l1.39,1.06a0.83,0.83,0,0,0,.19.09l-0.89,1.13A0.83,0.83,0,0,0,69.62,25l-1.39-1.06a0.87,0.87,0,0,0-1.05,1.39l1.39,1.06a0.82,0.82,0,0,0,.15.07l-0.33.43-0.54.7a0.82,0.82,0,0,0-.11-0.12l-1.39-1.06A0.87,0.87,0,0,0,65.3,27.8l1.39,1.06a0.82,0.82,0,0,0,.15.07c-3,4-3,4.34-3,4.59a5.94,5.94,0,0,0,0,1.1,3.38,3.38,0,0,1,0,.82,3.45,3.45,0,0,1-.73,1.29c-1.44,1.91-4,5.31-6.54,8.72s-5,6.65-6.43,8.57a17.12,17.12,0,0,0-7-1.48A17.39,17.39,0,1,0,56.5,58.8c0.19-.32.42-0.65,0.68-1,1.23-1.72,3.57-5,5.91-8.17s4.62-6.37,5.84-8.07a2.25,2.25,0,0,1,2-1.46,5.52,5.52,0,0,0,1-.22c0.25-.09.63-0.22,3.63-4.16L77,36.75a0.87,0.87,0,0,0,1.05-1.39l-1.39-1.05,0.54-.73,0.29-.39,1.32,1a0.87,0.87,0,0,0,1.05-1.39l-1.34-1,0.79-1.08,0,0,1.39,1.06A0.87,0.87,0,1,0,81.82,30.43ZM71.21,38c-0.16,0-.34.06-0.53,0.09a5.08,5.08,0,0,0-1.15.26,4.14,4.14,0,0,0-1.71,1.34l0.62,0.48a0.5,0.5,0,0,1-.61.79l-0.62-.47L65.42,43l0.88,0.67a0.5,0.5,0,0,1-.61.79l-0.85-.65-1.88,2.6,1,0.77a0.5,0.5,0,0,1-.61.79l-1-.76-0.89,1.22L60.3,50l0.93,0.71a0.5,0.5,0,0,1-.61.79l-0.91-.69L57.79,53.5l1,0.78a0.5,0.5,0,0,1-.61.79l-1-.76-1.66,2.3-0.2.3,1.14,0.87a0.5,0.5,0,0,1-.61.79l-1.08-.83c-0.15.24-.29,0.48-0.41,0.71l-0.32.62,0.47,0.52A15.37,15.37,0,1,1,50,56.16l0.72,0.36,0.5-.63,0.41-.52h0l-0.8-.61a0.5,0.5,0,0,1,.61-0.79l0.79,0.61L54.18,52l-0.81-.62A0.5,0.5,0,1,1,54,50.58l0.8,0.61,2-2.62-1-.73a0.5,0.5,0,1,1,.61-0.79l1,0.73,0.85-1.13L59.44,45l-1.06-.81A0.5,0.5,0,0,1,59,43.36L60,44.17,62,41.6,61.2,41a0.5,0.5,0,0,1,.61-0.79l0.76,0.58,1.85-2.46-1.06-.81A0.5,0.5,0,1,1,64,36.74L65,37.54a4.27,4.27,0,0,0,.82-1.78,5,5,0,0,0,0-1.36c0-.2,0-0.4,0-0.57,0.81-1.37,6.89-9.39,8.44-11a4,4,0,0,1,.49.34l4.38,3.34a4.3,4.3,0,0,1,.42.36A134.43,134.43,0,0,1,71.21,38Z"/><path d="M51.47,53.95a0.5,0.5,0,0,0-.61.79l0.8,0.61,3.14,2.4,1.08,0.83a0.5,0.5,0,1,0,.61-0.79l-1.14-.87-3.09-2.36Z"/><path d="M54,50.58a0.5,0.5,0,1,0-.61.79L54.18,52l3,2.31,1,0.76a0.5,0.5,0,1,0,.61-0.79l-1-.78-3-2.3Z"/><path d="M56.39,47.05a0.5,0.5,0,1,0-.61.79l1,0.73,3,2.27,0.91,0.69a0.5,0.5,0,0,0,.61-0.79L60.3,50l-3-2.26Z"/><path d="M59,43.36a0.5,0.5,0,0,0-.61.79L59.44,45l2.92,2.23,1,0.76A0.5,0.5,0,0,0,64,47.16l-1-.77L60,44.17Z"/><path d="M61.81,40.22a0.5,0.5,0,0,0-.61.79L62,41.6l2.86,2.19,0.85,0.65a0.5,0.5,0,0,0,.61-0.79L65.42,43,62.57,40.8Z"/><path d="M64,36.74a0.5,0.5,0,1,0-.61.79l1.06,0.81,2.8,2.14L67.84,41a0.5,0.5,0,0,0,.61-0.79l-0.62-.48L65,37.54Z"/></svg>