<svg id="Layer_1" data-name="Layer 1" xmlns="http://www.w3.org/2000/svg" viewBox="0 0 108 108"><defs><style>.cls-1{fill:none;}.cls-2{fill:#fff;}</style></defs><title>Icon_RH_Object_Boot_RGB_White</title><path class="cls-1" d="M76.15,77.29c0.08-4.27.06-8.62,0.05-12.83q0-2.07,0-4.14h0v-0.9c0-2,0-3.92,0-5.89,0-4.33.06-11.31-.07-15.7s-1.36-7.6-3.57-9.67A8.74,8.74,0,0,0,66,25.9c-5.81.22-9.37,4.7-9.54,12l0,1.25c-0.1,4-.2,10.69,0,14.74a19.67,19.67,0,0,1,0,2.14l9.15,9.15a0.5,0.5,0,1,1-.71.71L56.35,57.3a19,19,0,0,1-.91,4l5.25,5.25a0.5,0.5,0,1,1-.71.71L55,62.32h0a24.83,24.83,0,0,1-3.81,6.3,26.49,26.49,0,0,1-15.63,9.13l-0.65.13c-2.43.47-3.33,0.83-3.17,2.7a1.77,1.77,0,0,0,.45,1.23,3.27,3.27,0,0,0,2.11.13,10.12,10.12,0,0,1,1.4-.1c2.48,0.07,5,.06,7.48,0,2.81,0,5.71,0,8.57.07,3.57,0.14,6.38-.34,8.49-3.2,1.19-1.62,2.34-2.41,3.48-2.41l0.29,0c1.71,0.2,2.71,2.09,3.31,3.5,1.05,2.46,2.86,2.42,5.72,2,0.5-.07,1-0.13,1.47-0.17,1.72-.13,1.82-0.93,1.67-3.17C76.17,78.13,76.14,77.69,76.15,77.29Zm-6.83-36.4L70,44.76,66.52,43l-3.46,1.87L63.68,41l-2.85-2.71,3.89-.61,1.7-3.55,1.78,3.51,3.9,0.52Z"/><polygon class="cls-1" points="66.44 36.06 65.31 38.43 62.72 38.83 64.62 40.64 64.21 43.23 66.51 41.98 68.85 43.17 68.37 40.6 70.23 38.74 67.63 38.4 66.44 36.06"/><path class="cls-2" d="M78,78.46c0-.4-0.05-0.78,0-1.14C78,73,78,68.67,78,64.46q0-2.52,0-5l0-.88c0-1.67,0-3.33,0-5,0-4.35.06-11.34-.07-15.77-0.14-4.75-1.57-8.53-4.14-10.93a10.59,10.59,0,0,0-7.84-2.74c-6.76.26-11.08,5.52-11.27,13.73l0,1.25c-0.1,4.06-.2,10.76,0,14.89,0.28,4.82-1.26,9.12-4.84,13.52A24.74,24.74,0,0,1,35.22,76l-0.62.12c-2.08.4-4.93,1-4.63,4.62a3.38,3.38,0,0,0,1.1,2.48c1,0.82,2.36.66,3.46,0.53a9.39,9.39,0,0,1,1.13-.09c2.52,0.07,5.07.06,7.54,0,2.78,0,5.66,0,8.48.07,3.42,0.14,7.27-.22,10-3.93,0.83-1.12,1.6-1.73,2.11-1.67,0.26,0,1,.33,1.86,2.41a5.1,5.1,0,0,0,5.18,3.33,18.77,18.77,0,0,0,2.43-.21c0.47-.06.93-0.12,1.38-0.16C78.31,83.27,78.12,80.26,78,78.46Zm-3.47,3.29c-0.47,0-1,.1-1.47.17-2.86.37-4.67,0.42-5.72-2-0.6-1.4-1.6-3.3-3.31-3.5l-0.29,0c-1.14,0-2.29.79-3.48,2.41-2.11,2.86-4.92,3.34-8.49,3.2-2.86-.12-5.76-0.1-8.57-0.07-2.45,0-5,0-7.48,0a10.12,10.12,0,0,0-1.4.1,3.27,3.27,0,0,1-2.11-.13,1.77,1.77,0,0,1-.45-1.23c-0.16-1.88.75-2.23,3.17-2.7l0.65-.13a26.49,26.49,0,0,0,15.63-9.13A24.83,24.83,0,0,0,55,62.32h0L60,67.26a0.5,0.5,0,0,0,.71-0.71l-5.25-5.25a19,19,0,0,0,.91-4l8.56,8.56a0.5,0.5,0,0,0,.71-0.71L56.47,56a19.67,19.67,0,0,0,0-2.14c-0.24-4.05-.14-10.72,0-14.74l0-1.25c0.17-7.27,3.74-11.75,9.54-12a8.74,8.74,0,0,1,6.54,2.26c2.21,2.07,3.45,5.41,3.57,9.67s0.1,11.37.07,15.7c0,2,0,3.92,0,5.89v0.9h0q0,2.07,0,4.14c0,4.21,0,8.56-.05,12.83,0,0.4,0,.84.05,1.29C76.35,80.82,76.24,81.62,74.52,81.75Z"/><path class="cls-2" d="M66.42,34.08l-1.7,3.55-3.89.61L63.68,41l-0.62,3.89L66.52,43,70,44.76l-0.71-3.87,2.79-2.78-3.9-.52Zm2,6.52,0.47,2.58L66.51,42l-2.31,1.25,0.41-2.59-1.9-1.81,2.59-.41,1.13-2.36,1.19,2.34,2.6,0.35Z"/></svg>