<?xml version="1.0" encoding="utf-8"?>
<!-- Generator: Adobe Illustrator 19.1.0, SVG Export Plug-In . SVG Version: 6.00 Build 0)  -->
<svg version="1.1" xmlns="http://www.w3.org/2000/svg" xmlns:xlink="http://www.w3.org/1999/xlink" x="0px" y="0px"
	 viewBox="0 0 144 144" enable-background="new 0 0 144 144" xml:space="preserve">
<g id="button" display="none">
	<circle display="inline" fill="#DCDCDC" cx="72" cy="72" r="54"/>
</g>
<g id="template" display="none">
	<circle display="inline" fill="none" stroke="#FFFFFF" stroke-width="0.25" stroke-miterlimit="10" cx="72" cy="72" r="36"/>
	<g display="inline">
		
			<circle fill="none" stroke="#FFFFFF" stroke-width="0.25" stroke-linecap="round" stroke-miterlimit="10" stroke-dasharray="1.9875,1.9875" cx="72" cy="72" r="40.5"/>
	</g>
	
		<line display="inline" fill="none" stroke="#FFFFFF" stroke-width="0.25" stroke-miterlimit="10" x1="72" y1="18" x2="72" y2="126"/>
	
		<line display="inline" fill="none" stroke="#FFFFFF" stroke-width="0.25" stroke-miterlimit="10" x1="126" y1="72" x2="18" y2="72"/>
	
		<line display="inline" fill="none" stroke="#FFFFFF" stroke-width="0.25" stroke-miterlimit="10" x1="110.184" y1="33.816" x2="33.816" y2="110.184"/>
	
		<line display="inline" fill="none" stroke="#FFFFFF" stroke-width="0.25" stroke-miterlimit="10" x1="110.184" y1="110.184" x2="33.816" y2="33.816"/>
</g>
<g id="icon">
	<g>
		<path fill="#231F20" d="M89.163,56.246c-13.16-3.08-16.428-3.412-17.222-3.412c-0.089,0-0.169,0.002-0.213,0.012
			c-0.074-0.01-0.154-0.012-0.244-0.012c-0.795,0-4.065,0.332-17.224,3.412c-0.308,0.071-0.523,0.342-0.523,0.659v18.197
			c0.004,0.159,0.594,15.89,17.855,18.948c0.039,0.007,0.079,0.01,0.119,0.01c0.028,0,0.056-0.001,0.083-0.005
			c17.687-2.178,17.891-18.804,17.891-18.972V56.905C89.685,56.589,89.47,56.317,89.163,56.246z M88.332,57.442v17.642
			c0,0.155-0.189,15.534-16.603,17.617C55.71,89.806,55.108,75.68,55.09,75.084V57.442c14.197-3.311,16.268-3.274,16.442-3.257
			c0.119,0.032,0.245,0.03,0.335,0.003C72.078,54.176,74.309,54.174,88.332,57.442z"/>
		<path fill="#231F20" d="M70.844,58.814l-0.015,0.001c-1.271,0.148-4.767,0.711-13.875,2.81c-0.247,0.057-0.419,0.272-0.419,0.525
			v12.91c0.052,1.345,0.918,13.216,15.079,15.932c0.031,0.004,0.063,0.009,0.097,0.009c0.026,0,0.052-0.003,0.073-0.006
			c10.041-1.391,13.367-8.065,14.457-11.939l0.148-0.188h-0.096c0.559-2.071,0.59-3.61,0.592-3.784V62.15
			c0-0.253-0.172-0.469-0.417-0.525c-9.155-2.109-12.647-2.666-13.928-2.812l-0.82-0.002L70.844,58.814z M57.613,62.579l3.491-0.788
			c0.089-0.018,8.876-1.792,9.788-1.901l1.585-0.002c0.814,0.095,2.904,0.409,7.797,1.459c-2.373,3.433-8.94,11.932-20.76,20.248
			c-1.689-3.132-1.88-6.01-1.901-6.556l0.011-5.264L57.613,62.579z M85.809,67.644v7.432c-0.002,0.041-0.179,4.13-1.97,7.066
			l-0.566,0.952c-0.011,0.017-1.096,1.676-2.188,2.638l-0.771,0.67c-2.267,1.843-5.156,3.025-8.59,3.514
			c-2.404-0.471-4.56-1.26-6.41-2.348C76.411,79.743,82.846,71.857,85.809,67.644z M60.214,82.757
			c12.782-8.977,19.621-18.327,21.487-21.101l0.492,0.107c1.089,0.241,2.29,0.511,3.615,0.815v2.619l-0.092,0.162
			c-1.721,2.689-8.358,12.169-21.623,21.413l-0.009-0.006c-0.14-0.099-0.279-0.197-0.409-0.296l-0.872-0.717
			c-0.784-0.695-1.493-1.47-2.105-2.297L60.214,82.757z"/>
		<path fill="#231F20" d="M95.319,46.073l0.652-1.085c0.075-0.118,0.082-0.265,0.02-0.395c-0.062-0.122-0.181-0.205-0.319-0.224
			l-5.558-0.647c-0.152-0.02-0.312,0.058-0.395,0.192l-0.019,0.031v0.003c-0.063,0.13-0.054,0.286,0.029,0.407l3.148,4.651
			c0.074,0.112,0.204,0.181,0.34,0.181c0.003,0,0.006,0,0.009,0c0.14-0.004,0.267-0.079,0.338-0.199l0.693-1.153
			c7.256,6.595,11.25,15.215,11.25,24.292c0,10.05-4.997,19.665-13.709,26.38c-0.213,0.163-0.349,0.4-0.384,0.668
			c-0.035,0.269,0.036,0.534,0.201,0.748c0.163,0.212,0.398,0.349,0.665,0.384c0.045,0.006,0.09,0.009,0.134,0.009
			c0.223,0,0.437-0.073,0.616-0.211c9.211-7.099,14.494-17.296,14.494-27.979C107.526,62.335,103.192,53.087,95.319,46.073z"/>
		<path fill="#231F20" d="M48.595,93.73c-0.055-0.126-0.174-0.216-0.312-0.236c-0.138-0.021-0.277,0.032-0.366,0.137l-0.742,0.858
			c-5.974-6.3-9.261-14.235-9.261-22.358c0.001-11.175,6.245-21.82,16.704-28.479c0.29-0.188,0.464-0.507,0.464-0.853
			c0-0.191-0.055-0.379-0.157-0.54c-0.146-0.229-0.372-0.387-0.636-0.444c-0.261-0.06-0.53-0.01-0.756,0.135
			C42.49,48.978,35.896,60.261,35.895,72.131c0,8.711,3.534,17.189,9.953,23.889l-0.989,1.143c-0.092,0.106-0.124,0.249-0.085,0.384
			c0.041,0.134,0.144,0.237,0.275,0.276l5.364,1.588c0.039,0.013,0.079,0.019,0.119,0.019c0.115,0,0.228-0.05,0.304-0.14
			c0.104-0.119,0.131-0.29,0.066-0.437L48.595,93.73z"/>
	</g>
</g>
</svg>
