<svg xmlns="http://www.w3.org/2000/svg" viewBox="0 0 108 108"><title>Icon_RH_objects_tshirt-womens_RGB_Black</title><path d="M85.34 38.13c-1.12-10.29-9.26-19.85-22.95-20l-8.45.06-8.45-.06c-13.68.15-21.83 9.72-22.95 20-.23 2.12-.42 5.76-.41 5.62a1.17 1.17 0 0 0 .76 1.18l11 4c.81 6.22.73 17.4-4.38 35.23-.08.29.92.79.92.79 2.19 1.86 8.09 5 22.92 5h1.15c14.83 0 20.73-3.12 22.92-5 0 0 1-.5.92-.79-5.11-17.83-5.19-29-4.38-35.23l11-4a1.17 1.17 0 0 0 .76-1.18c.04.14-.15-3.5-.38-5.62zM61.52 20.66c-1.75 3.22-7.4 6.49-7.58 6.6-.19-.11-5.84-3.38-7.58-6.6zm12.91 25.6a15.36 15.36 0 0 1 1.16-3.67c0-.6-.5-.93-1.08-1.08-1.09-.29-2.29 2.65-2.78 6.14a1.14 1.14 0 0 0 0 .29c-.91 5.45-1.33 16.61 3.84 35.29 0 .11.05.06-.11.18-2 1.45-7.45 4.07-20.91 4.07h-1.19c-13.45 0-18.92-2.62-20.91-4.07-.16-.12-.14-.07-.11-.18 5.17-18.68 4.75-29.84 3.84-35.29a1.14 1.14 0 0 0 0-.29c-.49-3.49-1.51-6.3-2.78-6.14a1.13 1.13 0 0 0-1.08 1.08 15.36 15.36 0 0 1 1.16 3.67L24.58 43l.42-4.68c.94-9.8 8.62-16.8 18.59-17.69 2 4.49 6.93 7.45 9.92 9.12a1 1 0 0 0 .41.11H54a1 1 0 0 0 .41-.11c3-1.67 8-4.63 9.92-9.12 10 .89 17.65 7.89 18.59 17.69l.37 4.68z"/></svg>