<svg data-name="Layer 1" xmlns="http://www.w3.org/2000/svg" viewBox="0 0 52.2 54.35"><title>Icon_RH_Object_Funnel_RGB_Black</title><path d="M29.89 25.97a.5.5 0 0 0 .42-.22l8.41-12.59a.5.5 0 0 0-.83-.56l-8.41 12.59a.5.5 0 0 0 .42.78zM52.16 4.36a3.67 3.67 0 0 0-2.84-2.7 1 1 0 0 0-.3 0C46.49.83 40.47 0 26.1 0S5.68.83 3.15 1.65a1 1 0 0 0-.28 0 3.67 3.67 0 0 0-2.84 2.7c-.15.9.12 2.23 2.19 3.48a1 1 0 0 0 .51.14A10.78 10.78 0 0 0 4 8.36l17.7 25.93.67 18.66a1 1 0 0 0 .67.91 10.42 10.42 0 0 0 3.1.48 7.18 7.18 0 0 0 2.76-.51 1 1 0 0 0 .61-.88l.86-18.77L47.56 8.5a12.45 12.45 0 0 0 1.85-.53h.05a1 1 0 0 0 .51-.14c2.08-1.24 2.34-2.57 2.19-3.47zM26.1 2c10.85 0 18.06.61 21.23 1.21-3.23.62-10.39 1.2-21.23 1.2S8.03 3.83 4.86 3.2C8.03 2.61 15.24 2 26.1 2zm2.47 31.32a1 1 0 0 0-.17.51l-.84 18.36a7.27 7.27 0 0 1-3.21 0l-.66-18.26a1 1 0 0 0-.17-.53L6.82 8.89a148.54 148.54 0 0 0 19.28.88 156 156 0 0 0 18.76-.81zM49.04 6.06c-1 .69-8.94 1.71-23 1.71-13.72 0-21.61-1-22.87-1.67-.82-.5-1.27-1-1.21-1.42a.81.81 0 0 1 .15-.34c1.75 1 7.15 2.07 23.92 2.07s22.27-1.11 24-2.08a.81.81 0 0 1 .16.35c.06.38-.37.89-1.15 1.38z"/></svg>