<svg id="Layer_1" data-name="Layer 1" xmlns="http://www.w3.org/2000/svg" viewBox="0 0 92.69 81.31"><defs><style>.cls-1{fill:#fff;}</style></defs><title>Icon_RH_Objects_Tachometer_RGB_White</title><path class="cls-1" d="M62.43 18.65a1 1 0 0 0 1.36-.4l4-7.36a1.012 1.012 0 0 0-1.76-1l-4 7.36a1 1 0 0 0 .4 1.4zM14.04 46.51a1 1 0 0 0-1-1H4.68a1 1 0 1 0 0 2h8.36a1 1 0 0 0 1-1zm2.83 15.54l-7 4.35a1 1 0 0 0 1.05 1.7l7-4.35a1 1 0 0 0-1.05-1.7zm29.3-47.67a1 1 0 0 0 1-1V5.01a1 1 0 1 0-2 0v8.37a1 1 0 0 0 1 1zM17.89 28.91l-7-4a1.003 1.003 0 1 0-1 1.74l7 4a1.003 1.003 0 1 0 1-1.74zm69.78 16.6h-1a39.94 39.94 0 0 0-4.93-18.27l1.09-.6a1.012 1.012 0 1 0-1-1.76l-1.63.89a.92.92 0 0 0-.66.36l-5.07 2.76a1.012 1.012 0 1 0 1 1.76l4.52-2.46a37.33 37.33 0 0 1 4.68 17.32h-5.33a1 1 0 0 0 0 2h5.32a39.26 39.26 0 0 1-4.65 17.21l-4.52-2.67a1 1 0 0 0-1 1.72l5 3a1 1 0 0 0 .38.4 1 1 0 0 0 .48.13l1.47.87a1 1 0 1 0 1-1.72l-1.12-.66a41.25 41.25 0 0 0 4.93-18.22h1a1 1 0 0 0 0-2zM67.25 67.59a2.34 2.34 0 1 0 2.34 2.34 2.34 2.34 0 0 0-2.34-2.34zm0 2.68a.34.34 0 1 1 .34-.34.34.34 0 0 1-.34.34zm-42.16-2a2.34 2.34 0 1 0 2.34 2.34 2.34 2.34 0 0 0-2.34-2.35zm0 2.68a.34.34 0 1 1 .34-.34.34.34 0 0 1-.34.33zM46.17 0a46.5 46.5 0 0 0-30.83 81.05l.28.25h61.4l.29-.27A47.36 47.36 0 0 0 92.69 46.5 46.56 46.56 0 0 0 46.17 0zm30.06 79.3H16.44a44.41 44.41 0 1 1 74.24-32.8 45.33 45.33 0 0 1-14.45 32.8zM26.29 9.86a1 1 0 0 0-1.72 1l4.35 7.36a1 1 0 1 0 1.72-1zm39.05 13.5a1 1 0 0 0-1.57-1.23L51.4 37.96a10 10 0 0 0-12.28 15.69l-3.11 4a1 1 0 1 0 1.57 1.23l3.09-3.94a10.01 10.01 0 0 0 12.32-15.78zm-25 28.69a8 8 0 0 1 9.79-12.51zm13.84-5.54a8 8 0 0 1-12.29 6.8l9.84-12.57a8 8 0 0 1 2.48 5.77z"/></svg>