<?xml version="1.0" encoding="utf-8"?>
<!-- Generator: Adobe Illustrator 17.1.0, SVG Export Plug-In . SVG Version: 6.00 Build 0)  -->
<!DOCTYPE svg PUBLIC "-//W3C//DTD SVG 1.1//EN" "http://www.w3.org/Graphics/SVG/1.1/DTD/svg11.dtd">
<svg version="1.1" xmlns="http://www.w3.org/2000/svg" xmlns:xlink="http://www.w3.org/1999/xlink" x="0px" y="0px"
	 viewBox="0 0 216 216" enable-background="new 0 0 216 216" xml:space="preserve">
<g id="Layer_2">
</g>
<g id="Layer_1">
	<g>
		<path fill="#FFFFFF" d="M130.625,131.744l-0.872-32.539c-0.009-0.248-0.14-0.474-0.349-0.606l-6.175-3.896
			c-0.12-0.076-0.259-0.116-0.4-0.116h-2.125V83.024c-0.001-0.095-0.199-9.477-8.781-10.727c-0.12-0.014-2.972-0.342-4.796,0.003
			c-0.838,0.122-1.575,0.341-2.26,0.603c-0.909-0.011-1.884,0.028-2.688,0.179c-9.861,1.429-10.09,12.191-10.091,12.309v9.196
			h-2.624c-0.129,0-0.256,0.033-0.369,0.097l-6.901,3.896c-0.235,0.132-0.38,0.381-0.381,0.65l-0.106,32.543l-1.666,6.798
			c-0.055,0.224-0.004,0.46,0.139,0.642c0.142,0.182,0.359,0.287,0.59,0.287h50.856c0.236,0,0.458-0.111,0.6-0.3
			c0.142-0.189,0.186-0.434,0.12-0.66L130.625,131.744z M127.967,99.465l-0.493,0.251l-1.32-0.674c-0.143-0.073-0.312-0.073-0.455,0
			l-1.321,0.674l-1.308-0.668v-2.673L127.967,99.465z M93.838,99.341v-3.254h22.26v3.064l-1.107,0.565l-1.319-0.674
			c-0.143-0.073-0.312-0.073-0.455,0l-1.32,0.674l-1.321-0.674c-0.143-0.073-0.312-0.073-0.455,0l-1.321,0.674l-1.32-0.674
			c-0.144-0.073-0.312-0.073-0.455,0l-1.321,0.674l-1.32-0.674c-0.143-0.073-0.311-0.073-0.455,0l-1.32,0.674l-1.321-0.674
			c-0.144-0.073-0.312-0.073-0.455,0l-1.32,0.674l-1.32-0.674c-0.144-0.073-0.312-0.073-0.455,0l-1.321,0.674l-1.32-0.674
			c-0.144-0.073-0.312-0.073-0.455,0l-0.824,0.421C93.82,99.421,93.838,99.384,93.838,99.341z M105.159,74.661
			c1.269,0.032,2.345,0.153,2.35,0.153c8.366,1.212,8.585,10.205,8.59,10.577v9.196H100.12V83.043
			C100.123,82.756,100.255,76.791,105.159,74.661z M117.849,99.248v-3.161h3.721v3.482l-0.288,0.147l1.68-0.674
			c-0.143-0.073-0.312-0.073-0.455,0l-1.321,0.674l-1.321-0.674c-0.143-0.073-0.312-0.073-0.455,0l-1.319,0.674l-0.304-0.155
			C117.823,99.463,117.849,99.359,117.849,99.248z M118.954,83.033v11.554h-1.105v-9.206c-0.001-0.095-0.182-8.452-6.976-11.423
			c0.492,0.036,0.822,0.073,0.823,0.073C118.761,75.062,118.949,82.719,118.954,83.033z M93.838,85.4
			c0-0.023,0.038-2.376,1.134-4.877c1.325-3.022,3.571-4.875,6.687-5.552c-3.171,3.196-3.29,7.989-3.291,8.063v11.554h-4.531V85.4z
			 M92.088,99.089l-0.091-0.047c-0.144-0.073-0.312-0.073-0.455,0l-1.32,0.674l-0.007-0.003v-3.626h1.874V99.089z M88.715,98.997
			c-0.092-0.008-0.184,0.001-0.269,0.045l-1.321,0.674l-1.32-0.674c-0.144-0.073-0.312-0.073-0.455,0l-1.32,0.674l-0.418-0.214
			l5.104-2.881V98.997z M81.727,138l1.459-5.956c0.014-0.058,0.021-0.117,0.021-0.176l0.103-31.396l0.492,0.251
			c0.143,0.073,0.311,0.073,0.455,0l1.32-0.674l1.32,0.674c0.144,0.073,0.312,0.073,0.455,0l1.321-0.674l1.321,0.674
			c0.144,0.073,0.312,0.073,0.455,0l1.32-0.674l1.321,0.674c0.144,0.073,0.312,0.073,0.455,0l1.32-0.674l1.32,0.674
			c0.144,0.073,0.312,0.073,0.455,0l1.321-0.674l1.32,0.674c0.144,0.073,0.312,0.073,0.455,0l1.32-0.674l1.321,0.674
			c0.144,0.073,0.312,0.073,0.455,0l1.32-0.674l1.32,0.674c0.144,0.073,0.312,0.073,0.455,0l1.321-0.674l1.32,0.674
			c0.143,0.073,0.312,0.073,0.455,0l1.321-0.674l1.321,0.674c0.143,0.073,0.312,0.073,0.455,0l1.32-0.674l1.319,0.674
			c0.143,0.073,0.312,0.073,0.455,0l1.322-0.674l1.32,0.674c0.143,0.073,0.312,0.073,0.455,0l1.319-0.674l1.321,0.674
			c0.143,0.073,0.312,0.073,0.455,0l1.321-0.674l-1.68,0.674c0.143,0.073,0.312,0.073,0.455,0l1.32-0.674l1.32,0.674
			c0.143,0.073,0.312,0.073,0.455,0l1.321-0.674l1.32,0.674c0.071,0.037,0.149,0.055,0.228,0.055c0.078,0,0.156-0.018,0.228-0.055
			l0.597-0.305l0.832,31.475c0.002,0.061,0.012,0.122,0.029,0.182l1.467,5.925H81.727z"/>
		<path fill="#FFFFFF" d="M124.312,131.365H97.271c-0.276,0-0.5,0.224-0.5,0.5c0,0.276,0.224,0.5,0.5,0.5h27.041
			c0.276,0,0.5-0.224,0.5-0.5C124.812,131.589,124.589,131.365,124.312,131.365z"/>
		<path fill="#FFFFFF" d="M94.9,131.365h-4.364c-0.276,0-0.5,0.224-0.5,0.5c0,0.276,0.224,0.5,0.5,0.5H94.9
			c0.276,0,0.5-0.224,0.5-0.5C95.4,131.589,95.176,131.365,94.9,131.365z"/>
	</g>
</g>
</svg>
