<svg data-name="Layer 1" xmlns="http://www.w3.org/2000/svg" viewBox="0 0 51.16 61.28"><title>Icon_RH_Objects_Envelope-Email_RGB_Black</title><path d="M29.88 32.15l-.67-1.51a7.8 7.8 0 0 1-3.63.81 8.23 8.23 0 0 1-8.47-8.49 8.47 8.47 0 0 1 16.93-.28c0 2.63-.7 4.13-2.43 4.13-1.26 0-1.73-.81-1.73-1.87v-4c0-2.43-1.79-3.77-4.39-3.77a7.09 7.09 0 0 0-4 1.09l1 1.84a5.65 5.65 0 0 1 3-.73 1.46 1.46 0 0 1 1.65 1.51v.76a4.1 4.1 0 0 0-2.18-.53c-2.46-.02-4.38 1.18-4.38 3.53a3.76 3.76 0 0 0 4 3.86 4.46 4.46 0 0 0 3.58-1.56 3.59 3.59 0 0 0 3.27 1.54c2.46 0 4.22-1.59 4.22-5.76a9.78 9.78 0 0 0-10.07-9.79 9.76 9.76 0 0 0-10.09 10.09A9.76 9.76 0 0 0 25.58 33.1a9.25 9.25 0 0 0 4.3-.95zm-2.74-7a2.41 2.41 0 0 1-2.1 1.09c-1.29 0-1.76-.73-1.76-1.54s.61-1.48 1.76-1.48a3.66 3.66 0 0 1 2.1.5zm23.73-1.51l-4.42-4.38V9.1a.75.75 0 0 0-.75-.75H35.46l-7.21-7.16a4.11 4.11 0 0 0-5.82 0l-7 7.13H5.46a.75.75 0 0 0-.75.75v10.1L.29 23.64a1 1 0 0 0-.29.7v35.94a1 1 0 0 0 1 1h49.16a1 1 0 0 0 1-1V24.35a1 1 0 0 0-.29-.71zm-4.42-1.57l2.13 2.16-2.17 1.59zM23.86 2.64a2.16 2.16 0 0 1 3 0l5.72 5.71H18.21zM6.21 9.85h38.74v17.07L29.42 38.27l-1.16-1.15a4.08 4.08 0 0 0-2.89-1.19 4.08 4.08 0 0 0-2.9 1.22l-.94.95L6.21 26.92zm-1.5 12.17v3.8l-2.18-1.59zM2 26.32l18.08 13.21L2 57.84zm1.39 33l20.47-20.77a2.09 2.09 0 0 1 1.49-.63 2.09 2.09 0 0 1 1.48.61l20.91 20.75zm45.77-1.4L30.85 39.7l18.31-13.38z"/></svg>