<svg id="Layer_1" data-name="Layer 1" xmlns="http://www.w3.org/2000/svg" viewBox="0 0 77.57 74.36"><defs><style>.cls-1{fill:#fff;}</style></defs><title>Icon_RH_Objects_LightBulb-Meritocracy_RGB_White</title><path class="cls-1" d="M21.38 34.72a.522.522 0 0 0-.3 1l1 .3h.15a.506.506 0 0 0 .15-1zm1.51-4.73a.5.5 0 1 0 .59-.81l-12.06-8.76a.5.5 0 1 0-.63.76zm.2-9.94a.5.5 0 0 0 .81-.58l-1.29-1.79a.5.5 0 0 0-.81.58zm8.12-1.39a.5.5 0 0 0 .48.35h.15a.5.5 0 0 0 .32-.63l-3.37-10.3a.523.523 0 0 0-1 .31zm-5.6 4.89a.5.5 0 1 0 .81-.58l-.63-.79a.5.5 0 1 0-.81.58zm-.38 22.52h.15l1-.31a.523.523 0 0 0-.31-1l-1 .31a.506.506 0 0 0 .15 1zm-5.38-30.5a.5.5 0 0 0 .81-.58l-.58-.81a.5.5 0 1 0-.81.58zm4 25.51a.5.5 0 0 0-.5-.5H4.43a.5.5 0 0 0 0 1h18.92a.5.5 0 0 0 .5-.5zm-1.53 4.9l-1.84.6a.506.506 0 0 0 .15 1h.15l1.84-.6a.523.523 0 0 0-.31-1zM5.79 30.75a.506.506 0 0 0 .15-1l-1.75-.57a.522.522 0 1 0-.3 1l1.72.55zm2.43.8l1.72.55h.15a.506.506 0 0 0 .15-1l-1.72-.55a.522.522 0 1 0-.3 1zm4.6.42a.522.522 0 0 0-.3 1l1.72.55h.15a.506.506 0 0 0 .15-1zM1.61 28.4l-1-.3a.522.522 0 0 0-.3 1l1 .3h.15a.506.506 0 0 0 .15-1zm15.47 4.95a.522.522 0 0 0-.3 1l1.72.55h.15a.506.506 0 0 0 .15-1zm49.84-1.34a.5.5 0 0 0 .48.35h.15l1.75-.57a.523.523 0 0 0-.31-1l-1.75.57a.5.5 0 0 0-.32.64zM39.01 17.5a.5.5 0 0 0 .5-.5v-1a.5.5 0 0 0-1 0v1a.5.5 0 0 0 .5.5zm18.71-1.67a.5.5 0 0 0 .41-.21l.58-.81a.5.5 0 1 0-.81-.58l-.58.81a.5.5 0 0 0 .41.79zm2.53 17.8l-1.74.55a.506.506 0 0 0 .15 1h.13l1.75-.57a.523.523 0 0 0-.31-1zm-4.36 1.42l-1 .31a.506.506 0 0 0 .15 1h.15l1-.31a.523.523 0 0 0-.31-1zm8.73-2.87l-1.75.56a.506.506 0 0 0 .15 1h.15l1.76-.56a.523.523 0 0 0-.31-1zM17.73 47.47l-1.84.6a.506.506 0 0 0 .15 1h.15l1.84-.6a.523.523 0 0 0-.31-1zm36.71-17.59a.5.5 0 0 0 .7.11l12-8.69a.5.5 0 1 0-.59-.81l-12 8.69a.5.5 0 0 0-.11.7zm.08-9.6a.5.5 0 0 0 .41-.21l1.28-1.78a.5.5 0 1 0-.81-.58l-1.28 1.77a.5.5 0 0 0 .41.79zM39.01 7.58a.5.5 0 0 0 .5-.5V4.85a.5.5 0 0 0-1 0v2.23a.5.5 0 0 0 .5.5zm0 5.58a.5.5 0 0 0 .5-.5v-2.24a.5.5 0 1 0-1 0v2.23a.5.5 0 0 0 .5.53zm0-11.15a.5.5 0 0 0 .5-.5v-1a.5.5 0 0 0-1 0v1a.5.5 0 0 0 .5.49zm13 21.75a.5.5 0 0 0 .41-.21l.58-.81a.5.5 0 1 0-.81-.56l-.58.81a.5.5 0 0 0 .41.79zm-5.81-4.58h.15a.5.5 0 0 0 .48-.35L50.1 8.58a.522.522 0 0 0-1-.3l-3.23 10.23a.5.5 0 0 0 .33.67zM52.79 45l-1-.31a.523.523 0 1 0-.31 1l1 .31h.16a.506.506 0 0 0 .16-1zM15.47 72.64l-.59.81a.5.5 0 1 0 .81.59l.59-.81a.5.5 0 0 0-.81-.59zm-2.33-23.68l-1.84.6a.506.506 0 0 0 .15 1h.15l1.84-.6a.523.523 0 0 0-.31-1zm36.83 6.38a.5.5 0 1 0-.81.59l1.25 1.72a.5.5 0 1 0 .81-.59zm3.13 4.3a.5.5 0 1 0-.81.59l1.25 1.72a.5.5 0 0 0 .81-.59zM73.35 29.4l-1.75.57a.506.506 0 0 0 .15 1h.15l1.75-.57a.523.523 0 0 0-.31-1zM56.23 63.95a.5.5 0 1 0-.81.59l1.25 1.72a.5.5 0 0 0 .81-.59zm-10.5-5.77v-4.31a1.65 1.65 0 0 0-.94-1.53c.12-3.31 1.63-5.08 3.39-7.1 2.19-2.52 4.67-5.37 4.67-11.55 0-4.78-4-13.71-13.76-13.71s-13.74 8.93-13.74 13.71c0 6.18 2.48 9 4.67 11.55 1.76 2 3.27 3.79 3.39 7.1a1.65 1.65 0 0 0-.92 1.52v4.32c0 .59.34.87 1.75 2l.36.3a5.77 5.77 0 0 0 4.51 1.55 5.77 5.77 0 0 0 4.51-1.55l.36-.3c1.41-1.12 1.75-1.4 1.75-2zm-3 .48l-.38.31a3.91 3.91 0 0 1-3.22 1.08 3.9 3.9 0 0 1-3.22-1.08l-.38-.31c-.24-.2-.74-.61-1-.86v-1.9l9 2.13zm1-1.62l-9.24-2.17v-.69h9.24zm-5.43-4.86a41.48 41.48 0 0 0-4.14-16.12 2.7 2.7 0 0 0 .92-1.19c.36-.69.63-1.14 1.05-1.14s.58.28.92.93.81 1.52 1.92 1.52 1.6-.89 1.91-1.53.48-.92.93-.92.64.26 1 .94a2.33 2.33 0 0 0 1.25 1.51 41.45 41.45 0 0 0-4.12 16zm4.49 0h-1.84c.19-10 5.89-19.24 5.95-19.33a.5.5 0 0 0-.85-.53s-.67 1.09-1.54 2.85c-.38 0-.56-.31-.84-.92s-.7-1.51-1.87-1.51-1.53.86-1.83 1.49-.51 1-1 1-.67-.3-1-1-.77-1.46-1.8-1.46-1.57 1-1.94 1.68a3.07 3.07 0 0 1-.47.74c-.86-1.75-1.51-2.8-1.53-2.83a.5.5 0 0 0-.85.53c.06.09 5.76 9.35 5.95 19.33H35.4c-.16-4-2-6.18-3.87-8.29-2.06-2.37-4.18-4.81-4.18-10.24 0-3.13 2.79-11.71 11.76-11.71s11.76 8.58 11.76 11.71c0 5.43-2.13 7.88-4.18 10.24-1.83 2.11-3.71 4.31-3.9 8.25zm4-.38a.5.5 0 0 0-.11.7l.59.81a.5.5 0 0 0 .81-.59l-.59-.81a.5.5 0 0 0-.7-.06zm26.47-11.22H54.01a.5.5 0 0 0 0 1h19.25a.5.5 0 0 0 0-1zm-13.9 27.67a.5.5 0 1 0-.81.59l1.24 1.72a.5.5 0 1 0 .81-.59zm6.78-17.83h.16a.506.506 0 0 0 .16-1l-1.82-.59a.523.523 0 0 0-.31 1zm-9.11-3h.16a.506.506 0 0 0 .16-1l-1.82-.59a.523.523 0 1 0-.31 1zm4.55 1.49h.16a.506.506 0 0 0 .16-1l-1.82-.6a.523.523 0 1 0-.31 1zm.91 23.62a.5.5 0 1 0-.81.59l.59.81a.5.5 0 1 0 .81-.59zM49.06 47.76a.5.5 0 0 0-.59.81l18 13.08a.5.5 0 1 0 .59-.81zm-3 13.58a.5.5 0 1 0-.95.31l4.08 12.37a.5.5 0 0 0 .47.34h.16a.5.5 0 0 0 .32-.63zm-27.46 7l-1.26 1.73a.5.5 0 1 0 .81.59l1.26-1.73a.5.5 0 1 0-.81-.59zM21.79 64l-1.26 1.73a.5.5 0 1 0 .81.59l1.26-1.73a.5.5 0 1 0-.81-.59zm3.14-4.32l-1.26 1.73a.5.5 0 1 0 .81.59l1.26-1.73a.5.5 0 1 0-.81-.59zm45.23-9l-1-.31a.523.523 0 0 0-.31 1l1 .31h.16a.506.506 0 0 0 .16-1zm-40.8-2.54a.5.5 0 0 0-.7-.11L10.79 60.98a.5.5 0 1 0 .59.81l17.86-13a.5.5 0 0 0 .1-.67zm48.19-19.58a.5.5 0 0 0-.63-.32l-1 .31a.506.506 0 0 0 .15 1h.15l1-.31a.5.5 0 0 0 .33-.68zm-69 21.89l-1 .31a.506.506 0 0 0 .15 1h.15l1-.31a.523.523 0 0 0-.31-1zm30.46 21.88a.5.5 0 0 0-.5.5v1a.5.5 0 0 0 1 0v-1a.5.5 0 0 0-.5-.5zm0-4.14a.5.5 0 0 0-.5.5v1.66a.5.5 0 0 0 1 0v-1.66a.5.5 0 0 0-.5-.51zM28.79 55.25a.5.5 0 0 0-.7.11l-1.3 1.72a.5.5 0 1 0 .81.59l1.26-1.73a.5.5 0 0 0-.07-.69zm10.26 9.46a.5.5 0 0 0-.5.5v1a.5.5 0 0 0 1 0v-1.03a.5.5 0 0 0-.54-.47zm-8.26-11.36l.59-.81a.5.5 0 1 0-.81-.59l-.59.81a.5.5 0 1 0 .81.59zm1.67 8.09a.5.5 0 0 0-.63.32l-3.89 11.79a.5.5 0 0 0 .32.63h.16a.5.5 0 0 0 .48-.34l3.85-11.79a.5.5 0 0 0-.33-.61z"/></svg>