<?xml version="1.0" encoding="utf-8"?>
<!-- Generator: Adobe Illustrator 17.1.0, SVG Export Plug-In . SVG Version: 6.00 Build 0)  -->
<!DOCTYPE svg PUBLIC "-//W3C//DTD SVG 1.1//EN" "http://www.w3.org/Graphics/SVG/1.1/DTD/svg11.dtd">
<svg version="1.1" id="Layer_1" xmlns="http://www.w3.org/2000/svg" xmlns:xlink="http://www.w3.org/1999/xlink" x="0px" y="0px"
	 viewBox="0 0 216 216" enable-background="new 0 0 216 216" xml:space="preserve">
<g>
	<path d="M108,68.204c-14.247,0.001-25.903,11.545-25.907,25.801c-0.001,5.948,0.965,10.316,2.443,13.728
		c2.222,5.123,5.558,8.021,8.143,10.902c1.298,1.443,2.416,2.877,3.215,4.592c0.798,1.715,1.295,3.727,1.297,6.398
		c0,0.63,0.19,1.214,0.512,1.702c-0.66,0.572-1.093,1.454-1.093,2.454v0.342c0,0.549,0.122,1.074,0.351,1.531
		c-0.229,0.461-0.351,0.998-0.351,1.576v0.342c0,0.561,0.123,1.088,0.354,1.549c-0.231,0.459-0.354,0.973-0.354,1.502v0.34
		c0,0.811,0.278,1.58,0.783,2.162c0.09,0.104,0.2,0.189,0.323,0.25c1.088,0.535,1.825,1.156,2.538,1.756
		c1.627,1.373,3.163,2.666,7.746,2.666s6.12-1.293,7.745-2.666c0.714-0.6,1.451-1.221,2.539-1.756
		c0.123-0.061,0.234-0.146,0.325-0.252c0.503-0.582,0.781-1.35,0.781-2.158v-0.342c0-0.529-0.123-1.043-0.354-1.502
		c0.231-0.461,0.354-0.988,0.354-1.549v-0.342c0-0.578-0.123-1.115-0.351-1.576c0.228-0.457,0.351-0.982,0.351-1.531v-0.342
		c0-1-0.434-1.882-1.094-2.455c0.322-0.488,0.513-1.071,0.513-1.701c0.007-3.564,0.876-5.951,2.196-8.029
		c0.993-1.559,2.271-2.94,3.662-4.414c2.083-2.209,4.423-4.637,6.218-8.215c1.799-3.577,3.023-8.271,3.021-14.962
		C133.903,79.749,122.247,68.205,108,68.204z M117.328,134.123c0,0.334-0.104,0.639-0.288,0.836
		c-0.375,0.402-0.366,1.029,0.02,1.424c0.173,0.176,0.268,0.477,0.268,0.848v0.342c0,0.342-0.104,0.646-0.284,0.838
		c-0.364,0.389-0.372,0.992-0.019,1.391c0.192,0.217,0.303,0.518,0.303,0.822v0.342c0,0.246-0.064,0.482-0.181,0.674
		c-1.188,0.617-2.005,1.305-2.729,1.916c-1.446,1.219-2.588,2.18-6.418,2.18c-3.829,0-4.972-0.961-6.418-2.18
		c-0.725-0.611-1.54-1.299-2.73-1.918c-0.115-0.189-0.18-0.426-0.18-0.674v-0.34c0-0.305,0.111-0.605,0.304-0.822
		c0.354-0.398,0.345-1.002-0.02-1.391c-0.181-0.191-0.284-0.496-0.284-0.838v-0.342c0-0.371,0.095-0.672,0.269-0.848
		c0.385-0.395,0.395-1.021,0.02-1.424c-0.184-0.197-0.288-0.502-0.288-0.836v-0.342c0-0.564,0.351-1.062,0.753-1.062h0.859h15.432
		h0.86c0.4,0,0.752,0.498,0.752,1.062V134.123z M129.57,106.914c-2.025,4.676-5.06,7.325-7.782,10.344
		c-1.355,1.506-2.625,3.109-3.552,5.098c-0.929,1.984-1.491,4.34-1.489,7.27c-0.002,0.57-0.463,1.031-1.031,1.031h-15.432
		c-0.568,0-1.03-0.461-1.031-1.031c0.007-3.906-1.011-6.791-2.521-9.141c-1.129-1.766-2.505-3.234-3.9-4.717
		c-2.098-2.223-4.236-4.461-5.875-7.725c-1.635-3.266-2.799-7.59-2.802-14.038c0-6.555,2.682-12.483,7.004-16.784
		c4.327-4.299,10.284-6.955,16.842-6.955c6.557,0,12.516,2.656,16.841,6.955c4.323,4.3,7.004,10.229,7.004,16.784
		C131.843,99.735,130.921,103.792,129.57,106.914z"/>
	<path d="M127.1,104.807c-0.259-0.107-0.565,0.018-0.673,0.282c-0.157,0.384-0.323,0.754-0.498,1.109
		c-0.124,0.256-0.019,0.564,0.237,0.69c0.072,0.036,0.148,0.054,0.227,0.054c0.19,0,0.373-0.107,0.463-0.29
		c0.185-0.375,0.358-0.766,0.524-1.173C127.489,105.215,127.363,104.915,127.1,104.807z"/>
	<path d="M128.631,97.412c-0.282-0.025-0.533,0.183-0.561,0.466c-0.055,0.591-0.121,1.159-0.199,1.703
		c-0.078,0.543-0.169,1.061-0.271,1.56c-0.101,0.498-0.213,0.975-0.333,1.432c-0.072,0.275,0.092,0.557,0.366,0.629
		c0.045,0.012,0.089,0.018,0.132,0.018c0.229,0,0.439-0.153,0.499-0.385c0.126-0.476,0.242-0.973,0.348-1.489
		c0.106-0.517,0.198-1.055,0.279-1.618c0.081-0.561,0.149-1.146,0.206-1.755C129.123,97.689,128.915,97.438,128.631,97.412z"/>
	<path d="M128.834,89.745c-0.141-0.685-0.317-1.367-0.525-2.026c-0.204-0.655-0.447-1.31-0.717-1.944
		c-0.266-0.628-0.568-1.251-0.896-1.851c-0.326-0.596-0.685-1.183-1.067-1.745c-0.386-0.567-0.798-1.116-1.225-1.628
		c-0.429-0.516-0.89-1.021-1.373-1.503c-0.478-0.476-0.986-0.936-1.511-1.366c-0.527-0.435-1.079-0.845-1.638-1.22
		c-0.231-0.157-0.555-0.096-0.715,0.14c-0.159,0.237-0.096,0.557,0.141,0.716c0.531,0.356,1.055,0.746,1.558,1.161
		c0.499,0.41,0.982,0.848,1.438,1.3c0.46,0.458,0.899,0.939,1.308,1.431c0.405,0.487,0.797,1.009,1.166,1.549
		c0.362,0.535,0.705,1.093,1.015,1.661c0.312,0.57,0.6,1.162,0.853,1.759c0.258,0.603,0.487,1.225,0.681,1.849
		c0.198,0.627,0.366,1.274,0.499,1.925c0.138,0.668,0.24,1.34,0.309,1.997c0.068,0.679,0.104,1.37,0.104,2.056
		c0,0.285,0.23,0.516,0.516,0.516c0.285,0,0.516-0.231,0.516-0.516c0-0.72-0.037-1.447-0.11-2.16
		C129.087,91.154,128.979,90.448,128.834,89.745z"/>
	<path d="M118.526,94.62c-0.401-0.142-0.844,0.068-0.985,0.471l-0.512,1.448c-0.63-0.061-0.96-0.416-1.318-0.839l-0.161-0.188
		c-0.066-0.076-0.121-0.157-0.174-0.234c-0.203-0.294-0.509-0.738-1.199-0.738c-0.718,0-1.078,0.485-1.314,0.807
		c-0.045,0.06-0.09,0.12-0.134,0.175l-0.108,0.131c-0.384,0.468-0.746,0.91-1.543,0.91c-0.852,0-1.224-0.488-1.629-1.022
		c-0.048-0.061-0.09-0.13-0.134-0.201c-0.211-0.33-0.562-0.883-1.287-0.883c-0.703,0-1.062,0.538-1.277,0.86
		c-0.05,0.074-0.095,0.144-0.143,0.2l-0.135,0.161c-0.379,0.456-0.737,0.886-1.512,0.886c-0.86,0-1.277-0.474-1.604-0.987
		l-0.079-0.131c-0.223-0.37-0.594-0.988-1.379-0.988c-0.753,0-1.119,0.59-1.338,0.943l-0.102,0.157
		c-0.356,0.508-0.75,0.956-1.523,0.993l-0.477-1.348c-0.143-0.403-0.583-0.612-0.987-0.471c-0.402,0.143-0.613,0.584-0.472,0.987
		l4.695,13.28c0.248,0.695,0.49,1.916,0.529,2.664l0.761,14.555c0.021,0.414,0.363,0.734,0.771,0.734c0.014,0,0.026,0,0.04,0
		c0.428-0.024,0.755-0.387,0.733-0.814l-0.761-14.557c-0.047-0.896-0.318-2.26-0.616-3.1l-3.862-10.924
		c1.143-0.175,1.72-0.991,2.013-1.408c0.042-0.061,0.085-0.131,0.132-0.205c0.199-0.321,0.307-0.455,0.462-0.455
		c0.171,0,0.278,0.128,0.495,0.488l0.092,0.151c0.399,0.63,1.088,1.467,2.475,1.467c1.258,0,1.887-0.757,2.304-1.257l0.124-0.149
		c0.074-0.085,0.146-0.189,0.22-0.299c0.197-0.296,0.29-0.401,0.419-0.401c0.137,0,0.22,0.096,0.416,0.404
		c0.062,0.096,0.12,0.189,0.196,0.29c0.428,0.562,1.073,1.413,2.438,1.413c1.286,0,1.921-0.775,2.341-1.288l0.103-0.124
		c0.059-0.071,0.114-0.146,0.17-0.222c0.227-0.306,0.313-0.389,0.486-0.389c0.13,0,0.16,0.018,0.348,0.292
		c0.077,0.11,0.155,0.223,0.251,0.33l0.149,0.173c0.37,0.438,0.862,1.008,1.749,1.175l-3.828,10.825
		c-0.298,0.84-0.568,2.203-0.615,3.102l-0.762,14.557c-0.021,0.428,0.305,0.793,0.732,0.814c0.015,0,0.027,0,0.041,0
		c0.407,0,0.75-0.32,0.771-0.732l0.761-14.559c0.039-0.746,0.282-1.967,0.529-2.666l4.695-13.276
		C119.141,95.204,118.931,94.763,118.526,94.62z"/>
	<path d="M102.121,136.264h9.775c0.285,0,0.516-0.229,0.516-0.516c0-0.283-0.23-0.516-0.516-0.516h-9.775
		c-0.285,0-0.516,0.232-0.516,0.516C101.605,136.035,101.836,136.264,102.121,136.264z"/>
	<path d="M115.046,138.549h-13.899c-0.285,0-0.516,0.232-0.516,0.516c0,0.287,0.23,0.516,0.516,0.516h13.899
		c0.285,0,0.516-0.229,0.516-0.516C115.562,138.781,115.331,138.549,115.046,138.549z"/>
	<path d="M111.952,141.867h-7.712c-0.285,0-0.516,0.23-0.516,0.516c0,0.285,0.231,0.516,0.516,0.516h7.712
		c0.285,0,0.516-0.23,0.516-0.516C112.468,142.098,112.237,141.867,111.952,141.867z"/>
</g>
</svg>
