<?xml version="1.0" encoding="utf-8"?>
<!-- Generator: Adobe Illustrator 17.1.0, SVG Export Plug-In . SVG Version: 6.00 Build 0)  -->
<!DOCTYPE svg PUBLIC "-//W3C//DTD SVG 1.1//EN" "http://www.w3.org/Graphics/SVG/1.1/DTD/svg11.dtd">
<svg version="1.1" id="Layer_1" xmlns="http://www.w3.org/2000/svg" xmlns:xlink="http://www.w3.org/1999/xlink" x="0px" y="0px"
	 viewBox="0 0 216 216" enable-background="new 0 0 216 216" xml:space="preserve">
<g>
	<g>
		<g>
			<path fill="#FFFFFF" d="M88.661,141.878c1.749-1.94,1.456-4.973,1.446-5.048l-1.05-32.526c0-0.366-0.011-0.715-0.022-1.055
				c-0.073-2.311-0.121-3.838,3.55-6.739c4.811-3.802,3.706-10.52,3.659-10.796c-1.074-6.604-5.853-10.335-6.06-10.494
				c-1.845-1.39-3.317-2.066-4.5-2.066c-1.246,0-1.844,0.77-2.002,1.225c-0.055,0.16-0.053,0.336,0.005,0.496l2.793,7.624
				l-0.463,3.638l-3.731,1.742l-2.821-2.463c-0.294-0.795-1.504-4.078-2.122-5.818c-0.516-1.453-1.063-2.151-1.777-2.263
				c-0.442-0.07-0.809,0.132-1.017,0.352c-5.978,5.201-1.146,14.49-0.85,15.044c0.062,0.132,0.523,1.084,1.292,2.317l-0.459,0.217
				c-1.138,0.539-1.488,1.859-0.849,3.207c0.428,0.906,1.148,1.425,1.976,1.425c0.316,0,0.639-0.076,0.959-0.227l1.459-0.69
				c0.218,0.213,0.44,0.421,0.672,0.616c1.273,1.078,1.745,1.758,1.629,4.643l-1.115,32.537c-0.011,0.127-0.274,3.092,1.494,5.037
				c0.971,1.068,2.337,1.61,4.061,1.61C86.444,143.422,87.737,142.901,88.661,141.878z M80.741,136.871l1.117-32.578
				c0.122-3.044-0.341-4.296-2.154-5.829c-2.066-1.748-3.667-4.476-4.335-5.723l11.644-5.436c0.23-0.108,0.389-0.326,0.42-0.578
				l0.538-4.222c0.015-0.118,0.001-0.237-0.04-0.348l-2.716-7.416c0.093-0.057,0.239-0.108,0.468-0.108
				c0.472,0,1.567,0.23,3.603,1.764c0.045,0.034,4.52,3.547,5.497,9.56c0.01,0.062,0.995,6.14-3.117,9.39
				c-4.256,3.365-4.19,5.488-4.111,7.949c0.01,0.324,0.021,0.658,0.021,1.031l1.054,32.602c0.003,0.024,0.223,2.524-1.068,3.956
				c-0.64,0.71-1.538,1.057-2.743,1.057c-1.286,0-2.282-0.378-2.961-1.121C80.531,139.367,80.735,136.939,80.741,136.871z
				 M75.392,78.918c0.122,0.166,0.319,0.505,0.556,1.174c0.707,1.995,2.193,6.013,2.193,6.013c0.043,0.117,0.114,0.22,0.208,0.301
				l2.47,2.156l-6.11,2.854C73.771,89.356,71.235,82.715,75.392,78.918z M76.144,98.665c-0.17,0.08-0.333,0.121-0.484,0.121
				c-0.521,0-0.833-0.495-0.973-0.79c-0.226-0.478-0.414-1.38,0.321-1.728l0.597-0.283c0.48,0.703,1.037,1.443,1.664,2.147
				L76.144,98.665z"/>
			<path fill="#FFFFFF" d="M89.87,93.021c0.109,0.145,0.276,0.223,0.445,0.223c0.116,0,0.232-0.037,0.332-0.111
				c0.245-0.184,0.295-0.531,0.112-0.776L88.6,89.47c-0.185-0.246-0.532-0.295-0.778-0.113c-0.246,0.184-0.295,0.532-0.112,0.778
				L89.87,93.021z"/>
			<path fill="#FFFFFF" d="M87.872,93.992c0.109,0.145,0.276,0.222,0.445,0.222c0.116,0,0.232-0.036,0.331-0.11
				c0.246-0.184,0.296-0.532,0.112-0.777l-2.16-2.885c-0.184-0.245-0.531-0.296-0.777-0.112c-0.246,0.184-0.295,0.532-0.112,0.777
				L87.872,93.992z"/>
			<path fill="#FFFFFF" d="M83.713,92.077l2.161,2.887c0.109,0.145,0.275,0.223,0.445,0.223c0.116,0,0.231-0.037,0.331-0.111
				c0.246-0.184,0.296-0.532,0.112-0.777l-2.16-2.887c-0.184-0.244-0.532-0.295-0.777-0.111
				C83.581,91.484,83.53,91.832,83.713,92.077z"/>
			<path fill="#FFFFFF" d="M84.652,96.046c0.246-0.184,0.296-0.532,0.112-0.777l-2.159-2.886c-0.184-0.245-0.531-0.294-0.777-0.112
				c-0.245,0.184-0.295,0.532-0.112,0.777l2.159,2.886c0.109,0.145,0.276,0.223,0.445,0.223
				C84.435,96.156,84.552,96.12,84.652,96.046z"/>
			<path fill="#FFFFFF" d="M84.782,135.049c-0.513,0-1.012,0.146-1.447,0.421c-1.253,0.8-1.625,2.47-0.828,3.723
				c0.498,0.783,1.349,1.251,2.278,1.251c0.512,0,1.012-0.146,1.446-0.423c1.255-0.797,1.626-2.468,0.829-3.723
				C86.56,135.515,85.71,135.049,84.782,135.049z M85.635,139.085c-0.718,0.459-1.737,0.227-2.191-0.488
				c-0.469-0.738-0.25-1.72,0.488-2.189c0.254-0.163,0.549-0.248,0.85-0.248c0.546,0,1.047,0.274,1.34,0.734
				C86.592,137.632,86.372,138.616,85.635,139.085z"/>
		</g>
		<g>
			<path fill="#FFFFFF" d="M99.868,142.329c1.255,1.346,3.717,2.029,7.315,2.029c3.599,0,6.06-0.683,7.315-2.029
				c0.854-0.917,0.82-1.812,0.814-1.859v-19.184c0-0.195-0.078-0.384-0.217-0.523c-1.14-1.139-1.698-2.25-1.66-3.301
				c0.046-1.257,0.957-2.058,0.963-2.061c0.167-0.141,0.264-0.349,0.264-0.566v-4.742c0-0.408-0.332-0.74-0.74-0.74h-3.896V89.04
				l1.344-3.73c0.044-0.121,0.055-0.252,0.032-0.379l-1.727-9.839c-0.062-0.354-0.369-0.612-0.729-0.612h-3.528
				c-0.359,0-0.667,0.259-0.729,0.612l-1.726,9.839c-0.022,0.127-0.012,0.258,0.033,0.379l1.343,3.73v20.312h-3.896
				c-0.41,0-0.741,0.332-0.741,0.74v4.742c0,0.218,0.097,0.426,0.265,0.566c0.009,0.008,0.907,0.794,0.961,2.043
				c0.045,1.056-0.511,2.174-1.658,3.319c-0.139,0.14-0.217,0.328-0.217,0.523l0.002,19.132
				C99.049,140.518,99.013,141.412,99.868,142.329z M104.209,142.67c-0.439-0.069-0.818-0.155-1.159-0.251v-16.333
				c0-0.686,0-1.277,0.117-1.606c0.051-0.144,0.099-0.278,0.52-0.278c0.405,0,0.522,0.251,0.522,1.912V142.67z M111.397,142.398
				c-0.341,0.098-0.717,0.188-1.16,0.262v-16.547c0-1.661,0.119-1.912,0.522-1.912c0.344,0,0.44,0.108,0.517,0.337
				c0.121,0.354,0.121,0.936,0.121,1.575V142.398z M105.777,88.66l-1.322-3.666l1.585-9.033h2.286l1.586,9.033l-1.321,3.666
				c-0.028,0.08-0.044,0.165-0.044,0.25v20.442h-2.726V88.91C105.821,88.825,105.805,88.739,105.777,88.66z M100.535,121.587
				c1.305-1.382,1.934-2.796,1.873-4.208c-0.062-1.413-0.813-2.409-1.225-2.854v-3.692h3.898h4.205h3.896v3.692
				c-0.412,0.445-1.162,1.441-1.224,2.854c-0.062,1.412,0.568,2.826,1.874,4.208v18.909c0,0.014-0.036,0.806-1.326,1.474v-15.88
				c0-0.71,0-1.38-0.178-1.906c-0.241-0.715-0.783-1.094-1.569-1.094c-1.633,0-1.633,1.677-1.633,3.023v16.681
				c-0.576,0.052-1.214,0.084-1.943,0.084c-0.697,0-1.306-0.03-1.863-0.078v-16.687c0-1.347,0-3.023-1.633-3.023
				c-0.799,0-1.327,0.343-1.565,1.019c-0.182,0.509-0.182,1.157-0.182,2.005v15.894c-1.367-0.678-1.405-1.508-1.405-1.537V121.587z"
				/>
		</g>
		<g>
			<path fill="#FFFFFF" d="M143.061,74.476l-2.97,0.053c-0.092,0.001-0.184,0.021-0.269,0.056c-0.012,0.005-1.25,0.505-2.674,0.505
				c-1.217,0-2.193-0.36-2.903-1.069c-0.139-0.139-0.326-0.216-0.522-0.216l-5.831,0.002c-0.091,0.006-9.065,0.781-11.358,10.219
				c-0.153,0.638-0.068,1.755,0.604,2.24c0.168,0.12,0.37,0.184,0.588,0.184c0.767,0,1.541-0.787,1.806-1.134
				c0.021-0.031,2.076-3.133,3.745-4.39c0.238-0.187,1.051-0.718,1.646-0.718c0.19,0,0.407,0.036,0.58,0.462
				c0.473,1.167,0.915,3.608,1.271,5.569l0.056,0.299c0.062,0.343,0.355,0.591,0.701,0.604v20.367
				c-0.752,0.435-1.244,1.184-1.244,2.055l-0.082,31.447c0,1.59,2.541,2.456,3.846,2.456h1.605c1.333,0,3.926-0.866,3.926-2.458
				l-0.082-31.444c0-0.871-0.491-1.621-1.245-2.056V87.117c0.301-0.066,0.54-0.303,0.58-0.62l0.553-4.392
				c0.511-0.445,1.076-0.661,1.725-0.661c1.333,0,2.522,0.93,2.532,0.938c0.128,0.102,0.286,0.16,0.449,0.163l2.97,0.053
				c0.268-0.017,0.524-0.141,0.657-0.378c0.072-0.128,0.706-1.325,0.706-3.731c0-2.323-0.674-3.575-0.702-3.627
				C143.59,74.619,143.338,74.478,143.061,74.476z M142.58,81.107l-2.227-0.039c-0.039-0.027-0.091-0.061-0.139-0.092
				c0.085-0.444,0.167-1.13,0.167-2.136c0-1.195-0.121-2.207-0.213-2.806c0.024-0.01,0.058-0.021,0.081-0.029l2.33-0.041
				c0.154,0.458,0.364,1.306,0.364,2.522C142.944,79.78,142.733,80.649,142.58,81.107z M127.685,141.013l0.082-31.449
				c0-0.537,0.584-0.975,1.3-0.975h3.651c0.717,0,1.3,0.438,1.3,0.976l0.083,31.432c-0.089,0.335-1.441,0.989-2.446,0.989h-1.605
				C129.055,141.986,127.754,141.336,127.685,141.013z M132.718,107.108h-3.651c-0.018,0-0.036,0.003-0.056,0.004V87.146h3.762
				v19.967C132.754,107.112,132.737,107.108,132.718,107.108z M134.16,81.224c-0.115,0.116-0.191,0.268-0.21,0.431l-0.505,4.01
				h-5.271c-0.372-2.054-0.794-4.305-1.298-5.55c-0.362-0.894-1.056-1.387-1.953-1.387c-1.214,0-2.427,0.928-2.548,1.024
				c-1.862,1.404-3.989,4.613-4.048,4.705c-0.098,0.128-0.241,0.258-0.365,0.355c-0.019-0.142-0.021-0.307,0.012-0.437
				c2.032-8.371,9.704-9.067,9.974-9.09h5.483c0.968,0.853,2.217,1.285,3.719,1.285c0.724,0,1.396-0.103,1.94-0.226
				c0.083,0.57,0.182,1.459,0.182,2.497c0,0.701-0.042,1.212-0.093,1.582c-0.579-0.249-1.294-0.46-2.068-0.46
				C135.99,79.963,134.998,80.387,134.16,81.224z"/>
		</g>
	</g>
</g>
</svg>
