<svg id="Layer_1" data-name="Layer 1" xmlns="http://www.w3.org/2000/svg" viewBox="0 0 63.98 41.09"><defs><style>.cls-1{fill:#fff;}</style></defs><title>Icon_RH_Object_CreditCard_RGB_White</title><path class="cls-1" d="M37.06 27.34c1.84 0 3.57-1.48 4.63-3 .05.16.12.08.19.24s.26.48.4.74c0 .07.07.11.1.17a8.89 8.89 0 0 0-.31 1.47.48.48 0 0 0 .34.53 1.6 1.6 0 0 0 .46.06 1.62 1.62 0 0 0 .83-.23.49.49 0 0 0 .23-.5 5.65 5.65 0 0 0-.49-1.41 2.67 2.67 0 0 1 .14-.27 1.63 1.63 0 0 1 1.41-.84.93.93 0 0 1 .67.39.71.71 0 0 1 .13.32v.29a.482.482 0 0 0 .95.16 1.44 1.44 0 0 0 .05-.38 2.62 2.62 0 0 1 1.49-1.84 15 15 0 0 1 .15 3.19v.29a.5.5 0 0 0 1 .06v-.27a1.8 1.8 0 0 1 .56-1.36.71.71 0 0 1 .71 0c.12.08.18.17.16.26a.48.48 0 0 0 .23.49.49.49 0 0 0 .54 0 3.78 3.78 0 0 1 2.25-.36 4.08 4.08 0 0 0 3-.73.485.485 0 1 0-.66-.71 3.33 3.33 0 0 1-2.35.48 5.86 5.86 0 0 0-2.28.25 1.39 1.39 0 0 0-.43-.43 1.67 1.67 0 0 0-1.76 0l-.1.07a15.91 15.91 0 0 0-.23-1.93.49.49 0 0 0-.57-.38 3.51 3.51 0 0 0-2.34 1.71 1.88 1.88 0 0 0-1.17-.54 2.54 2.54 0 0 0-2.07 1.09l-.15-.32a3.79 3.79 0 0 1-.36-1.42 5.47 5.47 0 0 0 .29-1.07.48.48 0 0 0-.31-.53.49.49 0 0 0-.58.21 2.6 2.6 0 0 0-.35 1.25 5.22 5.22 0 0 1-4.47 3.18c-.27 0-.47.54-.46.8s.27.82.53.82zm-30.25 3.2h50.3a.75.75 0 0 0 0-1.5H6.81a.75.75 0 1 0 0 1.5zm0 3h10.52a.75.75 0 1 0 0-1.5H6.81a.75.75 0 1 0 0 1.5zM60.1 0H3.88A3.88 3.88 0 0 0-.01 3.87v33.34a3.88 3.88 0 0 0 3.88 3.88H60.1a3.88 3.88 0 0 0 3.89-3.88V3.87A3.88 3.88 0 0 0 60.1 0zm1.89 37.21a1.88 1.88 0 0 1-1.87 1.88H3.88a1.88 1.88 0 0 1-1.89-1.88V16.34h60zm0-22.87h-60v-4h60zm0-6h-60V3.87A1.88 1.88 0 0 1 3.87 2H60.1a1.88 1.88 0 0 1 1.89 1.87z"/></svg>