<?xml version="1.0" encoding="utf-8"?>
<!-- Generator: Adobe Illustrator 17.1.0, SVG Export Plug-In . SVG Version: 6.00 Build 0)  -->
<!DOCTYPE svg PUBLIC "-//W3C//DTD SVG 1.1//EN" "http://www.w3.org/Graphics/SVG/1.1/DTD/svg11.dtd">
<svg version="1.1" id="Layer_1" xmlns="http://www.w3.org/2000/svg" xmlns:xlink="http://www.w3.org/1999/xlink" x="0px" y="0px"
	 viewBox="0 0 144 144" enable-background="new 0 0 144 144" xml:space="preserve">
<g>
	<g>
		<path d="M99.521,50.687H44.478c-0.553,0-1,0.447-1,1v39.115c0,0.553,0.447,1,1,1h55.043c0.553,0,1-0.447,1-1V51.687
			C100.521,51.134,100.074,50.687,99.521,50.687z M98.521,89.802H45.478V52.687h53.043V89.802z"/>
		<path d="M86.658,67.062h7.137c0.414,0,0.75-0.336,0.75-0.75v-8.501c0-0.414-0.336-0.75-0.75-0.75h-7.137
			c-0.414,0-0.75,0.336-0.75,0.75v8.501C85.908,66.726,86.244,67.062,86.658,67.062z M87.408,58.561h5.637v7.001h-5.637V58.561z"/>
		<path d="M58.95,72.237c0,0.414,0.336,0.75,0.75,0.75h24.046c0.414,0,0.75-0.336,0.75-0.75s-0.336-0.75-0.75-0.75H59.7
			C59.286,71.487,58.95,71.823,58.95,72.237z"/>
		<path d="M83.746,75.991H59.7c-0.414,0-0.75,0.336-0.75,0.75c0,0.414,0.336,0.75,0.75,0.75h24.046c0.414,0,0.75-0.336,0.75-0.75
			C84.496,76.327,84.16,75.991,83.746,75.991z"/>
		<path d="M75.662,80.496H59.7c-0.414,0-0.75,0.336-0.75,0.75s0.336,0.75,0.75,0.75h15.962c0.414,0,0.75-0.336,0.75-0.75
			S76.076,80.496,75.662,80.496z"/>
		<path d="M49.075,58.561h15.962c0.414,0,0.75-0.336,0.75-0.75c0-0.414-0.336-0.75-0.75-0.75H49.075c-0.414,0-0.75,0.336-0.75,0.75
			C48.325,58.225,48.661,58.561,49.075,58.561z"/>
		<path d="M49.075,62.811h15.962c0.414,0,0.75-0.336,0.75-0.75c0-0.414-0.336-0.75-0.75-0.75H49.075c-0.414,0-0.75,0.336-0.75,0.75
			C48.325,62.475,48.661,62.811,49.075,62.811z"/>
	</g>
</g>
</svg>
