<?xml version="1.0" encoding="utf-8"?>
<!-- Generator: Adobe Illustrator 17.1.0, SVG Export Plug-In . SVG Version: 6.00 Build 0)  -->
<!DOCTYPE svg PUBLIC "-//W3C//DTD SVG 1.1//EN" "http://www.w3.org/Graphics/SVG/1.1/DTD/svg11.dtd">
<svg version="1.1" id="Layer_1" xmlns="http://www.w3.org/2000/svg" xmlns:xlink="http://www.w3.org/1999/xlink" x="0px" y="0px"
	 viewBox="0 0 216 216" enable-background="new 0 0 216 216" xml:space="preserve">
<g>
	<path d="M129.617,85.033L129.617,85.033c-0.049,0.081-0.047,0.181,0.007,0.26l2.672,3.946c0.044,0.067,0.122,0.108,0.204,0.106
		c0.082-0.002,0.156-0.046,0.198-0.117l0.655-1.089c6.239,5.627,9.674,12.957,9.674,20.771v0.002
		c0,8.561-4.254,16.746-11.671,22.463c-0.326,0.25-0.39,0.723-0.135,1.053c0.252,0.328,0.723,0.387,1.051,0.135
		c7.788-6.002,12.255-14.621,12.255-23.65v-0.002c0-8.338-3.689-16.145-10.386-22.081l0.6-0.997c0.044-0.07,0.048-0.157,0.012-0.23
		c-0.037-0.074-0.107-0.122-0.188-0.133l-4.715-0.549C129.759,84.909,129.667,84.952,129.617,85.033"/>
	<path d="M86.386,83.399c-9.338,5.945-14.912,15.483-14.913,25.515c0,7.42,3.01,14.586,8.48,20.262l-0.902,1.043
		c-0.055,0.062-0.073,0.146-0.051,0.225c0.024,0.08,0.084,0.141,0.162,0.164l4.552,1.348c0.089,0.027,0.187,0,0.248-0.072l0,0
		c0.062-0.07,0.077-0.17,0.039-0.256l-1.958-4.346c-0.031-0.074-0.102-0.127-0.183-0.139c-0.081-0.012-0.162,0.018-0.216,0.08
		l-0.706,0.816c-5.14-5.381-7.966-12.139-7.966-19.125c0.001-9.516,5.315-18.58,14.219-24.249c0.223-0.144,0.346-0.386,0.346-0.634
		c0-0.138-0.038-0.278-0.117-0.401C87.197,83.28,86.734,83.176,86.386,83.399"/>
	<g>
		<path d="M114.705,72.249c-1.993-1.502-3.586-2.233-4.864-2.233c-1.346,0-1.992,0.831-2.163,1.323
			c-0.061,0.174-0.059,0.364,0.004,0.536l3.021,8.243l-0.501,3.933l-4.033,1.884l-3.051-2.662c-0.316-0.86-1.626-4.41-2.294-6.291
			c-0.558-1.571-1.148-2.325-1.92-2.446c-0.478-0.075-0.875,0.142-1.099,0.379c-6.463,5.622-1.24,15.666-0.919,16.265
			c0.066,0.142,0.564,1.171,1.396,2.505l-0.497,0.234c-1.229,0.583-1.605,2.01-0.917,3.467c0.462,0.978,1.241,1.541,2.138,1.541
			c0.342,0,0.688-0.082,1.035-0.244l1.577-0.746c0.235,0.229,0.478,0.453,0.728,0.666c1.377,1.164,1.886,1.896,1.761,5.018
			l-1.205,35.176c-0.013,0.137-0.296,3.344,1.614,5.445c1.05,1.156,2.527,1.742,4.39,1.742c1.758,0,3.156-0.562,4.154-1.668
			c1.892-2.098,1.574-5.377,1.563-5.459l-1.136-35.164c0-0.396-0.012-0.775-0.023-1.141c-0.078-2.5-0.132-4.15,3.838-7.287
			c5.201-4.111,4.008-11.372,3.956-11.67C120.097,76.455,114.931,72.421,114.705,72.249 M97.977,89.761
			c-1.013-2.229-3.755-9.407,0.738-13.512c0.132,0.178,0.345,0.545,0.601,1.269c0.764,2.155,2.371,6.501,2.371,6.501
			c0.047,0.126,0.123,0.237,0.225,0.325l2.671,2.332L97.977,89.761z M99.526,97.596c-0.183,0.088-0.358,0.133-0.521,0.133
			c-0.566,0-0.901-0.535-1.053-0.854c-0.244-0.517-0.447-1.493,0.348-1.869l0.644-0.306c0.521,0.76,1.123,1.56,1.799,2.322
			L99.526,97.596z M116.31,94.012c-4.603,3.637-4.529,5.932-4.445,8.592c0.012,0.35,0.023,0.711,0.023,1.115l1.14,35.248
			c0.003,0.025,0.241,2.729-1.154,4.275c-0.693,0.768-1.663,1.143-2.968,1.143c-1.388,0-2.466-0.408-3.201-1.213
			c-1.434-1.57-1.213-4.195-1.206-4.27l1.206-35.221c0.134-3.291-0.366-4.645-2.325-6.302c-2.235-1.89-3.967-4.839-4.688-6.187
			l12.588-5.877c0.248-0.118,0.42-0.354,0.455-0.625l0.58-4.565c0.017-0.126,0.002-0.256-0.043-0.375l-2.936-8.017
			c0.101-0.062,0.259-0.118,0.507-0.118c0.511,0,1.695,0.248,3.895,1.907c0.049,0.038,4.888,3.834,5.943,10.336
			C119.69,83.925,120.755,90.497,116.31,94.012"/>
		<path d="M112.993,87.655c-0.199-0.266-0.574-0.318-0.84-0.12c-0.265,0.198-0.319,0.573-0.121,0.839l2.334,3.12
			c0.117,0.157,0.299,0.24,0.482,0.24c0.125,0,0.25-0.039,0.358-0.117c0.266-0.199,0.319-0.576,0.121-0.842L112.993,87.655z"/>
		<path d="M110.833,88.706c-0.199-0.266-0.574-0.321-0.84-0.122c-0.267,0.198-0.32,0.575-0.121,0.841l2.334,3.12
			c0.119,0.155,0.299,0.24,0.481,0.24c0.125,0,0.25-0.039,0.359-0.119c0.265-0.199,0.319-0.576,0.121-0.841L110.833,88.706z"/>
		<path d="M110.047,93.596c0.118,0.157,0.298,0.239,0.48,0.239c0.125,0,0.25-0.039,0.359-0.118c0.264-0.197,0.319-0.574,0.121-0.841
			l-2.335-3.12c-0.199-0.265-0.575-0.318-0.839-0.122c-0.266,0.199-0.321,0.575-0.121,0.841L110.047,93.596z"/>
		<path d="M108.367,94.884c0.125,0,0.252-0.038,0.358-0.118c0.267-0.199,0.32-0.574,0.121-0.841l-2.334-3.12
			c-0.198-0.264-0.574-0.317-0.839-0.12c-0.267,0.198-0.321,0.573-0.122,0.838l2.334,3.121
			C108.005,94.803,108.185,94.884,108.367,94.884"/>
		<path d="M108.867,136.932c-0.555,0-1.094,0.158-1.565,0.457c-1.354,0.863-1.756,2.668-0.894,4.023
			c0.537,0.846,1.457,1.354,2.463,1.354c0.552,0,1.093-0.158,1.561-0.457c1.358-0.863,1.759-2.67,0.896-4.027
			C110.789,137.438,109.868,136.932,108.867,136.932 M109.788,141.295c-0.775,0.496-1.877,0.246-2.368-0.525
			c-0.507-0.799-0.269-1.861,0.527-2.369c0.275-0.176,0.593-0.268,0.92-0.268c0.589,0,1.131,0.297,1.448,0.793
			C110.823,139.725,110.586,140.787,109.788,141.295"/>
	</g>
</g>
</svg>
