<?xml version="1.0" encoding="utf-8"?>
<!-- Generator: Adobe Illustrator 17.1.0, SVG Export Plug-In . SVG Version: 6.00 Build 0)  -->
<!DOCTYPE svg PUBLIC "-//W3C//DTD SVG 1.1//EN" "http://www.w3.org/Graphics/SVG/1.1/DTD/svg11.dtd">
<svg version="1.1" id="Layer_1" xmlns="http://www.w3.org/2000/svg" xmlns:xlink="http://www.w3.org/1999/xlink" x="0px" y="0px"
	 viewBox="0 0 144 144" enable-background="new 0 0 144 144" xml:space="preserve">
<g>
	<g>
		<path d="M72,113.083c-22.653,0-41.083-18.43-41.083-41.083c0-22.653,18.43-41.083,41.083-41.083S113.083,49.347,113.083,72
			C113.083,94.653,94.653,113.083,72,113.083 M72,32.917c-21.55,0-39.083,17.532-39.083,39.083S50.45,111.083,72,111.083
			c21.551,0,39.083-17.532,39.083-39.083S93.551,32.917,72,32.917"/>
		<path d="M71.949,107.588c-19.741,0-35.801-16.061-35.801-35.802c0-19.74,16.06-35.8,35.801-35.8c19.74,0,35.801,16.06,35.801,35.8
			C107.75,91.527,91.689,107.588,71.949,107.588 M71.949,37.486c-18.914,0-34.301,15.387-34.301,34.3
			c0,18.914,15.387,34.302,34.301,34.302c18.913,0,34.301-15.388,34.301-34.302C106.25,52.874,90.862,37.486,71.949,37.486"/>
		<path d="M74.684,50.444L71.6,45.861c-0.104-0.16-0.215-0.33-0.33-0.511c-0.116-0.179-0.203-0.325-0.258-0.437
			c0,0.08,0.002,0.198,0.006,0.353c0.004,0.157,0.006,0.326,0.006,0.511c0,0.176,0.002,0.352,0.007,0.527
			c0.004,0.177,0.006,0.325,0.006,0.445v3.695h-1.668v-8.399h1.619l2.966,4.44c0.104,0.16,0.213,0.33,0.329,0.51
			c0.115,0.179,0.201,0.326,0.257,0.437c0-0.079-0.002-0.197-0.006-0.353c-0.004-0.156-0.006-0.323-0.006-0.498
			c0-0.184-0.002-0.365-0.006-0.54c-0.004-0.176-0.006-0.325-0.006-0.445v-3.551h1.668v8.399H74.684z"/>
		<path d="M75.488,103.046c-0.127,0.328-0.328,0.609-0.6,0.845c-0.271,0.235-0.613,0.417-1.025,0.545
			c-0.412,0.128-0.906,0.191-1.482,0.191c-0.704,0-1.344-0.136-1.919-0.407c-0.578-0.272-1.025-0.645-1.345-1.117l1.211-1.08
			c0.298,0.345,0.627,0.591,0.99,0.738c0.364,0.149,0.75,0.224,1.158,0.224c0.504,0,0.874-0.073,1.11-0.218
			c0.235-0.144,0.354-0.375,0.354-0.695c0-0.137-0.024-0.254-0.072-0.354c-0.049-0.101-0.139-0.194-0.271-0.283
			c-0.131-0.088-0.321-0.172-0.569-0.252c-0.248-0.08-0.568-0.164-0.961-0.252c-0.384-0.088-0.737-0.191-1.062-0.312
			c-0.324-0.12-0.603-0.272-0.834-0.456c-0.231-0.184-0.412-0.416-0.539-0.695c-0.129-0.281-0.192-0.629-0.192-1.045
			c0-0.384,0.078-0.728,0.233-1.031c0.156-0.305,0.371-0.562,0.642-0.774c0.272-0.212,0.59-0.374,0.955-0.485
			c0.362-0.113,0.754-0.169,1.17-0.169c0.655,0,1.229,0.117,1.721,0.351c0.492,0.234,0.938,0.561,1.339,0.979l-1.212,1.179
			c-0.272-0.279-0.562-0.494-0.87-0.643c-0.308-0.148-0.654-0.223-1.038-0.223c-0.225,0-0.413,0.023-0.564,0.066
			c-0.152,0.044-0.274,0.103-0.371,0.174c-0.097,0.072-0.164,0.152-0.205,0.24c-0.039,0.088-0.059,0.18-0.059,0.275
			c0,0.135,0.027,0.249,0.078,0.341c0.051,0.092,0.142,0.174,0.271,0.245c0.127,0.072,0.299,0.141,0.516,0.204
			c0.216,0.063,0.492,0.136,0.828,0.216c0.336,0.08,0.67,0.174,1.002,0.282c0.332,0.106,0.632,0.257,0.9,0.448
			c0.268,0.191,0.485,0.436,0.653,0.73c0.168,0.296,0.252,0.672,0.252,1.127C75.681,102.354,75.617,102.719,75.488,103.046"/>
		<polygon points="72.834,67.169 72.834,67.166 72.831,67.169 		"/>
		<path d="M95.612,48.615c-0.268-0.263-0.688-0.288-0.982-0.06L72.834,65.275v-12.45c0-0.414-0.336-0.75-0.75-0.75
			c-0.414,0-0.749,0.336-0.749,0.75v13.6l-1.609,1.234c-1.296,0.63-2.308,1.755-2.772,3.166l-0.698,0.942H52.392
			c-0.414,0-0.75,0.336-0.75,0.75c0,0.414,0.336,0.75,0.75,0.75h12.752L49.209,94.758c-0.224,0.3-0.19,0.719,0.077,0.982
			c0.145,0.142,0.335,0.215,0.525,0.215c0.16,0,0.321-0.052,0.457-0.154l21.066-16.162V92.21c0,0.414,0.335,0.75,0.749,0.75
			c0.414,0,0.75-0.336,0.75-0.75V78.486l1.201-0.92c1.261-0.488,2.289-1.441,2.891-2.666l1.211-1.632h13.638
			c0.415,0,0.75-0.336,0.75-0.75c0-0.414-0.335-0.75-0.75-0.75H79.249l16.439-22.172C95.911,49.296,95.879,48.877,95.612,48.615
			 M53.603,91.351l13.174-17.768c0.428,2.108,2.092,3.854,4.332,4.264c0.029,0.005,0.059,0.003,0.086,0.008L53.603,91.351z
			 M72.834,76.35c-0.469,0.095-0.959,0.112-1.455,0.021c-0.017-0.003-0.028-0.01-0.044-0.013c-1.604-0.313-2.787-1.571-3.086-3.09
			c-0.094-0.468-0.109-0.958-0.018-1.454c0.002-0.017,0.008-0.031,0.013-0.046c0.31-1.588,1.55-2.794,3.091-3.093
			c0.242-0.047,0.49-0.075,0.744-0.075c0.235,0,0.474,0.021,0.708,0.064c0.017,0.003,0.031,0.01,0.047,0.014
			c1.01,0.197,1.887,0.767,2.472,1.612c0.312,0.451,0.516,0.953,0.617,1.478c0.093,0.474,0.102,0.964,0.013,1.452
			c-0.002,0.016-0.01,0.031-0.014,0.048C75.613,74.848,74.349,76.042,72.834,76.35 M77.42,71.716
			c-0.12-0.808-0.402-1.586-0.88-2.276c-0.823-1.191-2.06-1.99-3.483-2.25c-0.074-0.014-0.148-0.011-0.223-0.021h-0.003l0.003-0.003
			l18.461-14.163L77.42,71.716z"/>
		<path d="M41.275,73.211c-0.414,0-0.75-0.336-0.75-0.75c0-11.225,5.717-21.437,15.293-27.319c0.352-0.217,0.813-0.108,1.032,0.246
			c0.217,0.353,0.105,0.815-0.247,1.032c-9.128,5.607-14.578,15.343-14.578,26.041C42.025,72.875,41.689,73.211,41.275,73.211"/>
		<path d="M91.517,98.111c-0.227,0-0.45-0.101-0.598-0.295c-0.251-0.329-0.188-0.8,0.142-1.052
			c7.653-5.834,12.043-14.692,12.043-24.304c0-0.414,0.336-0.75,0.75-0.75c0.414,0,0.75,0.336,0.75,0.75
			c0,10.083-4.604,19.377-12.633,25.497C91.835,98.062,91.675,98.111,91.517,98.111"/>
	</g>
</g>
</svg>
