<svg data-name="Layer 1" xmlns="http://www.w3.org/2000/svg" viewBox="0 0 72 72"><path d="M62.4 27.32l-8.57-11.25c-2-2.86-10.47-4.16-17.83-4.16S20.34 13.2 18.21 16L9.6 27.32c-.56.63 0 1.61.49 2.39a19 19 0 0 0 2.38 2.83c1.25 1.25 3.31 3.09 4.58 3.09a.92.92 0 0 0 .68-.27l2.68-3.54 1.17 24.6c0 2 8 3.67 14.55 3.67a42.19 42.19 0 0 0 10-1.13c4.59-1.13 4.59-2.16 4.59-2.51l1-24.54 2.56 3.38.06.07a.92.92 0 0 0 .68.27c1.27 0 3.33-1.84 4.58-3.09a19 19 0 0 0 2.38-2.83c.46-.78 1.02-1.71.42-2.39zm-20.24-13.7c-.57 1.32-2.9 2.54-6.16 2.54s-5.59-1.22-6.16-2.54a61.36 61.36 0 0 1 12.32 0zm16.37 17.92a13 13 0 0 1-3.39 2.65l-3.4-4.5v-1.05a.72.72 0 0 0-.69-.74.73.73 0 0 0-.74.68l-1.05 27.68c-.73.68-5.93 2.4-13.13 2.4s-12.4-1.73-13.13-2.4l-1.34-28.33a.74.74 0 0 0-.75-.68.72.72 0 0 0-.68.75l.08 1.73-3.4 4.5a13 13 0 0 1-3.39-2.65 12.31 12.31 0 0 1-2.68-3.46L19.21 17c.71-1.27 4.1-2.57 9.2-3.24C29 16 32.13 17.57 36 17.57s7-1.61 7.58-3.78c5.26.69 8.71 2.05 9.25 3.34l8.34 11a12.31 12.31 0 0 1-2.64 3.41z"/></svg>