<svg data-name="Layer 1" xmlns="http://www.w3.org/2000/svg" viewBox="0 0 72 72"><path d="M53.59 32.44l-.32-4.83c0-.71-.66-1.11-3.93-1.49-1.7-9.06-7-15.19-13.29-15.19s-11.61 6.31-13.3 15.19c-3.2.37-3.88.77-3.93 1.44l-.4 4.86a44.79 44.79 0 0 0 .19 8.35l1.88 15.83a1.2 1.2 0 0 0 .49.85c3.12 2.23 8.83 3.62 14.89 3.62s11.88-1.37 15-3.49a1.19 1.19 0 0 0 .51-.86l2-16a43.64 43.64 0 0 0 .21-8.28zm-2.93-4.79c-.28.05-.64.1-1 .15v-.31zM36.05 12.26c6.06 0 11.24 6.88 12.32 16.36a32.91 32.91 0 0 1 .21 3.73.69.69 0 0 1-1.34 0c0-10.32-5.12-19-11.19-19s-11.2 8.72-11.2 19a.69.69 0 0 1-1.34 0c0-11.26 5.49-20.09 12.54-20.09zm-9.41 14.87c2.77-.16 6-.25 9.4-.25s6.64.09 9.41.25c.06.34.11.68.16 1-2.8.18-6.08.27-9.57.27s-6.76-.09-9.56-.27c.05-.32.1-.66.16-1zm.28-1.35c1.48-6.46 5.08-11.14 9.13-11.14s7.64 4.68 9.12 11.14c-2.71-.16-5.85-.24-9.13-.24s-6.41.08-9.12.24zm-4.39 1.71c0 .1 0 .21-.05.31l-1.06-.15zm13.34 32.25c-5.76 0-11.13-1.28-14-3.33l-.13-1C25.2 57.05 30.46 58 36 58s10.64-.95 14.15-2.58l-.13 1.06c-2.9 2-8.45 3.26-14.15 3.26zM52 40.6l-1.62 13.28c-3.29 1.77-8.65 2.83-14.34 2.83s-11.25-1.1-14.53-2.94L20 40.62a43 43 0 0 1-.19-8.1l.28-3.8a16.06 16.06 0 0 0 2.29.41 33.9 33.9 0 0 0-.15 3.22 2 2 0 0 0 4 0c0-1 .05-1.93.14-2.87 2.84.18 6.18.28 9.72.28s6.89-.1 9.73-.28c.09.94.14 1.9.14 2.87a2 2 0 0 0 4 0c0-1.08-.06-2.16-.16-3.22a16 16 0 0 0 2.25-.4l.25 3.79a42.77 42.77 0 0 1-.3 8.08z"/></svg>