<svg id="Layer_1" data-name="Layer 1" xmlns="http://www.w3.org/2000/svg" viewBox="0 0 72 72"><defs><style>.cls-1{fill:#fff}</style></defs><path class="cls-1" d="M35.31 20.58c-.5.39-.62 2.45-.62 2.45s.11.22.28.22H37c.17 0 .3-.1.28-.22s-.12-2.06-.62-2.45a2.17 2.17 0 0 0-1.35 0zM35.36 15.33v2.94a.67.67 0 0 0 1.33 0v-2.94c2.81 0 5-.33 5-.67S39.14 14 36 14s-5.68.3-5.68.67 2.2.62 5.04.66zM46.94 25.7h-6.09a.5.5 0 0 0-.5.5v4.29a2.3 2.3 0 0 0 2.3 2.3h2.49a2.3 2.3 0 0 0 2.29-2.3V26.2a.5.5 0 0 0-.49-.5zm-.2 4.79a1.6 1.6 0 0 1-1.6 1.6h-2.49a1.6 1.6 0 0 1-1.6-1.6V26.4h5.69zM31.15 25.7h-6.09a.5.5 0 0 0-.49.5v4.29a2.3 2.3 0 0 0 2.29 2.3h2.49a2.3 2.3 0 0 0 2.3-2.3V26.2a.5.5 0 0 0-.5-.5zM31 30.49a1.6 1.6 0 0 1-1.6 1.6h-2.54a1.6 1.6 0 0 1-1.6-1.6V26.4H31z"/><path class="cls-1" d="M58.19 27.84a36.79 36.79 0 0 0-4.1-8c-1.53-2.24-6-3.39-8.88-3.91-.15-.85-.27-1.47-.37-1.84-.48-1.9-4.78-2.75-8.83-2.75s-8.52.87-8.85 2.8c-.07.41-.16 1.06-.26 1.77-2.91.53-7.46 1.69-9 4a36.79 36.79 0 0 0-4.1 8c-1.19 3.08-2.5 7.12-2 11.18.13 1 .25 2 .37 3 .08.66.16 1.32.25 2l1.32 10.54v.15c.15.54 2.12.46 4.39-.17a11.1 11.1 0 0 0 3.42-1.49l.19 4c0 2 7.77 3.58 14.21 3.58a41.81 41.81 0 0 0 9.72-1.1c4.48-1.11 4.48-2.11 4.48-2.46l.16-4a10.88 10.88 0 0 0 3.42 1.48c2.28.64 4.24.72 4.39.18L59.53 44c.09-.65.17-1.31.24-2 .13-1 .25-2 .38-3 .54-4-.77-8.08-1.96-11.16zm.58 11c-.13 1-.26 2-.38 3l-.24 2-1.22 9.71a14.64 14.64 0 0 0-2.58-1 9.92 9.92 0 0 0-3.93-.47l.12-3L52.88 40a7.51 7.51 0 0 0-.26-4.52l-1.38-3.59.08-2a.7.7 0 0 0-.67-.73.72.72 0 0 0-.72.67l-.75 19-.32 7.95c-.68.64-5.46 2.23-12.13 2.34V25.36a.7.7 0 1 0-1.4 0v33.89c-6.65-.11-11.41-1.7-12.1-2.34l-1.34-27.65a.71.71 0 0 0-.73-.66.69.69 0 0 0-.66.73l.13 2.8-1.31 3.4a7.36 7.36 0 0 0-.26 4.52l2.38 9.25.14 2.84a9.66 9.66 0 0 0-3.92.47 14.82 14.82 0 0 0-2.59 1l-1.22-9.72-.24-2c-.12-1-.25-2-.38-3-.49-3.75.75-7.57 1.88-10.49A36.3 36.3 0 0 1 19 20.66c.91-1.41 4.19-2.74 8.57-3.47l.51-.08.07-.51c.12-.89.25-1.74.33-2.24S31 12.74 36 12.74s7.36 1.22 7.48 1.7.25 1.17.43 2.22l.08.49.49.08c4.33.74 7.49 2 8.44 3.41a66.06 66.06 0 0 1 4 7.71c1.08 2.92 2.34 6.74 1.85 10.49zm-8 3.69l.28-7.11.23.61a5.91 5.91 0 0 1 .21 3.67zm-29.68-.09l-.71-2.74a6.06 6.06 0 0 1 .24-3.7l.17-.44z"/></svg>