<svg id="Layer_1" data-name="Layer 1" xmlns="http://www.w3.org/2000/svg" viewBox="0 0 72 72"><defs><style>.cls-1{fill:#fff}</style></defs><path class="cls-1" d="M17.1 57.22L15 58a.86.86 0 0 1-1.11-1.1l.76-2.09a.17.17 0 0 1 .28-.07L17.16 57a.16.16 0 0 1-.06.22zM54.08 13.94a4 4 0 0 0-2.86 1.18l-1.57 1.57a3.51 3.51 0 0 0-.64.85c-1.52-1.52-6.77 1.28-11.74 6.25-3.41 3.4-5.79 6.93-6.47 9.31a.21.21 0 0 0 .34.22l3-2.26a1.06 1.06 0 0 0 .41-.7 5.44 5.44 0 0 1 .63-1.89 3.9 3.9 0 0 1 .22-.47 31 31 0 0 1 2.66-3 28.22 28.22 0 0 1 6.63-5c.33-.18.68-.33 1-.49a2.57 2.57 0 0 1 1-.29.4.4 0 0 1 .39.21 3.9 3.9 0 0 0-.6.49L18.57 47.77a3.72 3.72 0 0 0-.3.37 22.49 22.49 0 0 0-2 2.94 8.93 8.93 0 0 0-.76 2.62.41.41 0 0 0 .12.33l.57.57.6.59.3.31.86.86a.4.4 0 0 0 .33.11 8.57 8.57 0 0 0 2.71-.71 23.62 23.62 0 0 0 2.95-2c.13-.1.25-.19.37-.3l27.89-27.88a3.92 3.92 0 0 0 .93-1.47l.76-.76a4 4 0 0 0 1.47-.93l1.57-1.58a4 4 0 0 0-2.86-6.9zm-2.2 9.33l-3-3a.39.39 0 0 1 0-.55l.34-.34a.39.39 0 0 1 .55 0l3 3a.39.39 0 0 1 0 .55l-.34.34a.39.39 0 0 1-.55 0zm-34.4 28.19a4 4 0 0 0 3.08 3.11.36.36 0 0 1-.21.38l-1.35.53a.45.45 0 0 1-.48-.1l-1.91-1.91a.44.44 0 0 1-.09-.49l.58-1.32a.33.33 0 0 1 .38-.2zm19.46-20l.05.07 3.56 3.56-17.31 17.35a2.56 2.56 0 0 1-3.62-3.62zm10.59-10.55a2.6 2.6 0 0 1 .51-.38l3.5 3.47a2.16 2.16 0 0 1-.39.51l-10.07 10.1-3.56-3.56-.08-.05zm6.55-5.48a2.53 2.53 0 0 1 1.81.74 2.56 2.56 0 0 1 0 3.62l-1.57 1.57a2.53 2.53 0 0 1-.9.58l-3.3-3.3a2.68 2.68 0 0 1 .58-.9l1.57-1.57a2.55 2.55 0 0 1 1.81-.74z"/></svg>